<?xml version="1.0" encoding="utf-8"?>
<svg xmlns="http://www.w3.org/2000/svg" xmlns:xlink="http://www.w3.org/1999/xlink" width="800" height="600" viewBox="0 0 3200 2400">
<defs>
  <clipPath id="clip620">
    <rect x="0" y="0" width="3200" height="2400"/>
  </clipPath>
</defs>
<path clip-path="url(#clip620)" d="M0 2400 L3200 2400 L3200 0 L0 0  Z" fill="#ffffff" fill-rule="evenodd" fill-opacity="1"/>
<defs>
  <clipPath id="clip621">
    <rect x="189" y="131" width="2964" height="2075"/>
  </clipPath>
</defs>
<path clip-path="url(#clip620)" d="M472.305 2204.92 L3152.76 2204.92 L3152.76 131.032 L472.305 131.032  Z" fill="#ffffff" fill-rule="evenodd" fill-opacity="1"/>
<defs>
  <clipPath id="clip622">
    <rect x="472" y="131" width="2681" height="2075"/>
  </clipPath>
</defs>
<polyline clip-path="url(#clip622)" style="stroke:#000000; stroke-linecap:round; stroke-linejoin:round; stroke-width:2; stroke-opacity:0.1; fill:none" points="829.136,2204.92 829.136,131.032 "/>
<polyline clip-path="url(#clip622)" style="stroke:#000000; stroke-linecap:round; stroke-linejoin:round; stroke-width:2; stroke-opacity:0.1; fill:none" points="1391.08,2204.92 1391.08,131.032 "/>
<polyline clip-path="url(#clip622)" style="stroke:#000000; stroke-linecap:round; stroke-linejoin:round; stroke-width:2; stroke-opacity:0.1; fill:none" points="1953.02,2204.92 1953.02,131.032 "/>
<polyline clip-path="url(#clip622)" style="stroke:#000000; stroke-linecap:round; stroke-linejoin:round; stroke-width:2; stroke-opacity:0.1; fill:none" points="2514.95,2204.92 2514.95,131.032 "/>
<polyline clip-path="url(#clip622)" style="stroke:#000000; stroke-linecap:round; stroke-linejoin:round; stroke-width:2; stroke-opacity:0.1; fill:none" points="3076.89,2204.92 3076.89,131.032 "/>
<polyline clip-path="url(#clip622)" style="stroke:#000000; stroke-linecap:round; stroke-linejoin:round; stroke-width:2; stroke-opacity:0.1; fill:none" points="472.305,2031.9 3152.76,2031.9 "/>
<polyline clip-path="url(#clip622)" style="stroke:#000000; stroke-linecap:round; stroke-linejoin:round; stroke-width:2; stroke-opacity:0.1; fill:none" points="472.305,1660.72 3152.76,1660.72 "/>
<polyline clip-path="url(#clip622)" style="stroke:#000000; stroke-linecap:round; stroke-linejoin:round; stroke-width:2; stroke-opacity:0.1; fill:none" points="472.305,1289.54 3152.76,1289.54 "/>
<polyline clip-path="url(#clip622)" style="stroke:#000000; stroke-linecap:round; stroke-linejoin:round; stroke-width:2; stroke-opacity:0.1; fill:none" points="472.305,918.356 3152.76,918.356 "/>
<polyline clip-path="url(#clip622)" style="stroke:#000000; stroke-linecap:round; stroke-linejoin:round; stroke-width:2; stroke-opacity:0.1; fill:none" points="472.305,547.175 3152.76,547.175 "/>
<polyline clip-path="url(#clip622)" style="stroke:#000000; stroke-linecap:round; stroke-linejoin:round; stroke-width:2; stroke-opacity:0.1; fill:none" points="472.305,175.993 3152.76,175.993 "/>
<polyline clip-path="url(#clip620)" style="stroke:#000000; stroke-linecap:round; stroke-linejoin:round; stroke-width:4; stroke-opacity:1; fill:none" points="472.305,2204.92 3152.76,2204.92 "/>
<polyline clip-path="url(#clip620)" style="stroke:#000000; stroke-linecap:round; stroke-linejoin:round; stroke-width:4; stroke-opacity:1; fill:none" points="829.136,2204.92 829.136,2186.02 "/>
<polyline clip-path="url(#clip620)" style="stroke:#000000; stroke-linecap:round; stroke-linejoin:round; stroke-width:4; stroke-opacity:1; fill:none" points="1391.08,2204.92 1391.08,2186.02 "/>
<polyline clip-path="url(#clip620)" style="stroke:#000000; stroke-linecap:round; stroke-linejoin:round; stroke-width:4; stroke-opacity:1; fill:none" points="1953.02,2204.92 1953.02,2186.02 "/>
<polyline clip-path="url(#clip620)" style="stroke:#000000; stroke-linecap:round; stroke-linejoin:round; stroke-width:4; stroke-opacity:1; fill:none" points="2514.95,2204.92 2514.95,2186.02 "/>
<polyline clip-path="url(#clip620)" style="stroke:#000000; stroke-linecap:round; stroke-linejoin:round; stroke-width:4; stroke-opacity:1; fill:none" points="3076.89,2204.92 3076.89,2186.02 "/>
<path clip-path="url(#clip620)" d="M807.319 2242.24 Q803.708 2242.24 801.879 2245.8 Q800.074 2249.34 800.074 2256.47 Q800.074 2263.58 801.879 2267.15 Q803.708 2270.69 807.319 2270.69 Q810.953 2270.69 812.759 2267.15 Q814.588 2263.58 814.588 2256.47 Q814.588 2249.34 812.759 2245.8 Q810.953 2242.24 807.319 2242.24 M807.319 2238.53 Q813.129 2238.53 816.185 2243.14 Q819.264 2247.72 819.264 2256.47 Q819.264 2265.2 816.185 2269.81 Q813.129 2274.39 807.319 2274.39 Q801.509 2274.39 798.43 2269.81 Q795.375 2265.2 795.375 2256.47 Q795.375 2247.72 798.43 2243.14 Q801.509 2238.53 807.319 2238.53 Z" fill="#000000" fill-rule="nonzero" fill-opacity="1" /><path clip-path="url(#clip620)" d="M827.481 2267.84 L832.365 2267.84 L832.365 2273.72 L827.481 2273.72 L827.481 2267.84 Z" fill="#000000" fill-rule="nonzero" fill-opacity="1" /><path clip-path="url(#clip620)" d="M846.578 2269.78 L862.898 2269.78 L862.898 2273.72 L840.953 2273.72 L840.953 2269.78 Q843.615 2267.03 848.199 2262.4 Q852.805 2257.75 853.986 2256.41 Q856.231 2253.88 857.111 2252.15 Q858.013 2250.39 858.013 2248.7 Q858.013 2245.94 856.069 2244.21 Q854.148 2242.47 851.046 2242.47 Q848.847 2242.47 846.393 2243.23 Q843.963 2244 841.185 2245.55 L841.185 2240.83 Q844.009 2239.69 846.463 2239.11 Q848.916 2238.53 850.953 2238.53 Q856.324 2238.53 859.518 2241.22 Q862.712 2243.91 862.712 2248.4 Q862.712 2250.53 861.902 2252.45 Q861.115 2254.34 859.009 2256.94 Q858.43 2257.61 855.328 2260.83 Q852.226 2264.02 846.578 2269.78 Z" fill="#000000" fill-rule="nonzero" fill-opacity="1" /><path clip-path="url(#clip620)" d="M1368.22 2242.24 Q1364.61 2242.24 1362.78 2245.8 Q1360.97 2249.34 1360.97 2256.47 Q1360.97 2263.58 1362.78 2267.15 Q1364.61 2270.69 1368.22 2270.69 Q1371.85 2270.69 1373.66 2267.15 Q1375.49 2263.58 1375.49 2256.47 Q1375.49 2249.34 1373.66 2245.8 Q1371.85 2242.24 1368.22 2242.24 M1368.22 2238.53 Q1374.03 2238.53 1377.08 2243.14 Q1380.16 2247.72 1380.16 2256.47 Q1380.16 2265.2 1377.08 2269.81 Q1374.03 2274.39 1368.22 2274.39 Q1362.41 2274.39 1359.33 2269.81 Q1356.27 2265.2 1356.27 2256.47 Q1356.27 2247.72 1359.33 2243.14 Q1362.41 2238.53 1368.22 2238.53 Z" fill="#000000" fill-rule="nonzero" fill-opacity="1" /><path clip-path="url(#clip620)" d="M1388.38 2267.84 L1393.26 2267.84 L1393.26 2273.72 L1388.38 2273.72 L1388.38 2267.84 Z" fill="#000000" fill-rule="nonzero" fill-opacity="1" /><path clip-path="url(#clip620)" d="M1416.3 2243.23 L1404.49 2261.68 L1416.3 2261.68 L1416.3 2243.23 M1415.07 2239.16 L1420.95 2239.16 L1420.95 2261.68 L1425.88 2261.68 L1425.88 2265.57 L1420.95 2265.57 L1420.95 2273.72 L1416.3 2273.72 L1416.3 2265.57 L1400.69 2265.57 L1400.69 2261.06 L1415.07 2239.16 Z" fill="#000000" fill-rule="nonzero" fill-opacity="1" /><path clip-path="url(#clip620)" d="M1930.32 2242.24 Q1926.71 2242.24 1924.88 2245.8 Q1923.07 2249.34 1923.07 2256.47 Q1923.07 2263.58 1924.88 2267.15 Q1926.71 2270.69 1930.32 2270.69 Q1933.95 2270.69 1935.76 2267.15 Q1937.59 2263.58 1937.59 2256.47 Q1937.59 2249.34 1935.76 2245.8 Q1933.95 2242.24 1930.32 2242.24 M1930.32 2238.53 Q1936.13 2238.53 1939.18 2243.14 Q1942.26 2247.72 1942.26 2256.47 Q1942.26 2265.2 1939.18 2269.81 Q1936.13 2274.39 1930.32 2274.39 Q1924.51 2274.39 1921.43 2269.81 Q1918.37 2265.2 1918.37 2256.47 Q1918.37 2247.72 1921.43 2243.14 Q1924.51 2238.53 1930.32 2238.53 Z" fill="#000000" fill-rule="nonzero" fill-opacity="1" /><path clip-path="url(#clip620)" d="M1950.48 2267.84 L1955.36 2267.84 L1955.36 2273.72 L1950.48 2273.72 L1950.48 2267.84 Z" fill="#000000" fill-rule="nonzero" fill-opacity="1" /><path clip-path="url(#clip620)" d="M1976.13 2254.58 Q1972.98 2254.58 1971.13 2256.73 Q1969.3 2258.88 1969.3 2262.63 Q1969.3 2266.36 1971.13 2268.53 Q1972.98 2270.69 1976.13 2270.69 Q1979.28 2270.69 1981.11 2268.53 Q1982.96 2266.36 1982.96 2262.63 Q1982.96 2258.88 1981.11 2256.73 Q1979.28 2254.58 1976.13 2254.58 M1985.41 2239.92 L1985.41 2244.18 Q1983.65 2243.35 1981.85 2242.91 Q1980.06 2242.47 1978.3 2242.47 Q1973.67 2242.47 1971.22 2245.59 Q1968.79 2248.72 1968.44 2255.04 Q1969.81 2253.03 1971.87 2251.96 Q1973.93 2250.87 1976.41 2250.87 Q1981.61 2250.87 1984.62 2254.04 Q1987.66 2257.19 1987.66 2262.63 Q1987.66 2267.96 1984.51 2271.17 Q1981.36 2274.39 1976.13 2274.39 Q1970.13 2274.39 1966.96 2269.81 Q1963.79 2265.2 1963.79 2256.47 Q1963.79 2248.28 1967.68 2243.42 Q1971.57 2238.53 1978.12 2238.53 Q1979.88 2238.53 1981.66 2238.88 Q1983.47 2239.23 1985.41 2239.92 Z" fill="#000000" fill-rule="nonzero" fill-opacity="1" /><path clip-path="url(#clip620)" d="M2492.39 2242.24 Q2488.77 2242.24 2486.95 2245.8 Q2485.14 2249.34 2485.14 2256.47 Q2485.14 2263.58 2486.95 2267.15 Q2488.77 2270.69 2492.39 2270.69 Q2496.02 2270.69 2497.83 2267.15 Q2499.65 2263.58 2499.65 2256.47 Q2499.65 2249.34 2497.83 2245.8 Q2496.02 2242.24 2492.39 2242.24 M2492.39 2238.53 Q2498.2 2238.53 2501.25 2243.14 Q2504.33 2247.72 2504.33 2256.47 Q2504.33 2265.2 2501.25 2269.81 Q2498.2 2274.39 2492.39 2274.39 Q2486.58 2274.39 2483.5 2269.81 Q2480.44 2265.2 2480.44 2256.47 Q2480.44 2247.72 2483.5 2243.14 Q2486.58 2238.53 2492.39 2238.53 Z" fill="#000000" fill-rule="nonzero" fill-opacity="1" /><path clip-path="url(#clip620)" d="M2512.55 2267.84 L2517.43 2267.84 L2517.43 2273.72 L2512.55 2273.72 L2512.55 2267.84 Z" fill="#000000" fill-rule="nonzero" fill-opacity="1" /><path clip-path="url(#clip620)" d="M2537.62 2257.31 Q2534.28 2257.31 2532.36 2259.09 Q2530.46 2260.87 2530.46 2264 Q2530.46 2267.12 2532.36 2268.91 Q2534.28 2270.69 2537.62 2270.69 Q2540.95 2270.69 2542.87 2268.91 Q2544.79 2267.1 2544.79 2264 Q2544.79 2260.87 2542.87 2259.09 Q2540.97 2257.31 2537.62 2257.31 M2532.94 2255.32 Q2529.93 2254.58 2528.24 2252.52 Q2526.57 2250.46 2526.57 2247.49 Q2526.57 2243.35 2529.51 2240.94 Q2532.48 2238.53 2537.62 2238.53 Q2542.78 2238.53 2545.72 2240.94 Q2548.66 2243.35 2548.66 2247.49 Q2548.66 2250.46 2546.97 2252.52 Q2545.3 2254.58 2542.32 2255.32 Q2545.7 2256.1 2547.57 2258.4 Q2549.47 2260.69 2549.47 2264 Q2549.47 2269.02 2546.39 2271.71 Q2543.33 2274.39 2537.62 2274.39 Q2531.9 2274.39 2528.82 2271.71 Q2525.76 2269.02 2525.76 2264 Q2525.76 2260.69 2527.66 2258.4 Q2529.56 2256.1 2532.94 2255.32 M2531.23 2247.93 Q2531.23 2250.62 2532.89 2252.12 Q2534.58 2253.63 2537.62 2253.63 Q2540.63 2253.63 2542.32 2252.12 Q2544.03 2250.62 2544.03 2247.93 Q2544.03 2245.25 2542.32 2243.74 Q2540.63 2242.24 2537.62 2242.24 Q2534.58 2242.24 2532.89 2243.74 Q2531.23 2245.25 2531.23 2247.93 Z" fill="#000000" fill-rule="nonzero" fill-opacity="1" /><path clip-path="url(#clip620)" d="M3044.05 2269.78 L3051.69 2269.78 L3051.69 2243.42 L3043.38 2245.09 L3043.38 2240.83 L3051.64 2239.16 L3056.32 2239.16 L3056.32 2269.78 L3063.95 2269.78 L3063.95 2273.72 L3044.05 2273.72 L3044.05 2269.78 Z" fill="#000000" fill-rule="nonzero" fill-opacity="1" /><path clip-path="url(#clip620)" d="M3073.4 2267.84 L3078.28 2267.84 L3078.28 2273.72 L3073.4 2273.72 L3073.4 2267.84 Z" fill="#000000" fill-rule="nonzero" fill-opacity="1" /><path clip-path="url(#clip620)" d="M3098.47 2242.24 Q3094.86 2242.24 3093.03 2245.8 Q3091.22 2249.34 3091.22 2256.47 Q3091.22 2263.58 3093.03 2267.15 Q3094.86 2270.69 3098.47 2270.69 Q3102.1 2270.69 3103.91 2267.15 Q3105.74 2263.58 3105.74 2256.47 Q3105.74 2249.34 3103.91 2245.8 Q3102.1 2242.24 3098.47 2242.24 M3098.47 2238.53 Q3104.28 2238.53 3107.33 2243.14 Q3110.41 2247.72 3110.41 2256.47 Q3110.41 2265.2 3107.33 2269.81 Q3104.28 2274.39 3098.47 2274.39 Q3092.66 2274.39 3089.58 2269.81 Q3086.52 2265.2 3086.52 2256.47 Q3086.52 2247.72 3089.58 2243.14 Q3092.66 2238.53 3098.47 2238.53 Z" fill="#000000" fill-rule="nonzero" fill-opacity="1" /><path clip-path="url(#clip620)" d="M1545.04 2317.92 L1545.04 2324.7 Q1541.8 2321.68 1538.1 2320.18 Q1534.44 2318.69 1530.31 2318.69 Q1522.16 2318.69 1517.83 2323.69 Q1513.5 2328.65 1513.5 2338.07 Q1513.5 2347.46 1517.83 2352.46 Q1522.16 2357.42 1530.31 2357.42 Q1534.44 2357.42 1538.1 2355.93 Q1541.8 2354.43 1545.04 2351.41 L1545.04 2358.12 Q1541.67 2360.42 1537.88 2361.56 Q1534.13 2362.71 1529.92 2362.71 Q1519.13 2362.71 1512.93 2356.12 Q1506.72 2349.5 1506.72 2338.07 Q1506.72 2326.61 1512.93 2320.02 Q1519.13 2313.4 1529.92 2313.4 Q1534.19 2313.4 1537.95 2314.55 Q1541.73 2315.66 1545.04 2317.92 Z" fill="#000000" fill-rule="nonzero" fill-opacity="1" /><path clip-path="url(#clip620)" d="M1554.5 2326.14 L1560.32 2326.14 L1560.32 2342.88 L1576.84 2326.14 L1584.03 2326.14 L1570.41 2339.92 L1585.78 2361.78 L1579.23 2361.78 L1566.59 2343.8 L1560.32 2350.17 L1560.32 2361.78 L1554.5 2361.78 L1554.5 2326.14 Z" fill="#000000" fill-rule="nonzero" fill-opacity="1" /><path clip-path="url(#clip620)" d="M1607.9 2330.24 Q1603.19 2330.24 1600.46 2333.93 Q1597.72 2337.59 1597.72 2343.99 Q1597.72 2350.39 1600.42 2354.08 Q1603.16 2357.74 1607.9 2357.74 Q1612.58 2357.74 1615.32 2354.05 Q1618.06 2350.36 1618.06 2343.99 Q1618.06 2337.66 1615.32 2333.97 Q1612.58 2330.24 1607.9 2330.24 M1607.9 2325.28 Q1615.54 2325.28 1619.9 2330.24 Q1624.26 2335.21 1624.26 2343.99 Q1624.26 2352.74 1619.9 2357.74 Q1615.54 2362.71 1607.9 2362.71 Q1600.23 2362.71 1595.87 2357.74 Q1591.54 2352.74 1591.54 2343.99 Q1591.54 2335.21 1595.87 2330.24 Q1600.23 2325.28 1607.9 2325.28 Z" fill="#000000" fill-rule="nonzero" fill-opacity="1" /><path clip-path="url(#clip620)" d="M1639.64 2356.44 L1639.64 2375.34 L1633.75 2375.34 L1633.75 2326.14 L1639.64 2326.14 L1639.64 2331.55 Q1641.48 2328.36 1644.28 2326.84 Q1647.12 2325.28 1651.03 2325.28 Q1657.53 2325.28 1661.57 2330.43 Q1665.64 2335.59 1665.64 2343.99 Q1665.64 2352.39 1661.57 2357.55 Q1657.53 2362.71 1651.03 2362.71 Q1647.12 2362.71 1644.28 2361.18 Q1641.48 2359.62 1639.64 2356.44 M1659.56 2343.99 Q1659.56 2337.53 1656.89 2333.87 Q1654.25 2330.18 1649.6 2330.18 Q1644.95 2330.18 1642.28 2333.87 Q1639.64 2337.53 1639.64 2343.99 Q1639.64 2350.45 1642.28 2354.14 Q1644.95 2357.81 1649.6 2357.81 Q1654.25 2357.81 1656.89 2354.14 Q1659.56 2350.45 1659.56 2343.99 Z" fill="#000000" fill-rule="nonzero" fill-opacity="1" /><path clip-path="url(#clip620)" d="M1689.16 2330.24 Q1684.45 2330.24 1681.72 2333.93 Q1678.98 2337.59 1678.98 2343.99 Q1678.98 2350.39 1681.68 2354.08 Q1684.42 2357.74 1689.16 2357.74 Q1693.84 2357.74 1696.58 2354.05 Q1699.32 2350.36 1699.32 2343.99 Q1699.32 2337.66 1696.58 2333.97 Q1693.84 2330.24 1689.16 2330.24 M1689.16 2325.28 Q1696.8 2325.28 1701.16 2330.24 Q1705.52 2335.21 1705.52 2343.99 Q1705.52 2352.74 1701.16 2357.74 Q1696.8 2362.71 1689.16 2362.71 Q1681.49 2362.71 1677.13 2357.74 Q1672.8 2352.74 1672.8 2343.99 Q1672.8 2335.21 1677.13 2330.24 Q1681.49 2325.28 1689.16 2325.28 Z" fill="#000000" fill-rule="nonzero" fill-opacity="1" /><path clip-path="url(#clip620)" d="M1740.88 2327.5 L1740.88 2332.98 Q1738.4 2331.61 1735.89 2330.94 Q1733.4 2330.24 1730.86 2330.24 Q1725.16 2330.24 1722.01 2333.87 Q1718.86 2337.47 1718.86 2343.99 Q1718.86 2350.52 1722.01 2354.14 Q1725.16 2357.74 1730.86 2357.74 Q1733.4 2357.74 1735.89 2357.07 Q1738.4 2356.37 1740.88 2355 L1740.88 2360.42 Q1738.43 2361.56 1735.79 2362.13 Q1733.18 2362.71 1730.22 2362.71 Q1722.17 2362.71 1717.43 2357.65 Q1712.68 2352.59 1712.68 2343.99 Q1712.68 2335.27 1717.46 2330.27 Q1722.26 2325.28 1730.6 2325.28 Q1733.31 2325.28 1735.89 2325.85 Q1738.47 2326.39 1740.88 2327.5 Z" fill="#000000" fill-rule="nonzero" fill-opacity="1" /><path clip-path="url(#clip620)" d="M1746.84 2326.14 L1780.99 2326.14 L1780.99 2330.81 L1766.79 2330.81 L1766.79 2361.78 L1761.03 2361.78 L1761.03 2330.81 L1746.84 2330.81 L1746.84 2326.14 Z" fill="#000000" fill-rule="nonzero" fill-opacity="1" /><path clip-path="url(#clip620)" d="M1811.23 2351.22 Q1811.23 2348.35 1809.12 2346.86 Q1807.06 2345.36 1803.05 2345.36 L1794.71 2345.36 L1794.71 2357.11 L1803.05 2357.11 Q1807.06 2357.11 1809.12 2355.61 Q1811.23 2354.08 1811.23 2351.22 M1788.82 2326.14 L1794.71 2326.14 L1794.71 2340.68 L1803.3 2340.68 Q1810.11 2340.68 1813.77 2343.29 Q1817.46 2345.87 1817.46 2351.22 Q1817.46 2356.56 1813.77 2359.17 Q1810.11 2361.78 1803.3 2361.78 L1788.82 2361.78 L1788.82 2326.14 Z" fill="#000000" fill-rule="nonzero" fill-opacity="1" /><path clip-path="url(#clip620)" d="M1853.84 2356.44 L1853.84 2375.34 L1847.96 2375.34 L1847.96 2326.14 L1853.84 2326.14 L1853.84 2331.55 Q1855.69 2328.36 1858.49 2326.84 Q1861.32 2325.28 1865.24 2325.28 Q1871.73 2325.28 1875.77 2330.43 Q1879.85 2335.59 1879.85 2343.99 Q1879.85 2352.39 1875.77 2357.55 Q1871.73 2362.71 1865.24 2362.71 Q1861.32 2362.71 1858.49 2361.18 Q1855.69 2359.62 1853.84 2356.44 M1873.77 2343.99 Q1873.77 2337.53 1871.09 2333.87 Q1868.45 2330.18 1863.81 2330.18 Q1859.16 2330.18 1856.49 2333.87 Q1853.84 2337.53 1853.84 2343.99 Q1853.84 2350.45 1856.49 2354.14 Q1859.16 2357.81 1863.81 2357.81 Q1868.45 2357.81 1871.09 2354.14 Q1873.77 2350.45 1873.77 2343.99 Z" fill="#000000" fill-rule="nonzero" fill-opacity="1" /><path clip-path="url(#clip620)" d="M1903.37 2330.24 Q1898.66 2330.24 1895.92 2333.93 Q1893.18 2337.59 1893.18 2343.99 Q1893.18 2350.39 1895.89 2354.08 Q1898.63 2357.74 1903.37 2357.74 Q1908.05 2357.74 1910.78 2354.05 Q1913.52 2350.36 1913.52 2343.99 Q1913.52 2337.66 1910.78 2333.97 Q1908.05 2330.24 1903.37 2330.24 M1903.37 2325.28 Q1911.01 2325.28 1915.37 2330.24 Q1919.73 2335.21 1919.73 2343.99 Q1919.73 2352.74 1915.37 2357.74 Q1911.01 2362.71 1903.37 2362.71 Q1895.7 2362.71 1891.34 2357.74 Q1887.01 2352.74 1887.01 2343.99 Q1887.01 2335.21 1891.34 2330.24 Q1895.7 2325.28 1903.37 2325.28 Z" fill="#000000" fill-rule="nonzero" fill-opacity="1" /><path clip-path="url(#clip620)" d="M1955.09 2327.5 L1955.09 2332.98 Q1952.61 2331.61 1950.09 2330.94 Q1947.61 2330.24 1945.06 2330.24 Q1939.37 2330.24 1936.22 2333.87 Q1933.06 2337.47 1933.06 2343.99 Q1933.06 2350.52 1936.22 2354.14 Q1939.37 2357.74 1945.06 2357.74 Q1947.61 2357.74 1950.09 2357.07 Q1952.61 2356.37 1955.09 2355 L1955.09 2360.42 Q1952.64 2361.56 1950 2362.13 Q1947.39 2362.71 1944.43 2362.71 Q1936.38 2362.71 1931.63 2357.65 Q1926.89 2352.59 1926.89 2343.99 Q1926.89 2335.27 1931.66 2330.27 Q1936.47 2325.28 1944.81 2325.28 Q1947.52 2325.28 1950.09 2325.85 Q1952.67 2326.39 1955.09 2327.5 Z" fill="#000000" fill-rule="nonzero" fill-opacity="1" /><path clip-path="url(#clip620)" d="M1961.04 2326.14 L1995.19 2326.14 L1995.19 2330.81 L1981 2330.81 L1981 2361.78 L1975.24 2361.78 L1975.24 2330.81 L1961.04 2330.81 L1961.04 2326.14 Z" fill="#000000" fill-rule="nonzero" fill-opacity="1" /><path clip-path="url(#clip620)" d="M2019.45 2343.86 Q2012.35 2343.86 2009.61 2345.49 Q2006.88 2347.11 2006.88 2351.03 Q2006.88 2354.14 2008.91 2355.99 Q2010.98 2357.81 2014.51 2357.81 Q2019.38 2357.81 2022.31 2354.37 Q2025.27 2350.9 2025.27 2345.17 L2025.27 2343.86 L2019.45 2343.86 M2031.13 2341.45 L2031.13 2361.78 L2025.27 2361.78 L2025.27 2356.37 Q2023.27 2359.62 2020.28 2361.18 Q2017.28 2362.71 2012.95 2362.71 Q2007.48 2362.71 2004.23 2359.65 Q2001.02 2356.56 2001.02 2351.41 Q2001.02 2345.39 2005.03 2342.34 Q2009.07 2339.28 2017.06 2339.28 L2025.27 2339.28 L2025.27 2338.71 Q2025.27 2334.67 2022.6 2332.47 Q2019.96 2330.24 2015.15 2330.24 Q2012.1 2330.24 2009.2 2330.97 Q2006.3 2331.71 2003.63 2333.17 L2003.63 2327.76 Q2006.84 2326.52 2009.87 2325.91 Q2012.89 2325.28 2015.76 2325.28 Q2023.49 2325.28 2027.31 2329.29 Q2031.13 2333.3 2031.13 2341.45 Z" fill="#000000" fill-rule="nonzero" fill-opacity="1" /><path clip-path="url(#clip620)" d="M2044.69 2353.7 L2051.4 2353.7 L2051.4 2359.17 L2046.18 2369.36 L2042.08 2369.36 L2044.69 2359.17 L2044.69 2353.7 Z" fill="#000000" fill-rule="nonzero" fill-opacity="1" /><path clip-path="url(#clip620)" d="M2105.42 2345.2 L2104.02 2337.85 Q2102.58 2330.31 2096.92 2330.31 Q2092.65 2330.31 2090.71 2333.81 Q2088.26 2338.2 2088.26 2343.99 Q2088.26 2350.99 2090.65 2354.34 Q2093.07 2357.74 2096.92 2357.74 Q2101.18 2357.74 2103.47 2350.96 L2105.42 2345.2 M2108.69 2335.46 L2111.85 2326.14 L2117.07 2326.14 L2110.54 2345.46 L2111.81 2352.43 Q2112.1 2353.99 2113.21 2355.29 Q2114.52 2356.82 2115.54 2356.82 L2118.34 2356.82 L2118.34 2361.78 L2114.84 2361.78 Q2111.85 2361.78 2109.17 2359.11 Q2107.87 2357.77 2107.33 2354.97 Q2105.86 2358.51 2102.87 2361.27 Q2101.47 2362.58 2096.92 2362.58 Q2089.44 2362.58 2085.81 2357.74 Q2082.09 2352.74 2082.09 2343.99 Q2082.09 2334.63 2086.13 2330.24 Q2090.62 2325.34 2096.92 2325.34 Q2106.82 2325.34 2108.69 2335.46 Z" fill="#000000" fill-rule="nonzero" fill-opacity="1" /><polyline clip-path="url(#clip620)" style="stroke:#000000; stroke-linecap:round; stroke-linejoin:round; stroke-width:4; stroke-opacity:1; fill:none" points="472.305,2204.92 472.305,131.032 "/>
<polyline clip-path="url(#clip620)" style="stroke:#000000; stroke-linecap:round; stroke-linejoin:round; stroke-width:4; stroke-opacity:1; fill:none" points="472.305,2031.9 491.202,2031.9 "/>
<polyline clip-path="url(#clip620)" style="stroke:#000000; stroke-linecap:round; stroke-linejoin:round; stroke-width:4; stroke-opacity:1; fill:none" points="472.305,1660.72 491.202,1660.72 "/>
<polyline clip-path="url(#clip620)" style="stroke:#000000; stroke-linecap:round; stroke-linejoin:round; stroke-width:4; stroke-opacity:1; fill:none" points="472.305,1289.54 491.202,1289.54 "/>
<polyline clip-path="url(#clip620)" style="stroke:#000000; stroke-linecap:round; stroke-linejoin:round; stroke-width:4; stroke-opacity:1; fill:none" points="472.305,918.356 491.202,918.356 "/>
<polyline clip-path="url(#clip620)" style="stroke:#000000; stroke-linecap:round; stroke-linejoin:round; stroke-width:4; stroke-opacity:1; fill:none" points="472.305,547.175 491.202,547.175 "/>
<polyline clip-path="url(#clip620)" style="stroke:#000000; stroke-linecap:round; stroke-linejoin:round; stroke-width:4; stroke-opacity:1; fill:none" points="472.305,175.993 491.202,175.993 "/>
<path clip-path="url(#clip620)" d="M116.871 2051.69 L124.51 2051.69 L124.51 2025.33 L116.2 2026.99 L116.2 2022.74 L124.464 2021.07 L129.14 2021.07 L129.14 2051.69 L136.779 2051.69 L136.779 2055.63 L116.871 2055.63 L116.871 2051.69 Z" fill="#000000" fill-rule="nonzero" fill-opacity="1" /><path clip-path="url(#clip620)" d="M146.223 2049.75 L151.107 2049.75 L151.107 2055.63 L146.223 2055.63 L146.223 2049.75 Z" fill="#000000" fill-rule="nonzero" fill-opacity="1" /><path clip-path="url(#clip620)" d="M171.292 2024.15 Q167.681 2024.15 165.853 2027.71 Q164.047 2031.25 164.047 2038.38 Q164.047 2045.49 165.853 2049.05 Q167.681 2052.6 171.292 2052.6 Q174.927 2052.6 176.732 2049.05 Q178.561 2045.49 178.561 2038.38 Q178.561 2031.25 176.732 2027.71 Q174.927 2024.15 171.292 2024.15 M171.292 2020.44 Q177.103 2020.44 180.158 2025.05 Q183.237 2029.63 183.237 2038.38 Q183.237 2047.11 180.158 2051.72 Q177.103 2056.3 171.292 2056.3 Q165.482 2056.3 162.404 2051.72 Q159.348 2047.11 159.348 2038.38 Q159.348 2029.63 162.404 2025.05 Q165.482 2020.44 171.292 2020.44 Z" fill="#000000" fill-rule="nonzero" fill-opacity="1" /><path clip-path="url(#clip620)" d="M201.454 2039.22 Q198.121 2039.22 196.2 2041 Q194.302 2042.78 194.302 2045.91 Q194.302 2049.03 196.2 2050.81 Q198.121 2052.6 201.454 2052.6 Q204.788 2052.6 206.709 2050.81 Q208.63 2049.01 208.63 2045.91 Q208.63 2042.78 206.709 2041 Q204.811 2039.22 201.454 2039.22 M196.778 2037.23 Q193.769 2036.49 192.079 2034.43 Q190.413 2032.36 190.413 2029.4 Q190.413 2025.26 193.353 2022.85 Q196.315 2020.44 201.454 2020.44 Q206.616 2020.44 209.556 2022.85 Q212.496 2025.26 212.496 2029.4 Q212.496 2032.36 210.806 2034.43 Q209.139 2036.49 206.153 2037.23 Q209.533 2038.01 211.408 2040.3 Q213.306 2042.6 213.306 2045.91 Q213.306 2050.93 210.227 2053.61 Q207.172 2056.3 201.454 2056.3 Q195.737 2056.3 192.658 2053.61 Q189.603 2050.93 189.603 2045.91 Q189.603 2042.6 191.501 2040.3 Q193.399 2038.01 196.778 2037.23 M195.065 2029.84 Q195.065 2032.53 196.732 2034.03 Q198.422 2035.54 201.454 2035.54 Q204.464 2035.54 206.153 2034.03 Q207.866 2032.53 207.866 2029.84 Q207.866 2027.16 206.153 2025.65 Q204.464 2024.15 201.454 2024.15 Q198.422 2024.15 196.732 2025.65 Q195.065 2027.16 195.065 2029.84 Z" fill="#000000" fill-rule="nonzero" fill-opacity="1" /><path clip-path="url(#clip620)" d="M231.616 2024.15 Q228.005 2024.15 226.176 2027.71 Q224.371 2031.25 224.371 2038.38 Q224.371 2045.49 226.176 2049.05 Q228.005 2052.6 231.616 2052.6 Q235.25 2052.6 237.056 2049.05 Q238.885 2045.49 238.885 2038.38 Q238.885 2031.25 237.056 2027.71 Q235.25 2024.15 231.616 2024.15 M231.616 2020.44 Q237.426 2020.44 240.482 2025.05 Q243.561 2029.63 243.561 2038.38 Q243.561 2047.11 240.482 2051.72 Q237.426 2056.3 231.616 2056.3 Q225.806 2056.3 222.727 2051.72 Q219.672 2047.11 219.672 2038.38 Q219.672 2029.63 222.727 2025.05 Q225.806 2020.44 231.616 2020.44 Z" fill="#000000" fill-rule="nonzero" fill-opacity="1" /><path clip-path="url(#clip620)" d="M261.778 2024.15 Q258.167 2024.15 256.338 2027.71 Q254.533 2031.25 254.533 2038.38 Q254.533 2045.49 256.338 2049.05 Q258.167 2052.6 261.778 2052.6 Q265.412 2052.6 267.218 2049.05 Q269.047 2045.49 269.047 2038.38 Q269.047 2031.25 267.218 2027.71 Q265.412 2024.15 261.778 2024.15 M261.778 2020.44 Q267.588 2020.44 270.644 2025.05 Q273.722 2029.63 273.722 2038.38 Q273.722 2047.11 270.644 2051.72 Q267.588 2056.3 261.778 2056.3 Q255.968 2056.3 252.889 2051.72 Q249.834 2047.11 249.834 2038.38 Q249.834 2029.63 252.889 2025.05 Q255.968 2020.44 261.778 2020.44 Z" fill="#000000" fill-rule="nonzero" fill-opacity="1" /><path clip-path="url(#clip620)" d="M310.111 2030.17 L299.533 2040.79 L310.111 2051.37 L307.357 2054.17 L296.732 2043.55 L286.107 2054.17 L283.375 2051.37 L293.931 2040.79 L283.375 2030.17 L286.107 2027.36 L296.732 2037.99 L307.357 2027.36 L310.111 2030.17 Z" fill="#000000" fill-rule="nonzero" fill-opacity="1" /><path clip-path="url(#clip620)" d="M322.472 2051.69 L330.111 2051.69 L330.111 2025.33 L321.801 2026.99 L321.801 2022.74 L330.065 2021.07 L334.741 2021.07 L334.741 2051.69 L342.38 2051.69 L342.38 2055.63 L322.472 2055.63 L322.472 2051.69 Z" fill="#000000" fill-rule="nonzero" fill-opacity="1" /><path clip-path="url(#clip620)" d="M361.824 2024.15 Q358.213 2024.15 356.384 2027.71 Q354.579 2031.25 354.579 2038.38 Q354.579 2045.49 356.384 2049.05 Q358.213 2052.6 361.824 2052.6 Q365.458 2052.6 367.264 2049.05 Q369.092 2045.49 369.092 2038.38 Q369.092 2031.25 367.264 2027.71 Q365.458 2024.15 361.824 2024.15 M361.824 2020.44 Q367.634 2020.44 370.69 2025.05 Q373.768 2029.63 373.768 2038.38 Q373.768 2047.11 370.69 2051.72 Q367.634 2056.3 361.824 2056.3 Q356.014 2056.3 352.935 2051.72 Q349.879 2047.11 349.879 2038.38 Q349.879 2029.63 352.935 2025.05 Q356.014 2020.44 361.824 2020.44 Z" fill="#000000" fill-rule="nonzero" fill-opacity="1" /><path clip-path="url(#clip620)" d="M373.768 2014.54 L397.88 2014.54 L397.88 2017.74 L373.768 2017.74 L373.768 2014.54 Z" fill="#000000" fill-rule="nonzero" fill-opacity="1" /><path clip-path="url(#clip620)" d="M416.518 2003.45 L406.926 2018.44 L416.518 2018.44 L416.518 2003.45 M415.521 2000.14 L420.299 2000.14 L420.299 2018.44 L424.305 2018.44 L424.305 2021.6 L420.299 2021.6 L420.299 2028.22 L416.518 2028.22 L416.518 2021.6 L403.842 2021.6 L403.842 2017.93 L415.521 2000.14 Z" fill="#000000" fill-rule="nonzero" fill-opacity="1" /><path clip-path="url(#clip620)" d="M116.871 1680.51 L124.51 1680.51 L124.51 1654.15 L116.2 1655.81 L116.2 1651.55 L124.464 1649.89 L129.14 1649.89 L129.14 1680.51 L136.779 1680.51 L136.779 1684.45 L116.871 1684.45 L116.871 1680.51 Z" fill="#000000" fill-rule="nonzero" fill-opacity="1" /><path clip-path="url(#clip620)" d="M146.223 1678.57 L151.107 1678.57 L151.107 1684.45 L146.223 1684.45 L146.223 1678.57 Z" fill="#000000" fill-rule="nonzero" fill-opacity="1" /><path clip-path="url(#clip620)" d="M171.292 1652.97 Q167.681 1652.97 165.853 1656.53 Q164.047 1660.07 164.047 1667.2 Q164.047 1674.31 165.853 1677.87 Q167.681 1681.41 171.292 1681.41 Q174.927 1681.41 176.732 1677.87 Q178.561 1674.31 178.561 1667.2 Q178.561 1660.07 176.732 1656.53 Q174.927 1652.97 171.292 1652.97 M171.292 1649.26 Q177.103 1649.26 180.158 1653.87 Q183.237 1658.45 183.237 1667.2 Q183.237 1675.93 180.158 1680.54 Q177.103 1685.12 171.292 1685.12 Q165.482 1685.12 162.404 1680.54 Q159.348 1675.93 159.348 1667.2 Q159.348 1658.45 162.404 1653.87 Q165.482 1649.26 171.292 1649.26 Z" fill="#000000" fill-rule="nonzero" fill-opacity="1" /><path clip-path="url(#clip620)" d="M201.454 1668.04 Q198.121 1668.04 196.2 1669.82 Q194.302 1671.6 194.302 1674.72 Q194.302 1677.85 196.2 1679.63 Q198.121 1681.41 201.454 1681.41 Q204.788 1681.41 206.709 1679.63 Q208.63 1677.83 208.63 1674.72 Q208.63 1671.6 206.709 1669.82 Q204.811 1668.04 201.454 1668.04 M196.778 1666.04 Q193.769 1665.3 192.079 1663.24 Q190.413 1661.18 190.413 1658.22 Q190.413 1654.08 193.353 1651.67 Q196.315 1649.26 201.454 1649.26 Q206.616 1649.26 209.556 1651.67 Q212.496 1654.08 212.496 1658.22 Q212.496 1661.18 210.806 1663.24 Q209.139 1665.3 206.153 1666.04 Q209.533 1666.83 211.408 1669.12 Q213.306 1671.41 213.306 1674.72 Q213.306 1679.75 210.227 1682.43 Q207.172 1685.12 201.454 1685.12 Q195.737 1685.12 192.658 1682.43 Q189.603 1679.75 189.603 1674.72 Q189.603 1671.41 191.501 1669.12 Q193.399 1666.83 196.778 1666.04 M195.065 1658.66 Q195.065 1661.35 196.732 1662.85 Q198.422 1664.35 201.454 1664.35 Q204.464 1664.35 206.153 1662.85 Q207.866 1661.35 207.866 1658.66 Q207.866 1655.97 206.153 1654.47 Q204.464 1652.97 201.454 1652.97 Q198.422 1652.97 196.732 1654.47 Q195.065 1655.97 195.065 1658.66 Z" fill="#000000" fill-rule="nonzero" fill-opacity="1" /><path clip-path="url(#clip620)" d="M221.663 1649.89 L240.019 1649.89 L240.019 1653.82 L225.945 1653.82 L225.945 1662.29 Q226.963 1661.95 227.982 1661.79 Q229 1661.6 230.019 1661.6 Q235.806 1661.6 239.186 1664.77 Q242.565 1667.94 242.565 1673.36 Q242.565 1678.94 239.093 1682.04 Q235.621 1685.12 229.301 1685.12 Q227.125 1685.12 224.857 1684.75 Q222.612 1684.38 220.204 1683.64 L220.204 1678.94 Q222.288 1680.07 224.51 1680.63 Q226.732 1681.18 229.209 1681.18 Q233.213 1681.18 235.551 1679.08 Q237.889 1676.97 237.889 1673.36 Q237.889 1669.75 235.551 1667.64 Q233.213 1665.54 229.209 1665.54 Q227.334 1665.54 225.459 1665.95 Q223.607 1666.37 221.663 1667.25 L221.663 1649.89 Z" fill="#000000" fill-rule="nonzero" fill-opacity="1" /><path clip-path="url(#clip620)" d="M261.778 1652.97 Q258.167 1652.97 256.338 1656.53 Q254.533 1660.07 254.533 1667.2 Q254.533 1674.31 256.338 1677.87 Q258.167 1681.41 261.778 1681.41 Q265.412 1681.41 267.218 1677.87 Q269.047 1674.31 269.047 1667.2 Q269.047 1660.07 267.218 1656.53 Q265.412 1652.97 261.778 1652.97 M261.778 1649.26 Q267.588 1649.26 270.644 1653.87 Q273.722 1658.45 273.722 1667.2 Q273.722 1675.93 270.644 1680.54 Q267.588 1685.12 261.778 1685.12 Q255.968 1685.12 252.889 1680.54 Q249.834 1675.93 249.834 1667.2 Q249.834 1658.45 252.889 1653.87 Q255.968 1649.26 261.778 1649.26 Z" fill="#000000" fill-rule="nonzero" fill-opacity="1" /><path clip-path="url(#clip620)" d="M310.111 1658.98 L299.533 1669.61 L310.111 1680.19 L307.357 1682.99 L296.732 1672.36 L286.107 1682.99 L283.375 1680.19 L293.931 1669.61 L283.375 1658.98 L286.107 1656.18 L296.732 1666.81 L307.357 1656.18 L310.111 1658.98 Z" fill="#000000" fill-rule="nonzero" fill-opacity="1" /><path clip-path="url(#clip620)" d="M322.472 1680.51 L330.111 1680.51 L330.111 1654.15 L321.801 1655.81 L321.801 1651.55 L330.065 1649.89 L334.741 1649.89 L334.741 1680.51 L342.38 1680.51 L342.38 1684.45 L322.472 1684.45 L322.472 1680.51 Z" fill="#000000" fill-rule="nonzero" fill-opacity="1" /><path clip-path="url(#clip620)" d="M361.824 1652.97 Q358.213 1652.97 356.384 1656.53 Q354.579 1660.07 354.579 1667.2 Q354.579 1674.31 356.384 1677.87 Q358.213 1681.41 361.824 1681.41 Q365.458 1681.41 367.264 1677.87 Q369.092 1674.31 369.092 1667.2 Q369.092 1660.07 367.264 1656.53 Q365.458 1652.97 361.824 1652.97 M361.824 1649.26 Q367.634 1649.26 370.69 1653.87 Q373.768 1658.45 373.768 1667.2 Q373.768 1675.93 370.69 1680.54 Q367.634 1685.12 361.824 1685.12 Q356.014 1685.12 352.935 1680.54 Q349.879 1675.93 349.879 1667.2 Q349.879 1658.45 352.935 1653.87 Q356.014 1649.26 361.824 1649.26 Z" fill="#000000" fill-rule="nonzero" fill-opacity="1" /><path clip-path="url(#clip620)" d="M373.768 1643.36 L397.88 1643.36 L397.88 1646.56 L373.768 1646.56 L373.768 1643.36 Z" fill="#000000" fill-rule="nonzero" fill-opacity="1" /><path clip-path="url(#clip620)" d="M416.518 1632.27 L406.926 1647.26 L416.518 1647.26 L416.518 1632.27 M415.521 1628.96 L420.299 1628.96 L420.299 1647.26 L424.305 1647.26 L424.305 1650.42 L420.299 1650.42 L420.299 1657.04 L416.518 1657.04 L416.518 1650.42 L403.842 1650.42 L403.842 1646.75 L415.521 1628.96 Z" fill="#000000" fill-rule="nonzero" fill-opacity="1" /><path clip-path="url(#clip620)" d="M116.871 1309.33 L124.51 1309.33 L124.51 1282.96 L116.2 1284.63 L116.2 1280.37 L124.464 1278.71 L129.14 1278.71 L129.14 1309.33 L136.779 1309.33 L136.779 1313.27 L116.871 1313.27 L116.871 1309.33 Z" fill="#000000" fill-rule="nonzero" fill-opacity="1" /><path clip-path="url(#clip620)" d="M146.223 1307.39 L151.107 1307.39 L151.107 1313.27 L146.223 1313.27 L146.223 1307.39 Z" fill="#000000" fill-rule="nonzero" fill-opacity="1" /><path clip-path="url(#clip620)" d="M171.292 1281.78 Q167.681 1281.78 165.853 1285.35 Q164.047 1288.89 164.047 1296.02 Q164.047 1303.13 165.853 1306.69 Q167.681 1310.23 171.292 1310.23 Q174.927 1310.23 176.732 1306.69 Q178.561 1303.13 178.561 1296.02 Q178.561 1288.89 176.732 1285.35 Q174.927 1281.78 171.292 1281.78 M171.292 1278.08 Q177.103 1278.08 180.158 1282.69 Q183.237 1287.27 183.237 1296.02 Q183.237 1304.75 180.158 1309.35 Q177.103 1313.94 171.292 1313.94 Q165.482 1313.94 162.404 1309.35 Q159.348 1304.75 159.348 1296.02 Q159.348 1287.27 162.404 1282.69 Q165.482 1278.08 171.292 1278.08 Z" fill="#000000" fill-rule="nonzero" fill-opacity="1" /><path clip-path="url(#clip620)" d="M191.593 1312.55 L191.593 1308.29 Q193.353 1309.12 195.158 1309.56 Q196.964 1310 198.7 1310 Q203.329 1310 205.76 1306.9 Q208.214 1303.77 208.561 1297.43 Q207.218 1299.42 205.158 1300.49 Q203.098 1301.55 200.598 1301.55 Q195.413 1301.55 192.38 1298.43 Q189.371 1295.28 189.371 1289.84 Q189.371 1284.52 192.519 1281.3 Q195.667 1278.08 200.899 1278.08 Q206.894 1278.08 210.042 1282.69 Q213.214 1287.27 213.214 1296.02 Q213.214 1304.19 209.325 1309.08 Q205.459 1313.94 198.908 1313.94 Q197.149 1313.94 195.343 1313.59 Q193.538 1313.24 191.593 1312.55 M200.899 1297.9 Q204.047 1297.9 205.876 1295.74 Q207.727 1293.59 207.727 1289.84 Q207.727 1286.11 205.876 1283.96 Q204.047 1281.78 200.899 1281.78 Q197.751 1281.78 195.899 1283.96 Q194.07 1286.11 194.07 1289.84 Q194.07 1293.59 195.899 1295.74 Q197.751 1297.9 200.899 1297.9 Z" fill="#000000" fill-rule="nonzero" fill-opacity="1" /><path clip-path="url(#clip620)" d="M231.616 1281.78 Q228.005 1281.78 226.176 1285.35 Q224.371 1288.89 224.371 1296.02 Q224.371 1303.13 226.176 1306.69 Q228.005 1310.23 231.616 1310.23 Q235.25 1310.23 237.056 1306.69 Q238.885 1303.13 238.885 1296.02 Q238.885 1288.89 237.056 1285.35 Q235.25 1281.78 231.616 1281.78 M231.616 1278.08 Q237.426 1278.08 240.482 1282.69 Q243.561 1287.27 243.561 1296.02 Q243.561 1304.75 240.482 1309.35 Q237.426 1313.94 231.616 1313.94 Q225.806 1313.94 222.727 1309.35 Q219.672 1304.75 219.672 1296.02 Q219.672 1287.27 222.727 1282.69 Q225.806 1278.08 231.616 1278.08 Z" fill="#000000" fill-rule="nonzero" fill-opacity="1" /><path clip-path="url(#clip620)" d="M261.778 1281.78 Q258.167 1281.78 256.338 1285.35 Q254.533 1288.89 254.533 1296.02 Q254.533 1303.13 256.338 1306.69 Q258.167 1310.23 261.778 1310.23 Q265.412 1310.23 267.218 1306.69 Q269.047 1303.13 269.047 1296.02 Q269.047 1288.89 267.218 1285.35 Q265.412 1281.78 261.778 1281.78 M261.778 1278.08 Q267.588 1278.08 270.644 1282.69 Q273.722 1287.27 273.722 1296.02 Q273.722 1304.75 270.644 1309.35 Q267.588 1313.94 261.778 1313.94 Q255.968 1313.94 252.889 1309.35 Q249.834 1304.75 249.834 1296.02 Q249.834 1287.27 252.889 1282.69 Q255.968 1278.08 261.778 1278.08 Z" fill="#000000" fill-rule="nonzero" fill-opacity="1" /><path clip-path="url(#clip620)" d="M310.111 1287.8 L299.533 1298.43 L310.111 1309.01 L307.357 1311.81 L296.732 1301.18 L286.107 1311.81 L283.375 1309.01 L293.931 1298.43 L283.375 1287.8 L286.107 1285 L296.732 1295.63 L307.357 1285 L310.111 1287.8 Z" fill="#000000" fill-rule="nonzero" fill-opacity="1" /><path clip-path="url(#clip620)" d="M322.472 1309.33 L330.111 1309.33 L330.111 1282.96 L321.801 1284.63 L321.801 1280.37 L330.065 1278.71 L334.741 1278.71 L334.741 1309.33 L342.38 1309.33 L342.38 1313.27 L322.472 1313.27 L322.472 1309.33 Z" fill="#000000" fill-rule="nonzero" fill-opacity="1" /><path clip-path="url(#clip620)" d="M361.824 1281.78 Q358.213 1281.78 356.384 1285.35 Q354.579 1288.89 354.579 1296.02 Q354.579 1303.13 356.384 1306.69 Q358.213 1310.23 361.824 1310.23 Q365.458 1310.23 367.264 1306.69 Q369.092 1303.13 369.092 1296.02 Q369.092 1288.89 367.264 1285.35 Q365.458 1281.78 361.824 1281.78 M361.824 1278.08 Q367.634 1278.08 370.69 1282.69 Q373.768 1287.27 373.768 1296.02 Q373.768 1304.75 370.69 1309.35 Q367.634 1313.94 361.824 1313.94 Q356.014 1313.94 352.935 1309.35 Q349.879 1304.75 349.879 1296.02 Q349.879 1287.27 352.935 1282.69 Q356.014 1278.08 361.824 1278.08 Z" fill="#000000" fill-rule="nonzero" fill-opacity="1" /><path clip-path="url(#clip620)" d="M373.768 1272.18 L397.88 1272.18 L397.88 1275.38 L373.768 1275.38 L373.768 1272.18 Z" fill="#000000" fill-rule="nonzero" fill-opacity="1" /><path clip-path="url(#clip620)" d="M416.518 1261.09 L406.926 1276.08 L416.518 1276.08 L416.518 1261.09 M415.521 1257.78 L420.299 1257.78 L420.299 1276.08 L424.305 1276.08 L424.305 1279.23 L420.299 1279.23 L420.299 1285.86 L416.518 1285.86 L416.518 1279.23 L403.842 1279.23 L403.842 1275.57 L415.521 1257.78 Z" fill="#000000" fill-rule="nonzero" fill-opacity="1" /><path clip-path="url(#clip620)" d="M116.871 938.149 L124.51 938.149 L124.51 911.783 L116.2 913.45 L116.2 909.191 L124.464 907.524 L129.14 907.524 L129.14 938.149 L136.779 938.149 L136.779 942.084 L116.871 942.084 L116.871 938.149 Z" fill="#000000" fill-rule="nonzero" fill-opacity="1" /><path clip-path="url(#clip620)" d="M146.223 936.204 L151.107 936.204 L151.107 942.084 L146.223 942.084 L146.223 936.204 Z" fill="#000000" fill-rule="nonzero" fill-opacity="1" /><path clip-path="url(#clip620)" d="M171.292 910.603 Q167.681 910.603 165.853 914.167 Q164.047 917.709 164.047 924.839 Q164.047 931.945 165.853 935.51 Q167.681 939.052 171.292 939.052 Q174.927 939.052 176.732 935.51 Q178.561 931.945 178.561 924.839 Q178.561 917.709 176.732 914.167 Q174.927 910.603 171.292 910.603 M171.292 906.899 Q177.103 906.899 180.158 911.505 Q183.237 916.089 183.237 924.839 Q183.237 933.566 180.158 938.172 Q177.103 942.755 171.292 942.755 Q165.482 942.755 162.404 938.172 Q159.348 933.566 159.348 924.839 Q159.348 916.089 162.404 911.505 Q165.482 906.899 171.292 906.899 Z" fill="#000000" fill-rule="nonzero" fill-opacity="1" /><path clip-path="url(#clip620)" d="M191.593 941.366 L191.593 937.107 Q193.353 937.941 195.158 938.38 Q196.964 938.82 198.7 938.82 Q203.329 938.82 205.76 935.718 Q208.214 932.593 208.561 926.251 Q207.218 928.241 205.158 929.306 Q203.098 930.371 200.598 930.371 Q195.413 930.371 192.38 927.246 Q189.371 924.098 189.371 918.658 Q189.371 913.334 192.519 910.117 Q195.667 906.899 200.899 906.899 Q206.894 906.899 210.042 911.505 Q213.214 916.089 213.214 924.839 Q213.214 933.01 209.325 937.894 Q205.459 942.755 198.908 942.755 Q197.149 942.755 195.343 942.408 Q193.538 942.061 191.593 941.366 M200.899 926.714 Q204.047 926.714 205.876 924.561 Q207.727 922.408 207.727 918.658 Q207.727 914.931 205.876 912.779 Q204.047 910.603 200.899 910.603 Q197.751 910.603 195.899 912.779 Q194.07 914.931 194.07 918.658 Q194.07 922.408 195.899 924.561 Q197.751 926.714 200.899 926.714 Z" fill="#000000" fill-rule="nonzero" fill-opacity="1" /><path clip-path="url(#clip620)" d="M221.663 907.524 L240.019 907.524 L240.019 911.459 L225.945 911.459 L225.945 919.931 Q226.963 919.584 227.982 919.422 Q229 919.237 230.019 919.237 Q235.806 919.237 239.186 922.408 Q242.565 925.579 242.565 930.996 Q242.565 936.575 239.093 939.677 Q235.621 942.755 229.301 942.755 Q227.125 942.755 224.857 942.385 Q222.612 942.015 220.204 941.274 L220.204 936.575 Q222.288 937.709 224.51 938.265 Q226.732 938.82 229.209 938.82 Q233.213 938.82 235.551 936.714 Q237.889 934.607 237.889 930.996 Q237.889 927.385 235.551 925.279 Q233.213 923.172 229.209 923.172 Q227.334 923.172 225.459 923.589 Q223.607 924.005 221.663 924.885 L221.663 907.524 Z" fill="#000000" fill-rule="nonzero" fill-opacity="1" /><path clip-path="url(#clip620)" d="M261.778 910.603 Q258.167 910.603 256.338 914.167 Q254.533 917.709 254.533 924.839 Q254.533 931.945 256.338 935.51 Q258.167 939.052 261.778 939.052 Q265.412 939.052 267.218 935.51 Q269.047 931.945 269.047 924.839 Q269.047 917.709 267.218 914.167 Q265.412 910.603 261.778 910.603 M261.778 906.899 Q267.588 906.899 270.644 911.505 Q273.722 916.089 273.722 924.839 Q273.722 933.566 270.644 938.172 Q267.588 942.755 261.778 942.755 Q255.968 942.755 252.889 938.172 Q249.834 933.566 249.834 924.839 Q249.834 916.089 252.889 911.505 Q255.968 906.899 261.778 906.899 Z" fill="#000000" fill-rule="nonzero" fill-opacity="1" /><path clip-path="url(#clip620)" d="M310.111 916.621 L299.533 927.246 L310.111 937.825 L307.357 940.626 L296.732 930.001 L286.107 940.626 L283.375 937.825 L293.931 927.246 L283.375 916.621 L286.107 913.82 L296.732 924.445 L307.357 913.82 L310.111 916.621 Z" fill="#000000" fill-rule="nonzero" fill-opacity="1" /><path clip-path="url(#clip620)" d="M322.472 938.149 L330.111 938.149 L330.111 911.783 L321.801 913.45 L321.801 909.191 L330.065 907.524 L334.741 907.524 L334.741 938.149 L342.38 938.149 L342.38 942.084 L322.472 942.084 L322.472 938.149 Z" fill="#000000" fill-rule="nonzero" fill-opacity="1" /><path clip-path="url(#clip620)" d="M361.824 910.603 Q358.213 910.603 356.384 914.167 Q354.579 917.709 354.579 924.839 Q354.579 931.945 356.384 935.51 Q358.213 939.052 361.824 939.052 Q365.458 939.052 367.264 935.51 Q369.092 931.945 369.092 924.839 Q369.092 917.709 367.264 914.167 Q365.458 910.603 361.824 910.603 M361.824 906.899 Q367.634 906.899 370.69 911.505 Q373.768 916.089 373.768 924.839 Q373.768 933.566 370.69 938.172 Q367.634 942.755 361.824 942.755 Q356.014 942.755 352.935 938.172 Q349.879 933.566 349.879 924.839 Q349.879 916.089 352.935 911.505 Q356.014 906.899 361.824 906.899 Z" fill="#000000" fill-rule="nonzero" fill-opacity="1" /><path clip-path="url(#clip620)" d="M373.768 901 L397.88 901 L397.88 904.198 L373.768 904.198 L373.768 901 Z" fill="#000000" fill-rule="nonzero" fill-opacity="1" /><path clip-path="url(#clip620)" d="M416.518 889.904 L406.926 904.894 L416.518 904.894 L416.518 889.904 M415.521 886.594 L420.299 886.594 L420.299 904.894 L424.305 904.894 L424.305 908.053 L420.299 908.053 L420.299 914.674 L416.518 914.674 L416.518 908.053 L403.842 908.053 L403.842 904.386 L415.521 886.594 Z" fill="#000000" fill-rule="nonzero" fill-opacity="1" /><path clip-path="url(#clip620)" d="M116.871 566.967 L124.51 566.967 L124.51 540.602 L116.2 542.268 L116.2 538.009 L124.464 536.342 L129.14 536.342 L129.14 566.967 L136.779 566.967 L136.779 570.902 L116.871 570.902 L116.871 566.967 Z" fill="#000000" fill-rule="nonzero" fill-opacity="1" /><path clip-path="url(#clip620)" d="M146.223 565.023 L151.107 565.023 L151.107 570.902 L146.223 570.902 L146.223 565.023 Z" fill="#000000" fill-rule="nonzero" fill-opacity="1" /><path clip-path="url(#clip620)" d="M162.103 566.967 L169.742 566.967 L169.742 540.602 L161.431 542.268 L161.431 538.009 L169.695 536.342 L174.371 536.342 L174.371 566.967 L182.01 566.967 L182.01 570.902 L162.103 570.902 L162.103 566.967 Z" fill="#000000" fill-rule="nonzero" fill-opacity="1" /><path clip-path="url(#clip620)" d="M201.454 539.421 Q197.843 539.421 196.015 542.986 Q194.209 546.528 194.209 553.657 Q194.209 560.764 196.015 564.328 Q197.843 567.87 201.454 567.87 Q205.089 567.87 206.894 564.328 Q208.723 560.764 208.723 553.657 Q208.723 546.528 206.894 542.986 Q205.089 539.421 201.454 539.421 M201.454 535.717 Q207.264 535.717 210.32 540.324 Q213.399 544.907 213.399 553.657 Q213.399 562.384 210.32 566.99 Q207.264 571.574 201.454 571.574 Q195.644 571.574 192.565 566.99 Q189.51 562.384 189.51 553.657 Q189.51 544.907 192.565 540.324 Q195.644 535.717 201.454 535.717 Z" fill="#000000" fill-rule="nonzero" fill-opacity="1" /><path clip-path="url(#clip620)" d="M231.616 539.421 Q228.005 539.421 226.176 542.986 Q224.371 546.528 224.371 553.657 Q224.371 560.764 226.176 564.328 Q228.005 567.87 231.616 567.87 Q235.25 567.87 237.056 564.328 Q238.885 560.764 238.885 553.657 Q238.885 546.528 237.056 542.986 Q235.25 539.421 231.616 539.421 M231.616 535.717 Q237.426 535.717 240.482 540.324 Q243.561 544.907 243.561 553.657 Q243.561 562.384 240.482 566.99 Q237.426 571.574 231.616 571.574 Q225.806 571.574 222.727 566.99 Q219.672 562.384 219.672 553.657 Q219.672 544.907 222.727 540.324 Q225.806 535.717 231.616 535.717 Z" fill="#000000" fill-rule="nonzero" fill-opacity="1" /><path clip-path="url(#clip620)" d="M261.778 539.421 Q258.167 539.421 256.338 542.986 Q254.533 546.528 254.533 553.657 Q254.533 560.764 256.338 564.328 Q258.167 567.87 261.778 567.87 Q265.412 567.87 267.218 564.328 Q269.047 560.764 269.047 553.657 Q269.047 546.528 267.218 542.986 Q265.412 539.421 261.778 539.421 M261.778 535.717 Q267.588 535.717 270.644 540.324 Q273.722 544.907 273.722 553.657 Q273.722 562.384 270.644 566.99 Q267.588 571.574 261.778 571.574 Q255.968 571.574 252.889 566.99 Q249.834 562.384 249.834 553.657 Q249.834 544.907 252.889 540.324 Q255.968 535.717 261.778 535.717 Z" fill="#000000" fill-rule="nonzero" fill-opacity="1" /><path clip-path="url(#clip620)" d="M310.111 545.44 L299.533 556.065 L310.111 566.643 L307.357 569.444 L296.732 558.819 L286.107 569.444 L283.375 566.643 L293.931 556.065 L283.375 545.44 L286.107 542.639 L296.732 553.264 L307.357 542.639 L310.111 545.44 Z" fill="#000000" fill-rule="nonzero" fill-opacity="1" /><path clip-path="url(#clip620)" d="M322.472 566.967 L330.111 566.967 L330.111 540.602 L321.801 542.268 L321.801 538.009 L330.065 536.342 L334.741 536.342 L334.741 566.967 L342.38 566.967 L342.38 570.902 L322.472 570.902 L322.472 566.967 Z" fill="#000000" fill-rule="nonzero" fill-opacity="1" /><path clip-path="url(#clip620)" d="M361.824 539.421 Q358.213 539.421 356.384 542.986 Q354.579 546.528 354.579 553.657 Q354.579 560.764 356.384 564.328 Q358.213 567.87 361.824 567.87 Q365.458 567.87 367.264 564.328 Q369.092 560.764 369.092 553.657 Q369.092 546.528 367.264 542.986 Q365.458 539.421 361.824 539.421 M361.824 535.717 Q367.634 535.717 370.69 540.324 Q373.768 544.907 373.768 553.657 Q373.768 562.384 370.69 566.99 Q367.634 571.574 361.824 571.574 Q356.014 571.574 352.935 566.99 Q349.879 562.384 349.879 553.657 Q349.879 544.907 352.935 540.324 Q356.014 535.717 361.824 535.717 Z" fill="#000000" fill-rule="nonzero" fill-opacity="1" /><path clip-path="url(#clip620)" d="M373.768 529.819 L397.88 529.819 L397.88 533.016 L373.768 533.016 L373.768 529.819 Z" fill="#000000" fill-rule="nonzero" fill-opacity="1" /><path clip-path="url(#clip620)" d="M416.518 518.722 L406.926 533.712 L416.518 533.712 L416.518 518.722 M415.521 515.412 L420.299 515.412 L420.299 533.712 L424.305 533.712 L424.305 536.872 L420.299 536.872 L420.299 543.492 L416.518 543.492 L416.518 536.872 L403.842 536.872 L403.842 533.204 L415.521 515.412 Z" fill="#000000" fill-rule="nonzero" fill-opacity="1" /><path clip-path="url(#clip620)" d="M116.871 195.786 L124.51 195.786 L124.51 169.42 L116.2 171.087 L116.2 166.828 L124.464 165.161 L129.14 165.161 L129.14 195.786 L136.779 195.786 L136.779 199.721 L116.871 199.721 L116.871 195.786 Z" fill="#000000" fill-rule="nonzero" fill-opacity="1" /><path clip-path="url(#clip620)" d="M146.223 193.841 L151.107 193.841 L151.107 199.721 L146.223 199.721 L146.223 193.841 Z" fill="#000000" fill-rule="nonzero" fill-opacity="1" /><path clip-path="url(#clip620)" d="M162.103 195.786 L169.742 195.786 L169.742 169.42 L161.431 171.087 L161.431 166.828 L169.695 165.161 L174.371 165.161 L174.371 195.786 L182.01 195.786 L182.01 199.721 L162.103 199.721 L162.103 195.786 Z" fill="#000000" fill-rule="nonzero" fill-opacity="1" /><path clip-path="url(#clip620)" d="M201.454 168.24 Q197.843 168.24 196.015 171.804 Q194.209 175.346 194.209 182.476 Q194.209 189.582 196.015 193.147 Q197.843 196.689 201.454 196.689 Q205.089 196.689 206.894 193.147 Q208.723 189.582 208.723 182.476 Q208.723 175.346 206.894 171.804 Q205.089 168.24 201.454 168.24 M201.454 164.536 Q207.264 164.536 210.32 169.142 Q213.399 173.726 213.399 182.476 Q213.399 191.202 210.32 195.809 Q207.264 200.392 201.454 200.392 Q195.644 200.392 192.565 195.809 Q189.51 191.202 189.51 182.476 Q189.51 173.726 192.565 169.142 Q195.644 164.536 201.454 164.536 Z" fill="#000000" fill-rule="nonzero" fill-opacity="1" /><path clip-path="url(#clip620)" d="M221.663 165.161 L240.019 165.161 L240.019 169.096 L225.945 169.096 L225.945 177.568 Q226.963 177.221 227.982 177.059 Q229 176.874 230.019 176.874 Q235.806 176.874 239.186 180.045 Q242.565 183.216 242.565 188.633 Q242.565 194.212 239.093 197.314 Q235.621 200.392 229.301 200.392 Q227.125 200.392 224.857 200.022 Q222.612 199.652 220.204 198.911 L220.204 194.212 Q222.288 195.346 224.51 195.902 Q226.732 196.457 229.209 196.457 Q233.213 196.457 235.551 194.351 Q237.889 192.244 237.889 188.633 Q237.889 185.022 235.551 182.915 Q233.213 180.809 229.209 180.809 Q227.334 180.809 225.459 181.226 Q223.607 181.642 221.663 182.522 L221.663 165.161 Z" fill="#000000" fill-rule="nonzero" fill-opacity="1" /><path clip-path="url(#clip620)" d="M261.778 168.24 Q258.167 168.24 256.338 171.804 Q254.533 175.346 254.533 182.476 Q254.533 189.582 256.338 193.147 Q258.167 196.689 261.778 196.689 Q265.412 196.689 267.218 193.147 Q269.047 189.582 269.047 182.476 Q269.047 175.346 267.218 171.804 Q265.412 168.24 261.778 168.24 M261.778 164.536 Q267.588 164.536 270.644 169.142 Q273.722 173.726 273.722 182.476 Q273.722 191.202 270.644 195.809 Q267.588 200.392 261.778 200.392 Q255.968 200.392 252.889 195.809 Q249.834 191.202 249.834 182.476 Q249.834 173.726 252.889 169.142 Q255.968 164.536 261.778 164.536 Z" fill="#000000" fill-rule="nonzero" fill-opacity="1" /><path clip-path="url(#clip620)" d="M310.111 174.258 L299.533 184.883 L310.111 195.462 L307.357 198.263 L296.732 187.638 L286.107 198.263 L283.375 195.462 L293.931 184.883 L283.375 174.258 L286.107 171.457 L296.732 182.082 L307.357 171.457 L310.111 174.258 Z" fill="#000000" fill-rule="nonzero" fill-opacity="1" /><path clip-path="url(#clip620)" d="M322.472 195.786 L330.111 195.786 L330.111 169.42 L321.801 171.087 L321.801 166.828 L330.065 165.161 L334.741 165.161 L334.741 195.786 L342.38 195.786 L342.38 199.721 L322.472 199.721 L322.472 195.786 Z" fill="#000000" fill-rule="nonzero" fill-opacity="1" /><path clip-path="url(#clip620)" d="M361.824 168.24 Q358.213 168.24 356.384 171.804 Q354.579 175.346 354.579 182.476 Q354.579 189.582 356.384 193.147 Q358.213 196.689 361.824 196.689 Q365.458 196.689 367.264 193.147 Q369.092 189.582 369.092 182.476 Q369.092 175.346 367.264 171.804 Q365.458 168.24 361.824 168.24 M361.824 164.536 Q367.634 164.536 370.69 169.142 Q373.768 173.726 373.768 182.476 Q373.768 191.202 370.69 195.809 Q367.634 200.392 361.824 200.392 Q356.014 200.392 352.935 195.809 Q349.879 191.202 349.879 182.476 Q349.879 173.726 352.935 169.142 Q356.014 164.536 361.824 164.536 Z" fill="#000000" fill-rule="nonzero" fill-opacity="1" /><path clip-path="url(#clip620)" d="M373.768 158.637 L397.88 158.637 L397.88 161.835 L373.768 161.835 L373.768 158.637 Z" fill="#000000" fill-rule="nonzero" fill-opacity="1" /><path clip-path="url(#clip620)" d="M416.518 147.541 L406.926 162.531 L416.518 162.531 L416.518 147.541 M415.521 144.231 L420.299 144.231 L420.299 162.531 L424.305 162.531 L424.305 165.69 L420.299 165.69 L420.299 172.311 L416.518 172.311 L416.518 165.69 L403.842 165.69 L403.842 162.023 L415.521 144.231 Z" fill="#000000" fill-rule="nonzero" fill-opacity="1" /><path clip-path="url(#clip620)" d="M31.2504 1559.58 L48.6606 1559.58 L48.6606 1549.27 Q48.6606 1544.08 46.5281 1541.6 Q44.3638 1539.08 39.9396 1539.08 Q35.4836 1539.08 33.3829 1541.6 Q31.2504 1544.08 31.2504 1549.27 L31.2504 1559.58 M11.7077 1559.58 L26.0305 1559.58 L26.0305 1550.06 Q26.0305 1545.35 24.28 1543.06 Q22.4976 1540.74 18.8691 1540.74 Q15.2725 1540.74 13.4901 1543.06 Q11.7077 1545.35 11.7077 1550.06 L11.7077 1559.58 M6.42416 1566.01 L6.42416 1549.58 Q6.42416 1542.23 9.4797 1538.25 Q12.5352 1534.27 18.1689 1534.27 Q22.5294 1534.27 25.1075 1536.31 Q27.6856 1538.35 28.3222 1542.3 Q29.3407 1537.55 32.5872 1534.94 Q35.8019 1532.3 40.6398 1532.3 Q47.0055 1532.3 50.4748 1536.63 Q53.9442 1540.96 53.9442 1548.95 L53.9442 1566.01 L6.42416 1566.01 Z" fill="#000000" fill-rule="nonzero" fill-opacity="1" /><path clip-path="url(#clip620)" d="M48.597 1515.88 L67.5031 1515.88 L67.5031 1521.77 L18.2962 1521.77 L18.2962 1515.88 L23.7071 1515.88 Q20.5242 1514.03 18.9964 1511.23 Q17.4368 1508.4 17.4368 1504.48 Q17.4368 1497.99 22.5931 1493.95 Q27.7493 1489.87 36.152 1489.87 Q44.5547 1489.87 49.711 1493.95 Q54.8672 1497.99 54.8672 1504.48 Q54.8672 1508.4 53.3394 1511.23 Q51.7798 1514.03 48.597 1515.88 M36.152 1495.95 Q29.6908 1495.95 26.0305 1498.63 Q22.3384 1501.27 22.3384 1505.92 Q22.3384 1510.56 26.0305 1513.24 Q29.6908 1515.88 36.152 1515.88 Q42.6132 1515.88 46.3053 1513.24 Q49.9656 1510.56 49.9656 1505.92 Q49.9656 1501.27 46.3053 1498.63 Q42.6132 1495.95 36.152 1495.95 Z" fill="#000000" fill-rule="nonzero" fill-opacity="1" /><path clip-path="url(#clip620)" d="M34.6561 1449.67 L37.5206 1449.67 L37.5206 1476.6 Q43.5681 1476.22 46.7509 1472.97 Q49.9019 1469.69 49.9019 1463.87 Q49.9019 1460.5 49.0744 1457.35 Q48.2469 1454.16 46.5918 1451.04 L52.1299 1451.04 Q53.4667 1454.19 54.167 1457.5 Q54.8672 1460.81 54.8672 1464.22 Q54.8672 1472.75 49.9019 1477.75 Q44.9367 1482.71 36.4703 1482.71 Q27.7174 1482.71 22.5931 1478 Q17.4368 1473.26 17.4368 1465.24 Q17.4368 1458.05 22.0838 1453.88 Q26.6989 1449.67 34.6561 1449.67 M32.9373 1455.53 Q28.1312 1455.59 25.2666 1458.24 Q22.4021 1460.85 22.4021 1465.17 Q22.4021 1470.08 25.1712 1473.04 Q27.9402 1475.96 32.9692 1476.41 L32.9373 1455.53 Z" fill="#000000" fill-rule="nonzero" fill-opacity="1" /><path clip-path="url(#clip620)" d="M18.2962 1440.28 L18.2962 1431.72 L42.1676 1421.6 L18.2962 1411.45 L18.2962 1402.95 L53.9442 1402.95 L53.9442 1408.84 L23.898 1408.84 L47.101 1418.67 L47.101 1424.53 L23.898 1434.4 L53.9442 1434.4 L53.9442 1440.28 L18.2962 1440.28 Z" fill="#000000" fill-rule="nonzero" fill-opacity="1" /><path clip-path="url(#clip620)" d="M28.5768 1385 Q31.2186 1385 32.7145 1382.96 Q34.2105 1380.92 34.2105 1377.14 L34.2105 1369.24 L22.975 1369.24 L22.975 1377.14 Q22.975 1380.92 24.4391 1382.96 Q25.9032 1385 28.5768 1385 M53.9442 1393.34 L38.3163 1382.45 Q37.4888 1386.14 35.3245 1388.6 Q33.1283 1391.05 28.5768 1391.05 Q23.4206 1391.05 20.8743 1387.64 Q18.2962 1384.2 18.2962 1377.3 L18.2962 1363.36 L53.9442 1363.36 L53.9442 1369.24 L38.8893 1369.24 L38.8893 1376.53 L53.9442 1387.04 L53.9442 1393.34 Z" fill="#000000" fill-rule="nonzero" fill-opacity="1" /><path clip-path="url(#clip620)" d="M37.5206 1325.32 L49.2654 1325.32 L49.2654 1316.98 Q49.2654 1312.97 47.7694 1310.87 Q46.2417 1308.77 43.3771 1308.77 Q40.5125 1308.77 39.0166 1310.87 Q37.5206 1312.97 37.5206 1316.98 L37.5206 1325.32 M22.975 1325.32 L32.8418 1325.32 L32.8418 1317.62 Q32.8418 1314.31 31.5369 1312.21 Q30.2001 1310.11 27.8448 1310.11 Q25.4894 1310.11 24.2481 1312.21 Q22.975 1314.31 22.975 1317.62 L22.975 1325.32 M18.2962 1331.18 L18.2962 1317.24 Q18.2962 1310.97 20.5879 1307.59 Q22.8795 1304.22 27.1127 1304.22 Q30.391 1304.22 32.3326 1305.94 Q34.2423 1307.66 34.7197 1311.03 Q35.4836 1306.99 37.9026 1304.76 Q40.3215 1302.53 43.95 1302.53 Q48.7243 1302.53 51.3342 1306.22 Q53.9442 1309.88 53.9442 1316.69 L53.9442 1331.18 L18.2962 1331.18 Z" fill="#000000" fill-rule="nonzero" fill-opacity="1" /><path clip-path="url(#clip620)" d="M18.2962 1258.86 L18.2962 1253.01 L53.9442 1253.01 L53.9442 1258.86 L18.2962 1258.86 M17.4368 1255.93 L17.4368 1255.93 M43.3771 1270.35 Q40.5125 1270.35 39.0166 1272.45 Q37.5206 1274.52 37.5206 1278.53 L37.5206 1286.87 L49.2654 1286.87 L49.2654 1278.53 Q49.2654 1274.52 47.7694 1272.45 Q46.2417 1270.35 43.3771 1270.35 M18.2962 1292.76 L18.2962 1286.87 L32.8418 1286.87 L32.8418 1278.28 Q32.8418 1271.47 35.4518 1267.81 Q38.0299 1264.11 43.3771 1264.11 Q48.7243 1264.11 51.3342 1267.81 Q53.9442 1271.47 53.9442 1278.28 L53.9442 1292.76 L18.2962 1292.76 Z" fill="#000000" fill-rule="nonzero" fill-opacity="1" /><path clip-path="url(#clip620)" d="M53.9442 1220.48 L38.9529 1220.48 L38.9529 1231.39 Q38.9529 1236.26 35.9292 1239.51 Q33.192 1242.44 27.3355 1242.44 L18.2962 1242.44 L18.2962 1236.58 L26.7944 1236.58 Q30.5184 1236.58 32.3962 1234.93 Q34.2741 1233.24 34.2741 1229.93 L34.2741 1220.48 L18.2962 1220.48 L18.2962 1214.62 L53.9442 1214.62 L53.9442 1220.48 Z" fill="#000000" fill-rule="nonzero" fill-opacity="1" /><path clip-path="url(#clip620)" d="M18.2962 1172.26 L53.9442 1172.26 L53.9442 1178.08 L25.3303 1178.08 L53.9442 1195.27 L53.9442 1202.78 L18.2962 1202.78 L18.2962 1196.96 L46.8464 1196.96 L18.2962 1179.8 L18.2962 1172.26 Z" fill="#000000" fill-rule="nonzero" fill-opacity="1" /><path clip-path="url(#clip620)" d="M19.6648 1134.54 L25.1393 1134.54 Q23.7707 1137.02 23.1023 1139.54 Q22.4021 1142.02 22.4021 1144.57 Q22.4021 1150.26 26.0305 1153.41 Q29.6272 1156.57 36.152 1156.57 Q42.6769 1156.57 46.3053 1153.41 Q49.9019 1150.26 49.9019 1144.57 Q49.9019 1142.02 49.2335 1139.54 Q48.5333 1137.02 47.1647 1134.54 L52.5755 1134.54 Q53.7214 1136.99 54.2943 1139.63 Q54.8672 1142.24 54.8672 1145.2 Q54.8672 1153.26 49.8064 1158 Q44.7457 1162.74 36.152 1162.74 Q27.431 1162.74 22.4339 1157.97 Q17.4368 1153.16 17.4368 1144.82 Q17.4368 1142.12 18.0097 1139.54 Q18.5508 1136.96 19.6648 1134.54 Z" fill="#000000" fill-rule="nonzero" fill-opacity="1" /><path clip-path="url(#clip620)" d="M53.9442 1128.08 L49.0744 1128.08 Q48.1832 1122.29 44.1728 1120.5 Q38.5391 1118.34 24.1208 1118.34 L18.2962 1118.34 L18.2962 1094.25 L53.9442 1094.25 L53.9442 1100.1 L22.975 1100.1 L22.975 1112.48 L26.508 1112.48 Q40.2579 1112.48 46.4326 1115.28 Q53.0211 1118.28 53.9442 1128.08 Z" fill="#000000" fill-rule="nonzero" fill-opacity="1" /><path clip-path="url(#clip620)" d="M34.6561 1052.2 L37.5206 1052.2 L37.5206 1079.13 Q43.5681 1078.74 46.7509 1075.5 Q49.9019 1072.22 49.9019 1066.4 Q49.9019 1063.02 49.0744 1059.87 Q48.2469 1056.69 46.5918 1053.57 L52.1299 1053.57 Q53.4667 1056.72 54.167 1060.03 Q54.8672 1063.34 54.8672 1066.75 Q54.8672 1075.28 49.9019 1080.27 Q44.9367 1085.24 36.4703 1085.24 Q27.7174 1085.24 22.5931 1080.53 Q17.4368 1075.78 17.4368 1067.76 Q17.4368 1060.57 22.0838 1056.4 Q26.6989 1052.2 34.6561 1052.2 M32.9373 1058.06 Q28.1312 1058.12 25.2666 1060.76 Q22.4021 1063.37 22.4021 1067.7 Q22.4021 1072.6 25.1712 1075.56 Q27.9402 1078.49 32.9692 1078.94 L32.9373 1058.06 Z" fill="#000000" fill-rule="nonzero" fill-opacity="1" /><path clip-path="url(#clip620)" d="M18.2962 1042.81 L18.2962 1036.92 L32.8418 1036.92 L32.8418 1017.92 L18.2962 1017.92 L18.2962 1012.03 L53.9442 1012.03 L53.9442 1017.92 L37.5206 1017.92 L37.5206 1036.92 L53.9442 1036.92 L53.9442 1042.81 L18.2962 1042.81 Z" fill="#000000" fill-rule="nonzero" fill-opacity="1" /><path clip-path="url(#clip620)" d="M18.2962 969.668 L53.9442 969.668 L53.9442 975.493 L25.3303 975.493 L53.9442 992.68 L53.9442 1000.19 L18.2962 1000.19 L18.2962 994.367 L46.8464 994.367 L18.2962 977.212 L18.2962 969.668 Z" fill="#000000" fill-rule="nonzero" fill-opacity="1" /><path clip-path="url(#clip620)" d="M28.5768 951.717 Q31.2186 951.717 32.7145 949.68 Q34.2105 947.643 34.2105 943.855 L34.2105 935.962 L22.975 935.962 L22.975 943.855 Q22.975 947.643 24.4391 949.68 Q25.9032 951.717 28.5768 951.717 M53.9442 960.056 L38.3163 949.171 Q37.4888 952.863 35.3245 955.314 Q33.1283 957.764 28.5768 957.764 Q23.4206 957.764 20.8743 954.359 Q18.2962 950.921 18.2962 944.015 L18.2962 930.074 L53.9442 930.074 L53.9442 935.962 L38.8893 935.962 L38.8893 943.251 L53.9442 953.754 L53.9442 960.056 Z" fill="#000000" fill-rule="nonzero" fill-opacity="1" /><path clip-path="url(#clip620)" d="M45.8597 916.897 L45.8597 910.181 L51.3342 910.181 L61.5193 915.401 L61.5193 919.507 L51.3342 916.897 L45.8597 916.897 Z" fill="#000000" fill-rule="nonzero" fill-opacity="1" /><path clip-path="url(#clip620)" d="M19.6648 851.298 L25.1393 851.298 Q23.7707 853.781 23.1023 856.295 Q22.4021 858.778 22.4021 861.324 Q22.4021 867.021 26.0305 870.172 Q29.6272 873.323 36.152 873.323 Q42.6769 873.323 46.3053 870.172 Q49.9019 867.021 49.9019 861.324 Q49.9019 858.778 49.2335 856.295 Q48.5333 853.781 47.1647 851.298 L52.5755 851.298 Q53.7214 853.749 54.2943 856.391 Q54.8672 859 54.8672 861.961 Q54.8672 870.013 49.8064 874.756 Q44.7457 879.498 36.152 879.498 Q27.431 879.498 22.4339 874.724 Q17.4368 869.918 17.4368 861.579 Q17.4368 858.873 18.0097 856.295 Q18.5508 853.717 19.6648 851.298 Z" fill="#000000" fill-rule="nonzero" fill-opacity="1" /><path clip-path="url(#clip620)" d="M34.6561 810.621 L37.5206 810.621 L37.5206 837.548 Q43.5681 837.166 46.7509 833.92 Q49.9019 830.641 49.9019 824.817 Q49.9019 821.443 49.0744 818.292 Q48.2469 815.109 46.5918 811.99 L52.1299 811.99 Q53.4667 815.141 54.167 818.451 Q54.8672 821.761 54.8672 825.167 Q54.8672 833.697 49.9019 838.694 Q44.9367 843.659 36.4703 843.659 Q27.7174 843.659 22.5931 838.949 Q17.4368 834.206 17.4368 826.185 Q17.4368 818.992 22.0838 814.822 Q26.6989 810.621 34.6561 810.621 M32.9373 816.478 Q28.1312 816.541 25.2666 819.183 Q22.4021 821.793 22.4021 826.122 Q22.4021 831.023 25.1712 833.983 Q27.9402 836.911 32.9692 837.357 L32.9373 816.478 Z" fill="#000000" fill-rule="nonzero" fill-opacity="1" /><path clip-path="url(#clip620)" d="M18.2962 801.232 L18.2962 795.407 L35.038 795.407 L18.2962 778.888 L18.2962 771.695 L32.078 785.317 L53.9442 769.944 L53.9442 776.501 L35.961 789.137 L42.3267 795.407 L53.9442 795.407 L53.9442 801.232 L18.2962 801.232 Z" fill="#000000" fill-rule="nonzero" fill-opacity="1" /><path clip-path="url(#clip620)" d="M974.844 11.0023 Q984.809 11.0023 991.128 15.2557 Q997.448 19.4686 997.448 26.6793 Q997.448 31.7024 994.572 35.1862 Q991.696 38.6294 986.389 39.9662 Q992.263 41.222 995.544 45.1919 Q998.866 49.1618 998.866 54.9951 Q998.866 64.3122 991.655 69.0517 Q984.485 73.7508 974.844 73.7508 Q969.902 73.7508 964.149 72.414 Q958.397 71.0772 956.615 69.9429 L956.615 61.517 Q962.813 65.1223 966.215 66.0135 Q969.659 66.8642 974.682 66.8642 Q982.297 66.8642 986.51 63.9476 Q990.723 61.0309 990.723 54.9951 Q990.723 49.6479 986.956 46.6502 Q983.229 43.612 975.33 43.612 L967.066 43.612 L967.066 36.8875 L975.654 36.8875 Q982.905 36.8875 986.105 34.4975 Q989.306 32.067 989.306 27.5299 Q989.306 22.8714 985.984 20.4004 Q982.703 17.8888 974.682 17.8888 Q969.254 17.8888 967.39 18.3749 Q965.527 18.861 957.222 21.9802 L957.222 13.9999 Q961.8 12.3796 966.58 11.6909 Q971.36 11.0023 974.844 11.0023 Z" fill="#000000" fill-rule="nonzero" fill-opacity="1" /><path clip-path="url(#clip620)" d="M1032.77 49.7694 Q1023.74 49.7694 1020.25 51.8354 Q1016.77 53.9013 1016.77 58.8839 Q1016.77 62.8538 1019.36 65.2034 Q1022 67.5124 1026.49 67.5124 Q1032.69 67.5124 1036.42 63.1374 Q1040.18 58.7219 1040.18 51.4303 L1040.18 49.7694 L1032.77 49.7694 M1047.64 46.6907 L1047.64 72.576 L1040.18 72.576 L1040.18 65.6895 Q1037.63 69.8214 1033.82 71.8063 Q1030.02 73.7508 1024.51 73.7508 Q1017.54 73.7508 1013.41 69.8619 Q1009.32 65.9325 1009.32 59.3701 Q1009.32 51.7138 1014.42 47.825 Q1019.57 43.9361 1029.73 43.9361 L1040.18 43.9361 L1040.18 43.2069 Q1040.18 38.0623 1036.78 35.2672 Q1033.42 32.4315 1027.3 32.4315 Q1023.41 32.4315 1019.73 33.3632 Q1016.04 34.295 1012.64 36.1584 L1012.64 29.2718 Q1016.73 27.692 1020.58 26.9223 Q1024.43 26.1121 1028.07 26.1121 Q1037.92 26.1121 1042.78 31.2163 Q1047.64 36.3204 1047.64 46.6907 Z" fill="#000000" fill-rule="nonzero" fill-opacity="1" /><path clip-path="url(#clip620)" d="M1070.16 51.6733 L1070.16 66.6212 L1080.77 66.6212 Q1085.88 66.6212 1088.55 64.7172 Q1091.23 62.7728 1091.23 59.127 Q1091.23 55.4812 1088.55 53.5773 Q1085.88 51.6733 1080.77 51.6733 L1070.16 51.6733 M1070.16 33.1607 L1070.16 45.7185 L1079.96 45.7185 Q1084.18 45.7185 1086.85 44.0576 Q1089.52 42.3563 1089.52 39.3586 Q1089.52 36.3609 1086.85 34.7811 Q1084.18 33.1607 1079.96 33.1607 L1070.16 33.1607 M1062.71 27.2059 L1080.45 27.2059 Q1088.43 27.2059 1092.73 30.1225 Q1097.02 33.0392 1097.02 38.4269 Q1097.02 42.5993 1094.83 45.0704 Q1092.64 47.5009 1088.35 48.1085 Q1093.49 49.0808 1096.33 52.1594 Q1099.17 55.2381 1099.17 59.8562 Q1099.17 65.9325 1094.47 69.2543 Q1089.81 72.576 1081.14 72.576 L1062.71 72.576 L1062.71 27.2059 Z" fill="#000000" fill-rule="nonzero" fill-opacity="1" /><path clip-path="url(#clip620)" d="M1150.45 27.2059 L1150.45 72.576 L1143.04 72.576 L1143.04 36.1584 L1121.16 72.576 L1111.6 72.576 L1111.6 27.2059 L1119.02 27.2059 L1119.02 63.5425 L1140.85 27.2059 L1150.45 27.2059 Z" fill="#000000" fill-rule="nonzero" fill-opacity="1" /><path clip-path="url(#clip620)" d="M1198.45 28.9478 L1198.45 35.9153 Q1195.29 34.1734 1192.09 33.3227 Q1188.93 32.4315 1185.69 32.4315 Q1178.44 32.4315 1174.43 37.0496 Q1170.42 41.6271 1170.42 49.9314 Q1170.42 58.2358 1174.43 62.8538 Q1178.44 67.4314 1185.69 67.4314 Q1188.93 67.4314 1192.09 66.5807 Q1195.29 65.6895 1198.45 63.9476 L1198.45 70.8341 Q1195.33 72.2924 1191.97 73.0216 Q1188.65 73.7508 1184.88 73.7508 Q1174.63 73.7508 1168.6 67.3098 Q1162.56 60.8689 1162.56 49.9314 Q1162.56 38.832 1168.64 32.472 Q1174.76 26.1121 1185.37 26.1121 Q1188.81 26.1121 1192.09 26.8413 Q1195.38 27.5299 1198.45 28.9478 Z" fill="#000000" fill-rule="nonzero" fill-opacity="1" /><path clip-path="url(#clip620)" d="M1249.98 27.2059 L1249.98 72.576 L1242.57 72.576 L1242.57 36.1584 L1220.69 72.576 L1211.13 72.576 L1211.13 27.2059 L1218.55 27.2059 L1218.55 63.5425 L1240.38 27.2059 L1249.98 27.2059 Z" fill="#000000" fill-rule="nonzero" fill-opacity="1" /><path clip-path="url(#clip620)" d="M1265.05 27.2059 L1275.95 27.2059 L1288.83 57.5877 L1301.75 27.2059 L1312.57 27.2059 L1312.57 72.576 L1305.07 72.576 L1305.07 34.3355 L1292.56 63.8666 L1285.1 63.8666 L1272.54 34.3355 L1272.54 72.576 L1265.05 72.576 L1265.05 27.2059 Z" fill="#000000" fill-rule="nonzero" fill-opacity="1" /><path clip-path="url(#clip620)" d="M1345.5 32.4315 Q1339.51 32.4315 1336.02 37.1306 Q1332.54 41.7891 1332.54 49.9314 Q1332.54 58.0738 1335.98 62.7728 Q1339.47 67.4314 1345.5 67.4314 Q1351.46 67.4314 1354.94 62.7323 Q1358.42 58.0333 1358.42 49.9314 Q1358.42 41.8701 1354.94 37.1711 Q1351.46 32.4315 1345.5 32.4315 M1345.5 26.1121 Q1355.22 26.1121 1360.77 32.4315 Q1366.32 38.7509 1366.32 49.9314 Q1366.32 61.0714 1360.77 67.4314 Q1355.22 73.7508 1345.5 73.7508 Q1335.74 73.7508 1330.19 67.4314 Q1324.68 61.0714 1324.68 49.9314 Q1324.68 38.7509 1330.19 32.4315 Q1335.74 26.1121 1345.5 26.1121 Z" fill="#000000" fill-rule="nonzero" fill-opacity="1" /><path clip-path="url(#clip620)" d="M1411.33 28.9478 L1411.33 35.9153 Q1408.17 34.1734 1404.97 33.3227 Q1401.81 32.4315 1398.57 32.4315 Q1391.32 32.4315 1387.31 37.0496 Q1383.3 41.6271 1383.3 49.9314 Q1383.3 58.2358 1387.31 62.8538 Q1391.32 67.4314 1398.57 67.4314 Q1401.81 67.4314 1404.97 66.5807 Q1408.17 65.6895 1411.33 63.9476 L1411.33 70.8341 Q1408.21 72.2924 1404.85 73.0216 Q1401.53 73.7508 1397.76 73.7508 Q1387.51 73.7508 1381.47 67.3098 Q1375.44 60.8689 1375.44 49.9314 Q1375.44 38.832 1381.51 32.472 Q1387.63 26.1121 1398.24 26.1121 Q1401.69 26.1121 1404.97 26.8413 Q1408.25 27.5299 1411.33 28.9478 Z" fill="#000000" fill-rule="nonzero" fill-opacity="1" /><path clip-path="url(#clip620)" d="M1418.9 27.2059 L1462.37 27.2059 L1462.37 33.1607 L1444.3 33.1607 L1444.3 72.576 L1436.97 72.576 L1436.97 33.1607 L1418.9 33.1607 L1418.9 27.2059 Z" fill="#000000" fill-rule="nonzero" fill-opacity="1" /><path clip-path="url(#clip620)" d="M1500.85 59.127 Q1500.85 55.4812 1498.18 53.5773 Q1495.55 51.6733 1490.44 51.6733 L1479.83 51.6733 L1479.83 66.6212 L1490.44 66.6212 Q1495.55 66.6212 1498.18 64.7172 Q1500.85 62.7728 1500.85 59.127 M1472.34 27.2059 L1479.83 27.2059 L1479.83 45.7185 L1490.77 45.7185 Q1499.44 45.7185 1504.09 49.0402 Q1508.79 52.3215 1508.79 59.127 Q1508.79 65.9325 1504.09 69.2543 Q1499.44 72.576 1490.77 72.576 L1472.34 72.576 L1472.34 27.2059 Z" fill="#000000" fill-rule="nonzero" fill-opacity="1" /><path clip-path="url(#clip620)" d="M1555.05 51.6733 L1555.05 66.6212 L1565.67 66.6212 Q1570.77 66.6212 1573.45 64.7172 Q1576.12 62.7728 1576.12 59.127 Q1576.12 55.4812 1573.45 53.5773 Q1570.77 51.6733 1565.67 51.6733 L1555.05 51.6733 M1555.05 33.1607 L1555.05 45.7185 L1564.86 45.7185 Q1569.07 45.7185 1571.74 44.0576 Q1574.42 42.3563 1574.42 39.3586 Q1574.42 36.3609 1571.74 34.7811 Q1569.07 33.1607 1564.86 33.1607 L1555.05 33.1607 M1547.6 27.2059 L1565.34 27.2059 Q1573.32 27.2059 1577.62 30.1225 Q1581.91 33.0392 1581.91 38.4269 Q1581.91 42.5993 1579.72 45.0704 Q1577.54 47.5009 1573.24 48.1085 Q1578.39 49.0808 1581.22 52.1594 Q1584.06 55.2381 1584.06 59.8562 Q1584.06 65.9325 1579.36 69.2543 Q1574.7 72.576 1566.03 72.576 L1547.6 72.576 L1547.6 27.2059 Z" fill="#000000" fill-rule="nonzero" fill-opacity="1" /><path clip-path="url(#clip620)" d="M1603.99 65.7705 L1603.99 89.8329 L1596.5 89.8329 L1596.5 27.2059 L1603.99 27.2059 L1603.99 34.0924 Q1606.34 30.0415 1609.9 28.0971 Q1613.51 26.1121 1618.49 26.1121 Q1626.76 26.1121 1631.9 32.6746 Q1637.09 39.2371 1637.09 49.9314 Q1637.09 60.6258 1631.9 67.1883 Q1626.76 73.7508 1618.49 73.7508 Q1613.51 73.7508 1609.9 71.8063 Q1606.34 69.8214 1603.99 65.7705 M1629.35 49.9314 Q1629.35 41.7081 1625.95 37.0496 Q1622.58 32.3505 1616.67 32.3505 Q1610.75 32.3505 1607.35 37.0496 Q1603.99 41.7081 1603.99 49.9314 Q1603.99 58.1548 1607.35 62.8538 Q1610.75 67.5124 1616.67 67.5124 Q1622.58 67.5124 1625.95 62.8538 Q1629.35 58.1548 1629.35 49.9314 Z" fill="#000000" fill-rule="nonzero" fill-opacity="1" /><path clip-path="url(#clip620)" d="M1688.25 48.0275 L1688.25 51.6733 L1653.98 51.6733 Q1654.46 59.3701 1658.6 63.421 Q1662.77 67.4314 1670.18 67.4314 Q1674.48 67.4314 1678.49 66.3781 Q1682.54 65.3249 1686.51 63.2184 L1686.51 70.267 Q1682.5 71.9684 1678.28 72.8596 Q1674.07 73.7508 1669.74 73.7508 Q1658.88 73.7508 1652.52 67.4314 Q1646.2 61.1119 1646.2 50.3365 Q1646.2 39.1965 1652.2 32.6746 Q1658.23 26.1121 1668.44 26.1121 Q1677.59 26.1121 1682.9 32.0264 Q1688.25 37.9003 1688.25 48.0275 M1680.79 45.84 Q1680.71 39.7232 1677.35 36.0774 Q1674.03 32.4315 1668.52 32.4315 Q1662.28 32.4315 1658.51 35.9558 Q1654.79 39.4801 1654.22 45.8805 L1680.79 45.84 Z" fill="#000000" fill-rule="nonzero" fill-opacity="1" /><path clip-path="url(#clip620)" d="M1700.2 27.2059 L1711.1 27.2059 L1723.98 57.5877 L1736.9 27.2059 L1747.72 27.2059 L1747.72 72.576 L1740.22 72.576 L1740.22 34.3355 L1727.7 63.8666 L1720.25 63.8666 L1707.69 34.3355 L1707.69 72.576 L1700.2 72.576 L1700.2 27.2059 Z" fill="#000000" fill-rule="nonzero" fill-opacity="1" /><path clip-path="url(#clip620)" d="M1801.88 48.0275 L1801.88 51.6733 L1767.61 51.6733 Q1768.09 59.3701 1772.22 63.421 Q1776.4 67.4314 1783.81 67.4314 Q1788.1 67.4314 1792.11 66.3781 Q1796.16 65.3249 1800.13 63.2184 L1800.13 70.267 Q1796.12 71.9684 1791.91 72.8596 Q1787.7 73.7508 1783.36 73.7508 Q1772.51 73.7508 1766.15 67.4314 Q1759.83 61.1119 1759.83 50.3365 Q1759.83 39.1965 1765.82 32.6746 Q1771.86 26.1121 1782.07 26.1121 Q1791.22 26.1121 1796.53 32.0264 Q1801.88 37.9003 1801.88 48.0275 M1794.42 45.84 Q1794.34 39.7232 1790.98 36.0774 Q1787.66 32.4315 1782.15 32.4315 Q1775.91 32.4315 1772.14 35.9558 Q1768.42 39.4801 1767.85 45.8805 L1794.42 45.84 Z" fill="#000000" fill-rule="nonzero" fill-opacity="1" /><path clip-path="url(#clip620)" d="M1813.83 27.2059 L1821.32 27.2059 L1821.32 45.7185 L1845.5 45.7185 L1845.5 27.2059 L1853 27.2059 L1853 72.576 L1845.5 72.576 L1845.5 51.6733 L1821.32 51.6733 L1821.32 72.576 L1813.83 72.576 L1813.83 27.2059 Z" fill="#000000" fill-rule="nonzero" fill-opacity="1" /><path clip-path="url(#clip620)" d="M1906.92 27.2059 L1906.92 72.576 L1899.5 72.576 L1899.5 36.1584 L1877.63 72.576 L1868.07 72.576 L1868.07 27.2059 L1875.48 27.2059 L1875.48 63.5425 L1897.32 27.2059 L1906.92 27.2059 Z" fill="#000000" fill-rule="nonzero" fill-opacity="1" /><path clip-path="url(#clip620)" d="M1955.81 51.6733 L1955.81 66.6212 L1966.42 66.6212 Q1971.53 66.6212 1974.2 64.7172 Q1976.88 62.7728 1976.88 59.127 Q1976.88 55.4812 1974.2 53.5773 Q1971.53 51.6733 1966.42 51.6733 L1955.81 51.6733 M1955.81 33.1607 L1955.81 45.7185 L1965.61 45.7185 Q1969.83 45.7185 1972.5 44.0576 Q1975.17 42.3563 1975.17 39.3586 Q1975.17 36.3609 1972.5 34.7811 Q1969.83 33.1607 1965.61 33.1607 L1955.81 33.1607 M1948.36 27.2059 L1966.1 27.2059 Q1974.08 27.2059 1978.37 30.1225 Q1982.67 33.0392 1982.67 38.4269 Q1982.67 42.5993 1980.48 45.0704 Q1978.29 47.5009 1974 48.1085 Q1979.14 49.0808 1981.98 52.1594 Q1984.82 55.2381 1984.82 59.8562 Q1984.82 65.9325 1980.12 69.2543 Q1975.46 72.576 1966.79 72.576 L1948.36 72.576 L1948.36 27.2059 Z" fill="#000000" fill-rule="nonzero" fill-opacity="1" /><path clip-path="url(#clip620)" d="M2040.39 27.2059 L2047.85 27.2059 L2047.85 72.576 L2040.39 72.576 L2040.39 27.2059 M2044.12 26.1121 L2044.12 26.1121 M2025.77 59.127 Q2025.77 55.4812 2023.1 53.5773 Q2020.46 51.6733 2015.36 51.6733 L2004.75 51.6733 L2004.75 66.6212 L2015.36 66.6212 Q2020.46 66.6212 2023.1 64.7172 Q2025.77 62.7728 2025.77 59.127 M1997.25 27.2059 L2004.75 27.2059 L2004.75 45.7185 L2015.68 45.7185 Q2024.35 45.7185 2029.01 49.0402 Q2033.71 52.3215 2033.71 59.127 Q2033.71 65.9325 2029.01 69.2543 Q2024.35 72.576 2015.68 72.576 L1997.25 72.576 L1997.25 27.2059 Z" fill="#000000" fill-rule="nonzero" fill-opacity="1" /><path clip-path="url(#clip620)" d="M2089.25 72.576 L2089.25 53.4962 L2075.35 53.4962 Q2069.16 53.4962 2065.02 49.6479 Q2061.3 46.1641 2061.3 38.7104 L2061.3 27.2059 L2068.75 27.2059 L2068.75 38.0218 Q2068.75 42.7613 2070.86 45.1514 Q2073 47.5414 2077.22 47.5414 L2089.25 47.5414 L2089.25 27.2059 L2096.7 27.2059 L2096.7 72.576 L2089.25 72.576 Z" fill="#000000" fill-rule="nonzero" fill-opacity="1" /><path clip-path="url(#clip620)" d="M2150.62 27.2059 L2150.62 72.576 L2143.21 72.576 L2143.21 36.1584 L2121.33 72.576 L2111.77 72.576 L2111.77 27.2059 L2119.18 27.2059 L2119.18 63.5425 L2141.02 27.2059 L2150.62 27.2059 Z" fill="#000000" fill-rule="nonzero" fill-opacity="1" /><path clip-path="url(#clip620)" d="M2198.62 28.9478 L2198.62 35.9153 Q2195.46 34.1734 2192.26 33.3227 Q2189.1 32.4315 2185.86 32.4315 Q2178.61 32.4315 2174.6 37.0496 Q2170.59 41.6271 2170.59 49.9314 Q2170.59 58.2358 2174.6 62.8538 Q2178.61 67.4314 2185.86 67.4314 Q2189.1 67.4314 2192.26 66.5807 Q2195.46 65.6895 2198.62 63.9476 L2198.62 70.8341 Q2195.5 72.2924 2192.14 73.0216 Q2188.82 73.7508 2185.05 73.7508 Q2174.8 73.7508 2168.77 67.3098 Q2162.73 60.8689 2162.73 49.9314 Q2162.73 38.832 2168.81 32.472 Q2174.92 26.1121 2185.54 26.1121 Q2188.98 26.1121 2192.26 26.8413 Q2195.54 27.5299 2198.62 28.9478 Z" fill="#000000" fill-rule="nonzero" fill-opacity="1" /><path clip-path="url(#clip620)" d="M2206.85 72.576 L2206.85 66.3781 Q2214.22 65.2439 2216.49 60.1397 Q2219.24 52.9696 2219.24 34.619 L2219.24 27.2059 L2249.91 27.2059 L2249.91 72.576 L2242.45 72.576 L2242.45 33.1607 L2226.69 33.1607 L2226.69 37.6572 Q2226.69 55.1571 2223.13 63.0159 Q2219.32 71.4012 2206.85 72.576 Z" fill="#000000" fill-rule="nonzero" fill-opacity="1" /><path clip-path="url(#clip620)" d="M2303.42 48.0275 L2303.42 51.6733 L2269.15 51.6733 Q2269.63 59.3701 2273.77 63.421 Q2277.94 67.4314 2285.35 67.4314 Q2289.65 67.4314 2293.66 66.3781 Q2297.71 65.3249 2301.68 63.2184 L2301.68 70.267 Q2297.67 71.9684 2293.45 72.8596 Q2289.24 73.7508 2284.91 73.7508 Q2274.05 73.7508 2267.69 67.4314 Q2261.37 61.1119 2261.37 50.3365 Q2261.37 39.1965 2267.37 32.6746 Q2273.4 26.1121 2283.61 26.1121 Q2292.76 26.1121 2298.07 32.0264 Q2303.42 37.9003 2303.42 48.0275 M2295.97 45.84 Q2295.88 39.7232 2292.52 36.0774 Q2289.2 32.4315 2283.69 32.4315 Q2277.45 32.4315 2273.69 35.9558 Q2269.96 39.4801 2269.39 45.8805 L2295.97 45.84 Z" fill="#000000" fill-rule="nonzero" fill-opacity="1" /><path clip-path="url(#clip620)" d="M2315.37 27.2059 L2322.86 27.2059 L2322.86 45.7185 L2347.05 45.7185 L2347.05 27.2059 L2354.54 27.2059 L2354.54 72.576 L2347.05 72.576 L2347.05 51.6733 L2322.86 51.6733 L2322.86 72.576 L2315.37 72.576 L2315.37 27.2059 Z" fill="#000000" fill-rule="nonzero" fill-opacity="1" /><path clip-path="url(#clip620)" d="M2408.46 27.2059 L2408.46 72.576 L2401.05 72.576 L2401.05 36.1584 L2379.17 72.576 L2369.61 72.576 L2369.61 27.2059 L2377.02 27.2059 L2377.02 63.5425 L2398.86 27.2059 L2408.46 27.2059 Z" fill="#000000" fill-rule="nonzero" fill-opacity="1" /><path clip-path="url(#clip620)" d="M2431.31 40.2903 Q2431.31 43.6525 2433.9 45.5565 Q2436.49 47.4604 2441.31 47.4604 L2451.36 47.4604 L2451.36 33.1607 L2441.31 33.1607 Q2436.49 33.1607 2433.9 35.0241 Q2431.31 36.8875 2431.31 40.2903 M2420.69 72.576 L2434.55 52.6861 Q2429.85 51.6328 2426.73 48.8782 Q2423.61 46.0831 2423.61 40.2903 Q2423.61 33.7278 2427.94 30.4871 Q2432.32 27.2059 2441.11 27.2059 L2458.85 27.2059 L2458.85 72.576 L2451.36 72.576 L2451.36 53.4152 L2442.08 53.4152 L2428.71 72.576 L2420.69 72.576 Z" fill="#000000" fill-rule="nonzero" fill-opacity="1" /><path clip-path="url(#clip620)" d="M2517.67 32.4315 Q2511.68 32.4315 2508.19 37.1306 Q2504.71 41.7891 2504.71 49.9314 Q2504.71 58.0738 2508.15 62.7728 Q2511.64 67.4314 2517.67 67.4314 Q2523.63 67.4314 2527.11 62.7323 Q2530.59 58.0333 2530.59 49.9314 Q2530.59 41.8701 2527.11 37.1711 Q2523.63 32.4315 2517.67 32.4315 M2517.67 26.1121 Q2527.39 26.1121 2532.94 32.4315 Q2538.49 38.7509 2538.49 49.9314 Q2538.49 61.0714 2532.94 67.4314 Q2527.39 73.7508 2517.67 73.7508 Q2507.91 73.7508 2502.36 67.4314 Q2496.85 61.0714 2496.85 49.9314 Q2496.85 38.7509 2502.36 32.4315 Q2507.91 26.1121 2517.67 26.1121 Z" fill="#000000" fill-rule="nonzero" fill-opacity="1" /><path clip-path="url(#clip620)" d="M2545.46 27.2059 L2588.93 27.2059 L2588.93 33.1607 L2570.86 33.1607 L2570.86 72.576 L2563.53 72.576 L2563.53 33.1607 L2545.46 33.1607 L2545.46 27.2059 Z" fill="#000000" fill-rule="nonzero" fill-opacity="1" /><path clip-path="url(#clip620)" d="M2652 51.4708 L2650.22 42.1132 Q2648.39 32.5126 2641.18 32.5126 Q2635.76 32.5126 2633.28 36.9686 Q2630.16 42.5588 2630.16 49.9314 Q2630.16 58.8434 2633.2 63.0969 Q2636.28 67.4314 2641.18 67.4314 Q2646.61 67.4314 2649.53 58.8029 L2652 51.4708 M2656.17 39.075 L2660.18 27.2059 L2666.83 27.2059 L2658.52 51.7949 L2660.14 60.6663 Q2660.51 62.6513 2661.92 64.3122 Q2663.58 66.2566 2664.88 66.2566 L2668.45 66.2566 L2668.45 72.576 L2663.99 72.576 Q2660.18 72.576 2656.78 69.1732 Q2655.12 67.4719 2654.43 63.9071 Q2652.57 68.4036 2648.76 71.9279 Q2646.98 73.5887 2641.18 73.5887 Q2631.66 73.5887 2627.05 67.4314 Q2622.31 61.0714 2622.31 49.9314 Q2622.31 38.0218 2627.45 32.4315 Q2633.16 26.1931 2641.18 26.1931 Q2653.78 26.1931 2656.17 39.075 Z" fill="#000000" fill-rule="nonzero" fill-opacity="1" /><circle clip-path="url(#clip622)" cx="548.167" cy="1962.49" r="28.8" fill="#008000" fill-rule="evenodd" fill-opacity="1" stroke="#000000" stroke-opacity="1" stroke-width="4.8"/>
<circle clip-path="url(#clip622)" cx="1110.11" cy="189.727" r="28.8" fill="#008000" fill-rule="evenodd" fill-opacity="1" stroke="#000000" stroke-opacity="1" stroke-width="4.8"/>
<circle clip-path="url(#clip622)" cx="1672.05" cy="2146.22" r="28.8" fill="#008000" fill-rule="evenodd" fill-opacity="1" stroke="#000000" stroke-opacity="1" stroke-width="4.8"/>
<circle clip-path="url(#clip622)" cx="2514.95" cy="1567.92" r="28.8" fill="#008000" fill-rule="evenodd" fill-opacity="1" stroke="#000000" stroke-opacity="1" stroke-width="4.8"/>
<circle clip-path="url(#clip622)" cx="3076.89" cy="278.439" r="28.8" fill="#008000" fill-rule="evenodd" fill-opacity="1" stroke="#000000" stroke-opacity="1" stroke-width="4.8"/>
<path clip-path="url(#clip620)" d="M561.653 303.842 L1292.2 303.842 L1292.2 200.162 L561.653 200.162  Z" fill="#ffffff" fill-rule="evenodd" fill-opacity="1"/>
<polyline clip-path="url(#clip620)" style="stroke:#000000; stroke-linecap:round; stroke-linejoin:round; stroke-width:4; stroke-opacity:1; fill:none" points="561.653,303.842 1292.2,303.842 1292.2,200.162 561.653,200.162 561.653,303.842 "/>
<circle clip-path="url(#clip620)" cx="680.784" cy="252.002" r="21.6847" fill="#008000" fill-rule="evenodd" fill-opacity="1" stroke="#000000" stroke-opacity="1" stroke-width="3.61412"/>
<path clip-path="url(#clip620)" d="M804.591 252.777 L804.591 265.439 L812.091 265.439 Q815.864 265.439 817.67 263.888 Q819.499 262.314 819.499 259.097 Q819.499 255.856 817.67 254.328 Q815.864 252.777 812.091 252.777 L804.591 252.777 M804.591 238.564 L804.591 248.981 L811.513 248.981 Q814.938 248.981 816.605 247.708 Q818.295 246.411 818.295 243.773 Q818.295 241.157 816.605 239.861 Q814.938 238.564 811.513 238.564 L804.591 238.564 M799.915 234.722 L811.86 234.722 Q817.207 234.722 820.1 236.944 Q822.994 239.166 822.994 243.263 Q822.994 246.435 821.513 248.31 Q820.031 250.185 817.161 250.648 Q820.61 251.388 822.508 253.749 Q824.429 256.087 824.429 259.606 Q824.429 264.235 821.281 266.759 Q818.133 269.282 812.323 269.282 L799.915 269.282 L799.915 234.722 Z" fill="#000000" fill-rule="nonzero" fill-opacity="1" /><path clip-path="url(#clip620)" d="M836.374 265.393 L836.374 279.143 L832.091 279.143 L832.091 243.356 L836.374 243.356 L836.374 247.291 Q837.716 244.976 839.753 243.865 Q841.813 242.731 844.661 242.731 Q849.383 242.731 852.323 246.481 Q855.285 250.231 855.285 256.342 Q855.285 262.453 852.323 266.203 Q849.383 269.953 844.661 269.953 Q841.813 269.953 839.753 268.842 Q837.716 267.708 836.374 265.393 M850.864 256.342 Q850.864 251.643 848.92 248.981 Q846.998 246.296 843.619 246.296 Q840.239 246.296 838.295 248.981 Q836.374 251.643 836.374 256.342 Q836.374 261.041 838.295 263.726 Q840.239 266.388 843.619 266.388 Q846.998 266.388 848.92 263.726 Q850.864 261.041 850.864 256.342 Z" fill="#000000" fill-rule="nonzero" fill-opacity="1" /><path clip-path="url(#clip620)" d="M884.521 255.254 L884.521 257.337 L864.938 257.337 Q865.216 261.735 867.577 264.05 Q869.961 266.342 874.197 266.342 Q876.651 266.342 878.943 265.74 Q881.258 265.138 883.526 263.935 L883.526 267.962 Q881.234 268.934 878.827 269.444 Q876.42 269.953 873.943 269.953 Q867.739 269.953 864.105 266.342 Q860.494 262.731 860.494 256.573 Q860.494 250.208 863.92 246.481 Q867.369 242.731 873.202 242.731 Q878.433 242.731 881.466 246.111 Q884.521 249.467 884.521 255.254 M880.262 254.004 Q880.216 250.509 878.295 248.425 Q876.396 246.342 873.248 246.342 Q869.684 246.342 867.531 248.356 Q865.401 250.37 865.077 254.027 L880.262 254.004 Z" fill="#000000" fill-rule="nonzero" fill-opacity="1" /><path clip-path="url(#clip620)" d="M891.35 243.356 L897.577 243.356 L904.938 260.717 L912.322 243.356 L918.503 243.356 L918.503 269.282 L914.22 269.282 L914.22 247.43 L907.068 264.305 L902.808 264.305 L895.632 247.43 L895.632 269.282 L891.35 269.282 L891.35 243.356 Z" fill="#000000" fill-rule="nonzero" fill-opacity="1" /><path clip-path="url(#clip620)" d="M931.558 250.833 Q931.558 252.754 933.04 253.842 Q934.521 254.93 937.276 254.93 L943.016 254.93 L943.016 246.759 L937.276 246.759 Q934.521 246.759 933.04 247.823 Q931.558 248.888 931.558 250.833 M925.493 269.282 L933.41 257.916 Q930.725 257.314 928.942 255.74 Q927.16 254.143 927.16 250.833 Q927.16 247.083 929.637 245.231 Q932.137 243.356 937.16 243.356 L947.299 243.356 L947.299 269.282 L943.016 269.282 L943.016 258.333 L937.716 258.333 L930.077 269.282 L925.493 269.282 Z" fill="#000000" fill-rule="nonzero" fill-opacity="1" /><path clip-path="url(#clip620)" d="M974.961 257.337 L974.961 265.879 L981.026 265.879 Q983.942 265.879 985.47 264.791 Q986.998 263.68 986.998 261.597 Q986.998 259.513 985.47 258.425 Q983.942 257.337 981.026 257.337 L974.961 257.337 M974.961 246.759 L974.961 253.935 L980.563 253.935 Q982.97 253.935 984.498 252.986 Q986.026 252.013 986.026 250.3 Q986.026 248.587 984.498 247.685 Q982.97 246.759 980.563 246.759 L974.961 246.759 M970.702 243.356 L980.84 243.356 Q985.401 243.356 987.854 245.023 Q990.308 246.689 990.308 249.768 Q990.308 252.152 989.058 253.564 Q987.808 254.953 985.354 255.3 Q988.294 255.856 989.914 257.615 Q991.535 259.374 991.535 262.013 Q991.535 265.485 988.85 267.384 Q986.188 269.282 981.234 269.282 L970.702 269.282 L970.702 243.356 Z" fill="#000000" fill-rule="nonzero" fill-opacity="1" /><path clip-path="url(#clip620)" d="M1023.29 243.356 L1027.55 243.356 L1027.55 269.282 L1023.29 269.282 L1023.29 243.356 M1025.42 242.731 L1025.42 242.731 M1014.94 261.597 Q1014.94 259.513 1013.41 258.425 Q1011.91 257.337 1008.99 257.337 L1002.92 257.337 L1002.92 265.879 L1008.99 265.879 Q1011.91 265.879 1013.41 264.791 Q1014.94 263.68 1014.94 261.597 M998.641 243.356 L1002.92 243.356 L1002.92 253.935 L1009.17 253.935 Q1014.13 253.935 1016.79 255.833 Q1019.47 257.708 1019.47 261.597 Q1019.47 265.485 1016.79 267.384 Q1014.13 269.282 1009.17 269.282 L998.641 269.282 L998.641 243.356 Z" fill="#000000" fill-rule="nonzero" fill-opacity="1" /><path clip-path="url(#clip620)" d="M1051.21 269.282 L1051.21 258.379 L1043.27 258.379 Q1039.73 258.379 1037.37 256.18 Q1035.24 254.189 1035.24 249.93 L1035.24 243.356 L1039.5 243.356 L1039.5 249.536 Q1039.5 252.245 1040.7 253.611 Q1041.93 254.976 1044.34 254.976 L1051.21 254.976 L1051.21 243.356 L1055.47 243.356 L1055.47 269.282 L1051.21 269.282 Z" fill="#000000" fill-rule="nonzero" fill-opacity="1" /><path clip-path="url(#clip620)" d="M1086.28 243.356 L1086.28 269.282 L1082.04 269.282 L1082.04 248.472 L1069.54 269.282 L1064.08 269.282 L1064.08 243.356 L1068.32 243.356 L1068.32 264.12 L1080.79 243.356 L1086.28 243.356 Z" fill="#000000" fill-rule="nonzero" fill-opacity="1" /><path clip-path="url(#clip620)" d="M1113.71 244.351 L1113.71 248.333 Q1111.9 247.337 1110.08 246.851 Q1108.27 246.342 1106.42 246.342 Q1102.27 246.342 1099.98 248.981 Q1097.69 251.597 1097.69 256.342 Q1097.69 261.087 1099.98 263.726 Q1102.27 266.342 1106.42 266.342 Q1108.27 266.342 1110.08 265.856 Q1111.9 265.347 1113.71 264.351 L1113.71 268.286 Q1111.93 269.12 1110.01 269.536 Q1108.11 269.953 1105.96 269.953 Q1100.1 269.953 1096.65 266.272 Q1093.2 262.592 1093.2 256.342 Q1093.2 249.999 1096.67 246.365 Q1100.17 242.731 1106.23 242.731 Q1108.2 242.731 1110.08 243.148 Q1111.95 243.541 1113.71 244.351 Z" fill="#000000" fill-rule="nonzero" fill-opacity="1" /><path clip-path="url(#clip620)" d="M1118.41 269.282 L1118.41 265.74 Q1122.62 265.092 1123.92 262.175 Q1125.49 258.078 1125.49 247.592 L1125.49 243.356 L1143.02 243.356 L1143.02 269.282 L1138.76 269.282 L1138.76 246.759 L1129.75 246.759 L1129.75 249.328 Q1129.75 259.328 1127.71 263.819 Q1125.54 268.61 1118.41 269.282 Z" fill="#000000" fill-rule="nonzero" fill-opacity="1" /><path clip-path="url(#clip620)" d="M1173.59 255.254 L1173.59 257.337 L1154.01 257.337 Q1154.29 261.735 1156.65 264.05 Q1159.03 266.342 1163.27 266.342 Q1165.72 266.342 1168.02 265.74 Q1170.33 265.138 1172.6 263.935 L1172.6 267.962 Q1170.31 268.934 1167.9 269.444 Q1165.49 269.953 1163.02 269.953 Q1156.81 269.953 1153.18 266.342 Q1149.57 262.731 1149.57 256.573 Q1149.57 250.208 1152.99 246.481 Q1156.44 242.731 1162.27 242.731 Q1167.51 242.731 1170.54 246.111 Q1173.59 249.467 1173.59 255.254 M1169.33 254.004 Q1169.29 250.509 1167.37 248.425 Q1165.47 246.342 1162.32 246.342 Q1158.76 246.342 1156.6 248.356 Q1154.47 250.37 1154.15 254.027 L1169.33 254.004 Z" fill="#000000" fill-rule="nonzero" fill-opacity="1" /><path clip-path="url(#clip620)" d="M1180.42 243.356 L1184.71 243.356 L1184.71 253.935 L1198.52 253.935 L1198.52 243.356 L1202.81 243.356 L1202.81 269.282 L1198.52 269.282 L1198.52 257.337 L1184.71 257.337 L1184.71 269.282 L1180.42 269.282 L1180.42 243.356 Z" fill="#000000" fill-rule="nonzero" fill-opacity="1" /><path clip-path="url(#clip620)" d="M1233.62 243.356 L1233.62 269.282 L1229.38 269.282 L1229.38 248.472 L1216.88 269.282 L1211.42 269.282 L1211.42 243.356 L1215.65 243.356 L1215.65 264.12 L1228.13 243.356 L1233.62 243.356 Z" fill="#000000" fill-rule="nonzero" fill-opacity="1" /><path clip-path="url(#clip620)" d="M1246.67 250.833 Q1246.67 252.754 1248.15 253.842 Q1249.64 254.93 1252.39 254.93 L1258.13 254.93 L1258.13 246.759 L1252.39 246.759 Q1249.64 246.759 1248.15 247.823 Q1246.67 248.888 1246.67 250.833 M1240.61 269.282 L1248.52 257.916 Q1245.84 257.314 1244.06 255.74 Q1242.27 254.143 1242.27 250.833 Q1242.27 247.083 1244.75 245.231 Q1247.25 243.356 1252.27 243.356 L1262.41 243.356 L1262.41 269.282 L1258.13 269.282 L1258.13 258.333 L1252.83 258.333 L1245.19 269.282 L1240.61 269.282 Z" fill="#000000" fill-rule="nonzero" fill-opacity="1" /></svg>
