<?xml version="1.0" encoding="utf-8"?>
<svg xmlns="http://www.w3.org/2000/svg" xmlns:xlink="http://www.w3.org/1999/xlink" width="800" height="400" viewBox="0 0 3200 1600">
<defs>
  <clipPath id="clip500">
    <rect x="0" y="0" width="3200" height="1600"/>
  </clipPath>
</defs>
<path clip-path="url(#clip500)" d="M0 1600 L3200 1600 L3200 0 L0 0  Z" fill="#ffffff" fill-rule="evenodd" fill-opacity="1"/>
<defs>
  <clipPath id="clip501">
    <rect x="237" y="0" width="2916" height="1600"/>
  </clipPath>
</defs>
<path clip-path="url(#clip500)" d="M215.662 1443.7 L3152.76 1443.7 L3152.76 108.352 L215.662 108.352  Z" fill="#ffffff" fill-rule="evenodd" fill-opacity="1"/>
<defs>
  <clipPath id="clip502">
    <rect x="215" y="108" width="2938" height="1336"/>
  </clipPath>
</defs>
<polyline clip-path="url(#clip502)" style="stroke:#000000; stroke-linecap:round; stroke-linejoin:round; stroke-width:2; stroke-opacity:0.1; fill:none" points="298.787,1443.7 298.787,108.352 "/>
<polyline clip-path="url(#clip502)" style="stroke:#000000; stroke-linecap:round; stroke-linejoin:round; stroke-width:2; stroke-opacity:0.1; fill:none" points="991.498,1443.7 991.498,108.352 "/>
<polyline clip-path="url(#clip502)" style="stroke:#000000; stroke-linecap:round; stroke-linejoin:round; stroke-width:2; stroke-opacity:0.1; fill:none" points="1684.21,1443.7 1684.21,108.352 "/>
<polyline clip-path="url(#clip502)" style="stroke:#000000; stroke-linecap:round; stroke-linejoin:round; stroke-width:2; stroke-opacity:0.1; fill:none" points="2376.92,1443.7 2376.92,108.352 "/>
<polyline clip-path="url(#clip502)" style="stroke:#000000; stroke-linecap:round; stroke-linejoin:round; stroke-width:2; stroke-opacity:0.1; fill:none" points="3069.63,1443.7 3069.63,108.352 "/>
<polyline clip-path="url(#clip502)" style="stroke:#000000; stroke-linecap:round; stroke-linejoin:round; stroke-width:2; stroke-opacity:0.1; fill:none" points="215.662,1260.32 3152.76,1260.32 "/>
<polyline clip-path="url(#clip502)" style="stroke:#000000; stroke-linecap:round; stroke-linejoin:round; stroke-width:2; stroke-opacity:0.1; fill:none" points="215.662,1018.11 3152.76,1018.11 "/>
<polyline clip-path="url(#clip502)" style="stroke:#000000; stroke-linecap:round; stroke-linejoin:round; stroke-width:2; stroke-opacity:0.1; fill:none" points="215.662,775.898 3152.76,775.898 "/>
<polyline clip-path="url(#clip502)" style="stroke:#000000; stroke-linecap:round; stroke-linejoin:round; stroke-width:2; stroke-opacity:0.1; fill:none" points="215.662,533.685 3152.76,533.685 "/>
<polyline clip-path="url(#clip502)" style="stroke:#000000; stroke-linecap:round; stroke-linejoin:round; stroke-width:2; stroke-opacity:0.1; fill:none" points="215.662,291.473 3152.76,291.473 "/>
<polyline clip-path="url(#clip500)" style="stroke:#000000; stroke-linecap:round; stroke-linejoin:round; stroke-width:4; stroke-opacity:1; fill:none" points="215.662,1443.7 3152.76,1443.7 "/>
<polyline clip-path="url(#clip500)" style="stroke:#000000; stroke-linecap:round; stroke-linejoin:round; stroke-width:4; stroke-opacity:1; fill:none" points="298.787,1443.7 298.787,1424.8 "/>
<polyline clip-path="url(#clip500)" style="stroke:#000000; stroke-linecap:round; stroke-linejoin:round; stroke-width:4; stroke-opacity:1; fill:none" points="991.498,1443.7 991.498,1424.8 "/>
<polyline clip-path="url(#clip500)" style="stroke:#000000; stroke-linecap:round; stroke-linejoin:round; stroke-width:4; stroke-opacity:1; fill:none" points="1684.21,1443.7 1684.21,1424.8 "/>
<polyline clip-path="url(#clip500)" style="stroke:#000000; stroke-linecap:round; stroke-linejoin:round; stroke-width:4; stroke-opacity:1; fill:none" points="2376.92,1443.7 2376.92,1424.8 "/>
<polyline clip-path="url(#clip500)" style="stroke:#000000; stroke-linecap:round; stroke-linejoin:round; stroke-width:4; stroke-opacity:1; fill:none" points="3069.63,1443.7 3069.63,1424.8 "/>
<path clip-path="url(#clip500)" d="M298.787 1481.02 Q295.176 1481.02 293.348 1484.58 Q291.542 1488.12 291.542 1495.25 Q291.542 1502.36 293.348 1505.93 Q295.176 1509.47 298.787 1509.47 Q302.422 1509.47 304.227 1505.93 Q306.056 1502.36 306.056 1495.25 Q306.056 1488.12 304.227 1484.58 Q302.422 1481.02 298.787 1481.02 M298.787 1477.31 Q304.598 1477.31 307.653 1481.92 Q310.732 1486.5 310.732 1495.25 Q310.732 1503.98 307.653 1508.59 Q304.598 1513.17 298.787 1513.17 Q292.977 1513.17 289.899 1508.59 Q286.843 1503.98 286.843 1495.25 Q286.843 1486.5 289.899 1481.92 Q292.977 1477.31 298.787 1477.31 Z" fill="#000000" fill-rule="nonzero" fill-opacity="1" /><path clip-path="url(#clip500)" d="M966.186 1508.56 L973.825 1508.56 L973.825 1482.2 L965.515 1483.87 L965.515 1479.61 L973.778 1477.94 L978.454 1477.94 L978.454 1508.56 L986.093 1508.56 L986.093 1512.5 L966.186 1512.5 L966.186 1508.56 Z" fill="#000000" fill-rule="nonzero" fill-opacity="1" /><path clip-path="url(#clip500)" d="M1005.54 1481.02 Q1001.93 1481.02 1000.1 1484.58 Q998.292 1488.12 998.292 1495.25 Q998.292 1502.36 1000.1 1505.93 Q1001.93 1509.47 1005.54 1509.47 Q1009.17 1509.47 1010.98 1505.93 Q1012.81 1502.36 1012.81 1495.25 Q1012.81 1488.12 1010.98 1484.58 Q1009.17 1481.02 1005.54 1481.02 M1005.54 1477.31 Q1011.35 1477.31 1014.4 1481.92 Q1017.48 1486.5 1017.48 1495.25 Q1017.48 1503.98 1014.4 1508.59 Q1011.35 1513.17 1005.54 1513.17 Q999.727 1513.17 996.649 1508.59 Q993.593 1503.98 993.593 1495.25 Q993.593 1486.5 996.649 1481.92 Q999.727 1477.31 1005.54 1477.31 Z" fill="#000000" fill-rule="nonzero" fill-opacity="1" /><path clip-path="url(#clip500)" d="M1662.98 1508.56 L1679.3 1508.56 L1679.3 1512.5 L1657.36 1512.5 L1657.36 1508.56 Q1660.02 1505.81 1664.6 1501.18 Q1669.21 1496.53 1670.39 1495.19 Q1672.64 1492.66 1673.51 1490.93 Q1674.42 1489.17 1674.42 1487.48 Q1674.42 1484.72 1672.47 1482.99 Q1670.55 1481.25 1667.45 1481.25 Q1665.25 1481.25 1662.8 1482.01 Q1660.37 1482.78 1657.59 1484.33 L1657.59 1479.61 Q1660.41 1478.47 1662.87 1477.89 Q1665.32 1477.31 1667.36 1477.31 Q1672.73 1477.31 1675.92 1480 Q1679.12 1482.69 1679.12 1487.18 Q1679.12 1489.31 1678.31 1491.23 Q1677.52 1493.12 1675.41 1495.72 Q1674.83 1496.39 1671.73 1499.61 Q1668.63 1502.8 1662.98 1508.56 Z" fill="#000000" fill-rule="nonzero" fill-opacity="1" /><path clip-path="url(#clip500)" d="M1699.12 1481.02 Q1695.51 1481.02 1693.68 1484.58 Q1691.87 1488.12 1691.87 1495.25 Q1691.87 1502.36 1693.68 1505.93 Q1695.51 1509.47 1699.12 1509.47 Q1702.75 1509.47 1704.56 1505.93 Q1706.38 1502.36 1706.38 1495.25 Q1706.38 1488.12 1704.56 1484.58 Q1702.75 1481.02 1699.12 1481.02 M1699.12 1477.31 Q1704.93 1477.31 1707.98 1481.92 Q1711.06 1486.5 1711.06 1495.25 Q1711.06 1503.98 1707.98 1508.59 Q1704.93 1513.17 1699.12 1513.17 Q1693.31 1513.17 1690.23 1508.59 Q1687.17 1503.98 1687.17 1495.25 Q1687.17 1486.5 1690.23 1481.92 Q1693.31 1477.31 1699.12 1477.31 Z" fill="#000000" fill-rule="nonzero" fill-opacity="1" /><path clip-path="url(#clip500)" d="M2365.76 1493.87 Q2369.12 1494.58 2370.99 1496.85 Q2372.89 1499.12 2372.89 1502.45 Q2372.89 1507.57 2369.37 1510.37 Q2365.86 1513.17 2359.37 1513.17 Q2357.2 1513.17 2354.88 1512.73 Q2352.59 1512.31 2350.14 1511.46 L2350.14 1506.94 Q2352.08 1508.08 2354.4 1508.66 Q2356.71 1509.24 2359.23 1509.24 Q2363.63 1509.24 2365.92 1507.5 Q2368.24 1505.76 2368.24 1502.45 Q2368.24 1499.4 2366.09 1497.69 Q2363.96 1495.95 2360.14 1495.95 L2356.11 1495.95 L2356.11 1492.11 L2360.32 1492.11 Q2363.77 1492.11 2365.6 1490.74 Q2367.43 1489.35 2367.43 1486.76 Q2367.43 1484.1 2365.53 1482.69 Q2363.66 1481.25 2360.14 1481.25 Q2358.22 1481.25 2356.02 1481.67 Q2353.82 1482.08 2351.18 1482.96 L2351.18 1478.8 Q2353.84 1478.06 2356.16 1477.69 Q2358.49 1477.31 2360.55 1477.31 Q2365.88 1477.31 2368.98 1479.75 Q2372.08 1482.15 2372.08 1486.27 Q2372.08 1489.14 2370.44 1491.13 Q2368.79 1493.1 2365.76 1493.87 Z" fill="#000000" fill-rule="nonzero" fill-opacity="1" /><path clip-path="url(#clip500)" d="M2391.76 1481.02 Q2388.15 1481.02 2386.32 1484.58 Q2384.51 1488.12 2384.51 1495.25 Q2384.51 1502.36 2386.32 1505.93 Q2388.15 1509.47 2391.76 1509.47 Q2395.39 1509.47 2397.2 1505.93 Q2399.03 1502.36 2399.03 1495.25 Q2399.03 1488.12 2397.2 1484.58 Q2395.39 1481.02 2391.76 1481.02 M2391.76 1477.31 Q2397.57 1477.31 2400.62 1481.92 Q2403.7 1486.5 2403.7 1495.25 Q2403.7 1503.98 2400.62 1508.59 Q2397.57 1513.17 2391.76 1513.17 Q2385.95 1513.17 2382.87 1508.59 Q2379.81 1503.98 2379.81 1495.25 Q2379.81 1486.5 2382.87 1481.92 Q2385.95 1477.31 2391.76 1477.31 Z" fill="#000000" fill-rule="nonzero" fill-opacity="1" /><path clip-path="url(#clip500)" d="M3057.8 1482.01 L3046 1500.46 L3057.8 1500.46 L3057.8 1482.01 M3056.58 1477.94 L3062.45 1477.94 L3062.45 1500.46 L3067.39 1500.46 L3067.39 1504.35 L3062.45 1504.35 L3062.45 1512.5 L3057.8 1512.5 L3057.8 1504.35 L3042.2 1504.35 L3042.2 1499.84 L3056.58 1477.94 Z" fill="#000000" fill-rule="nonzero" fill-opacity="1" /><path clip-path="url(#clip500)" d="M3085.12 1481.02 Q3081.51 1481.02 3079.68 1484.58 Q3077.87 1488.12 3077.87 1495.25 Q3077.87 1502.36 3079.68 1505.93 Q3081.51 1509.47 3085.12 1509.47 Q3088.75 1509.47 3090.56 1505.93 Q3092.39 1502.36 3092.39 1495.25 Q3092.39 1488.12 3090.56 1484.58 Q3088.75 1481.02 3085.12 1481.02 M3085.12 1477.31 Q3090.93 1477.31 3093.98 1481.92 Q3097.06 1486.5 3097.06 1495.25 Q3097.06 1503.98 3093.98 1508.59 Q3090.93 1513.17 3085.12 1513.17 Q3079.31 1513.17 3076.23 1508.59 Q3073.17 1503.98 3073.17 1495.25 Q3073.17 1486.5 3076.23 1481.92 Q3079.31 1477.31 3085.12 1477.31 Z" fill="#000000" fill-rule="nonzero" fill-opacity="1" /><path clip-path="url(#clip500)" d="M1503.76 1577.87 L1503.76 1595.28 L1514.07 1595.28 Q1519.26 1595.28 1521.74 1593.15 Q1524.25 1590.98 1524.25 1586.56 Q1524.25 1582.1 1521.74 1580 Q1519.26 1577.87 1514.07 1577.87 L1503.76 1577.87 M1503.76 1558.33 L1503.76 1572.65 L1513.27 1572.65 Q1517.98 1572.65 1520.28 1570.9 Q1522.6 1569.12 1522.6 1565.49 Q1522.6 1561.89 1520.28 1560.11 Q1517.98 1558.33 1513.27 1558.33 L1503.76 1558.33 M1497.33 1553.04 L1513.75 1553.04 Q1521.1 1553.04 1525.08 1556.1 Q1529.06 1559.15 1529.06 1564.79 Q1529.06 1569.15 1527.02 1571.73 Q1524.99 1574.31 1521.04 1574.94 Q1525.78 1575.96 1528.39 1579.21 Q1531.03 1582.42 1531.03 1587.26 Q1531.03 1593.63 1526.71 1597.09 Q1522.38 1600.56 1514.39 1600.56 L1497.33 1600.56 L1497.33 1553.04 Z" fill="#000000" fill-rule="nonzero" fill-opacity="1" /><path clip-path="url(#clip500)" d="M1547.46 1595.22 L1547.46 1614.12 L1541.57 1614.12 L1541.57 1564.92 L1547.46 1564.92 L1547.46 1570.33 Q1549.3 1567.14 1552.1 1565.62 Q1554.94 1564.06 1558.85 1564.06 Q1565.35 1564.06 1569.39 1569.21 Q1573.46 1574.37 1573.46 1582.77 Q1573.46 1591.17 1569.39 1596.33 Q1565.35 1601.49 1558.85 1601.49 Q1554.94 1601.49 1552.1 1599.96 Q1549.3 1598.4 1547.46 1595.22 M1567.38 1582.77 Q1567.38 1576.31 1564.71 1572.65 Q1562.07 1568.96 1557.42 1568.96 Q1552.77 1568.96 1550.1 1572.65 Q1547.46 1576.31 1547.46 1582.77 Q1547.46 1589.23 1550.1 1592.92 Q1552.77 1596.59 1557.42 1596.59 Q1562.07 1596.59 1564.71 1592.92 Q1567.38 1589.23 1567.38 1582.77 Z" fill="#000000" fill-rule="nonzero" fill-opacity="1" /><path clip-path="url(#clip500)" d="M1613.66 1581.28 L1613.66 1584.14 L1586.73 1584.14 Q1587.12 1590.19 1590.36 1593.37 Q1593.64 1596.52 1599.47 1596.52 Q1602.84 1596.52 1605.99 1595.69 Q1609.17 1594.87 1612.29 1593.21 L1612.29 1598.75 Q1609.14 1600.09 1605.83 1600.79 Q1602.52 1601.49 1599.12 1601.49 Q1590.59 1601.49 1585.59 1596.52 Q1580.62 1591.56 1580.62 1583.09 Q1580.62 1574.34 1585.33 1569.21 Q1590.08 1564.06 1598.1 1564.06 Q1605.29 1564.06 1609.46 1568.7 Q1613.66 1573.32 1613.66 1581.28 M1607.8 1579.56 Q1607.74 1574.75 1605.1 1571.89 Q1602.49 1569.02 1598.16 1569.02 Q1593.26 1569.02 1590.3 1571.79 Q1587.37 1574.56 1586.93 1579.59 L1607.8 1579.56 Z" fill="#000000" fill-rule="nonzero" fill-opacity="1" /><path clip-path="url(#clip500)" d="M1623.05 1564.92 L1631.61 1564.92 L1641.73 1588.79 L1651.89 1564.92 L1660.39 1564.92 L1660.39 1600.56 L1654.5 1600.56 L1654.5 1570.52 L1644.66 1593.72 L1638.81 1593.72 L1628.94 1570.52 L1628.94 1600.56 L1623.05 1600.56 L1623.05 1564.92 Z" fill="#000000" fill-rule="nonzero" fill-opacity="1" /><path clip-path="url(#clip500)" d="M1678.34 1575.2 Q1678.34 1577.84 1680.37 1579.33 Q1682.41 1580.83 1686.2 1580.83 L1694.09 1580.83 L1694.09 1569.59 L1686.2 1569.59 Q1682.41 1569.59 1680.37 1571.06 Q1678.34 1572.52 1678.34 1575.2 M1670 1600.56 L1680.88 1584.94 Q1677.19 1584.11 1674.74 1581.94 Q1672.29 1579.75 1672.29 1575.2 Q1672.29 1570.04 1675.69 1567.49 Q1679.13 1564.92 1686.04 1564.92 L1699.98 1564.92 L1699.98 1600.56 L1694.09 1600.56 L1694.09 1585.51 L1686.8 1585.51 L1676.3 1600.56 L1670 1600.56 Z" fill="#000000" fill-rule="nonzero" fill-opacity="1" /><path clip-path="url(#clip500)" d="M1713.16 1592.48 L1719.87 1592.48 L1719.87 1597.95 L1714.65 1608.14 L1710.55 1608.14 L1713.16 1597.95 L1713.16 1592.48 Z" fill="#000000" fill-rule="nonzero" fill-opacity="1" /><path clip-path="url(#clip500)" d="M1761.06 1595.89 L1778.06 1595.89 L1778.06 1569.59 L1765.74 1569.59 L1765.74 1574.05 Q1765.74 1587.16 1761.98 1594.17 L1761.06 1595.89 M1752.56 1595.89 Q1755.46 1594.61 1756.73 1591.91 Q1759.85 1585.19 1759.85 1571.66 L1759.85 1564.92 L1783.94 1564.92 L1783.94 1595.89 L1788.62 1595.89 L1788.62 1609.57 L1783.94 1609.57 L1783.94 1600.56 L1755.04 1600.56 L1755.04 1609.57 L1750.36 1609.57 L1750.36 1595.89 L1752.56 1595.89 Z" fill="#000000" fill-rule="nonzero" fill-opacity="1" /><path clip-path="url(#clip500)" d="M1797.95 1564.92 L1803.84 1564.92 L1803.84 1579.46 L1822.84 1579.46 L1822.84 1564.92 L1828.73 1564.92 L1828.73 1600.56 L1822.84 1600.56 L1822.84 1584.14 L1803.84 1584.14 L1803.84 1600.56 L1797.95 1600.56 L1797.95 1564.92 Z" fill="#000000" fill-rule="nonzero" fill-opacity="1" /><path clip-path="url(#clip500)" d="M1871.09 1564.92 L1871.09 1600.56 L1865.27 1600.56 L1865.27 1571.95 L1848.08 1600.56 L1840.57 1600.56 L1840.57 1564.92 L1846.39 1564.92 L1846.39 1593.47 L1863.55 1564.92 L1871.09 1564.92 Z" fill="#000000" fill-rule="nonzero" fill-opacity="1" /><polyline clip-path="url(#clip500)" style="stroke:#000000; stroke-linecap:round; stroke-linejoin:round; stroke-width:4; stroke-opacity:1; fill:none" points="215.662,1443.7 215.662,108.352 "/>
<polyline clip-path="url(#clip500)" style="stroke:#000000; stroke-linecap:round; stroke-linejoin:round; stroke-width:4; stroke-opacity:1; fill:none" points="215.662,1260.32 234.56,1260.32 "/>
<polyline clip-path="url(#clip500)" style="stroke:#000000; stroke-linecap:round; stroke-linejoin:round; stroke-width:4; stroke-opacity:1; fill:none" points="215.662,1018.11 234.56,1018.11 "/>
<polyline clip-path="url(#clip500)" style="stroke:#000000; stroke-linecap:round; stroke-linejoin:round; stroke-width:4; stroke-opacity:1; fill:none" points="215.662,775.898 234.56,775.898 "/>
<polyline clip-path="url(#clip500)" style="stroke:#000000; stroke-linecap:round; stroke-linejoin:round; stroke-width:4; stroke-opacity:1; fill:none" points="215.662,533.685 234.56,533.685 "/>
<polyline clip-path="url(#clip500)" style="stroke:#000000; stroke-linecap:round; stroke-linejoin:round; stroke-width:4; stroke-opacity:1; fill:none" points="215.662,291.473 234.56,291.473 "/>
<path clip-path="url(#clip500)" d="M110.325 1246.12 Q106.713 1246.12 104.885 1249.69 Q103.079 1253.23 103.079 1260.36 Q103.079 1267.46 104.885 1271.03 Q106.713 1274.57 110.325 1274.57 Q113.959 1274.57 115.764 1271.03 Q117.593 1267.46 117.593 1260.36 Q117.593 1253.23 115.764 1249.69 Q113.959 1246.12 110.325 1246.12 M110.325 1242.42 Q116.135 1242.42 119.19 1247.02 Q122.269 1251.61 122.269 1260.36 Q122.269 1269.08 119.19 1273.69 Q116.135 1278.27 110.325 1278.27 Q104.514 1278.27 101.436 1273.69 Q98.3802 1269.08 98.3802 1260.36 Q98.3802 1251.61 101.436 1247.02 Q104.514 1242.42 110.325 1242.42 Z" fill="#000000" fill-rule="nonzero" fill-opacity="1" /><path clip-path="url(#clip500)" d="M130.486 1271.72 L135.371 1271.72 L135.371 1277.6 L130.486 1277.6 L130.486 1271.72 Z" fill="#000000" fill-rule="nonzero" fill-opacity="1" /><path clip-path="url(#clip500)" d="M156.134 1258.46 Q152.986 1258.46 151.135 1260.61 Q149.306 1262.77 149.306 1266.52 Q149.306 1270.24 151.135 1272.42 Q152.986 1274.57 156.134 1274.57 Q159.283 1274.57 161.111 1272.42 Q162.963 1270.24 162.963 1266.52 Q162.963 1262.77 161.111 1260.61 Q159.283 1258.46 156.134 1258.46 M165.417 1243.81 L165.417 1248.07 Q163.658 1247.23 161.852 1246.79 Q160.07 1246.35 158.31 1246.35 Q153.681 1246.35 151.227 1249.48 Q148.797 1252.6 148.449 1258.92 Q149.815 1256.91 151.875 1255.84 Q153.935 1254.76 156.412 1254.76 Q161.621 1254.76 164.63 1257.93 Q167.662 1261.08 167.662 1266.52 Q167.662 1271.84 164.514 1275.06 Q161.366 1278.27 156.134 1278.27 Q150.139 1278.27 146.968 1273.69 Q143.797 1269.08 143.797 1260.36 Q143.797 1252.16 147.685 1247.3 Q151.574 1242.42 158.125 1242.42 Q159.884 1242.42 161.667 1242.77 Q163.472 1243.11 165.417 1243.81 Z" fill="#000000" fill-rule="nonzero" fill-opacity="1" /><path clip-path="url(#clip500)" d="M110.672 1003.91 Q107.061 1003.91 105.232 1007.47 Q103.426 1011.02 103.426 1018.15 Q103.426 1025.25 105.232 1028.82 Q107.061 1032.36 110.672 1032.36 Q114.306 1032.36 116.112 1028.82 Q117.94 1025.25 117.94 1018.15 Q117.94 1011.02 116.112 1007.47 Q114.306 1003.91 110.672 1003.91 M110.672 1000.21 Q116.482 1000.21 119.537 1004.81 Q122.616 1009.4 122.616 1018.15 Q122.616 1026.87 119.537 1031.48 Q116.482 1036.06 110.672 1036.06 Q104.862 1036.06 101.783 1031.48 Q98.7274 1026.87 98.7274 1018.15 Q98.7274 1009.4 101.783 1004.81 Q104.862 1000.21 110.672 1000.21 Z" fill="#000000" fill-rule="nonzero" fill-opacity="1" /><path clip-path="url(#clip500)" d="M130.834 1029.51 L135.718 1029.51 L135.718 1035.39 L130.834 1035.39 L130.834 1029.51 Z" fill="#000000" fill-rule="nonzero" fill-opacity="1" /><path clip-path="url(#clip500)" d="M146.042 1034.67 L146.042 1030.41 Q147.801 1031.25 149.607 1031.69 Q151.412 1032.13 153.148 1032.13 Q157.778 1032.13 160.209 1029.02 Q162.662 1025.9 163.009 1019.56 Q161.667 1021.55 159.607 1022.61 Q157.547 1023.68 155.047 1023.68 Q149.861 1023.68 146.829 1020.55 Q143.82 1017.4 143.82 1011.96 Q143.82 1006.64 146.968 1003.42 Q150.116 1000.21 155.347 1000.21 Q161.343 1000.21 164.491 1004.81 Q167.662 1009.4 167.662 1018.15 Q167.662 1026.32 163.773 1031.2 Q159.908 1036.06 153.357 1036.06 Q151.597 1036.06 149.792 1035.71 Q147.986 1035.37 146.042 1034.67 M155.347 1020.02 Q158.496 1020.02 160.324 1017.87 Q162.176 1015.71 162.176 1011.96 Q162.176 1008.24 160.324 1006.09 Q158.496 1003.91 155.347 1003.91 Q152.199 1003.91 150.347 1006.09 Q148.519 1008.24 148.519 1011.96 Q148.519 1015.71 150.347 1017.87 Q152.199 1020.02 155.347 1020.02 Z" fill="#000000" fill-rule="nonzero" fill-opacity="1" /><path clip-path="url(#clip500)" d="M102.894 789.243 L110.533 789.243 L110.533 762.877 L102.223 764.544 L102.223 760.284 L110.487 758.618 L115.162 758.618 L115.162 789.243 L122.801 789.243 L122.801 793.178 L102.894 793.178 L102.894 789.243 Z" fill="#000000" fill-rule="nonzero" fill-opacity="1" /><path clip-path="url(#clip500)" d="M132.246 787.298 L137.13 787.298 L137.13 793.178 L132.246 793.178 L132.246 787.298 Z" fill="#000000" fill-rule="nonzero" fill-opacity="1" /><path clip-path="url(#clip500)" d="M151.343 789.243 L167.662 789.243 L167.662 793.178 L145.718 793.178 L145.718 789.243 Q148.38 786.488 152.963 781.858 Q157.57 777.206 158.75 775.863 Q160.996 773.34 161.875 771.604 Q162.778 769.845 162.778 768.155 Q162.778 765.4 160.834 763.664 Q158.912 761.928 155.81 761.928 Q153.611 761.928 151.158 762.692 Q148.727 763.456 145.949 765.007 L145.949 760.284 Q148.773 759.15 151.227 758.571 Q153.681 757.993 155.718 757.993 Q161.088 757.993 164.283 760.678 Q167.477 763.363 167.477 767.854 Q167.477 769.983 166.667 771.905 Q165.88 773.803 163.773 776.395 Q163.195 777.067 160.093 780.284 Q156.991 783.479 151.343 789.243 Z" fill="#000000" fill-rule="nonzero" fill-opacity="1" /><path clip-path="url(#clip500)" d="M102.292 547.03 L109.931 547.03 L109.931 520.664 L101.621 522.331 L101.621 518.072 L109.885 516.405 L114.561 516.405 L114.561 547.03 L122.199 547.03 L122.199 550.965 L102.292 550.965 L102.292 547.03 Z" fill="#000000" fill-rule="nonzero" fill-opacity="1" /><path clip-path="url(#clip500)" d="M131.644 545.086 L136.528 545.086 L136.528 550.965 L131.644 550.965 L131.644 545.086 Z" fill="#000000" fill-rule="nonzero" fill-opacity="1" /><path clip-path="url(#clip500)" d="M146.76 516.405 L165.116 516.405 L165.116 520.34 L151.042 520.34 L151.042 528.813 Q152.06 528.465 153.079 528.303 Q154.097 528.118 155.116 528.118 Q160.903 528.118 164.283 531.289 Q167.662 534.461 167.662 539.877 Q167.662 545.456 164.19 548.558 Q160.718 551.636 154.398 551.636 Q152.222 551.636 149.954 551.266 Q147.709 550.896 145.301 550.155 L145.301 545.456 Q147.385 546.59 149.607 547.146 Q151.829 547.701 154.306 547.701 Q158.31 547.701 160.648 545.595 Q162.986 543.488 162.986 539.877 Q162.986 536.266 160.648 534.16 Q158.31 532.053 154.306 532.053 Q152.431 532.053 150.556 532.47 Q148.704 532.887 146.76 533.766 L146.76 516.405 Z" fill="#000000" fill-rule="nonzero" fill-opacity="1" /><path clip-path="url(#clip500)" d="M101.389 304.817 L109.028 304.817 L109.028 278.452 L100.718 280.118 L100.718 275.859 L108.982 274.193 L113.658 274.193 L113.658 304.817 L121.297 304.817 L121.297 308.753 L101.389 308.753 L101.389 304.817 Z" fill="#000000" fill-rule="nonzero" fill-opacity="1" /><path clip-path="url(#clip500)" d="M130.741 302.873 L135.625 302.873 L135.625 308.753 L130.741 308.753 L130.741 302.873 Z" fill="#000000" fill-rule="nonzero" fill-opacity="1" /><path clip-path="url(#clip500)" d="M155.81 292.341 Q152.477 292.341 150.556 294.123 Q148.658 295.905 148.658 299.03 Q148.658 302.155 150.556 303.938 Q152.477 305.72 155.81 305.72 Q159.144 305.72 161.065 303.938 Q162.986 302.132 162.986 299.03 Q162.986 295.905 161.065 294.123 Q159.167 292.341 155.81 292.341 M151.135 290.35 Q148.125 289.609 146.435 287.549 Q144.769 285.489 144.769 282.526 Q144.769 278.382 147.709 275.975 Q150.672 273.568 155.81 273.568 Q160.972 273.568 163.912 275.975 Q166.852 278.382 166.852 282.526 Q166.852 285.489 165.162 287.549 Q163.496 289.609 160.509 290.35 Q163.889 291.137 165.764 293.429 Q167.662 295.72 167.662 299.03 Q167.662 304.054 164.584 306.739 Q161.528 309.424 155.81 309.424 Q150.093 309.424 147.014 306.739 Q143.959 304.054 143.959 299.03 Q143.959 295.72 145.857 293.429 Q147.755 291.137 151.135 290.35 M149.422 282.966 Q149.422 285.651 151.088 287.155 Q152.778 288.66 155.81 288.66 Q158.82 288.66 160.509 287.155 Q162.222 285.651 162.222 282.966 Q162.222 280.28 160.509 278.776 Q158.82 277.271 155.81 277.271 Q152.778 277.271 151.088 278.776 Q149.422 280.28 149.422 282.966 Z" fill="#000000" fill-rule="nonzero" fill-opacity="1" /><path clip-path="url(#clip500)" d="M0.658083 775.244 Q-0.40471 775.244 -1.27427 775.534 Q-2.17603 775.792 -2.78794 776.21 Q-3.43206 776.597 -3.91515 777.338 Q-4.43044 778.078 -4.7525 778.69 Q-5.07456 779.302 -5.2678 780.333 Q-5.49324 781.363 -5.58985 782.04 Q-5.71868 782.716 -5.78309 783.875 Q-5.8475 785.035 -5.8475 785.614 Q-5.8475 786.162 -5.8475 787.257 Q-5.8475 790.703 -5.78309 791.283 Q-5.65427 792.152 -5.13897 792.474 Q-4.65588 792.796 -3.33544 793.118 L13.8625 797.402 L13.8625 790.027 Q13.8625 786.001 12.7353 783.231 Q11.6081 780.462 10.03 778.883 Q8.29087 777.144 5.48896 776.21 Q2.68705 775.244 0.658083 775.244 M31.0282 768.062 Q31.3825 768.062 32.1876 768.352 Q32.9928 768.61 34.12 769.254 Q35.215 769.898 36.2134 770.768 Q37.2117 771.637 37.8881 773.022 Q38.5966 774.407 38.5966 775.985 Q38.5966 776.371 38.5644 776.758 Q38.5644 777.144 38.4034 778.11 Q38.2745 779.044 38.0169 779.817 Q37.7914 780.59 37.2439 781.557 Q36.7286 782.523 36.0201 783.199 Q35.2794 783.843 34.12 784.294 Q32.9284 784.745 31.4791 784.745 Q30.1909 784.745 25.8753 783.682 Q22.2038 782.748 21.302 782.748 Q20.3037 782.748 19.3697 783.07 Q18.4357 783.36 17.4695 784.101 Q16.5034 784.809 15.9237 786.323 Q15.3118 787.837 15.3118 789.962 L15.3118 797.788 L32.7995 802.168 Q32.8317 802.168 33.2826 802.265 Q33.7013 802.362 33.9267 802.362 Q34.3454 802.362 34.6031 802.104 Q34.8607 801.814 34.9895 801.105 Q35.0861 800.397 35.1184 799.849 Q35.1184 799.27 35.1184 798.078 Q35.1184 796.597 35.376 796.339 Q35.537 796.21 35.8269 796.21 Q36.2778 796.21 36.5998 796.339 Q36.8897 796.436 36.9863 796.693 Q37.0829 796.919 37.1151 797.08 Q37.1473 797.241 37.1473 797.531 L36.9541 805.904 L37.1473 814.213 Q37.1473 815.147 36.4066 815.147 Q35.7625 815.147 35.5048 814.922 Q35.215 814.696 35.1828 814.406 Q35.1184 814.117 35.1184 813.376 Q35.1184 811.766 35.0217 810.799 Q34.9251 809.833 34.7963 809.221 Q34.6353 808.577 34.1844 808.255 Q33.7335 807.901 33.347 807.74 Q32.9284 807.579 31.9944 807.353 L-3.43206 798.529 Q-4.49485 798.271 -4.65588 798.271 Q-5.2678 798.271 -5.42882 798.658 Q-5.62206 799.012 -5.71868 800.043 L-5.8475 802.555 Q-5.8475 803.328 -5.87971 803.65 Q-5.91191 803.94 -6.07294 804.165 Q-6.23397 804.39 -6.58824 804.39 Q-7.49 804.39 -7.68323 804.004 Q-7.90868 803.618 -7.90868 802.49 L-7.90868 783.682 Q-7.90868 777.273 -5.10677 773.215 Q-2.30486 769.125 1.97852 769.125 Q3.91088 769.125 5.7144 769.995 Q7.51793 770.864 8.93499 772.313 Q10.352 773.73 11.5437 775.631 Q12.7031 777.531 13.5082 779.56 Q14.2812 781.557 14.732 783.618 Q15.0541 782.716 15.5372 781.879 Q16.0203 781.009 16.922 779.914 Q17.8238 778.787 19.2731 778.11 Q20.7223 777.434 22.4937 777.434 Q23.7497 777.434 25.6176 777.692 Q30.9316 778.336 33.1216 778.336 Q35.215 778.336 36.1811 777.788 Q37.1473 777.241 37.1473 775.695 Q37.1473 774.181 35.7947 772.507 Q34.4098 770.8 31.157 769.705 Q30.2231 769.447 30.2231 768.835 Q30.2231 768.803 30.2231 768.771 Q30.2231 768.706 30.2875 768.578 Q30.3197 768.449 30.4163 768.352 Q30.4807 768.223 30.6417 768.159 Q30.8028 768.062 31.0282 768.062 Z" fill="#000000" fill-rule="nonzero" fill-opacity="1" /><path clip-path="url(#clip500)" d="M45.3606 743.941 Q45.5635 743.761 45.7664 743.761 Q45.9693 743.761 46.5555 744.212 Q47.1416 744.64 47.9306 745.564 Q48.7197 746.489 49.4636 747.684 Q50.2076 748.878 50.7036 750.637 Q51.2221 752.395 51.2221 754.244 Q51.2221 757.558 48.855 759.542 Q46.4878 761.503 42.8582 761.503 Q40.5362 761.503 38.4847 760.737 Q36.4106 759.97 34.9452 758.73 Q33.4799 757.468 32.4203 755.89 Q31.3382 754.289 30.8197 752.621 Q30.3012 750.952 30.3012 749.397 Q30.3012 747.12 31.4509 745.79 Q32.6007 744.46 34.2238 744.46 Q34.6071 744.46 35.0805 744.572 Q35.5539 744.663 36.2979 744.978 Q37.0418 745.271 37.7858 746.038 Q38.5072 746.804 38.9806 747.932 Q40.0402 750.434 40.0402 754.988 L40.0402 757.445 Q42.9484 758.167 44.8421 758.167 Q45.5861 758.167 46.3526 758.031 Q47.0965 757.896 48.0434 757.535 Q48.9902 757.152 49.5989 756.295 Q50.1851 755.416 50.1851 754.154 Q50.1851 753.748 50.1625 753.32 Q50.14 752.869 49.892 751.741 Q49.644 750.592 49.2157 749.577 Q48.7873 748.563 47.863 747.278 Q46.9162 745.97 45.6312 744.933 Q45.1577 744.572 45.1577 744.324 Q45.1577 744.122 45.3606 743.941 M34.2238 745.993 Q32.9839 745.993 32.1498 746.917 Q31.3156 747.819 31.3156 749.397 Q31.3156 749.893 31.4284 750.502 Q31.5411 751.11 32.0145 752.125 Q32.4879 753.117 33.277 753.996 Q34.0435 754.875 35.5539 755.754 Q37.0418 756.634 39.0257 757.152 L39.0257 755.258 Q39.0257 754.605 39.0257 754.131 Q39.0032 753.658 38.913 752.621 Q38.8228 751.561 38.665 750.795 Q38.4847 750.028 38.124 749.059 Q37.7633 748.089 37.2898 747.481 Q36.7939 746.849 36.0048 746.421 Q35.2158 745.993 34.2238 745.993 Z" fill="#000000" fill-rule="nonzero" fill-opacity="1" /><path clip-path="url(#clip500)" d="M869.572 59.3701 Q878.12 67.0263 888.49 67.0263 Q899.184 67.0263 904.005 61.274 Q908.825 55.5217 909.717 45.84 L877.39 45.84 L877.39 38.9535 L909.717 38.9535 Q908.825 29.2718 904.005 23.5195 Q899.184 17.7268 888.49 17.7268 Q878.12 17.7268 869.572 25.383 L869.572 16.7545 Q877.998 11.0023 888.976 11.0023 Q902.547 11.0023 910.446 19.4281 Q918.345 27.8135 918.345 42.3563 Q918.345 56.9395 910.446 65.3654 Q902.547 73.7508 888.976 73.7508 Q878.16 73.7508 869.572 67.9175 L869.572 59.3701 Z" fill="#000000" fill-rule="nonzero" fill-opacity="1" /><path clip-path="url(#clip500)" d="M935.278 49.9314 Q935.278 59.4511 938.195 63.502 Q941.152 67.5124 946.134 67.5124 Q950.104 67.5124 954.722 60.7069 L954.722 39.156 Q950.104 32.3505 946.134 32.3505 Q941.152 32.3505 938.195 36.4014 Q935.278 40.4118 935.278 49.9314 M954.722 89.8329 L954.722 66.7832 Q952.413 70.5911 949.74 72.1709 Q947.107 73.7508 943.744 73.7508 Q936.979 73.7508 932.24 67.5124 Q927.541 61.2335 927.541 50.0935 Q927.541 38.9535 932.24 32.5531 Q936.979 26.1121 943.744 26.1121 Q947.107 26.1121 949.74 27.6515 Q952.413 29.1908 954.722 32.9987 L954.722 12.096 L962.216 12.096 L962.216 32.9987 Q964.525 29.1908 967.158 27.6515 Q969.832 26.1121 973.194 26.1121 Q979.959 26.1121 984.658 32.5531 Q989.398 38.9535 989.398 50.0935 Q989.398 61.2335 984.658 67.5124 Q979.959 73.7508 973.194 73.7508 Q969.832 73.7508 967.158 72.1709 Q964.525 70.5911 962.216 66.7832 L962.216 89.8329 L954.722 89.8329 M981.661 49.9314 Q981.661 40.4118 978.704 36.4014 Q975.787 32.3505 970.804 32.3505 Q966.834 32.3505 962.216 39.156 L962.216 60.7069 Q966.834 67.5124 970.804 67.5124 Q975.787 67.5124 978.704 63.502 Q981.661 59.4511 981.661 49.9314 Z" fill="#000000" fill-rule="nonzero" fill-opacity="1" /><path clip-path="url(#clip500)" d="M1006.21 49.9314 Q1006.21 59.4511 1009.13 63.502 Q1012.08 67.5124 1017.07 67.5124 Q1021.04 67.5124 1025.65 60.7069 L1025.65 39.156 Q1021.04 32.3505 1017.07 32.3505 Q1012.08 32.3505 1009.13 36.4014 Q1006.21 40.4118 1006.21 49.9314 M1025.65 89.8329 L1025.65 66.7832 Q1023.34 70.5911 1020.67 72.1709 Q1018.04 73.7508 1014.68 73.7508 Q1007.91 73.7508 1003.17 67.5124 Q998.472 61.2335 998.472 50.0935 Q998.472 38.9535 1003.17 32.5531 Q1007.91 26.1121 1014.68 26.1121 Q1018.04 26.1121 1020.67 27.6515 Q1023.34 29.1908 1025.65 32.9987 L1025.65 12.096 L1033.15 12.096 L1033.15 32.9987 Q1035.46 29.1908 1038.09 27.6515 Q1040.76 26.1121 1044.13 26.1121 Q1050.89 26.1121 1055.59 32.5531 Q1060.33 38.9535 1060.33 50.0935 Q1060.33 61.2335 1055.59 67.5124 Q1050.89 73.7508 1044.13 73.7508 Q1040.76 73.7508 1038.09 72.1709 Q1035.46 70.5911 1033.15 66.7832 L1033.15 89.8329 L1025.65 89.8329 M1052.59 49.9314 Q1052.59 40.4118 1049.63 36.4014 Q1046.72 32.3505 1041.74 32.3505 Q1037.77 32.3505 1033.15 39.156 L1033.15 60.7069 Q1037.77 67.5124 1041.74 67.5124 Q1046.72 67.5124 1049.63 63.502 Q1052.59 59.4511 1052.59 49.9314 Z" fill="#000000" fill-rule="nonzero" fill-opacity="1" /><path clip-path="url(#clip500)" d="M1111.49 48.0275 L1111.49 51.6733 L1077.22 51.6733 Q1077.71 59.3701 1081.84 63.421 Q1086.01 67.4314 1093.43 67.4314 Q1097.72 67.4314 1101.73 66.3781 Q1105.78 65.3249 1109.75 63.2184 L1109.75 70.267 Q1105.74 71.9684 1101.53 72.8596 Q1097.31 73.7508 1092.98 73.7508 Q1082.12 73.7508 1075.76 67.4314 Q1069.44 61.1119 1069.44 50.3365 Q1069.44 39.1965 1075.44 32.6746 Q1081.48 26.1121 1091.68 26.1121 Q1100.84 26.1121 1106.15 32.0264 Q1111.49 37.9003 1111.49 48.0275 M1104.04 45.84 Q1103.96 39.7232 1100.6 36.0774 Q1097.27 32.4315 1091.76 32.4315 Q1085.53 32.4315 1081.76 35.9558 Q1078.03 39.4801 1077.46 45.8805 L1104.04 45.84 Z" fill="#000000" fill-rule="nonzero" fill-opacity="1" /><path clip-path="url(#clip500)" d="M1123.44 27.2059 L1130.86 27.2059 L1130.86 48.5136 L1151.88 27.2059 L1161.03 27.2059 L1143.7 44.7463 L1163.26 72.576 L1154.92 72.576 L1138.84 49.6884 L1130.86 57.7902 L1130.86 72.576 L1123.44 72.576 L1123.44 27.2059 Z" fill="#000000" fill-rule="nonzero" fill-opacity="1" /><path clip-path="url(#clip500)" d="M1168.45 27.2059 L1211.91 27.2059 L1211.91 33.1607 L1193.85 33.1607 L1193.85 72.576 L1186.51 72.576 L1186.51 33.1607 L1168.45 33.1607 L1168.45 27.2059 Z" fill="#000000" fill-rule="nonzero" fill-opacity="1" /><path clip-path="url(#clip500)" d="M1260.73 27.2059 L1260.73 72.576 L1253.31 72.576 L1253.31 36.1584 L1231.44 72.576 L1221.88 72.576 L1221.88 27.2059 L1229.29 27.2059 L1229.29 63.5425 L1251.13 27.2059 L1260.73 27.2059 Z" fill="#000000" fill-rule="nonzero" fill-opacity="1" /><path clip-path="url(#clip500)" d="M1283.25 51.6733 L1283.25 66.6212 L1293.86 66.6212 Q1298.97 66.6212 1301.64 64.7172 Q1304.32 62.7728 1304.32 59.127 Q1304.32 55.4812 1301.64 53.5773 Q1298.97 51.6733 1293.86 51.6733 L1283.25 51.6733 M1283.25 33.1607 L1283.25 45.7185 L1293.05 45.7185 Q1297.27 45.7185 1299.94 44.0576 Q1302.61 42.3563 1302.61 39.3586 Q1302.61 36.3609 1299.94 34.7811 Q1297.27 33.1607 1293.05 33.1607 L1283.25 33.1607 M1275.8 27.2059 L1293.54 27.2059 Q1301.52 27.2059 1305.81 30.1225 Q1310.11 33.0392 1310.11 38.4269 Q1310.11 42.5993 1307.92 45.0704 Q1305.73 47.5009 1301.44 48.1085 Q1306.58 49.0808 1309.42 52.1594 Q1312.26 55.2381 1312.26 59.8562 Q1312.26 65.9325 1307.56 69.2543 Q1302.9 72.576 1294.23 72.576 L1275.8 72.576 L1275.8 27.2059 Z" fill="#000000" fill-rule="nonzero" fill-opacity="1" /><path clip-path="url(#clip500)" d="M1324.69 27.2059 L1332.19 27.2059 L1332.19 45.7185 L1356.37 45.7185 L1356.37 27.2059 L1363.86 27.2059 L1363.86 72.576 L1356.37 72.576 L1356.37 51.6733 L1332.19 51.6733 L1332.19 72.576 L1324.69 72.576 L1324.69 27.2059 Z" fill="#000000" fill-rule="nonzero" fill-opacity="1" /><path clip-path="url(#clip500)" d="M1396.8 32.4315 Q1390.8 32.4315 1387.32 37.1306 Q1383.83 41.7891 1383.83 49.9314 Q1383.83 58.0738 1387.28 62.7728 Q1390.76 67.4314 1396.8 67.4314 Q1402.75 67.4314 1406.24 62.7323 Q1409.72 58.0333 1409.72 49.9314 Q1409.72 41.8701 1406.24 37.1711 Q1402.75 32.4315 1396.8 32.4315 M1396.8 26.1121 Q1406.52 26.1121 1412.07 32.4315 Q1417.62 38.7509 1417.62 49.9314 Q1417.62 61.0714 1412.07 67.4314 Q1406.52 73.7508 1396.8 73.7508 Q1387.03 73.7508 1381.48 67.4314 Q1375.98 61.0714 1375.98 49.9314 Q1375.98 38.7509 1381.48 32.4315 Q1387.03 26.1121 1396.8 26.1121 Z" fill="#000000" fill-rule="nonzero" fill-opacity="1" /><path clip-path="url(#clip500)" d="M1468.78 48.0275 L1468.78 51.6733 L1434.51 51.6733 Q1435 59.3701 1439.13 63.421 Q1443.3 67.4314 1450.71 67.4314 Q1455.01 67.4314 1459.02 66.3781 Q1463.07 65.3249 1467.04 63.2184 L1467.04 70.267 Q1463.03 71.9684 1458.82 72.8596 Q1454.6 73.7508 1450.27 73.7508 Q1439.41 73.7508 1433.05 67.4314 Q1426.73 61.1119 1426.73 50.3365 Q1426.73 39.1965 1432.73 32.6746 Q1438.76 26.1121 1448.97 26.1121 Q1458.13 26.1121 1463.43 32.0264 Q1468.78 37.9003 1468.78 48.0275 M1461.33 45.84 Q1461.25 39.7232 1457.89 36.0774 Q1454.56 32.4315 1449.05 32.4315 Q1442.82 32.4315 1439.05 35.9558 Q1435.32 39.4801 1434.75 45.8805 L1461.33 45.84 Z" fill="#000000" fill-rule="nonzero" fill-opacity="1" /><path clip-path="url(#clip500)" d="M1514.6 65.7705 L1514.6 89.8329 L1507.1 89.8329 L1507.1 27.2059 L1514.6 27.2059 L1514.6 34.0924 Q1516.95 30.0415 1520.51 28.0971 Q1524.12 26.1121 1529.1 26.1121 Q1537.36 26.1121 1542.51 32.6746 Q1547.69 39.2371 1547.69 49.9314 Q1547.69 60.6258 1542.51 67.1883 Q1537.36 73.7508 1529.1 73.7508 Q1524.12 73.7508 1520.51 71.8063 Q1516.95 69.8214 1514.6 65.7705 M1539.96 49.9314 Q1539.96 41.7081 1536.55 37.0496 Q1533.19 32.3505 1527.28 32.3505 Q1521.36 32.3505 1517.96 37.0496 Q1514.6 41.7081 1514.6 49.9314 Q1514.6 58.1548 1517.96 62.8538 Q1521.36 67.5124 1527.28 67.5124 Q1533.19 67.5124 1536.55 62.8538 Q1539.96 58.1548 1539.96 49.9314 Z" fill="#000000" fill-rule="nonzero" fill-opacity="1" /><path clip-path="url(#clip500)" d="M1598.86 48.0275 L1598.86 51.6733 L1564.59 51.6733 Q1565.07 59.3701 1569.2 63.421 Q1573.38 67.4314 1580.79 67.4314 Q1585.08 67.4314 1589.09 66.3781 Q1593.14 65.3249 1597.11 63.2184 L1597.11 70.267 Q1593.1 71.9684 1588.89 72.8596 Q1584.68 73.7508 1580.34 73.7508 Q1569.49 73.7508 1563.13 67.4314 Q1556.81 61.1119 1556.81 50.3365 Q1556.81 39.1965 1562.8 32.6746 Q1568.84 26.1121 1579.05 26.1121 Q1588.2 26.1121 1593.51 32.0264 Q1598.86 37.9003 1598.86 48.0275 M1591.4 45.84 Q1591.32 39.7232 1587.96 36.0774 Q1584.64 32.4315 1579.13 32.4315 Q1572.89 32.4315 1569.12 35.9558 Q1565.4 39.4801 1564.83 45.8805 L1591.4 45.84 Z" fill="#000000" fill-rule="nonzero" fill-opacity="1" /><path clip-path="url(#clip500)" d="M1649.98 27.2059 L1649.98 72.576 L1642.48 72.576 L1642.48 33.1607 L1618.3 33.1607 L1618.3 72.576 L1610.81 72.576 L1610.81 27.2059 L1649.98 27.2059 Z" fill="#000000" fill-rule="nonzero" fill-opacity="1" /><path clip-path="url(#clip500)" d="M1672.54 65.7705 L1672.54 89.8329 L1665.05 89.8329 L1665.05 27.2059 L1672.54 27.2059 L1672.54 34.0924 Q1674.89 30.0415 1678.46 28.0971 Q1682.06 26.1121 1687.04 26.1121 Q1695.31 26.1121 1700.45 32.6746 Q1705.64 39.2371 1705.64 49.9314 Q1705.64 60.6258 1700.45 67.1883 Q1695.31 73.7508 1687.04 73.7508 Q1682.06 73.7508 1678.46 71.8063 Q1674.89 69.8214 1672.54 65.7705 M1697.9 49.9314 Q1697.9 41.7081 1694.5 37.0496 Q1691.14 32.3505 1685.22 32.3505 Q1679.31 32.3505 1675.9 37.0496 Q1672.54 41.7081 1672.54 49.9314 Q1672.54 58.1548 1675.9 62.8538 Q1679.31 67.5124 1685.22 67.5124 Q1691.14 67.5124 1694.5 62.8538 Q1697.9 58.1548 1697.9 49.9314 Z" fill="#000000" fill-rule="nonzero" fill-opacity="1" /><path clip-path="url(#clip500)" d="M1735.57 32.4315 Q1729.58 32.4315 1726.1 37.1306 Q1722.61 41.7891 1722.61 49.9314 Q1722.61 58.0738 1726.05 62.7728 Q1729.54 67.4314 1735.57 67.4314 Q1741.53 67.4314 1745.01 62.7323 Q1748.5 58.0333 1748.5 49.9314 Q1748.5 41.8701 1745.01 37.1711 Q1741.53 32.4315 1735.57 32.4315 M1735.57 26.1121 Q1745.3 26.1121 1750.85 32.4315 Q1756.4 38.7509 1756.4 49.9314 Q1756.4 61.0714 1750.85 67.4314 Q1745.3 73.7508 1735.57 73.7508 Q1725.81 73.7508 1720.26 67.4314 Q1714.75 61.0714 1714.75 49.9314 Q1714.75 38.7509 1720.26 32.4315 Q1725.81 26.1121 1735.57 26.1121 Z" fill="#000000" fill-rule="nonzero" fill-opacity="1" /><path clip-path="url(#clip500)" d="M1778.88 66.6212 L1800.51 66.6212 L1800.51 33.1607 L1784.83 33.1607 L1784.83 38.832 Q1784.83 55.5217 1780.05 64.4337 L1778.88 66.6212 M1768.06 66.6212 Q1771.75 65.0008 1773.37 61.5575 Q1777.34 53.0101 1777.34 35.7938 L1777.34 27.2059 L1808 27.2059 L1808 66.6212 L1813.96 66.6212 L1813.96 84.0401 L1808 84.0401 L1808 72.576 L1771.22 72.576 L1771.22 84.0401 L1765.27 84.0401 L1765.27 66.6212 L1768.06 66.6212 Z" fill="#000000" fill-rule="nonzero" fill-opacity="1" /><path clip-path="url(#clip500)" d="M1844.99 76.7889 Q1841.83 84.8907 1838.83 87.3618 Q1835.83 89.8329 1830.81 89.8329 L1824.86 89.8329 L1824.86 83.5945 L1829.23 83.5945 Q1832.31 83.5945 1834.01 82.1361 Q1835.71 80.6778 1837.78 75.2496 L1839.12 71.8468 L1820.77 27.2059 L1828.66 27.2059 L1842.84 62.6918 L1857.02 27.2059 L1864.92 27.2059 L1844.99 76.7889 Z" fill="#000000" fill-rule="nonzero" fill-opacity="1" /><path clip-path="url(#clip500)" d="M1874.93 27.2059 L1882.34 27.2059 L1882.34 48.5136 L1903.36 27.2059 L1912.52 27.2059 L1895.18 44.7463 L1914.75 72.576 L1906.4 72.576 L1890.32 49.6884 L1882.34 57.7902 L1882.34 72.576 L1874.93 72.576 L1874.93 27.2059 Z" fill="#000000" fill-rule="nonzero" fill-opacity="1" /><path clip-path="url(#clip500)" d="M1919.93 27.2059 L1963.4 27.2059 L1963.4 33.1607 L1945.33 33.1607 L1945.33 72.576 L1938 72.576 L1938 33.1607 L1919.93 33.1607 L1919.93 27.2059 Z" fill="#000000" fill-rule="nonzero" fill-opacity="1" /><path clip-path="url(#clip500)" d="M2012.21 27.2059 L2012.21 72.576 L2004.8 72.576 L2004.8 36.1584 L1982.92 72.576 L1973.36 72.576 L1973.36 27.2059 L1980.78 27.2059 L1980.78 63.5425 L2002.61 27.2059 L2012.21 27.2059 Z" fill="#000000" fill-rule="nonzero" fill-opacity="1" /><path clip-path="url(#clip500)" d="M2034.73 51.6733 L2034.73 66.6212 L2045.35 66.6212 Q2050.45 66.6212 2053.12 64.7172 Q2055.8 62.7728 2055.8 59.127 Q2055.8 55.4812 2053.12 53.5773 Q2050.45 51.6733 2045.35 51.6733 L2034.73 51.6733 M2034.73 33.1607 L2034.73 45.7185 L2044.54 45.7185 Q2048.75 45.7185 2051.42 44.0576 Q2054.1 42.3563 2054.1 39.3586 Q2054.1 36.3609 2051.42 34.7811 Q2048.75 33.1607 2044.54 33.1607 L2034.73 33.1607 M2027.28 27.2059 L2045.02 27.2059 Q2053 27.2059 2057.3 30.1225 Q2061.59 33.0392 2061.59 38.4269 Q2061.59 42.5993 2059.4 45.0704 Q2057.22 47.5009 2052.92 48.1085 Q2058.07 49.0808 2060.9 52.1594 Q2063.74 55.2381 2063.74 59.8562 Q2063.74 65.9325 2059.04 69.2543 Q2054.38 72.576 2045.71 72.576 L2027.28 72.576 L2027.28 27.2059 Z" fill="#000000" fill-rule="nonzero" fill-opacity="1" /><path clip-path="url(#clip500)" d="M2076.17 27.2059 L2083.67 27.2059 L2083.67 45.7185 L2107.85 45.7185 L2107.85 27.2059 L2115.35 27.2059 L2115.35 72.576 L2107.85 72.576 L2107.85 51.6733 L2083.67 51.6733 L2083.67 72.576 L2076.17 72.576 L2076.17 27.2059 Z" fill="#000000" fill-rule="nonzero" fill-opacity="1" /><path clip-path="url(#clip500)" d="M2148.28 32.4315 Q2142.29 32.4315 2138.8 37.1306 Q2135.32 41.7891 2135.32 49.9314 Q2135.32 58.0738 2138.76 62.7728 Q2142.24 67.4314 2148.28 67.4314 Q2154.24 67.4314 2157.72 62.7323 Q2161.2 58.0333 2161.2 49.9314 Q2161.2 41.8701 2157.72 37.1711 Q2154.24 32.4315 2148.28 32.4315 M2148.28 26.1121 Q2158 26.1121 2163.55 32.4315 Q2169.1 38.7509 2169.1 49.9314 Q2169.1 61.0714 2163.55 67.4314 Q2158 73.7508 2148.28 73.7508 Q2138.52 73.7508 2132.97 67.4314 Q2127.46 61.0714 2127.46 49.9314 Q2127.46 38.7509 2132.97 32.4315 Q2138.52 26.1121 2148.28 26.1121 Z" fill="#000000" fill-rule="nonzero" fill-opacity="1" /><path clip-path="url(#clip500)" d="M2220.27 48.0275 L2220.27 51.6733 L2185.99 51.6733 Q2186.48 59.3701 2190.61 63.421 Q2194.79 67.4314 2202.2 67.4314 Q2206.49 67.4314 2210.5 66.3781 Q2214.55 65.3249 2218.52 63.2184 L2218.52 70.267 Q2214.51 71.9684 2210.3 72.8596 Q2206.09 73.7508 2201.75 73.7508 Q2190.9 73.7508 2184.54 67.4314 Q2178.22 61.1119 2178.22 50.3365 Q2178.22 39.1965 2184.21 32.6746 Q2190.25 26.1121 2200.46 26.1121 Q2209.61 26.1121 2214.92 32.0264 Q2220.27 37.9003 2220.27 48.0275 M2212.81 45.84 Q2212.73 39.7232 2209.37 36.0774 Q2206.05 32.4315 2200.54 32.4315 Q2194.3 32.4315 2190.53 35.9558 Q2186.8 39.4801 2186.24 45.8805 L2212.81 45.84 Z" fill="#000000" fill-rule="nonzero" fill-opacity="1" /><path clip-path="url(#clip500)" d="M2285.08 72.576 L2285.08 53.4962 L2271.19 53.4962 Q2264.99 53.4962 2260.86 49.6479 Q2257.13 46.1641 2257.13 38.7104 L2257.13 27.2059 L2264.58 27.2059 L2264.58 38.0218 Q2264.58 42.7613 2266.69 45.1514 Q2268.84 47.5414 2273.05 47.5414 L2285.08 47.5414 L2285.08 27.2059 L2292.53 27.2059 L2292.53 72.576 L2285.08 72.576 Z" fill="#000000" fill-rule="nonzero" fill-opacity="1" /><path clip-path="url(#clip500)" d="M2346.45 27.2059 L2346.45 72.576 L2339.04 72.576 L2339.04 36.1584 L2317.16 72.576 L2307.6 72.576 L2307.6 27.2059 L2315.02 27.2059 L2315.02 63.5425 L2336.85 27.2059 L2346.45 27.2059 Z" fill="#000000" fill-rule="nonzero" fill-opacity="1" /><path clip-path="url(#clip500)" d="M2394.45 28.9478 L2394.45 35.9153 Q2391.29 34.1734 2388.09 33.3227 Q2384.93 32.4315 2381.69 32.4315 Q2374.44 32.4315 2370.43 37.0496 Q2366.42 41.6271 2366.42 49.9314 Q2366.42 58.2358 2370.43 62.8538 Q2374.44 67.4314 2381.69 67.4314 Q2384.93 67.4314 2388.09 66.5807 Q2391.29 65.6895 2394.45 63.9476 L2394.45 70.8341 Q2391.33 72.2924 2387.97 73.0216 Q2384.65 73.7508 2380.88 73.7508 Q2370.63 73.7508 2364.6 67.3098 Q2358.56 60.8689 2358.56 49.9314 Q2358.56 38.832 2364.64 32.472 Q2370.76 26.1121 2381.37 26.1121 Q2384.81 26.1121 2388.09 26.8413 Q2391.38 27.5299 2394.45 28.9478 Z" fill="#000000" fill-rule="nonzero" fill-opacity="1" /><path clip-path="url(#clip500)" d="M2402.68 72.576 L2402.68 66.3781 Q2410.05 65.2439 2412.32 60.1397 Q2415.07 52.9696 2415.07 34.619 L2415.07 27.2059 L2445.74 27.2059 L2445.74 72.576 L2438.28 72.576 L2438.28 33.1607 L2422.53 33.1607 L2422.53 37.6572 Q2422.53 55.1571 2418.96 63.0159 Q2415.15 71.4012 2402.68 72.576 Z" fill="#000000" fill-rule="nonzero" fill-opacity="1" /><path clip-path="url(#clip500)" d="M2478.02 32.4315 Q2472.03 32.4315 2468.55 37.1306 Q2465.06 41.7891 2465.06 49.9314 Q2465.06 58.0738 2468.5 62.7728 Q2471.99 67.4314 2478.02 67.4314 Q2483.98 67.4314 2487.46 62.7323 Q2490.95 58.0333 2490.95 49.9314 Q2490.95 41.8701 2487.46 37.1711 Q2483.98 32.4315 2478.02 32.4315 M2478.02 26.1121 Q2487.75 26.1121 2493.3 32.4315 Q2498.85 38.7509 2498.85 49.9314 Q2498.85 61.0714 2493.3 67.4314 Q2487.75 73.7508 2478.02 73.7508 Q2468.26 73.7508 2462.71 67.4314 Q2457.2 61.0714 2457.2 49.9314 Q2457.2 38.7509 2462.71 32.4315 Q2468.26 26.1121 2478.02 26.1121 Z" fill="#000000" fill-rule="nonzero" fill-opacity="1" /><polyline clip-path="url(#clip502)" style="stroke:#008000; stroke-linecap:round; stroke-linejoin:round; stroke-width:8; stroke-opacity:1; fill:none" points="298.787,146.145 305.715,146.954 335.718,150.69 395.206,159.336 479.6,174.986 588.422,202.677 726.891,254.219 899.018,351.75 1108.67,526.738 1357.21,783.808 1620.68,1031.01 1921.35,1216.89 2268.13,1327.32 2605.43,1377.26 3069.63,1405.91 "/>
<polyline clip-path="url(#clip502)" style="stroke:#ff0000; stroke-linecap:round; stroke-linejoin:round; stroke-width:6; stroke-opacity:1; fill:none" stroke-dasharray="24, 15" points="-2721.43,937.373 6089.85,937.373 "/>
<path clip-path="url(#clip500)" d="M2617.44 308.384 L3054.85 308.384 L3054.85 152.864 L2617.44 152.864  Z" fill="#ffffff" fill-rule="evenodd" fill-opacity="1"/>
<polyline clip-path="url(#clip500)" style="stroke:#000000; stroke-linecap:round; stroke-linejoin:round; stroke-width:4; stroke-opacity:1; fill:none" points="2617.44,308.384 3054.85,308.384 3054.85,152.864 2617.44,152.864 2617.44,308.384 "/>
<polyline clip-path="url(#clip500)" style="stroke:#008000; stroke-linecap:round; stroke-linejoin:round; stroke-width:8; stroke-opacity:1; fill:none" points="2650.07,204.704 2845.88,204.704 "/>
<path clip-path="url(#clip500)" d="M2907.54 190.041 Q2907.54 189.268 2907.33 188.636 Q2907.14 187.98 2906.83 187.535 Q2906.55 187.066 2906.01 186.715 Q2905.47 186.34 2905.03 186.106 Q2904.58 185.872 2903.84 185.731 Q2903.09 185.567 2902.59 185.497 Q2902.1 185.403 2901.26 185.357 Q2900.42 185.31 2899.99 185.31 Q2899.6 185.31 2898.8 185.31 Q2896.29 185.31 2895.87 185.357 Q2895.24 185.45 2895 185.825 Q2894.77 186.176 2894.54 187.137 L2891.42 199.644 L2896.78 199.644 Q2899.71 199.644 2901.73 198.825 Q2903.74 198.005 2904.89 196.857 Q2906.15 195.592 2906.83 193.554 Q2907.54 191.517 2907.54 190.041 M2912.76 212.128 Q2912.76 212.386 2912.55 212.972 Q2912.36 213.557 2911.89 214.377 Q2911.42 215.173 2910.79 215.899 Q2910.16 216.626 2909.15 217.117 Q2908.14 217.633 2907 217.633 Q2906.72 217.633 2906.44 217.609 Q2906.15 217.609 2905.45 217.492 Q2904.77 217.399 2904.21 217.211 Q2903.65 217.047 2902.95 216.649 Q2902.24 216.274 2901.75 215.759 Q2901.28 215.22 2900.95 214.377 Q2900.63 213.51 2900.63 212.456 Q2900.63 211.519 2901.4 208.381 Q2902.08 205.711 2902.08 205.055 Q2902.08 204.329 2901.84 203.65 Q2901.63 202.97 2901.09 202.268 Q2900.58 201.565 2899.48 201.143 Q2898.38 200.698 2896.83 200.698 L2891.14 200.698 L2887.95 213.417 Q2887.95 213.44 2887.88 213.768 Q2887.81 214.073 2887.81 214.236 Q2887.81 214.541 2888 214.728 Q2888.21 214.916 2888.73 215.009 Q2889.24 215.08 2889.64 215.103 Q2890.06 215.103 2890.93 215.103 Q2892.01 215.103 2892.19 215.29 Q2892.29 215.408 2892.29 215.618 Q2892.29 215.946 2892.19 216.181 Q2892.12 216.391 2891.94 216.462 Q2891.77 216.532 2891.66 216.555 Q2891.54 216.579 2891.33 216.579 L2885.24 216.438 L2879.19 216.579 Q2878.52 216.579 2878.52 216.04 Q2878.52 215.572 2878.68 215.384 Q2878.84 215.173 2879.05 215.15 Q2879.26 215.103 2879.8 215.103 Q2880.97 215.103 2881.68 215.033 Q2882.38 214.963 2882.83 214.869 Q2883.29 214.752 2883.53 214.424 Q2883.79 214.096 2883.9 213.815 Q2884.02 213.51 2884.18 212.831 L2890.6 187.066 Q2890.79 186.293 2890.79 186.176 Q2890.79 185.731 2890.51 185.614 Q2890.25 185.474 2889.5 185.403 L2887.67 185.31 Q2887.11 185.31 2886.88 185.286 Q2886.67 185.263 2886.5 185.146 Q2886.34 185.029 2886.34 184.771 Q2886.34 184.115 2886.62 183.975 Q2886.9 183.811 2887.72 183.811 L2901.4 183.811 Q2906.06 183.811 2909.01 185.848 Q2911.99 187.886 2911.99 191.001 Q2911.99 192.407 2911.35 193.718 Q2910.72 195.03 2909.67 196.061 Q2908.64 197.091 2907.25 197.958 Q2905.87 198.801 2904.4 199.387 Q2902.95 199.949 2901.45 200.277 Q2902.1 200.511 2902.71 200.862 Q2903.34 201.214 2904.14 201.869 Q2904.96 202.525 2905.45 203.579 Q2905.94 204.633 2905.94 205.922 Q2905.94 206.835 2905.76 208.193 Q2905.29 212.058 2905.29 213.651 Q2905.29 215.173 2905.69 215.876 Q2906.08 216.579 2907.21 216.579 Q2908.31 216.579 2909.53 215.595 Q2910.77 214.588 2911.56 212.222 Q2911.75 211.543 2912.2 211.543 Q2912.22 211.543 2912.24 211.543 Q2912.29 211.543 2912.38 211.59 Q2912.48 211.613 2912.55 211.683 Q2912.64 211.73 2912.69 211.847 Q2912.76 211.964 2912.76 212.128 Z" fill="#000000" fill-rule="nonzero" fill-opacity="1" /><path clip-path="url(#clip500)" d="M2930.3 222.555 Q2930.43 222.702 2930.43 222.85 Q2930.43 222.997 2930.11 223.424 Q2929.8 223.85 2929.12 224.424 Q2928.45 224.998 2927.58 225.539 Q2926.71 226.08 2925.43 226.44 Q2924.16 226.817 2922.81 226.817 Q2920.4 226.817 2918.96 225.096 Q2917.53 223.374 2917.53 220.735 Q2917.53 219.046 2918.09 217.554 Q2918.65 216.046 2919.55 214.98 Q2920.47 213.914 2921.61 213.143 Q2922.78 212.356 2923.99 211.979 Q2925.2 211.602 2926.34 211.602 Q2927.99 211.602 2928.96 212.438 Q2929.93 213.275 2929.93 214.455 Q2929.93 214.734 2929.84 215.078 Q2929.78 215.422 2929.55 215.964 Q2929.34 216.505 2928.78 217.046 Q2928.22 217.57 2927.4 217.915 Q2925.58 218.685 2922.27 218.685 L2920.48 218.685 Q2919.96 220.8 2919.96 222.177 Q2919.96 222.719 2920.06 223.276 Q2920.15 223.817 2920.42 224.506 Q2920.7 225.194 2921.32 225.637 Q2921.96 226.063 2922.88 226.063 Q2923.17 226.063 2923.48 226.047 Q2923.81 226.03 2924.63 225.85 Q2925.47 225.67 2926.2 225.358 Q2926.94 225.047 2927.88 224.375 Q2928.83 223.686 2929.58 222.751 Q2929.84 222.407 2930.02 222.407 Q2930.17 222.407 2930.3 222.555 M2928.81 214.455 Q2928.81 213.553 2928.14 212.947 Q2927.48 212.34 2926.34 212.34 Q2925.98 212.34 2925.53 212.422 Q2925.09 212.504 2924.35 212.848 Q2923.63 213.193 2922.99 213.766 Q2922.35 214.324 2921.71 215.422 Q2921.07 216.505 2920.7 217.947 L2922.07 217.947 Q2922.55 217.947 2922.89 217.947 Q2923.24 217.931 2923.99 217.865 Q2924.76 217.8 2925.32 217.685 Q2925.88 217.554 2926.58 217.292 Q2927.29 217.029 2927.73 216.685 Q2928.19 216.324 2928.5 215.75 Q2928.81 215.177 2928.81 214.455 Z" fill="#000000" fill-rule="nonzero" fill-opacity="1" /><path clip-path="url(#clip500)" d="M2935.43 204.586 Q2935.43 196.482 2938.45 189.947 Q2939.74 187.207 2941.54 184.912 Q2943.34 182.616 2944.54 181.609 Q2945.73 180.602 2946.06 180.602 Q2946.53 180.602 2946.55 181.07 Q2946.55 181.305 2945.92 181.89 Q2938.19 189.76 2938.21 204.586 Q2938.21 219.46 2945.73 227.025 Q2946.55 227.845 2946.55 228.103 Q2946.55 228.571 2946.06 228.571 Q2945.73 228.571 2944.58 227.611 Q2943.44 226.65 2941.66 224.449 Q2939.88 222.247 2938.59 219.553 Q2935.43 213.019 2935.43 204.586 Z" fill="#000000" fill-rule="nonzero" fill-opacity="1" /><path clip-path="url(#clip500)" d="M2964.93 196.435 Q2964.93 197.091 2964.62 197.255 Q2964.32 197.396 2963.47 197.396 L2958.98 197.396 L2955.42 211.543 Q2955.14 212.784 2955.14 213.838 Q2955.14 215.009 2955.49 215.525 Q2955.86 216.04 2956.64 216.04 Q2958.16 216.04 2959.8 214.658 Q2961.46 213.276 2962.87 209.903 Q2963.05 209.458 2963.15 209.365 Q2963.26 209.247 2963.57 209.247 Q2964.15 209.247 2964.15 209.716 Q2964.15 209.88 2963.83 210.629 Q2963.52 211.379 2962.84 212.48 Q2962.19 213.581 2961.32 214.611 Q2960.48 215.642 2959.19 216.391 Q2957.9 217.117 2956.52 217.117 Q2954.57 217.117 2953.33 215.876 Q2952.11 214.635 2952.11 212.691 Q2952.11 212.058 2952.61 210.044 Q2953.1 208.006 2955.77 197.396 L2951.53 197.396 Q2950.94 197.396 2950.71 197.372 Q2950.5 197.349 2950.33 197.232 Q2950.19 197.091 2950.19 196.81 Q2950.19 196.365 2950.38 196.178 Q2950.57 195.967 2950.8 195.944 Q2951.06 195.897 2951.65 195.897 L2956.14 195.897 L2958.02 188.284 Q2958.2 187.535 2958.67 187.113 Q2959.16 186.668 2959.45 186.621 Q2959.73 186.551 2959.94 186.551 Q2960.57 186.551 2960.94 186.902 Q2961.32 187.23 2961.32 187.839 Q2961.32 188.167 2959.35 195.897 L2963.57 195.897 Q2964.11 195.897 2964.32 195.92 Q2964.55 195.944 2964.74 196.061 Q2964.93 196.178 2964.93 196.435 Z" fill="#000000" fill-rule="nonzero" fill-opacity="1" /><path clip-path="url(#clip500)" d="M2968.68 228.103 Q2968.68 227.868 2969.29 227.283 Q2977.02 219.413 2977.02 204.586 Q2977.02 189.713 2969.59 182.195 Q2968.68 181.328 2968.68 181.07 Q2968.68 180.602 2969.15 180.602 Q2969.47 180.602 2970.62 181.562 Q2971.79 182.522 2973.55 184.724 Q2975.33 186.926 2976.64 189.619 Q2979.8 196.154 2979.8 204.586 Q2979.8 212.691 2976.78 219.225 Q2975.49 221.966 2973.69 224.261 Q2971.89 226.557 2970.69 227.564 Q2969.5 228.571 2969.15 228.571 Q2968.68 228.571 2968.68 228.103 Z" fill="#000000" fill-rule="nonzero" fill-opacity="1" /><polyline clip-path="url(#clip500)" style="stroke:#ff0000; stroke-linecap:round; stroke-linejoin:round; stroke-width:6; stroke-opacity:1; fill:none" stroke-dasharray="24, 15" points="2650.07,256.544 2845.88,256.544 "/>
<path clip-path="url(#clip500)" d="M2894.9 257.62 Q2896.41 258.129 2897.82 259.796 Q2899.26 261.463 2900.69 264.379 L2905.44 273.824 L2900.41 273.824 L2895.99 264.958 Q2894.28 261.486 2892.66 260.352 Q2891.06 259.217 2888.28 259.217 L2883.19 259.217 L2883.19 273.824 L2878.52 273.824 L2878.52 239.264 L2889.07 239.264 Q2895 239.264 2897.91 241.741 Q2900.83 244.217 2900.83 249.217 Q2900.83 252.481 2899.3 254.634 Q2897.8 256.787 2894.9 257.62 M2883.19 243.106 L2883.19 255.375 L2889.07 255.375 Q2892.45 255.375 2894.16 253.824 Q2895.9 252.25 2895.9 249.217 Q2895.9 246.185 2894.16 244.657 Q2892.45 243.106 2889.07 243.106 L2883.19 243.106 Z" fill="#000000" fill-rule="nonzero" fill-opacity="1" /><path clip-path="url(#clip500)" d="M2923.58 265.977 L2923.58 267.134 L2911.25 267.134 Q2911.43 269.588 2912.91 270.884 Q2914.42 272.18 2917.08 272.18 Q2918.63 272.18 2920.09 271.833 Q2921.52 271.509 2922.96 270.838 L2922.96 273.083 Q2921.52 273.639 2920 273.916 Q2918.49 274.194 2916.92 274.194 Q2913.01 274.194 2910.74 272.18 Q2908.45 270.166 2908.45 266.717 Q2908.45 263.152 2910.62 261.046 Q2912.77 258.963 2916.46 258.963 Q2919.74 258.963 2921.66 260.838 Q2923.58 262.736 2923.58 265.977 M2920.9 265.259 Q2920.88 263.315 2919.67 262.134 Q2918.47 260.977 2916.48 260.977 Q2914.23 260.977 2912.89 262.111 Q2911.55 263.222 2911.34 265.259 L2920.9 265.259 Z" fill="#000000" fill-rule="nonzero" fill-opacity="1" /><path clip-path="url(#clip500)" d="M2946.66 252.296 L2976.34 252.296 L2976.34 256.185 L2946.66 256.185 L2946.66 252.296 M2946.66 261.74 L2976.34 261.74 L2976.34 265.676 L2946.66 265.676 L2946.66 261.74 Z" fill="#000000" fill-rule="nonzero" fill-opacity="1" /><path clip-path="url(#clip500)" d="M3002.31 269.889 L3009.95 269.889 L3009.95 243.523 L3001.64 245.19 L3001.64 240.93 L3009.9 239.264 L3014.58 239.264 L3014.58 269.889 L3022.22 269.889 L3022.22 273.824 L3002.31 273.824 L3002.31 269.889 Z" fill="#000000" fill-rule="nonzero" fill-opacity="1" /></svg>
