<?xml version="1.0" encoding="utf-8"?>
<svg xmlns="http://www.w3.org/2000/svg" xmlns:xlink="http://www.w3.org/1999/xlink" width="800" height="500" viewBox="0 0 3200 2000">
<defs>
  <clipPath id="clip060">
    <rect x="0" y="0" width="3200" height="2000"/>
  </clipPath>
</defs>
<path clip-path="url(#clip060)" d="M0 2000 L3200 2000 L3200 0 L0 0  Z" fill="#ffffff" fill-rule="evenodd" fill-opacity="1"/>
<defs>
  <clipPath id="clip061">
    <rect x="267" y="119" width="2886" height="1706"/>
  </clipPath>
</defs>
<path clip-path="url(#clip060)" d="M267.581 1824.31 L3152.76 1824.31 L3152.76 119.692 L267.581 119.692  Z" fill="#ffffff" fill-rule="evenodd" fill-opacity="1"/>
<polyline clip-path="url(#clip061)" style="stroke:#000000; stroke-linecap:round; stroke-linejoin:round; stroke-width:2; stroke-opacity:0.1; fill:none" points="349.237,1824.31 349.237,119.692 "/>
<polyline clip-path="url(#clip061)" style="stroke:#000000; stroke-linecap:round; stroke-linejoin:round; stroke-width:2; stroke-opacity:0.1; fill:none" points="1029.7,1824.31 1029.7,119.692 "/>
<polyline clip-path="url(#clip061)" style="stroke:#000000; stroke-linecap:round; stroke-linejoin:round; stroke-width:2; stroke-opacity:0.1; fill:none" points="1710.17,1824.31 1710.17,119.692 "/>
<polyline clip-path="url(#clip061)" style="stroke:#000000; stroke-linecap:round; stroke-linejoin:round; stroke-width:2; stroke-opacity:0.1; fill:none" points="2390.63,1824.31 2390.63,119.692 "/>
<polyline clip-path="url(#clip061)" style="stroke:#000000; stroke-linecap:round; stroke-linejoin:round; stroke-width:2; stroke-opacity:0.1; fill:none" points="3071.1,1824.31 3071.1,119.692 "/>
<polyline clip-path="url(#clip061)" style="stroke:#000000; stroke-linecap:round; stroke-linejoin:round; stroke-width:2; stroke-opacity:0.1; fill:none" points="267.581,1776.07 3152.76,1776.07 "/>
<polyline clip-path="url(#clip061)" style="stroke:#000000; stroke-linecap:round; stroke-linejoin:round; stroke-width:2; stroke-opacity:0.1; fill:none" points="267.581,1369.97 3152.76,1369.97 "/>
<polyline clip-path="url(#clip061)" style="stroke:#000000; stroke-linecap:round; stroke-linejoin:round; stroke-width:2; stroke-opacity:0.1; fill:none" points="267.581,963.879 3152.76,963.879 "/>
<polyline clip-path="url(#clip061)" style="stroke:#000000; stroke-linecap:round; stroke-linejoin:round; stroke-width:2; stroke-opacity:0.1; fill:none" points="267.581,557.786 3152.76,557.786 "/>
<polyline clip-path="url(#clip061)" style="stroke:#000000; stroke-linecap:round; stroke-linejoin:round; stroke-width:2; stroke-opacity:0.1; fill:none" points="267.581,151.692 3152.76,151.692 "/>
<polyline clip-path="url(#clip060)" style="stroke:#000000; stroke-linecap:round; stroke-linejoin:round; stroke-width:4; stroke-opacity:1; fill:none" points="267.581,1824.31 3152.76,1824.31 "/>
<polyline clip-path="url(#clip060)" style="stroke:#000000; stroke-linecap:round; stroke-linejoin:round; stroke-width:4; stroke-opacity:1; fill:none" points="349.237,1824.31 349.237,1805.41 "/>
<polyline clip-path="url(#clip060)" style="stroke:#000000; stroke-linecap:round; stroke-linejoin:round; stroke-width:4; stroke-opacity:1; fill:none" points="1029.7,1824.31 1029.7,1805.41 "/>
<polyline clip-path="url(#clip060)" style="stroke:#000000; stroke-linecap:round; stroke-linejoin:round; stroke-width:4; stroke-opacity:1; fill:none" points="1710.17,1824.31 1710.17,1805.41 "/>
<polyline clip-path="url(#clip060)" style="stroke:#000000; stroke-linecap:round; stroke-linejoin:round; stroke-width:4; stroke-opacity:1; fill:none" points="2390.63,1824.31 2390.63,1805.41 "/>
<polyline clip-path="url(#clip060)" style="stroke:#000000; stroke-linecap:round; stroke-linejoin:round; stroke-width:4; stroke-opacity:1; fill:none" points="3071.1,1824.31 3071.1,1805.41 "/>
<path clip-path="url(#clip060)" d="M349.237 1861.63 Q345.626 1861.63 343.797 1865.19 Q341.992 1868.73 341.992 1875.86 Q341.992 1882.97 343.797 1886.54 Q345.626 1890.08 349.237 1890.08 Q352.871 1890.08 354.677 1886.54 Q356.506 1882.97 356.506 1875.86 Q356.506 1868.73 354.677 1865.19 Q352.871 1861.63 349.237 1861.63 M349.237 1857.92 Q355.047 1857.92 358.103 1862.53 Q361.181 1867.11 361.181 1875.86 Q361.181 1884.59 358.103 1889.2 Q355.047 1893.78 349.237 1893.78 Q343.427 1893.78 340.348 1889.2 Q337.293 1884.59 337.293 1875.86 Q337.293 1867.11 340.348 1862.53 Q343.427 1857.92 349.237 1857.92 Z" fill="#000000" fill-rule="nonzero" fill-opacity="1" /><path clip-path="url(#clip060)" d="M1004.39 1889.17 L1012.03 1889.17 L1012.03 1862.81 L1003.72 1864.48 L1003.72 1860.22 L1011.98 1858.55 L1016.66 1858.55 L1016.66 1889.17 L1024.3 1889.17 L1024.3 1893.11 L1004.39 1893.11 L1004.39 1889.17 Z" fill="#000000" fill-rule="nonzero" fill-opacity="1" /><path clip-path="url(#clip060)" d="M1043.74 1861.63 Q1040.13 1861.63 1038.3 1865.19 Q1036.5 1868.73 1036.5 1875.86 Q1036.5 1882.97 1038.3 1886.54 Q1040.13 1890.08 1043.74 1890.08 Q1047.38 1890.08 1049.18 1886.54 Q1051.01 1882.97 1051.01 1875.86 Q1051.01 1868.73 1049.18 1865.19 Q1047.38 1861.63 1043.74 1861.63 M1043.74 1857.92 Q1049.55 1857.92 1052.61 1862.53 Q1055.69 1867.11 1055.69 1875.86 Q1055.69 1884.59 1052.61 1889.2 Q1049.55 1893.78 1043.74 1893.78 Q1037.93 1893.78 1034.85 1889.2 Q1031.8 1884.59 1031.8 1875.86 Q1031.8 1867.11 1034.85 1862.53 Q1037.93 1857.92 1043.74 1857.92 Z" fill="#000000" fill-rule="nonzero" fill-opacity="1" /><path clip-path="url(#clip060)" d="M1688.94 1889.17 L1705.26 1889.17 L1705.26 1893.11 L1683.32 1893.11 L1683.32 1889.17 Q1685.98 1886.42 1690.56 1881.79 Q1695.17 1877.14 1696.35 1875.8 Q1698.59 1873.27 1699.47 1871.54 Q1700.38 1869.78 1700.38 1868.09 Q1700.38 1865.33 1698.43 1863.6 Q1696.51 1861.86 1693.41 1861.86 Q1691.21 1861.86 1688.76 1862.62 Q1686.33 1863.39 1683.55 1864.94 L1683.55 1860.22 Q1686.37 1859.08 1688.83 1858.5 Q1691.28 1857.92 1693.32 1857.92 Q1698.69 1857.92 1701.88 1860.61 Q1705.08 1863.3 1705.08 1867.79 Q1705.08 1869.92 1704.27 1871.84 Q1703.48 1873.73 1701.37 1876.33 Q1700.79 1877 1697.69 1880.22 Q1694.59 1883.41 1688.94 1889.17 Z" fill="#000000" fill-rule="nonzero" fill-opacity="1" /><path clip-path="url(#clip060)" d="M1725.08 1861.63 Q1721.46 1861.63 1719.64 1865.19 Q1717.83 1868.73 1717.83 1875.86 Q1717.83 1882.97 1719.64 1886.54 Q1721.46 1890.08 1725.08 1890.08 Q1728.71 1890.08 1730.52 1886.54 Q1732.34 1882.97 1732.34 1875.86 Q1732.34 1868.73 1730.52 1865.19 Q1728.71 1861.63 1725.08 1861.63 M1725.08 1857.92 Q1730.89 1857.92 1733.94 1862.53 Q1737.02 1867.11 1737.02 1875.86 Q1737.02 1884.59 1733.94 1889.2 Q1730.89 1893.78 1725.08 1893.78 Q1719.27 1893.78 1716.19 1889.2 Q1713.13 1884.59 1713.13 1875.86 Q1713.13 1867.11 1716.19 1862.53 Q1719.27 1857.92 1725.08 1857.92 Z" fill="#000000" fill-rule="nonzero" fill-opacity="1" /><path clip-path="url(#clip060)" d="M2379.48 1874.48 Q2382.83 1875.19 2384.71 1877.46 Q2386.61 1879.73 2386.61 1883.06 Q2386.61 1888.18 2383.09 1890.98 Q2379.57 1893.78 2373.09 1893.78 Q2370.91 1893.78 2368.6 1893.34 Q2366.31 1892.92 2363.85 1892.07 L2363.85 1887.55 Q2365.8 1888.69 2368.11 1889.27 Q2370.43 1889.85 2372.95 1889.85 Q2377.35 1889.85 2379.64 1888.11 Q2381.95 1886.37 2381.95 1883.06 Q2381.95 1880.01 2379.8 1878.3 Q2377.67 1876.56 2373.85 1876.56 L2369.82 1876.56 L2369.82 1872.72 L2374.04 1872.72 Q2377.49 1872.72 2379.31 1871.35 Q2381.14 1869.96 2381.14 1867.37 Q2381.14 1864.71 2379.25 1863.3 Q2377.37 1861.86 2373.85 1861.86 Q2371.93 1861.86 2369.73 1862.28 Q2367.53 1862.69 2364.89 1863.57 L2364.89 1859.41 Q2367.56 1858.67 2369.87 1858.3 Q2372.21 1857.92 2374.27 1857.92 Q2379.59 1857.92 2382.69 1860.36 Q2385.8 1862.76 2385.8 1866.88 Q2385.8 1869.75 2384.15 1871.74 Q2382.51 1873.71 2379.48 1874.48 Z" fill="#000000" fill-rule="nonzero" fill-opacity="1" /><path clip-path="url(#clip060)" d="M2405.47 1861.63 Q2401.86 1861.63 2400.03 1865.19 Q2398.23 1868.73 2398.23 1875.86 Q2398.23 1882.97 2400.03 1886.54 Q2401.86 1890.08 2405.47 1890.08 Q2409.11 1890.08 2410.91 1886.54 Q2412.74 1882.97 2412.74 1875.86 Q2412.74 1868.73 2410.91 1865.19 Q2409.11 1861.63 2405.47 1861.63 M2405.47 1857.92 Q2411.28 1857.92 2414.34 1862.53 Q2417.42 1867.11 2417.42 1875.86 Q2417.42 1884.59 2414.34 1889.2 Q2411.28 1893.78 2405.47 1893.78 Q2399.66 1893.78 2396.58 1889.2 Q2393.53 1884.59 2393.53 1875.86 Q2393.53 1867.11 2396.58 1862.53 Q2399.66 1857.92 2405.47 1857.92 Z" fill="#000000" fill-rule="nonzero" fill-opacity="1" /><path clip-path="url(#clip060)" d="M3059.27 1862.62 L3047.47 1881.07 L3059.27 1881.07 L3059.27 1862.62 M3058.04 1858.55 L3063.92 1858.55 L3063.92 1881.07 L3068.85 1881.07 L3068.85 1884.96 L3063.92 1884.96 L3063.92 1893.11 L3059.27 1893.11 L3059.27 1884.96 L3043.67 1884.96 L3043.67 1880.45 L3058.04 1858.55 Z" fill="#000000" fill-rule="nonzero" fill-opacity="1" /><path clip-path="url(#clip060)" d="M3086.59 1861.63 Q3082.97 1861.63 3081.15 1865.19 Q3079.34 1868.73 3079.34 1875.86 Q3079.34 1882.97 3081.15 1886.54 Q3082.97 1890.08 3086.59 1890.08 Q3090.22 1890.08 3092.03 1886.54 Q3093.85 1882.97 3093.85 1875.86 Q3093.85 1868.73 3092.03 1865.19 Q3090.22 1861.63 3086.59 1861.63 M3086.59 1857.92 Q3092.4 1857.92 3095.45 1862.53 Q3098.53 1867.11 3098.53 1875.86 Q3098.53 1884.59 3095.45 1889.2 Q3092.4 1893.78 3086.59 1893.78 Q3080.78 1893.78 3077.7 1889.2 Q3074.64 1884.59 3074.64 1875.86 Q3074.64 1867.11 3077.7 1862.53 Q3080.78 1857.92 3086.59 1857.92 Z" fill="#000000" fill-rule="nonzero" fill-opacity="1" /><path clip-path="url(#clip060)" d="M1529.72 1958.48 L1529.72 1975.89 L1540.03 1975.89 Q1545.22 1975.89 1547.7 1973.76 Q1550.21 1971.59 1550.21 1967.17 Q1550.21 1962.71 1547.7 1960.61 Q1545.22 1958.48 1540.03 1958.48 L1529.72 1958.48 M1529.72 1938.94 L1529.72 1953.26 L1539.23 1953.26 Q1543.94 1953.26 1546.24 1951.51 Q1548.56 1949.73 1548.56 1946.1 Q1548.56 1942.5 1546.24 1940.72 Q1543.94 1938.94 1539.23 1938.94 L1529.72 1938.94 M1523.29 1933.65 L1539.71 1933.65 Q1547.06 1933.65 1551.04 1936.71 Q1555.02 1939.76 1555.02 1945.4 Q1555.02 1949.76 1552.98 1952.34 Q1550.95 1954.92 1547 1955.55 Q1551.74 1956.57 1554.35 1959.82 Q1556.99 1963.03 1556.99 1967.87 Q1556.99 1974.24 1552.67 1977.7 Q1548.34 1981.17 1540.35 1981.17 L1523.29 1981.17 L1523.29 1933.65 Z" fill="#000000" fill-rule="nonzero" fill-opacity="1" /><path clip-path="url(#clip060)" d="M1573.42 1975.83 L1573.42 1994.73 L1567.53 1994.73 L1567.53 1945.53 L1573.42 1945.53 L1573.42 1950.94 Q1575.26 1947.75 1578.06 1946.23 Q1580.9 1944.67 1584.81 1944.67 Q1591.3 1944.67 1595.35 1949.82 Q1599.42 1954.98 1599.42 1963.38 Q1599.42 1971.78 1595.35 1976.94 Q1591.3 1982.1 1584.81 1982.1 Q1580.9 1982.1 1578.06 1980.57 Q1575.26 1979.01 1573.42 1975.83 M1593.34 1963.38 Q1593.34 1956.92 1590.67 1953.26 Q1588.03 1949.57 1583.38 1949.57 Q1578.73 1949.57 1576.06 1953.26 Q1573.42 1956.92 1573.42 1963.38 Q1573.42 1969.84 1576.06 1973.53 Q1578.73 1977.2 1583.38 1977.2 Q1588.03 1977.2 1590.67 1973.53 Q1593.34 1969.84 1593.34 1963.38 Z" fill="#000000" fill-rule="nonzero" fill-opacity="1" /><path clip-path="url(#clip060)" d="M1639.62 1961.89 L1639.62 1964.75 L1612.69 1964.75 Q1613.08 1970.8 1616.32 1973.98 Q1619.6 1977.13 1625.43 1977.13 Q1628.8 1977.13 1631.95 1976.3 Q1635.13 1975.48 1638.25 1973.82 L1638.25 1979.36 Q1635.1 1980.7 1631.79 1981.4 Q1628.48 1982.1 1625.07 1982.1 Q1616.54 1982.1 1611.55 1977.13 Q1606.58 1972.17 1606.58 1963.7 Q1606.58 1954.95 1611.29 1949.82 Q1616.04 1944.67 1624.06 1944.67 Q1631.25 1944.67 1635.42 1949.31 Q1639.62 1953.93 1639.62 1961.89 M1633.76 1960.17 Q1633.7 1955.36 1631.06 1952.5 Q1628.45 1949.63 1624.12 1949.63 Q1619.22 1949.63 1616.26 1952.4 Q1613.33 1955.17 1612.88 1960.2 L1633.76 1960.17 Z" fill="#000000" fill-rule="nonzero" fill-opacity="1" /><path clip-path="url(#clip060)" d="M1649.01 1945.53 L1657.57 1945.53 L1667.69 1969.4 L1677.85 1945.53 L1686.34 1945.53 L1686.34 1981.17 L1680.46 1981.17 L1680.46 1951.13 L1670.62 1974.33 L1664.77 1974.33 L1654.9 1951.13 L1654.9 1981.17 L1649.01 1981.17 L1649.01 1945.53 Z" fill="#000000" fill-rule="nonzero" fill-opacity="1" /><path clip-path="url(#clip060)" d="M1704.3 1955.81 Q1704.3 1958.45 1706.33 1959.94 Q1708.37 1961.44 1712.16 1961.44 L1720.05 1961.44 L1720.05 1950.2 L1712.16 1950.2 Q1708.37 1950.2 1706.33 1951.67 Q1704.3 1953.13 1704.3 1955.81 M1695.96 1981.17 L1706.84 1965.55 Q1703.15 1964.72 1700.7 1962.55 Q1698.25 1960.36 1698.25 1955.81 Q1698.25 1950.65 1701.65 1948.1 Q1705.09 1945.53 1712 1945.53 L1725.94 1945.53 L1725.94 1981.17 L1720.05 1981.17 L1720.05 1966.12 L1712.76 1966.12 L1702.26 1981.17 L1695.96 1981.17 Z" fill="#000000" fill-rule="nonzero" fill-opacity="1" /><path clip-path="url(#clip060)" d="M1739.12 1973.09 L1745.83 1973.09 L1745.83 1978.56 L1740.61 1988.75 L1736.51 1988.75 L1739.12 1978.56 L1739.12 1973.09 Z" fill="#000000" fill-rule="nonzero" fill-opacity="1" /><path clip-path="url(#clip060)" d="M1787.02 1976.5 L1804.01 1976.5 L1804.01 1950.2 L1791.7 1950.2 L1791.7 1954.66 Q1791.7 1967.77 1787.94 1974.78 L1787.02 1976.5 M1778.52 1976.5 Q1781.42 1975.22 1782.69 1972.52 Q1785.81 1965.8 1785.81 1952.27 L1785.81 1945.53 L1809.9 1945.53 L1809.9 1976.5 L1814.58 1976.5 L1814.58 1990.18 L1809.9 1990.18 L1809.9 1981.17 L1781 1981.17 L1781 1990.18 L1776.32 1990.18 L1776.32 1976.5 L1778.52 1976.5 Z" fill="#000000" fill-rule="nonzero" fill-opacity="1" /><path clip-path="url(#clip060)" d="M1823.91 1945.53 L1829.8 1945.53 L1829.8 1960.07 L1848.8 1960.07 L1848.8 1945.53 L1854.69 1945.53 L1854.69 1981.17 L1848.8 1981.17 L1848.8 1964.75 L1829.8 1964.75 L1829.8 1981.17 L1823.91 1981.17 L1823.91 1945.53 Z" fill="#000000" fill-rule="nonzero" fill-opacity="1" /><path clip-path="url(#clip060)" d="M1897.05 1945.53 L1897.05 1981.17 L1891.23 1981.17 L1891.23 1952.56 L1874.04 1981.17 L1866.53 1981.17 L1866.53 1945.53 L1872.35 1945.53 L1872.35 1974.08 L1889.51 1945.53 L1897.05 1945.53 Z" fill="#000000" fill-rule="nonzero" fill-opacity="1" /><polyline clip-path="url(#clip060)" style="stroke:#000000; stroke-linecap:round; stroke-linejoin:round; stroke-width:4; stroke-opacity:1; fill:none" points="267.581,1824.31 267.581,119.692 "/>
<polyline clip-path="url(#clip060)" style="stroke:#000000; stroke-linecap:round; stroke-linejoin:round; stroke-width:4; stroke-opacity:1; fill:none" points="267.581,1776.07 286.479,1776.07 "/>
<polyline clip-path="url(#clip060)" style="stroke:#000000; stroke-linecap:round; stroke-linejoin:round; stroke-width:4; stroke-opacity:1; fill:none" points="267.581,1369.97 286.479,1369.97 "/>
<polyline clip-path="url(#clip060)" style="stroke:#000000; stroke-linecap:round; stroke-linejoin:round; stroke-width:4; stroke-opacity:1; fill:none" points="267.581,963.879 286.479,963.879 "/>
<polyline clip-path="url(#clip060)" style="stroke:#000000; stroke-linecap:round; stroke-linejoin:round; stroke-width:4; stroke-opacity:1; fill:none" points="267.581,557.786 286.479,557.786 "/>
<polyline clip-path="url(#clip060)" style="stroke:#000000; stroke-linecap:round; stroke-linejoin:round; stroke-width:4; stroke-opacity:1; fill:none" points="267.581,151.692 286.479,151.692 "/>
<path clip-path="url(#clip060)" d="M207.637 1761.86 Q204.026 1761.86 202.197 1765.43 Q200.392 1768.97 200.392 1776.1 Q200.392 1783.21 202.197 1786.77 Q204.026 1790.31 207.637 1790.31 Q211.271 1790.31 213.077 1786.77 Q214.905 1783.21 214.905 1776.1 Q214.905 1768.97 213.077 1765.43 Q211.271 1761.86 207.637 1761.86 M207.637 1758.16 Q213.447 1758.16 216.503 1762.77 Q219.581 1767.35 219.581 1776.1 Q219.581 1784.83 216.503 1789.43 Q213.447 1794.02 207.637 1794.02 Q201.827 1794.02 198.748 1789.43 Q195.692 1784.83 195.692 1776.1 Q195.692 1767.35 198.748 1762.77 Q201.827 1758.16 207.637 1758.16 Z" fill="#000000" fill-rule="nonzero" fill-opacity="1" /><path clip-path="url(#clip060)" d="M141.341 1383.32 L157.66 1383.32 L157.66 1387.25 L135.716 1387.25 L135.716 1383.32 Q138.378 1380.56 142.961 1375.93 Q147.568 1371.28 148.748 1369.94 Q150.994 1367.41 151.873 1365.68 Q152.776 1363.92 152.776 1362.23 Q152.776 1359.47 150.832 1357.74 Q148.91 1356 145.808 1356 Q143.609 1356 141.156 1356.77 Q138.725 1357.53 135.947 1359.08 L135.947 1354.36 Q138.771 1353.22 141.225 1352.65 Q143.679 1352.07 145.716 1352.07 Q151.086 1352.07 154.281 1354.75 Q157.475 1357.44 157.475 1361.93 Q157.475 1364.06 156.665 1365.98 Q155.878 1367.88 153.771 1370.47 Q153.193 1371.14 150.091 1374.36 Q146.989 1377.55 141.341 1383.32 Z" fill="#000000" fill-rule="nonzero" fill-opacity="1" /><path clip-path="url(#clip060)" d="M167.521 1352.69 L185.878 1352.69 L185.878 1356.63 L171.804 1356.63 L171.804 1365.1 Q172.822 1364.75 173.841 1364.59 Q174.859 1364.41 175.878 1364.41 Q181.665 1364.41 185.044 1367.58 Q188.424 1370.75 188.424 1376.16 Q188.424 1381.74 184.952 1384.85 Q181.48 1387.92 175.16 1387.92 Q172.984 1387.92 170.716 1387.55 Q168.47 1387.18 166.063 1386.44 L166.063 1381.74 Q168.146 1382.88 170.369 1383.43 Q172.591 1383.99 175.068 1383.99 Q179.072 1383.99 181.41 1381.88 Q183.748 1379.78 183.748 1376.16 Q183.748 1372.55 181.41 1370.45 Q179.072 1368.34 175.068 1368.34 Q173.193 1368.34 171.318 1368.76 Q169.466 1369.17 167.521 1370.05 L167.521 1352.69 Z" fill="#000000" fill-rule="nonzero" fill-opacity="1" /><path clip-path="url(#clip060)" d="M207.637 1355.77 Q204.026 1355.77 202.197 1359.34 Q200.392 1362.88 200.392 1370.01 Q200.392 1377.11 202.197 1380.68 Q204.026 1384.22 207.637 1384.22 Q211.271 1384.22 213.077 1380.68 Q214.905 1377.11 214.905 1370.01 Q214.905 1362.88 213.077 1359.34 Q211.271 1355.77 207.637 1355.77 M207.637 1352.07 Q213.447 1352.07 216.503 1356.67 Q219.581 1361.26 219.581 1370.01 Q219.581 1378.73 216.503 1383.34 Q213.447 1387.92 207.637 1387.92 Q201.827 1387.92 198.748 1383.34 Q195.692 1378.73 195.692 1370.01 Q195.692 1361.26 198.748 1356.67 Q201.827 1352.07 207.637 1352.07 Z" fill="#000000" fill-rule="nonzero" fill-opacity="1" /><path clip-path="url(#clip060)" d="M137.359 946.599 L155.716 946.599 L155.716 950.534 L141.642 950.534 L141.642 959.006 Q142.66 958.659 143.679 958.497 Q144.697 958.312 145.716 958.312 Q151.503 958.312 154.882 961.483 Q158.262 964.655 158.262 970.071 Q158.262 975.65 154.79 978.752 Q151.318 981.83 144.998 981.83 Q142.822 981.83 140.554 981.46 Q138.309 981.09 135.901 980.349 L135.901 975.65 Q137.984 976.784 140.207 977.34 Q142.429 977.895 144.906 977.895 Q148.91 977.895 151.248 975.789 Q153.586 973.682 153.586 970.071 Q153.586 966.46 151.248 964.354 Q148.91 962.247 144.906 962.247 Q143.031 962.247 141.156 962.664 Q139.304 963.081 137.359 963.96 L137.359 946.599 Z" fill="#000000" fill-rule="nonzero" fill-opacity="1" /><path clip-path="url(#clip060)" d="M177.475 949.678 Q173.864 949.678 172.035 953.243 Q170.23 956.784 170.23 963.914 Q170.23 971.02 172.035 974.585 Q173.864 978.127 177.475 978.127 Q181.109 978.127 182.915 974.585 Q184.743 971.02 184.743 963.914 Q184.743 956.784 182.915 953.243 Q181.109 949.678 177.475 949.678 M177.475 945.974 Q183.285 945.974 186.341 950.581 Q189.419 955.164 189.419 963.914 Q189.419 972.641 186.341 977.247 Q183.285 981.83 177.475 981.83 Q171.665 981.83 168.586 977.247 Q165.531 972.641 165.531 963.914 Q165.531 955.164 168.586 950.581 Q171.665 945.974 177.475 945.974 Z" fill="#000000" fill-rule="nonzero" fill-opacity="1" /><path clip-path="url(#clip060)" d="M207.637 949.678 Q204.026 949.678 202.197 953.243 Q200.392 956.784 200.392 963.914 Q200.392 971.02 202.197 974.585 Q204.026 978.127 207.637 978.127 Q211.271 978.127 213.077 974.585 Q214.905 971.02 214.905 963.914 Q214.905 956.784 213.077 953.243 Q211.271 949.678 207.637 949.678 M207.637 945.974 Q213.447 945.974 216.503 950.581 Q219.581 955.164 219.581 963.914 Q219.581 972.641 216.503 977.247 Q213.447 981.83 207.637 981.83 Q201.827 981.83 198.748 977.247 Q195.692 972.641 195.692 963.914 Q195.692 955.164 198.748 950.581 Q201.827 945.974 207.637 945.974 Z" fill="#000000" fill-rule="nonzero" fill-opacity="1" /><path clip-path="url(#clip060)" d="M136.133 540.506 L158.355 540.506 L158.355 542.496 L145.808 575.066 L140.924 575.066 L152.73 544.441 L136.133 544.441 L136.133 540.506 Z" fill="#000000" fill-rule="nonzero" fill-opacity="1" /><path clip-path="url(#clip060)" d="M167.521 540.506 L185.878 540.506 L185.878 544.441 L171.804 544.441 L171.804 552.913 Q172.822 552.566 173.841 552.404 Q174.859 552.219 175.878 552.219 Q181.665 552.219 185.044 555.39 Q188.424 558.561 188.424 563.978 Q188.424 569.556 184.952 572.658 Q181.48 575.737 175.16 575.737 Q172.984 575.737 170.716 575.367 Q168.47 574.996 166.063 574.256 L166.063 569.556 Q168.146 570.691 170.369 571.246 Q172.591 571.802 175.068 571.802 Q179.072 571.802 181.41 569.695 Q183.748 567.589 183.748 563.978 Q183.748 560.367 181.41 558.26 Q179.072 556.154 175.068 556.154 Q173.193 556.154 171.318 556.57 Q169.466 556.987 167.521 557.867 L167.521 540.506 Z" fill="#000000" fill-rule="nonzero" fill-opacity="1" /><path clip-path="url(#clip060)" d="M207.637 543.584 Q204.026 543.584 202.197 547.149 Q200.392 550.691 200.392 557.82 Q200.392 564.927 202.197 568.492 Q204.026 572.033 207.637 572.033 Q211.271 572.033 213.077 568.492 Q214.905 564.927 214.905 557.82 Q214.905 550.691 213.077 547.149 Q211.271 543.584 207.637 543.584 M207.637 539.881 Q213.447 539.881 216.503 544.487 Q219.581 549.07 219.581 557.82 Q219.581 566.547 216.503 571.154 Q213.447 575.737 207.637 575.737 Q201.827 575.737 198.748 571.154 Q195.692 566.547 195.692 557.82 Q195.692 549.07 198.748 544.487 Q201.827 539.881 207.637 539.881 Z" fill="#000000" fill-rule="nonzero" fill-opacity="1" /><path clip-path="url(#clip060)" d="M107.961 165.037 L115.6 165.037 L115.6 138.672 L107.29 140.338 L107.29 136.079 L115.554 134.412 L120.23 134.412 L120.23 165.037 L127.869 165.037 L127.869 168.972 L107.961 168.972 L107.961 165.037 Z" fill="#000000" fill-rule="nonzero" fill-opacity="1" /><path clip-path="url(#clip060)" d="M147.313 137.491 Q143.702 137.491 141.873 141.056 Q140.068 144.597 140.068 151.727 Q140.068 158.833 141.873 162.398 Q143.702 165.94 147.313 165.94 Q150.947 165.94 152.753 162.398 Q154.582 158.833 154.582 151.727 Q154.582 144.597 152.753 141.056 Q150.947 137.491 147.313 137.491 M147.313 133.787 Q153.123 133.787 156.179 138.394 Q159.257 142.977 159.257 151.727 Q159.257 160.454 156.179 165.06 Q153.123 169.644 147.313 169.644 Q141.503 169.644 138.424 165.06 Q135.369 160.454 135.369 151.727 Q135.369 142.977 138.424 138.394 Q141.503 133.787 147.313 133.787 Z" fill="#000000" fill-rule="nonzero" fill-opacity="1" /><path clip-path="url(#clip060)" d="M177.475 137.491 Q173.864 137.491 172.035 141.056 Q170.23 144.597 170.23 151.727 Q170.23 158.833 172.035 162.398 Q173.864 165.94 177.475 165.94 Q181.109 165.94 182.915 162.398 Q184.743 158.833 184.743 151.727 Q184.743 144.597 182.915 141.056 Q181.109 137.491 177.475 137.491 M177.475 133.787 Q183.285 133.787 186.341 138.394 Q189.419 142.977 189.419 151.727 Q189.419 160.454 186.341 165.06 Q183.285 169.644 177.475 169.644 Q171.665 169.644 168.586 165.06 Q165.531 160.454 165.531 151.727 Q165.531 142.977 168.586 138.394 Q171.665 133.787 177.475 133.787 Z" fill="#000000" fill-rule="nonzero" fill-opacity="1" /><path clip-path="url(#clip060)" d="M207.637 137.491 Q204.026 137.491 202.197 141.056 Q200.392 144.597 200.392 151.727 Q200.392 158.833 202.197 162.398 Q204.026 165.94 207.637 165.94 Q211.271 165.94 213.077 162.398 Q214.905 158.833 214.905 151.727 Q214.905 144.597 213.077 141.056 Q211.271 137.491 207.637 137.491 M207.637 133.787 Q213.447 133.787 216.503 138.394 Q219.581 142.977 219.581 151.727 Q219.581 160.454 216.503 165.06 Q213.447 169.644 207.637 169.644 Q201.827 169.644 198.748 165.06 Q195.692 160.454 195.692 151.727 Q195.692 142.977 198.748 138.394 Q201.827 133.787 207.637 133.787 Z" fill="#000000" fill-rule="nonzero" fill-opacity="1" /><path clip-path="url(#clip060)" d="M-2.48584 1288.69 L-2.48584 1282.27 L21.0036 1282.27 L-2.48584 1259.29 L-2.48584 1251.04 L16.293 1269.41 L45.0342 1250.09 L45.0342 1257.09 L20.558 1273.58 L29.4382 1282.27 L45.0342 1282.27 L45.0342 1288.69 L-2.48584 1288.69 Z" fill="#000000" fill-rule="nonzero" fill-opacity="1" /><path clip-path="url(#clip060)" d="M13.4921 1228.86 Q13.4921 1233.57 17.1842 1236.31 Q20.8445 1239.04 27.242 1239.04 Q33.6395 1239.04 37.3317 1236.34 Q40.9919 1233.6 40.9919 1228.86 Q40.9919 1224.18 37.2998 1221.44 Q33.6077 1218.7 27.242 1218.7 Q20.9081 1218.7 17.216 1221.44 Q13.4921 1224.18 13.4921 1228.86 M8.52683 1228.86 Q8.52683 1221.22 13.4921 1216.86 Q18.4573 1212.5 27.242 1212.5 Q35.9949 1212.5 40.9919 1216.86 Q45.9572 1221.22 45.9572 1228.86 Q45.9572 1236.53 40.9919 1240.89 Q35.9949 1245.22 27.242 1245.22 Q18.4573 1245.22 13.4921 1240.89 Q8.52683 1236.53 8.52683 1228.86 Z" fill="#000000" fill-rule="nonzero" fill-opacity="1" /><path clip-path="url(#clip060)" d="M45.0342 1206.51 L40.1644 1206.51 Q39.2732 1200.72 35.2628 1198.94 Q29.6291 1196.77 15.2108 1196.77 L9.3862 1196.77 L9.3862 1172.68 L45.0342 1172.68 L45.0342 1178.54 L14.065 1178.54 L14.065 1190.92 L17.598 1190.92 Q31.3479 1190.92 37.5226 1193.72 Q44.1111 1196.71 45.0342 1206.51 Z" fill="#000000" fill-rule="nonzero" fill-opacity="1" /><path clip-path="url(#clip060)" d="M9.3862 1130.83 L45.0342 1130.83 L45.0342 1136.65 L16.4203 1136.65 L45.0342 1153.84 L45.0342 1161.35 L9.3862 1161.35 L9.3862 1155.52 L37.9364 1155.52 L9.3862 1138.37 L9.3862 1130.83 Z" fill="#000000" fill-rule="nonzero" fill-opacity="1" /><path clip-path="url(#clip060)" d="M45.0342 1098.17 L30.0429 1098.17 L30.0429 1109.09 Q30.0429 1113.96 27.0192 1117.2 Q24.282 1120.13 18.4255 1120.13 L9.3862 1120.13 L9.3862 1114.27 L17.8844 1114.27 Q21.6084 1114.27 23.4862 1112.62 Q25.3641 1110.93 25.3641 1107.62 L25.3641 1098.17 L9.3862 1098.17 L9.3862 1092.31 L45.0342 1092.31 L45.0342 1098.17 Z" fill="#000000" fill-rule="nonzero" fill-opacity="1" /><path clip-path="url(#clip060)" d="M25.7461 1049.76 L28.6106 1049.76 L28.6106 1076.69 Q34.6581 1076.3 37.8409 1073.06 Q40.9919 1069.78 40.9919 1063.95 Q40.9919 1060.58 40.1644 1057.43 Q39.3369 1054.25 37.6818 1051.13 L43.2199 1051.13 Q44.5567 1054.28 45.257 1057.59 Q45.9572 1060.9 45.9572 1064.3 Q45.9572 1072.83 40.9919 1077.83 Q36.0267 1082.8 27.5603 1082.8 Q18.8074 1082.8 13.6831 1078.09 Q8.52683 1073.34 8.52683 1065.32 Q8.52683 1058.13 13.1738 1053.96 Q17.7889 1049.76 25.7461 1049.76 M24.0273 1055.61 Q19.2212 1055.68 16.3566 1058.32 Q13.4921 1060.93 13.4921 1065.26 Q13.4921 1070.16 16.2612 1073.12 Q19.0302 1076.05 24.0592 1076.49 L24.0273 1055.61 Z" fill="#000000" fill-rule="nonzero" fill-opacity="1" /><path clip-path="url(#clip060)" d="M10.7548 1014.49 L16.2293 1014.49 Q14.8607 1016.97 14.1923 1019.49 Q13.4921 1021.97 13.4921 1024.52 Q13.4921 1030.22 17.1205 1033.37 Q20.7172 1036.52 27.242 1036.52 Q33.7669 1036.52 37.3953 1033.37 Q40.9919 1030.22 40.9919 1024.52 Q40.9919 1021.97 40.3235 1019.49 Q39.6233 1016.97 38.2547 1014.49 L43.6655 1014.49 Q44.8114 1016.94 45.3843 1019.58 Q45.9572 1022.19 45.9572 1025.15 Q45.9572 1033.21 40.8964 1037.95 Q35.8357 1042.69 27.242 1042.69 Q18.521 1042.69 13.5239 1037.92 Q8.52683 1033.11 8.52683 1024.77 Q8.52683 1022.07 9.09974 1019.49 Q9.64083 1016.91 10.7548 1014.49 Z" fill="#000000" fill-rule="nonzero" fill-opacity="1" /><path clip-path="url(#clip060)" d="M9.3862 1008.54 L9.3862 974.388 L14.065 974.388 L14.065 988.584 L45.0342 988.584 L45.0342 994.345 L14.065 994.345 L14.065 1008.54 L9.3862 1008.54 Z" fill="#000000" fill-rule="nonzero" fill-opacity="1" /><path clip-path="url(#clip060)" d="M28.6106 960.702 L40.3554 960.702 L40.3554 952.363 Q40.3554 948.352 38.8594 946.252 Q37.3317 944.151 34.4671 944.151 Q31.6025 944.151 30.1066 946.252 Q28.6106 948.352 28.6106 952.363 L28.6106 960.702 M14.065 960.702 L23.9318 960.702 L23.9318 952.999 Q23.9318 949.689 22.6269 947.588 Q21.2901 945.488 18.9348 945.488 Q16.5794 945.488 15.3381 947.588 Q14.065 949.689 14.065 952.999 L14.065 960.702 M9.3862 966.558 L9.3862 952.617 Q9.3862 946.347 11.6779 942.973 Q13.9695 939.6 18.2027 939.6 Q21.481 939.6 23.4226 941.318 Q25.3323 943.037 25.8097 946.411 Q26.5736 942.369 28.9926 940.141 Q31.4115 937.913 35.04 937.913 Q39.8143 937.913 42.4242 941.605 Q45.0342 945.265 45.0342 952.076 L45.0342 966.558 L9.3862 966.558 Z" fill="#000000" fill-rule="nonzero" fill-opacity="1" /><path clip-path="url(#clip060)" d="M13.4921 914.105 Q13.4921 918.816 17.1842 921.553 Q20.8445 924.29 27.242 924.29 Q33.6395 924.29 37.3317 921.585 Q40.9919 918.847 40.9919 914.105 Q40.9919 909.426 37.2998 906.689 Q33.6077 903.952 27.242 903.952 Q20.9081 903.952 17.216 906.689 Q13.4921 909.426 13.4921 914.105 M8.52683 914.105 Q8.52683 906.466 13.4921 902.106 Q18.4573 897.745 27.242 897.745 Q35.9949 897.745 40.9919 902.106 Q45.9572 906.466 45.9572 914.105 Q45.9572 921.776 40.9919 926.136 Q35.9949 930.465 27.242 930.465 Q18.4573 930.465 13.4921 926.136 Q8.52683 921.776 8.52683 914.105 Z" fill="#000000" fill-rule="nonzero" fill-opacity="1" /><path clip-path="url(#clip060)" d="M45.0342 871.041 L40.1644 871.041 Q39.2732 865.248 35.2628 863.466 Q29.6291 861.301 15.2108 861.301 L9.3862 861.301 L9.3862 837.207 L45.0342 837.207 L45.0342 843.064 L14.065 843.064 L14.065 855.445 L17.598 855.445 Q31.3479 855.445 37.5226 858.246 Q44.1111 861.238 45.0342 871.041 Z" fill="#000000" fill-rule="nonzero" fill-opacity="1" /><path clip-path="url(#clip060)" d="M13.4921 796.849 Q13.4921 801.559 17.1842 804.296 Q20.8445 807.034 27.242 807.034 Q33.6395 807.034 37.3317 804.328 Q40.9919 801.591 40.9919 796.849 Q40.9919 792.17 37.2998 789.433 Q33.6077 786.695 27.242 786.695 Q20.9081 786.695 17.216 789.433 Q13.4921 792.17 13.4921 796.849 M23.6136 813.017 Q17.5661 812.413 13.0465 808.466 Q8.52683 804.487 8.52683 796.849 Q8.52683 789.21 13.4921 784.849 Q18.4573 780.489 27.242 780.489 Q35.9949 780.489 40.9919 784.849 Q45.9572 789.21 45.9572 796.849 Q45.9572 804.519 41.1511 808.721 Q36.345 812.89 28.4515 813.177 L28.4515 819.797 L45.0342 819.797 L45.0342 825.653 L9.3862 825.653 L9.3862 819.797 L23.6136 819.797 L23.6136 813.017 Z" fill="#000000" fill-rule="nonzero" fill-opacity="1" /><path clip-path="url(#clip060)" d="M40.3554 762.824 L40.3554 745.827 L14.065 745.827 L14.065 758.145 L18.521 758.145 Q31.6343 758.145 38.6366 761.901 L40.3554 762.824 M40.3554 771.322 Q39.0822 768.426 36.3768 767.153 Q29.661 764.033 16.1338 764.033 L9.3862 764.033 L9.3862 739.939 L40.3554 739.939 L40.3554 735.26 L54.0416 735.26 L54.0416 739.939 L45.0342 739.939 L45.0342 768.839 L54.0416 768.839 L54.0416 773.518 L40.3554 773.518 L40.3554 771.322 Z" fill="#000000" fill-rule="nonzero" fill-opacity="1" /><path clip-path="url(#clip060)" d="M25.7461 695.22 L28.6106 695.22 L28.6106 722.147 Q34.6581 721.765 37.8409 718.519 Q40.9919 715.24 40.9919 709.416 Q40.9919 706.042 40.1644 702.891 Q39.3369 699.708 37.6818 696.589 L43.2199 696.589 Q44.5567 699.74 45.257 703.05 Q45.9572 706.36 45.9572 709.766 Q45.9572 718.296 40.9919 723.293 Q36.0267 728.258 27.5603 728.258 Q18.8074 728.258 13.6831 723.547 Q8.52683 718.805 8.52683 710.784 Q8.52683 703.591 13.1738 699.421 Q17.7889 695.22 25.7461 695.22 M24.0273 701.077 Q19.2212 701.14 16.3566 703.782 Q13.4921 706.392 13.4921 710.721 Q13.4921 715.622 16.2612 718.582 Q19.0302 721.51 24.0592 721.956 L24.0273 701.077 Z" fill="#000000" fill-rule="nonzero" fill-opacity="1" /><path clip-path="url(#clip060)" d="M9.3862 655.307 L45.0342 655.307 L45.0342 661.132 L16.4203 661.132 L45.0342 678.319 L45.0342 685.831 L9.3862 685.831 L9.3862 680.006 L37.9364 680.006 L9.3862 662.85 L9.3862 655.307 M-4.49104 680.515 L-4.49104 676.76 Q-2.1039 676.409 -0.894416 674.882 Q0.28324 673.322 0.28324 670.553 Q0.28324 667.816 -0.894416 666.288 Q-2.07207 664.76 -4.49104 664.346 L-4.49104 660.591 Q0.0604401 660.909 2.35209 663.423 Q4.64375 665.938 4.64375 670.553 Q4.64375 675.168 2.35209 677.683 Q0.0604401 680.197 -4.49104 680.515 Z" fill="#000000" fill-rule="nonzero" fill-opacity="1" /><path clip-path="url(#clip060)" d="M1038.99 12.096 L1051.19 12.096 L1066.62 53.2532 L1082.14 12.096 L1094.33 12.096 L1094.33 72.576 L1086.35 72.576 L1086.35 19.4686 L1070.75 60.9499 L1062.53 60.9499 L1046.93 19.4686 L1046.93 72.576 L1038.99 72.576 L1038.99 12.096 Z" fill="#000000" fill-rule="nonzero" fill-opacity="1" /><path clip-path="url(#clip060)" d="M1127.83 32.4315 Q1121.84 32.4315 1118.35 37.1306 Q1114.87 41.7891 1114.87 49.9314 Q1114.87 58.0738 1118.31 62.7728 Q1121.79 67.4314 1127.83 67.4314 Q1133.79 67.4314 1137.27 62.7323 Q1140.75 58.0333 1140.75 49.9314 Q1140.75 41.8701 1137.27 37.1711 Q1133.79 32.4315 1127.83 32.4315 M1127.83 26.1121 Q1137.55 26.1121 1143.1 32.4315 Q1148.65 38.7509 1148.65 49.9314 Q1148.65 61.0714 1143.1 67.4314 Q1137.55 73.7508 1127.83 73.7508 Q1118.07 73.7508 1112.52 67.4314 Q1107.01 61.0714 1107.01 49.9314 Q1107.01 38.7509 1112.52 32.4315 Q1118.07 26.1121 1127.83 26.1121 Z" fill="#000000" fill-rule="nonzero" fill-opacity="1" /><path clip-path="url(#clip060)" d="M1171.13 66.6212 L1192.77 66.6212 L1192.77 33.1607 L1177.09 33.1607 L1177.09 38.832 Q1177.09 55.5217 1172.31 64.4337 L1171.13 66.6212 M1160.32 66.6212 Q1164.01 65.0008 1165.63 61.5575 Q1169.6 53.0101 1169.6 35.7938 L1169.6 27.2059 L1200.26 27.2059 L1200.26 66.6212 L1206.22 66.6212 L1206.22 84.0401 L1200.26 84.0401 L1200.26 72.576 L1163.48 72.576 L1163.48 84.0401 L1157.52 84.0401 L1157.52 66.6212 L1160.32 66.6212 Z" fill="#000000" fill-rule="nonzero" fill-opacity="1" /><path clip-path="url(#clip060)" d="M1257.18 48.0275 L1257.18 51.6733 L1222.91 51.6733 Q1223.39 59.3701 1227.52 63.421 Q1231.7 67.4314 1239.11 67.4314 Q1243.4 67.4314 1247.41 66.3781 Q1251.46 65.3249 1255.43 63.2184 L1255.43 70.267 Q1251.42 71.9684 1247.21 72.8596 Q1243 73.7508 1238.66 73.7508 Q1227.81 73.7508 1221.45 67.4314 Q1215.13 61.1119 1215.13 50.3365 Q1215.13 39.1965 1221.12 32.6746 Q1227.16 26.1121 1237.37 26.1121 Q1246.52 26.1121 1251.83 32.0264 Q1257.18 37.9003 1257.18 48.0275 M1249.72 45.84 Q1249.64 39.7232 1246.28 36.0774 Q1242.96 32.4315 1237.45 32.4315 Q1231.21 32.4315 1227.44 35.9558 Q1223.72 39.4801 1223.15 45.8805 L1249.72 45.84 Z" fill="#000000" fill-rule="nonzero" fill-opacity="1" /><path clip-path="url(#clip060)" d="M1264.67 72.576 L1264.67 66.3781 Q1272.04 65.2439 1274.31 60.1397 Q1277.07 52.9696 1277.07 34.619 L1277.07 27.2059 L1307.73 27.2059 L1307.73 72.576 L1300.28 72.576 L1300.28 33.1607 L1284.52 33.1607 L1284.52 37.6572 Q1284.52 55.1571 1280.96 63.0159 Q1277.15 71.4012 1264.67 72.576 Z" fill="#000000" fill-rule="nonzero" fill-opacity="1" /><path clip-path="url(#clip060)" d="M1350.67 59.127 Q1350.67 55.4812 1348 53.5773 Q1345.36 51.6733 1340.26 51.6733 L1329.65 51.6733 L1329.65 66.6212 L1340.26 66.6212 Q1345.36 66.6212 1348 64.7172 Q1350.67 62.7728 1350.67 59.127 M1322.15 27.2059 L1329.65 27.2059 L1329.65 45.7185 L1340.58 45.7185 Q1349.25 45.7185 1353.91 49.0402 Q1358.61 52.3215 1358.61 59.127 Q1358.61 65.9325 1353.91 69.2543 Q1349.25 72.576 1340.58 72.576 L1322.15 72.576 L1322.15 27.2059 Z" fill="#000000" fill-rule="nonzero" fill-opacity="1" /><path clip-path="url(#clip060)" d="M1434.28 14.0809 L1434.28 22.0612 Q1429.62 19.8332 1425.49 18.7395 Q1421.36 17.6457 1417.51 17.6457 Q1410.83 17.6457 1407.18 20.2383 Q1403.58 22.8309 1403.58 27.611 Q1403.58 31.6214 1405.97 33.6873 Q1408.4 35.7128 1415.12 36.9686 L1420.06 37.9813 Q1429.22 39.7232 1433.55 44.1387 Q1437.93 48.5136 1437.93 55.8863 Q1437.93 64.6767 1432.01 69.2137 Q1426.14 73.7508 1414.76 73.7508 Q1410.46 73.7508 1405.6 72.7785 Q1400.78 71.8063 1395.6 69.9024 L1395.6 61.4765 Q1400.58 64.2716 1405.36 65.6895 Q1410.14 67.1073 1414.76 67.1073 Q1421.76 67.1073 1425.57 64.3527 Q1429.38 61.598 1429.38 56.4939 Q1429.38 52.0379 1426.63 49.5264 Q1423.91 47.0148 1417.67 45.759 L1412.69 44.7868 Q1403.54 42.9639 1399.44 39.075 Q1395.35 35.1862 1395.35 28.2591 Q1395.35 20.2383 1400.98 15.6203 Q1406.65 11.0023 1416.58 11.0023 Q1420.83 11.0023 1425.25 11.7719 Q1429.66 12.5416 1434.28 14.0809 Z" fill="#000000" fill-rule="nonzero" fill-opacity="1" /><path clip-path="url(#clip060)" d="M1450.69 12.096 L1458.87 12.096 L1458.87 72.576 L1450.69 72.576 L1450.69 12.096 Z" fill="#000000" fill-rule="nonzero" fill-opacity="1" /><path clip-path="url(#clip060)" d="M1503.84 44.2197 Q1506.47 45.1109 1508.94 48.0275 Q1511.45 50.9442 1513.96 56.0483 L1522.27 72.576 L1513.48 72.576 L1505.74 57.061 Q1502.74 50.9847 1499.91 48.9997 Q1497.11 47.0148 1492.25 47.0148 L1483.34 47.0148 L1483.34 72.576 L1475.16 72.576 L1475.16 12.096 L1493.63 12.096 Q1504 12.096 1509.1 16.4305 Q1514.21 20.7649 1514.21 29.5149 Q1514.21 35.2267 1511.53 38.994 Q1508.9 42.7613 1503.84 44.2197 M1483.34 18.8205 L1483.34 40.2903 L1493.63 40.2903 Q1499.54 40.2903 1502.54 37.5762 Q1505.58 34.8216 1505.58 29.5149 Q1505.58 24.2082 1502.54 21.5346 Q1499.54 18.8205 1493.63 18.8205 L1483.34 18.8205 Z" fill="#000000" fill-rule="nonzero" fill-opacity="1" /><path clip-path="url(#clip060)" d="M1531.83 62.2867 L1540.37 62.2867 L1540.37 72.576 L1531.83 72.576 L1531.83 62.2867 M1531.83 29.6769 L1540.37 29.6769 L1540.37 39.9662 L1531.83 39.9662 L1531.83 29.6769 Z" fill="#000000" fill-rule="nonzero" fill-opacity="1" /><path clip-path="url(#clip060)" d="M1618.84 54.7925 Q1618.84 49.1618 1615.64 46.4477 Q1612.48 43.6931 1605.88 43.6931 L1592.75 43.6931 L1592.75 65.8515 L1605.88 65.8515 Q1612.48 65.8515 1615.64 63.1374 Q1618.84 60.3828 1618.84 54.7925 M1623.22 12.096 L1623.22 18.8205 L1592.75 18.8205 L1592.75 36.9686 L1606.28 36.9686 Q1616.45 36.9686 1621.96 41.384 Q1627.47 45.7995 1627.47 54.7925 Q1627.47 63.745 1622.12 68.1605 Q1616.82 72.576 1606.28 72.576 L1584.57 72.576 L1584.57 12.096 L1623.22 12.096 Z" fill="#000000" fill-rule="nonzero" fill-opacity="1" /><path clip-path="url(#clip060)" d="M1661.78 49.7694 Q1652.75 49.7694 1649.26 51.8354 Q1645.78 53.9013 1645.78 58.8839 Q1645.78 62.8538 1648.37 65.2034 Q1651.01 67.5124 1655.5 67.5124 Q1661.7 67.5124 1665.43 63.1374 Q1669.19 58.7219 1669.19 51.4303 L1669.19 49.7694 L1661.78 49.7694 M1676.65 46.6907 L1676.65 72.576 L1669.19 72.576 L1669.19 65.6895 Q1666.64 69.8214 1662.83 71.8063 Q1659.03 73.7508 1653.52 73.7508 Q1646.55 73.7508 1642.42 69.8619 Q1638.33 65.9325 1638.33 59.3701 Q1638.33 51.7138 1643.43 47.825 Q1648.57 43.9361 1658.74 43.9361 L1669.19 43.9361 L1669.19 43.2069 Q1669.19 38.0623 1665.79 35.2672 Q1662.43 32.4315 1656.31 32.4315 Q1652.42 32.4315 1648.74 33.3632 Q1645.05 34.295 1641.65 36.1584 L1641.65 29.2718 Q1645.74 27.692 1649.59 26.9223 Q1653.44 26.1121 1657.08 26.1121 Q1666.93 26.1121 1671.79 31.2163 Q1676.65 36.3204 1676.65 46.6907 Z" fill="#000000" fill-rule="nonzero" fill-opacity="1" /><path clip-path="url(#clip060)" d="M1712.78 48.1085 Q1717.8 49.0808 1720.6 52.0379 Q1723.39 54.9951 1723.39 59.3701 Q1723.39 66.3781 1718.17 70.0644 Q1712.94 73.7508 1703.3 73.7508 Q1700.06 73.7508 1696.62 73.1836 Q1693.22 72.6165 1689.57 71.4823 L1689.57 64.5552 Q1692.45 66.054 1695.89 66.8237 Q1699.33 67.5529 1703.1 67.5529 Q1709.22 67.5529 1712.62 65.2844 Q1716.06 63.0159 1716.06 59.3701 Q1716.06 55.8053 1713.02 53.6583 Q1709.99 51.4708 1704.44 51.4708 L1698.44 51.4708 L1698.44 45.3134 L1704.72 45.3134 Q1709.42 45.3134 1712.13 43.531 Q1714.89 41.7081 1714.89 38.8725 Q1714.89 36.2799 1712.05 34.4165 Q1709.26 32.5531 1704.44 32.5531 Q1701.56 32.5531 1698.28 33.0797 Q1695.04 33.6063 1691.11 34.7811 L1691.11 28.0161 Q1695.08 27.0438 1698.52 26.5577 Q1701.97 26.0716 1705.04 26.0716 Q1712.98 26.0716 1717.56 29.2718 Q1722.18 32.4315 1722.18 38.1433 Q1722.18 41.9107 1719.75 44.5437 Q1717.32 47.1363 1712.78 48.1085 Z" fill="#000000" fill-rule="nonzero" fill-opacity="1" /><path clip-path="url(#clip060)" d="M1753.7 32.4315 Q1747.7 32.4315 1744.22 37.1306 Q1740.73 41.7891 1740.73 49.9314 Q1740.73 58.0738 1744.18 62.7728 Q1747.66 67.4314 1753.7 67.4314 Q1759.65 67.4314 1763.13 62.7323 Q1766.62 58.0333 1766.62 49.9314 Q1766.62 41.8701 1763.13 37.1711 Q1759.65 32.4315 1753.7 32.4315 M1753.7 26.1121 Q1763.42 26.1121 1768.97 32.4315 Q1774.52 38.7509 1774.52 49.9314 Q1774.52 61.0714 1768.97 67.4314 Q1763.42 73.7508 1753.7 73.7508 Q1743.93 73.7508 1738.38 67.4314 Q1732.87 61.0714 1732.87 49.9314 Q1732.87 38.7509 1738.38 32.4315 Q1743.93 26.1121 1753.7 26.1121 Z" fill="#000000" fill-rule="nonzero" fill-opacity="1" /><path clip-path="url(#clip060)" d="M1794.04 51.6733 L1794.04 66.6212 L1804.66 66.6212 Q1809.76 66.6212 1812.43 64.7172 Q1815.11 62.7728 1815.11 59.127 Q1815.11 55.4812 1812.43 53.5773 Q1809.76 51.6733 1804.66 51.6733 L1794.04 51.6733 M1794.04 33.1607 L1794.04 45.7185 L1803.85 45.7185 Q1808.06 45.7185 1810.73 44.0576 Q1813.41 42.3563 1813.41 39.3586 Q1813.41 36.3609 1810.73 34.7811 Q1808.06 33.1607 1803.85 33.1607 L1794.04 33.1607 M1786.59 27.2059 L1804.33 27.2059 Q1812.31 27.2059 1816.61 30.1225 Q1820.9 33.0392 1820.9 38.4269 Q1820.9 42.5993 1818.71 45.0704 Q1816.53 47.5009 1812.23 48.1085 Q1817.38 49.0808 1820.21 52.1594 Q1823.05 55.2381 1823.05 59.8562 Q1823.05 65.9325 1818.35 69.2543 Q1813.69 72.576 1805.02 72.576 L1786.59 72.576 L1786.59 27.2059 Z" fill="#000000" fill-rule="nonzero" fill-opacity="1" /><path clip-path="url(#clip060)" d="M1856.39 49.7694 Q1847.35 49.7694 1843.87 51.8354 Q1840.38 53.9013 1840.38 58.8839 Q1840.38 62.8538 1842.98 65.2034 Q1845.61 67.5124 1850.11 67.5124 Q1856.3 67.5124 1860.03 63.1374 Q1863.8 58.7219 1863.8 51.4303 L1863.8 49.7694 L1856.39 49.7694 M1871.25 46.6907 L1871.25 72.576 L1863.8 72.576 L1863.8 65.6895 Q1861.25 69.8214 1857.44 71.8063 Q1853.63 73.7508 1848.12 73.7508 Q1841.15 73.7508 1837.02 69.8619 Q1832.93 65.9325 1832.93 59.3701 Q1832.93 51.7138 1838.04 47.825 Q1843.18 43.9361 1853.35 43.9361 L1863.8 43.9361 L1863.8 43.2069 Q1863.8 38.0623 1860.4 35.2672 Q1857.03 32.4315 1850.92 32.4315 Q1847.03 32.4315 1843.34 33.3632 Q1839.66 34.295 1836.25 36.1584 L1836.25 29.2718 Q1840.34 27.692 1844.19 26.9223 Q1848.04 26.1121 1851.69 26.1121 Q1861.53 26.1121 1866.39 31.2163 Q1871.25 36.3204 1871.25 46.6907 Z" fill="#000000" fill-rule="nonzero" fill-opacity="1" /><path clip-path="url(#clip060)" d="M1894.1 40.2903 Q1894.1 43.6525 1896.69 45.5565 Q1899.29 47.4604 1904.11 47.4604 L1914.15 47.4604 L1914.15 33.1607 L1904.11 33.1607 Q1899.29 33.1607 1896.69 35.0241 Q1894.1 36.8875 1894.1 40.2903 M1883.49 72.576 L1897.34 52.6861 Q1892.64 51.6328 1889.52 48.8782 Q1886.4 46.0831 1886.4 40.2903 Q1886.4 33.7278 1890.74 30.4871 Q1895.11 27.2059 1903.9 27.2059 L1921.65 27.2059 L1921.65 72.576 L1914.15 72.576 L1914.15 53.4152 L1904.88 53.4152 L1891.51 72.576 L1883.49 72.576 Z" fill="#000000" fill-rule="nonzero" fill-opacity="1" /><path clip-path="url(#clip060)" d="M1973.01 66.6212 L1994.64 66.6212 L1994.64 33.1607 L1978.97 33.1607 L1978.97 38.832 Q1978.97 55.5217 1974.19 64.4337 L1973.01 66.6212 M1962.2 66.6212 Q1965.88 65.0008 1967.5 61.5575 Q1971.47 53.0101 1971.47 35.7938 L1971.47 27.2059 L2002.14 27.2059 L2002.14 66.6212 L2008.09 66.6212 L2008.09 84.0401 L2002.14 84.0401 L2002.14 72.576 L1965.36 72.576 L1965.36 84.0401 L1959.4 84.0401 L1959.4 66.6212 L1962.2 66.6212 Z" fill="#000000" fill-rule="nonzero" fill-opacity="1" /><path clip-path="url(#clip060)" d="M2058.81 27.2059 L2058.81 72.576 L2051.4 72.576 L2051.4 36.1584 L2029.52 72.576 L2019.96 72.576 L2019.96 27.2059 L2027.37 27.2059 L2027.37 63.5425 L2049.21 27.2059 L2058.81 27.2059 Z" fill="#000000" fill-rule="nonzero" fill-opacity="1" /><path clip-path="url(#clip060)" d="M2073.88 27.2059 L2081.37 27.2059 L2081.37 45.7185 L2105.56 45.7185 L2105.56 27.2059 L2113.05 27.2059 L2113.05 72.576 L2105.56 72.576 L2105.56 51.6733 L2081.37 51.6733 L2081.37 72.576 L2073.88 72.576 L2073.88 27.2059 Z" fill="#000000" fill-rule="nonzero" fill-opacity="1" /><path clip-path="url(#clip060)" d="M2149.02 49.7694 Q2139.99 49.7694 2136.51 51.8354 Q2133.02 53.9013 2133.02 58.8839 Q2133.02 62.8538 2135.61 65.2034 Q2138.25 67.5124 2142.74 67.5124 Q2148.94 67.5124 2152.67 63.1374 Q2156.44 58.7219 2156.44 51.4303 L2156.44 49.7694 L2149.02 49.7694 M2163.89 46.6907 L2163.89 72.576 L2156.44 72.576 L2156.44 65.6895 Q2153.88 69.8214 2150.08 71.8063 Q2146.27 73.7508 2140.76 73.7508 Q2133.79 73.7508 2129.66 69.8619 Q2125.57 65.9325 2125.57 59.3701 Q2125.57 51.7138 2130.67 47.825 Q2135.82 43.9361 2145.99 43.9361 L2156.44 43.9361 L2156.44 43.2069 Q2156.44 38.0623 2153.03 35.2672 Q2149.67 32.4315 2143.55 32.4315 Q2139.67 32.4315 2135.98 33.3632 Q2132.29 34.295 2128.89 36.1584 L2128.89 29.2718 Q2132.98 27.692 2136.83 26.9223 Q2140.68 26.1121 2144.32 26.1121 Q2154.17 26.1121 2159.03 31.2163 Q2163.89 36.3204 2163.89 46.6907 Z" fill="#000000" fill-rule="nonzero" fill-opacity="1" /><path clip-path="url(#clip060)" d="M2178.96 27.2059 L2189.86 27.2059 L2202.74 57.5877 L2215.66 27.2059 L2226.48 27.2059 L2226.48 72.576 L2218.98 72.576 L2218.98 34.3355 L2206.47 63.8666 L2199.01 63.8666 L2186.45 34.3355 L2186.45 72.576 L2178.96 72.576 L2178.96 27.2059 Z" fill="#000000" fill-rule="nonzero" fill-opacity="1" /><path clip-path="url(#clip060)" d="M2280.39 27.2059 L2280.39 72.576 L2272.98 72.576 L2272.98 36.1584 L2251.11 72.576 L2241.55 72.576 L2241.55 27.2059 L2248.96 27.2059 L2248.96 63.5425 L2270.79 27.2059 L2280.39 27.2059 Z" fill="#000000" fill-rule="nonzero" fill-opacity="1" /><path clip-path="url(#clip060)" d="M2295.46 27.2059 L2302.88 27.2059 L2302.88 48.5136 L2323.9 27.2059 L2333.06 27.2059 L2315.72 44.7463 L2335.28 72.576 L2326.94 72.576 L2310.86 49.6884 L2302.88 57.7902 L2302.88 72.576 L2295.46 72.576 L2295.46 27.2059 Z" fill="#000000" fill-rule="nonzero" fill-opacity="1" /><path clip-path="url(#clip060)" d="M2366.48 49.7694 Q2357.44 49.7694 2353.96 51.8354 Q2350.47 53.9013 2350.47 58.8839 Q2350.47 62.8538 2353.07 65.2034 Q2355.7 67.5124 2360.2 67.5124 Q2366.39 67.5124 2370.12 63.1374 Q2373.89 58.7219 2373.89 51.4303 L2373.89 49.7694 L2366.48 49.7694 M2381.34 46.6907 L2381.34 72.576 L2373.89 72.576 L2373.89 65.6895 Q2371.34 69.8214 2367.53 71.8063 Q2363.72 73.7508 2358.21 73.7508 Q2351.24 73.7508 2347.11 69.8619 Q2343.02 65.9325 2343.02 59.3701 Q2343.02 51.7138 2348.13 47.825 Q2353.27 43.9361 2363.44 43.9361 L2373.89 43.9361 L2373.89 43.2069 Q2373.89 38.0623 2370.49 35.2672 Q2367.12 32.4315 2361.01 32.4315 Q2357.12 32.4315 2353.43 33.3632 Q2349.75 34.295 2346.34 36.1584 L2346.34 29.2718 Q2350.43 27.692 2354.28 26.9223 Q2358.13 26.1121 2361.78 26.1121 Q2371.62 26.1121 2376.48 31.2163 Q2381.34 36.3204 2381.34 46.6907 Z" fill="#000000" fill-rule="nonzero" fill-opacity="1" /><polyline clip-path="url(#clip061)" style="stroke:#009af9; stroke-linecap:round; stroke-linejoin:round; stroke-width:8; stroke-opacity:1; fill:none" points="349.237,167.936 356.042,168.75 385.514,172.508 443.951,181.205 526.853,196.949 633.752,224.804 769.773,276.654 938.857,374.767 1144.8,550.797 1388.95,809.399 1647.77,1058.07 1943.12,1245.07 2283.77,1356.15 2615.1,1406.39 3071.1,1435.21 "/>
<polyline clip-path="url(#clip061)" style="stroke:#e26f46; stroke-linecap:round; stroke-linejoin:round; stroke-width:8; stroke-opacity:1; fill:none" points="349.237,1759.82 356.042,1759.42 385.514,1757.56 443.951,1753.28 526.853,1745.6 633.752,1732.2 769.773,1707.96 938.857,1664.81 1144.8,1597.8 1388.95,1531.74 1647.77,1524.6 1943.12,1582.65 2283.77,1662.18 2615.1,1715.43 3071.1,1752.56 "/>
<polyline clip-path="url(#clip061)" style="stroke:#3da44d; stroke-linecap:round; stroke-linejoin:round; stroke-width:8; stroke-opacity:1; fill:none" points="349.237,1776.07 356.042,1775.65 385.514,1773.75 443.951,1769.34 526.853,1761.28 633.752,1746.82 769.773,1719.21 938.857,1664.25 1144.8,1555.22 1388.95,1362.69 1647.77,1121.15 1943.12,876.104 2283.77,685.492 2615.1,582.008 3071.1,516.063 "/>
<path clip-path="url(#clip060)" d="M2676.9 1106.58 L3056.58 1106.58 L3056.58 899.222 L2676.9 899.222  Z" fill="#ffffff" fill-rule="evenodd" fill-opacity="1"/>
<polyline clip-path="url(#clip060)" style="stroke:#000000; stroke-linecap:round; stroke-linejoin:round; stroke-width:4; stroke-opacity:1; fill:none" points="2676.9,1106.58 3056.58,1106.58 3056.58,899.222 2676.9,899.222 2676.9,1106.58 "/>
<polyline clip-path="url(#clip060)" style="stroke:#009af9; stroke-linecap:round; stroke-linejoin:round; stroke-width:8; stroke-opacity:1; fill:none" points="2708.96,951.062 2901.3,951.062 "/>
<path clip-path="url(#clip060)" d="M2961.82 929.606 L2959.22 940.1 Q2959.08 940.732 2958.96 940.896 Q2958.84 941.06 2958.52 941.06 Q2958.26 941.06 2958.09 940.943 Q2957.95 940.826 2957.95 940.709 L2957.93 940.592 Q2957.93 940.521 2957.98 940.17 Q2958.02 939.795 2958.07 939.186 Q2958.12 938.577 2958.12 937.898 Q2958.12 934.057 2956.24 932.277 Q2954.39 930.473 2951.21 930.473 Q2949.01 930.473 2947.04 931.644 Q2945.07 932.815 2943.95 934.666 Q2942.82 936.493 2942.82 938.413 Q2942.82 940.17 2943.71 941.294 Q2944.6 942.419 2945.75 942.793 L2948.96 943.66 Q2952.33 944.527 2953.29 944.901 Q2954.25 945.253 2955.05 946.049 Q2957.42 948.251 2957.42 951.67 Q2957.42 954.622 2955.75 957.479 Q2954.09 960.313 2951.23 962.164 Q2948.37 963.991 2945.21 963.991 Q2939.66 963.991 2937.11 960.547 L2934.77 963.264 Q2934.32 963.78 2934.18 963.873 Q2934.06 963.991 2933.9 963.991 Q2933.69 963.991 2933.52 963.85 Q2933.36 963.733 2933.36 963.522 Q2933.36 963.358 2934.74 957.854 Q2936.12 952.35 2936.24 952.233 Q2936.43 952.045 2936.73 952.045 Q2937.3 952.045 2937.3 952.584 Q2937.25 952.724 2937.2 952.912 Q2936.92 954.598 2936.92 955.512 Q2936.92 957.221 2937.51 958.533 Q2938.09 959.821 2938.96 960.571 Q2939.85 961.297 2941.04 961.765 Q2942.24 962.21 2943.24 962.374 Q2944.25 962.515 2945.31 962.515 Q2947.58 962.515 2949.59 961.203 Q2951.63 959.892 2952.78 957.854 Q2953.95 955.816 2953.95 953.685 Q2953.95 952.56 2953.64 951.694 Q2953.34 950.804 2952.92 950.312 Q2952.52 949.82 2951.84 949.445 Q2951.16 949.07 2950.69 948.93 Q2950.25 948.766 2949.55 948.602 L2944.42 947.244 Q2942.35 946.635 2940.88 944.878 Q2939.43 943.121 2939.43 940.428 Q2939.43 937.593 2941.09 934.97 Q2942.78 932.323 2945.52 930.731 Q2948.28 929.115 2951.26 929.115 Q2953.6 929.115 2955.4 930.028 Q2957.2 930.918 2958.12 932.581 L2960.44 929.841 Q2960.91 929.302 2961 929.208 Q2961.12 929.115 2961.28 929.115 Q2961.56 929.115 2961.68 929.279 Q2961.82 929.442 2961.82 929.606 Z" fill="#000000" fill-rule="nonzero" fill-opacity="1" /><path clip-path="url(#clip060)" d="M2967.27 950.944 Q2967.27 942.84 2970.29 936.305 Q2971.58 933.565 2973.38 931.269 Q2975.18 928.974 2976.38 927.967 Q2977.57 926.96 2977.9 926.96 Q2978.37 926.96 2978.39 927.428 Q2978.39 927.662 2977.76 928.248 Q2970.03 936.118 2970.06 950.944 Q2970.06 965.818 2977.57 973.383 Q2978.39 974.203 2978.39 974.46 Q2978.39 974.929 2977.9 974.929 Q2977.57 974.929 2976.43 973.969 Q2975.28 973.008 2973.5 970.807 Q2971.72 968.605 2970.43 965.911 Q2967.27 959.376 2967.27 950.944 Z" fill="#000000" fill-rule="nonzero" fill-opacity="1" /><path clip-path="url(#clip060)" d="M2996.77 942.793 Q2996.77 943.449 2996.46 943.613 Q2996.16 943.754 2995.32 943.754 L2990.82 943.754 L2987.26 957.901 Q2986.98 959.142 2986.98 960.196 Q2986.98 961.367 2987.33 961.883 Q2987.7 962.398 2988.48 962.398 Q2990 962.398 2991.64 961.016 Q2993.3 959.634 2994.71 956.261 Q2994.89 955.816 2994.99 955.722 Q2995.11 955.605 2995.41 955.605 Q2996 955.605 2996 956.074 Q2996 956.238 2995.67 956.987 Q2995.36 957.737 2994.68 958.838 Q2994.03 959.939 2993.16 960.969 Q2992.32 962 2991.03 962.749 Q2989.74 963.475 2988.36 963.475 Q2986.42 963.475 2985.17 962.234 Q2983.96 960.993 2983.96 959.048 Q2983.96 958.416 2984.45 956.402 Q2984.94 954.364 2987.61 943.754 L2983.37 943.754 Q2982.79 943.754 2982.55 943.73 Q2982.34 943.707 2982.18 943.59 Q2982.04 943.449 2982.04 943.168 Q2982.04 942.723 2982.22 942.536 Q2982.41 942.325 2982.64 942.301 Q2982.9 942.255 2983.49 942.255 L2987.98 942.255 L2989.86 934.642 Q2990.05 933.893 2990.51 933.471 Q2991.01 933.026 2991.29 932.979 Q2991.57 932.909 2991.78 932.909 Q2992.41 932.909 2992.79 933.26 Q2993.16 933.588 2993.16 934.197 Q2993.16 934.525 2991.19 942.255 L2995.41 942.255 Q2995.95 942.255 2996.16 942.278 Q2996.39 942.301 2996.58 942.419 Q2996.77 942.536 2996.77 942.793 Z" fill="#000000" fill-rule="nonzero" fill-opacity="1" /><path clip-path="url(#clip060)" d="M3000.52 974.46 Q3000.52 974.226 3001.13 973.641 Q3008.86 965.771 3008.86 950.944 Q3008.86 936.071 3001.43 928.552 Q3000.52 927.686 3000.52 927.428 Q3000.52 926.96 3000.99 926.96 Q3001.32 926.96 3002.46 927.92 Q3003.63 928.88 3005.39 931.082 Q3007.17 933.284 3008.48 935.977 Q3011.65 942.512 3011.65 950.944 Q3011.65 959.048 3008.62 965.583 Q3007.34 968.324 3005.53 970.619 Q3003.73 972.915 3002.53 973.922 Q3001.34 974.929 3000.99 974.929 Q3000.52 974.929 3000.52 974.46 Z" fill="#000000" fill-rule="nonzero" fill-opacity="1" /><polyline clip-path="url(#clip060)" style="stroke:#e26f46; stroke-linecap:round; stroke-linejoin:round; stroke-width:8; stroke-opacity:1; fill:none" points="2708.96,1002.9 2901.3,1002.9 "/>
<path clip-path="url(#clip060)" d="M2955.56 982.594 Q2955.56 983.039 2955.38 983.25 Q2955.21 983.437 2954.96 983.484 Q2954.7 983.508 2954.02 983.508 Q2952.87 983.508 2952.15 983.601 Q2951.42 983.672 2950.97 983.789 Q2950.53 983.882 2950.27 984.21 Q2950.04 984.515 2949.92 984.796 Q2949.83 985.077 2949.66 985.709 L2943.24 1011.26 Q2943.03 1012.01 2943.03 1012.39 Q2943.03 1012.79 2943.27 1012.95 Q2943.5 1013.11 2944.25 1013.18 Q2945.45 1013.3 2946.31 1013.3 Q2947.46 1013.3 2947.62 1013.46 Q2947.74 1013.63 2947.74 1013.86 Q2947.74 1014.28 2947.55 1014.52 Q2947.37 1014.73 2947.2 1014.75 Q2947.06 1014.78 2946.78 1014.78 L2940.36 1014.64 L2934.06 1014.78 Q2933.36 1014.78 2933.36 1014.24 Q2933.36 1013.89 2933.41 1013.7 Q2933.48 1013.49 2933.71 1013.42 Q2933.97 1013.32 2934.16 1013.32 Q2934.34 1013.3 2934.88 1013.3 Q2935.84 1013.3 2936.48 1013.28 Q2937.13 1013.23 2937.6 1013.11 Q2938.09 1012.97 2938.33 1012.86 Q2938.58 1012.72 2938.77 1012.41 Q2938.98 1012.08 2939.05 1011.83 Q2939.15 1011.57 2939.26 1011.03 L2945.73 985.171 Q2945.82 984.749 2945.82 984.421 Q2945.82 983.789 2945.07 983.648 Q2944.35 983.508 2942.52 983.508 Q2941.96 983.508 2941.72 983.484 Q2941.51 983.461 2941.32 983.344 Q2941.16 983.227 2941.16 982.969 Q2941.16 982.641 2941.25 982.43 Q2941.35 982.196 2941.51 982.126 Q2941.7 982.055 2941.82 982.032 Q2941.93 982.009 2942.12 982.009 L2948.51 982.149 L2954.84 982.009 Q2955.56 982.009 2955.56 982.594 Z" fill="#000000" fill-rule="nonzero" fill-opacity="1" /><path clip-path="url(#clip060)" d="M2960.98 1002.78 Q2960.98 994.68 2964 988.145 Q2965.29 985.405 2967.09 983.109 Q2968.89 980.814 2970.09 979.807 Q2971.28 978.8 2971.61 978.8 Q2972.08 978.8 2972.1 979.268 Q2972.1 979.502 2971.47 980.088 Q2963.74 987.958 2963.76 1002.78 Q2963.76 1017.66 2971.28 1025.22 Q2972.1 1026.04 2972.1 1026.3 Q2972.1 1026.77 2971.61 1026.77 Q2971.28 1026.77 2970.14 1025.81 Q2968.99 1024.85 2967.21 1022.65 Q2965.43 1020.44 2964.14 1017.75 Q2960.98 1011.22 2960.98 1002.78 Z" fill="#000000" fill-rule="nonzero" fill-opacity="1" /><path clip-path="url(#clip060)" d="M2990.48 994.633 Q2990.48 995.289 2990.17 995.453 Q2989.87 995.594 2989.03 995.594 L2984.53 995.594 L2980.97 1009.74 Q2980.69 1010.98 2980.69 1012.04 Q2980.69 1013.21 2981.04 1013.72 Q2981.41 1014.24 2982.19 1014.24 Q2983.71 1014.24 2985.35 1012.86 Q2987.01 1011.47 2988.42 1008.1 Q2988.6 1007.66 2988.7 1007.56 Q2988.81 1007.45 2989.12 1007.45 Q2989.71 1007.45 2989.71 1007.91 Q2989.71 1008.08 2989.38 1008.83 Q2989.07 1009.58 2988.39 1010.68 Q2987.74 1011.78 2986.87 1012.81 Q2986.03 1013.84 2984.74 1014.59 Q2983.45 1015.32 2982.07 1015.32 Q2980.13 1015.32 2978.88 1014.07 Q2977.67 1012.83 2977.67 1010.89 Q2977.67 1010.26 2978.16 1008.24 Q2978.65 1006.2 2981.32 995.594 L2977.08 995.594 Q2976.49 995.594 2976.26 995.57 Q2976.05 995.547 2975.89 995.43 Q2975.75 995.289 2975.75 995.008 Q2975.75 994.563 2975.93 994.376 Q2976.12 994.165 2976.35 994.141 Q2976.61 994.095 2977.2 994.095 L2981.69 994.095 L2983.57 986.482 Q2983.76 985.733 2984.22 985.311 Q2984.72 984.866 2985 984.819 Q2985.28 984.749 2985.49 984.749 Q2986.12 984.749 2986.5 985.1 Q2986.87 985.428 2986.87 986.037 Q2986.87 986.365 2984.9 994.095 L2989.12 994.095 Q2989.66 994.095 2989.87 994.118 Q2990.1 994.141 2990.29 994.259 Q2990.48 994.376 2990.48 994.633 Z" fill="#000000" fill-rule="nonzero" fill-opacity="1" /><path clip-path="url(#clip060)" d="M2994.23 1026.3 Q2994.23 1026.07 2994.84 1025.48 Q3002.57 1017.61 3002.57 1002.78 Q3002.57 987.911 2995.14 980.392 Q2994.23 979.526 2994.23 979.268 Q2994.23 978.8 2994.7 978.8 Q2995.03 978.8 2996.17 979.76 Q2997.34 980.72 2999.1 982.922 Q3000.88 985.124 3002.19 987.817 Q3005.35 994.352 3005.35 1002.78 Q3005.35 1010.89 3002.33 1017.42 Q3001.05 1020.16 2999.24 1022.46 Q2997.44 1024.75 2996.24 1025.76 Q2995.05 1026.77 2994.7 1026.77 Q2994.23 1026.77 2994.23 1026.3 Z" fill="#000000" fill-rule="nonzero" fill-opacity="1" /><polyline clip-path="url(#clip060)" style="stroke:#3da44d; stroke-linecap:round; stroke-linejoin:round; stroke-width:8; stroke-opacity:1; fill:none" points="2708.96,1054.74 2901.3,1054.74 "/>
<path clip-path="url(#clip060)" d="M2962.38 1040.08 Q2962.38 1039.31 2962.17 1038.67 Q2961.98 1038.02 2961.68 1037.57 Q2961.4 1037.1 2960.86 1036.75 Q2960.32 1036.38 2959.87 1036.14 Q2959.43 1035.91 2958.68 1035.77 Q2957.93 1035.61 2957.44 1035.53 Q2956.95 1035.44 2956.1 1035.39 Q2955.26 1035.35 2954.84 1035.35 Q2954.44 1035.35 2953.64 1035.35 Q2951.14 1035.35 2950.72 1035.39 Q2950.08 1035.49 2949.85 1035.86 Q2949.62 1036.21 2949.38 1037.17 L2946.27 1049.68 L2951.63 1049.68 Q2954.56 1049.68 2956.57 1048.86 Q2958.59 1048.04 2959.73 1046.89 Q2961 1045.63 2961.68 1043.59 Q2962.38 1041.55 2962.38 1040.08 M2967.6 1062.17 Q2967.6 1062.42 2967.39 1063.01 Q2967.21 1063.6 2966.74 1064.41 Q2966.27 1065.21 2965.64 1065.94 Q2965 1066.66 2964 1067.16 Q2962.99 1067.67 2961.84 1067.67 Q2961.56 1067.67 2961.28 1067.65 Q2961 1067.65 2960.3 1067.53 Q2959.62 1067.44 2959.05 1067.25 Q2958.49 1067.09 2957.79 1066.69 Q2957.09 1066.31 2956.6 1065.8 Q2956.13 1065.26 2955.8 1064.41 Q2955.47 1063.55 2955.47 1062.49 Q2955.47 1061.56 2956.24 1058.42 Q2956.92 1055.75 2956.92 1055.09 Q2956.92 1054.37 2956.69 1053.69 Q2956.48 1053.01 2955.94 1052.31 Q2955.42 1051.6 2954.32 1051.18 Q2953.22 1050.74 2951.68 1050.74 L2945.99 1050.74 L2942.8 1063.45 Q2942.8 1063.48 2942.73 1063.81 Q2942.66 1064.11 2942.66 1064.27 Q2942.66 1064.58 2942.85 1064.77 Q2943.06 1064.95 2943.57 1065.05 Q2944.09 1065.12 2944.49 1065.14 Q2944.91 1065.14 2945.77 1065.14 Q2946.85 1065.14 2947.04 1065.33 Q2947.13 1065.45 2947.13 1065.66 Q2947.13 1065.98 2947.04 1066.22 Q2946.97 1066.43 2946.78 1066.5 Q2946.62 1066.57 2946.5 1066.59 Q2946.38 1066.62 2946.17 1066.62 L2940.08 1066.48 L2934.04 1066.62 Q2933.36 1066.62 2933.36 1066.08 Q2933.36 1065.61 2933.52 1065.42 Q2933.69 1065.21 2933.9 1065.19 Q2934.11 1065.14 2934.65 1065.14 Q2935.82 1065.14 2936.52 1065.07 Q2937.23 1065 2937.67 1064.91 Q2938.14 1064.79 2938.37 1064.46 Q2938.63 1064.13 2938.75 1063.85 Q2938.86 1063.55 2939.03 1062.87 L2945.45 1037.1 Q2945.63 1036.33 2945.63 1036.21 Q2945.63 1035.77 2945.35 1035.65 Q2945.1 1035.51 2944.35 1035.44 L2942.52 1035.35 Q2941.96 1035.35 2941.72 1035.32 Q2941.51 1035.3 2941.35 1035.18 Q2941.18 1035.07 2941.18 1034.81 Q2941.18 1034.15 2941.46 1034.01 Q2941.75 1033.85 2942.57 1033.85 L2956.24 1033.85 Q2960.91 1033.85 2963.86 1035.89 Q2966.83 1037.92 2966.83 1041.04 Q2966.83 1042.44 2966.2 1043.76 Q2965.57 1045.07 2964.51 1046.1 Q2963.48 1047.13 2962.1 1048 Q2960.72 1048.84 2959.24 1049.42 Q2957.79 1049.99 2956.29 1050.31 Q2956.95 1050.55 2957.56 1050.9 Q2958.19 1051.25 2958.98 1051.91 Q2959.8 1052.56 2960.3 1053.62 Q2960.79 1054.67 2960.79 1055.96 Q2960.79 1056.87 2960.6 1058.23 Q2960.13 1062.1 2960.13 1063.69 Q2960.13 1065.21 2960.53 1065.91 Q2960.93 1066.62 2962.05 1066.62 Q2963.15 1066.62 2964.37 1065.63 Q2965.61 1064.63 2966.41 1062.26 Q2966.6 1061.58 2967.04 1061.58 Q2967.07 1061.58 2967.09 1061.58 Q2967.14 1061.58 2967.23 1061.63 Q2967.32 1061.65 2967.39 1061.72 Q2967.49 1061.77 2967.53 1061.89 Q2967.6 1062 2967.6 1062.17 Z" fill="#000000" fill-rule="nonzero" fill-opacity="1" /><path clip-path="url(#clip060)" d="M2972.86 1054.62 Q2972.86 1046.52 2975.88 1039.99 Q2977.17 1037.24 2978.97 1034.95 Q2980.78 1032.65 2981.97 1031.65 Q2983.16 1030.64 2983.49 1030.64 Q2983.96 1030.64 2983.98 1031.11 Q2983.98 1031.34 2983.35 1031.93 Q2975.62 1039.8 2975.65 1054.62 Q2975.65 1069.5 2983.16 1077.06 Q2983.98 1077.88 2983.98 1078.14 Q2983.98 1078.61 2983.49 1078.61 Q2983.16 1078.61 2982.02 1077.65 Q2980.87 1076.69 2979.09 1074.49 Q2977.31 1072.28 2976.02 1069.59 Q2972.86 1063.06 2972.86 1054.62 Z" fill="#000000" fill-rule="nonzero" fill-opacity="1" /><path clip-path="url(#clip060)" d="M3002.36 1046.47 Q3002.36 1047.13 3002.05 1047.29 Q3001.75 1047.43 3000.91 1047.43 L2996.41 1047.43 L2992.85 1061.58 Q2992.57 1062.82 2992.57 1063.88 Q2992.57 1065.05 2992.92 1065.56 Q2993.29 1066.08 2994.07 1066.08 Q2995.59 1066.08 2997.23 1064.7 Q2998.89 1063.31 3000.3 1059.94 Q3000.49 1059.5 3000.58 1059.4 Q3000.7 1059.29 3001 1059.29 Q3001.59 1059.29 3001.59 1059.75 Q3001.59 1059.92 3001.26 1060.67 Q3000.95 1061.42 3000.27 1062.52 Q2999.62 1063.62 2998.75 1064.65 Q2997.91 1065.68 2996.62 1066.43 Q2995.33 1067.16 2993.95 1067.16 Q2992.01 1067.16 2990.77 1065.91 Q2989.55 1064.67 2989.55 1062.73 Q2989.55 1062.1 2990.04 1060.08 Q2990.53 1058.04 2993.2 1047.43 L2988.96 1047.43 Q2988.38 1047.43 2988.14 1047.41 Q2987.93 1047.39 2987.77 1047.27 Q2987.63 1047.13 2987.63 1046.85 Q2987.63 1046.4 2987.81 1046.22 Q2988 1046 2988.24 1045.98 Q2988.49 1045.93 2989.08 1045.93 L2993.58 1045.93 L2995.45 1038.32 Q2995.64 1037.57 2996.11 1037.15 Q2996.6 1036.71 2996.88 1036.66 Q2997.16 1036.59 2997.37 1036.59 Q2998 1036.59 2998.38 1036.94 Q2998.75 1037.27 2998.75 1037.88 Q2998.75 1038.21 2996.78 1045.93 L3001 1045.93 Q3001.54 1045.93 3001.75 1045.96 Q3001.98 1045.98 3002.17 1046.1 Q3002.36 1046.22 3002.36 1046.47 Z" fill="#000000" fill-rule="nonzero" fill-opacity="1" /><path clip-path="url(#clip060)" d="M3006.11 1078.14 Q3006.11 1077.91 3006.72 1077.32 Q3014.45 1069.45 3014.45 1054.62 Q3014.45 1039.75 3007.02 1032.23 Q3006.11 1031.37 3006.11 1031.11 Q3006.11 1030.64 3006.58 1030.64 Q3006.91 1030.64 3008.05 1031.6 Q3009.23 1032.56 3010.98 1034.76 Q3012.76 1036.96 3014.07 1039.66 Q3017.24 1046.19 3017.24 1054.62 Q3017.24 1062.73 3014.21 1069.26 Q3012.93 1072 3011.12 1074.3 Q3009.32 1076.59 3008.12 1077.6 Q3006.93 1078.61 3006.58 1078.61 Q3006.11 1078.61 3006.11 1078.14 Z" fill="#000000" fill-rule="nonzero" fill-opacity="1" /><path clip-path="url(#clip060)" d="M2274.12 380.005 Q2274.12 376.787 2272.3 375.237 Q2270.49 373.662 2266.72 373.662 L2259.22 373.662 L2259.22 386.324 L2266.72 386.324 Q2270.49 386.324 2272.3 384.774 Q2274.12 383.199 2274.12 380.005 M2276.62 355.607 L2276.62 359.45 L2259.22 359.45 L2259.22 369.82 L2266.95 369.82 Q2272.76 369.82 2275.91 372.343 Q2279.05 374.866 2279.05 380.005 Q2279.05 385.121 2276 387.644 Q2272.97 390.167 2266.95 390.167 L2254.54 390.167 L2254.54 355.607 L2276.62 355.607 Z" fill="#000000" fill-rule="nonzero" fill-opacity="1" /><path clip-path="url(#clip060)" d="M2298.66 377.135 Q2293.5 377.135 2291.51 378.315 Q2289.52 379.496 2289.52 382.343 Q2289.52 384.611 2291 385.954 Q2292.5 387.274 2295.07 387.274 Q2298.61 387.274 2300.74 384.774 Q2302.9 382.25 2302.9 378.084 L2302.9 377.135 L2298.66 377.135 M2307.16 375.375 L2307.16 390.167 L2302.9 390.167 L2302.9 386.232 Q2301.44 388.593 2299.26 389.727 Q2297.09 390.838 2293.94 390.838 Q2289.96 390.838 2287.6 388.616 Q2285.26 386.371 2285.26 382.621 Q2285.26 378.246 2288.18 376.024 Q2291.12 373.801 2296.93 373.801 L2302.9 373.801 L2302.9 373.385 Q2302.9 370.445 2300.95 368.848 Q2299.03 367.227 2295.54 367.227 Q2293.31 367.227 2291.21 367.76 Q2289.1 368.292 2287.16 369.357 L2287.16 365.422 Q2289.49 364.519 2291.69 364.079 Q2293.89 363.616 2295.98 363.616 Q2301.6 363.616 2304.38 366.533 Q2307.16 369.45 2307.16 375.375 Z" fill="#000000" fill-rule="nonzero" fill-opacity="1" /><path clip-path="url(#clip060)" d="M2327.8 376.186 Q2330.67 376.741 2332.27 378.431 Q2333.87 380.121 2333.87 382.621 Q2333.87 386.625 2330.88 388.732 Q2327.9 390.838 2322.39 390.838 Q2320.54 390.838 2318.57 390.514 Q2316.62 390.19 2314.54 389.542 L2314.54 385.584 Q2316.18 386.44 2318.15 386.88 Q2320.12 387.297 2322.27 387.297 Q2325.77 387.297 2327.71 386 Q2329.68 384.704 2329.68 382.621 Q2329.68 380.584 2327.94 379.357 Q2326.21 378.107 2323.04 378.107 L2319.61 378.107 L2319.61 374.588 L2323.2 374.588 Q2325.88 374.588 2327.43 373.57 Q2329.01 372.528 2329.01 370.908 Q2329.01 369.426 2327.39 368.362 Q2325.79 367.297 2323.04 367.297 Q2321.39 367.297 2319.52 367.598 Q2317.67 367.899 2315.42 368.57 L2315.42 364.704 Q2317.69 364.149 2319.66 363.871 Q2321.62 363.593 2323.38 363.593 Q2327.92 363.593 2330.54 365.422 Q2333.17 367.227 2333.17 370.491 Q2333.17 372.644 2331.79 374.149 Q2330.4 375.63 2327.8 376.186 Z" fill="#000000" fill-rule="nonzero" fill-opacity="1" /><path clip-path="url(#clip060)" d="M2351.18 367.227 Q2347.76 367.227 2345.77 369.912 Q2343.78 372.575 2343.78 377.227 Q2343.78 381.88 2345.74 384.565 Q2347.74 387.227 2351.18 387.227 Q2354.59 387.227 2356.58 384.542 Q2358.57 381.857 2358.57 377.227 Q2358.57 372.621 2356.58 369.936 Q2354.59 367.227 2351.18 367.227 M2351.18 363.616 Q2356.74 363.616 2359.91 367.227 Q2363.08 370.838 2363.08 377.227 Q2363.08 383.593 2359.91 387.227 Q2356.74 390.838 2351.18 390.838 Q2345.61 390.838 2342.43 387.227 Q2339.29 383.593 2339.29 377.227 Q2339.29 370.838 2342.43 367.227 Q2345.61 363.616 2351.18 363.616 Z" fill="#000000" fill-rule="nonzero" fill-opacity="1" /><path clip-path="url(#clip060)" d="M2374.24 378.223 L2374.24 386.764 L2380.3 386.764 Q2383.22 386.764 2384.75 385.676 Q2386.28 384.565 2386.28 382.482 Q2386.28 380.399 2384.75 379.311 Q2383.22 378.223 2380.3 378.223 L2374.24 378.223 M2374.24 367.644 L2374.24 374.82 L2379.84 374.82 Q2382.25 374.82 2383.78 373.871 Q2385.3 372.899 2385.3 371.186 Q2385.3 369.473 2383.78 368.57 Q2382.25 367.644 2379.84 367.644 L2374.24 367.644 M2369.98 364.241 L2380.12 364.241 Q2384.68 364.241 2387.13 365.908 Q2389.59 367.575 2389.59 370.653 Q2389.59 373.037 2388.34 374.45 Q2387.09 375.838 2384.63 376.186 Q2387.57 376.741 2389.19 378.5 Q2390.81 380.26 2390.81 382.899 Q2390.81 386.371 2388.13 388.269 Q2385.47 390.167 2380.51 390.167 L2369.98 390.167 L2369.98 364.241 Z" fill="#000000" fill-rule="nonzero" fill-opacity="1" /><path clip-path="url(#clip060)" d="M2422.57 364.241 L2426.83 364.241 L2426.83 390.167 L2422.57 390.167 L2422.57 364.241 M2424.7 363.616 L2424.7 363.616 M2414.22 382.482 Q2414.22 380.399 2412.69 379.311 Q2411.18 378.223 2408.27 378.223 L2402.2 378.223 L2402.2 386.764 L2408.27 386.764 Q2411.18 386.764 2412.69 385.676 Q2414.22 384.565 2414.22 382.482 M2397.92 364.241 L2402.2 364.241 L2402.2 374.82 L2408.45 374.82 Q2413.41 374.82 2416.07 376.718 Q2418.75 378.593 2418.75 382.482 Q2418.75 386.371 2416.07 388.269 Q2413.41 390.167 2408.45 390.167 L2397.92 390.167 L2397.92 364.241 Z" fill="#000000" fill-rule="nonzero" fill-opacity="1" /><path clip-path="url(#clip060)" d="M2457.69 376.139 L2457.69 378.223 L2438.1 378.223 Q2438.38 382.621 2440.74 384.936 Q2443.13 387.227 2447.36 387.227 Q2449.82 387.227 2452.11 386.625 Q2454.42 386.024 2456.69 384.82 L2456.69 388.848 Q2454.4 389.82 2451.99 390.329 Q2449.59 390.838 2447.11 390.838 Q2440.91 390.838 2437.27 387.227 Q2433.66 383.616 2433.66 377.459 Q2433.66 371.093 2437.09 367.366 Q2440.54 363.616 2446.37 363.616 Q2451.6 363.616 2454.63 366.996 Q2457.69 370.352 2457.69 376.139 M2453.43 374.889 Q2453.38 371.394 2451.46 369.311 Q2449.56 367.227 2446.42 367.227 Q2442.85 367.227 2440.7 369.241 Q2438.57 371.255 2438.24 374.912 L2453.43 374.889 Z" fill="#000000" fill-rule="nonzero" fill-opacity="1" /><path clip-path="url(#clip060)" d="M2501.97 364.241 L2501.97 390.167 L2497.69 390.167 L2497.69 367.644 L2483.87 367.644 L2483.87 390.167 L2479.59 390.167 L2479.59 364.241 L2501.97 364.241 Z" fill="#000000" fill-rule="nonzero" fill-opacity="1" /><path clip-path="url(#clip060)" d="M2522.53 377.135 Q2517.36 377.135 2515.37 378.315 Q2513.38 379.496 2513.38 382.343 Q2513.38 384.611 2514.86 385.954 Q2516.37 387.274 2518.94 387.274 Q2522.48 387.274 2524.61 384.774 Q2526.76 382.25 2526.76 378.084 L2526.76 377.135 L2522.53 377.135 M2531.02 375.375 L2531.02 390.167 L2526.76 390.167 L2526.76 386.232 Q2525.3 388.593 2523.13 389.727 Q2520.95 390.838 2517.8 390.838 Q2513.82 390.838 2511.46 388.616 Q2509.12 386.371 2509.12 382.621 Q2509.12 378.246 2512.04 376.024 Q2514.98 373.801 2520.79 373.801 L2526.76 373.801 L2526.76 373.385 Q2526.76 370.445 2524.82 368.848 Q2522.9 367.227 2519.4 367.227 Q2517.18 367.227 2515.07 367.76 Q2512.97 368.292 2511.02 369.357 L2511.02 365.422 Q2513.36 364.519 2515.56 364.079 Q2517.76 363.616 2519.84 363.616 Q2525.47 363.616 2528.24 366.533 Q2531.02 369.45 2531.02 375.375 Z" fill="#000000" fill-rule="nonzero" fill-opacity="1" /><path clip-path="url(#clip060)" d="M2543.91 386.278 L2543.91 400.028 L2539.63 400.028 L2539.63 364.241 L2543.91 364.241 L2543.91 368.176 Q2545.26 365.862 2547.29 364.75 Q2549.35 363.616 2552.2 363.616 Q2556.92 363.616 2559.86 367.366 Q2562.83 371.116 2562.83 377.227 Q2562.83 383.338 2559.86 387.088 Q2556.92 390.838 2552.2 390.838 Q2549.35 390.838 2547.29 389.727 Q2545.26 388.593 2543.91 386.278 M2558.41 377.227 Q2558.41 372.528 2556.46 369.866 Q2554.54 367.181 2551.16 367.181 Q2547.78 367.181 2545.84 369.866 Q2543.91 372.528 2543.91 377.227 Q2543.91 381.926 2545.84 384.611 Q2547.78 387.274 2551.16 387.274 Q2554.54 387.274 2556.46 384.611 Q2558.41 381.926 2558.41 377.227 Z" fill="#000000" fill-rule="nonzero" fill-opacity="1" /><path clip-path="url(#clip060)" d="M2581.67 377.135 Q2576.51 377.135 2574.52 378.315 Q2572.53 379.496 2572.53 382.343 Q2572.53 384.611 2574.01 385.954 Q2575.51 387.274 2578.08 387.274 Q2581.62 387.274 2583.75 384.774 Q2585.91 382.25 2585.91 378.084 L2585.91 377.135 L2581.67 377.135 M2590.16 375.375 L2590.16 390.167 L2585.91 390.167 L2585.91 386.232 Q2584.45 388.593 2582.27 389.727 Q2580.09 390.838 2576.95 390.838 Q2572.97 390.838 2570.6 388.616 Q2568.27 386.371 2568.27 382.621 Q2568.27 378.246 2571.18 376.024 Q2574.12 373.801 2579.93 373.801 L2585.91 373.801 L2585.91 373.385 Q2585.91 370.445 2583.96 368.848 Q2582.04 367.227 2578.54 367.227 Q2576.32 367.227 2574.22 367.76 Q2572.11 368.292 2570.16 369.357 L2570.16 365.422 Q2572.5 364.519 2574.7 364.079 Q2576.9 363.616 2578.98 363.616 Q2584.61 363.616 2587.39 366.533 Q2590.16 369.45 2590.16 375.375 Z" fill="#000000" fill-rule="nonzero" fill-opacity="1" /><path clip-path="url(#clip060)" d="M2598.78 364.241 L2605 364.241 L2612.36 381.602 L2619.75 364.241 L2625.93 364.241 L2625.93 390.167 L2621.65 390.167 L2621.65 368.315 L2614.49 385.19 L2610.23 385.19 L2603.06 368.315 L2603.06 390.167 L2598.78 390.167 L2598.78 364.241 Z" fill="#000000" fill-rule="nonzero" fill-opacity="1" /><path clip-path="url(#clip060)" d="M2656.88 376.139 L2656.88 378.223 L2637.29 378.223 Q2637.57 382.621 2639.93 384.936 Q2642.32 387.227 2646.55 387.227 Q2649.01 387.227 2651.3 386.625 Q2653.61 386.024 2655.88 384.82 L2655.88 388.848 Q2653.59 389.82 2651.18 390.329 Q2648.78 390.838 2646.3 390.838 Q2640.09 390.838 2636.46 387.227 Q2632.85 383.616 2632.85 377.459 Q2632.85 371.093 2636.28 367.366 Q2639.72 363.616 2645.56 363.616 Q2650.79 363.616 2653.82 366.996 Q2656.88 370.352 2656.88 376.139 M2652.62 374.889 Q2652.57 371.394 2650.65 369.311 Q2648.75 367.227 2645.6 367.227 Q2642.04 367.227 2639.89 369.241 Q2637.76 371.255 2637.43 374.912 L2652.62 374.889 Z" fill="#000000" fill-rule="nonzero" fill-opacity="1" /><path clip-path="url(#clip060)" d="M2660.79 364.241 L2685.63 364.241 L2685.63 367.644 L2675.3 367.644 L2675.3 390.167 L2671.11 390.167 L2671.11 367.644 L2660.79 367.644 L2660.79 364.241 Z" fill="#000000" fill-rule="nonzero" fill-opacity="1" /><path clip-path="url(#clip060)" d="M2695.6 386.278 L2695.6 400.028 L2691.32 400.028 L2691.32 364.241 L2695.6 364.241 L2695.6 368.176 Q2696.95 365.862 2698.98 364.75 Q2701.04 363.616 2703.89 363.616 Q2708.61 363.616 2711.55 367.366 Q2714.52 371.116 2714.52 377.227 Q2714.52 383.338 2711.55 387.088 Q2708.61 390.838 2703.89 390.838 Q2701.04 390.838 2698.98 389.727 Q2696.95 388.593 2695.6 386.278 M2710.09 377.227 Q2710.09 372.528 2708.15 369.866 Q2706.23 367.181 2702.85 367.181 Q2699.47 367.181 2697.52 369.866 Q2695.6 372.528 2695.6 377.227 Q2695.6 381.926 2697.52 384.611 Q2699.47 387.274 2702.85 387.274 Q2706.23 387.274 2708.15 384.611 Q2710.09 381.926 2710.09 377.227 Z" fill="#000000" fill-rule="nonzero" fill-opacity="1" /><path clip-path="url(#clip060)" d="M2746.07 364.241 L2750.33 364.241 L2750.33 390.167 L2746.07 390.167 L2746.07 364.241 M2748.2 363.616 L2748.2 363.616 M2737.71 382.482 Q2737.71 380.399 2736.18 379.311 Q2734.68 378.223 2731.76 378.223 L2725.7 378.223 L2725.7 386.764 L2731.76 386.764 Q2734.68 386.764 2736.18 385.676 Q2737.71 384.565 2737.71 382.482 M2721.41 364.241 L2725.7 364.241 L2725.7 374.82 L2731.95 374.82 Q2736.9 374.82 2739.56 376.718 Q2742.25 378.593 2742.25 382.482 Q2742.25 386.371 2739.56 388.269 Q2736.9 390.167 2731.95 390.167 L2721.41 390.167 L2721.41 364.241 Z" fill="#000000" fill-rule="nonzero" fill-opacity="1" /><path clip-path="url(#clip060)" d="M2760.09 384.287 L2764.98 384.287 L2764.98 390.167 L2760.09 390.167 L2760.09 384.287 M2760.09 365.653 L2764.98 365.653 L2764.98 371.533 L2760.09 371.533 L2760.09 365.653 Z" fill="#000000" fill-rule="nonzero" fill-opacity="1" /><path clip-path="url(#clip060)" d="M2258.82 440.41 L2258.82 451.868 L2254.54 451.868 L2254.54 416.243 Q2254.54 405.688 2264.4 405.688 Q2274.45 405.688 2274.45 414.6 Q2274.45 420.942 2270.47 423.257 Q2276.95 425.34 2276.95 431.521 Q2276.95 442.493 2265.79 442.493 Q2260.88 442.493 2258.82 440.41 M2258.82 434.854 Q2261.39 438.859 2265.95 438.859 Q2272.62 438.859 2272.62 431.59 Q2272.62 425.063 2261.88 425.572 L2261.88 421.637 Q2270.28 421.637 2270.28 414.229 Q2270.28 409.16 2264.87 409.16 Q2258.82 409.16 2258.82 416.382 L2258.82 434.854 Z" fill="#000000" fill-rule="nonzero" fill-opacity="1" /><path clip-path="url(#clip060)" d="M2300.44 420.479 L2330.12 420.479 L2330.12 424.368 L2300.44 424.368 L2300.44 420.479 M2300.44 429.924 L2330.12 429.924 L2330.12 433.859 L2300.44 433.859 L2300.44 429.924 Z" fill="#000000" fill-rule="nonzero" fill-opacity="1" /><path clip-path="url(#clip060)" d="M2365.28 410.526 Q2361.67 410.526 2359.84 414.091 Q2358.04 417.632 2358.04 424.762 Q2358.04 431.868 2359.84 435.433 Q2361.67 438.975 2365.28 438.975 Q2368.92 438.975 2370.72 435.433 Q2372.55 431.868 2372.55 424.762 Q2372.55 417.632 2370.72 414.091 Q2368.92 410.526 2365.28 410.526 M2365.28 406.822 Q2371.09 406.822 2374.15 411.428 Q2377.23 416.012 2377.23 424.762 Q2377.23 433.489 2374.15 438.095 Q2371.09 442.678 2365.28 442.678 Q2359.47 442.678 2356.39 438.095 Q2353.34 433.489 2353.34 424.762 Q2353.34 416.012 2356.39 411.428 Q2359.47 406.822 2365.28 406.822 Z" fill="#000000" fill-rule="nonzero" fill-opacity="1" /><path clip-path="url(#clip060)" d="M2385.44 436.127 L2390.33 436.127 L2390.33 442.007 L2385.44 442.007 L2385.44 436.127 Z" fill="#000000" fill-rule="nonzero" fill-opacity="1" /><path clip-path="url(#clip060)" d="M2410.51 410.526 Q2406.9 410.526 2405.07 414.091 Q2403.27 417.632 2403.27 424.762 Q2403.27 431.868 2405.07 435.433 Q2406.9 438.975 2410.51 438.975 Q2414.15 438.975 2415.95 435.433 Q2417.78 431.868 2417.78 424.762 Q2417.78 417.632 2415.95 414.091 Q2414.15 410.526 2410.51 410.526 M2410.51 406.822 Q2416.32 406.822 2419.38 411.428 Q2422.46 416.012 2422.46 424.762 Q2422.46 433.489 2419.38 438.095 Q2416.32 442.678 2410.51 442.678 Q2404.7 442.678 2401.62 438.095 Q2398.57 433.489 2398.57 424.762 Q2398.57 416.012 2401.62 411.428 Q2404.7 406.822 2410.51 406.822 Z" fill="#000000" fill-rule="nonzero" fill-opacity="1" /><path clip-path="url(#clip060)" d="M2430.72 407.447 L2449.08 407.447 L2449.08 411.382 L2435 411.382 L2435 419.854 Q2436.02 419.507 2437.04 419.345 Q2438.06 419.16 2439.08 419.16 Q2444.86 419.16 2448.24 422.331 Q2451.62 425.502 2451.62 430.919 Q2451.62 436.498 2448.15 439.6 Q2444.68 442.678 2438.36 442.678 Q2436.18 442.678 2433.92 442.308 Q2431.67 441.938 2429.26 441.197 L2429.26 436.498 Q2431.35 437.632 2433.57 438.188 Q2435.79 438.743 2438.27 438.743 Q2442.27 438.743 2444.61 436.637 Q2446.95 434.53 2446.95 430.919 Q2446.95 427.308 2444.61 425.202 Q2442.27 423.095 2438.27 423.095 Q2436.39 423.095 2434.52 423.512 Q2432.67 423.928 2430.72 424.808 L2430.72 407.447 Z" fill="#000000" fill-rule="nonzero" fill-opacity="1" /><path clip-path="url(#clip060)" d="M2275.05 468.917 L2275.05 472.898 Q2273.24 471.903 2271.42 471.417 Q2269.61 470.907 2267.76 470.907 Q2263.62 470.907 2261.32 473.546 Q2259.03 476.162 2259.03 480.907 Q2259.03 485.653 2261.32 488.291 Q2263.62 490.907 2267.76 490.907 Q2269.61 490.907 2271.42 490.421 Q2273.24 489.912 2275.05 488.916 L2275.05 492.852 Q2273.27 493.685 2271.35 494.102 Q2269.45 494.518 2267.3 494.518 Q2261.44 494.518 2257.99 490.838 Q2254.54 487.157 2254.54 480.907 Q2254.54 474.565 2258.01 470.93 Q2261.51 467.296 2267.57 467.296 Q2269.54 467.296 2271.42 467.713 Q2273.29 468.106 2275.05 468.917 Z" fill="#000000" fill-rule="nonzero" fill-opacity="1" /><path clip-path="url(#clip060)" d="M2298.08 472.319 L2327.76 472.319 L2327.76 476.208 L2298.08 476.208 L2298.08 472.319 M2298.08 481.764 L2327.76 481.764 L2327.76 485.699 L2298.08 485.699 L2298.08 481.764 Z" fill="#000000" fill-rule="nonzero" fill-opacity="1" /><path clip-path="url(#clip060)" d="M2353.73 489.912 L2361.37 489.912 L2361.37 463.546 L2353.06 465.213 L2353.06 460.954 L2361.32 459.287 L2366 459.287 L2366 489.912 L2373.64 489.912 L2373.64 493.847 L2353.73 493.847 L2353.73 489.912 Z" fill="#000000" fill-rule="nonzero" fill-opacity="1" /><path clip-path="url(#clip060)" d="M2393.08 462.366 Q2389.47 462.366 2387.64 465.931 Q2385.84 469.472 2385.84 476.602 Q2385.84 483.708 2387.64 487.273 Q2389.47 490.815 2393.08 490.815 Q2396.72 490.815 2398.52 487.273 Q2400.35 483.708 2400.35 476.602 Q2400.35 469.472 2398.52 465.931 Q2396.72 462.366 2393.08 462.366 M2393.08 458.662 Q2398.89 458.662 2401.95 463.268 Q2405.03 467.852 2405.03 476.602 Q2405.03 485.329 2401.95 489.935 Q2398.89 494.518 2393.08 494.518 Q2387.27 494.518 2384.19 489.935 Q2381.14 485.329 2381.14 476.602 Q2381.14 467.852 2384.19 463.268 Q2387.27 458.662 2393.08 458.662 Z" fill="#000000" fill-rule="nonzero" fill-opacity="1" /><path clip-path="url(#clip060)" d="M2413.24 487.967 L2418.13 487.967 L2418.13 493.847 L2413.24 493.847 L2413.24 487.967 Z" fill="#000000" fill-rule="nonzero" fill-opacity="1" /><path clip-path="url(#clip060)" d="M2438.31 462.366 Q2434.7 462.366 2432.87 465.931 Q2431.07 469.472 2431.07 476.602 Q2431.07 483.708 2432.87 487.273 Q2434.7 490.815 2438.31 490.815 Q2441.95 490.815 2443.75 487.273 Q2445.58 483.708 2445.58 476.602 Q2445.58 469.472 2443.75 465.931 Q2441.95 462.366 2438.31 462.366 M2438.31 458.662 Q2444.12 458.662 2447.18 463.268 Q2450.26 467.852 2450.26 476.602 Q2450.26 485.329 2447.18 489.935 Q2444.12 494.518 2438.31 494.518 Q2432.5 494.518 2429.42 489.935 Q2426.37 485.329 2426.37 476.602 Q2426.37 467.852 2429.42 463.268 Q2432.5 458.662 2438.31 458.662 Z" fill="#000000" fill-rule="nonzero" fill-opacity="1" /><path clip-path="url(#clip060)" d="M2262.16 523.835 L2267.83 539.854 L2275.93 519.761 L2280.44 519.761 L2269.96 545.687 L2269.96 555.548 L2265.7 555.548 L2265.7 545.687 L2258.89 526.335 Q2257.87 523.419 2255.68 523.419 L2254.54 523.419 L2254.54 519.761 L2256.16 519.761 Q2260.72 519.761 2262.16 523.835 Z" fill="#000000" fill-rule="nonzero" fill-opacity="1" /><path clip-path="url(#clip060)" d="M2301.95 524.159 L2331.62 524.159 L2331.62 528.048 L2301.95 528.048 L2301.95 524.159 M2301.95 533.604 L2331.62 533.604 L2331.62 537.539 L2301.95 537.539 L2301.95 533.604 Z" fill="#000000" fill-rule="nonzero" fill-opacity="1" /><path clip-path="url(#clip060)" d="M2366.79 514.206 Q2363.17 514.206 2361.35 517.771 Q2359.54 521.312 2359.54 528.442 Q2359.54 535.548 2361.35 539.113 Q2363.17 542.655 2366.79 542.655 Q2370.42 542.655 2372.23 539.113 Q2374.05 535.548 2374.05 528.442 Q2374.05 521.312 2372.23 517.771 Q2370.42 514.206 2366.79 514.206 M2366.79 510.502 Q2372.6 510.502 2375.65 515.108 Q2378.73 519.692 2378.73 528.442 Q2378.73 537.169 2375.65 541.775 Q2372.6 546.358 2366.79 546.358 Q2360.98 546.358 2357.9 541.775 Q2354.84 537.169 2354.84 528.442 Q2354.84 519.692 2357.9 515.108 Q2360.98 510.502 2366.79 510.502 Z" fill="#000000" fill-rule="nonzero" fill-opacity="1" /><path clip-path="url(#clip060)" d="M2386.95 539.807 L2391.83 539.807 L2391.83 545.687 L2386.95 545.687 L2386.95 539.807 Z" fill="#000000" fill-rule="nonzero" fill-opacity="1" /><path clip-path="url(#clip060)" d="M2406.04 541.752 L2422.36 541.752 L2422.36 545.687 L2400.42 545.687 L2400.42 541.752 Q2403.08 538.997 2407.67 534.368 Q2412.27 529.715 2413.45 528.372 Q2415.7 525.849 2416.58 524.113 Q2417.48 522.354 2417.48 520.664 Q2417.48 517.909 2415.54 516.173 Q2413.61 514.437 2410.51 514.437 Q2408.31 514.437 2405.86 515.201 Q2403.43 515.965 2400.65 517.516 L2400.65 512.794 Q2403.48 511.659 2405.93 511.081 Q2408.38 510.502 2410.42 510.502 Q2415.79 510.502 2418.98 513.187 Q2422.18 515.872 2422.18 520.363 Q2422.18 522.493 2421.37 524.414 Q2420.58 526.312 2418.48 528.905 Q2417.9 529.576 2414.79 532.794 Q2411.69 535.988 2406.04 541.752 Z" fill="#000000" fill-rule="nonzero" fill-opacity="1" /><path clip-path="url(#clip060)" d="M2432.23 511.127 L2450.58 511.127 L2450.58 515.062 L2436.51 515.062 L2436.51 523.534 Q2437.53 523.187 2438.54 523.025 Q2439.56 522.84 2440.58 522.84 Q2446.37 522.84 2449.75 526.011 Q2453.13 529.182 2453.13 534.599 Q2453.13 540.178 2449.66 543.28 Q2446.18 546.358 2439.86 546.358 Q2437.69 546.358 2435.42 545.988 Q2433.17 545.618 2430.77 544.877 L2430.77 540.178 Q2432.85 541.312 2435.07 541.868 Q2437.29 542.423 2439.77 542.423 Q2443.78 542.423 2446.11 540.317 Q2448.45 538.21 2448.45 534.599 Q2448.45 530.988 2446.11 528.882 Q2443.78 526.775 2439.77 526.775 Q2437.9 526.775 2436.02 527.192 Q2434.17 527.608 2432.23 528.488 L2432.23 511.127 Z" fill="#000000" fill-rule="nonzero" fill-opacity="1" /><path clip-path="url(#clip060)" d="M2270.93 581.323 Q2272.43 581.833 2273.85 583.499 Q2275.28 585.166 2276.72 588.083 L2281.46 597.527 L2276.44 597.527 L2272.02 588.661 Q2270.3 585.189 2268.68 584.055 Q2267.09 582.921 2264.31 582.921 L2259.22 582.921 L2259.22 597.527 L2254.54 597.527 L2254.54 562.967 L2265.1 562.967 Q2271.02 562.967 2273.94 565.444 Q2276.86 567.921 2276.86 572.921 Q2276.86 576.185 2275.33 578.337 Q2273.82 580.49 2270.93 581.323 M2259.22 566.81 L2259.22 579.078 L2265.1 579.078 Q2268.48 579.078 2270.19 577.527 Q2271.93 575.953 2271.93 572.921 Q2271.93 569.888 2270.19 568.361 Q2268.48 566.81 2265.1 566.81 L2259.22 566.81 Z" fill="#000000" fill-rule="nonzero" fill-opacity="1" /><path clip-path="url(#clip060)" d="M2296.02 581.856 Q2294.87 579.865 2292.53 579.865 Q2290.19 579.865 2289.03 581.856 Q2287.85 583.847 2287.85 587.828 Q2287.85 591.833 2289.03 593.823 Q2290.19 595.814 2292.53 595.814 Q2294.87 595.814 2296.02 593.823 Q2297.2 591.833 2297.2 587.828 Q2297.2 583.847 2296.02 581.856 M2292.53 577.805 Q2296.25 577.805 2298.22 580.374 Q2300.19 582.944 2300.19 587.828 Q2300.19 592.735 2298.22 595.305 Q2296.25 597.874 2292.53 597.874 Q2288.78 597.874 2286.81 595.305 Q2284.84 592.735 2284.84 587.828 Q2284.84 582.944 2286.81 580.374 Q2288.78 577.805 2292.53 577.805 Z" fill="#000000" fill-rule="nonzero" fill-opacity="1" /><path clip-path="url(#clip060)" d="M2321.93 575.999 L2351.6 575.999 L2351.6 579.888 L2321.93 579.888 L2321.93 575.999 M2321.93 585.444 L2351.6 585.444 L2351.6 589.379 L2321.93 589.379 L2321.93 585.444 Z" fill="#000000" fill-rule="nonzero" fill-opacity="1" /><path clip-path="url(#clip060)" d="M2380.79 593.592 L2397.11 593.592 L2397.11 597.527 L2375.17 597.527 L2375.17 593.592 Q2377.83 590.837 2382.41 586.208 Q2387.02 581.555 2388.2 580.212 Q2390.44 577.689 2391.32 575.953 Q2392.23 574.194 2392.23 572.504 Q2392.23 569.749 2390.28 568.013 Q2388.36 566.277 2385.26 566.277 Q2383.06 566.277 2380.61 567.041 Q2378.17 567.805 2375.4 569.356 L2375.4 564.634 Q2378.22 563.499 2380.67 562.921 Q2383.13 562.342 2385.17 562.342 Q2390.54 562.342 2393.73 565.027 Q2396.92 567.712 2396.92 572.203 Q2396.92 574.333 2396.11 576.254 Q2395.33 578.152 2393.22 580.745 Q2392.64 581.416 2389.54 584.634 Q2386.44 587.828 2380.79 593.592 Z" fill="#000000" fill-rule="nonzero" fill-opacity="1" /><path clip-path="url(#clip060)" d="M2406.92 591.647 L2411.81 591.647 L2411.81 597.527 L2406.92 597.527 L2406.92 591.647 Z" fill="#000000" fill-rule="nonzero" fill-opacity="1" /><path clip-path="url(#clip060)" d="M2431.99 566.046 Q2428.38 566.046 2426.55 569.611 Q2424.75 573.152 2424.75 580.282 Q2424.75 587.388 2426.55 590.953 Q2428.38 594.495 2431.99 594.495 Q2435.63 594.495 2437.43 590.953 Q2439.26 587.388 2439.26 580.282 Q2439.26 573.152 2437.43 569.611 Q2435.63 566.046 2431.99 566.046 M2431.99 562.342 Q2437.8 562.342 2440.86 566.948 Q2443.94 571.532 2443.94 580.282 Q2443.94 589.009 2440.86 593.615 Q2437.8 598.198 2431.99 598.198 Q2426.18 598.198 2423.11 593.615 Q2420.05 589.009 2420.05 580.282 Q2420.05 571.532 2423.11 566.948 Q2426.18 562.342 2431.99 562.342 Z" fill="#000000" fill-rule="nonzero" fill-opacity="1" /></svg>
