<?xml version="1.0" encoding="utf-8"?>
<svg xmlns="http://www.w3.org/2000/svg" xmlns:xlink="http://www.w3.org/1999/xlink" width="800" height="500" viewBox="0 0 3200 2000">
<defs>
  <clipPath id="clip390">
    <rect x="0" y="0" width="3200" height="2000"/>
  </clipPath>
</defs>
<path clip-path="url(#clip390)" d="M0 2000 L3200 2000 L3200 0 L0 0  Z" fill="#ffffff" fill-rule="evenodd" fill-opacity="1"/>
<defs>
  <clipPath id="clip391">
    <rect x="253" y="508" width="2901" height="1336"/>
  </clipPath>
</defs>
<path clip-path="url(#clip390)" d="M237.419 1824.31 L3152.76 1824.31 L3152.76 119.692 L237.419 119.692  Z" fill="#ffffff" fill-rule="evenodd" fill-opacity="1"/>
<defs>
  <clipPath id="clip392">
    <rect x="237" y="119" width="2916" height="1706"/>
  </clipPath>
</defs>
<polyline clip-path="url(#clip392)" style="stroke:#000000; stroke-linecap:round; stroke-linejoin:round; stroke-width:2; stroke-opacity:0.1; fill:none" points="319.929,1824.31 319.929,119.692 "/>
<polyline clip-path="url(#clip392)" style="stroke:#000000; stroke-linecap:round; stroke-linejoin:round; stroke-width:2; stroke-opacity:0.1; fill:none" points="1007.51,1824.31 1007.51,119.692 "/>
<polyline clip-path="url(#clip392)" style="stroke:#000000; stroke-linecap:round; stroke-linejoin:round; stroke-width:2; stroke-opacity:0.1; fill:none" points="1695.09,1824.31 1695.09,119.692 "/>
<polyline clip-path="url(#clip392)" style="stroke:#000000; stroke-linecap:round; stroke-linejoin:round; stroke-width:2; stroke-opacity:0.1; fill:none" points="2382.67,1824.31 2382.67,119.692 "/>
<polyline clip-path="url(#clip392)" style="stroke:#000000; stroke-linecap:round; stroke-linejoin:round; stroke-width:2; stroke-opacity:0.1; fill:none" points="3070.25,1824.31 3070.25,119.692 "/>
<polyline clip-path="url(#clip392)" style="stroke:#000000; stroke-linecap:round; stroke-linejoin:round; stroke-width:2; stroke-opacity:0.1; fill:none" points="237.419,1776.07 3152.76,1776.07 "/>
<polyline clip-path="url(#clip392)" style="stroke:#000000; stroke-linecap:round; stroke-linejoin:round; stroke-width:2; stroke-opacity:0.1; fill:none" points="237.419,1369.97 3152.76,1369.97 "/>
<polyline clip-path="url(#clip392)" style="stroke:#000000; stroke-linecap:round; stroke-linejoin:round; stroke-width:2; stroke-opacity:0.1; fill:none" points="237.419,963.879 3152.76,963.879 "/>
<polyline clip-path="url(#clip392)" style="stroke:#000000; stroke-linecap:round; stroke-linejoin:round; stroke-width:2; stroke-opacity:0.1; fill:none" points="237.419,557.786 3152.76,557.786 "/>
<polyline clip-path="url(#clip392)" style="stroke:#000000; stroke-linecap:round; stroke-linejoin:round; stroke-width:2; stroke-opacity:0.1; fill:none" points="237.419,151.692 3152.76,151.692 "/>
<polyline clip-path="url(#clip390)" style="stroke:#000000; stroke-linecap:round; stroke-linejoin:round; stroke-width:4; stroke-opacity:1; fill:none" points="237.419,1824.31 3152.76,1824.31 "/>
<polyline clip-path="url(#clip390)" style="stroke:#000000; stroke-linecap:round; stroke-linejoin:round; stroke-width:4; stroke-opacity:1; fill:none" points="319.929,1824.31 319.929,1805.41 "/>
<polyline clip-path="url(#clip390)" style="stroke:#000000; stroke-linecap:round; stroke-linejoin:round; stroke-width:4; stroke-opacity:1; fill:none" points="1007.51,1824.31 1007.51,1805.41 "/>
<polyline clip-path="url(#clip390)" style="stroke:#000000; stroke-linecap:round; stroke-linejoin:round; stroke-width:4; stroke-opacity:1; fill:none" points="1695.09,1824.31 1695.09,1805.41 "/>
<polyline clip-path="url(#clip390)" style="stroke:#000000; stroke-linecap:round; stroke-linejoin:round; stroke-width:4; stroke-opacity:1; fill:none" points="2382.67,1824.31 2382.67,1805.41 "/>
<polyline clip-path="url(#clip390)" style="stroke:#000000; stroke-linecap:round; stroke-linejoin:round; stroke-width:4; stroke-opacity:1; fill:none" points="3070.25,1824.31 3070.25,1805.41 "/>
<path clip-path="url(#clip390)" d="M319.929 1861.63 Q316.318 1861.63 314.489 1865.19 Q312.684 1868.73 312.684 1875.86 Q312.684 1882.97 314.489 1886.54 Q316.318 1890.08 319.929 1890.08 Q323.563 1890.08 325.369 1886.54 Q327.197 1882.97 327.197 1875.86 Q327.197 1868.73 325.369 1865.19 Q323.563 1861.63 319.929 1861.63 M319.929 1857.92 Q325.739 1857.92 328.795 1862.53 Q331.873 1867.11 331.873 1875.86 Q331.873 1884.59 328.795 1889.2 Q325.739 1893.78 319.929 1893.78 Q314.119 1893.78 311.04 1889.2 Q307.984 1884.59 307.984 1875.86 Q307.984 1867.11 311.04 1862.53 Q314.119 1857.92 319.929 1857.92 Z" fill="#000000" fill-rule="nonzero" fill-opacity="1" /><path clip-path="url(#clip390)" d="M982.196 1889.17 L989.835 1889.17 L989.835 1862.81 L981.525 1864.48 L981.525 1860.22 L989.788 1858.55 L994.464 1858.55 L994.464 1889.17 L1002.1 1889.17 L1002.1 1893.11 L982.196 1893.11 L982.196 1889.17 Z" fill="#000000" fill-rule="nonzero" fill-opacity="1" /><path clip-path="url(#clip390)" d="M1021.55 1861.63 Q1017.94 1861.63 1016.11 1865.19 Q1014.3 1868.73 1014.3 1875.86 Q1014.3 1882.97 1016.11 1886.54 Q1017.94 1890.08 1021.55 1890.08 Q1025.18 1890.08 1026.99 1886.54 Q1028.82 1882.97 1028.82 1875.86 Q1028.82 1868.73 1026.99 1865.19 Q1025.18 1861.63 1021.55 1861.63 M1021.55 1857.92 Q1027.36 1857.92 1030.41 1862.53 Q1033.49 1867.11 1033.49 1875.86 Q1033.49 1884.59 1030.41 1889.2 Q1027.36 1893.78 1021.55 1893.78 Q1015.74 1893.78 1012.66 1889.2 Q1009.6 1884.59 1009.6 1875.86 Q1009.6 1867.11 1012.66 1862.53 Q1015.74 1857.92 1021.55 1857.92 Z" fill="#000000" fill-rule="nonzero" fill-opacity="1" /><path clip-path="url(#clip390)" d="M1673.86 1889.17 L1690.18 1889.17 L1690.18 1893.11 L1668.24 1893.11 L1668.24 1889.17 Q1670.9 1886.42 1675.48 1881.79 Q1680.09 1877.14 1681.27 1875.8 Q1683.51 1873.27 1684.39 1871.54 Q1685.3 1869.78 1685.3 1868.09 Q1685.3 1865.33 1683.35 1863.6 Q1681.43 1861.86 1678.33 1861.86 Q1676.13 1861.86 1673.68 1862.62 Q1671.25 1863.39 1668.47 1864.94 L1668.47 1860.22 Q1671.29 1859.08 1673.75 1858.5 Q1676.2 1857.92 1678.24 1857.92 Q1683.61 1857.92 1686.8 1860.61 Q1690 1863.3 1690 1867.79 Q1690 1869.92 1689.18 1871.84 Q1688.4 1873.73 1686.29 1876.33 Q1685.71 1877 1682.61 1880.22 Q1679.51 1883.41 1673.86 1889.17 Z" fill="#000000" fill-rule="nonzero" fill-opacity="1" /><path clip-path="url(#clip390)" d="M1709.99 1861.63 Q1706.38 1861.63 1704.56 1865.19 Q1702.75 1868.73 1702.75 1875.86 Q1702.75 1882.97 1704.56 1886.54 Q1706.38 1890.08 1709.99 1890.08 Q1713.63 1890.08 1715.43 1886.54 Q1717.26 1882.97 1717.26 1875.86 Q1717.26 1868.73 1715.43 1865.19 Q1713.63 1861.63 1709.99 1861.63 M1709.99 1857.92 Q1715.81 1857.92 1718.86 1862.53 Q1721.94 1867.11 1721.94 1875.86 Q1721.94 1884.59 1718.86 1889.2 Q1715.81 1893.78 1709.99 1893.78 Q1704.18 1893.78 1701.11 1889.2 Q1698.05 1884.59 1698.05 1875.86 Q1698.05 1867.11 1701.11 1862.53 Q1704.18 1857.92 1709.99 1857.92 Z" fill="#000000" fill-rule="nonzero" fill-opacity="1" /><path clip-path="url(#clip390)" d="M2371.51 1874.48 Q2374.87 1875.19 2376.74 1877.46 Q2378.64 1879.73 2378.64 1883.06 Q2378.64 1888.18 2375.12 1890.98 Q2371.6 1893.78 2365.12 1893.78 Q2362.94 1893.78 2360.63 1893.34 Q2358.34 1892.92 2355.88 1892.07 L2355.88 1887.55 Q2357.83 1888.69 2360.14 1889.27 Q2362.46 1889.85 2364.98 1889.85 Q2369.38 1889.85 2371.67 1888.11 Q2373.99 1886.37 2373.99 1883.06 Q2373.99 1880.01 2371.83 1878.3 Q2369.7 1876.56 2365.88 1876.56 L2361.86 1876.56 L2361.86 1872.72 L2366.07 1872.72 Q2369.52 1872.72 2371.35 1871.35 Q2373.18 1869.96 2373.18 1867.37 Q2373.18 1864.71 2371.28 1863.3 Q2369.4 1861.86 2365.88 1861.86 Q2363.96 1861.86 2361.76 1862.28 Q2359.57 1862.69 2356.93 1863.57 L2356.93 1859.41 Q2359.59 1858.67 2361.9 1858.3 Q2364.24 1857.92 2366.3 1857.92 Q2371.63 1857.92 2374.73 1860.36 Q2377.83 1862.76 2377.83 1866.88 Q2377.83 1869.75 2376.19 1871.74 Q2374.54 1873.71 2371.51 1874.48 Z" fill="#000000" fill-rule="nonzero" fill-opacity="1" /><path clip-path="url(#clip390)" d="M2397.5 1861.63 Q2393.89 1861.63 2392.07 1865.19 Q2390.26 1868.73 2390.26 1875.86 Q2390.26 1882.97 2392.07 1886.54 Q2393.89 1890.08 2397.5 1890.08 Q2401.14 1890.08 2402.94 1886.54 Q2404.77 1882.97 2404.77 1875.86 Q2404.77 1868.73 2402.94 1865.19 Q2401.14 1861.63 2397.5 1861.63 M2397.5 1857.92 Q2403.32 1857.92 2406.37 1862.53 Q2409.45 1867.11 2409.45 1875.86 Q2409.45 1884.59 2406.37 1889.2 Q2403.32 1893.78 2397.5 1893.78 Q2391.69 1893.78 2388.62 1889.2 Q2385.56 1884.59 2385.56 1875.86 Q2385.56 1867.11 2388.62 1862.53 Q2391.69 1857.92 2397.5 1857.92 Z" fill="#000000" fill-rule="nonzero" fill-opacity="1" /><path clip-path="url(#clip390)" d="M3058.42 1862.62 L3046.61 1881.07 L3058.42 1881.07 L3058.42 1862.62 M3057.19 1858.55 L3063.07 1858.55 L3063.07 1881.07 L3068 1881.07 L3068 1884.96 L3063.07 1884.96 L3063.07 1893.11 L3058.42 1893.11 L3058.42 1884.96 L3042.82 1884.96 L3042.82 1880.45 L3057.19 1858.55 Z" fill="#000000" fill-rule="nonzero" fill-opacity="1" /><path clip-path="url(#clip390)" d="M3085.73 1861.63 Q3082.12 1861.63 3080.29 1865.19 Q3078.49 1868.73 3078.49 1875.86 Q3078.49 1882.97 3080.29 1886.54 Q3082.12 1890.08 3085.73 1890.08 Q3089.37 1890.08 3091.17 1886.54 Q3093 1882.97 3093 1875.86 Q3093 1868.73 3091.17 1865.19 Q3089.37 1861.63 3085.73 1861.63 M3085.73 1857.92 Q3091.54 1857.92 3094.6 1862.53 Q3097.68 1867.11 3097.68 1875.86 Q3097.68 1884.59 3094.6 1889.2 Q3091.54 1893.78 3085.73 1893.78 Q3079.92 1893.78 3076.84 1889.2 Q3073.79 1884.59 3073.79 1875.86 Q3073.79 1867.11 3076.84 1862.53 Q3079.92 1857.92 3085.73 1857.92 Z" fill="#000000" fill-rule="nonzero" fill-opacity="1" /><path clip-path="url(#clip390)" d="M1514.64 1958.48 L1514.64 1975.89 L1524.95 1975.89 Q1530.14 1975.89 1532.62 1973.76 Q1535.13 1971.59 1535.13 1967.17 Q1535.13 1962.71 1532.62 1960.61 Q1530.14 1958.48 1524.95 1958.48 L1514.64 1958.48 M1514.64 1938.94 L1514.64 1953.26 L1524.15 1953.26 Q1528.86 1953.26 1531.15 1951.51 Q1533.48 1949.73 1533.48 1946.1 Q1533.48 1942.5 1531.15 1940.72 Q1528.86 1938.94 1524.15 1938.94 L1514.64 1938.94 M1508.21 1933.65 L1524.63 1933.65 Q1531.98 1933.65 1535.96 1936.71 Q1539.94 1939.76 1539.94 1945.4 Q1539.94 1949.76 1537.9 1952.34 Q1535.87 1954.92 1531.92 1955.55 Q1536.66 1956.57 1539.27 1959.82 Q1541.91 1963.03 1541.91 1967.87 Q1541.91 1974.24 1537.58 1977.7 Q1533.26 1981.17 1525.27 1981.17 L1508.21 1981.17 L1508.21 1933.65 Z" fill="#000000" fill-rule="nonzero" fill-opacity="1" /><path clip-path="url(#clip390)" d="M1558.34 1975.83 L1558.34 1994.73 L1552.45 1994.73 L1552.45 1945.53 L1558.34 1945.53 L1558.34 1950.94 Q1560.18 1947.75 1562.98 1946.23 Q1565.82 1944.67 1569.73 1944.67 Q1576.22 1944.67 1580.27 1949.82 Q1584.34 1954.98 1584.34 1963.38 Q1584.34 1971.78 1580.27 1976.94 Q1576.22 1982.1 1569.73 1982.1 Q1565.82 1982.1 1562.98 1980.57 Q1560.18 1979.01 1558.34 1975.83 M1578.26 1963.38 Q1578.26 1956.92 1575.59 1953.26 Q1572.95 1949.57 1568.3 1949.57 Q1563.65 1949.57 1560.98 1953.26 Q1558.34 1956.92 1558.34 1963.38 Q1558.34 1969.84 1560.98 1973.53 Q1563.65 1977.2 1568.3 1977.2 Q1572.95 1977.2 1575.59 1973.53 Q1578.26 1969.84 1578.26 1963.38 Z" fill="#000000" fill-rule="nonzero" fill-opacity="1" /><path clip-path="url(#clip390)" d="M1624.54 1961.89 L1624.54 1964.75 L1597.61 1964.75 Q1597.99 1970.8 1601.24 1973.98 Q1604.52 1977.13 1610.34 1977.13 Q1613.72 1977.13 1616.87 1976.3 Q1620.05 1975.48 1623.17 1973.82 L1623.17 1979.36 Q1620.02 1980.7 1616.71 1981.4 Q1613.4 1982.1 1609.99 1982.1 Q1601.46 1982.1 1596.47 1977.13 Q1591.5 1972.17 1591.5 1963.7 Q1591.5 1954.95 1596.21 1949.82 Q1600.95 1944.67 1608.98 1944.67 Q1616.17 1944.67 1620.34 1949.31 Q1624.54 1953.93 1624.54 1961.89 M1618.68 1960.17 Q1618.62 1955.36 1615.98 1952.5 Q1613.37 1949.63 1609.04 1949.63 Q1604.14 1949.63 1601.18 1952.4 Q1598.25 1955.17 1597.8 1960.2 L1618.68 1960.17 Z" fill="#000000" fill-rule="nonzero" fill-opacity="1" /><path clip-path="url(#clip390)" d="M1633.93 1945.53 L1642.49 1945.53 L1652.61 1969.4 L1662.77 1945.53 L1671.26 1945.53 L1671.26 1981.17 L1665.38 1981.17 L1665.38 1951.13 L1655.54 1974.33 L1649.68 1974.33 L1639.82 1951.13 L1639.82 1981.17 L1633.93 1981.17 L1633.93 1945.53 Z" fill="#000000" fill-rule="nonzero" fill-opacity="1" /><path clip-path="url(#clip390)" d="M1689.22 1955.81 Q1689.22 1958.45 1691.25 1959.94 Q1693.29 1961.44 1697.08 1961.44 L1704.97 1961.44 L1704.97 1950.2 L1697.08 1950.2 Q1693.29 1950.2 1691.25 1951.67 Q1689.22 1953.13 1689.22 1955.81 M1680.88 1981.17 L1691.76 1965.55 Q1688.07 1964.72 1685.62 1962.55 Q1683.17 1960.36 1683.17 1955.81 Q1683.17 1950.65 1686.57 1948.1 Q1690.01 1945.53 1696.92 1945.53 L1710.86 1945.53 L1710.86 1981.17 L1704.97 1981.17 L1704.97 1966.12 L1697.68 1966.12 L1687.18 1981.17 L1680.88 1981.17 Z" fill="#000000" fill-rule="nonzero" fill-opacity="1" /><path clip-path="url(#clip390)" d="M1724.04 1973.09 L1730.75 1973.09 L1730.75 1978.56 L1725.53 1988.75 L1721.43 1988.75 L1724.04 1978.56 L1724.04 1973.09 Z" fill="#000000" fill-rule="nonzero" fill-opacity="1" /><path clip-path="url(#clip390)" d="M1771.94 1976.5 L1788.93 1976.5 L1788.93 1950.2 L1776.62 1950.2 L1776.62 1954.66 Q1776.62 1967.77 1772.86 1974.78 L1771.94 1976.5 M1763.44 1976.5 Q1766.34 1975.22 1767.61 1972.52 Q1770.73 1965.8 1770.73 1952.27 L1770.73 1945.53 L1794.82 1945.53 L1794.82 1976.5 L1799.5 1976.5 L1799.5 1990.18 L1794.82 1990.18 L1794.82 1981.17 L1765.92 1981.17 L1765.92 1990.18 L1761.24 1990.18 L1761.24 1976.5 L1763.44 1976.5 Z" fill="#000000" fill-rule="nonzero" fill-opacity="1" /><path clip-path="url(#clip390)" d="M1808.83 1945.53 L1814.72 1945.53 L1814.72 1960.07 L1833.72 1960.07 L1833.72 1945.53 L1839.61 1945.53 L1839.61 1981.17 L1833.72 1981.17 L1833.72 1964.75 L1814.72 1964.75 L1814.72 1981.17 L1808.83 1981.17 L1808.83 1945.53 Z" fill="#000000" fill-rule="nonzero" fill-opacity="1" /><path clip-path="url(#clip390)" d="M1881.97 1945.53 L1881.97 1981.17 L1876.14 1981.17 L1876.14 1952.56 L1858.96 1981.17 L1851.45 1981.17 L1851.45 1945.53 L1857.27 1945.53 L1857.27 1974.08 L1874.43 1945.53 L1881.97 1945.53 Z" fill="#000000" fill-rule="nonzero" fill-opacity="1" /><polyline clip-path="url(#clip390)" style="stroke:#000000; stroke-linecap:round; stroke-linejoin:round; stroke-width:4; stroke-opacity:1; fill:none" points="237.419,1824.31 237.419,119.692 "/>
<polyline clip-path="url(#clip390)" style="stroke:#000000; stroke-linecap:round; stroke-linejoin:round; stroke-width:4; stroke-opacity:1; fill:none" points="237.419,1776.07 256.317,1776.07 "/>
<polyline clip-path="url(#clip390)" style="stroke:#000000; stroke-linecap:round; stroke-linejoin:round; stroke-width:4; stroke-opacity:1; fill:none" points="237.419,1369.97 256.317,1369.97 "/>
<polyline clip-path="url(#clip390)" style="stroke:#000000; stroke-linecap:round; stroke-linejoin:round; stroke-width:4; stroke-opacity:1; fill:none" points="237.419,963.879 256.317,963.879 "/>
<polyline clip-path="url(#clip390)" style="stroke:#000000; stroke-linecap:round; stroke-linejoin:round; stroke-width:4; stroke-opacity:1; fill:none" points="237.419,557.786 256.317,557.786 "/>
<polyline clip-path="url(#clip390)" style="stroke:#000000; stroke-linecap:round; stroke-linejoin:round; stroke-width:4; stroke-opacity:1; fill:none" points="237.419,151.692 256.317,151.692 "/>
<path clip-path="url(#clip390)" d="M177.475 1761.86 Q173.864 1761.86 172.035 1765.43 Q170.23 1768.97 170.23 1776.1 Q170.23 1783.21 172.035 1786.77 Q173.864 1790.31 177.475 1790.31 Q181.109 1790.31 182.915 1786.77 Q184.743 1783.21 184.743 1776.1 Q184.743 1768.97 182.915 1765.43 Q181.109 1761.86 177.475 1761.86 M177.475 1758.16 Q183.285 1758.16 186.341 1762.77 Q189.419 1767.35 189.419 1776.1 Q189.419 1784.83 186.341 1789.43 Q183.285 1794.02 177.475 1794.02 Q171.665 1794.02 168.586 1789.43 Q165.531 1784.83 165.531 1776.1 Q165.531 1767.35 168.586 1762.77 Q171.665 1758.16 177.475 1758.16 Z" fill="#000000" fill-rule="nonzero" fill-opacity="1" /><path clip-path="url(#clip390)" d="M142.336 1383.32 L158.656 1383.32 L158.656 1387.25 L136.711 1387.25 L136.711 1383.32 Q139.373 1380.56 143.957 1375.93 Q148.563 1371.28 149.744 1369.94 Q151.989 1367.41 152.869 1365.68 Q153.771 1363.92 153.771 1362.23 Q153.771 1359.47 151.827 1357.74 Q149.906 1356 146.804 1356 Q144.605 1356 142.151 1356.77 Q139.721 1357.53 136.943 1359.08 L136.943 1354.36 Q139.767 1353.22 142.221 1352.65 Q144.674 1352.07 146.711 1352.07 Q152.082 1352.07 155.276 1354.75 Q158.47 1357.44 158.47 1361.93 Q158.47 1364.06 157.66 1365.98 Q156.873 1367.88 154.767 1370.47 Q154.188 1371.14 151.086 1374.36 Q147.984 1377.55 142.336 1383.32 Z" fill="#000000" fill-rule="nonzero" fill-opacity="1" /><path clip-path="url(#clip390)" d="M168.517 1352.69 L186.873 1352.69 L186.873 1356.63 L172.799 1356.63 L172.799 1365.1 Q173.818 1364.75 174.836 1364.59 Q175.855 1364.41 176.873 1364.41 Q182.66 1364.41 186.04 1367.58 Q189.419 1370.75 189.419 1376.16 Q189.419 1381.74 185.947 1384.85 Q182.475 1387.92 176.156 1387.92 Q173.98 1387.92 171.711 1387.55 Q169.466 1387.18 167.058 1386.44 L167.058 1381.74 Q169.142 1382.88 171.364 1383.43 Q173.586 1383.99 176.063 1383.99 Q180.068 1383.99 182.405 1381.88 Q184.743 1379.78 184.743 1376.16 Q184.743 1372.55 182.405 1370.45 Q180.068 1368.34 176.063 1368.34 Q174.188 1368.34 172.313 1368.76 Q170.461 1369.17 168.517 1370.05 L168.517 1352.69 Z" fill="#000000" fill-rule="nonzero" fill-opacity="1" /><path clip-path="url(#clip390)" d="M137.359 946.599 L155.716 946.599 L155.716 950.534 L141.642 950.534 L141.642 959.006 Q142.66 958.659 143.679 958.497 Q144.697 958.312 145.716 958.312 Q151.503 958.312 154.882 961.483 Q158.262 964.655 158.262 970.071 Q158.262 975.65 154.79 978.752 Q151.318 981.83 144.998 981.83 Q142.822 981.83 140.554 981.46 Q138.309 981.09 135.901 980.349 L135.901 975.65 Q137.984 976.784 140.207 977.34 Q142.429 977.895 144.906 977.895 Q148.91 977.895 151.248 975.789 Q153.586 973.682 153.586 970.071 Q153.586 966.46 151.248 964.354 Q148.91 962.247 144.906 962.247 Q143.031 962.247 141.156 962.664 Q139.304 963.081 137.359 963.96 L137.359 946.599 Z" fill="#000000" fill-rule="nonzero" fill-opacity="1" /><path clip-path="url(#clip390)" d="M177.475 949.678 Q173.864 949.678 172.035 953.243 Q170.23 956.784 170.23 963.914 Q170.23 971.02 172.035 974.585 Q173.864 978.127 177.475 978.127 Q181.109 978.127 182.915 974.585 Q184.743 971.02 184.743 963.914 Q184.743 956.784 182.915 953.243 Q181.109 949.678 177.475 949.678 M177.475 945.974 Q183.285 945.974 186.341 950.581 Q189.419 955.164 189.419 963.914 Q189.419 972.641 186.341 977.247 Q183.285 981.83 177.475 981.83 Q171.665 981.83 168.586 977.247 Q165.531 972.641 165.531 963.914 Q165.531 955.164 168.586 950.581 Q171.665 945.974 177.475 945.974 Z" fill="#000000" fill-rule="nonzero" fill-opacity="1" /><path clip-path="url(#clip390)" d="M137.128 540.506 L159.35 540.506 L159.35 542.496 L146.804 575.066 L141.92 575.066 L153.725 544.441 L137.128 544.441 L137.128 540.506 Z" fill="#000000" fill-rule="nonzero" fill-opacity="1" /><path clip-path="url(#clip390)" d="M168.517 540.506 L186.873 540.506 L186.873 544.441 L172.799 544.441 L172.799 552.913 Q173.818 552.566 174.836 552.404 Q175.855 552.219 176.873 552.219 Q182.66 552.219 186.04 555.39 Q189.419 558.561 189.419 563.978 Q189.419 569.556 185.947 572.658 Q182.475 575.737 176.156 575.737 Q173.98 575.737 171.711 575.367 Q169.466 574.996 167.058 574.256 L167.058 569.556 Q169.142 570.691 171.364 571.246 Q173.586 571.802 176.063 571.802 Q180.068 571.802 182.405 569.695 Q184.743 567.589 184.743 563.978 Q184.743 560.367 182.405 558.26 Q180.068 556.154 176.063 556.154 Q174.188 556.154 172.313 556.57 Q170.461 556.987 168.517 557.867 L168.517 540.506 Z" fill="#000000" fill-rule="nonzero" fill-opacity="1" /><path clip-path="url(#clip390)" d="M107.961 165.037 L115.6 165.037 L115.6 138.672 L107.29 140.338 L107.29 136.079 L115.554 134.412 L120.23 134.412 L120.23 165.037 L127.869 165.037 L127.869 168.972 L107.961 168.972 L107.961 165.037 Z" fill="#000000" fill-rule="nonzero" fill-opacity="1" /><path clip-path="url(#clip390)" d="M147.313 137.491 Q143.702 137.491 141.873 141.056 Q140.068 144.597 140.068 151.727 Q140.068 158.833 141.873 162.398 Q143.702 165.94 147.313 165.94 Q150.947 165.94 152.753 162.398 Q154.582 158.833 154.582 151.727 Q154.582 144.597 152.753 141.056 Q150.947 137.491 147.313 137.491 M147.313 133.787 Q153.123 133.787 156.179 138.394 Q159.257 142.977 159.257 151.727 Q159.257 160.454 156.179 165.06 Q153.123 169.644 147.313 169.644 Q141.503 169.644 138.424 165.06 Q135.369 160.454 135.369 151.727 Q135.369 142.977 138.424 138.394 Q141.503 133.787 147.313 133.787 Z" fill="#000000" fill-rule="nonzero" fill-opacity="1" /><path clip-path="url(#clip390)" d="M177.475 137.491 Q173.864 137.491 172.035 141.056 Q170.23 144.597 170.23 151.727 Q170.23 158.833 172.035 162.398 Q173.864 165.94 177.475 165.94 Q181.109 165.94 182.915 162.398 Q184.743 158.833 184.743 151.727 Q184.743 144.597 182.915 141.056 Q181.109 137.491 177.475 137.491 M177.475 133.787 Q183.285 133.787 186.341 138.394 Q189.419 142.977 189.419 151.727 Q189.419 160.454 186.341 165.06 Q183.285 169.644 177.475 169.644 Q171.665 169.644 168.586 165.06 Q165.531 160.454 165.531 151.727 Q165.531 142.977 168.586 138.394 Q171.665 133.787 177.475 133.787 Z" fill="#000000" fill-rule="nonzero" fill-opacity="1" /><path clip-path="url(#clip390)" d="M39.6233 1291.67 L39.6233 1270.66 L2.92501 1270.66 L2.92501 1286.1 L9.67266 1286.1 Q25.5551 1286.1 36.0903 1289.67 Q38.2547 1290.4 39.6233 1291.67 M39.6233 1301.06 Q37.6181 1296.8 33.7987 1295.59 Q23.9955 1292.5 6.4898 1292.5 L-2.48584 1292.5 L-2.48584 1264.23 L39.6233 1264.23 L39.6233 1258.82 L55.2511 1258.82 L55.2511 1264.23 L45.0342 1264.23 L45.0342 1297.91 L55.2511 1297.91 L55.2511 1303.32 L39.6233 1303.32 L39.6233 1301.06 Z" fill="#000000" fill-rule="nonzero" fill-opacity="1" /><path clip-path="url(#clip390)" d="M13.4921 1235.65 Q13.4921 1240.36 17.1842 1243.1 Q20.8445 1245.84 27.242 1245.84 Q33.6395 1245.84 37.3317 1243.13 Q40.9919 1240.4 40.9919 1235.65 Q40.9919 1230.97 37.2998 1228.24 Q33.6077 1225.5 27.242 1225.5 Q20.9081 1225.5 17.216 1228.24 Q13.4921 1230.97 13.4921 1235.65 M8.52683 1235.65 Q8.52683 1228.01 13.4921 1223.65 Q18.4573 1219.29 27.242 1219.29 Q35.9949 1219.29 40.9919 1223.65 Q45.9572 1228.01 45.9572 1235.65 Q45.9572 1243.32 40.9919 1247.68 Q35.9949 1252.01 27.242 1252.01 Q18.4573 1252.01 13.4921 1247.68 Q8.52683 1243.32 8.52683 1235.65 Z" fill="#000000" fill-rule="nonzero" fill-opacity="1" /><path clip-path="url(#clip390)" d="M45.0342 1213.31 L40.1644 1213.31 Q39.2732 1207.52 35.2628 1205.73 Q29.6291 1203.57 15.2108 1203.57 L9.3862 1203.57 L9.3862 1179.48 L45.0342 1179.48 L45.0342 1185.33 L14.065 1185.33 L14.065 1197.71 L17.598 1197.71 Q31.3479 1197.71 37.5226 1200.51 Q44.1111 1203.51 45.0342 1213.31 Z" fill="#000000" fill-rule="nonzero" fill-opacity="1" /><path clip-path="url(#clip390)" d="M19.6668 1162.03 Q22.3086 1162.03 23.8045 1160 Q25.3005 1157.96 25.3005 1154.17 L25.3005 1146.28 L14.065 1146.28 L14.065 1154.17 Q14.065 1157.96 15.5291 1160 Q16.9932 1162.03 19.6668 1162.03 M45.0342 1170.37 L29.4063 1159.49 Q28.5788 1163.18 26.4145 1165.63 Q24.2183 1168.08 19.6668 1168.08 Q14.5106 1168.08 11.9643 1164.68 Q9.3862 1161.24 9.3862 1154.33 L9.3862 1140.39 L45.0342 1140.39 L45.0342 1146.28 L29.9793 1146.28 L29.9793 1153.57 L45.0342 1164.07 L45.0342 1170.37 Z" fill="#000000" fill-rule="nonzero" fill-opacity="1" /><path clip-path="url(#clip390)" d="M9.3862 1077.43 L45.0342 1077.43 L45.0342 1083.32 L14.065 1083.32 L14.065 1102.32 L45.0342 1102.32 L45.0342 1108.21 L9.3862 1108.21 L9.3862 1077.43 Z" fill="#000000" fill-rule="nonzero" fill-opacity="1" /><path clip-path="url(#clip390)" d="M13.4921 1051.56 Q13.4921 1056.27 17.1842 1059 Q20.8445 1061.74 27.242 1061.74 Q33.6395 1061.74 37.3317 1059.04 Q40.9919 1056.3 40.9919 1051.56 Q40.9919 1046.88 37.2998 1044.14 Q33.6077 1041.4 27.242 1041.4 Q20.9081 1041.4 17.216 1044.14 Q13.4921 1046.88 13.4921 1051.56 M8.52683 1051.56 Q8.52683 1043.92 13.4921 1039.56 Q18.4573 1035.2 27.242 1035.2 Q35.9949 1035.2 40.9919 1039.56 Q45.9572 1043.92 45.9572 1051.56 Q45.9572 1059.23 40.9919 1063.59 Q35.9949 1067.92 27.242 1067.92 Q18.4573 1067.92 13.4921 1063.59 Q8.52683 1059.23 8.52683 1051.56 Z" fill="#000000" fill-rule="nonzero" fill-opacity="1" /><path clip-path="url(#clip390)" d="M9.3862 994.933 L45.0342 994.933 L45.0342 1000.82 L14.065 1000.82 L14.065 1019.82 L45.0342 1019.82 L45.0342 1025.71 L9.3862 1025.71 L9.3862 994.933 Z" fill="#000000" fill-rule="nonzero" fill-opacity="1" /><path clip-path="url(#clip390)" d="M48.3443 968.038 Q54.71 970.521 56.6516 972.876 Q58.5931 975.232 58.5931 979.178 L58.5931 983.857 L53.6915 983.857 L53.6915 980.42 Q53.6915 978.001 52.5457 976.664 Q51.3999 975.327 47.1348 973.704 L44.4612 972.653 L9.3862 987.072 L9.3862 980.865 L37.268 969.725 L9.3862 958.585 L9.3862 952.379 L48.3443 968.038 Z" fill="#000000" fill-rule="nonzero" fill-opacity="1" /><path clip-path="url(#clip390)" d="M45.0342 948.018 L40.1644 948.018 Q39.2732 942.225 35.2628 940.443 Q29.6291 938.279 15.2108 938.279 L9.3862 938.279 L9.3862 914.184 L45.0342 914.184 L45.0342 920.041 L14.065 920.041 L14.065 932.422 L17.598 932.422 Q31.3479 932.422 37.5226 935.223 Q44.1111 938.215 45.0342 948.018 Z" fill="#000000" fill-rule="nonzero" fill-opacity="1" /><path clip-path="url(#clip390)" d="M19.6668 896.742 Q22.3086 896.742 23.8045 894.705 Q25.3005 892.668 25.3005 888.881 L25.3005 880.987 L14.065 880.987 L14.065 888.881 Q14.065 892.668 15.5291 894.705 Q16.9932 896.742 19.6668 896.742 M45.0342 905.081 L29.4063 894.196 Q28.5788 897.888 26.4145 900.339 Q24.2183 902.79 19.6668 902.79 Q14.5106 902.79 11.9643 899.384 Q9.3862 895.947 9.3862 889.04 L9.3862 875.099 L45.0342 875.099 L45.0342 880.987 L29.9793 880.987 L29.9793 888.276 L45.0342 898.779 L45.0342 905.081 Z" fill="#000000" fill-rule="nonzero" fill-opacity="1" /><path clip-path="url(#clip390)" d="M45.0342 832.863 L45.0342 863.641 L9.3862 863.641 L9.3862 857.752 L40.3554 857.752 L40.3554 838.751 L9.3862 838.751 L9.3862 832.863 L40.3554 832.863 L40.3554 828.184 L54.0416 828.184 L54.0416 832.863 L45.0342 832.863 Z" fill="#000000" fill-rule="nonzero" fill-opacity="1" /><path clip-path="url(#clip390)" d="M9.3862 788.748 L45.0342 788.748 L45.0342 794.573 L16.4203 794.573 L45.0342 811.76 L45.0342 819.272 L9.3862 819.272 L9.3862 813.447 L37.9364 813.447 L9.3862 796.292 L9.3862 788.748 Z" fill="#000000" fill-rule="nonzero" fill-opacity="1" /><path clip-path="url(#clip390)" d="M9.3862 746.384 L45.0342 746.384 L45.0342 752.209 L16.4203 752.209 L45.0342 769.396 L45.0342 776.908 L9.3862 776.908 L9.3862 771.083 L37.9364 771.083 L9.3862 753.928 L9.3862 746.384 Z" fill="#000000" fill-rule="nonzero" fill-opacity="1" /><path clip-path="url(#clip390)" d="M36.9497 732.825 L36.9497 726.11 L42.4242 726.11 L52.6093 731.33 L52.6093 735.435 L42.4242 732.825 L36.9497 732.825 Z" fill="#000000" fill-rule="nonzero" fill-opacity="1" /><path clip-path="url(#clip390)" d="M24.1228 651.631 Q24.1228 654.4 26.4781 655.991 Q28.8334 657.551 33.0348 657.551 Q37.1725 657.551 39.5596 655.991 Q41.915 654.4 41.915 651.631 Q41.915 648.925 39.5596 647.366 Q37.1725 645.774 33.0348 645.774 Q28.8653 645.774 26.51 647.366 Q24.1228 648.925 24.1228 651.631 M20.0806 651.631 Q20.0806 646.602 23.5817 643.642 Q27.0829 640.682 33.0348 640.682 Q38.9867 640.682 42.4879 643.674 Q45.9572 646.634 45.9572 651.631 Q45.9572 656.723 42.4879 659.684 Q38.9867 662.644 33.0348 662.644 Q27.051 662.644 23.5817 659.684 Q20.0806 656.692 20.0806 651.631 M0.697011 684.478 Q0.697011 687.215 3.08415 688.807 Q5.43946 690.366 9.57717 690.366 Q13.7785 690.366 16.1338 688.807 Q18.4892 687.247 18.4892 684.478 Q18.4892 681.709 16.1338 680.149 Q13.7785 678.558 9.57717 678.558 Q5.47129 678.558 3.08415 680.149 Q0.697011 681.741 0.697011 684.478 M-3.34521 655.737 L-3.34521 650.644 L45.9572 680.372 L45.9572 685.465 L-3.34521 655.737 M-3.34521 684.478 Q-3.34521 679.449 0.155926 676.457 Q3.62524 673.465 9.57717 673.465 Q15.5928 673.465 19.0621 676.457 Q22.5314 679.417 22.5314 684.478 Q22.5314 689.539 19.0621 692.499 Q15.5609 695.427 9.57717 695.427 Q3.65706 695.427 0.155926 692.467 Q-3.34521 689.507 -3.34521 684.478 Z" fill="#000000" fill-rule="nonzero" fill-opacity="1" /><path clip-path="url(#clip390)" d="M948.425 65.6895 L975.161 65.6895 L975.161 18.9825 L955.514 18.9825 L955.514 27.5705 Q955.514 47.7845 950.977 61.193 Q950.045 63.9476 948.425 65.6895 M936.475 65.6895 Q941.903 63.1374 943.442 58.2763 Q947.372 45.7995 947.372 23.5195 L947.372 12.096 L983.344 12.096 L983.344 65.6895 L990.23 65.6895 L990.23 85.5794 L983.344 85.5794 L983.344 72.576 L940.485 72.576 L940.485 85.5794 L933.599 85.5794 L933.599 65.6895 L936.475 65.6895 Z" fill="#000000" fill-rule="nonzero" fill-opacity="1" /><path clip-path="url(#clip390)" d="M1040.7 27.2059 L1040.7 72.576 L1033.29 72.576 L1033.29 36.1584 L1011.42 72.576 L1001.86 72.576 L1001.86 27.2059 L1009.27 27.2059 L1009.27 63.5425 L1031.1 27.2059 L1040.7 27.2059 Z" fill="#000000" fill-rule="nonzero" fill-opacity="1" /><path clip-path="url(#clip390)" d="M1055.77 27.2059 L1063.27 27.2059 L1063.27 45.7185 L1087.45 45.7185 L1087.45 27.2059 L1094.95 27.2059 L1094.95 72.576 L1087.45 72.576 L1087.45 51.6733 L1063.27 51.6733 L1063.27 72.576 L1055.77 72.576 L1055.77 27.2059 Z" fill="#000000" fill-rule="nonzero" fill-opacity="1" /><path clip-path="url(#clip390)" d="M1130.92 49.7694 Q1121.88 49.7694 1118.4 51.8354 Q1114.92 53.9013 1114.92 58.8839 Q1114.92 62.8538 1117.51 65.2034 Q1120.14 67.5124 1124.64 67.5124 Q1130.84 67.5124 1134.56 63.1374 Q1138.33 58.7219 1138.33 51.4303 L1138.33 49.7694 L1130.92 49.7694 M1145.79 46.6907 L1145.79 72.576 L1138.33 72.576 L1138.33 65.6895 Q1135.78 69.8214 1131.97 71.8063 Q1128.16 73.7508 1122.65 73.7508 Q1115.69 73.7508 1111.55 69.8619 Q1107.46 65.9325 1107.46 59.3701 Q1107.46 51.7138 1112.57 47.825 Q1117.71 43.9361 1127.88 43.9361 L1138.33 43.9361 L1138.33 43.2069 Q1138.33 38.0623 1134.93 35.2672 Q1131.57 32.4315 1125.45 32.4315 Q1121.56 32.4315 1117.87 33.3632 Q1114.19 34.295 1110.79 36.1584 L1110.79 29.2718 Q1114.88 27.692 1118.72 26.9223 Q1122.57 26.1121 1126.22 26.1121 Q1136.06 26.1121 1140.92 31.2163 Q1145.79 36.3204 1145.79 46.6907 Z" fill="#000000" fill-rule="nonzero" fill-opacity="1" /><path clip-path="url(#clip390)" d="M1160.85 27.2059 L1171.75 27.2059 L1184.63 57.5877 L1197.56 27.2059 L1208.37 27.2059 L1208.37 72.576 L1200.88 72.576 L1200.88 34.3355 L1188.36 63.8666 L1180.91 63.8666 L1168.35 34.3355 L1168.35 72.576 L1160.85 72.576 L1160.85 27.2059 Z" fill="#000000" fill-rule="nonzero" fill-opacity="1" /><path clip-path="url(#clip390)" d="M1262.29 27.2059 L1262.29 72.576 L1254.88 72.576 L1254.88 36.1584 L1233 72.576 L1223.44 72.576 L1223.44 27.2059 L1230.85 27.2059 L1230.85 63.5425 L1252.69 27.2059 L1262.29 27.2059 Z" fill="#000000" fill-rule="nonzero" fill-opacity="1" /><path clip-path="url(#clip390)" d="M1277.36 27.2059 L1284.77 27.2059 L1284.77 48.5136 L1305.8 27.2059 L1314.95 27.2059 L1297.61 44.7463 L1317.18 72.576 L1308.83 72.576 L1292.75 49.6884 L1284.77 57.7902 L1284.77 72.576 L1277.36 72.576 L1277.36 27.2059 Z" fill="#000000" fill-rule="nonzero" fill-opacity="1" /><path clip-path="url(#clip390)" d="M1348.37 49.7694 Q1339.34 49.7694 1335.85 51.8354 Q1332.37 53.9013 1332.37 58.8839 Q1332.37 62.8538 1334.96 65.2034 Q1337.6 67.5124 1342.09 67.5124 Q1348.29 67.5124 1352.02 63.1374 Q1355.78 58.7219 1355.78 51.4303 L1355.78 49.7694 L1348.37 49.7694 M1363.24 46.6907 L1363.24 72.576 L1355.78 72.576 L1355.78 65.6895 Q1353.23 69.8214 1349.42 71.8063 Q1345.62 73.7508 1340.11 73.7508 Q1333.14 73.7508 1329.01 69.8619 Q1324.92 65.9325 1324.92 59.3701 Q1324.92 51.7138 1330.02 47.825 Q1335.16 43.9361 1345.33 43.9361 L1355.78 43.9361 L1355.78 43.2069 Q1355.78 38.0623 1352.38 35.2672 Q1349.02 32.4315 1342.9 32.4315 Q1339.01 32.4315 1335.33 33.3632 Q1331.64 34.295 1328.24 36.1584 L1328.24 29.2718 Q1332.33 27.692 1336.18 26.9223 Q1340.03 26.1121 1343.67 26.1121 Q1353.52 26.1121 1358.38 31.2163 Q1363.24 36.3204 1363.24 46.6907 Z" fill="#000000" fill-rule="nonzero" fill-opacity="1" /><path clip-path="url(#clip390)" d="M1401.72 63.9476 Q1408.12 67.4314 1414.48 67.4314 Q1420.44 67.4314 1424.69 63.9881 Q1428.94 60.5043 1429.71 51.6733 L1406.7 51.6733 L1406.7 45.7185 L1429.47 45.7185 Q1428.98 41.4651 1425.74 36.9686 Q1422.54 32.4315 1414.48 32.4315 Q1408.24 32.4315 1401.72 35.9153 L1401.72 28.9478 Q1408.08 26.1121 1414.81 26.1121 Q1425.42 26.1121 1431.5 32.5531 Q1437.61 38.9535 1437.61 49.9314 Q1437.61 60.8689 1431.66 67.3098 Q1425.74 73.7508 1415.33 73.7508 Q1407.68 73.7508 1401.72 70.8341 L1401.72 63.9476 Z" fill="#000000" fill-rule="nonzero" fill-opacity="1" /><path clip-path="url(#clip390)" d="M1489.38 27.2059 L1489.38 72.576 L1481.89 72.576 L1481.89 33.1607 L1457.7 33.1607 L1457.7 72.576 L1450.21 72.576 L1450.21 27.2059 L1489.38 27.2059 Z" fill="#000000" fill-rule="nonzero" fill-opacity="1" /><path clip-path="url(#clip390)" d="M1543.3 27.2059 L1543.3 72.576 L1535.89 72.576 L1535.89 36.1584 L1514.01 72.576 L1504.45 72.576 L1504.45 27.2059 L1511.87 27.2059 L1511.87 63.5425 L1533.7 27.2059 L1543.3 27.2059 Z" fill="#000000" fill-rule="nonzero" fill-opacity="1" /><path clip-path="url(#clip390)" d="M1568.78 66.6212 L1590.41 66.6212 L1590.41 33.1607 L1574.74 33.1607 L1574.74 38.832 Q1574.74 55.5217 1569.96 64.4337 L1568.78 66.6212 M1557.96 66.6212 Q1561.65 65.0008 1563.27 61.5575 Q1567.24 53.0101 1567.24 35.7938 L1567.24 27.2059 L1597.91 27.2059 L1597.91 66.6212 L1603.86 66.6212 L1603.86 84.0401 L1597.91 84.0401 L1597.91 72.576 L1561.12 72.576 L1561.12 84.0401 L1555.17 84.0401 L1555.17 66.6212 L1557.96 66.6212 Z" fill="#000000" fill-rule="nonzero" fill-opacity="1" /><path clip-path="url(#clip390)" d="M1654.82 48.0275 L1654.82 51.6733 L1620.55 51.6733 Q1621.04 59.3701 1625.17 63.421 Q1629.34 67.4314 1636.75 67.4314 Q1641.05 67.4314 1645.06 66.3781 Q1649.11 65.3249 1653.08 63.2184 L1653.08 70.267 Q1649.07 71.9684 1644.86 72.8596 Q1640.64 73.7508 1636.31 73.7508 Q1625.45 73.7508 1619.09 67.4314 Q1612.77 61.1119 1612.77 50.3365 Q1612.77 39.1965 1618.77 32.6746 Q1624.8 26.1121 1635.01 26.1121 Q1644.17 26.1121 1649.47 32.0264 Q1654.82 37.9003 1654.82 48.0275 M1647.37 45.84 Q1647.29 39.7232 1643.92 36.0774 Q1640.6 32.4315 1635.09 32.4315 Q1628.86 32.4315 1625.09 35.9558 Q1621.36 39.4801 1620.79 45.8805 L1647.37 45.84 Z" fill="#000000" fill-rule="nonzero" fill-opacity="1" /><path clip-path="url(#clip390)" d="M1666.77 27.2059 L1677.67 27.2059 L1690.55 57.5877 L1703.47 27.2059 L1714.29 27.2059 L1714.29 72.576 L1706.79 72.576 L1706.79 34.3355 L1694.28 63.8666 L1686.82 63.8666 L1674.27 34.3355 L1674.27 72.576 L1666.77 72.576 L1666.77 27.2059 Z" fill="#000000" fill-rule="nonzero" fill-opacity="1" /><path clip-path="url(#clip390)" d="M1768.21 27.2059 L1768.21 72.576 L1760.79 72.576 L1760.79 36.1584 L1738.92 72.576 L1729.36 72.576 L1729.36 27.2059 L1736.77 27.2059 L1736.77 63.5425 L1758.61 27.2059 L1768.21 27.2059 Z" fill="#000000" fill-rule="nonzero" fill-opacity="1" /><path clip-path="url(#clip390)" d="M1822.12 27.2059 L1822.12 72.576 L1814.71 72.576 L1814.71 36.1584 L1792.84 72.576 L1783.28 72.576 L1783.28 27.2059 L1790.69 27.2059 L1790.69 63.5425 L1812.52 27.2059 L1822.12 27.2059 Z" fill="#000000" fill-rule="nonzero" fill-opacity="1" /><path clip-path="url(#clip390)" d="M1881.75 9.62495 Q1876.33 18.942 1873.69 28.0566 Q1871.06 37.1711 1871.06 46.5287 Q1871.06 55.8863 1873.69 65.0818 Q1876.37 74.2369 1881.75 83.5134 L1875.27 83.5134 Q1869.2 73.9938 1866.16 64.7983 Q1863.16 55.6027 1863.16 46.5287 Q1863.16 37.4952 1866.16 28.3401 Q1869.15 19.1851 1875.27 9.62495 L1881.75 9.62495 Z" fill="#000000" fill-rule="nonzero" fill-opacity="1" /><path clip-path="url(#clip390)" d="M1903.39 51.6733 L1903.39 66.6212 L1914 66.6212 Q1919.1 66.6212 1921.78 64.7172 Q1924.45 62.7728 1924.45 59.127 Q1924.45 55.4812 1921.78 53.5773 Q1919.1 51.6733 1914 51.6733 L1903.39 51.6733 M1903.39 33.1607 L1903.39 45.7185 L1913.19 45.7185 Q1917.4 45.7185 1920.07 44.0576 Q1922.75 42.3563 1922.75 39.3586 Q1922.75 36.3609 1920.07 34.7811 Q1917.4 33.1607 1913.19 33.1607 L1903.39 33.1607 M1895.93 27.2059 L1913.67 27.2059 Q1921.65 27.2059 1925.95 30.1225 Q1930.24 33.0392 1930.24 38.4269 Q1930.24 42.5993 1928.06 45.0704 Q1925.87 47.5009 1921.57 48.1085 Q1926.72 49.0808 1929.55 52.1594 Q1932.39 55.2381 1932.39 59.8562 Q1932.39 65.9325 1927.69 69.2543 Q1923.03 72.576 1914.36 72.576 L1895.93 72.576 L1895.93 27.2059 Z" fill="#000000" fill-rule="nonzero" fill-opacity="1" /><path clip-path="url(#clip390)" d="M2010.37 27.2059 L2010.37 72.576 L2002.88 72.576 L2002.88 33.1607 L1978.69 33.1607 L1978.69 72.576 L1971.2 72.576 L1971.2 27.2059 L2010.37 27.2059 Z" fill="#000000" fill-rule="nonzero" fill-opacity="1" /><path clip-path="url(#clip390)" d="M2032.93 65.7705 L2032.93 89.8329 L2025.44 89.8329 L2025.44 27.2059 L2032.93 27.2059 L2032.93 34.0924 Q2035.28 30.0415 2038.85 28.0971 Q2042.45 26.1121 2047.44 26.1121 Q2055.7 26.1121 2060.84 32.6746 Q2066.03 39.2371 2066.03 49.9314 Q2066.03 60.6258 2060.84 67.1883 Q2055.7 73.7508 2047.44 73.7508 Q2042.45 73.7508 2038.85 71.8063 Q2035.28 69.8214 2032.93 65.7705 M2058.29 49.9314 Q2058.29 41.7081 2054.89 37.0496 Q2051.53 32.3505 2045.61 32.3505 Q2039.7 32.3505 2036.3 37.0496 Q2032.93 41.7081 2032.93 49.9314 Q2032.93 58.1548 2036.3 62.8538 Q2039.7 67.5124 2045.61 67.5124 Q2051.53 67.5124 2054.89 62.8538 Q2058.29 58.1548 2058.29 49.9314 Z" fill="#000000" fill-rule="nonzero" fill-opacity="1" /><path clip-path="url(#clip390)" d="M2095.97 32.4315 Q2089.97 32.4315 2086.49 37.1306 Q2083 41.7891 2083 49.9314 Q2083 58.0738 2086.45 62.7728 Q2089.93 67.4314 2095.97 67.4314 Q2101.92 67.4314 2105.4 62.7323 Q2108.89 58.0333 2108.89 49.9314 Q2108.89 41.8701 2105.4 37.1711 Q2101.92 32.4315 2095.97 32.4315 M2095.97 26.1121 Q2105.69 26.1121 2111.24 32.4315 Q2116.79 38.7509 2116.79 49.9314 Q2116.79 61.0714 2111.24 67.4314 Q2105.69 73.7508 2095.97 73.7508 Q2086.2 73.7508 2080.65 67.4314 Q2075.14 61.0714 2075.14 49.9314 Q2075.14 38.7509 2080.65 32.4315 Q2086.2 26.1121 2095.97 26.1121 Z" fill="#000000" fill-rule="nonzero" fill-opacity="1" /><path clip-path="url(#clip390)" d="M2168.03 72.576 L2128.86 72.576 L2128.86 27.2059 L2136.35 27.2059 L2136.35 66.6212 L2160.54 66.6212 L2160.54 27.2059 L2168.03 27.2059 L2168.03 66.6212 L2173.99 66.6212 L2173.99 84.0401 L2168.03 84.0401 L2168.03 72.576 Z" fill="#000000" fill-rule="nonzero" fill-opacity="1" /><path clip-path="url(#clip390)" d="M2224.42 48.0275 L2224.42 51.6733 L2190.15 51.6733 Q2190.63 59.3701 2194.77 63.421 Q2198.94 67.4314 2206.35 67.4314 Q2210.65 67.4314 2214.66 66.3781 Q2218.71 65.3249 2222.68 63.2184 L2222.68 70.267 Q2218.67 71.9684 2214.45 72.8596 Q2210.24 73.7508 2205.91 73.7508 Q2195.05 73.7508 2188.69 67.4314 Q2182.37 61.1119 2182.37 50.3365 Q2182.37 39.1965 2188.37 32.6746 Q2194.4 26.1121 2204.61 26.1121 Q2213.77 26.1121 2219.07 32.0264 Q2224.42 37.9003 2224.42 48.0275 M2216.97 45.84 Q2216.88 39.7232 2213.52 36.0774 Q2210.2 32.4315 2204.69 32.4315 Q2198.45 32.4315 2194.69 35.9558 Q2190.96 39.4801 2190.39 45.8805 L2216.97 45.84 Z" fill="#000000" fill-rule="nonzero" fill-opacity="1" /><path clip-path="url(#clip390)" d="M2236.37 27.2059 L2243.86 27.2059 L2243.86 45.7185 L2268.05 45.7185 L2268.05 27.2059 L2275.54 27.2059 L2275.54 72.576 L2268.05 72.576 L2268.05 51.6733 L2243.86 51.6733 L2243.86 72.576 L2236.37 72.576 L2236.37 27.2059 Z" fill="#000000" fill-rule="nonzero" fill-opacity="1" /><path clip-path="url(#clip390)" d="M2285.51 27.2059 L2328.97 27.2059 L2328.97 33.1607 L2310.91 33.1607 L2310.91 72.576 L2303.57 72.576 L2303.57 33.1607 L2285.51 33.1607 L2285.51 27.2059 Z" fill="#000000" fill-rule="nonzero" fill-opacity="1" /><path clip-path="url(#clip390)" d="M2359.84 49.7694 Q2350.81 49.7694 2347.32 51.8354 Q2343.84 53.9013 2343.84 58.8839 Q2343.84 62.8538 2346.43 65.2034 Q2349.07 67.5124 2353.56 67.5124 Q2359.76 67.5124 2363.49 63.1374 Q2367.25 58.7219 2367.25 51.4303 L2367.25 49.7694 L2359.84 49.7694 M2374.71 46.6907 L2374.71 72.576 L2367.25 72.576 L2367.25 65.6895 Q2364.7 69.8214 2360.89 71.8063 Q2357.09 73.7508 2351.58 73.7508 Q2344.61 73.7508 2340.48 69.8619 Q2336.39 65.9325 2336.39 59.3701 Q2336.39 51.7138 2341.49 47.825 Q2346.64 43.9361 2356.8 43.9361 L2367.25 43.9361 L2367.25 43.2069 Q2367.25 38.0623 2363.85 35.2672 Q2360.49 32.4315 2354.37 32.4315 Q2350.48 32.4315 2346.8 33.3632 Q2343.11 34.295 2339.71 36.1584 L2339.71 29.2718 Q2343.8 27.692 2347.65 26.9223 Q2351.5 26.1121 2355.14 26.1121 Q2364.99 26.1121 2369.85 31.2163 Q2374.71 36.3204 2374.71 46.6907 Z" fill="#000000" fill-rule="nonzero" fill-opacity="1" /><path clip-path="url(#clip390)" d="M2427.77 27.2059 L2411.37 49.2833 L2428.63 72.576 L2419.83 72.576 L2406.63 54.752 L2393.42 72.576 L2384.63 72.576 L2402.25 48.8377 L2386.13 27.2059 L2394.92 27.2059 L2406.95 43.369 L2418.98 27.2059 L2427.77 27.2059 Z" fill="#000000" fill-rule="nonzero" fill-opacity="1" /><path clip-path="url(#clip390)" d="M2437.98 9.62495 L2444.46 9.62495 Q2450.54 19.1851 2453.54 28.3401 Q2456.58 37.4952 2456.58 46.5287 Q2456.58 55.6027 2453.54 64.7983 Q2450.54 73.9938 2444.46 83.5134 L2437.98 83.5134 Q2443.37 74.2369 2446 65.0818 Q2448.68 55.8863 2448.68 46.5287 Q2448.68 37.1711 2446 28.0566 Q2443.37 18.942 2437.98 9.62495 Z" fill="#000000" fill-rule="nonzero" fill-opacity="1" /><polyline clip-path="url(#clip392)" style="stroke:#009af9; stroke-linecap:round; stroke-linejoin:round; stroke-width:8; stroke-opacity:1; fill:none" points="319.929,167.936 326.805,168.75 356.585,172.508 415.633,181.205 499.402,196.949 607.418,224.804 744.861,276.654 915.713,374.767 1123.81,550.797 1370.51,809.399 1632.03,1058.07 1930.48,1245.07 2274.68,1356.15 2609.48,1406.39 3070.25,1435.21 "/>
<polyline clip-path="url(#clip392)" style="stroke:#e26f46; stroke-linecap:round; stroke-linejoin:round; stroke-width:8; stroke-opacity:1; fill:none" points="319.929,1759.82 326.805,1759.42 356.585,1757.56 415.633,1753.28 499.402,1745.6 607.418,1732.2 744.861,1707.96 915.713,1664.81 1123.81,1597.8 1370.51,1531.74 1632.03,1524.6 1930.48,1582.65 2274.68,1662.18 2609.48,1715.43 3070.25,1752.56 "/>
<polyline clip-path="url(#clip392)" style="stroke:#3da44d; stroke-linecap:round; stroke-linejoin:round; stroke-width:8; stroke-opacity:1; fill:none" points="319.929,1776.07 326.805,1775.65 356.585,1773.75 415.633,1769.34 499.402,1761.28 607.418,1746.82 744.861,1719.21 915.713,1664.25 1123.81,1555.22 1370.51,1362.69 1632.03,1121.15 1930.48,876.104 2274.68,685.492 2609.48,582.008 3070.25,516.063 "/>
<polyline clip-path="url(#clip392)" style="stroke:#800080; stroke-linecap:round; stroke-linejoin:round; stroke-width:6; stroke-opacity:1; fill:none" stroke-dasharray="24, 15" points="-2677.92,963.879 6068.09,963.879 "/>
<path clip-path="url(#clip390)" d="M1911.78 1132.5 L3055.58 1132.5 L3055.58 873.302 L1911.78 873.302  Z" fill="#ffffff" fill-rule="evenodd" fill-opacity="1"/>
<polyline clip-path="url(#clip390)" style="stroke:#000000; stroke-linecap:round; stroke-linejoin:round; stroke-width:4; stroke-opacity:1; fill:none" points="1911.78,1132.5 3055.58,1132.5 3055.58,873.302 1911.78,873.302 1911.78,1132.5 "/>
<polyline clip-path="url(#clip390)" style="stroke:#009af9; stroke-linecap:round; stroke-linejoin:round; stroke-width:8; stroke-opacity:1; fill:none" points="1944.17,925.142 2138.53,925.142 "/>
<path clip-path="url(#clip390)" d="M2199.38 903.686 L2196.78 914.18 Q2196.64 914.812 2196.52 914.976 Q2196.41 915.14 2196.08 915.14 Q2195.82 915.14 2195.66 915.023 Q2195.52 914.906 2195.52 914.789 L2195.49 914.672 Q2195.49 914.601 2195.54 914.25 Q2195.59 913.875 2195.63 913.266 Q2195.68 912.657 2195.68 911.978 Q2195.68 908.137 2193.81 906.357 Q2191.95 904.553 2188.77 904.553 Q2186.57 904.553 2184.6 905.724 Q2182.63 906.895 2181.51 908.746 Q2180.38 910.573 2180.38 912.493 Q2180.38 914.25 2181.27 915.374 Q2182.16 916.499 2183.31 916.873 L2186.52 917.74 Q2189.89 918.607 2190.85 918.981 Q2191.81 919.333 2192.61 920.129 Q2194.98 922.331 2194.98 925.75 Q2194.98 928.702 2193.31 931.559 Q2191.65 934.393 2188.79 936.244 Q2185.94 938.071 2182.77 938.071 Q2177.22 938.071 2174.67 934.627 L2172.33 937.344 Q2171.88 937.86 2171.74 937.953 Q2171.62 938.071 2171.46 938.071 Q2171.25 938.071 2171.09 937.93 Q2170.92 937.813 2170.92 937.602 Q2170.92 937.438 2172.3 931.934 Q2173.69 926.43 2173.8 926.313 Q2173.99 926.125 2174.29 926.125 Q2174.86 926.125 2174.86 926.664 Q2174.81 926.804 2174.76 926.992 Q2174.48 928.678 2174.48 929.592 Q2174.48 931.301 2175.07 932.613 Q2175.65 933.901 2176.52 934.651 Q2177.41 935.377 2178.6 935.845 Q2179.8 936.29 2180.81 936.454 Q2181.81 936.595 2182.87 936.595 Q2185.14 936.595 2187.15 935.283 Q2189.19 933.972 2190.34 931.934 Q2191.51 929.896 2191.51 927.765 Q2191.51 926.64 2191.21 925.774 Q2190.9 924.884 2190.48 924.392 Q2190.08 923.9 2189.4 923.525 Q2188.72 923.15 2188.25 923.01 Q2187.81 922.846 2187.11 922.682 L2181.98 921.324 Q2179.92 920.715 2178.44 918.958 Q2176.99 917.201 2176.99 914.508 Q2176.99 911.673 2178.65 909.05 Q2180.34 906.403 2183.08 904.811 Q2185.84 903.195 2188.82 903.195 Q2191.16 903.195 2192.96 904.108 Q2194.77 904.998 2195.68 906.661 L2198 903.921 Q2198.47 903.382 2198.56 903.288 Q2198.68 903.195 2198.84 903.195 Q2199.12 903.195 2199.24 903.359 Q2199.38 903.522 2199.38 903.686 Z" fill="#000000" fill-rule="nonzero" fill-opacity="1" /><path clip-path="url(#clip390)" d="M2204.83 925.024 Q2204.83 916.92 2207.85 910.385 Q2209.14 907.645 2210.94 905.349 Q2212.75 903.054 2213.94 902.047 Q2215.13 901.04 2215.46 901.04 Q2215.93 901.04 2215.95 901.508 Q2215.95 901.742 2215.32 902.328 Q2207.59 910.198 2207.62 925.024 Q2207.62 939.898 2215.13 947.463 Q2215.95 948.283 2215.95 948.54 Q2215.95 949.009 2215.46 949.009 Q2215.13 949.009 2213.99 948.049 Q2212.84 947.088 2211.06 944.887 Q2209.28 942.685 2207.99 939.991 Q2204.83 933.456 2204.83 925.024 Z" fill="#000000" fill-rule="nonzero" fill-opacity="1" /><path clip-path="url(#clip390)" d="M2234.33 916.873 Q2234.33 917.529 2234.02 917.693 Q2233.72 917.834 2232.88 917.834 L2228.38 917.834 L2224.82 931.981 Q2224.54 933.222 2224.54 934.276 Q2224.54 935.447 2224.89 935.963 Q2225.26 936.478 2226.04 936.478 Q2227.56 936.478 2229.2 935.096 Q2230.86 933.714 2232.27 930.341 Q2232.46 929.896 2232.55 929.802 Q2232.67 929.685 2232.97 929.685 Q2233.56 929.685 2233.56 930.154 Q2233.56 930.318 2233.23 931.067 Q2232.92 931.817 2232.24 932.918 Q2231.59 934.019 2230.72 935.049 Q2229.88 936.08 2228.59 936.829 Q2227.3 937.555 2225.92 937.555 Q2223.98 937.555 2222.74 936.314 Q2221.52 935.073 2221.52 933.128 Q2221.52 932.496 2222.01 930.482 Q2222.5 928.444 2225.17 917.834 L2220.93 917.834 Q2220.35 917.834 2220.11 917.81 Q2219.9 917.787 2219.74 917.67 Q2219.6 917.529 2219.6 917.248 Q2219.6 916.803 2219.78 916.616 Q2219.97 916.405 2220.21 916.381 Q2220.46 916.335 2221.05 916.335 L2225.55 916.335 L2227.42 908.722 Q2227.61 907.973 2228.08 907.551 Q2228.57 907.106 2228.85 907.059 Q2229.13 906.989 2229.34 906.989 Q2229.97 906.989 2230.35 907.34 Q2230.72 907.668 2230.72 908.277 Q2230.72 908.605 2228.75 916.335 L2232.97 916.335 Q2233.51 916.335 2233.72 916.358 Q2233.95 916.381 2234.14 916.499 Q2234.33 916.616 2234.33 916.873 Z" fill="#000000" fill-rule="nonzero" fill-opacity="1" /><path clip-path="url(#clip390)" d="M2238.08 948.54 Q2238.08 948.306 2238.69 947.721 Q2246.42 939.851 2246.42 925.024 Q2246.42 910.151 2238.99 902.632 Q2238.08 901.766 2238.08 901.508 Q2238.08 901.04 2238.55 901.04 Q2238.88 901.04 2240.02 902 Q2241.2 902.96 2242.95 905.162 Q2244.73 907.364 2246.04 910.057 Q2249.21 916.592 2249.21 925.024 Q2249.21 933.128 2246.18 939.663 Q2244.9 942.404 2243.09 944.699 Q2241.29 946.995 2240.09 948.002 Q2238.9 949.009 2238.55 949.009 Q2238.08 949.009 2238.08 948.54 Z" fill="#000000" fill-rule="nonzero" fill-opacity="1" /><path clip-path="url(#clip390)" d="M2256.5 948.33 Q2256.5 948.095 2256.68 947.58 L2273.62 902.328 Q2273.62 902.281 2273.73 902.023 Q2273.85 901.766 2273.92 901.602 Q2273.99 901.414 2274.13 901.274 Q2274.3 901.133 2274.48 901.133 Q2274.95 901.133 2274.95 901.719 Q2274.95 901.766 2274.81 902.328 L2257.83 947.627 Q2257.55 948.447 2257.36 948.681 Q2257.2 948.915 2256.92 948.915 Q2256.5 948.915 2256.5 948.33 Z" fill="#000000" fill-rule="nonzero" fill-opacity="1" /><path clip-path="url(#clip390)" d="M2320.63 904.787 Q2320.63 905.748 2319.81 905.748 Q2317.16 905.841 2316.08 906.731 Q2315.03 907.598 2314.63 909.284 L2307.93 936.009 Q2307.7 936.853 2307.56 936.946 Q2307.42 937.017 2307.16 937.017 Q2306.83 937.017 2306.64 936.853 Q2306.48 936.689 2306.24 936.103 L2294.3 907.856 Q2294.21 907.668 2294.09 907.411 Q2293.97 907.153 2293.88 906.989 L2287.53 932.309 Q2287.34 933.035 2287.34 933.41 Q2287.34 934.323 2287.98 934.909 Q2288.63 935.471 2290.51 935.541 Q2291.47 935.541 2291.47 936.056 Q2291.47 937.017 2290.6 937.017 Q2289.8 937.017 2288.14 936.946 Q2286.48 936.876 2285.66 936.876 Q2284.86 936.876 2283.24 936.946 Q2281.63 937.017 2280.86 937.017 Q2280.25 937.017 2280.25 936.478 Q2280.25 936.056 2280.41 935.845 Q2280.57 935.611 2280.71 935.588 Q2280.86 935.541 2281.07 935.541 Q2282.47 935.494 2283.43 935.213 Q2284.39 934.932 2284.93 934.393 Q2285.49 933.855 2285.75 933.316 Q2286.03 932.754 2286.24 931.934 L2292.66 906.169 Q2292.66 905.748 2289.4 905.748 Q2288.84 905.748 2288.61 905.724 Q2288.4 905.701 2288.23 905.584 Q2288.07 905.467 2288.07 905.209 Q2288.07 904.553 2288.35 904.413 Q2288.63 904.249 2289.45 904.249 L2295.89 904.249 Q2296.71 904.249 2296.92 904.389 Q2297.13 904.506 2297.41 905.162 L2308.03 930.201 L2313.39 908.863 Q2313.53 908.441 2313.53 907.856 Q2313.53 906.919 2312.83 906.357 Q2312.15 905.771 2310.27 905.748 Q2309.41 905.748 2309.41 905.209 Q2309.41 904.764 2309.57 904.553 Q2309.76 904.319 2309.9 904.295 Q2310.06 904.249 2310.27 904.249 Q2311.07 904.249 2312.71 904.319 Q2314.35 904.389 2315.17 904.389 Q2315.97 904.389 2317.58 904.319 Q2319.22 904.249 2320.02 904.249 Q2320.3 904.249 2320.44 904.389 Q2320.6 904.506 2320.63 904.647 L2320.63 904.787 Z" fill="#000000" fill-rule="nonzero" fill-opacity="1" /><polyline clip-path="url(#clip390)" style="stroke:#e26f46; stroke-linecap:round; stroke-linejoin:round; stroke-width:8; stroke-opacity:1; fill:none" points="1944.17,976.982 2138.53,976.982 "/>
<path clip-path="url(#clip390)" d="M2193.13 956.674 Q2193.13 957.119 2192.94 957.33 Q2192.77 957.517 2192.52 957.564 Q2192.26 957.588 2191.58 957.588 Q2190.43 957.588 2189.71 957.681 Q2188.98 957.752 2188.54 957.869 Q2188.09 957.962 2187.83 958.29 Q2187.6 958.595 2187.48 958.876 Q2187.39 959.157 2187.22 959.789 L2180.81 985.343 Q2180.59 986.093 2180.59 986.467 Q2180.59 986.866 2180.83 987.03 Q2181.06 987.194 2181.81 987.264 Q2183.01 987.381 2183.87 987.381 Q2185.02 987.381 2185.19 987.545 Q2185.3 987.709 2185.3 987.943 Q2185.3 988.365 2185.12 988.599 Q2184.93 988.81 2184.76 988.833 Q2184.62 988.857 2184.34 988.857 L2177.92 988.716 L2171.62 988.857 Q2170.92 988.857 2170.92 988.318 Q2170.92 987.967 2170.97 987.779 Q2171.04 987.568 2171.27 987.498 Q2171.53 987.404 2171.72 987.404 Q2171.91 987.381 2172.44 987.381 Q2173.4 987.381 2174.04 987.358 Q2174.69 987.311 2175.16 987.194 Q2175.65 987.053 2175.89 986.936 Q2176.14 986.795 2176.33 986.491 Q2176.54 986.163 2176.61 985.905 Q2176.71 985.648 2176.82 985.109 L2183.29 959.251 Q2183.38 958.829 2183.38 958.501 Q2183.38 957.869 2182.63 957.728 Q2181.91 957.588 2180.08 957.588 Q2179.52 957.588 2179.28 957.564 Q2179.07 957.541 2178.89 957.424 Q2178.72 957.307 2178.72 957.049 Q2178.72 956.721 2178.81 956.51 Q2178.91 956.276 2179.07 956.206 Q2179.26 956.135 2179.38 956.112 Q2179.49 956.089 2179.68 956.089 L2186.08 956.229 L2192.4 956.089 Q2193.13 956.089 2193.13 956.674 Z" fill="#000000" fill-rule="nonzero" fill-opacity="1" /><path clip-path="url(#clip390)" d="M2198.54 976.864 Q2198.54 968.76 2201.56 962.225 Q2202.85 959.485 2204.65 957.189 Q2206.46 954.894 2207.65 953.887 Q2208.84 952.88 2209.17 952.88 Q2209.64 952.88 2209.66 953.348 Q2209.66 953.582 2209.03 954.168 Q2201.3 962.038 2201.33 976.864 Q2201.33 991.738 2208.84 999.303 Q2209.66 1000.12 2209.66 1000.38 Q2209.66 1000.85 2209.17 1000.85 Q2208.84 1000.85 2207.7 999.889 Q2206.55 998.928 2204.77 996.727 Q2202.99 994.525 2201.7 991.831 Q2198.54 985.296 2198.54 976.864 Z" fill="#000000" fill-rule="nonzero" fill-opacity="1" /><path clip-path="url(#clip390)" d="M2228.04 968.713 Q2228.04 969.369 2227.73 969.533 Q2227.43 969.674 2226.59 969.674 L2222.09 969.674 L2218.53 983.821 Q2218.25 985.062 2218.25 986.116 Q2218.25 987.287 2218.6 987.803 Q2218.97 988.318 2219.75 988.318 Q2221.27 988.318 2222.91 986.936 Q2224.57 985.554 2225.98 982.181 Q2226.17 981.736 2226.26 981.642 Q2226.38 981.525 2226.68 981.525 Q2227.27 981.525 2227.27 981.994 Q2227.27 982.158 2226.94 982.907 Q2226.63 983.657 2225.95 984.758 Q2225.3 985.859 2224.43 986.889 Q2223.59 987.92 2222.3 988.669 Q2221.01 989.395 2219.63 989.395 Q2217.69 989.395 2216.44 988.154 Q2215.23 986.913 2215.23 984.968 Q2215.23 984.336 2215.72 982.322 Q2216.21 980.284 2218.88 969.674 L2214.64 969.674 Q2214.06 969.674 2213.82 969.65 Q2213.61 969.627 2213.45 969.51 Q2213.31 969.369 2213.31 969.088 Q2213.31 968.643 2213.49 968.456 Q2213.68 968.245 2213.92 968.221 Q2214.17 968.175 2214.76 968.175 L2219.26 968.175 L2221.13 960.562 Q2221.32 959.813 2221.79 959.391 Q2222.28 958.946 2222.56 958.899 Q2222.84 958.829 2223.05 958.829 Q2223.68 958.829 2224.06 959.18 Q2224.43 959.508 2224.43 960.117 Q2224.43 960.445 2222.46 968.175 L2226.68 968.175 Q2227.22 968.175 2227.43 968.198 Q2227.66 968.221 2227.85 968.339 Q2228.04 968.456 2228.04 968.713 Z" fill="#000000" fill-rule="nonzero" fill-opacity="1" /><path clip-path="url(#clip390)" d="M2231.79 1000.38 Q2231.79 1000.15 2232.4 999.561 Q2240.13 991.691 2240.13 976.864 Q2240.13 961.991 2232.7 954.472 Q2231.79 953.606 2231.79 953.348 Q2231.79 952.88 2232.26 952.88 Q2232.59 952.88 2233.73 953.84 Q2234.91 954.8 2236.66 957.002 Q2238.44 959.204 2239.75 961.897 Q2242.92 968.432 2242.92 976.864 Q2242.92 984.968 2239.89 991.503 Q2238.61 994.244 2236.8 996.539 Q2235 998.835 2233.8 999.842 Q2232.61 1000.85 2232.26 1000.85 Q2231.79 1000.85 2231.79 1000.38 Z" fill="#000000" fill-rule="nonzero" fill-opacity="1" /><path clip-path="url(#clip390)" d="M2250.21 1000.17 Q2250.21 999.935 2250.39 999.42 L2267.33 954.168 Q2267.33 954.121 2267.44 953.863 Q2267.56 953.606 2267.63 953.442 Q2267.7 953.254 2267.84 953.114 Q2268.01 952.973 2268.19 952.973 Q2268.66 952.973 2268.66 953.559 Q2268.66 953.606 2268.52 954.168 L2251.54 999.467 Q2251.26 1000.29 2251.07 1000.52 Q2250.91 1000.76 2250.63 1000.76 Q2250.21 1000.76 2250.21 1000.17 Z" fill="#000000" fill-rule="nonzero" fill-opacity="1" /><path clip-path="url(#clip390)" d="M2314.34 956.627 Q2314.34 957.588 2313.52 957.588 Q2310.87 957.681 2309.79 958.571 Q2308.74 959.438 2308.34 961.124 L2301.64 987.849 Q2301.41 988.693 2301.27 988.786 Q2301.13 988.857 2300.87 988.857 Q2300.54 988.857 2300.35 988.693 Q2300.19 988.529 2299.95 987.943 L2288.01 959.696 Q2287.92 959.508 2287.8 959.251 Q2287.68 958.993 2287.59 958.829 L2281.24 984.149 Q2281.05 984.875 2281.05 985.25 Q2281.05 986.163 2281.69 986.749 Q2282.34 987.311 2284.21 987.381 Q2285.17 987.381 2285.17 987.896 Q2285.17 988.857 2284.31 988.857 Q2283.51 988.857 2281.85 988.786 Q2280.19 988.716 2279.37 988.716 Q2278.57 988.716 2276.95 988.786 Q2275.34 988.857 2274.56 988.857 Q2273.96 988.857 2273.96 988.318 Q2273.96 987.896 2274.12 987.685 Q2274.28 987.451 2274.42 987.428 Q2274.56 987.381 2274.78 987.381 Q2276.18 987.334 2277.14 987.053 Q2278.1 986.772 2278.64 986.233 Q2279.2 985.695 2279.46 985.156 Q2279.74 984.594 2279.95 983.774 L2286.37 958.009 Q2286.37 957.588 2283.11 957.588 Q2282.55 957.588 2282.32 957.564 Q2282.11 957.541 2281.94 957.424 Q2281.78 957.307 2281.78 957.049 Q2281.78 956.393 2282.06 956.253 Q2282.34 956.089 2283.16 956.089 L2289.6 956.089 Q2290.42 956.089 2290.63 956.229 Q2290.84 956.346 2291.12 957.002 L2301.73 982.041 L2307.1 960.703 Q2307.24 960.281 2307.24 959.696 Q2307.24 958.759 2306.54 958.197 Q2305.86 957.611 2303.98 957.588 Q2303.12 957.588 2303.12 957.049 Q2303.12 956.604 2303.28 956.393 Q2303.47 956.159 2303.61 956.135 Q2303.77 956.089 2303.98 956.089 Q2304.78 956.089 2306.42 956.159 Q2308.06 956.229 2308.88 956.229 Q2309.67 956.229 2311.29 956.159 Q2312.93 956.089 2313.73 956.089 Q2314.01 956.089 2314.15 956.229 Q2314.31 956.346 2314.34 956.487 L2314.34 956.627 Z" fill="#000000" fill-rule="nonzero" fill-opacity="1" /><polyline clip-path="url(#clip390)" style="stroke:#3da44d; stroke-linecap:round; stroke-linejoin:round; stroke-width:8; stroke-opacity:1; fill:none" points="1944.17,1028.82 2138.53,1028.82 "/>
<path clip-path="url(#clip390)" d="M2199.94 1014.16 Q2199.94 1013.39 2199.73 1012.75 Q2199.54 1012.1 2199.24 1011.65 Q2198.96 1011.18 2198.42 1010.83 Q2197.88 1010.46 2197.44 1010.22 Q2196.99 1009.99 2196.24 1009.85 Q2195.49 1009.69 2195 1009.61 Q2194.51 1009.52 2193.66 1009.47 Q2192.82 1009.43 2192.4 1009.43 Q2192 1009.43 2191.21 1009.43 Q2188.7 1009.43 2188.28 1009.47 Q2187.65 1009.57 2187.41 1009.94 Q2187.18 1010.29 2186.94 1011.25 L2183.83 1023.76 L2189.19 1023.76 Q2192.12 1023.76 2194.13 1022.94 Q2196.15 1022.12 2197.3 1020.97 Q2198.56 1019.71 2199.24 1017.67 Q2199.94 1015.63 2199.94 1014.16 M2205.17 1036.25 Q2205.17 1036.5 2204.95 1037.09 Q2204.77 1037.68 2204.3 1038.49 Q2203.83 1039.29 2203.2 1040.02 Q2202.57 1040.74 2201.56 1041.24 Q2200.55 1041.75 2199.4 1041.75 Q2199.12 1041.75 2198.84 1041.73 Q2198.56 1041.73 2197.86 1041.61 Q2197.18 1041.52 2196.62 1041.33 Q2196.05 1041.17 2195.35 1040.77 Q2194.65 1040.39 2194.16 1039.88 Q2193.69 1039.34 2193.36 1038.49 Q2193.03 1037.63 2193.03 1036.57 Q2193.03 1035.64 2193.81 1032.5 Q2194.48 1029.83 2194.48 1029.17 Q2194.48 1028.45 2194.25 1027.77 Q2194.04 1027.09 2193.5 1026.39 Q2192.99 1025.68 2191.88 1025.26 Q2190.78 1024.82 2189.24 1024.82 L2183.55 1024.82 L2180.36 1037.53 Q2180.36 1037.56 2180.29 1037.89 Q2180.22 1038.19 2180.22 1038.35 Q2180.22 1038.66 2180.41 1038.85 Q2180.62 1039.03 2181.13 1039.13 Q2181.65 1039.2 2182.05 1039.22 Q2182.47 1039.22 2183.34 1039.22 Q2184.41 1039.22 2184.6 1039.41 Q2184.69 1039.53 2184.69 1039.74 Q2184.69 1040.06 2184.6 1040.3 Q2184.53 1040.51 2184.34 1040.58 Q2184.18 1040.65 2184.06 1040.67 Q2183.94 1040.7 2183.73 1040.7 L2177.64 1040.56 L2171.6 1040.7 Q2170.92 1040.7 2170.92 1040.16 Q2170.92 1039.69 2171.09 1039.5 Q2171.25 1039.29 2171.46 1039.27 Q2171.67 1039.22 2172.21 1039.22 Q2173.38 1039.22 2174.08 1039.15 Q2174.79 1039.08 2175.23 1038.99 Q2175.7 1038.87 2175.93 1038.54 Q2176.19 1038.21 2176.31 1037.93 Q2176.43 1037.63 2176.59 1036.95 L2183.01 1011.18 Q2183.19 1010.41 2183.19 1010.29 Q2183.19 1009.85 2182.91 1009.73 Q2182.66 1009.59 2181.91 1009.52 L2180.08 1009.43 Q2179.52 1009.43 2179.28 1009.4 Q2179.07 1009.38 2178.91 1009.26 Q2178.74 1009.15 2178.74 1008.89 Q2178.74 1008.23 2179.03 1008.09 Q2179.31 1007.93 2180.13 1007.93 L2193.81 1007.93 Q2198.47 1007.93 2201.42 1009.97 Q2204.39 1012 2204.39 1015.12 Q2204.39 1016.52 2203.76 1017.84 Q2203.13 1019.15 2202.07 1020.18 Q2201.04 1021.21 2199.66 1022.08 Q2198.28 1022.92 2196.8 1023.5 Q2195.35 1024.07 2193.85 1024.39 Q2194.51 1024.63 2195.12 1024.98 Q2195.75 1025.33 2196.55 1025.99 Q2197.37 1026.64 2197.86 1027.7 Q2198.35 1028.75 2198.35 1030.04 Q2198.35 1030.95 2198.16 1032.31 Q2197.69 1036.18 2197.69 1037.77 Q2197.69 1039.29 2198.09 1039.99 Q2198.49 1040.7 2199.61 1040.7 Q2200.71 1040.7 2201.93 1039.71 Q2203.17 1038.71 2203.97 1036.34 Q2204.16 1035.66 2204.6 1035.66 Q2204.63 1035.66 2204.65 1035.66 Q2204.7 1035.66 2204.79 1035.71 Q2204.88 1035.73 2204.95 1035.8 Q2205.05 1035.85 2205.09 1035.97 Q2205.17 1036.08 2205.17 1036.25 Z" fill="#000000" fill-rule="nonzero" fill-opacity="1" /><path clip-path="url(#clip390)" d="M2210.42 1028.7 Q2210.42 1020.6 2213.44 1014.07 Q2214.73 1011.32 2216.53 1009.03 Q2218.34 1006.73 2219.53 1005.73 Q2220.73 1004.72 2221.05 1004.72 Q2221.52 1004.72 2221.55 1005.19 Q2221.55 1005.42 2220.91 1006.01 Q2213.18 1013.88 2213.21 1028.7 Q2213.21 1043.58 2220.73 1051.14 Q2221.55 1051.96 2221.55 1052.22 Q2221.55 1052.69 2221.05 1052.69 Q2220.73 1052.69 2219.58 1051.73 Q2218.43 1050.77 2216.65 1048.57 Q2214.87 1046.36 2213.58 1043.67 Q2210.42 1037.14 2210.42 1028.7 Z" fill="#000000" fill-rule="nonzero" fill-opacity="1" /><path clip-path="url(#clip390)" d="M2239.92 1020.55 Q2239.92 1021.21 2239.62 1021.37 Q2239.31 1021.51 2238.47 1021.51 L2233.97 1021.51 L2230.41 1035.66 Q2230.13 1036.9 2230.13 1037.96 Q2230.13 1039.13 2230.48 1039.64 Q2230.86 1040.16 2231.63 1040.16 Q2233.15 1040.16 2234.79 1038.78 Q2236.45 1037.39 2237.86 1034.02 Q2238.05 1033.58 2238.14 1033.48 Q2238.26 1033.37 2238.56 1033.37 Q2239.15 1033.37 2239.15 1033.83 Q2239.15 1034 2238.82 1034.75 Q2238.51 1035.5 2237.84 1036.6 Q2237.18 1037.7 2236.31 1038.73 Q2235.47 1039.76 2234.18 1040.51 Q2232.89 1041.24 2231.51 1041.24 Q2229.57 1041.24 2228.33 1039.99 Q2227.11 1038.75 2227.11 1036.81 Q2227.11 1036.18 2227.6 1034.16 Q2228.09 1032.12 2230.76 1021.51 L2226.52 1021.51 Q2225.94 1021.51 2225.7 1021.49 Q2225.49 1021.47 2225.33 1021.35 Q2225.19 1021.21 2225.19 1020.93 Q2225.19 1020.48 2225.37 1020.3 Q2225.56 1020.08 2225.8 1020.06 Q2226.05 1020.01 2226.64 1020.01 L2231.14 1020.01 L2233.01 1012.4 Q2233.2 1011.65 2233.67 1011.23 Q2234.16 1010.79 2234.44 1010.74 Q2234.72 1010.67 2234.93 1010.67 Q2235.56 1010.67 2235.94 1011.02 Q2236.31 1011.35 2236.31 1011.96 Q2236.31 1012.29 2234.35 1020.01 L2238.56 1020.01 Q2239.1 1020.01 2239.31 1020.04 Q2239.55 1020.06 2239.73 1020.18 Q2239.92 1020.3 2239.92 1020.55 Z" fill="#000000" fill-rule="nonzero" fill-opacity="1" /><path clip-path="url(#clip390)" d="M2243.67 1052.22 Q2243.67 1051.99 2244.28 1051.4 Q2252.01 1043.53 2252.01 1028.7 Q2252.01 1013.83 2244.58 1006.31 Q2243.67 1005.45 2243.67 1005.19 Q2243.67 1004.72 2244.14 1004.72 Q2244.47 1004.72 2245.62 1005.68 Q2246.79 1006.64 2248.54 1008.84 Q2250.32 1011.04 2251.63 1013.74 Q2254.8 1020.27 2254.8 1028.7 Q2254.8 1036.81 2251.78 1043.34 Q2250.49 1046.08 2248.68 1048.38 Q2246.88 1050.67 2245.69 1051.68 Q2244.49 1052.69 2244.14 1052.69 Q2243.67 1052.69 2243.67 1052.22 Z" fill="#000000" fill-rule="nonzero" fill-opacity="1" /><path clip-path="url(#clip390)" d="M2262.09 1052.01 Q2262.09 1051.78 2262.27 1051.26 L2279.21 1006.01 Q2279.21 1005.96 2279.33 1005.7 Q2279.44 1005.45 2279.51 1005.28 Q2279.58 1005.09 2279.72 1004.95 Q2279.89 1004.81 2280.08 1004.81 Q2280.54 1004.81 2280.54 1005.4 Q2280.54 1005.45 2280.4 1006.01 L2263.42 1051.31 Q2263.14 1052.13 2262.95 1052.36 Q2262.79 1052.6 2262.51 1052.6 Q2262.09 1052.6 2262.09 1052.01 Z" fill="#000000" fill-rule="nonzero" fill-opacity="1" /><path clip-path="url(#clip390)" d="M2326.22 1008.47 Q2326.22 1009.43 2325.4 1009.43 Q2322.75 1009.52 2321.67 1010.41 Q2320.62 1011.28 2320.22 1012.96 L2313.52 1039.69 Q2313.29 1040.53 2313.15 1040.63 Q2313.01 1040.7 2312.75 1040.7 Q2312.42 1040.7 2312.23 1040.53 Q2312.07 1040.37 2311.84 1039.78 L2299.89 1011.54 Q2299.8 1011.35 2299.68 1011.09 Q2299.56 1010.83 2299.47 1010.67 L2293.12 1035.99 Q2292.93 1036.71 2292.93 1037.09 Q2292.93 1038 2293.57 1038.59 Q2294.22 1039.15 2296.1 1039.22 Q2297.06 1039.22 2297.06 1039.74 Q2297.06 1040.7 2296.19 1040.7 Q2295.39 1040.7 2293.73 1040.63 Q2292.07 1040.56 2291.25 1040.56 Q2290.45 1040.56 2288.83 1040.63 Q2287.22 1040.7 2286.45 1040.7 Q2285.84 1040.7 2285.84 1040.16 Q2285.84 1039.74 2286 1039.53 Q2286.16 1039.29 2286.31 1039.27 Q2286.45 1039.22 2286.66 1039.22 Q2288.06 1039.17 2289.02 1038.89 Q2289.98 1038.61 2290.52 1038.07 Q2291.08 1037.53 2291.34 1037 Q2291.62 1036.43 2291.83 1035.61 L2298.25 1009.85 Q2298.25 1009.43 2295 1009.43 Q2294.43 1009.43 2294.2 1009.4 Q2293.99 1009.38 2293.82 1009.26 Q2293.66 1009.15 2293.66 1008.89 Q2293.66 1008.23 2293.94 1008.09 Q2294.22 1007.93 2295.04 1007.93 L2301.48 1007.93 Q2302.3 1007.93 2302.51 1008.07 Q2302.72 1008.19 2303.01 1008.84 L2313.62 1033.88 L2318.98 1012.54 Q2319.12 1012.12 2319.12 1011.54 Q2319.12 1010.6 2318.42 1010.04 Q2317.74 1009.45 2315.86 1009.43 Q2315 1009.43 2315 1008.89 Q2315 1008.44 2315.16 1008.23 Q2315.35 1008 2315.49 1007.98 Q2315.65 1007.93 2315.86 1007.93 Q2316.66 1007.93 2318.3 1008 Q2319.94 1008.07 2320.76 1008.07 Q2321.56 1008.07 2323.17 1008 Q2324.81 1007.93 2325.61 1007.93 Q2325.89 1007.93 2326.03 1008.07 Q2326.19 1008.19 2326.22 1008.33 L2326.22 1008.47 Z" fill="#000000" fill-rule="nonzero" fill-opacity="1" /><polyline clip-path="url(#clip390)" style="stroke:#800080; stroke-linecap:round; stroke-linejoin:round; stroke-width:6; stroke-opacity:1; fill:none" stroke-dasharray="24, 15" points="1944.17,1080.66 2138.53,1080.66 "/>
<path clip-path="url(#clip390)" d="M2170.92 1063.38 L2175.6 1063.38 L2175.6 1080.46 L2192.31 1063.38 L2198.31 1063.38 L2184.95 1077.04 L2199 1097.94 L2193.91 1097.94 L2181.92 1080.14 L2175.6 1086.6 L2175.6 1097.94 L2170.92 1097.94 L2170.92 1063.38 Z" fill="#000000" fill-rule="nonzero" fill-opacity="1" /><path clip-path="url(#clip390)" d="M2214.44 1075 Q2211.01 1075 2209.02 1077.69 Q2207.03 1080.35 2207.03 1085 Q2207.03 1089.65 2209 1092.34 Q2210.99 1095 2214.44 1095 Q2217.84 1095 2219.83 1092.32 Q2221.82 1089.63 2221.82 1085 Q2221.82 1080.4 2219.83 1077.71 Q2217.84 1075 2214.44 1075 M2214.44 1071.39 Q2220 1071.39 2223.17 1075 Q2226.34 1078.61 2226.34 1085 Q2226.34 1091.37 2223.17 1095 Q2220 1098.61 2214.44 1098.61 Q2208.86 1098.61 2205.69 1095 Q2202.54 1091.37 2202.54 1085 Q2202.54 1078.61 2205.69 1075 Q2208.86 1071.39 2214.44 1071.39 Z" fill="#000000" fill-rule="nonzero" fill-opacity="1" /><path clip-path="url(#clip390)" d="M2230.69 1097.94 L2230.69 1094.4 Q2234.9 1093.75 2236.2 1090.84 Q2237.77 1086.74 2237.77 1076.25 L2237.77 1072.02 L2255.3 1072.02 L2255.3 1097.94 L2251.04 1097.94 L2251.04 1075.42 L2242.03 1075.42 L2242.03 1077.99 Q2242.03 1087.99 2240 1092.48 Q2237.82 1097.27 2230.69 1097.94 Z" fill="#000000" fill-rule="nonzero" fill-opacity="1" /><path clip-path="url(#clip390)" d="M2260.99 1097.94 L2260.99 1094.4 Q2265.2 1093.75 2266.5 1090.84 Q2268.07 1086.74 2268.07 1076.25 L2268.07 1072.02 L2285.6 1072.02 L2285.6 1097.94 L2281.34 1097.94 L2281.34 1075.42 L2272.33 1075.42 L2272.33 1077.99 Q2272.33 1087.99 2270.3 1092.48 Q2268.12 1097.27 2260.99 1097.94 Z" fill="#000000" fill-rule="nonzero" fill-opacity="1" /><path clip-path="url(#clip390)" d="M2316.18 1083.91 L2316.18 1086 L2296.59 1086 Q2296.87 1090.4 2299.23 1092.71 Q2301.62 1095 2305.85 1095 Q2308.3 1095 2310.6 1094.4 Q2312.91 1093.8 2315.18 1092.59 L2315.18 1096.62 Q2312.89 1097.59 2310.48 1098.1 Q2308.07 1098.61 2305.6 1098.61 Q2299.39 1098.61 2295.76 1095 Q2292.15 1091.39 2292.15 1085.23 Q2292.15 1078.87 2295.57 1075.14 Q2299.02 1071.39 2304.86 1071.39 Q2310.09 1071.39 2313.12 1074.77 Q2316.18 1078.13 2316.18 1083.91 M2311.92 1082.66 Q2311.87 1079.17 2309.95 1077.09 Q2308.05 1075 2304.9 1075 Q2301.34 1075 2299.18 1077.02 Q2297.06 1079.03 2296.73 1082.69 L2311.92 1082.66 Z" fill="#000000" fill-rule="nonzero" fill-opacity="1" /><path clip-path="url(#clip390)" d="M2323 1072.02 L2327.24 1072.02 L2327.24 1084.19 L2339.25 1072.02 L2344.49 1072.02 L2334.58 1082.04 L2345.76 1097.94 L2340.99 1097.94 L2331.8 1084.86 L2327.24 1089.49 L2327.24 1097.94 L2323 1097.94 L2323 1072.02 Z" fill="#000000" fill-rule="nonzero" fill-opacity="1" /><path clip-path="url(#clip390)" d="M2348.72 1072.02 L2373.56 1072.02 L2373.56 1075.42 L2363.24 1075.42 L2363.24 1097.94 L2359.05 1097.94 L2359.05 1075.42 L2348.72 1075.42 L2348.72 1072.02 Z" fill="#000000" fill-rule="nonzero" fill-opacity="1" /><path clip-path="url(#clip390)" d="M2401.45 1072.02 L2401.45 1097.94 L2397.22 1097.94 L2397.22 1077.13 L2384.72 1097.94 L2379.25 1097.94 L2379.25 1072.02 L2383.49 1072.02 L2383.49 1092.78 L2395.97 1072.02 L2401.45 1072.02 Z" fill="#000000" fill-rule="nonzero" fill-opacity="1" /><path clip-path="url(#clip390)" d="M2414.32 1086 L2414.32 1094.54 L2420.39 1094.54 Q2423.3 1094.54 2424.83 1093.45 Q2426.36 1092.34 2426.36 1090.26 Q2426.36 1088.17 2424.83 1087.09 Q2423.3 1086 2420.39 1086 L2414.32 1086 M2414.32 1075.42 L2414.32 1082.59 L2419.92 1082.59 Q2422.33 1082.59 2423.86 1081.65 Q2425.39 1080.67 2425.39 1078.96 Q2425.39 1077.25 2423.86 1076.34 Q2422.33 1075.42 2419.92 1075.42 L2414.32 1075.42 M2410.06 1072.02 L2420.2 1072.02 Q2424.76 1072.02 2427.22 1073.68 Q2429.67 1075.35 2429.67 1078.43 Q2429.67 1080.81 2428.42 1082.22 Q2427.17 1083.61 2424.72 1083.96 Q2427.66 1084.52 2429.28 1086.27 Q2430.9 1088.03 2430.9 1090.67 Q2430.9 1094.15 2428.21 1096.04 Q2425.55 1097.94 2420.6 1097.94 L2410.06 1097.94 L2410.06 1072.02 Z" fill="#000000" fill-rule="nonzero" fill-opacity="1" /><path clip-path="url(#clip390)" d="M2438 1072.02 L2442.29 1072.02 L2442.29 1082.59 L2456.11 1082.59 L2456.11 1072.02 L2460.39 1072.02 L2460.39 1097.94 L2456.11 1097.94 L2456.11 1086 L2442.29 1086 L2442.29 1097.94 L2438 1097.94 L2438 1072.02 Z" fill="#000000" fill-rule="nonzero" fill-opacity="1" /><path clip-path="url(#clip390)" d="M2493.65 1072.02 L2497.91 1072.02 L2497.91 1097.94 L2493.65 1097.94 L2493.65 1072.02 M2495.78 1071.39 L2495.78 1071.39 M2485.29 1090.26 Q2485.29 1088.17 2483.77 1087.09 Q2482.26 1086 2479.35 1086 L2473.28 1086 L2473.28 1094.54 L2479.35 1094.54 Q2482.26 1094.54 2483.77 1093.45 Q2485.29 1092.34 2485.29 1090.26 M2469 1072.02 L2473.28 1072.02 L2473.28 1082.59 L2479.53 1082.59 Q2484.48 1082.59 2487.15 1084.49 Q2489.83 1086.37 2489.83 1090.26 Q2489.83 1094.15 2487.15 1096.04 Q2484.48 1097.94 2479.53 1097.94 L2469 1097.94 L2469 1072.02 Z" fill="#000000" fill-rule="nonzero" fill-opacity="1" /><path clip-path="url(#clip390)" d="M2528.63 1072.02 L2528.63 1097.94 L2524.39 1097.94 L2524.39 1077.13 L2511.89 1097.94 L2506.43 1097.94 L2506.43 1072.02 L2510.66 1072.02 L2510.66 1092.78 L2523.14 1072.02 L2528.63 1072.02 M2510.29 1061.92 L2513.03 1061.92 Q2513.28 1063.66 2514.39 1064.54 Q2515.53 1065.4 2517.54 1065.4 Q2519.53 1065.4 2520.64 1064.54 Q2521.75 1063.68 2522.05 1061.92 L2524.79 1061.92 Q2524.55 1065.23 2522.73 1066.9 Q2520.9 1068.57 2517.54 1068.57 Q2514.18 1068.57 2512.35 1066.9 Q2510.53 1065.23 2510.29 1061.92 Z" fill="#000000" fill-rule="nonzero" fill-opacity="1" /><path clip-path="url(#clip390)" d="M2574.51 1072.02 L2574.51 1097.94 L2570.27 1097.94 L2570.27 1077.13 L2557.77 1097.94 L2552.31 1097.94 L2552.31 1072.02 L2556.54 1072.02 L2556.54 1092.78 L2569.02 1072.02 L2574.51 1072.02 Z" fill="#000000" fill-rule="nonzero" fill-opacity="1" /><path clip-path="url(#clip390)" d="M2583.12 1072.02 L2589.35 1072.02 L2596.71 1089.38 L2604.09 1072.02 L2610.27 1072.02 L2610.27 1097.94 L2605.99 1097.94 L2605.99 1076.09 L2598.84 1092.96 L2594.58 1092.96 L2587.4 1076.09 L2587.4 1097.94 L2583.12 1097.94 L2583.12 1072.02 Z" fill="#000000" fill-rule="nonzero" fill-opacity="1" /><path clip-path="url(#clip390)" d="M2618.88 1072.02 L2625.11 1072.02 L2632.47 1089.38 L2639.85 1072.02 L2646.03 1072.02 L2646.03 1097.94 L2641.75 1097.94 L2641.75 1076.09 L2634.6 1092.96 L2630.34 1092.96 L2623.16 1076.09 L2623.16 1097.94 L2618.88 1097.94 L2618.88 1072.02 Z" fill="#000000" fill-rule="nonzero" fill-opacity="1" /><path clip-path="url(#clip390)" d="M2665.59 1100.35 Q2663.79 1104.98 2662.08 1106.39 Q2660.36 1107.8 2657.49 1107.8 L2654.09 1107.8 L2654.09 1104.24 L2656.59 1104.24 Q2658.35 1104.24 2659.32 1103.4 Q2660.29 1102.57 2661.47 1099.47 L2662.24 1097.52 L2651.75 1072.02 L2656.27 1072.02 L2664.37 1092.29 L2672.47 1072.02 L2676.98 1072.02 L2665.59 1100.35 Z" fill="#000000" fill-rule="nonzero" fill-opacity="1" /><path clip-path="url(#clip390)" d="M2682.7 1072.02 L2686.98 1072.02 L2686.98 1082.59 L2700.8 1082.59 L2700.8 1072.02 L2705.09 1072.02 L2705.09 1097.94 L2700.8 1097.94 L2700.8 1086 L2686.98 1086 L2686.98 1097.94 L2682.7 1097.94 L2682.7 1072.02 Z" fill="#000000" fill-rule="nonzero" fill-opacity="1" /><path clip-path="url(#clip390)" d="M2735.9 1072.02 L2735.9 1097.94 L2731.66 1097.94 L2731.66 1077.13 L2719.16 1097.94 L2713.7 1097.94 L2713.7 1072.02 L2717.93 1072.02 L2717.93 1092.78 L2730.41 1072.02 L2735.9 1072.02 Z" fill="#000000" fill-rule="nonzero" fill-opacity="1" /><path clip-path="url(#clip390)" d="M2741.59 1072.02 L2766.43 1072.02 L2766.43 1075.42 L2756.1 1075.42 L2756.1 1097.94 L2751.91 1097.94 L2751.91 1075.42 L2741.59 1075.42 L2741.59 1072.02 Z" fill="#000000" fill-rule="nonzero" fill-opacity="1" /><path clip-path="url(#clip390)" d="M2794.46 1083.91 L2794.46 1086 L2774.88 1086 Q2775.15 1090.4 2777.52 1092.71 Q2779.9 1095 2784.14 1095 Q2786.59 1095 2788.88 1094.4 Q2791.2 1093.8 2793.46 1092.59 L2793.46 1096.62 Q2791.17 1097.59 2788.77 1098.1 Q2786.36 1098.61 2783.88 1098.61 Q2777.68 1098.61 2774.04 1095 Q2770.43 1091.39 2770.43 1085.23 Q2770.43 1078.87 2773.86 1075.14 Q2777.31 1071.39 2783.14 1071.39 Q2788.37 1071.39 2791.4 1074.77 Q2794.46 1078.13 2794.46 1083.91 M2790.2 1082.66 Q2790.15 1079.17 2788.23 1077.09 Q2786.33 1075 2783.19 1075 Q2779.62 1075 2777.47 1077.02 Q2775.34 1079.03 2775.02 1082.69 L2790.2 1082.66 Z" fill="#000000" fill-rule="nonzero" fill-opacity="1" /><path clip-path="url(#clip390)" d="M2798.37 1072.02 L2823.21 1072.02 L2823.21 1075.42 L2812.89 1075.42 L2812.89 1097.94 L2808.7 1097.94 L2808.7 1075.42 L2798.37 1075.42 L2798.37 1072.02 Z" fill="#000000" fill-rule="nonzero" fill-opacity="1" /><path clip-path="url(#clip390)" d="M2854.37 1061.97 Q2851.27 1067.29 2849.76 1072.5 Q2848.26 1077.71 2848.26 1083.06 Q2848.26 1088.4 2849.76 1093.66 Q2851.29 1098.89 2854.37 1104.19 L2850.66 1104.19 Q2847.19 1098.75 2845.45 1093.5 Q2843.74 1088.24 2843.74 1083.06 Q2843.74 1077.9 2845.45 1072.66 Q2847.17 1067.43 2850.66 1061.97 L2854.37 1061.97 Z" fill="#000000" fill-rule="nonzero" fill-opacity="1" /><path clip-path="url(#clip390)" d="M2863.28 1063.38 L2881.64 1063.38 L2881.64 1067.32 L2867.56 1067.32 L2867.56 1075.79 Q2868.58 1075.44 2869.6 1075.28 Q2870.62 1075.09 2871.64 1075.09 Q2877.42 1075.09 2880.8 1078.27 Q2884.18 1081.44 2884.18 1086.85 Q2884.18 1092.43 2880.71 1095.53 Q2877.24 1098.61 2870.92 1098.61 Q2868.74 1098.61 2866.47 1098.24 Q2864.23 1097.87 2861.82 1097.13 L2861.82 1092.43 Q2863.9 1093.57 2866.13 1094.12 Q2868.35 1094.68 2870.83 1094.68 Q2874.83 1094.68 2877.17 1092.57 Q2879.51 1090.46 2879.51 1086.85 Q2879.51 1083.24 2877.17 1081.14 Q2874.83 1079.03 2870.83 1079.03 Q2868.95 1079.03 2867.08 1079.45 Q2865.22 1079.86 2863.28 1080.74 L2863.28 1063.38 Z" fill="#000000" fill-rule="nonzero" fill-opacity="1" /><path clip-path="url(#clip390)" d="M2903.39 1066.46 Q2899.78 1066.46 2897.95 1070.03 Q2896.15 1073.57 2896.15 1080.7 Q2896.15 1087.8 2897.95 1091.37 Q2899.78 1094.91 2903.39 1094.91 Q2907.03 1094.91 2908.83 1091.37 Q2910.66 1087.8 2910.66 1080.7 Q2910.66 1073.57 2908.83 1070.03 Q2907.03 1066.46 2903.39 1066.46 M2903.39 1062.76 Q2909.2 1062.76 2912.26 1067.36 Q2915.34 1071.95 2915.34 1080.7 Q2915.34 1089.42 2912.26 1094.03 Q2909.2 1098.61 2903.39 1098.61 Q2897.58 1098.61 2894.51 1094.03 Q2891.45 1089.42 2891.45 1080.7 Q2891.45 1071.95 2894.51 1067.36 Q2897.58 1062.76 2903.39 1062.76 Z" fill="#000000" fill-rule="nonzero" fill-opacity="1" /><path clip-path="url(#clip390)" d="M2923.56 1092.06 L2928.44 1092.06 L2928.44 1097.94 L2923.56 1097.94 L2923.56 1092.06 Z" fill="#000000" fill-rule="nonzero" fill-opacity="1" /><path clip-path="url(#clip390)" d="M2948.63 1066.46 Q2945.01 1066.46 2943.19 1070.03 Q2941.38 1073.57 2941.38 1080.7 Q2941.38 1087.8 2943.19 1091.37 Q2945.01 1094.91 2948.63 1094.91 Q2952.26 1094.91 2954.07 1091.37 Q2955.89 1087.8 2955.89 1080.7 Q2955.89 1073.57 2954.07 1070.03 Q2952.26 1066.46 2948.63 1066.46 M2948.63 1062.76 Q2954.44 1062.76 2957.49 1067.36 Q2960.57 1071.95 2960.57 1080.7 Q2960.57 1089.42 2957.49 1094.03 Q2954.44 1098.61 2948.63 1098.61 Q2942.82 1098.61 2939.74 1094.03 Q2936.68 1089.42 2936.68 1080.7 Q2936.68 1071.95 2939.74 1067.36 Q2942.82 1062.76 2948.63 1062.76 Z" fill="#000000" fill-rule="nonzero" fill-opacity="1" /><path clip-path="url(#clip390)" d="M2998.19 1082.73 Q2996.17 1082.73 2995.01 1084.45 Q2993.88 1086.16 2993.88 1089.21 Q2993.88 1092.22 2995.01 1093.96 Q2996.17 1095.67 2998.19 1095.67 Q3000.15 1095.67 3001.29 1093.96 Q3002.44 1092.22 3002.44 1089.21 Q3002.44 1086.18 3001.29 1084.47 Q3000.15 1082.73 2998.19 1082.73 M2998.19 1079.79 Q3001.84 1079.79 3004 1082.34 Q3006.15 1084.89 3006.15 1089.21 Q3006.15 1093.54 3003.97 1096.09 Q3001.82 1098.61 2998.19 1098.61 Q2994.48 1098.61 2992.33 1096.09 Q2990.18 1093.54 2990.18 1089.21 Q2990.18 1084.86 2992.33 1082.34 Q2994.5 1079.79 2998.19 1079.79 M2974.3 1065.7 Q2972.31 1065.7 2971.15 1067.43 Q2970.01 1069.15 2970.01 1072.15 Q2970.01 1075.21 2971.15 1076.92 Q2972.28 1078.64 2974.3 1078.64 Q2976.31 1078.64 2977.44 1076.92 Q2978.6 1075.21 2978.6 1072.15 Q2978.6 1069.17 2977.44 1067.43 Q2976.29 1065.7 2974.3 1065.7 M2995.2 1062.76 L2998.9 1062.76 L2977.28 1098.61 L2973.58 1098.61 L2995.2 1062.76 M2974.3 1062.76 Q2977.95 1062.76 2980.13 1065.3 Q2982.31 1067.83 2982.31 1072.15 Q2982.31 1076.53 2980.13 1079.05 Q2977.98 1081.58 2974.3 1081.58 Q2970.62 1081.58 2968.46 1079.05 Q2966.33 1076.51 2966.33 1072.15 Q2966.33 1067.85 2968.49 1065.3 Q2970.64 1062.76 2974.3 1062.76 Z" fill="#000000" fill-rule="nonzero" fill-opacity="1" /><path clip-path="url(#clip390)" d="M3012.56 1061.97 L3016.26 1061.97 Q3019.74 1067.43 3021.45 1072.66 Q3023.19 1077.9 3023.19 1083.06 Q3023.19 1088.24 3021.45 1093.5 Q3019.74 1098.75 3016.26 1104.19 L3012.56 1104.19 Q3015.64 1098.89 3017.14 1093.66 Q3018.67 1088.4 3018.67 1083.06 Q3018.67 1077.71 3017.14 1072.5 Q3015.64 1067.29 3012.56 1061.97 Z" fill="#000000" fill-rule="nonzero" fill-opacity="1" /></svg>
