<?xml version="1.0" encoding="utf-8"?>
<svg xmlns="http://www.w3.org/2000/svg" xmlns:xlink="http://www.w3.org/1999/xlink" width="480" height="384" viewBox="0 0 1920 1536">
<defs>
  <clipPath id="clip690">
    <rect x="0" y="0" width="1920" height="1536"/>
  </clipPath>
</defs>
<path clip-path="url(#clip690)" d="M0 1536 L1920 1536 L1920 0 L0 0  Z" fill="#ffffff" fill-rule="evenodd" fill-opacity="1"/>
<defs>
  <clipPath id="clip691">
    <rect x="239" y="135" width="1634" height="1209"/>
  </clipPath>
</defs>
<path clip-path="url(#clip690)" d="M237.093 1343.4 L1872.76 1343.4 L1872.76 135.568 L237.093 135.568  Z" fill="#ffffff" fill-rule="evenodd" fill-opacity="1"/>
<defs>
  <clipPath id="clip692">
    <rect x="237" y="135" width="1637" height="1209"/>
  </clipPath>
</defs>
<polyline clip-path="url(#clip692)" style="stroke:#000000; stroke-linecap:round; stroke-linejoin:round; stroke-width:2; stroke-opacity:0.1; fill:none" points="553.822,1343.4 553.822,135.568 "/>
<polyline clip-path="url(#clip692)" style="stroke:#000000; stroke-linecap:round; stroke-linejoin:round; stroke-width:2; stroke-opacity:0.1; fill:none" points="871.982,1343.4 871.982,135.568 "/>
<polyline clip-path="url(#clip692)" style="stroke:#000000; stroke-linecap:round; stroke-linejoin:round; stroke-width:2; stroke-opacity:0.1; fill:none" points="1190.14,1343.4 1190.14,135.568 "/>
<polyline clip-path="url(#clip692)" style="stroke:#000000; stroke-linecap:round; stroke-linejoin:round; stroke-width:2; stroke-opacity:0.1; fill:none" points="1508.3,1343.4 1508.3,135.568 "/>
<polyline clip-path="url(#clip692)" style="stroke:#000000; stroke-linecap:round; stroke-linejoin:round; stroke-width:2; stroke-opacity:0.1; fill:none" points="1826.46,1343.4 1826.46,135.568 "/>
<polyline clip-path="url(#clip692)" style="stroke:#000000; stroke-linecap:round; stroke-linejoin:round; stroke-width:2; stroke-opacity:0.1; fill:none" points="237.093,1325.65 1872.76,1325.65 "/>
<polyline clip-path="url(#clip692)" style="stroke:#000000; stroke-linecap:round; stroke-linejoin:round; stroke-width:2; stroke-opacity:0.1; fill:none" points="237.093,1036.56 1872.76,1036.56 "/>
<polyline clip-path="url(#clip692)" style="stroke:#000000; stroke-linecap:round; stroke-linejoin:round; stroke-width:2; stroke-opacity:0.1; fill:none" points="237.093,747.456 1872.76,747.456 "/>
<polyline clip-path="url(#clip692)" style="stroke:#000000; stroke-linecap:round; stroke-linejoin:round; stroke-width:2; stroke-opacity:0.1; fill:none" points="237.093,458.357 1872.76,458.357 "/>
<polyline clip-path="url(#clip692)" style="stroke:#000000; stroke-linecap:round; stroke-linejoin:round; stroke-width:2; stroke-opacity:0.1; fill:none" points="237.093,169.258 1872.76,169.258 "/>
<polyline clip-path="url(#clip690)" style="stroke:#000000; stroke-linecap:round; stroke-linejoin:round; stroke-width:4; stroke-opacity:1; fill:none" points="237.093,1343.4 1872.76,1343.4 "/>
<polyline clip-path="url(#clip690)" style="stroke:#000000; stroke-linecap:round; stroke-linejoin:round; stroke-width:4; stroke-opacity:1; fill:none" points="553.822,1343.4 553.822,1324.51 "/>
<polyline clip-path="url(#clip690)" style="stroke:#000000; stroke-linecap:round; stroke-linejoin:round; stroke-width:4; stroke-opacity:1; fill:none" points="871.982,1343.4 871.982,1324.51 "/>
<polyline clip-path="url(#clip690)" style="stroke:#000000; stroke-linecap:round; stroke-linejoin:round; stroke-width:4; stroke-opacity:1; fill:none" points="1190.14,1343.4 1190.14,1324.51 "/>
<polyline clip-path="url(#clip690)" style="stroke:#000000; stroke-linecap:round; stroke-linejoin:round; stroke-width:4; stroke-opacity:1; fill:none" points="1508.3,1343.4 1508.3,1324.51 "/>
<polyline clip-path="url(#clip690)" style="stroke:#000000; stroke-linecap:round; stroke-linejoin:round; stroke-width:4; stroke-opacity:1; fill:none" points="1826.46,1343.4 1826.46,1324.51 "/>
<path clip-path="url(#clip690)" d="M548.475 1398.03 L564.794 1398.03 L564.794 1401.96 L542.85 1401.96 L542.85 1398.03 Q545.512 1395.27 550.095 1390.64 Q554.702 1385.99 555.882 1384.65 Q558.128 1382.13 559.007 1380.39 Q559.91 1378.63 559.91 1376.94 Q559.91 1374.19 557.966 1372.45 Q556.044 1370.71 552.942 1370.71 Q550.743 1370.71 548.29 1371.48 Q545.859 1372.24 543.081 1373.79 L543.081 1369.07 Q545.905 1367.94 548.359 1367.36 Q550.813 1366.78 552.85 1366.78 Q558.22 1366.78 561.415 1369.46 Q564.609 1372.15 564.609 1376.64 Q564.609 1378.77 563.799 1380.69 Q563.012 1382.59 560.905 1385.18 Q560.327 1385.85 557.225 1389.07 Q554.123 1392.26 548.475 1398.03 Z" fill="#000000" fill-rule="nonzero" fill-opacity="1" /><path clip-path="url(#clip690)" d="M874.992 1371.48 L863.186 1389.93 L874.992 1389.93 L874.992 1371.48 M873.765 1367.4 L879.644 1367.4 L879.644 1389.93 L884.575 1389.93 L884.575 1393.82 L879.644 1393.82 L879.644 1401.96 L874.992 1401.96 L874.992 1393.82 L859.39 1393.82 L859.39 1389.3 L873.765 1367.4 Z" fill="#000000" fill-rule="nonzero" fill-opacity="1" /><path clip-path="url(#clip690)" d="M1190.55 1382.82 Q1187.4 1382.82 1185.55 1384.97 Q1183.72 1387.13 1183.72 1390.88 Q1183.72 1394.6 1185.55 1396.78 Q1187.4 1398.93 1190.55 1398.93 Q1193.7 1398.93 1195.52 1396.78 Q1197.38 1394.6 1197.38 1390.88 Q1197.38 1387.13 1195.52 1384.97 Q1193.7 1382.82 1190.55 1382.82 M1199.83 1368.17 L1199.83 1372.43 Q1198.07 1371.59 1196.27 1371.15 Q1194.48 1370.71 1192.72 1370.71 Q1188.09 1370.71 1185.64 1373.84 Q1183.21 1376.96 1182.86 1383.28 Q1184.23 1381.27 1186.29 1380.2 Q1188.35 1379.12 1190.83 1379.12 Q1196.03 1379.12 1199.04 1382.29 Q1202.08 1385.44 1202.08 1390.88 Q1202.08 1396.2 1198.93 1399.42 Q1195.78 1402.64 1190.55 1402.64 Q1184.55 1402.64 1181.38 1398.05 Q1178.21 1393.45 1178.21 1384.72 Q1178.21 1376.52 1182.1 1371.66 Q1185.99 1366.78 1192.54 1366.78 Q1194.3 1366.78 1196.08 1367.13 Q1197.89 1367.47 1199.83 1368.17 Z" fill="#000000" fill-rule="nonzero" fill-opacity="1" /><path clip-path="url(#clip690)" d="M1508.3 1385.55 Q1504.97 1385.55 1503.05 1387.33 Q1501.15 1389.12 1501.15 1392.24 Q1501.15 1395.37 1503.05 1397.15 Q1504.97 1398.93 1508.3 1398.93 Q1511.64 1398.93 1513.56 1397.15 Q1515.48 1395.34 1515.48 1392.24 Q1515.48 1389.12 1513.56 1387.33 Q1511.66 1385.55 1508.3 1385.55 M1503.63 1383.56 Q1500.62 1382.82 1498.93 1380.76 Q1497.26 1378.7 1497.26 1375.74 Q1497.26 1371.59 1500.2 1369.19 Q1503.16 1366.78 1508.3 1366.78 Q1513.47 1366.78 1516.4 1369.19 Q1519.34 1371.59 1519.34 1375.74 Q1519.34 1378.7 1517.65 1380.76 Q1515.99 1382.82 1513 1383.56 Q1516.38 1384.35 1518.26 1386.64 Q1520.15 1388.93 1520.15 1392.24 Q1520.15 1397.26 1517.08 1399.95 Q1514.02 1402.64 1508.3 1402.64 Q1502.59 1402.64 1499.51 1399.95 Q1496.45 1397.26 1496.45 1392.24 Q1496.45 1388.93 1498.35 1386.64 Q1500.25 1384.35 1503.63 1383.56 M1501.91 1376.18 Q1501.91 1378.86 1503.58 1380.37 Q1505.27 1381.87 1508.3 1381.87 Q1511.31 1381.87 1513 1380.37 Q1514.72 1378.86 1514.72 1376.18 Q1514.72 1373.49 1513 1371.99 Q1511.31 1370.48 1508.3 1370.48 Q1505.27 1370.48 1503.58 1371.99 Q1501.91 1373.49 1501.91 1376.18 Z" fill="#000000" fill-rule="nonzero" fill-opacity="1" /><path clip-path="url(#clip690)" d="M1801.15 1398.03 L1808.79 1398.03 L1808.79 1371.66 L1800.48 1373.33 L1800.48 1369.07 L1808.74 1367.4 L1813.42 1367.4 L1813.42 1398.03 L1821.06 1398.03 L1821.06 1401.96 L1801.15 1401.96 L1801.15 1398.03 Z" fill="#000000" fill-rule="nonzero" fill-opacity="1" /><path clip-path="url(#clip690)" d="M1840.5 1370.48 Q1836.89 1370.48 1835.06 1374.05 Q1833.26 1377.59 1833.26 1384.72 Q1833.26 1391.83 1835.06 1395.39 Q1836.89 1398.93 1840.5 1398.93 Q1844.14 1398.93 1845.94 1395.39 Q1847.77 1391.83 1847.77 1384.72 Q1847.77 1377.59 1845.94 1374.05 Q1844.14 1370.48 1840.5 1370.48 M1840.5 1366.78 Q1846.31 1366.78 1849.37 1371.39 Q1852.45 1375.97 1852.45 1384.72 Q1852.45 1393.45 1849.37 1398.05 Q1846.31 1402.64 1840.5 1402.64 Q1834.69 1402.64 1831.61 1398.05 Q1828.56 1393.45 1828.56 1384.72 Q1828.56 1375.97 1831.61 1371.39 Q1834.69 1366.78 1840.5 1366.78 Z" fill="#000000" fill-rule="nonzero" fill-opacity="1" /><path clip-path="url(#clip690)" d="M1046.08 1458.79 Q1048.15 1459.49 1050.09 1461.78 Q1052.06 1464.07 1054.03 1468.08 L1060.56 1481.07 L1053.65 1481.07 L1047.57 1468.88 Q1045.22 1464.1 1042.99 1462.54 Q1040.79 1460.98 1036.97 1460.98 L1029.97 1460.98 L1029.97 1481.07 L1023.54 1481.07 L1023.54 1433.55 L1038.06 1433.55 Q1046.2 1433.55 1050.21 1436.95 Q1054.22 1440.36 1054.22 1447.23 Q1054.22 1451.72 1052.12 1454.68 Q1050.05 1457.64 1046.08 1458.79 M1029.97 1438.83 L1029.97 1455.7 L1038.06 1455.7 Q1042.7 1455.7 1045.06 1453.57 Q1047.44 1451.4 1047.44 1447.23 Q1047.44 1443.06 1045.06 1440.96 Q1042.7 1438.83 1038.06 1438.83 L1029.97 1438.83 Z" fill="#000000" fill-rule="nonzero" fill-opacity="1" /><path clip-path="url(#clip690)" d="M1080.58 1459.52 Q1078.99 1456.78 1075.77 1456.78 Q1072.56 1456.78 1070.97 1459.52 Q1069.34 1462.26 1069.34 1467.73 Q1069.34 1473.24 1070.97 1475.98 Q1072.56 1478.71 1075.77 1478.71 Q1078.99 1478.71 1080.58 1475.98 Q1082.2 1473.24 1082.2 1467.73 Q1082.2 1462.26 1080.58 1459.52 M1075.77 1453.95 Q1080.9 1453.95 1083.6 1457.48 Q1086.31 1461.02 1086.31 1467.73 Q1086.31 1474.48 1083.6 1478.01 Q1080.9 1481.55 1075.77 1481.55 Q1070.62 1481.55 1067.91 1478.01 Q1065.21 1474.48 1065.21 1467.73 Q1065.21 1461.02 1067.91 1457.48 Q1070.62 1453.95 1075.77 1453.95 Z" fill="#000000" fill-rule="nonzero" fill-opacity="1" /><polyline clip-path="url(#clip690)" style="stroke:#000000; stroke-linecap:round; stroke-linejoin:round; stroke-width:4; stroke-opacity:1; fill:none" points="237.093,1343.4 237.093,135.568 "/>
<polyline clip-path="url(#clip690)" style="stroke:#000000; stroke-linecap:round; stroke-linejoin:round; stroke-width:4; stroke-opacity:1; fill:none" points="237.093,1325.65 255.991,1325.65 "/>
<polyline clip-path="url(#clip690)" style="stroke:#000000; stroke-linecap:round; stroke-linejoin:round; stroke-width:4; stroke-opacity:1; fill:none" points="237.093,1036.56 255.991,1036.56 "/>
<polyline clip-path="url(#clip690)" style="stroke:#000000; stroke-linecap:round; stroke-linejoin:round; stroke-width:4; stroke-opacity:1; fill:none" points="237.093,747.456 255.991,747.456 "/>
<polyline clip-path="url(#clip690)" style="stroke:#000000; stroke-linecap:round; stroke-linejoin:round; stroke-width:4; stroke-opacity:1; fill:none" points="237.093,458.357 255.991,458.357 "/>
<polyline clip-path="url(#clip690)" style="stroke:#000000; stroke-linecap:round; stroke-linejoin:round; stroke-width:4; stroke-opacity:1; fill:none" points="237.093,169.258 255.991,169.258 "/>
<path clip-path="url(#clip690)" d="M196.349 1311.45 Q192.738 1311.45 190.909 1315.02 Q189.104 1318.56 189.104 1325.69 Q189.104 1332.8 190.909 1336.36 Q192.738 1339.9 196.349 1339.9 Q199.983 1339.9 201.789 1336.36 Q203.617 1332.8 203.617 1325.69 Q203.617 1318.56 201.789 1315.02 Q199.983 1311.45 196.349 1311.45 M196.349 1307.75 Q202.159 1307.75 205.215 1312.36 Q208.293 1316.94 208.293 1325.69 Q208.293 1334.42 205.215 1339.02 Q202.159 1343.61 196.349 1343.61 Q190.539 1343.61 187.46 1339.02 Q184.405 1334.42 184.405 1325.69 Q184.405 1316.94 187.46 1312.36 Q190.539 1307.75 196.349 1307.75 Z" fill="#000000" fill-rule="nonzero" fill-opacity="1" /><path clip-path="url(#clip690)" d="M161.21 1049.9 L177.53 1049.9 L177.53 1053.84 L155.585 1053.84 L155.585 1049.9 Q158.247 1047.15 162.831 1042.52 Q167.437 1037.86 168.618 1036.52 Q170.863 1034 171.743 1032.26 Q172.645 1030.5 172.645 1028.81 Q172.645 1026.06 170.701 1024.32 Q168.78 1022.59 165.678 1022.59 Q163.479 1022.59 161.025 1023.35 Q158.595 1024.11 155.817 1025.66 L155.817 1020.94 Q158.641 1019.81 161.095 1019.23 Q163.548 1018.65 165.585 1018.65 Q170.956 1018.65 174.15 1021.34 Q177.344 1024.02 177.344 1028.51 Q177.344 1030.64 176.534 1032.56 Q175.747 1034.46 173.641 1037.05 Q173.062 1037.72 169.96 1040.94 Q166.858 1044.14 161.21 1049.9 Z" fill="#000000" fill-rule="nonzero" fill-opacity="1" /><path clip-path="url(#clip690)" d="M187.391 1019.28 L205.747 1019.28 L205.747 1023.21 L191.673 1023.21 L191.673 1031.68 Q192.692 1031.34 193.71 1031.17 Q194.729 1030.99 195.747 1030.99 Q201.534 1030.99 204.914 1034.16 Q208.293 1037.33 208.293 1042.75 Q208.293 1048.33 204.821 1051.43 Q201.349 1054.51 195.03 1054.51 Q192.854 1054.51 190.585 1054.14 Q188.34 1053.77 185.932 1053.03 L185.932 1048.33 Q188.016 1049.46 190.238 1050.02 Q192.46 1050.57 194.937 1050.57 Q198.942 1050.57 201.279 1048.46 Q203.617 1046.36 203.617 1042.75 Q203.617 1039.14 201.279 1037.03 Q198.942 1034.92 194.937 1034.92 Q193.062 1034.92 191.187 1035.34 Q189.335 1035.76 187.391 1036.64 L187.391 1019.28 Z" fill="#000000" fill-rule="nonzero" fill-opacity="1" /><path clip-path="url(#clip690)" d="M156.233 730.176 L174.59 730.176 L174.59 734.111 L160.516 734.111 L160.516 742.584 Q161.534 742.236 162.553 742.074 Q163.571 741.889 164.59 741.889 Q170.377 741.889 173.756 745.06 Q177.136 748.232 177.136 753.648 Q177.136 759.227 173.664 762.329 Q170.192 765.407 163.872 765.407 Q161.696 765.407 159.428 765.037 Q157.183 764.667 154.775 763.926 L154.775 759.227 Q156.858 760.361 159.081 760.917 Q161.303 761.472 163.78 761.472 Q167.784 761.472 170.122 759.366 Q172.46 757.259 172.46 753.648 Q172.46 750.037 170.122 747.931 Q167.784 745.824 163.78 745.824 Q161.905 745.824 160.03 746.241 Q158.178 746.658 156.233 747.537 L156.233 730.176 Z" fill="#000000" fill-rule="nonzero" fill-opacity="1" /><path clip-path="url(#clip690)" d="M196.349 733.255 Q192.738 733.255 190.909 736.82 Q189.104 740.361 189.104 747.491 Q189.104 754.597 190.909 758.162 Q192.738 761.704 196.349 761.704 Q199.983 761.704 201.789 758.162 Q203.617 754.597 203.617 747.491 Q203.617 740.361 201.789 736.82 Q199.983 733.255 196.349 733.255 M196.349 729.551 Q202.159 729.551 205.215 734.158 Q208.293 738.741 208.293 747.491 Q208.293 756.218 205.215 760.824 Q202.159 765.407 196.349 765.407 Q190.539 765.407 187.46 760.824 Q184.405 756.218 184.405 747.491 Q184.405 738.741 187.46 734.158 Q190.539 729.551 196.349 729.551 Z" fill="#000000" fill-rule="nonzero" fill-opacity="1" /><path clip-path="url(#clip690)" d="M156.002 441.077 L178.224 441.077 L178.224 443.068 L165.678 475.637 L160.794 475.637 L172.599 445.012 L156.002 445.012 L156.002 441.077 Z" fill="#000000" fill-rule="nonzero" fill-opacity="1" /><path clip-path="url(#clip690)" d="M187.391 441.077 L205.747 441.077 L205.747 445.012 L191.673 445.012 L191.673 453.484 Q192.692 453.137 193.71 452.975 Q194.729 452.79 195.747 452.79 Q201.534 452.79 204.914 455.961 Q208.293 459.133 208.293 464.549 Q208.293 470.128 204.821 473.23 Q201.349 476.308 195.03 476.308 Q192.854 476.308 190.585 475.938 Q188.34 475.568 185.932 474.827 L185.932 470.128 Q188.016 471.262 190.238 471.818 Q192.46 472.373 194.937 472.373 Q198.942 472.373 201.279 470.267 Q203.617 468.16 203.617 464.549 Q203.617 460.938 201.279 458.832 Q198.942 456.725 194.937 456.725 Q193.062 456.725 191.187 457.142 Q189.335 457.558 187.391 458.438 L187.391 441.077 Z" fill="#000000" fill-rule="nonzero" fill-opacity="1" /><path clip-path="url(#clip690)" d="M126.835 182.603 L134.474 182.603 L134.474 156.237 L126.164 157.904 L126.164 153.645 L134.428 151.978 L139.104 151.978 L139.104 182.603 L146.743 182.603 L146.743 186.538 L126.835 186.538 L126.835 182.603 Z" fill="#000000" fill-rule="nonzero" fill-opacity="1" /><path clip-path="url(#clip690)" d="M166.187 155.057 Q162.576 155.057 160.747 158.621 Q158.942 162.163 158.942 169.293 Q158.942 176.399 160.747 179.964 Q162.576 183.506 166.187 183.506 Q169.821 183.506 171.627 179.964 Q173.456 176.399 173.456 169.293 Q173.456 162.163 171.627 158.621 Q169.821 155.057 166.187 155.057 M166.187 151.353 Q171.997 151.353 175.053 155.959 Q178.131 160.543 178.131 169.293 Q178.131 178.019 175.053 182.626 Q171.997 187.209 166.187 187.209 Q160.377 187.209 157.298 182.626 Q154.243 178.019 154.243 169.293 Q154.243 160.543 157.298 155.959 Q160.377 151.353 166.187 151.353 Z" fill="#000000" fill-rule="nonzero" fill-opacity="1" /><path clip-path="url(#clip690)" d="M196.349 155.057 Q192.738 155.057 190.909 158.621 Q189.104 162.163 189.104 169.293 Q189.104 176.399 190.909 179.964 Q192.738 183.506 196.349 183.506 Q199.983 183.506 201.789 179.964 Q203.617 176.399 203.617 169.293 Q203.617 162.163 201.789 158.621 Q199.983 155.057 196.349 155.057 M196.349 151.353 Q202.159 151.353 205.215 155.959 Q208.293 160.543 208.293 169.293 Q208.293 178.019 205.215 182.626 Q202.159 187.209 196.349 187.209 Q190.539 187.209 187.46 182.626 Q184.405 178.019 184.405 169.293 Q184.405 160.543 187.46 155.959 Q190.539 151.353 196.349 151.353 Z" fill="#000000" fill-rule="nonzero" fill-opacity="1" /><path clip-path="url(#clip690)" d="M77.6973 1124.85 L77.6973 1103.84 L40.999 1103.84 L40.999 1119.28 L47.7467 1119.28 Q63.6291 1119.28 74.1643 1122.84 Q76.3287 1123.58 77.6973 1124.85 M77.6973 1134.24 Q75.6921 1129.97 71.8727 1128.76 Q62.0695 1125.68 44.5638 1125.68 L35.5882 1125.68 L35.5882 1097.41 L77.6973 1097.41 L77.6973 1092 L93.3251 1092 L93.3251 1097.41 L83.1082 1097.41 L83.1082 1131.09 L93.3251 1131.09 L93.3251 1136.5 L77.6973 1136.5 L77.6973 1134.24 Z" fill="#000000" fill-rule="nonzero" fill-opacity="1" /><path clip-path="url(#clip690)" d="M51.5661 1068.83 Q51.5661 1073.54 55.2582 1076.28 Q58.9185 1079.02 65.316 1079.02 Q71.7135 1079.02 75.4057 1076.31 Q79.0659 1073.57 79.0659 1068.83 Q79.0659 1064.15 75.3738 1061.42 Q71.6817 1058.68 65.316 1058.68 Q58.9821 1058.68 55.29 1061.42 Q51.5661 1064.15 51.5661 1068.83 M46.6008 1068.83 Q46.6008 1061.19 51.5661 1056.83 Q56.5313 1052.47 65.316 1052.47 Q74.0689 1052.47 79.0659 1056.83 Q84.0312 1061.19 84.0312 1068.83 Q84.0312 1076.5 79.0659 1080.86 Q74.0689 1085.19 65.316 1085.19 Q56.5313 1085.19 51.5661 1080.86 Q46.6008 1076.5 46.6008 1068.83 Z" fill="#000000" fill-rule="nonzero" fill-opacity="1" /><path clip-path="url(#clip690)" d="M83.1082 1046.49 L78.2384 1046.49 Q77.3472 1040.7 73.3368 1038.91 Q67.7031 1036.75 53.2848 1036.75 L47.4602 1036.75 L47.4602 1012.65 L83.1082 1012.65 L83.1082 1018.51 L52.139 1018.51 L52.139 1030.89 L55.672 1030.89 Q69.4219 1030.89 75.5966 1033.69 Q82.1851 1036.68 83.1082 1046.49 Z" fill="#000000" fill-rule="nonzero" fill-opacity="1" /><path clip-path="url(#clip690)" d="M57.7408 995.212 Q60.3826 995.212 61.8785 993.175 Q63.3745 991.138 63.3745 987.351 L63.3745 979.457 L52.139 979.457 L52.139 987.351 Q52.139 991.138 53.6031 993.175 Q55.0672 995.212 57.7408 995.212 M83.1082 1003.55 L67.4803 992.666 Q66.6528 996.358 64.4885 998.809 Q62.2923 1001.26 57.7408 1001.26 Q52.5846 1001.26 50.0383 997.854 Q47.4602 994.417 47.4602 987.51 L47.4602 973.569 L83.1082 973.569 L83.1082 979.457 L68.0533 979.457 L68.0533 986.746 L83.1082 997.249 L83.1082 1003.55 Z" fill="#000000" fill-rule="nonzero" fill-opacity="1" /><path clip-path="url(#clip690)" d="M47.4602 910.612 L83.1082 910.612 L83.1082 916.5 L52.139 916.5 L52.139 935.502 L83.1082 935.502 L83.1082 941.39 L47.4602 941.39 L47.4602 910.612 Z" fill="#000000" fill-rule="nonzero" fill-opacity="1" /><path clip-path="url(#clip690)" d="M63.8201 868.057 L66.6846 868.057 L66.6846 894.984 Q72.7321 894.602 75.9149 891.356 Q79.0659 888.077 79.0659 882.253 Q79.0659 878.879 78.2384 875.728 Q77.4109 872.545 75.7558 869.426 L81.2939 869.426 Q82.6307 872.577 83.331 875.887 Q84.0312 879.197 84.0312 882.603 Q84.0312 891.133 79.0659 896.13 Q74.1007 901.095 65.6343 901.095 Q56.8814 901.095 51.7571 896.385 Q46.6008 891.642 46.6008 883.621 Q46.6008 876.428 51.2478 872.259 Q55.8629 868.057 63.8201 868.057 M62.1013 873.914 Q57.2952 873.977 54.4306 876.619 Q51.5661 879.229 51.5661 883.558 Q51.5661 888.459 54.3352 891.419 Q57.1042 894.348 62.1332 894.793 L62.1013 873.914 Z" fill="#000000" fill-rule="nonzero" fill-opacity="1" /><path clip-path="url(#clip690)" d="M77.761 852.78 L96.6671 852.78 L96.6671 858.668 L47.4602 858.668 L47.4602 852.78 L52.8711 852.78 Q49.6882 850.934 48.1604 848.133 Q46.6008 845.3 46.6008 841.385 Q46.6008 834.892 51.7571 830.85 Q56.9133 826.776 65.316 826.776 Q73.7187 826.776 78.875 830.85 Q84.0312 834.892 84.0312 841.385 Q84.0312 845.3 82.5034 848.133 Q80.9438 850.934 77.761 852.78 M65.316 832.855 Q58.8548 832.855 55.1945 835.529 Q51.5024 838.17 51.5024 842.817 Q51.5024 847.464 55.1945 850.138 Q58.8548 852.78 65.316 852.78 Q71.7772 852.78 75.4693 850.138 Q79.1296 847.464 79.1296 842.817 Q79.1296 838.17 75.4693 835.529 Q71.7772 832.855 65.316 832.855 Z" fill="#000000" fill-rule="nonzero" fill-opacity="1" /><path clip-path="url(#clip690)" d="M63.8201 786.576 L66.6846 786.576 L66.6846 813.503 Q72.7321 813.121 75.9149 809.875 Q79.0659 806.596 79.0659 800.772 Q79.0659 797.398 78.2384 794.247 Q77.4109 791.064 75.7558 787.945 L81.2939 787.945 Q82.6307 791.096 83.331 794.406 Q84.0312 797.716 84.0312 801.122 Q84.0312 809.652 79.0659 814.649 Q74.1007 819.614 65.6343 819.614 Q56.8814 819.614 51.7571 814.904 Q46.6008 810.161 46.6008 802.14 Q46.6008 794.947 51.2478 790.778 Q55.8629 786.576 63.8201 786.576 M62.1013 792.433 Q57.2952 792.496 54.4306 795.138 Q51.5661 797.748 51.5661 802.077 Q51.5661 806.978 54.3352 809.938 Q57.1042 812.867 62.1332 813.312 L62.1013 792.433 Z" fill="#000000" fill-rule="nonzero" fill-opacity="1" /><path clip-path="url(#clip690)" d="M46.6008 762.832 Q46.6008 755.193 51.5661 750.833 Q56.5313 746.472 65.316 746.472 Q74.0689 746.472 79.0659 750.833 Q84.0312 755.193 84.0312 762.832 Q84.0312 770.503 79.1932 774.736 Q74.3553 778.969 65.316 779.192 L58.0273 779.383 Q54.2397 779.542 52.9347 779.542 Q47.8421 779.542 44.0864 777.696 Q38.1981 774.8 35.6518 769.803 Q33.1055 764.774 33.0419 756.371 Q33.01 752.488 32.469 750.769 L37.1159 749.146 Q37.7525 750.706 37.7843 752.138 L38.3254 760.095 Q38.6119 764.105 40.0123 766.524 Q43.7363 772.858 48.606 773.463 L50.3884 773.686 Q46.6008 769.548 46.6008 762.832 M51.5661 762.832 Q51.5661 767.543 55.2582 770.28 Q58.9185 773.017 65.316 773.017 Q71.7135 773.017 75.4057 770.312 Q79.0659 767.575 79.0659 762.832 Q79.0659 758.153 75.3738 755.416 Q71.6817 752.679 65.316 752.679 Q58.9821 752.679 55.29 755.416 Q51.5661 758.153 51.5661 762.832 Z" fill="#000000" fill-rule="nonzero" fill-opacity="1" /><path clip-path="url(#clip690)" d="M51.5661 722.951 Q51.5661 727.662 55.2582 730.399 Q58.9185 733.136 65.316 733.136 Q71.7135 733.136 75.4057 730.431 Q79.0659 727.694 79.0659 722.951 Q79.0659 718.272 75.3738 715.535 Q71.6817 712.798 65.316 712.798 Q58.9821 712.798 55.29 715.535 Q51.5661 718.272 51.5661 722.951 M46.6008 722.951 Q46.6008 715.312 51.5661 710.952 Q56.5313 706.591 65.316 706.591 Q74.0689 706.591 79.0659 710.952 Q84.0312 715.312 84.0312 722.951 Q84.0312 730.622 79.0659 734.982 Q74.0689 739.311 65.316 739.311 Q56.5313 739.311 51.5661 734.982 Q46.6008 730.622 46.6008 722.951 Z" fill="#000000" fill-rule="nonzero" fill-opacity="1" /><path clip-path="url(#clip690)" d="M83.1082 700.607 L78.2384 700.607 Q77.3472 694.815 73.3368 693.032 Q67.7031 690.868 53.2848 690.868 L47.4602 690.868 L47.4602 666.774 L83.1082 666.774 L83.1082 672.63 L52.139 672.63 L52.139 685.011 L55.672 685.011 Q69.4219 685.011 75.5966 687.812 Q82.1851 690.804 83.1082 700.607 Z" fill="#000000" fill-rule="nonzero" fill-opacity="1" /><path clip-path="url(#clip690)" d="M63.8201 624.728 L66.6846 624.728 L66.6846 651.655 Q72.7321 651.273 75.9149 648.027 Q79.0659 644.748 79.0659 638.924 Q79.0659 635.55 78.2384 632.399 Q77.4109 629.216 75.7558 626.097 L81.2939 626.097 Q82.6307 629.248 83.331 632.558 Q84.0312 635.868 84.0312 639.274 Q84.0312 647.804 79.0659 652.801 Q74.1007 657.766 65.6343 657.766 Q56.8814 657.766 51.7571 653.056 Q46.6008 648.313 46.6008 640.292 Q46.6008 633.099 51.2478 628.93 Q55.8629 624.728 63.8201 624.728 M62.1013 630.585 Q57.2952 630.648 54.4306 633.29 Q51.5661 635.9 51.5661 640.229 Q51.5661 645.13 54.3352 648.09 Q57.1042 651.019 62.1332 651.464 L62.1013 630.585 Z" fill="#000000" fill-rule="nonzero" fill-opacity="1" /><path clip-path="url(#clip690)" d="M66.6846 609.482 L78.4294 609.482 L78.4294 601.143 Q78.4294 597.133 76.9334 595.032 Q75.4057 592.932 72.5411 592.932 Q69.6765 592.932 68.1806 595.032 Q66.6846 597.133 66.6846 601.143 L66.6846 609.482 M52.139 609.482 L62.0058 609.482 L62.0058 601.78 Q62.0058 598.47 60.7009 596.369 Q59.3641 594.268 57.0088 594.268 Q54.6534 594.268 53.4121 596.369 Q52.139 598.47 52.139 601.78 L52.139 609.482 M47.4602 615.339 L47.4602 601.398 Q47.4602 595.128 49.7519 591.754 Q52.0435 588.38 56.2767 588.38 Q59.555 588.38 61.4966 590.099 Q63.4063 591.818 63.8837 595.191 Q64.6476 591.149 67.0666 588.921 Q69.4855 586.693 73.114 586.693 Q77.8883 586.693 80.4982 590.385 Q83.1082 594.046 83.1082 600.857 L83.1082 615.339 L47.4602 615.339 Z" fill="#000000" fill-rule="nonzero" fill-opacity="1" /><path clip-path="url(#clip690)" d="M78.4294 550.09 L78.4294 535.004 L47.4602 535.004 L47.4602 529.115 L83.1082 529.115 L83.1082 576.922 L47.4602 576.922 L47.4602 571.033 L78.4294 571.033 L78.4294 555.979 L47.4602 555.979 L47.4602 550.09 L78.4294 550.09 Z" fill="#000000" fill-rule="nonzero" fill-opacity="1" /><path clip-path="url(#clip690)" d="M47.4602 486.752 L83.1082 486.752 L83.1082 492.576 L54.4943 492.576 L83.1082 509.764 L83.1082 517.275 L47.4602 517.275 L47.4602 511.45 L76.0104 511.45 L47.4602 494.295 L47.4602 486.752 Z" fill="#000000" fill-rule="nonzero" fill-opacity="1" /><path clip-path="url(#clip690)" d="M47.4602 445.056 L64.8068 457.947 L83.1082 444.388 L83.1082 451.295 L69.1036 461.671 L83.1082 472.047 L83.1082 478.954 L64.4566 465.108 L47.4602 477.776 L47.4602 470.869 L60.1598 461.416 L47.4602 451.963 L47.4602 445.056 Z" fill="#000000" fill-rule="nonzero" fill-opacity="1" /><path clip-path="url(#clip690)" d="M75.0237 434.616 L75.0237 427.901 L80.4982 427.901 L90.6833 433.12 L90.6833 437.226 L80.4982 434.616 L75.0237 434.616 Z" fill="#000000" fill-rule="nonzero" fill-opacity="1" /><path clip-path="url(#clip690)" d="M62.1968 353.422 Q62.1968 356.191 64.5521 357.782 Q66.9074 359.342 71.1088 359.342 Q75.2465 359.342 77.6336 357.782 Q79.989 356.191 79.989 353.422 Q79.989 350.716 77.6336 349.157 Q75.2465 347.565 71.1088 347.565 Q66.9393 347.565 64.584 349.157 Q62.1968 350.716 62.1968 353.422 M58.1546 353.422 Q58.1546 348.393 61.6557 345.433 Q65.1569 342.473 71.1088 342.473 Q77.0607 342.473 80.5619 345.465 Q84.0312 348.425 84.0312 353.422 Q84.0312 358.514 80.5619 361.474 Q77.0607 364.434 71.1088 364.434 Q65.125 364.434 61.6557 361.474 Q58.1546 358.483 58.1546 353.422 M38.771 386.269 Q38.771 389.006 41.1582 390.598 Q43.5135 392.157 47.6512 392.157 Q51.8525 392.157 54.2078 390.598 Q56.5632 389.038 56.5632 386.269 Q56.5632 383.5 54.2078 381.94 Q51.8525 380.349 47.6512 380.349 Q43.5453 380.349 41.1582 381.94 Q38.771 383.532 38.771 386.269 M34.7288 357.528 L34.7288 352.435 L84.0312 382.163 L84.0312 387.256 L34.7288 357.528 M34.7288 386.269 Q34.7288 381.24 38.2299 378.248 Q41.6992 375.256 47.6512 375.256 Q53.6668 375.256 57.1361 378.248 Q60.6054 381.208 60.6054 386.269 Q60.6054 391.33 57.1361 394.29 Q53.6349 397.218 47.6512 397.218 Q41.7311 397.218 38.2299 394.258 Q34.7288 391.298 34.7288 386.269 Z" fill="#000000" fill-rule="nonzero" fill-opacity="1" /><path clip-path="url(#clip690)" d="M19.2907 16.7545 L19.2907 25.383 Q15.1588 21.5346 10.4597 19.6307 Q5.8012 17.7268 0.535021 17.7268 Q-9.83529 17.7268 -15.3445 24.0867 Q-20.8538 30.4061 -20.8538 42.3968 Q-20.8538 54.3469 -15.3445 60.7069 Q-9.83529 67.0263 0.535021 67.0263 Q5.8012 67.0263 10.4597 65.1223 Q15.1588 63.2184 19.2907 59.3701 L19.2907 67.9175 Q14.9967 70.8341 10.1762 72.2924 Q5.39611 73.7508 0.0489129 73.7508 Q-13.6837 73.7508 -21.5829 65.3654 Q-29.4822 56.9395 -29.4822 42.3968 Q-29.4822 27.8135 -21.5829 19.4281 Q-13.6837 11.0023 0.0489129 11.0023 Q5.47712 11.0023 10.2572 12.4606 Q15.0778 13.8784 19.2907 16.7545 Z" fill="#000000" fill-rule="nonzero" fill-opacity="1" /><path clip-path="url(#clip690)" d="M38.8161 65.7705 L38.8161 89.8329 L31.3219 89.8329 L31.3219 27.2059 L38.8161 27.2059 L38.8161 34.0924 Q41.1656 30.0415 44.7304 28.0971 Q48.3357 26.1121 53.3183 26.1121 Q61.5821 26.1121 66.7268 32.6746 Q71.912 39.2371 71.912 49.9314 Q71.912 60.6258 66.7268 67.1883 Q61.5821 73.7508 53.3183 73.7508 Q48.3357 73.7508 44.7304 71.8063 Q41.1656 69.8214 38.8161 65.7705 M64.1747 49.9314 Q64.1747 41.7081 60.772 37.0496 Q57.4097 32.3505 51.4954 32.3505 Q45.5811 32.3505 42.1783 37.0496 Q38.8161 41.7081 38.8161 49.9314 Q38.8161 58.1548 42.1783 62.8538 Q45.5811 67.5124 51.4954 67.5124 Q57.4097 67.5124 60.772 62.8538 Q64.1747 58.1548 64.1747 49.9314 Z" fill="#000000" fill-rule="nonzero" fill-opacity="1" /><path clip-path="url(#clip690)" d="M104.886 49.7694 Q95.8528 49.7694 92.369 51.8354 Q88.8852 53.9013 88.8852 58.8839 Q88.8852 62.8538 91.4778 65.2034 Q94.1109 67.5124 98.6074 67.5124 Q104.805 67.5124 108.532 63.1374 Q112.299 58.7219 112.299 51.4303 L112.299 49.7694 L104.886 49.7694 M119.753 46.6907 L119.753 72.576 L112.299 72.576 L112.299 65.6895 Q109.747 69.8214 105.94 71.8063 Q102.132 73.7508 96.6225 73.7508 Q89.6549 73.7508 85.523 69.8619 Q81.4316 65.9325 81.4316 59.3701 Q81.4316 51.7138 86.5357 47.825 Q91.6804 43.9361 101.848 43.9361 L112.299 43.9361 L112.299 43.2069 Q112.299 38.0623 108.897 35.2672 Q105.534 32.4315 99.4176 32.4315 Q95.5287 32.4315 91.8424 33.3632 Q88.1561 34.295 84.7533 36.1584 L84.7533 29.2718 Q88.8447 27.692 92.6931 26.9223 Q96.5415 26.1121 100.187 26.1121 Q110.031 26.1121 114.892 31.2163 Q119.753 36.3204 119.753 46.6907 Z" fill="#000000" fill-rule="nonzero" fill-opacity="1" /><path clip-path="url(#clip690)" d="M142.276 51.6733 L142.276 66.6212 L152.89 66.6212 Q157.994 66.6212 160.667 64.7172 Q163.341 62.7728 163.341 59.127 Q163.341 55.4812 160.667 53.5773 Q157.994 51.6733 152.89 51.6733 L142.276 51.6733 M142.276 33.1607 L142.276 45.7185 L152.079 45.7185 Q156.292 45.7185 158.966 44.0576 Q161.639 42.3563 161.639 39.3586 Q161.639 36.3609 158.966 34.7811 Q156.292 33.1607 152.079 33.1607 L142.276 33.1607 M134.822 27.2059 L152.565 27.2059 Q160.546 27.2059 164.84 30.1225 Q169.134 33.0392 169.134 38.4269 Q169.134 42.5993 166.946 45.0704 Q164.759 47.5009 160.465 48.1085 Q165.609 49.0808 168.445 52.1594 Q171.281 55.2381 171.281 59.8562 Q171.281 65.9325 166.582 69.2543 Q161.923 72.576 153.254 72.576 L134.822 72.576 L134.822 27.2059 Z" fill="#000000" fill-rule="nonzero" fill-opacity="1" /><path clip-path="url(#clip690)" d="M183.717 27.2059 L191.211 27.2059 L191.211 45.7185 L215.395 45.7185 L215.395 27.2059 L222.889 27.2059 L222.889 72.576 L215.395 72.576 L215.395 51.6733 L191.211 51.6733 L191.211 72.576 L183.717 72.576 L183.717 27.2059 Z" fill="#000000" fill-rule="nonzero" fill-opacity="1" /><path clip-path="url(#clip690)" d="M277.05 48.0275 L277.05 51.6733 L242.779 51.6733 Q243.265 59.3701 247.397 63.421 Q251.57 67.4314 258.983 67.4314 Q263.277 67.4314 267.287 66.3781 Q271.338 65.3249 275.308 63.2184 L275.308 70.267 Q271.297 71.9684 267.085 72.8596 Q262.872 73.7508 258.537 73.7508 Q247.681 73.7508 241.321 67.4314 Q235.001 61.1119 235.001 50.3365 Q235.001 39.1965 240.997 32.6746 Q247.033 26.1121 257.241 26.1121 Q266.396 26.1121 271.703 32.0264 Q277.05 37.9003 277.05 48.0275 M269.596 45.84 Q269.515 39.7232 266.153 36.0774 Q262.831 32.4315 257.322 32.4315 Q251.083 32.4315 247.316 35.9558 Q243.589 39.4801 243.022 45.8805 L269.596 45.84 Z" fill="#000000" fill-rule="nonzero" fill-opacity="1" /><path clip-path="url(#clip690)" d="M289 27.2059 L296.494 27.2059 L296.494 45.7185 L320.678 45.7185 L320.678 27.2059 L328.172 27.2059 L328.172 72.576 L320.678 72.576 L320.678 51.6733 L296.494 51.6733 L296.494 72.576 L289 72.576 L289 27.2059 Z" fill="#000000" fill-rule="nonzero" fill-opacity="1" /><path clip-path="url(#clip690)" d="M382.09 27.2059 L382.09 72.576 L374.677 72.576 L374.677 36.1584 L352.802 72.576 L343.242 72.576 L343.242 27.2059 L350.655 27.2059 L350.655 63.5425 L372.489 27.2059 L382.09 27.2059 Z" fill="#000000" fill-rule="nonzero" fill-opacity="1" /><path clip-path="url(#clip690)" d="M436.25 48.0275 L436.25 51.6733 L401.98 51.6733 Q402.466 59.3701 406.598 63.421 Q410.77 67.4314 418.183 67.4314 Q422.477 67.4314 426.488 66.3781 Q430.539 65.3249 434.508 63.2184 L434.508 70.267 Q430.498 71.9684 426.285 72.8596 Q422.072 73.7508 417.738 73.7508 Q406.881 73.7508 400.521 67.4314 Q394.202 61.1119 394.202 50.3365 Q394.202 39.1965 400.197 32.6746 Q406.233 26.1121 416.441 26.1121 Q425.596 26.1121 430.903 32.0264 Q436.25 37.9003 436.25 48.0275 M428.797 45.84 Q428.716 39.7232 425.353 36.0774 Q422.032 32.4315 416.522 32.4315 Q410.284 32.4315 406.517 35.9558 Q402.79 39.4801 402.223 45.8805 L428.797 45.84 Z" fill="#000000" fill-rule="nonzero" fill-opacity="1" /><path clip-path="url(#clip690)" d="M507.506 28.9478 L507.506 35.9153 Q504.346 34.1734 501.146 33.3227 Q497.986 32.4315 494.745 32.4315 Q487.494 32.4315 483.484 37.0496 Q479.473 41.6271 479.473 49.9314 Q479.473 58.2358 483.484 62.8538 Q487.494 67.4314 494.745 67.4314 Q497.986 67.4314 501.146 66.5807 Q504.346 65.6895 507.506 63.9476 L507.506 70.8341 Q504.386 72.2924 501.024 73.0216 Q497.702 73.7508 493.935 73.7508 Q483.686 73.7508 477.651 67.3098 Q471.615 60.8689 471.615 49.9314 Q471.615 38.832 477.691 32.472 Q483.808 26.1121 494.421 26.1121 Q497.865 26.1121 501.146 26.8413 Q504.427 27.5299 507.506 28.9478 Z" fill="#000000" fill-rule="nonzero" fill-opacity="1" /><path clip-path="url(#clip690)" d="M541.452 27.2059 L584.918 27.2059 L584.918 33.1607 L566.851 33.1607 L566.851 72.576 L559.519 72.576 L559.519 33.1607 L541.452 33.1607 L541.452 27.2059 Z" fill="#000000" fill-rule="nonzero" fill-opacity="1" /><path clip-path="url(#clip690)" d="M633.975 48.0275 L633.975 51.6733 L599.704 51.6733 Q600.19 59.3701 604.322 63.421 Q608.495 67.4314 615.908 67.4314 Q620.202 67.4314 624.212 66.3781 Q628.263 65.3249 632.233 63.2184 L632.233 70.267 Q628.223 71.9684 624.01 72.8596 Q619.797 73.7508 615.462 73.7508 Q604.606 73.7508 598.246 67.4314 Q591.927 61.1119 591.927 50.3365 Q591.927 39.1965 597.922 32.6746 Q603.958 26.1121 614.166 26.1121 Q623.321 26.1121 628.628 32.0264 Q633.975 37.9003 633.975 48.0275 M626.521 45.84 Q626.44 39.7232 623.078 36.0774 Q619.756 32.4315 614.247 32.4315 Q608.009 32.4315 604.241 35.9558 Q600.514 39.4801 599.947 45.8805 L626.521 45.84 Z" fill="#000000" fill-rule="nonzero" fill-opacity="1" /><path clip-path="url(#clip690)" d="M663.79 32.4315 Q657.794 32.4315 654.31 37.1306 Q650.827 41.7891 650.827 49.9314 Q650.827 58.0738 654.27 62.7728 Q657.754 67.4314 663.79 67.4314 Q669.744 67.4314 673.228 62.7323 Q676.712 58.0333 676.712 49.9314 Q676.712 41.8701 673.228 37.1711 Q669.744 32.4315 663.79 32.4315 M663.79 26.1121 Q673.512 26.1121 679.061 32.4315 Q684.611 38.7509 684.611 49.9314 Q684.611 61.0714 679.061 67.4314 Q673.512 73.7508 663.79 73.7508 Q654.027 73.7508 648.477 67.4314 Q642.968 61.0714 642.968 49.9314 Q642.968 38.7509 648.477 32.4315 Q654.027 26.1121 663.79 26.1121 Z" fill="#000000" fill-rule="nonzero" fill-opacity="1" /><path clip-path="url(#clip690)" d="M704.177 65.7705 L704.177 89.8329 L696.683 89.8329 L696.683 27.2059 L704.177 27.2059 L704.177 34.0924 Q706.527 30.0415 710.091 28.0971 Q713.697 26.1121 718.679 26.1121 Q726.943 26.1121 732.088 32.6746 Q737.273 39.2371 737.273 49.9314 Q737.273 60.6258 732.088 67.1883 Q726.943 73.7508 718.679 73.7508 Q713.697 73.7508 710.091 71.8063 Q706.527 69.8214 704.177 65.7705 M729.536 49.9314 Q729.536 41.7081 726.133 37.0496 Q722.771 32.3505 716.856 32.3505 Q710.942 32.3505 707.539 37.0496 Q704.177 41.7081 704.177 49.9314 Q704.177 58.1548 707.539 62.8538 Q710.942 67.5124 716.856 67.5124 Q722.771 67.5124 726.133 62.8538 Q729.536 58.1548 729.536 49.9314 Z" fill="#000000" fill-rule="nonzero" fill-opacity="1" /><path clip-path="url(#clip690)" d="M788.193 27.2059 L788.193 72.576 L780.78 72.576 L780.78 36.1584 L758.905 72.576 L749.345 72.576 L749.345 27.2059 L756.758 27.2059 L756.758 63.5425 L778.592 27.2059 L788.193 27.2059 Z" fill="#000000" fill-rule="nonzero" fill-opacity="1" /><path clip-path="url(#clip690)" d="M842.353 48.0275 L842.353 51.6733 L808.083 51.6733 Q808.569 59.3701 812.701 63.421 Q816.873 67.4314 824.286 67.4314 Q828.58 67.4314 832.591 66.3781 Q836.642 65.3249 840.612 63.2184 L840.612 70.267 Q836.601 71.9684 832.388 72.8596 Q828.175 73.7508 823.841 73.7508 Q812.984 73.7508 806.624 67.4314 Q800.305 61.1119 800.305 50.3365 Q800.305 39.1965 806.3 32.6746 Q812.336 26.1121 822.545 26.1121 Q831.7 26.1121 837.006 32.0264 Q842.353 37.9003 842.353 48.0275 M834.9 45.84 Q834.819 39.7232 831.456 36.0774 Q828.135 32.4315 822.626 32.4315 Q816.387 32.4315 812.62 35.9558 Q808.893 39.4801 808.326 45.8805 L834.9 45.84 Z" fill="#000000" fill-rule="nonzero" fill-opacity="1" /><path clip-path="url(#clip690)" d="M893.152 27.2059 L893.152 72.576 L885.739 72.576 L885.739 36.1584 L863.864 72.576 L854.304 72.576 L854.304 27.2059 L861.717 27.2059 L861.717 63.5425 L883.551 27.2059 L893.152 27.2059 M861.069 9.54393 L865.849 9.54393 Q866.294 12.5821 868.239 14.1215 Q870.224 15.6203 873.748 15.6203 Q877.232 15.6203 879.176 14.1215 Q881.121 12.6226 881.647 9.54393 L886.427 9.54393 Q886.022 15.3367 882.822 18.2534 Q879.622 21.17 873.748 21.17 Q867.874 21.17 864.674 18.2534 Q861.474 15.3367 861.069 9.54393 Z" fill="#000000" fill-rule="nonzero" fill-opacity="1" /><path clip-path="url(#clip690)" d="M934.593 27.2059 L942.006 27.2059 L942.006 48.5136 L963.03 27.2059 L972.185 27.2059 L954.847 44.7463 L974.413 72.576 L966.068 72.576 L949.986 49.6884 L942.006 57.7902 L942.006 72.576 L934.593 72.576 L934.593 27.2059 Z" fill="#000000" fill-rule="nonzero" fill-opacity="1" /><path clip-path="url(#clip690)" d="M1002.57 32.4315 Q996.571 32.4315 993.088 37.1306 Q989.604 41.7891 989.604 49.9314 Q989.604 58.0738 993.047 62.7728 Q996.531 67.4314 1002.57 67.4314 Q1008.52 67.4314 1012.01 62.7323 Q1015.49 58.0333 1015.49 49.9314 Q1015.49 41.8701 1012.01 37.1711 Q1008.52 32.4315 1002.57 32.4315 M1002.57 26.1121 Q1012.29 26.1121 1017.84 32.4315 Q1023.39 38.7509 1023.39 49.9314 Q1023.39 61.0714 1017.84 67.4314 Q1012.29 73.7508 1002.57 73.7508 Q992.804 73.7508 987.254 67.4314 Q981.745 61.0714 981.745 49.9314 Q981.745 38.7509 987.254 32.4315 Q992.804 26.1121 1002.57 26.1121 Z" fill="#000000" fill-rule="nonzero" fill-opacity="1" /><path clip-path="url(#clip690)" d="M1031 72.576 L1031 66.3781 Q1038.38 65.2439 1040.65 60.1397 Q1043.4 52.9696 1043.4 34.619 L1043.4 27.2059 L1074.07 27.2059 L1074.07 72.576 L1066.61 72.576 L1066.61 33.1607 L1050.85 33.1607 L1050.85 37.6572 Q1050.85 55.1571 1047.29 63.0159 Q1043.48 71.4012 1031 72.576 Z" fill="#000000" fill-rule="nonzero" fill-opacity="1" /><path clip-path="url(#clip690)" d="M1084.03 72.576 L1084.03 66.3781 Q1091.4 65.2439 1093.67 60.1397 Q1096.43 52.9696 1096.43 34.619 L1096.43 27.2059 L1127.09 27.2059 L1127.09 72.576 L1119.64 72.576 L1119.64 33.1607 L1103.88 33.1607 L1103.88 37.6572 Q1103.88 55.1571 1100.32 63.0159 Q1096.51 71.4012 1084.03 72.576 Z" fill="#000000" fill-rule="nonzero" fill-opacity="1" /><path clip-path="url(#clip690)" d="M1180.6 48.0275 L1180.6 51.6733 L1146.33 51.6733 Q1146.82 59.3701 1150.95 63.421 Q1155.12 67.4314 1162.54 67.4314 Q1166.83 67.4314 1170.84 66.3781 Q1174.89 65.3249 1178.86 63.2184 L1178.86 70.267 Q1174.85 71.9684 1170.64 72.8596 Q1166.43 73.7508 1162.09 73.7508 Q1151.23 73.7508 1144.87 67.4314 Q1138.56 61.1119 1138.56 50.3365 Q1138.56 39.1965 1144.55 32.6746 Q1150.59 26.1121 1160.8 26.1121 Q1169.95 26.1121 1175.26 32.0264 Q1180.6 37.9003 1180.6 48.0275 M1173.15 45.84 Q1173.07 39.7232 1169.71 36.0774 Q1166.39 32.4315 1160.88 32.4315 Q1154.64 32.4315 1150.87 35.9558 Q1147.14 39.4801 1146.58 45.8805 L1173.15 45.84 Z" fill="#000000" fill-rule="nonzero" fill-opacity="1" /><path clip-path="url(#clip690)" d="M1192.55 27.2059 L1199.97 27.2059 L1199.97 48.5136 L1220.99 27.2059 L1230.15 27.2059 L1212.81 44.7463 L1232.37 72.576 L1224.03 72.576 L1207.95 49.6884 L1199.97 57.7902 L1199.97 72.576 L1192.55 72.576 L1192.55 27.2059 Z" fill="#000000" fill-rule="nonzero" fill-opacity="1" /><path clip-path="url(#clip690)" d="M1237.56 27.2059 L1281.03 27.2059 L1281.03 33.1607 L1262.96 33.1607 L1262.96 72.576 L1255.63 72.576 L1255.63 33.1607 L1237.56 33.1607 L1237.56 27.2059 Z" fill="#000000" fill-rule="nonzero" fill-opacity="1" /><path clip-path="url(#clip690)" d="M1329.84 27.2059 L1329.84 72.576 L1322.43 72.576 L1322.43 36.1584 L1300.55 72.576 L1290.99 72.576 L1290.99 27.2059 L1298.4 27.2059 L1298.4 63.5425 L1320.24 27.2059 L1329.84 27.2059 Z" fill="#000000" fill-rule="nonzero" fill-opacity="1" /><path clip-path="url(#clip690)" d="M1352.36 51.6733 L1352.36 66.6212 L1362.98 66.6212 Q1368.08 66.6212 1370.75 64.7172 Q1373.43 62.7728 1373.43 59.127 Q1373.43 55.4812 1370.75 53.5773 Q1368.08 51.6733 1362.98 51.6733 L1352.36 51.6733 M1352.36 33.1607 L1352.36 45.7185 L1362.17 45.7185 Q1366.38 45.7185 1369.05 44.0576 Q1371.73 42.3563 1371.73 39.3586 Q1371.73 36.3609 1369.05 34.7811 Q1366.38 33.1607 1362.17 33.1607 L1352.36 33.1607 M1344.91 27.2059 L1362.65 27.2059 Q1370.63 27.2059 1374.93 30.1225 Q1379.22 33.0392 1379.22 38.4269 Q1379.22 42.5993 1377.03 45.0704 Q1374.84 47.5009 1370.55 48.1085 Q1375.7 49.0808 1378.53 52.1594 Q1381.37 55.2381 1381.37 59.8562 Q1381.37 65.9325 1376.67 69.2543 Q1372.01 72.576 1363.34 72.576 L1344.91 72.576 L1344.91 27.2059 Z" fill="#000000" fill-rule="nonzero" fill-opacity="1" /><path clip-path="url(#clip690)" d="M1393.8 27.2059 L1401.3 27.2059 L1401.3 45.7185 L1425.48 45.7185 L1425.48 27.2059 L1432.98 27.2059 L1432.98 72.576 L1425.48 72.576 L1425.48 51.6733 L1401.3 51.6733 L1401.3 72.576 L1393.8 72.576 L1393.8 27.2059 Z" fill="#000000" fill-rule="nonzero" fill-opacity="1" /><path clip-path="url(#clip690)" d="M1465.91 32.4315 Q1459.91 32.4315 1456.43 37.1306 Q1452.95 41.7891 1452.95 49.9314 Q1452.95 58.0738 1456.39 62.7728 Q1459.87 67.4314 1465.91 67.4314 Q1471.86 67.4314 1475.35 62.7323 Q1478.83 58.0333 1478.83 49.9314 Q1478.83 41.8701 1475.35 37.1711 Q1471.86 32.4315 1465.91 32.4315 M1465.91 26.1121 Q1475.63 26.1121 1481.18 32.4315 Q1486.73 38.7509 1486.73 49.9314 Q1486.73 61.0714 1481.18 67.4314 Q1475.63 73.7508 1465.91 73.7508 Q1456.15 73.7508 1450.6 67.4314 Q1445.09 61.0714 1445.09 49.9314 Q1445.09 38.7509 1450.6 32.4315 Q1456.15 26.1121 1465.91 26.1121 Z" fill="#000000" fill-rule="nonzero" fill-opacity="1" /><path clip-path="url(#clip690)" d="M1498.8 72.576 L1498.8 27.2059 L1530.8 27.2059 L1530.8 33.1607 L1506.3 33.1607 L1506.3 72.576 L1498.8 72.576 Z" fill="#000000" fill-rule="nonzero" fill-opacity="1" /><path clip-path="url(#clip690)" d="M1560.25 32.4315 Q1554.26 32.4315 1550.78 37.1306 Q1547.29 41.7891 1547.29 49.9314 Q1547.29 58.0738 1550.74 62.7728 Q1554.22 67.4314 1560.25 67.4314 Q1566.21 67.4314 1569.69 62.7323 Q1573.18 58.0333 1573.18 49.9314 Q1573.18 41.8701 1569.69 37.1711 Q1566.21 32.4315 1560.25 32.4315 M1560.25 26.1121 Q1569.98 26.1121 1575.53 32.4315 Q1581.08 38.7509 1581.08 49.9314 Q1581.08 61.0714 1575.53 67.4314 Q1569.98 73.7508 1560.25 73.7508 Q1550.49 73.7508 1544.94 67.4314 Q1539.43 61.0714 1539.43 49.9314 Q1539.43 38.7509 1544.94 32.4315 Q1550.49 26.1121 1560.25 26.1121 Z" fill="#000000" fill-rule="nonzero" fill-opacity="1" /><path clip-path="url(#clip690)" d="M1658.37 27.2059 L1658.37 72.576 L1650.95 72.576 L1650.95 36.1584 L1629.08 72.576 L1619.52 72.576 L1619.52 27.2059 L1626.93 27.2059 L1626.93 63.5425 L1648.77 27.2059 L1658.37 27.2059 Z" fill="#000000" fill-rule="nonzero" fill-opacity="1" /><path clip-path="url(#clip690)" d="M1673.44 27.2059 L1684.33 27.2059 L1697.22 57.5877 L1710.14 27.2059 L1720.95 27.2059 L1720.95 72.576 L1713.46 72.576 L1713.46 34.3355 L1700.94 63.8666 L1693.49 63.8666 L1680.93 34.3355 L1680.93 72.576 L1673.44 72.576 L1673.44 27.2059 Z" fill="#000000" fill-rule="nonzero" fill-opacity="1" /><path clip-path="url(#clip690)" d="M1736.02 27.2059 L1746.92 27.2059 L1759.8 57.5877 L1772.72 27.2059 L1783.54 27.2059 L1783.54 72.576 L1776.05 72.576 L1776.05 34.3355 L1763.53 63.8666 L1756.08 63.8666 L1743.52 34.3355 L1743.52 72.576 L1736.02 72.576 L1736.02 27.2059 Z" fill="#000000" fill-rule="nonzero" fill-opacity="1" /><path clip-path="url(#clip690)" d="M1817.77 76.7889 Q1814.61 84.8907 1811.61 87.3618 Q1808.62 89.8329 1803.59 89.8329 L1797.64 89.8329 L1797.64 83.5945 L1802.01 83.5945 Q1805.09 83.5945 1806.79 82.1361 Q1808.49 80.6778 1810.56 75.2496 L1811.9 71.8468 L1793.55 27.2059 L1801.45 27.2059 L1815.62 62.6918 L1829.8 27.2059 L1837.7 27.2059 L1817.77 76.7889 Z" fill="#000000" fill-rule="nonzero" fill-opacity="1" /><path clip-path="url(#clip690)" d="M1847.71 27.2059 L1855.2 27.2059 L1855.2 45.7185 L1879.38 45.7185 L1879.38 27.2059 L1886.88 27.2059 L1886.88 72.576 L1879.38 72.576 L1879.38 51.6733 L1855.2 51.6733 L1855.2 72.576 L1847.71 72.576 L1847.71 27.2059 Z" fill="#000000" fill-rule="nonzero" fill-opacity="1" /><path clip-path="url(#clip690)" d="M1940.8 27.2059 L1940.8 72.576 L1933.38 72.576 L1933.38 36.1584 L1911.51 72.576 L1901.95 72.576 L1901.95 27.2059 L1909.36 27.2059 L1909.36 63.5425 L1931.2 27.2059 L1940.8 27.2059 Z" fill="#000000" fill-rule="nonzero" fill-opacity="1" /><path clip-path="url(#clip690)" d="M1950.76 27.2059 L1994.23 27.2059 L1994.23 33.1607 L1976.16 33.1607 L1976.16 72.576 L1968.83 72.576 L1968.83 33.1607 L1950.76 33.1607 L1950.76 27.2059 Z" fill="#000000" fill-rule="nonzero" fill-opacity="1" /><path clip-path="url(#clip690)" d="M2043.28 48.0275 L2043.28 51.6733 L2009.01 51.6733 Q2009.5 59.3701 2013.63 63.421 Q2017.8 67.4314 2025.22 67.4314 Q2029.51 67.4314 2033.52 66.3781 Q2037.57 65.3249 2041.54 63.2184 L2041.54 70.267 Q2037.53 71.9684 2033.32 72.8596 Q2029.11 73.7508 2024.77 73.7508 Q2013.92 73.7508 2007.56 67.4314 Q2001.24 61.1119 2001.24 50.3365 Q2001.24 39.1965 2007.23 32.6746 Q2013.27 26.1121 2023.48 26.1121 Q2032.63 26.1121 2037.94 32.0264 Q2043.28 37.9003 2043.28 48.0275 M2035.83 45.84 Q2035.75 39.7232 2032.39 36.0774 Q2029.07 32.4315 2023.56 32.4315 Q2017.32 32.4315 2013.55 35.9558 Q2009.82 39.4801 2009.26 45.8805 L2035.83 45.84 Z" fill="#000000" fill-rule="nonzero" fill-opacity="1" /><path clip-path="url(#clip690)" d="M2050.13 27.2059 L2093.6 27.2059 L2093.6 33.1607 L2075.53 33.1607 L2075.53 72.576 L2068.2 72.576 L2068.2 33.1607 L2050.13 33.1607 L2050.13 27.2059 Z" fill="#000000" fill-rule="nonzero" fill-opacity="1" /><path clip-path="url(#clip690)" d="M2124.46 49.7694 Q2115.43 49.7694 2111.95 51.8354 Q2108.46 53.9013 2108.46 58.8839 Q2108.46 62.8538 2111.06 65.2034 Q2113.69 67.5124 2118.19 67.5124 Q2124.38 67.5124 2128.11 63.1374 Q2131.88 58.7219 2131.88 51.4303 L2131.88 49.7694 L2124.46 49.7694 M2139.33 46.6907 L2139.33 72.576 L2131.88 72.576 L2131.88 65.6895 Q2129.33 69.8214 2125.52 71.8063 Q2121.71 73.7508 2116.2 73.7508 Q2109.23 73.7508 2105.1 69.8619 Q2101.01 65.9325 2101.01 59.3701 Q2101.01 51.7138 2106.11 47.825 Q2111.26 43.9361 2121.43 43.9361 L2131.88 43.9361 L2131.88 43.2069 Q2131.88 38.0623 2128.48 35.2672 Q2125.11 32.4315 2119 32.4315 Q2115.11 32.4315 2111.42 33.3632 Q2107.73 34.295 2104.33 36.1584 L2104.33 29.2718 Q2108.42 27.692 2112.27 26.9223 Q2116.12 26.1121 2119.77 26.1121 Q2129.61 26.1121 2134.47 31.2163 Q2139.33 36.3204 2139.33 46.6907 Z" fill="#000000" fill-rule="nonzero" fill-opacity="1" /><circle clip-path="url(#clip692)" cx="354.972" cy="1287.3" r="14.4" fill="#0000ff" fill-rule="evenodd" fill-opacity="1" stroke="#000000" stroke-opacity="1" stroke-width="3.072"/>
<circle clip-path="url(#clip692)" cx="331.11" cy="1297.92" r="14.4" fill="#0000ff" fill-rule="evenodd" fill-opacity="1" stroke="#000000" stroke-opacity="1" stroke-width="3.072"/>
<circle clip-path="url(#clip692)" cx="307.971" cy="1304.71" r="14.4" fill="#0000ff" fill-rule="evenodd" fill-opacity="1" stroke="#000000" stroke-opacity="1" stroke-width="3.072"/>
<circle clip-path="url(#clip692)" cx="283.386" cy="1309.22" r="14.4" fill="#0000ff" fill-rule="evenodd" fill-opacity="1" stroke="#000000" stroke-opacity="1" stroke-width="3.072"/>
<circle clip-path="url(#clip692)" cx="474.282" cy="905.256" r="14.4" fill="#0000ff" fill-rule="evenodd" fill-opacity="1" stroke="#000000" stroke-opacity="1" stroke-width="3.072"/>
<circle clip-path="url(#clip692)" cx="426.558" cy="1108.53" r="14.4" fill="#0000ff" fill-rule="evenodd" fill-opacity="1" stroke="#000000" stroke-opacity="1" stroke-width="3.072"/>
<circle clip-path="url(#clip692)" cx="380.28" cy="1249.82" r="14.4" fill="#0000ff" fill-rule="evenodd" fill-opacity="1" stroke="#000000" stroke-opacity="1" stroke-width="3.072"/>
<circle clip-path="url(#clip692)" cx="331.11" cy="1297.48" r="14.4" fill="#0000ff" fill-rule="evenodd" fill-opacity="1" stroke="#000000" stroke-opacity="1" stroke-width="3.072"/>
<circle clip-path="url(#clip692)" cx="593.592" cy="385.39" r="14.4" fill="#0000ff" fill-rule="evenodd" fill-opacity="1" stroke="#000000" stroke-opacity="1" stroke-width="3.072"/>
<circle clip-path="url(#clip692)" cx="522.006" cy="528.629" r="14.4" fill="#0000ff" fill-rule="evenodd" fill-opacity="1" stroke="#000000" stroke-opacity="1" stroke-width="3.072"/>
<circle clip-path="url(#clip692)" cx="452.589" cy="832.519" r="14.4" fill="#0000ff" fill-rule="evenodd" fill-opacity="1" stroke="#000000" stroke-opacity="1" stroke-width="3.072"/>
<circle clip-path="url(#clip692)" cx="378.834" cy="1245.23" r="14.4" fill="#0000ff" fill-rule="evenodd" fill-opacity="1" stroke="#000000" stroke-opacity="1" stroke-width="3.072"/>
<circle clip-path="url(#clip692)" cx="712.902" cy="248.513" r="14.4" fill="#0000ff" fill-rule="evenodd" fill-opacity="1" stroke="#000000" stroke-opacity="1" stroke-width="3.072"/>
<circle clip-path="url(#clip692)" cx="617.454" cy="316.173" r="14.4" fill="#0000ff" fill-rule="evenodd" fill-opacity="1" stroke="#000000" stroke-opacity="1" stroke-width="3.072"/>
<circle clip-path="url(#clip692)" cx="524.898" cy="474.967" r="14.4" fill="#0000ff" fill-rule="evenodd" fill-opacity="1" stroke="#000000" stroke-opacity="1" stroke-width="3.072"/>
<circle clip-path="url(#clip692)" cx="426.558" cy="954.37" r="14.4" fill="#0000ff" fill-rule="evenodd" fill-opacity="1" stroke="#000000" stroke-opacity="1" stroke-width="3.072"/>
<circle clip-path="url(#clip692)" cx="434.512" cy="1129.17" r="14.4" fill="#0000ff" fill-rule="evenodd" fill-opacity="1" stroke="#000000" stroke-opacity="1" stroke-width="3.072"/>
<circle clip-path="url(#clip692)" cx="394.742" cy="1229.86" r="14.4" fill="#0000ff" fill-rule="evenodd" fill-opacity="1" stroke="#000000" stroke-opacity="1" stroke-width="3.072"/>
<circle clip-path="url(#clip692)" cx="356.177" cy="1282.59" r="14.4" fill="#0000ff" fill-rule="evenodd" fill-opacity="1" stroke="#000000" stroke-opacity="1" stroke-width="3.072"/>
<circle clip-path="url(#clip692)" cx="315.202" cy="1302.87" r="14.4" fill="#0000ff" fill-rule="evenodd" fill-opacity="1" stroke="#000000" stroke-opacity="1" stroke-width="3.072"/>
<circle clip-path="url(#clip692)" cx="633.362" cy="319.886" r="14.4" fill="#0000ff" fill-rule="evenodd" fill-opacity="1" stroke="#000000" stroke-opacity="1" stroke-width="3.072"/>
<circle clip-path="url(#clip692)" cx="553.822" cy="428.644" r="14.4" fill="#0000ff" fill-rule="evenodd" fill-opacity="1" stroke="#000000" stroke-opacity="1" stroke-width="3.072"/>
<circle clip-path="url(#clip692)" cx="476.692" cy="671.987" r="14.4" fill="#0000ff" fill-rule="evenodd" fill-opacity="1" stroke="#000000" stroke-opacity="1" stroke-width="3.072"/>
<circle clip-path="url(#clip692)" cx="394.742" cy="1187.27" r="14.4" fill="#0000ff" fill-rule="evenodd" fill-opacity="1" stroke="#000000" stroke-opacity="1" stroke-width="3.072"/>
<circle clip-path="url(#clip692)" cx="832.212" cy="203.206" r="14.4" fill="#0000ff" fill-rule="evenodd" fill-opacity="1" stroke="#000000" stroke-opacity="1" stroke-width="3.072"/>
<circle clip-path="url(#clip692)" cx="712.902" cy="239.408" r="14.4" fill="#0000ff" fill-rule="evenodd" fill-opacity="1" stroke="#000000" stroke-opacity="1" stroke-width="3.072"/>
<circle clip-path="url(#clip692)" cx="597.208" cy="332.901" r="14.4" fill="#0000ff" fill-rule="evenodd" fill-opacity="1" stroke="#000000" stroke-opacity="1" stroke-width="3.072"/>
<circle clip-path="url(#clip692)" cx="474.282" cy="642.628" r="14.4" fill="#0000ff" fill-rule="evenodd" fill-opacity="1" stroke="#000000" stroke-opacity="1" stroke-width="3.072"/>
<circle clip-path="url(#clip692)" cx="1031.06" cy="178.987" r="14.4" fill="#0000ff" fill-rule="evenodd" fill-opacity="1" stroke="#000000" stroke-opacity="1" stroke-width="3.072"/>
<circle clip-path="url(#clip692)" cx="871.982" cy="192.46" r="14.4" fill="#0000ff" fill-rule="evenodd" fill-opacity="1" stroke="#000000" stroke-opacity="1" stroke-width="3.072"/>
<circle clip-path="url(#clip692)" cx="717.723" cy="235.062" r="14.4" fill="#0000ff" fill-rule="evenodd" fill-opacity="1" stroke="#000000" stroke-opacity="1" stroke-width="3.072"/>
<circle clip-path="url(#clip692)" cx="553.822" cy="400.375" r="14.4" fill="#0000ff" fill-rule="evenodd" fill-opacity="1" stroke="#000000" stroke-opacity="1" stroke-width="3.072"/>
<circle clip-path="url(#clip692)" cx="514.052" cy="662.489" r="14.4" fill="#0000ff" fill-rule="evenodd" fill-opacity="1" stroke="#000000" stroke-opacity="1" stroke-width="3.072"/>
<circle clip-path="url(#clip692)" cx="458.374" cy="897.713" r="14.4" fill="#0000ff" fill-rule="evenodd" fill-opacity="1" stroke="#000000" stroke-opacity="1" stroke-width="3.072"/>
<circle clip-path="url(#clip692)" cx="404.383" cy="1172.39" r="14.4" fill="#0000ff" fill-rule="evenodd" fill-opacity="1" stroke="#000000" stroke-opacity="1" stroke-width="3.072"/>
<circle clip-path="url(#clip692)" cx="347.018" cy="1288.96" r="14.4" fill="#0000ff" fill-rule="evenodd" fill-opacity="1" stroke="#000000" stroke-opacity="1" stroke-width="3.072"/>
<circle clip-path="url(#clip692)" cx="792.442" cy="213.813" r="14.4" fill="#0000ff" fill-rule="evenodd" fill-opacity="1" stroke="#000000" stroke-opacity="1" stroke-width="3.072"/>
<circle clip-path="url(#clip692)" cx="681.086" cy="258.158" r="14.4" fill="#0000ff" fill-rule="evenodd" fill-opacity="1" stroke="#000000" stroke-opacity="1" stroke-width="3.072"/>
<circle clip-path="url(#clip692)" cx="573.104" cy="368.756" r="14.4" fill="#0000ff" fill-rule="evenodd" fill-opacity="1" stroke="#000000" stroke-opacity="1" stroke-width="3.072"/>
<circle clip-path="url(#clip692)" cx="458.374" cy="725.533" r="14.4" fill="#0000ff" fill-rule="evenodd" fill-opacity="1" stroke="#000000" stroke-opacity="1" stroke-width="3.072"/>
<circle clip-path="url(#clip692)" cx="1070.83" cy="176.99" r="14.4" fill="#0000ff" fill-rule="evenodd" fill-opacity="1" stroke="#000000" stroke-opacity="1" stroke-width="3.072"/>
<circle clip-path="url(#clip692)" cx="903.798" cy="188.04" r="14.4" fill="#0000ff" fill-rule="evenodd" fill-opacity="1" stroke="#000000" stroke-opacity="1" stroke-width="3.072"/>
<circle clip-path="url(#clip692)" cx="741.826" cy="224.679" r="14.4" fill="#0000ff" fill-rule="evenodd" fill-opacity="1" stroke="#000000" stroke-opacity="1" stroke-width="3.072"/>
<circle clip-path="url(#clip692)" cx="569.73" cy="371.801" r="14.4" fill="#0000ff" fill-rule="evenodd" fill-opacity="1" stroke="#000000" stroke-opacity="1" stroke-width="3.072"/>
<circle clip-path="url(#clip692)" cx="1349.22" cy="171.245" r="14.4" fill="#0000ff" fill-rule="evenodd" fill-opacity="1" stroke="#000000" stroke-opacity="1" stroke-width="3.072"/>
<circle clip-path="url(#clip692)" cx="1126.51" cy="173.77" r="14.4" fill="#0000ff" fill-rule="evenodd" fill-opacity="1" stroke="#000000" stroke-opacity="1" stroke-width="3.072"/>
<circle clip-path="url(#clip692)" cx="910.547" cy="186.814" r="14.4" fill="#0000ff" fill-rule="evenodd" fill-opacity="1" stroke="#000000" stroke-opacity="1" stroke-width="3.072"/>
<circle clip-path="url(#clip692)" cx="681.086" cy="254.912" r="14.4" fill="#0000ff" fill-rule="evenodd" fill-opacity="1" stroke="#000000" stroke-opacity="1" stroke-width="3.072"/>
<circle clip-path="url(#clip692)" cx="633.362" cy="319.886" r="14.4" fill="#0000ff" fill-rule="evenodd" fill-opacity="1" stroke="#000000" stroke-opacity="1" stroke-width="3.072"/>
<circle clip-path="url(#clip692)" cx="553.822" cy="428.644" r="14.4" fill="#0000ff" fill-rule="evenodd" fill-opacity="1" stroke="#000000" stroke-opacity="1" stroke-width="3.072"/>
<circle clip-path="url(#clip692)" cx="476.692" cy="671.987" r="14.4" fill="#0000ff" fill-rule="evenodd" fill-opacity="1" stroke="#000000" stroke-opacity="1" stroke-width="3.072"/>
<circle clip-path="url(#clip692)" cx="394.742" cy="1187.27" r="14.4" fill="#0000ff" fill-rule="evenodd" fill-opacity="1" stroke="#000000" stroke-opacity="1" stroke-width="3.072"/>
<circle clip-path="url(#clip692)" cx="1031.06" cy="178.987" r="14.4" fill="#0000ff" fill-rule="evenodd" fill-opacity="1" stroke="#000000" stroke-opacity="1" stroke-width="3.072"/>
<circle clip-path="url(#clip692)" cx="871.982" cy="192.46" r="14.4" fill="#0000ff" fill-rule="evenodd" fill-opacity="1" stroke="#000000" stroke-opacity="1" stroke-width="3.072"/>
<circle clip-path="url(#clip692)" cx="717.723" cy="235.062" r="14.4" fill="#0000ff" fill-rule="evenodd" fill-opacity="1" stroke="#000000" stroke-opacity="1" stroke-width="3.072"/>
<circle clip-path="url(#clip692)" cx="553.822" cy="400.375" r="14.4" fill="#0000ff" fill-rule="evenodd" fill-opacity="1" stroke="#000000" stroke-opacity="1" stroke-width="3.072"/>
<circle clip-path="url(#clip692)" cx="1428.76" cy="170.755" r="14.4" fill="#0000ff" fill-rule="evenodd" fill-opacity="1" stroke="#000000" stroke-opacity="1" stroke-width="3.072"/>
<circle clip-path="url(#clip692)" cx="1190.14" cy="172.303" r="14.4" fill="#0000ff" fill-rule="evenodd" fill-opacity="1" stroke="#000000" stroke-opacity="1" stroke-width="3.072"/>
<circle clip-path="url(#clip692)" cx="958.753" cy="182.037" r="14.4" fill="#0000ff" fill-rule="evenodd" fill-opacity="1" stroke="#000000" stroke-opacity="1" stroke-width="3.072"/>
<circle clip-path="url(#clip692)" cx="712.902" cy="237.23" r="14.4" fill="#0000ff" fill-rule="evenodd" fill-opacity="1" stroke="#000000" stroke-opacity="1" stroke-width="3.072"/>
<circle clip-path="url(#clip692)" cx="1826.46" cy="169.978" r="14.4" fill="#0000ff" fill-rule="evenodd" fill-opacity="1" stroke="#000000" stroke-opacity="1" stroke-width="3.072"/>
<circle clip-path="url(#clip692)" cx="1508.3" cy="169.752" r="14.4" fill="#0000ff" fill-rule="evenodd" fill-opacity="1" stroke="#000000" stroke-opacity="1" stroke-width="3.072"/>
<circle clip-path="url(#clip692)" cx="1199.78" cy="171.972" r="14.4" fill="#0000ff" fill-rule="evenodd" fill-opacity="1" stroke="#000000" stroke-opacity="1" stroke-width="3.072"/>
<circle clip-path="url(#clip692)" cx="871.982" cy="191.919" r="14.4" fill="#0000ff" fill-rule="evenodd" fill-opacity="1" stroke="#000000" stroke-opacity="1" stroke-width="3.072"/>
<path clip-path="url(#clip690)" d="M1261.82 1303.14 L1818.23 1303.14 L1818.23 1199.46 L1261.82 1199.46  Z" fill="#ffffff" fill-rule="evenodd" fill-opacity="1"/>
<polyline clip-path="url(#clip690)" style="stroke:#000000; stroke-linecap:round; stroke-linejoin:round; stroke-width:4; stroke-opacity:1; fill:none" points="1261.82,1303.14 1818.23,1303.14 1818.23,1199.46 1261.82,1199.46 1261.82,1303.14 "/>
<circle clip-path="url(#clip690)" cx="1334.52" cy="1251.3" r="20.48" fill="#0000ff" fill-rule="evenodd" fill-opacity="1" stroke="#000000" stroke-opacity="1" stroke-width="4.36907"/>
<path clip-path="url(#clip690)" d="M1407.21 1234.02 L1414.18 1234.02 L1423 1257.54 L1431.87 1234.02 L1438.83 1234.02 L1438.83 1268.58 L1434.27 1268.58 L1434.27 1238.24 L1425.36 1261.94 L1420.66 1261.94 L1411.75 1238.24 L1411.75 1268.58 L1407.21 1268.58 L1407.21 1234.02 Z" fill="#000000" fill-rule="nonzero" fill-opacity="1" /><path clip-path="url(#clip690)" d="M1457.98 1245.64 Q1454.55 1245.64 1452.56 1248.33 Q1450.57 1250.99 1450.57 1255.64 Q1450.57 1260.3 1452.54 1262.98 Q1454.53 1265.64 1457.98 1265.64 Q1461.38 1265.64 1463.37 1262.96 Q1465.36 1260.27 1465.36 1255.64 Q1465.36 1251.04 1463.37 1248.35 Q1461.38 1245.64 1457.98 1245.64 M1457.98 1242.03 Q1463.53 1242.03 1466.71 1245.64 Q1469.88 1249.25 1469.88 1255.64 Q1469.88 1262.01 1466.71 1265.64 Q1463.53 1269.25 1457.98 1269.25 Q1452.4 1269.25 1449.23 1265.64 Q1446.08 1262.01 1446.08 1255.64 Q1446.08 1249.25 1449.23 1245.64 Q1452.4 1242.03 1457.98 1242.03 Z" fill="#000000" fill-rule="nonzero" fill-opacity="1" /><path clip-path="url(#clip690)" d="M1482.72 1265.18 L1495.08 1265.18 L1495.08 1246.06 L1486.13 1246.06 L1486.13 1249.3 Q1486.13 1258.84 1483.39 1263.93 L1482.72 1265.18 M1476.54 1265.18 Q1478.65 1264.25 1479.58 1262.29 Q1481.84 1257.4 1481.84 1247.56 L1481.84 1242.66 L1499.37 1242.66 L1499.37 1265.18 L1502.77 1265.18 L1502.77 1275.13 L1499.37 1275.13 L1499.37 1268.58 L1478.35 1268.58 L1478.35 1275.13 L1474.95 1275.13 L1474.95 1265.18 L1476.54 1265.18 Z" fill="#000000" fill-rule="nonzero" fill-opacity="1" /><path clip-path="url(#clip690)" d="M1531.89 1254.55 L1531.89 1256.64 L1512.31 1256.64 Q1512.58 1261.04 1514.95 1263.35 Q1517.33 1265.64 1521.57 1265.64 Q1524.02 1265.64 1526.31 1265.04 Q1528.63 1264.44 1530.89 1263.24 L1530.89 1267.26 Q1528.6 1268.24 1526.2 1268.74 Q1523.79 1269.25 1521.31 1269.25 Q1515.11 1269.25 1511.47 1265.64 Q1507.86 1262.03 1507.86 1255.87 Q1507.86 1249.51 1511.29 1245.78 Q1514.74 1242.03 1520.57 1242.03 Q1525.8 1242.03 1528.83 1245.41 Q1531.89 1248.77 1531.89 1254.55 M1527.63 1253.3 Q1527.58 1249.81 1525.66 1247.73 Q1523.76 1245.64 1520.62 1245.64 Q1517.05 1245.64 1514.9 1247.66 Q1512.77 1249.67 1512.45 1253.33 L1527.63 1253.3 Z" fill="#000000" fill-rule="nonzero" fill-opacity="1" /><path clip-path="url(#clip690)" d="M1536.17 1268.58 L1536.17 1265.04 Q1540.39 1264.39 1541.68 1261.48 Q1543.26 1257.38 1543.26 1246.89 L1543.26 1242.66 L1560.78 1242.66 L1560.78 1268.58 L1556.52 1268.58 L1556.52 1246.06 L1547.51 1246.06 L1547.51 1248.63 Q1547.51 1258.63 1545.48 1263.12 Q1543.3 1267.91 1536.17 1268.58 Z" fill="#000000" fill-rule="nonzero" fill-opacity="1" /><path clip-path="url(#clip690)" d="M1591.22 1242.66 L1591.22 1268.58 L1586.98 1268.58 L1586.98 1247.77 L1574.48 1268.58 L1569.02 1268.58 L1569.02 1242.66 L1573.26 1242.66 L1573.26 1263.42 L1585.73 1242.66 L1591.22 1242.66 Z" fill="#000000" fill-rule="nonzero" fill-opacity="1" /><path clip-path="url(#clip690)" d="M1604.11 1264.69 L1604.11 1278.44 L1599.83 1278.44 L1599.83 1242.66 L1604.11 1242.66 L1604.11 1246.59 Q1605.45 1244.28 1607.49 1243.17 Q1609.55 1242.03 1612.4 1242.03 Q1617.12 1242.03 1620.06 1245.78 Q1623.02 1249.53 1623.02 1255.64 Q1623.02 1261.75 1620.06 1265.5 Q1617.12 1269.25 1612.4 1269.25 Q1609.55 1269.25 1607.49 1268.14 Q1605.45 1267.01 1604.11 1264.69 M1618.6 1255.64 Q1618.6 1250.94 1616.66 1248.28 Q1614.74 1245.6 1611.36 1245.6 Q1607.98 1245.6 1606.03 1248.28 Q1604.11 1250.94 1604.11 1255.64 Q1604.11 1260.34 1606.03 1263.03 Q1607.98 1265.69 1611.36 1265.69 Q1614.74 1265.69 1616.66 1263.03 Q1618.6 1260.34 1618.6 1255.64 Z" fill="#000000" fill-rule="nonzero" fill-opacity="1" /><path clip-path="url(#clip690)" d="M1640.13 1245.64 Q1636.7 1245.64 1634.71 1248.33 Q1632.72 1250.99 1632.72 1255.64 Q1632.72 1260.3 1634.69 1262.98 Q1636.68 1265.64 1640.13 1265.64 Q1643.53 1265.64 1645.52 1262.96 Q1647.51 1260.27 1647.51 1255.64 Q1647.51 1251.04 1645.52 1248.35 Q1643.53 1245.64 1640.13 1245.64 M1640.13 1242.03 Q1645.69 1242.03 1648.86 1245.64 Q1652.03 1249.25 1652.03 1255.64 Q1652.03 1262.01 1648.86 1265.64 Q1645.69 1269.25 1640.13 1269.25 Q1634.55 1269.25 1631.38 1265.64 Q1628.23 1262.01 1628.23 1255.64 Q1628.23 1249.25 1631.38 1245.64 Q1634.55 1242.03 1640.13 1242.03 Z" fill="#000000" fill-rule="nonzero" fill-opacity="1" /><path clip-path="url(#clip690)" d="M1663.19 1256.64 L1663.19 1265.18 L1669.25 1265.18 Q1672.17 1265.18 1673.69 1264.09 Q1675.22 1262.98 1675.22 1260.9 Q1675.22 1258.81 1673.69 1257.73 Q1672.17 1256.64 1669.25 1256.64 L1663.19 1256.64 M1663.19 1246.06 L1663.19 1253.24 L1668.79 1253.24 Q1671.19 1253.24 1672.72 1252.29 Q1674.25 1251.31 1674.25 1249.6 Q1674.25 1247.89 1672.72 1246.99 Q1671.19 1246.06 1668.79 1246.06 L1663.19 1246.06 M1658.93 1242.66 L1669.07 1242.66 Q1673.63 1242.66 1676.08 1244.32 Q1678.53 1245.99 1678.53 1249.07 Q1678.53 1251.45 1677.28 1252.87 Q1676.03 1254.25 1673.58 1254.6 Q1676.52 1255.16 1678.14 1256.92 Q1679.76 1258.68 1679.76 1261.31 Q1679.76 1264.79 1677.07 1266.68 Q1674.41 1268.58 1669.46 1268.58 L1658.93 1268.58 L1658.93 1242.66 Z" fill="#000000" fill-rule="nonzero" fill-opacity="1" /><path clip-path="url(#clip690)" d="M1698.81 1255.55 Q1693.65 1255.55 1691.66 1256.73 Q1689.67 1257.91 1689.67 1260.76 Q1689.67 1263.03 1691.15 1264.37 Q1692.65 1265.69 1695.22 1265.69 Q1698.76 1265.69 1700.89 1263.19 Q1703.05 1260.67 1703.05 1256.5 L1703.05 1255.55 L1698.81 1255.55 M1707.31 1253.79 L1707.31 1268.58 L1703.05 1268.58 L1703.05 1264.65 Q1701.59 1267.01 1699.41 1268.14 Q1697.24 1269.25 1694.09 1269.25 Q1690.11 1269.25 1687.75 1267.03 Q1685.41 1264.79 1685.41 1261.04 Q1685.41 1256.66 1688.32 1254.44 Q1691.26 1252.22 1697.07 1252.22 L1703.05 1252.22 L1703.05 1251.8 Q1703.05 1248.86 1701.1 1247.26 Q1699.18 1245.64 1695.69 1245.64 Q1693.46 1245.64 1691.36 1246.18 Q1689.25 1246.71 1687.31 1247.77 L1687.31 1243.84 Q1689.64 1242.93 1691.84 1242.49 Q1694.04 1242.03 1696.13 1242.03 Q1701.75 1242.03 1704.53 1244.95 Q1707.31 1247.87 1707.31 1253.79 Z" fill="#000000" fill-rule="nonzero" fill-opacity="1" /><path clip-path="url(#clip690)" d="M1715.92 1242.66 L1720.2 1242.66 L1720.2 1253.24 L1734.02 1253.24 L1734.02 1242.66 L1738.3 1242.66 L1738.3 1268.58 L1734.02 1268.58 L1734.02 1256.64 L1720.2 1256.64 L1720.2 1268.58 L1715.92 1268.58 L1715.92 1242.66 Z" fill="#000000" fill-rule="nonzero" fill-opacity="1" /><path clip-path="url(#clip690)" d="M1769.11 1242.66 L1769.11 1268.58 L1764.87 1268.58 L1764.87 1247.77 L1752.37 1268.58 L1746.91 1268.58 L1746.91 1242.66 L1751.15 1242.66 L1751.15 1263.42 L1763.62 1242.66 L1769.11 1242.66 Z" fill="#000000" fill-rule="nonzero" fill-opacity="1" /><path clip-path="url(#clip690)" d="M1800.06 1254.55 L1800.06 1256.64 L1780.48 1256.64 Q1780.75 1261.04 1783.12 1263.35 Q1785.5 1265.64 1789.74 1265.64 Q1792.19 1265.64 1794.48 1265.04 Q1796.8 1264.44 1799.06 1263.24 L1799.06 1267.26 Q1796.77 1268.24 1794.37 1268.74 Q1791.96 1269.25 1789.48 1269.25 Q1783.28 1269.25 1779.64 1265.64 Q1776.03 1262.03 1776.03 1255.87 Q1776.03 1249.51 1779.46 1245.78 Q1782.91 1242.03 1788.74 1242.03 Q1793.97 1242.03 1797 1245.41 Q1800.06 1248.77 1800.06 1254.55 M1795.8 1253.3 Q1795.75 1249.81 1793.83 1247.73 Q1791.93 1245.64 1788.79 1245.64 Q1785.22 1245.64 1783.07 1247.66 Q1780.94 1249.67 1780.62 1253.33 L1795.8 1253.3 Z" fill="#000000" fill-rule="nonzero" fill-opacity="1" /></svg>
