<?xml version="1.0" encoding="utf-8"?>
<svg xmlns="http://www.w3.org/2000/svg" xmlns:xlink="http://www.w3.org/1999/xlink" width="600" height="400" viewBox="0 0 2400 1600">
<defs>
  <clipPath id="clip070">
    <rect x="0" y="0" width="2400" height="1600"/>
  </clipPath>
</defs>
<path clip-path="url(#clip070)" d="M0 1600 L2400 1600 L2400 0 L0 0  Z" fill="#ffffff" fill-rule="evenodd" fill-opacity="1"/>
<defs>
  <clipPath id="clip071">
    <rect x="264" y="123" width="2089" height="1301"/>
  </clipPath>
</defs>
<path clip-path="url(#clip070)" d="M264.287 1423.18 L2352.76 1423.18 L2352.76 123.472 L264.287 123.472  Z" fill="#ffffff" fill-rule="evenodd" fill-opacity="1"/>
<polyline clip-path="url(#clip071)" style="stroke:#000000; stroke-linecap:round; stroke-linejoin:round; stroke-width:2; stroke-opacity:0.1; fill:none" points="303.493,1423.18 303.493,123.472 "/>
<polyline clip-path="url(#clip071)" style="stroke:#000000; stroke-linecap:round; stroke-linejoin:round; stroke-width:2; stroke-opacity:0.1; fill:none" points="801.032,1423.18 801.032,123.472 "/>
<polyline clip-path="url(#clip071)" style="stroke:#000000; stroke-linecap:round; stroke-linejoin:round; stroke-width:2; stroke-opacity:0.1; fill:none" points="1298.57,1423.18 1298.57,123.472 "/>
<polyline clip-path="url(#clip071)" style="stroke:#000000; stroke-linecap:round; stroke-linejoin:round; stroke-width:2; stroke-opacity:0.1; fill:none" points="1796.11,1423.18 1796.11,123.472 "/>
<polyline clip-path="url(#clip071)" style="stroke:#000000; stroke-linecap:round; stroke-linejoin:round; stroke-width:2; stroke-opacity:0.1; fill:none" points="2293.65,1423.18 2293.65,123.472 "/>
<polyline clip-path="url(#clip071)" style="stroke:#000000; stroke-linecap:round; stroke-linejoin:round; stroke-width:2; stroke-opacity:0.1; fill:none" points="264.287,1386.4 2352.76,1386.4 "/>
<polyline clip-path="url(#clip071)" style="stroke:#000000; stroke-linecap:round; stroke-linejoin:round; stroke-width:2; stroke-opacity:0.1; fill:none" points="264.287,977.683 2352.76,977.683 "/>
<polyline clip-path="url(#clip071)" style="stroke:#000000; stroke-linecap:round; stroke-linejoin:round; stroke-width:2; stroke-opacity:0.1; fill:none" points="264.287,568.969 2352.76,568.969 "/>
<polyline clip-path="url(#clip071)" style="stroke:#000000; stroke-linecap:round; stroke-linejoin:round; stroke-width:2; stroke-opacity:0.1; fill:none" points="264.287,160.256 2352.76,160.256 "/>
<polyline clip-path="url(#clip070)" style="stroke:#000000; stroke-linecap:round; stroke-linejoin:round; stroke-width:4; stroke-opacity:1; fill:none" points="264.287,1423.18 2352.76,1423.18 "/>
<polyline clip-path="url(#clip070)" style="stroke:#000000; stroke-linecap:round; stroke-linejoin:round; stroke-width:4; stroke-opacity:1; fill:none" points="303.493,1423.18 303.493,1404.28 "/>
<polyline clip-path="url(#clip070)" style="stroke:#000000; stroke-linecap:round; stroke-linejoin:round; stroke-width:4; stroke-opacity:1; fill:none" points="801.032,1423.18 801.032,1404.28 "/>
<polyline clip-path="url(#clip070)" style="stroke:#000000; stroke-linecap:round; stroke-linejoin:round; stroke-width:4; stroke-opacity:1; fill:none" points="1298.57,1423.18 1298.57,1404.28 "/>
<polyline clip-path="url(#clip070)" style="stroke:#000000; stroke-linecap:round; stroke-linejoin:round; stroke-width:4; stroke-opacity:1; fill:none" points="1796.11,1423.18 1796.11,1404.28 "/>
<polyline clip-path="url(#clip070)" style="stroke:#000000; stroke-linecap:round; stroke-linejoin:round; stroke-width:4; stroke-opacity:1; fill:none" points="2293.65,1423.18 2293.65,1404.28 "/>
<path clip-path="url(#clip070)" d="M303.493 1454.1 Q299.882 1454.1 298.054 1457.66 Q296.248 1461.2 296.248 1468.33 Q296.248 1475.44 298.054 1479.01 Q299.882 1482.55 303.493 1482.55 Q307.128 1482.55 308.933 1479.01 Q310.762 1475.44 310.762 1468.33 Q310.762 1461.2 308.933 1457.66 Q307.128 1454.1 303.493 1454.1 M303.493 1450.39 Q309.304 1450.39 312.359 1455 Q315.438 1459.58 315.438 1468.33 Q315.438 1477.06 312.359 1481.67 Q309.304 1486.25 303.493 1486.25 Q297.683 1486.25 294.605 1481.67 Q291.549 1477.06 291.549 1468.33 Q291.549 1459.58 294.605 1455 Q297.683 1450.39 303.493 1450.39 Z" fill="#000000" fill-rule="nonzero" fill-opacity="1" /><path clip-path="url(#clip070)" d="M780.303 1481.64 L796.622 1481.64 L796.622 1485.58 L774.678 1485.58 L774.678 1481.64 Q777.34 1478.89 781.923 1474.26 Q786.53 1469.61 787.71 1468.27 Q789.956 1465.74 790.835 1464.01 Q791.738 1462.25 791.738 1460.56 Q791.738 1457.8 789.794 1456.07 Q787.872 1454.33 784.771 1454.33 Q782.572 1454.33 780.118 1455.09 Q777.687 1455.86 774.91 1457.41 L774.91 1452.69 Q777.734 1451.55 780.187 1450.97 Q782.641 1450.39 784.678 1450.39 Q790.048 1450.39 793.243 1453.08 Q796.437 1455.77 796.437 1460.26 Q796.437 1462.39 795.627 1464.31 Q794.84 1466.2 792.734 1468.8 Q792.155 1469.47 789.053 1472.69 Q785.951 1475.88 780.303 1481.64 Z" fill="#000000" fill-rule="nonzero" fill-opacity="1" /><path clip-path="url(#clip070)" d="M806.483 1451.02 L824.84 1451.02 L824.84 1454.96 L810.766 1454.96 L810.766 1463.43 Q811.784 1463.08 812.803 1462.92 Q813.821 1462.73 814.84 1462.73 Q820.627 1462.73 824.007 1465.9 Q827.386 1469.08 827.386 1474.49 Q827.386 1480.07 823.914 1483.17 Q820.442 1486.25 814.122 1486.25 Q811.946 1486.25 809.678 1485.88 Q807.433 1485.51 805.025 1484.77 L805.025 1480.07 Q807.108 1481.2 809.331 1481.76 Q811.553 1482.32 814.03 1482.32 Q818.034 1482.32 820.372 1480.21 Q822.71 1478.1 822.71 1474.49 Q822.71 1470.88 820.372 1468.77 Q818.034 1466.67 814.03 1466.67 Q812.155 1466.67 810.28 1467.08 Q808.428 1467.5 806.483 1468.38 L806.483 1451.02 Z" fill="#000000" fill-rule="nonzero" fill-opacity="1" /><path clip-path="url(#clip070)" d="M1273.27 1451.02 L1291.63 1451.02 L1291.63 1454.96 L1277.55 1454.96 L1277.55 1463.43 Q1278.57 1463.08 1279.59 1462.92 Q1280.61 1462.73 1281.63 1462.73 Q1287.41 1462.73 1290.79 1465.9 Q1294.17 1469.08 1294.17 1474.49 Q1294.17 1480.07 1290.7 1483.17 Q1287.23 1486.25 1280.91 1486.25 Q1278.73 1486.25 1276.46 1485.88 Q1274.22 1485.51 1271.81 1484.77 L1271.81 1480.07 Q1273.9 1481.2 1276.12 1481.76 Q1278.34 1482.32 1280.82 1482.32 Q1284.82 1482.32 1287.16 1480.21 Q1289.5 1478.1 1289.5 1474.49 Q1289.5 1470.88 1287.16 1468.77 Q1284.82 1466.67 1280.82 1466.67 Q1278.94 1466.67 1277.07 1467.08 Q1275.21 1467.5 1273.27 1468.38 L1273.27 1451.02 Z" fill="#000000" fill-rule="nonzero" fill-opacity="1" /><path clip-path="url(#clip070)" d="M1313.39 1454.1 Q1309.77 1454.1 1307.95 1457.66 Q1306.14 1461.2 1306.14 1468.33 Q1306.14 1475.44 1307.95 1479.01 Q1309.77 1482.55 1313.39 1482.55 Q1317.02 1482.55 1318.83 1479.01 Q1320.65 1475.44 1320.65 1468.33 Q1320.65 1461.2 1318.83 1457.66 Q1317.02 1454.1 1313.39 1454.1 M1313.39 1450.39 Q1319.2 1450.39 1322.25 1455 Q1325.33 1459.58 1325.33 1468.33 Q1325.33 1477.06 1322.25 1481.67 Q1319.2 1486.25 1313.39 1486.25 Q1307.58 1486.25 1304.5 1481.67 Q1301.44 1477.06 1301.44 1468.33 Q1301.44 1459.58 1304.5 1455 Q1307.58 1450.39 1313.39 1450.39 Z" fill="#000000" fill-rule="nonzero" fill-opacity="1" /><path clip-path="url(#clip070)" d="M1769.96 1451.02 L1792.19 1451.02 L1792.19 1453.01 L1779.64 1485.58 L1774.76 1485.58 L1786.56 1454.96 L1769.96 1454.96 L1769.96 1451.02 Z" fill="#000000" fill-rule="nonzero" fill-opacity="1" /><path clip-path="url(#clip070)" d="M1801.35 1451.02 L1819.71 1451.02 L1819.71 1454.96 L1805.63 1454.96 L1805.63 1463.43 Q1806.65 1463.08 1807.67 1462.92 Q1808.69 1462.73 1809.71 1462.73 Q1815.5 1462.73 1818.88 1465.9 Q1822.26 1469.08 1822.26 1474.49 Q1822.26 1480.07 1818.78 1483.17 Q1815.31 1486.25 1808.99 1486.25 Q1806.82 1486.25 1804.55 1485.88 Q1802.3 1485.51 1799.89 1484.77 L1799.89 1480.07 Q1801.98 1481.2 1804.2 1481.76 Q1806.42 1482.32 1808.9 1482.32 Q1812.9 1482.32 1815.24 1480.21 Q1817.58 1478.1 1817.58 1474.49 Q1817.58 1470.88 1815.24 1468.77 Q1812.9 1466.67 1808.9 1466.67 Q1807.02 1466.67 1805.15 1467.08 Q1803.3 1467.5 1801.35 1468.38 L1801.35 1451.02 Z" fill="#000000" fill-rule="nonzero" fill-opacity="1" /><path clip-path="url(#clip070)" d="M2253.26 1481.64 L2260.89 1481.64 L2260.89 1455.28 L2252.58 1456.95 L2252.58 1452.69 L2260.85 1451.02 L2265.52 1451.02 L2265.52 1481.64 L2273.16 1481.64 L2273.16 1485.58 L2253.26 1485.58 L2253.26 1481.64 Z" fill="#000000" fill-rule="nonzero" fill-opacity="1" /><path clip-path="url(#clip070)" d="M2292.61 1454.1 Q2289 1454.1 2287.17 1457.66 Q2285.36 1461.2 2285.36 1468.33 Q2285.36 1475.44 2287.17 1479.01 Q2289 1482.55 2292.61 1482.55 Q2296.24 1482.55 2298.05 1479.01 Q2299.88 1475.44 2299.88 1468.33 Q2299.88 1461.2 2298.05 1457.66 Q2296.24 1454.1 2292.61 1454.1 M2292.61 1450.39 Q2298.42 1450.39 2301.47 1455 Q2304.55 1459.58 2304.55 1468.33 Q2304.55 1477.06 2301.47 1481.67 Q2298.42 1486.25 2292.61 1486.25 Q2286.8 1486.25 2283.72 1481.67 Q2280.66 1477.06 2280.66 1468.33 Q2280.66 1459.58 2283.72 1455 Q2286.8 1450.39 2292.61 1450.39 Z" fill="#000000" fill-rule="nonzero" fill-opacity="1" /><path clip-path="url(#clip070)" d="M2322.77 1454.1 Q2319.16 1454.1 2317.33 1457.66 Q2315.52 1461.2 2315.52 1468.33 Q2315.52 1475.44 2317.33 1479.01 Q2319.16 1482.55 2322.77 1482.55 Q2326.4 1482.55 2328.21 1479.01 Q2330.04 1475.44 2330.04 1468.33 Q2330.04 1461.2 2328.21 1457.66 Q2326.4 1454.1 2322.77 1454.1 M2322.77 1450.39 Q2328.58 1450.39 2331.63 1455 Q2334.71 1459.58 2334.71 1468.33 Q2334.71 1477.06 2331.63 1481.67 Q2328.58 1486.25 2322.77 1486.25 Q2316.96 1486.25 2313.88 1481.67 Q2310.82 1477.06 2310.82 1468.33 Q2310.82 1459.58 2313.88 1455 Q2316.96 1450.39 2322.77 1450.39 Z" fill="#000000" fill-rule="nonzero" fill-opacity="1" /><path clip-path="url(#clip070)" d="M1256.78 1562.63 L1277.79 1562.63 L1277.79 1525.93 L1262.35 1525.93 L1262.35 1532.68 Q1262.35 1548.56 1258.79 1559.1 Q1258.06 1561.26 1256.78 1562.63 M1247.39 1562.63 Q1251.66 1560.63 1252.87 1556.81 Q1255.96 1547.01 1255.96 1529.5 L1255.96 1520.52 L1284.22 1520.52 L1284.22 1562.63 L1289.63 1562.63 L1289.63 1578.26 L1284.22 1578.26 L1284.22 1568.04 L1250.55 1568.04 L1250.55 1578.26 L1245.14 1578.26 L1245.14 1562.63 L1247.39 1562.63 Z" fill="#000000" fill-rule="nonzero" fill-opacity="1" /><path clip-path="url(#clip070)" d="M1298.77 1532.4 L1304.65 1532.4 L1304.65 1546.94 L1323.66 1546.94 L1323.66 1532.4 L1329.54 1532.4 L1329.54 1568.04 L1323.66 1568.04 L1323.66 1551.62 L1304.65 1551.62 L1304.65 1568.04 L1298.77 1568.04 L1298.77 1532.4 Z" fill="#000000" fill-rule="nonzero" fill-opacity="1" /><path clip-path="url(#clip070)" d="M1371.91 1532.4 L1371.91 1568.04 L1366.08 1568.04 L1366.08 1539.43 L1348.9 1568.04 L1341.38 1568.04 L1341.38 1532.4 L1347.21 1532.4 L1347.21 1560.95 L1364.36 1532.4 L1371.91 1532.4 Z" fill="#000000" fill-rule="nonzero" fill-opacity="1" /><polyline clip-path="url(#clip070)" style="stroke:#000000; stroke-linecap:round; stroke-linejoin:round; stroke-width:4; stroke-opacity:1; fill:none" points="264.287,1423.18 264.287,123.472 "/>
<polyline clip-path="url(#clip070)" style="stroke:#000000; stroke-linecap:round; stroke-linejoin:round; stroke-width:4; stroke-opacity:1; fill:none" points="264.287,1386.4 283.185,1386.4 "/>
<polyline clip-path="url(#clip070)" style="stroke:#000000; stroke-linecap:round; stroke-linejoin:round; stroke-width:4; stroke-opacity:1; fill:none" points="264.287,977.683 283.185,977.683 "/>
<polyline clip-path="url(#clip070)" style="stroke:#000000; stroke-linecap:round; stroke-linejoin:round; stroke-width:4; stroke-opacity:1; fill:none" points="264.287,568.969 283.185,568.969 "/>
<polyline clip-path="url(#clip070)" style="stroke:#000000; stroke-linecap:round; stroke-linejoin:round; stroke-width:4; stroke-opacity:1; fill:none" points="264.287,160.256 283.185,160.256 "/>
<path clip-path="url(#clip070)" d="M216.343 1372.19 Q212.732 1372.19 210.903 1375.76 Q209.098 1379.3 209.098 1386.43 Q209.098 1393.54 210.903 1397.1 Q212.732 1400.64 216.343 1400.64 Q219.977 1400.64 221.783 1397.1 Q223.611 1393.54 223.611 1386.43 Q223.611 1379.3 221.783 1375.76 Q219.977 1372.19 216.343 1372.19 M216.343 1368.49 Q222.153 1368.49 225.209 1373.1 Q228.287 1377.68 228.287 1386.43 Q228.287 1395.16 225.209 1399.76 Q222.153 1404.35 216.343 1404.35 Q210.533 1404.35 207.454 1399.76 Q204.399 1395.16 204.399 1386.43 Q204.399 1377.68 207.454 1373.1 Q210.533 1368.49 216.343 1368.49 Z" fill="#000000" fill-rule="nonzero" fill-opacity="1" /><path clip-path="url(#clip070)" d="M116.668 991.027 L124.306 991.027 L124.306 964.662 L115.996 966.328 L115.996 962.069 L124.26 960.403 L128.936 960.403 L128.936 991.027 L136.575 991.027 L136.575 994.963 L116.668 994.963 L116.668 991.027 Z" fill="#000000" fill-rule="nonzero" fill-opacity="1" /><path clip-path="url(#clip070)" d="M156.019 963.481 Q152.408 963.481 150.579 967.046 Q148.774 970.588 148.774 977.717 Q148.774 984.824 150.579 988.389 Q152.408 991.93 156.019 991.93 Q159.653 991.93 161.459 988.389 Q163.288 984.824 163.288 977.717 Q163.288 970.588 161.459 967.046 Q159.653 963.481 156.019 963.481 M156.019 959.778 Q161.829 959.778 164.885 964.384 Q167.964 968.967 167.964 977.717 Q167.964 986.444 164.885 991.051 Q161.829 995.634 156.019 995.634 Q150.209 995.634 147.13 991.051 Q144.075 986.444 144.075 977.717 Q144.075 968.967 147.13 964.384 Q150.209 959.778 156.019 959.778 Z" fill="#000000" fill-rule="nonzero" fill-opacity="1" /><path clip-path="url(#clip070)" d="M186.181 963.481 Q182.57 963.481 180.741 967.046 Q178.936 970.588 178.936 977.717 Q178.936 984.824 180.741 988.389 Q182.57 991.93 186.181 991.93 Q189.815 991.93 191.621 988.389 Q193.45 984.824 193.45 977.717 Q193.45 970.588 191.621 967.046 Q189.815 963.481 186.181 963.481 M186.181 959.778 Q191.991 959.778 195.047 964.384 Q198.125 968.967 198.125 977.717 Q198.125 986.444 195.047 991.051 Q191.991 995.634 186.181 995.634 Q180.371 995.634 177.292 991.051 Q174.237 986.444 174.237 977.717 Q174.237 968.967 177.292 964.384 Q180.371 959.778 186.181 959.778 Z" fill="#000000" fill-rule="nonzero" fill-opacity="1" /><path clip-path="url(#clip070)" d="M216.343 963.481 Q212.732 963.481 210.903 967.046 Q209.098 970.588 209.098 977.717 Q209.098 984.824 210.903 988.389 Q212.732 991.93 216.343 991.93 Q219.977 991.93 221.783 988.389 Q223.611 984.824 223.611 977.717 Q223.611 970.588 221.783 967.046 Q219.977 963.481 216.343 963.481 M216.343 959.778 Q222.153 959.778 225.209 964.384 Q228.287 968.967 228.287 977.717 Q228.287 986.444 225.209 991.051 Q222.153 995.634 216.343 995.634 Q210.533 995.634 207.454 991.051 Q204.399 986.444 204.399 977.717 Q204.399 968.967 207.454 964.384 Q210.533 959.778 216.343 959.778 Z" fill="#000000" fill-rule="nonzero" fill-opacity="1" /><path clip-path="url(#clip070)" d="M119.885 582.314 L136.204 582.314 L136.204 586.249 L114.26 586.249 L114.26 582.314 Q116.922 579.56 121.505 574.93 Q126.112 570.277 127.292 568.935 Q129.538 566.412 130.417 564.675 Q131.32 562.916 131.32 561.226 Q131.32 558.472 129.376 556.736 Q127.455 555 124.353 555 Q122.154 555 119.7 555.763 Q117.269 556.527 114.492 558.078 L114.492 553.356 Q117.316 552.222 119.769 551.643 Q122.223 551.064 124.26 551.064 Q129.63 551.064 132.825 553.75 Q136.019 556.435 136.019 560.925 Q136.019 563.055 135.209 564.976 Q134.422 566.875 132.316 569.467 Q131.737 570.138 128.635 573.356 Q125.533 576.55 119.885 582.314 Z" fill="#000000" fill-rule="nonzero" fill-opacity="1" /><path clip-path="url(#clip070)" d="M156.019 554.768 Q152.408 554.768 150.579 558.333 Q148.774 561.875 148.774 569.004 Q148.774 576.111 150.579 579.675 Q152.408 583.217 156.019 583.217 Q159.653 583.217 161.459 579.675 Q163.288 576.111 163.288 569.004 Q163.288 561.875 161.459 558.333 Q159.653 554.768 156.019 554.768 M156.019 551.064 Q161.829 551.064 164.885 555.671 Q167.964 560.254 167.964 569.004 Q167.964 577.731 164.885 582.337 Q161.829 586.921 156.019 586.921 Q150.209 586.921 147.13 582.337 Q144.075 577.731 144.075 569.004 Q144.075 560.254 147.13 555.671 Q150.209 551.064 156.019 551.064 Z" fill="#000000" fill-rule="nonzero" fill-opacity="1" /><path clip-path="url(#clip070)" d="M186.181 554.768 Q182.57 554.768 180.741 558.333 Q178.936 561.875 178.936 569.004 Q178.936 576.111 180.741 579.675 Q182.57 583.217 186.181 583.217 Q189.815 583.217 191.621 579.675 Q193.45 576.111 193.45 569.004 Q193.45 561.875 191.621 558.333 Q189.815 554.768 186.181 554.768 M186.181 551.064 Q191.991 551.064 195.047 555.671 Q198.125 560.254 198.125 569.004 Q198.125 577.731 195.047 582.337 Q191.991 586.921 186.181 586.921 Q180.371 586.921 177.292 582.337 Q174.237 577.731 174.237 569.004 Q174.237 560.254 177.292 555.671 Q180.371 551.064 186.181 551.064 Z" fill="#000000" fill-rule="nonzero" fill-opacity="1" /><path clip-path="url(#clip070)" d="M216.343 554.768 Q212.732 554.768 210.903 558.333 Q209.098 561.875 209.098 569.004 Q209.098 576.111 210.903 579.675 Q212.732 583.217 216.343 583.217 Q219.977 583.217 221.783 579.675 Q223.611 576.111 223.611 569.004 Q223.611 561.875 221.783 558.333 Q219.977 554.768 216.343 554.768 M216.343 551.064 Q222.153 551.064 225.209 555.671 Q228.287 560.254 228.287 569.004 Q228.287 577.731 225.209 582.337 Q222.153 586.921 216.343 586.921 Q210.533 586.921 207.454 582.337 Q204.399 577.731 204.399 569.004 Q204.399 560.254 207.454 555.671 Q210.533 551.064 216.343 551.064 Z" fill="#000000" fill-rule="nonzero" fill-opacity="1" /><path clip-path="url(#clip070)" d="M130.024 158.902 Q133.38 159.62 135.255 161.888 Q137.154 164.157 137.154 167.49 Q137.154 172.606 133.635 175.407 Q130.117 178.208 123.635 178.208 Q121.459 178.208 119.144 177.768 Q116.853 177.351 114.399 176.495 L114.399 171.981 Q116.343 173.115 118.658 173.694 Q120.973 174.272 123.496 174.272 Q127.894 174.272 130.186 172.536 Q132.501 170.8 132.501 167.49 Q132.501 164.435 130.348 162.722 Q128.218 160.985 124.399 160.985 L120.371 160.985 L120.371 157.143 L124.584 157.143 Q128.033 157.143 129.862 155.777 Q131.691 154.388 131.691 151.796 Q131.691 149.134 129.792 147.722 Q127.917 146.286 124.399 146.286 Q122.478 146.286 120.279 146.703 Q118.08 147.12 115.441 147.999 L115.441 143.833 Q118.103 143.092 120.418 142.722 Q122.755 142.351 124.816 142.351 Q130.14 142.351 133.242 144.782 Q136.343 147.189 136.343 151.31 Q136.343 154.18 134.7 156.171 Q133.056 158.138 130.024 158.902 Z" fill="#000000" fill-rule="nonzero" fill-opacity="1" /><path clip-path="url(#clip070)" d="M156.019 146.055 Q152.408 146.055 150.579 149.62 Q148.774 153.161 148.774 160.291 Q148.774 167.397 150.579 170.962 Q152.408 174.504 156.019 174.504 Q159.653 174.504 161.459 170.962 Q163.288 167.397 163.288 160.291 Q163.288 153.161 161.459 149.62 Q159.653 146.055 156.019 146.055 M156.019 142.351 Q161.829 142.351 164.885 146.958 Q167.964 151.541 167.964 160.291 Q167.964 169.018 164.885 173.624 Q161.829 178.208 156.019 178.208 Q150.209 178.208 147.13 173.624 Q144.075 169.018 144.075 160.291 Q144.075 151.541 147.13 146.958 Q150.209 142.351 156.019 142.351 Z" fill="#000000" fill-rule="nonzero" fill-opacity="1" /><path clip-path="url(#clip070)" d="M186.181 146.055 Q182.57 146.055 180.741 149.62 Q178.936 153.161 178.936 160.291 Q178.936 167.397 180.741 170.962 Q182.57 174.504 186.181 174.504 Q189.815 174.504 191.621 170.962 Q193.45 167.397 193.45 160.291 Q193.45 153.161 191.621 149.62 Q189.815 146.055 186.181 146.055 M186.181 142.351 Q191.991 142.351 195.047 146.958 Q198.125 151.541 198.125 160.291 Q198.125 169.018 195.047 173.624 Q191.991 178.208 186.181 178.208 Q180.371 178.208 177.292 173.624 Q174.237 169.018 174.237 160.291 Q174.237 151.541 177.292 146.958 Q180.371 142.351 186.181 142.351 Z" fill="#000000" fill-rule="nonzero" fill-opacity="1" /><path clip-path="url(#clip070)" d="M216.343 146.055 Q212.732 146.055 210.903 149.62 Q209.098 153.161 209.098 160.291 Q209.098 167.397 210.903 170.962 Q212.732 174.504 216.343 174.504 Q219.977 174.504 221.783 170.962 Q223.611 167.397 223.611 160.291 Q223.611 153.161 221.783 149.62 Q219.977 146.055 216.343 146.055 M216.343 142.351 Q222.153 142.351 225.209 146.958 Q228.287 151.541 228.287 160.291 Q228.287 169.018 225.209 173.624 Q222.153 178.208 216.343 178.208 Q210.533 178.208 207.454 173.624 Q204.399 169.018 204.399 160.291 Q204.399 151.541 207.454 146.958 Q210.533 142.351 216.343 142.351 Z" fill="#000000" fill-rule="nonzero" fill-opacity="1" /><path clip-path="url(#clip070)" d="M16.4842 1090.02 L16.4842 1083.59 L39.9736 1083.59 L16.4842 1060.61 L16.4842 1052.37 L35.263 1070.73 L64.0042 1051.41 L64.0042 1058.41 L39.528 1074.9 L48.4082 1083.59 L64.0042 1083.59 L64.0042 1090.02 L16.4842 1090.02 Z" fill="#000000" fill-rule="nonzero" fill-opacity="1" /><path clip-path="url(#clip070)" d="M32.4621 1030.18 Q32.4621 1034.89 36.1542 1037.63 Q39.8145 1040.37 46.212 1040.37 Q52.6095 1040.37 56.3017 1037.66 Q59.9619 1034.92 59.9619 1030.18 Q59.9619 1025.5 56.2698 1022.77 Q52.5777 1020.03 46.212 1020.03 Q39.8781 1020.03 36.186 1022.77 Q32.4621 1025.5 32.4621 1030.18 M27.4968 1030.18 Q27.4968 1022.54 32.4621 1018.18 Q37.4273 1013.82 46.212 1013.82 Q54.9649 1013.82 59.9619 1018.18 Q64.9272 1022.54 64.9272 1030.18 Q64.9272 1037.85 59.9619 1042.21 Q54.9649 1046.54 46.212 1046.54 Q37.4273 1046.54 32.4621 1042.21 Q27.4968 1037.85 27.4968 1030.18 Z" fill="#000000" fill-rule="nonzero" fill-opacity="1" /><path clip-path="url(#clip070)" d="M64.0042 1007.84 L59.1344 1007.84 Q58.2432 1002.05 54.2328 1000.26 Q48.5991 998.099 34.1808 998.099 L28.3562 998.099 L28.3562 974.005 L64.0042 974.005 L64.0042 979.861 L33.035 979.861 L33.035 992.243 L36.568 992.243 Q50.3179 992.243 56.4926 995.044 Q63.0811 998.035 64.0042 1007.84 Z" fill="#000000" fill-rule="nonzero" fill-opacity="1" /><path clip-path="url(#clip070)" d="M28.3562 932.15 L64.0042 932.15 L64.0042 937.975 L35.3903 937.975 L64.0042 955.162 L64.0042 962.674 L28.3562 962.674 L28.3562 956.849 L56.9064 956.849 L28.3562 939.694 L28.3562 932.15 Z" fill="#000000" fill-rule="nonzero" fill-opacity="1" /><path clip-path="url(#clip070)" d="M64.0042 899.494 L49.0129 899.494 L49.0129 910.411 Q49.0129 915.281 45.9892 918.528 Q43.252 921.456 37.3955 921.456 L28.3562 921.456 L28.3562 915.6 L36.8544 915.6 Q40.5784 915.6 42.4562 913.944 Q44.3341 912.258 44.3341 908.947 L44.3341 899.494 L28.3562 899.494 L28.3562 893.638 L64.0042 893.638 L64.0042 899.494 Z" fill="#000000" fill-rule="nonzero" fill-opacity="1" /><path clip-path="url(#clip070)" d="M44.7161 851.083 L47.5806 851.083 L47.5806 878.01 Q53.6281 877.628 56.8109 874.382 Q59.9619 871.103 59.9619 865.279 Q59.9619 861.905 59.1344 858.754 Q58.3069 855.571 56.6518 852.452 L62.1899 852.452 Q63.5267 855.603 64.227 858.913 Q64.9272 862.223 64.9272 865.629 Q64.9272 874.159 59.9619 879.156 Q54.9967 884.121 46.5303 884.121 Q37.7774 884.121 32.6531 879.41 Q27.4968 874.668 27.4968 866.647 Q27.4968 859.454 32.1438 855.284 Q36.7589 851.083 44.7161 851.083 M42.9973 856.94 Q38.1912 857.003 35.3266 859.645 Q32.4621 862.255 32.4621 866.584 Q32.4621 871.485 35.2312 874.445 Q38.0002 877.373 43.0292 877.819 L42.9973 856.94 Z" fill="#000000" fill-rule="nonzero" fill-opacity="1" /><path clip-path="url(#clip070)" d="M29.7248 815.817 L35.1993 815.817 Q33.8307 818.3 33.1623 820.814 Q32.4621 823.297 32.4621 825.843 Q32.4621 831.54 36.0905 834.691 Q39.6872 837.842 46.212 837.842 Q52.7369 837.842 56.3653 834.691 Q59.9619 831.54 59.9619 825.843 Q59.9619 823.297 59.2935 820.814 Q58.5933 818.3 57.2247 815.817 L62.6355 815.817 Q63.7814 818.268 64.3543 820.91 Q64.9272 823.52 64.9272 826.48 Q64.9272 834.532 59.8664 839.275 Q54.8057 844.017 46.212 844.017 Q37.491 844.017 32.4939 839.243 Q27.4968 834.437 27.4968 826.098 Q27.4968 823.392 28.0697 820.814 Q28.6108 818.236 29.7248 815.817 Z" fill="#000000" fill-rule="nonzero" fill-opacity="1" /><path clip-path="url(#clip070)" d="M28.3562 809.865 L28.3562 775.713 L33.035 775.713 L33.035 789.909 L64.0042 789.909 L64.0042 795.67 L33.035 795.67 L33.035 809.865 L28.3562 809.865 Z" fill="#000000" fill-rule="nonzero" fill-opacity="1" /><path clip-path="url(#clip070)" d="M47.5806 762.027 L59.3254 762.027 L59.3254 753.688 Q59.3254 749.677 57.8294 747.577 Q56.3017 745.476 53.4371 745.476 Q50.5725 745.476 49.0766 747.577 Q47.5806 749.677 47.5806 753.688 L47.5806 762.027 M33.035 762.027 L42.9018 762.027 L42.9018 754.324 Q42.9018 751.014 41.5969 748.913 Q40.2601 746.813 37.9048 746.813 Q35.5494 746.813 34.3081 748.913 Q33.035 751.014 33.035 754.324 L33.035 762.027 M28.3562 767.883 L28.3562 753.942 Q28.3562 747.672 30.6479 744.298 Q32.9395 740.925 37.1727 740.925 Q40.451 740.925 42.3926 742.643 Q44.3023 744.362 44.7797 747.736 Q45.5436 743.694 47.9626 741.466 Q50.3815 739.238 54.01 739.238 Q58.7843 739.238 61.3942 742.93 Q64.0042 746.59 64.0042 753.401 L64.0042 767.883 L28.3562 767.883 Z" fill="#000000" fill-rule="nonzero" fill-opacity="1" /><path clip-path="url(#clip070)" d="M32.4621 715.43 Q32.4621 720.141 36.1542 722.878 Q39.8145 725.615 46.212 725.615 Q52.6095 725.615 56.3017 722.91 Q59.9619 720.172 59.9619 715.43 Q59.9619 710.751 56.2698 708.014 Q52.5777 705.277 46.212 705.277 Q39.8781 705.277 36.186 708.014 Q32.4621 710.751 32.4621 715.43 M27.4968 715.43 Q27.4968 707.791 32.4621 703.431 Q37.4273 699.07 46.212 699.07 Q54.9649 699.07 59.9619 703.431 Q64.9272 707.791 64.9272 715.43 Q64.9272 723.101 59.9619 727.461 Q54.9649 731.79 46.212 731.79 Q37.4273 731.79 32.4621 727.461 Q27.4968 723.101 27.4968 715.43 Z" fill="#000000" fill-rule="nonzero" fill-opacity="1" /><path clip-path="url(#clip070)" d="M64.0042 672.366 L59.1344 672.366 Q58.2432 666.573 54.2328 664.791 Q48.5991 662.626 34.1808 662.626 L28.3562 662.626 L28.3562 638.532 L64.0042 638.532 L64.0042 644.389 L33.035 644.389 L33.035 656.77 L36.568 656.77 Q50.3179 656.77 56.4926 659.571 Q63.0811 662.563 64.0042 672.366 Z" fill="#000000" fill-rule="nonzero" fill-opacity="1" /><path clip-path="url(#clip070)" d="M32.4621 598.174 Q32.4621 602.884 36.1542 605.621 Q39.8145 608.359 46.212 608.359 Q52.6095 608.359 56.3017 605.653 Q59.9619 602.916 59.9619 598.174 Q59.9619 593.495 56.2698 590.758 Q52.5777 588.02 46.212 588.02 Q39.8781 588.02 36.186 590.758 Q32.4621 593.495 32.4621 598.174 M42.5836 614.342 Q36.5361 613.738 32.0165 609.791 Q27.4968 605.812 27.4968 598.174 Q27.4968 590.535 32.4621 586.174 Q37.4273 581.814 46.212 581.814 Q54.9649 581.814 59.9619 586.174 Q64.9272 590.535 64.9272 598.174 Q64.9272 605.844 60.1211 610.046 Q55.315 614.215 47.4215 614.502 L47.4215 621.122 L64.0042 621.122 L64.0042 626.978 L28.3562 626.978 L28.3562 621.122 L42.5836 621.122 L42.5836 614.342 Z" fill="#000000" fill-rule="nonzero" fill-opacity="1" /><path clip-path="url(#clip070)" d="M59.3254 564.149 L59.3254 547.152 L33.035 547.152 L33.035 559.47 L37.491 559.47 Q50.6043 559.47 57.6066 563.226 L59.3254 564.149 M59.3254 572.647 Q58.0522 569.751 55.3468 568.478 Q48.631 565.358 35.1038 565.358 L28.3562 565.358 L28.3562 541.264 L59.3254 541.264 L59.3254 536.585 L73.0116 536.585 L73.0116 541.264 L64.0042 541.264 L64.0042 570.164 L73.0116 570.164 L73.0116 574.843 L59.3254 574.843 L59.3254 572.647 Z" fill="#000000" fill-rule="nonzero" fill-opacity="1" /><path clip-path="url(#clip070)" d="M44.7161 496.545 L47.5806 496.545 L47.5806 523.472 Q53.6281 523.09 56.8109 519.844 Q59.9619 516.565 59.9619 510.741 Q59.9619 507.367 59.1344 504.216 Q58.3069 501.033 56.6518 497.914 L62.1899 497.914 Q63.5267 501.065 64.227 504.375 Q64.9272 507.685 64.9272 511.091 Q64.9272 519.621 59.9619 524.618 Q54.9967 529.583 46.5303 529.583 Q37.7774 529.583 32.6531 524.872 Q27.4968 520.13 27.4968 512.109 Q27.4968 504.916 32.1438 500.746 Q36.7589 496.545 44.7161 496.545 M42.9973 502.402 Q38.1912 502.465 35.3266 505.107 Q32.4621 507.717 32.4621 512.046 Q32.4621 516.947 35.2312 519.907 Q38.0002 522.835 43.0292 523.281 L42.9973 502.402 Z" fill="#000000" fill-rule="nonzero" fill-opacity="1" /><path clip-path="url(#clip070)" d="M28.3562 456.632 L64.0042 456.632 L64.0042 462.457 L35.3903 462.457 L64.0042 479.644 L64.0042 487.156 L28.3562 487.156 L28.3562 481.331 L56.9064 481.331 L28.3562 464.175 L28.3562 456.632 M14.479 481.84 L14.479 478.085 Q16.8661 477.734 18.0756 476.207 Q19.2532 474.647 19.2532 471.878 Q19.2532 469.141 18.0756 467.613 Q16.8979 466.085 14.479 465.671 L14.479 461.916 Q19.0304 462.234 21.3221 464.748 Q23.6137 467.263 23.6137 471.878 Q23.6137 476.493 21.3221 479.008 Q19.0304 481.522 14.479 481.84 Z" fill="#000000" fill-rule="nonzero" fill-opacity="1" /><path clip-path="url(#clip070)" d="M590.924 65.6895 L617.66 65.6895 L617.66 18.9825 L598.013 18.9825 L598.013 27.5705 Q598.013 47.7845 593.476 61.193 Q592.545 63.9476 590.924 65.6895 M578.974 65.6895 Q584.402 63.1374 585.942 58.2763 Q589.871 45.7995 589.871 23.5195 L589.871 12.096 L625.843 12.096 L625.843 65.6895 L632.73 65.6895 L632.73 85.5794 L625.843 85.5794 L625.843 72.576 L582.984 72.576 L582.984 85.5794 L576.098 85.5794 L576.098 65.6895 L578.974 65.6895 Z" fill="#000000" fill-rule="nonzero" fill-opacity="1" /><path clip-path="url(#clip070)" d="M683.204 27.2059 L683.204 72.576 L675.791 72.576 L675.791 36.1584 L653.916 72.576 L644.356 72.576 L644.356 27.2059 L651.769 27.2059 L651.769 63.5425 L673.603 27.2059 L683.204 27.2059 Z" fill="#000000" fill-rule="nonzero" fill-opacity="1" /><path clip-path="url(#clip070)" d="M698.273 27.2059 L705.767 27.2059 L705.767 45.7185 L729.951 45.7185 L729.951 27.2059 L737.445 27.2059 L737.445 72.576 L729.951 72.576 L729.951 51.6733 L705.767 51.6733 L705.767 72.576 L698.273 72.576 L698.273 27.2059 Z" fill="#000000" fill-rule="nonzero" fill-opacity="1" /><path clip-path="url(#clip070)" d="M773.417 49.7694 Q764.384 49.7694 760.9 51.8354 Q757.416 53.9013 757.416 58.8839 Q757.416 62.8538 760.009 65.2034 Q762.642 67.5124 767.139 67.5124 Q773.336 67.5124 777.063 63.1374 Q780.831 58.7219 780.831 51.4303 L780.831 49.7694 L773.417 49.7694 M788.284 46.6907 L788.284 72.576 L780.831 72.576 L780.831 65.6895 Q778.279 69.8214 774.471 71.8063 Q770.663 73.7508 765.154 73.7508 Q758.186 73.7508 754.054 69.8619 Q749.963 65.9325 749.963 59.3701 Q749.963 51.7138 755.067 47.825 Q760.211 43.9361 770.379 43.9361 L780.831 43.9361 L780.831 43.2069 Q780.831 38.0623 777.428 35.2672 Q774.066 32.4315 767.949 32.4315 Q764.06 32.4315 760.374 33.3632 Q756.687 34.295 753.284 36.1584 L753.284 29.2718 Q757.376 27.692 761.224 26.9223 Q765.073 26.1121 768.718 26.1121 Q778.562 26.1121 783.423 31.2163 Q788.284 36.3204 788.284 46.6907 Z" fill="#000000" fill-rule="nonzero" fill-opacity="1" /><path clip-path="url(#clip070)" d="M803.354 27.2059 L814.251 27.2059 L827.132 57.5877 L840.055 27.2059 L850.871 27.2059 L850.871 72.576 L843.377 72.576 L843.377 34.3355 L830.859 63.8666 L823.406 63.8666 L810.848 34.3355 L810.848 72.576 L803.354 72.576 L803.354 27.2059 Z" fill="#000000" fill-rule="nonzero" fill-opacity="1" /><path clip-path="url(#clip070)" d="M904.788 27.2059 L904.788 72.576 L897.375 72.576 L897.375 36.1584 L875.5 72.576 L865.94 72.576 L865.94 27.2059 L873.353 27.2059 L873.353 63.5425 L895.188 27.2059 L904.788 27.2059 Z" fill="#000000" fill-rule="nonzero" fill-opacity="1" /><path clip-path="url(#clip070)" d="M919.858 27.2059 L927.271 27.2059 L927.271 48.5136 L948.295 27.2059 L957.45 27.2059 L940.112 44.7463 L959.678 72.576 L951.333 72.576 L935.251 49.6884 L927.271 57.7902 L927.271 72.576 L919.858 72.576 L919.858 27.2059 Z" fill="#000000" fill-rule="nonzero" fill-opacity="1" /><path clip-path="url(#clip070)" d="M990.87 49.7694 Q981.836 49.7694 978.353 51.8354 Q974.869 53.9013 974.869 58.8839 Q974.869 62.8538 977.461 65.2034 Q980.095 67.5124 984.591 67.5124 Q990.789 67.5124 994.516 63.1374 Q998.283 58.7219 998.283 51.4303 L998.283 49.7694 L990.87 49.7694 M1005.74 46.6907 L1005.74 72.576 L998.283 72.576 L998.283 65.6895 Q995.731 69.8214 991.923 71.8063 Q988.115 73.7508 982.606 73.7508 Q975.639 73.7508 971.507 69.8619 Q967.415 65.9325 967.415 59.3701 Q967.415 51.7138 972.519 47.825 Q977.664 43.9361 987.832 43.9361 L998.283 43.9361 L998.283 43.2069 Q998.283 38.0623 994.88 35.2672 Q991.518 32.4315 985.401 32.4315 Q981.512 32.4315 977.826 33.3632 Q974.14 34.295 970.737 36.1584 L970.737 29.2718 Q974.828 27.692 978.677 26.9223 Q982.525 26.1121 986.171 26.1121 Q996.015 26.1121 1000.88 31.2163 Q1005.74 36.3204 1005.74 46.6907 Z" fill="#000000" fill-rule="nonzero" fill-opacity="1" /><path clip-path="url(#clip070)" d="M1044.22 63.9476 Q1050.62 67.4314 1056.98 67.4314 Q1062.94 67.4314 1067.19 63.9881 Q1071.44 60.5043 1072.21 51.6733 L1049.2 51.6733 L1049.2 45.7185 L1071.97 45.7185 Q1071.48 41.4651 1068.24 36.9686 Q1065.04 32.4315 1056.98 32.4315 Q1050.74 32.4315 1044.22 35.9153 L1044.22 28.9478 Q1050.58 26.1121 1057.3 26.1121 Q1067.92 26.1121 1073.99 32.5531 Q1080.11 38.9535 1080.11 49.9314 Q1080.11 60.8689 1074.16 67.3098 Q1068.24 73.7508 1057.83 73.7508 Q1050.18 73.7508 1044.22 70.8341 L1044.22 63.9476 Z" fill="#000000" fill-rule="nonzero" fill-opacity="1" /><path clip-path="url(#clip070)" d="M1131.88 27.2059 L1131.88 72.576 L1124.39 72.576 L1124.39 33.1607 L1100.2 33.1607 L1100.2 72.576 L1092.71 72.576 L1092.71 27.2059 L1131.88 27.2059 Z" fill="#000000" fill-rule="nonzero" fill-opacity="1" /><path clip-path="url(#clip070)" d="M1185.8 27.2059 L1185.8 72.576 L1178.39 72.576 L1178.39 36.1584 L1156.51 72.576 L1146.95 72.576 L1146.95 27.2059 L1154.36 27.2059 L1154.36 63.5425 L1176.2 27.2059 L1185.8 27.2059 Z" fill="#000000" fill-rule="nonzero" fill-opacity="1" /><path clip-path="url(#clip070)" d="M1211.28 66.6212 L1232.91 66.6212 L1232.91 33.1607 L1217.23 33.1607 L1217.23 38.832 Q1217.23 55.5217 1212.45 64.4337 L1211.28 66.6212 M1200.46 66.6212 Q1204.15 65.0008 1205.77 61.5575 Q1209.74 53.0101 1209.74 35.7938 L1209.74 27.2059 L1240.41 27.2059 L1240.41 66.6212 L1246.36 66.6212 L1246.36 84.0401 L1240.41 84.0401 L1240.41 72.576 L1203.62 72.576 L1203.62 84.0401 L1197.67 84.0401 L1197.67 66.6212 L1200.46 66.6212 Z" fill="#000000" fill-rule="nonzero" fill-opacity="1" /><path clip-path="url(#clip070)" d="M1297.32 48.0275 L1297.32 51.6733 L1263.05 51.6733 Q1263.54 59.3701 1267.67 63.421 Q1271.84 67.4314 1279.25 67.4314 Q1283.55 67.4314 1287.56 66.3781 Q1291.61 65.3249 1295.58 63.2184 L1295.58 70.267 Q1291.57 71.9684 1287.36 72.8596 Q1283.14 73.7508 1278.81 73.7508 Q1267.95 73.7508 1261.59 67.4314 Q1255.27 61.1119 1255.27 50.3365 Q1255.27 39.1965 1261.27 32.6746 Q1267.3 26.1121 1277.51 26.1121 Q1286.67 26.1121 1291.97 32.0264 Q1297.32 37.9003 1297.32 48.0275 M1289.87 45.84 Q1289.79 39.7232 1286.42 36.0774 Q1283.1 32.4315 1277.59 32.4315 Q1271.35 32.4315 1267.59 35.9558 Q1263.86 39.4801 1263.29 45.8805 L1289.87 45.84 Z" fill="#000000" fill-rule="nonzero" fill-opacity="1" /><path clip-path="url(#clip070)" d="M1309.27 27.2059 L1320.17 27.2059 L1333.05 57.5877 L1345.97 27.2059 L1356.79 27.2059 L1356.79 72.576 L1349.29 72.576 L1349.29 34.3355 L1336.78 63.8666 L1329.32 63.8666 L1316.77 34.3355 L1316.77 72.576 L1309.27 72.576 L1309.27 27.2059 Z" fill="#000000" fill-rule="nonzero" fill-opacity="1" /><path clip-path="url(#clip070)" d="M1410.71 27.2059 L1410.71 72.576 L1403.29 72.576 L1403.29 36.1584 L1381.42 72.576 L1371.86 72.576 L1371.86 27.2059 L1379.27 27.2059 L1379.27 63.5425 L1401.11 27.2059 L1410.71 27.2059 Z" fill="#000000" fill-rule="nonzero" fill-opacity="1" /><path clip-path="url(#clip070)" d="M1464.62 27.2059 L1464.62 72.576 L1457.21 72.576 L1457.21 36.1584 L1435.34 72.576 L1425.78 72.576 L1425.78 27.2059 L1433.19 27.2059 L1433.19 63.5425 L1455.02 27.2059 L1464.62 27.2059 Z" fill="#000000" fill-rule="nonzero" fill-opacity="1" /><path clip-path="url(#clip070)" d="M1524.25 9.62495 Q1518.82 18.942 1516.19 28.0566 Q1513.56 37.1711 1513.56 46.5287 Q1513.56 55.8863 1516.19 65.0818 Q1518.86 74.2369 1524.25 83.5134 L1517.77 83.5134 Q1511.69 73.9938 1508.66 64.7983 Q1505.66 55.6027 1505.66 46.5287 Q1505.66 37.4952 1508.66 28.3401 Q1511.65 19.1851 1517.77 9.62495 L1524.25 9.62495 Z" fill="#000000" fill-rule="nonzero" fill-opacity="1" /><path clip-path="url(#clip070)" d="M1575.29 14.0809 L1575.29 22.0612 Q1570.64 19.8332 1566.5 18.7395 Q1562.37 17.6457 1558.52 17.6457 Q1551.84 17.6457 1548.19 20.2383 Q1544.59 22.8309 1544.59 27.611 Q1544.59 31.6214 1546.98 33.6873 Q1549.41 35.7128 1556.13 36.9686 L1561.08 37.9813 Q1570.23 39.7232 1574.56 44.1387 Q1578.94 48.5136 1578.94 55.8863 Q1578.94 64.6767 1573.03 69.2137 Q1567.15 73.7508 1555.77 73.7508 Q1551.47 73.7508 1546.61 72.7785 Q1541.79 71.8063 1536.61 69.9024 L1536.61 61.4765 Q1541.59 64.2716 1546.37 65.6895 Q1551.15 67.1073 1555.77 67.1073 Q1562.78 67.1073 1566.58 64.3527 Q1570.39 61.598 1570.39 56.4939 Q1570.39 52.0379 1567.64 49.5264 Q1564.92 47.0148 1558.69 45.759 L1553.7 44.7868 Q1544.55 42.9639 1540.46 39.075 Q1536.36 35.1862 1536.36 28.2591 Q1536.36 20.2383 1542 15.6203 Q1547.67 11.0023 1557.59 11.0023 Q1561.84 11.0023 1566.26 11.7719 Q1570.68 12.5416 1575.29 14.0809 Z" fill="#000000" fill-rule="nonzero" fill-opacity="1" /><path clip-path="url(#clip070)" d="M1591.7 12.096 L1599.88 12.096 L1599.88 72.576 L1591.7 72.576 L1591.7 12.096 Z" fill="#000000" fill-rule="nonzero" fill-opacity="1" /><path clip-path="url(#clip070)" d="M1644.85 44.2197 Q1647.48 45.1109 1649.95 48.0275 Q1652.46 50.9442 1654.98 56.0483 L1663.28 72.576 L1654.49 72.576 L1646.75 57.061 Q1643.75 50.9847 1640.92 48.9997 Q1638.12 47.0148 1633.26 47.0148 L1624.35 47.0148 L1624.35 72.576 L1616.17 72.576 L1616.17 12.096 L1634.64 12.096 Q1645.01 12.096 1650.11 16.4305 Q1655.22 20.7649 1655.22 29.5149 Q1655.22 35.2267 1652.54 38.994 Q1649.91 42.7613 1644.85 44.2197 M1624.35 18.8205 L1624.35 40.2903 L1634.64 40.2903 Q1640.55 40.2903 1643.55 37.5762 Q1646.59 34.8216 1646.59 29.5149 Q1646.59 24.2082 1643.55 21.5346 Q1640.55 18.8205 1634.64 18.8205 L1624.35 18.8205 Z" fill="#000000" fill-rule="nonzero" fill-opacity="1" /><path clip-path="url(#clip070)" d="M1699.58 27.2059 L1710.47 27.2059 L1723.35 57.5877 L1736.28 27.2059 L1747.09 27.2059 L1747.09 72.576 L1739.6 72.576 L1739.6 34.3355 L1727.08 63.8666 L1719.63 63.8666 L1707.07 34.3355 L1707.07 72.576 L1699.58 72.576 L1699.58 27.2059 Z" fill="#000000" fill-rule="nonzero" fill-opacity="1" /><path clip-path="url(#clip070)" d="M1780.03 32.4315 Q1774.03 32.4315 1770.55 37.1306 Q1767.06 41.7891 1767.06 49.9314 Q1767.06 58.0738 1770.51 62.7728 Q1773.99 67.4314 1780.03 67.4314 Q1785.98 67.4314 1789.47 62.7323 Q1792.95 58.0333 1792.95 49.9314 Q1792.95 41.8701 1789.47 37.1711 Q1785.98 32.4315 1780.03 32.4315 M1780.03 26.1121 Q1789.75 26.1121 1795.3 32.4315 Q1800.85 38.7509 1800.85 49.9314 Q1800.85 61.0714 1795.3 67.4314 Q1789.75 73.7508 1780.03 73.7508 Q1770.26 73.7508 1764.71 67.4314 Q1759.2 61.0714 1759.2 49.9314 Q1759.2 38.7509 1764.71 32.4315 Q1770.26 26.1121 1780.03 26.1121 Z" fill="#000000" fill-rule="nonzero" fill-opacity="1" /><path clip-path="url(#clip070)" d="M1823.33 66.6212 L1844.96 66.6212 L1844.96 33.1607 L1829.29 33.1607 L1829.29 38.832 Q1829.29 55.5217 1824.51 64.4337 L1823.33 66.6212 M1812.51 66.6212 Q1816.2 65.0008 1817.82 61.5575 Q1821.79 53.0101 1821.79 35.7938 L1821.79 27.2059 L1852.46 27.2059 L1852.46 66.6212 L1858.41 66.6212 L1858.41 84.0401 L1852.46 84.0401 L1852.46 72.576 L1815.67 72.576 L1815.67 84.0401 L1809.72 84.0401 L1809.72 66.6212 L1812.51 66.6212 Z" fill="#000000" fill-rule="nonzero" fill-opacity="1" /><path clip-path="url(#clip070)" d="M1909.37 48.0275 L1909.37 51.6733 L1875.1 51.6733 Q1875.59 59.3701 1879.72 63.421 Q1883.89 67.4314 1891.3 67.4314 Q1895.6 67.4314 1899.61 66.3781 Q1903.66 65.3249 1907.63 63.2184 L1907.63 70.267 Q1903.62 71.9684 1899.41 72.8596 Q1895.19 73.7508 1890.86 73.7508 Q1880 73.7508 1873.64 67.4314 Q1867.32 61.1119 1867.32 50.3365 Q1867.32 39.1965 1873.32 32.6746 Q1879.35 26.1121 1889.56 26.1121 Q1898.72 26.1121 1904.02 32.0264 Q1909.37 37.9003 1909.37 48.0275 M1901.92 45.84 Q1901.84 39.7232 1898.48 36.0774 Q1895.15 32.4315 1889.64 32.4315 Q1883.41 32.4315 1879.64 35.9558 Q1875.91 39.4801 1875.34 45.8805 L1901.92 45.84 Z" fill="#000000" fill-rule="nonzero" fill-opacity="1" /><path clip-path="url(#clip070)" d="M1916.87 72.576 L1916.87 66.3781 Q1924.24 65.2439 1926.51 60.1397 Q1929.26 52.9696 1929.26 34.619 L1929.26 27.2059 L1959.93 27.2059 L1959.93 72.576 L1952.47 72.576 L1952.47 33.1607 L1936.72 33.1607 L1936.72 37.6572 Q1936.72 55.1571 1933.15 63.0159 Q1929.34 71.4012 1916.87 72.576 Z" fill="#000000" fill-rule="nonzero" fill-opacity="1" /><path clip-path="url(#clip070)" d="M2002.87 59.127 Q2002.87 55.4812 2000.19 53.5773 Q1997.56 51.6733 1992.46 51.6733 L1981.84 51.6733 L1981.84 66.6212 L1992.46 66.6212 Q1997.56 66.6212 2000.19 64.7172 Q2002.87 62.7728 2002.87 59.127 M1974.35 27.2059 L1981.84 27.2059 L1981.84 45.7185 L1992.78 45.7185 Q2001.45 45.7185 2006.11 49.0402 Q2010.81 52.3215 2010.81 59.127 Q2010.81 65.9325 2006.11 69.2543 Q2001.45 72.576 1992.78 72.576 L1974.35 72.576 L1974.35 27.2059 Z" fill="#000000" fill-rule="nonzero" fill-opacity="1" /><path clip-path="url(#clip070)" d="M2022.35 9.62495 L2028.83 9.62495 Q2034.91 19.1851 2037.91 28.3401 Q2040.95 37.4952 2040.95 46.5287 Q2040.95 55.6027 2037.91 64.7983 Q2034.91 73.9938 2028.83 83.5134 L2022.35 83.5134 Q2027.74 74.2369 2030.37 65.0818 Q2033.05 55.8863 2033.05 46.5287 Q2033.05 37.1711 2030.37 28.0566 Q2027.74 18.942 2022.35 9.62495 Z" fill="#000000" fill-rule="nonzero" fill-opacity="1" /><polyline clip-path="url(#clip071)" style="stroke:#0000ff; stroke-linecap:round; stroke-linejoin:round; stroke-width:8; stroke-opacity:1; fill:none" points="323.395,161.074 343.296,162.3 363.198,163.526 383.1,163.935 403.001,164.343 422.903,166.387 442.804,172.518 462.706,182.736 482.607,196.223 502.509,215.024 522.41,252.625 542.312,306.576 562.214,389.544 582.115,535.455 602.017,766.378 621.918,1097.84 641.82,1386.4 661.721,1386.4 681.623,1386.4 701.524,1386.4 721.426,1386.4 741.327,1386.4 761.229,1386.4 781.131,1386.4 801.032,1386.4 820.934,1386.4 840.835,1386.4 860.737,1386.4 880.638,1386.4 900.54,1386.4 920.441,1386.4 940.343,1386.4 960.245,1386.4 980.146,1386.4 1000.05,1386.4 1019.95,1386.4 1039.85,1386.4 1059.75,1386.4 1079.65,1386.4 1099.56,1386.4 1119.46,1386.4 1139.36,1386.4 1159.26,1386.4 1179.16,1386.4 1199.06,1386.4 1218.96,1386.4 1238.87,1386.4 1258.77,1386.4 1278.67,1386.4 1298.57,1386.4 1318.47,1386.4 1338.37,1386.4 1358.28,1386.4 1378.18,1386.4 1398.08,1386.4 1417.98,1386.4 1437.88,1386.4 1457.78,1386.4 1477.68,1386.4 1497.59,1386.4 1517.49,1386.4 1537.39,1386.4 1557.29,1386.4 1577.19,1386.4 1597.09,1386.4 1617,1386.4 1636.9,1386.4 1656.8,1386.4 1676.7,1386.4 1696.6,1386.4 1716.5,1386.4 1736.4,1386.4 1756.31,1386.4 1776.21,1386.4 1796.11,1386.4 1816.01,1386.4 1835.91,1386.4 1855.81,1386.4 1875.72,1386.4 1895.62,1386.4 1915.52,1386.4 1935.42,1386.4 1955.32,1386.4 1975.22,1386.4 1995.13,1386.4 2015.03,1386.4 2034.93,1386.4 2054.83,1386.4 2074.73,1386.4 2094.63,1386.4 2114.53,1386.4 2134.44,1386.4 2154.34,1386.4 2174.24,1386.4 2194.14,1386.4 2214.04,1386.4 2233.94,1386.4 2253.85,1386.4 2273.75,1386.4 2293.65,1386.4 "/>
<polyline clip-path="url(#clip071)" style="stroke:#ff0000; stroke-linecap:round; stroke-linejoin:round; stroke-width:8; stroke-opacity:1; fill:none" points="323.395,1385.58 343.296,1384.35 363.198,1383.13 383.1,1382.72 403.001,1382.31 422.903,1380.26 442.804,1374.13 462.706,1363.92 482.607,1350.43 502.509,1331.63 522.41,1294.03 542.312,1240.08 562.214,1157.52 582.115,1012.01 602.017,782.726 621.918,452.077 641.82,160.256 661.721,160.256 681.623,160.256 701.524,160.665 721.426,161.482 741.327,161.891 761.229,168.022 781.131,170.883 801.032,179.875 820.934,187.64 840.835,215.024 860.737,277.148 880.638,295.949 900.54,185.188 920.441,185.188 940.343,185.188 960.245,185.597 980.146,186.005 1000.05,188.049 1019.95,192.545 1039.85,195.406 1059.75,204.806 1079.65,210.119 1099.56,232.19 1119.46,264.887 1139.36,284.914 1159.26,209.302 1179.16,209.302 1199.06,209.711 1218.96,209.711 1238.87,209.711 1258.77,210.119 1278.67,215.841 1298.57,221.972 1318.47,228.103 1338.37,232.19 1358.28,266.93 1378.18,285.323 1398.08,315.976 1417.98,231.781 1437.88,231.781 1457.78,232.19 1477.68,233.007 1497.59,233.007 1517.49,234.233 1537.39,239.955 1557.29,246.086 1577.19,257.53 1597.09,259.982 1617,280.418 1636.9,301.262 1656.8,343.768 1676.7,257.121 1696.6,257.121 1716.5,257.121 1736.4,257.121 1756.31,257.53 1776.21,259.982 1796.11,266.113 1816.01,271.018 1835.91,278.374 1855.81,286.957 1875.72,318.02 1895.62,337.638 1915.52,366.248 1935.42,282.462 1955.32,282.87 1975.22,283.279 1995.13,283.688 2015.03,283.279 2034.93,284.505 2054.83,289.818 2074.73,296.358 2094.63,309.028 2114.53,308.619 2134.44,333.959 2154.34,361.752 2174.24,412.432 2194.14,311.889 2214.04,311.889 2233.94,311.889 2253.85,311.889 2273.75,311.889 2293.65,313.524 "/>
<polyline clip-path="url(#clip071)" style="stroke:#008000; stroke-linecap:round; stroke-linejoin:round; stroke-width:8; stroke-opacity:1; fill:none" points="323.395,1386.4 343.296,1386.4 363.198,1386.4 383.1,1386.4 403.001,1386.4 422.903,1386.4 442.804,1386.4 462.706,1386.4 482.607,1386.4 502.509,1386.4 522.41,1386.4 542.312,1386.4 562.214,1385.99 582.115,1385.58 602.017,1383.94 621.918,1383.13 641.82,1386.4 661.721,1386.4 681.623,1386.4 701.524,1386.4 721.426,1385.99 741.327,1385.58 761.229,1379.86 781.131,1377.81 801.032,1370.05 820.934,1364.33 840.835,1340.21 860.737,1285.44 880.638,1274.41 900.54,1386.4 920.441,1386.4 940.343,1386.4 960.245,1386.4 980.146,1386.4 1000.05,1384.76 1019.95,1380.26 1039.85,1378.63 1059.75,1369.64 1079.65,1365.55 1099.56,1345.12 1119.46,1317.73 1139.36,1308.33 1159.26,1386.4 1179.16,1386.4 1199.06,1386.4 1218.96,1386.4 1238.87,1386.4 1258.77,1385.99 1278.67,1380.26 1298.57,1374.95 1318.47,1369.64 1338.37,1368 1358.28,1336.94 1378.18,1325.91 1398.08,1301.79 1417.98,1386.4 1437.88,1386.4 1457.78,1386.4 1477.68,1386.4 1497.59,1386.4 1517.49,1385.58 1537.39,1380.67 1557.29,1374.95 1577.19,1364.33 1597.09,1363.51 1617,1346.75 1636.9,1330.4 1656.8,1298.52 1676.7,1386.4 1696.6,1386.4 1716.5,1386.4 1736.4,1386.4 1756.31,1385.99 1776.21,1385.17 1796.11,1379.45 1816.01,1377 1835.91,1370.86 1855.81,1365.96 1875.72,1337.35 1895.62,1324.68 1915.52,1301.38 1935.42,1386.4 1955.32,1386.4 1975.22,1386.4 1995.13,1385.99 2015.03,1386.4 2034.93,1385.58 2054.83,1381.08 2074.73,1376.18 2094.63,1365.14 2114.53,1366.78 2134.44,1347.16 2154.34,1325.5 2174.24,1284.22 2194.14,1386.4 2214.04,1386.4 2233.94,1386.4 2253.85,1386.4 2273.75,1386.4 2293.65,1385.17 "/>
<polyline clip-path="url(#clip071)" style="stroke:#000000; stroke-linecap:round; stroke-linejoin:round; stroke-width:6; stroke-opacity:1; fill:none" stroke-dasharray="24, 15" points="323.395,160.256 343.296,160.256 363.198,160.256 383.1,160.256 403.001,160.256 422.903,160.256 442.804,160.256 462.706,160.256 482.607,160.256 502.509,160.256 522.41,160.256 542.312,160.256 562.214,160.256 582.115,160.256 602.017,160.256 621.918,160.256 641.82,160.256 661.721,160.256 681.623,160.256 701.524,160.665 721.426,161.074 741.327,161.074 761.229,161.482 781.131,162.3 801.032,163.526 820.934,165.57 840.835,168.839 860.737,176.196 880.638,183.962 900.54,185.188 920.441,185.188 940.343,185.188 960.245,185.597 980.146,186.005 1000.05,186.414 1019.95,186.414 1039.85,187.64 1059.75,188.049 1079.65,189.275 1099.56,190.91 1119.46,196.223 1139.36,206.85 1159.26,209.302 1179.16,209.302 1199.06,209.711 1218.96,209.711 1238.87,209.711 1258.77,209.711 1278.67,209.711 1298.57,210.528 1318.47,211.345 1338.37,213.798 1358.28,217.476 1378.18,224.833 1398.08,231.372 1417.98,231.781 1437.88,231.781 1457.78,232.19 1477.68,233.007 1497.59,233.007 1517.49,233.416 1537.39,234.233 1557.29,234.642 1577.19,235.46 1597.09,237.094 1617,240.773 1636.9,245.269 1656.8,255.895 1676.7,257.121 1696.6,257.121 1716.5,257.121 1736.4,257.121 1756.31,257.121 1776.21,258.756 1796.11,259.165 1816.01,261.617 1835.91,262.843 1855.81,266.522 1875.72,268.974 1895.62,275.922 1915.52,281.235 1935.42,282.462 1955.32,282.87 1975.22,283.279 1995.13,283.279 2015.03,283.279 2034.93,283.688 2054.83,284.505 2074.73,286.14 2094.63,287.775 2114.53,289.001 2134.44,294.723 2154.34,300.854 2174.24,310.254 2194.14,311.889 2214.04,311.889 2233.94,311.889 2253.85,311.889 2273.75,311.889 2293.65,312.298 "/>
<path clip-path="url(#clip070)" d="M1436.54 425.996 L2283.14 425.996 L2283.14 166.796 L1436.54 166.796  Z" fill="#ffffff" fill-rule="evenodd" fill-opacity="1"/>
<polyline clip-path="url(#clip070)" style="stroke:#000000; stroke-linecap:round; stroke-linejoin:round; stroke-width:4; stroke-opacity:1; fill:none" points="1436.54,425.996 2283.14,425.996 2283.14,166.796 1436.54,166.796 1436.54,425.996 "/>
<polyline clip-path="url(#clip070)" style="stroke:#0000ff; stroke-linecap:round; stroke-linejoin:round; stroke-width:8; stroke-opacity:1; fill:none" points="1459.75,218.636 1598.98,218.636 "/>
<path clip-path="url(#clip070)" d="M1626.86 219.411 L1626.86 232.073 L1634.36 232.073 Q1638.13 232.073 1639.94 230.522 Q1641.77 228.948 1641.77 225.731 Q1641.77 222.49 1639.94 220.962 Q1638.13 219.411 1634.36 219.411 L1626.86 219.411 M1626.86 205.198 L1626.86 215.615 L1633.78 215.615 Q1637.21 215.615 1638.87 214.342 Q1640.56 213.045 1640.56 210.407 Q1640.56 207.791 1638.87 206.495 Q1637.21 205.198 1633.78 205.198 L1626.86 205.198 M1622.18 201.356 L1634.13 201.356 Q1639.48 201.356 1642.37 203.578 Q1645.26 205.8 1645.26 209.897 Q1645.26 213.069 1643.78 214.944 Q1642.3 216.819 1639.43 217.282 Q1642.88 218.022 1644.78 220.383 Q1646.7 222.721 1646.7 226.24 Q1646.7 230.869 1643.55 233.393 Q1640.4 235.916 1634.59 235.916 L1622.18 235.916 L1622.18 201.356 Z" fill="#000000" fill-rule="nonzero" fill-opacity="1" /><path clip-path="url(#clip070)" d="M1664.57 212.976 Q1661.14 212.976 1659.15 215.661 Q1657.16 218.323 1657.16 222.976 Q1657.16 227.629 1659.13 230.314 Q1661.12 232.976 1664.57 232.976 Q1667.97 232.976 1669.96 230.291 Q1671.95 227.606 1671.95 222.976 Q1671.95 218.37 1669.96 215.684 Q1667.97 212.976 1664.57 212.976 M1664.57 209.365 Q1670.12 209.365 1673.29 212.976 Q1676.47 216.587 1676.47 222.976 Q1676.47 229.342 1673.29 232.976 Q1670.12 236.587 1664.57 236.587 Q1658.99 236.587 1655.82 232.976 Q1652.67 229.342 1652.67 222.976 Q1652.67 216.587 1655.82 212.976 Q1658.99 209.365 1664.57 209.365 Z" fill="#000000" fill-rule="nonzero" fill-opacity="1" /><path clip-path="url(#clip070)" d="M1702.18 210.985 L1702.18 214.967 Q1700.38 213.971 1698.55 213.485 Q1696.74 212.976 1694.89 212.976 Q1690.75 212.976 1688.46 215.615 Q1686.17 218.231 1686.17 222.976 Q1686.17 227.721 1688.46 230.36 Q1690.75 232.976 1694.89 232.976 Q1696.74 232.976 1698.55 232.49 Q1700.38 231.981 1702.18 230.985 L1702.18 234.92 Q1700.4 235.754 1698.48 236.17 Q1696.58 236.587 1694.43 236.587 Q1688.57 236.587 1685.12 232.906 Q1681.67 229.226 1681.67 222.976 Q1681.67 216.633 1685.15 212.999 Q1688.64 209.365 1694.71 209.365 Q1696.67 209.365 1698.55 209.782 Q1700.42 210.175 1702.18 210.985 Z" fill="#000000" fill-rule="nonzero" fill-opacity="1" /><path clip-path="url(#clip070)" d="M1731.81 209.99 L1731.81 235.916 L1727.53 235.916 L1727.53 213.393 L1713.71 213.393 L1713.71 235.916 L1709.43 235.916 L1709.43 209.99 L1731.81 209.99 Z" fill="#000000" fill-rule="nonzero" fill-opacity="1" /><path clip-path="url(#clip070)" d="M1744.71 232.027 L1744.71 245.777 L1740.42 245.777 L1740.42 209.99 L1744.71 209.99 L1744.71 213.925 Q1746.05 211.61 1748.09 210.499 Q1750.15 209.365 1752.99 209.365 Q1757.72 209.365 1760.66 213.115 Q1763.62 216.865 1763.62 222.976 Q1763.62 229.087 1760.66 232.837 Q1757.72 236.587 1752.99 236.587 Q1750.15 236.587 1748.09 235.476 Q1746.05 234.342 1744.71 232.027 M1759.2 222.976 Q1759.2 218.277 1757.25 215.615 Q1755.33 212.93 1751.95 212.93 Q1748.57 212.93 1746.63 215.615 Q1744.71 218.277 1744.71 222.976 Q1744.71 227.675 1746.63 230.36 Q1748.57 233.022 1751.95 233.022 Q1755.33 233.022 1757.25 230.36 Q1759.2 227.675 1759.2 222.976 Z" fill="#000000" fill-rule="nonzero" fill-opacity="1" /><path clip-path="url(#clip070)" d="M1792.72 209.99 L1792.72 235.916 L1788.48 235.916 L1788.48 215.106 L1775.98 235.916 L1770.52 235.916 L1770.52 209.99 L1774.75 209.99 L1774.75 230.754 L1787.23 209.99 L1792.72 209.99 Z" fill="#000000" fill-rule="nonzero" fill-opacity="1" /><path clip-path="url(#clip070)" d="M1823.53 209.99 L1823.53 235.916 L1819.29 235.916 L1819.29 215.106 L1806.79 235.916 L1801.33 235.916 L1801.33 209.99 L1805.56 209.99 L1805.56 230.754 L1818.04 209.99 L1823.53 209.99 Z" fill="#000000" fill-rule="nonzero" fill-opacity="1" /><path clip-path="url(#clip070)" d="M1832.14 209.99 L1838.36 209.99 L1845.72 227.351 L1853.11 209.99 L1859.29 209.99 L1859.29 235.916 L1855.01 235.916 L1855.01 214.064 L1847.85 230.939 L1843.59 230.939 L1836.42 214.064 L1836.42 235.916 L1832.14 235.916 L1832.14 209.99 Z" fill="#000000" fill-rule="nonzero" fill-opacity="1" /><path clip-path="url(#clip070)" d="M1883.04 235.916 L1883.04 225.013 L1875.1 225.013 Q1871.56 225.013 1869.2 222.814 Q1867.07 220.823 1867.07 216.564 L1867.07 209.99 L1871.33 209.99 L1871.33 216.17 Q1871.33 218.879 1872.53 220.245 Q1873.76 221.61 1876.16 221.61 L1883.04 221.61 L1883.04 209.99 L1887.3 209.99 L1887.3 235.916 L1883.04 235.916 Z" fill="#000000" fill-rule="nonzero" fill-opacity="1" /><path clip-path="url(#clip070)" d="M1918.11 209.99 L1918.11 235.916 L1913.87 235.916 L1913.87 215.106 L1901.37 235.916 L1895.91 235.916 L1895.91 209.99 L1900.15 209.99 L1900.15 230.754 L1912.62 209.99 L1918.11 209.99 Z" fill="#000000" fill-rule="nonzero" fill-opacity="1" /><path clip-path="url(#clip070)" d="M1930.98 223.971 L1930.98 232.513 L1937.04 232.513 Q1939.96 232.513 1941.49 231.425 Q1943.02 230.314 1943.02 228.231 Q1943.02 226.147 1941.49 225.059 Q1939.96 223.971 1937.04 223.971 L1930.98 223.971 M1930.98 213.393 L1930.98 220.569 L1936.58 220.569 Q1938.99 220.569 1940.52 219.62 Q1942.04 218.647 1942.04 216.934 Q1942.04 215.221 1940.52 214.319 Q1938.99 213.393 1936.58 213.393 L1930.98 213.393 M1926.72 209.99 L1936.86 209.99 Q1941.42 209.99 1943.87 211.657 Q1946.33 213.323 1946.33 216.402 Q1946.33 218.786 1945.08 220.198 Q1943.83 221.587 1941.37 221.934 Q1944.31 222.49 1945.93 224.249 Q1947.55 226.008 1947.55 228.647 Q1947.55 232.119 1944.87 234.018 Q1942.21 235.916 1937.25 235.916 L1926.72 235.916 L1926.72 209.99 Z" fill="#000000" fill-rule="nonzero" fill-opacity="1" /><path clip-path="url(#clip070)" d="M1979.31 209.99 L1983.57 209.99 L1983.57 235.916 L1979.31 235.916 L1979.31 209.99 M1981.44 209.365 L1981.44 209.365 M1970.96 228.231 Q1970.96 226.147 1969.43 225.059 Q1967.92 223.971 1965.01 223.971 L1958.94 223.971 L1958.94 232.513 L1965.01 232.513 Q1967.92 232.513 1969.43 231.425 Q1970.96 230.314 1970.96 228.231 M1954.66 209.99 L1958.94 209.99 L1958.94 220.569 L1965.19 220.569 Q1970.14 220.569 1972.81 222.467 Q1975.49 224.342 1975.49 228.231 Q1975.49 232.119 1972.81 234.018 Q1970.14 235.916 1965.19 235.916 L1954.66 235.916 L1954.66 209.99 Z" fill="#000000" fill-rule="nonzero" fill-opacity="1" /><path clip-path="url(#clip070)" d="M2014.43 221.888 L2014.43 223.971 L1994.84 223.971 Q1995.12 228.369 1997.48 230.684 Q1999.87 232.976 2004.1 232.976 Q2006.56 232.976 2008.85 232.374 Q2011.16 231.772 2013.43 230.569 L2013.43 234.596 Q2011.14 235.568 2008.73 236.078 Q2006.33 236.587 2003.85 236.587 Q1997.64 236.587 1994.01 232.976 Q1990.4 229.365 1990.4 223.207 Q1990.4 216.842 1993.83 213.115 Q1997.27 209.365 2003.11 209.365 Q2008.34 209.365 2011.37 212.745 Q2014.43 216.101 2014.43 221.888 M2010.17 220.638 Q2010.12 217.143 2008.2 215.059 Q2006.3 212.976 2003.15 212.976 Q1999.59 212.976 1997.44 214.99 Q1995.31 217.004 1994.98 220.661 L2010.17 220.638 Z" fill="#000000" fill-rule="nonzero" fill-opacity="1" /><path clip-path="url(#clip070)" d="M2046.72 199.944 Q2043.62 205.268 2042.11 210.476 Q2040.61 215.684 2040.61 221.032 Q2040.61 226.379 2042.11 231.633 Q2043.64 236.865 2046.72 242.166 L2043.01 242.166 Q2039.54 236.726 2037.81 231.471 Q2036.09 226.217 2036.09 221.032 Q2036.09 215.87 2037.81 210.638 Q2039.52 205.407 2043.01 199.944 L2046.72 199.944 Z" fill="#000000" fill-rule="nonzero" fill-opacity="1" /><path clip-path="url(#clip070)" d="M2075.89 202.49 L2075.89 207.05 Q2073.22 205.777 2070.86 205.152 Q2068.5 204.527 2066.3 204.527 Q2062.48 204.527 2060.4 206.008 Q2058.34 207.49 2058.34 210.221 Q2058.34 212.513 2059.7 213.694 Q2061.09 214.851 2064.94 215.569 L2067.76 216.147 Q2072.99 217.143 2075.47 219.666 Q2077.97 222.166 2077.97 226.379 Q2077.97 231.402 2074.59 233.994 Q2071.23 236.587 2064.73 236.587 Q2062.27 236.587 2059.5 236.031 Q2056.74 235.476 2053.78 234.388 L2053.78 229.573 Q2056.63 231.17 2059.36 231.981 Q2062.09 232.791 2064.73 232.791 Q2068.73 232.791 2070.91 231.217 Q2073.08 229.643 2073.08 226.726 Q2073.08 224.18 2071.51 222.744 Q2069.96 221.309 2066.39 220.592 L2063.55 220.036 Q2058.32 218.995 2055.98 216.772 Q2053.64 214.55 2053.64 210.592 Q2053.64 206.008 2056.86 203.37 Q2060.1 200.731 2065.77 200.731 Q2068.2 200.731 2070.72 201.171 Q2073.25 201.61 2075.89 202.49 Z" fill="#000000" fill-rule="nonzero" fill-opacity="1" /><path clip-path="url(#clip070)" d="M2084.4 199.944 L2088.11 199.944 Q2091.58 205.407 2093.29 210.638 Q2095.03 215.87 2095.03 221.032 Q2095.03 226.217 2093.29 231.471 Q2091.58 236.726 2088.11 242.166 L2084.4 242.166 Q2087.48 236.865 2088.99 231.633 Q2090.51 226.379 2090.51 221.032 Q2090.51 215.684 2088.99 210.476 Q2087.48 205.268 2084.4 199.944 Z" fill="#000000" fill-rule="nonzero" fill-opacity="1" /><polyline clip-path="url(#clip070)" style="stroke:#ff0000; stroke-linecap:round; stroke-linejoin:round; stroke-width:8; stroke-opacity:1; fill:none" points="1459.75,270.476 1598.98,270.476 "/>
<path clip-path="url(#clip070)" d="M1648.34 253.196 L1648.34 287.756 L1643.8 287.756 L1643.8 258.844 L1628.48 287.756 L1622.18 287.756 L1622.18 253.196 L1626.72 253.196 L1626.72 282.108 L1642.04 253.196 L1648.34 253.196 Z" fill="#000000" fill-rule="nonzero" fill-opacity="1" /><path clip-path="url(#clip070)" d="M1657.3 261.83 L1661.58 261.83 L1661.58 272.409 L1675.4 272.409 L1675.4 261.83 L1679.68 261.83 L1679.68 287.756 L1675.4 287.756 L1675.4 275.811 L1661.58 275.811 L1661.58 287.756 L1657.3 287.756 L1657.3 261.83 Z" fill="#000000" fill-rule="nonzero" fill-opacity="1" /><path clip-path="url(#clip070)" d="M1691 274.816 Q1691 280.256 1692.67 282.571 Q1694.36 284.862 1697.21 284.862 Q1699.48 284.862 1702.11 280.973 L1702.11 268.659 Q1699.48 264.77 1697.21 264.77 Q1694.36 264.77 1692.67 267.085 Q1691 269.376 1691 274.816 M1702.11 297.617 L1702.11 284.446 Q1700.79 286.621 1699.27 287.524 Q1697.76 288.427 1695.84 288.427 Q1691.98 288.427 1689.27 284.862 Q1686.58 281.274 1686.58 274.909 Q1686.58 268.543 1689.27 264.885 Q1691.98 261.205 1695.84 261.205 Q1697.76 261.205 1699.27 262.085 Q1700.79 262.964 1702.11 265.14 L1702.11 253.196 L1706.4 253.196 L1706.4 265.14 Q1707.72 262.964 1709.22 262.085 Q1710.75 261.205 1712.67 261.205 Q1716.54 261.205 1719.22 264.885 Q1721.93 268.543 1721.93 274.909 Q1721.93 281.274 1719.22 284.862 Q1716.54 288.427 1712.67 288.427 Q1710.75 288.427 1709.22 287.524 Q1707.72 286.621 1706.4 284.446 L1706.4 297.617 L1702.11 297.617 M1717.51 274.816 Q1717.51 269.376 1715.82 267.085 Q1714.15 264.77 1711.3 264.77 Q1709.04 264.77 1706.4 268.659 L1706.4 280.973 Q1709.04 284.862 1711.3 284.862 Q1714.15 284.862 1715.82 282.571 Q1717.51 280.256 1717.51 274.816 Z" fill="#000000" fill-rule="nonzero" fill-opacity="1" /><path clip-path="url(#clip070)" d="M1751.03 261.83 L1751.03 287.756 L1746.79 287.756 L1746.79 266.946 L1734.29 287.756 L1728.83 287.756 L1728.83 261.83 L1733.06 261.83 L1733.06 282.594 L1745.54 261.83 L1751.03 261.83 Z" fill="#000000" fill-rule="nonzero" fill-opacity="1" /><path clip-path="url(#clip070)" d="M1782.02 287.756 L1759.64 287.756 L1759.64 261.83 L1763.92 261.83 L1763.92 284.353 L1777.74 284.353 L1777.74 261.83 L1782.02 261.83 L1782.02 284.353 L1785.42 284.353 L1785.42 294.307 L1782.02 294.307 L1782.02 287.756 Z" fill="#000000" fill-rule="nonzero" fill-opacity="1" /><path clip-path="url(#clip070)" d="M1814.1 261.83 L1814.1 287.756 L1809.87 287.756 L1809.87 266.946 L1797.37 287.756 L1791.91 287.756 L1791.91 261.83 L1796.14 261.83 L1796.14 282.594 L1808.62 261.83 L1814.1 261.83 Z" fill="#000000" fill-rule="nonzero" fill-opacity="1" /><path clip-path="url(#clip070)" d="M1827 283.867 L1827 297.617 L1822.72 297.617 L1822.72 261.83 L1827 261.83 L1827 265.765 Q1828.34 263.45 1830.38 262.339 Q1832.44 261.205 1835.28 261.205 Q1840.01 261.205 1842.95 264.955 Q1845.91 268.705 1845.91 274.816 Q1845.91 280.927 1842.95 284.677 Q1840.01 288.427 1835.28 288.427 Q1832.44 288.427 1830.38 287.316 Q1828.34 286.182 1827 283.867 M1841.49 274.816 Q1841.49 270.117 1839.54 267.455 Q1837.62 264.77 1834.24 264.77 Q1830.86 264.77 1828.92 267.455 Q1827 270.117 1827 274.816 Q1827 279.515 1828.92 282.2 Q1830.86 284.862 1834.24 284.862 Q1837.62 284.862 1839.54 282.2 Q1841.49 279.515 1841.49 274.816 Z" fill="#000000" fill-rule="nonzero" fill-opacity="1" /><path clip-path="url(#clip070)" d="M1863.02 264.816 Q1859.59 264.816 1857.6 267.501 Q1855.61 270.163 1855.61 274.816 Q1855.61 279.469 1857.58 282.154 Q1859.57 284.816 1863.02 284.816 Q1866.42 284.816 1868.41 282.131 Q1870.4 279.446 1870.4 274.816 Q1870.4 270.21 1868.41 267.524 Q1866.42 264.816 1863.02 264.816 M1863.02 261.205 Q1868.57 261.205 1871.74 264.816 Q1874.91 268.427 1874.91 274.816 Q1874.91 281.182 1871.74 284.816 Q1868.57 288.427 1863.02 288.427 Q1857.44 288.427 1854.27 284.816 Q1851.12 281.182 1851.12 274.816 Q1851.12 268.427 1854.27 264.816 Q1857.44 261.205 1863.02 261.205 Z" fill="#000000" fill-rule="nonzero" fill-opacity="1" /><path clip-path="url(#clip070)" d="M1886.07 275.811 L1886.07 284.353 L1892.14 284.353 Q1895.05 284.353 1896.58 283.265 Q1898.11 282.154 1898.11 280.071 Q1898.11 277.987 1896.58 276.899 Q1895.05 275.811 1892.14 275.811 L1886.07 275.811 M1886.07 265.233 L1886.07 272.409 L1891.67 272.409 Q1894.08 272.409 1895.61 271.46 Q1897.14 270.487 1897.14 268.774 Q1897.14 267.061 1895.61 266.159 Q1894.08 265.233 1891.67 265.233 L1886.07 265.233 M1881.81 261.83 L1891.95 261.83 Q1896.51 261.83 1898.96 263.497 Q1901.42 265.163 1901.42 268.242 Q1901.42 270.626 1900.17 272.038 Q1898.92 273.427 1896.46 273.774 Q1899.4 274.33 1901.02 276.089 Q1902.65 277.848 1902.65 280.487 Q1902.65 283.959 1899.96 285.858 Q1897.3 287.756 1892.34 287.756 L1881.81 287.756 L1881.81 261.83 Z" fill="#000000" fill-rule="nonzero" fill-opacity="1" /><path clip-path="url(#clip070)" d="M1921.7 274.723 Q1916.53 274.723 1914.54 275.904 Q1912.55 277.084 1912.55 279.932 Q1912.55 282.2 1914.03 283.543 Q1915.54 284.862 1918.11 284.862 Q1921.65 284.862 1923.78 282.362 Q1925.93 279.839 1925.93 275.672 L1925.93 274.723 L1921.7 274.723 M1930.19 272.964 L1930.19 287.756 L1925.93 287.756 L1925.93 283.821 Q1924.47 286.182 1922.3 287.316 Q1920.12 288.427 1916.97 288.427 Q1912.99 288.427 1910.63 286.205 Q1908.29 283.959 1908.29 280.209 Q1908.29 275.834 1911.21 273.612 Q1914.15 271.39 1919.96 271.39 L1925.93 271.39 L1925.93 270.973 Q1925.93 268.034 1923.99 266.436 Q1922.07 264.816 1918.57 264.816 Q1916.35 264.816 1914.24 265.348 Q1912.14 265.881 1910.19 266.946 L1910.19 263.01 Q1912.53 262.108 1914.73 261.668 Q1916.93 261.205 1919.01 261.205 Q1924.64 261.205 1927.41 264.122 Q1930.19 267.038 1930.19 272.964 Z" fill="#000000" fill-rule="nonzero" fill-opacity="1" /><path clip-path="url(#clip070)" d="M1938.8 261.83 L1943.08 261.83 L1943.08 272.409 L1956.9 272.409 L1956.9 261.83 L1961.19 261.83 L1961.19 287.756 L1956.9 287.756 L1956.9 275.811 L1943.08 275.811 L1943.08 287.756 L1938.8 287.756 L1938.8 261.83 Z" fill="#000000" fill-rule="nonzero" fill-opacity="1" /><path clip-path="url(#clip070)" d="M1969.8 261.83 L1974.08 261.83 L1974.08 272.409 L1987.9 272.409 L1987.9 261.83 L1992.18 261.83 L1992.18 287.756 L1987.9 287.756 L1987.9 275.811 L1974.08 275.811 L1974.08 287.756 L1969.8 287.756 L1969.8 261.83 Z" fill="#000000" fill-rule="nonzero" fill-opacity="1" /><path clip-path="url(#clip070)" d="M2025.45 261.83 L2029.7 261.83 L2029.7 287.756 L2025.45 287.756 L2025.45 261.83 M2027.58 261.205 L2027.58 261.205 M2017.09 280.071 Q2017.09 277.987 2015.56 276.899 Q2014.06 275.811 2011.14 275.811 L2005.08 275.811 L2005.08 284.353 L2011.14 284.353 Q2014.06 284.353 2015.56 283.265 Q2017.09 282.154 2017.09 280.071 M2000.79 261.83 L2005.08 261.83 L2005.08 272.409 L2011.33 272.409 Q2016.28 272.409 2018.94 274.307 Q2021.63 276.182 2021.63 280.071 Q2021.63 283.959 2018.94 285.858 Q2016.28 287.756 2011.33 287.756 L2000.79 287.756 L2000.79 261.83 Z" fill="#000000" fill-rule="nonzero" fill-opacity="1" /><path clip-path="url(#clip070)" d="M2060.56 273.728 L2060.56 275.811 L2040.98 275.811 Q2041.26 280.209 2043.62 282.524 Q2046 284.816 2050.24 284.816 Q2052.69 284.816 2054.98 284.214 Q2057.3 283.612 2059.57 282.409 L2059.57 286.436 Q2057.27 287.408 2054.87 287.918 Q2052.46 288.427 2049.98 288.427 Q2043.78 288.427 2040.14 284.816 Q2036.53 281.205 2036.53 275.047 Q2036.53 268.682 2039.96 264.955 Q2043.41 261.205 2049.24 261.205 Q2054.47 261.205 2057.51 264.585 Q2060.56 267.941 2060.56 273.728 M2056.3 272.478 Q2056.26 268.983 2054.33 266.899 Q2052.44 264.816 2049.29 264.816 Q2045.72 264.816 2043.57 266.83 Q2041.44 268.844 2041.12 272.501 L2056.3 272.478 Z" fill="#000000" fill-rule="nonzero" fill-opacity="1" /><path clip-path="url(#clip070)" d="M2092.85 251.784 Q2089.75 257.108 2088.25 262.316 Q2086.74 267.524 2086.74 272.872 Q2086.74 278.219 2088.25 283.473 Q2089.77 288.705 2092.85 294.006 L2089.15 294.006 Q2085.68 288.566 2083.94 283.311 Q2082.23 278.057 2082.23 272.872 Q2082.23 267.71 2083.94 262.478 Q2085.65 257.247 2089.15 251.784 L2092.85 251.784 Z" fill="#000000" fill-rule="nonzero" fill-opacity="1" /><path clip-path="url(#clip070)" d="M2101.3 253.196 L2105.98 253.196 L2105.98 287.756 L2101.3 287.756 L2101.3 253.196 Z" fill="#000000" fill-rule="nonzero" fill-opacity="1" /><path clip-path="url(#clip070)" d="M2114.43 251.784 L2118.13 251.784 Q2121.6 257.247 2123.32 262.478 Q2125.05 267.71 2125.05 272.872 Q2125.05 278.057 2123.32 283.311 Q2121.6 288.566 2118.13 294.006 L2114.43 294.006 Q2117.51 288.705 2119.01 283.473 Q2120.54 278.219 2120.54 272.872 Q2120.54 267.524 2119.01 262.316 Q2117.51 257.108 2114.43 251.784 Z" fill="#000000" fill-rule="nonzero" fill-opacity="1" /><polyline clip-path="url(#clip070)" style="stroke:#008000; stroke-linecap:round; stroke-linejoin:round; stroke-width:8; stroke-opacity:1; fill:none" points="1459.75,322.316 1598.98,322.316 "/>
<path clip-path="url(#clip070)" d="M1626.86 323.091 L1626.86 335.753 L1634.36 335.753 Q1638.13 335.753 1639.94 334.202 Q1641.77 332.628 1641.77 329.411 Q1641.77 326.17 1639.94 324.642 Q1638.13 323.091 1634.36 323.091 L1626.86 323.091 M1626.86 308.878 L1626.86 319.295 L1633.78 319.295 Q1637.21 319.295 1638.87 318.022 Q1640.56 316.725 1640.56 314.087 Q1640.56 311.471 1638.87 310.175 Q1637.21 308.878 1633.78 308.878 L1626.86 308.878 M1622.18 305.036 L1634.13 305.036 Q1639.48 305.036 1642.37 307.258 Q1645.26 309.48 1645.26 313.577 Q1645.26 316.749 1643.78 318.624 Q1642.3 320.499 1639.43 320.962 Q1642.88 321.702 1644.78 324.063 Q1646.7 326.401 1646.7 329.92 Q1646.7 334.549 1643.55 337.073 Q1640.4 339.596 1634.59 339.596 L1622.18 339.596 L1622.18 305.036 Z" fill="#000000" fill-rule="nonzero" fill-opacity="1" /><path clip-path="url(#clip070)" d="M1679.01 313.67 L1683.27 313.67 L1683.27 339.596 L1679.01 339.596 L1679.01 313.67 M1681.14 313.045 L1681.14 313.045 M1670.66 331.911 Q1670.66 329.827 1669.13 328.739 Q1667.62 327.651 1664.71 327.651 L1658.64 327.651 L1658.64 336.193 L1664.71 336.193 Q1667.62 336.193 1669.13 335.105 Q1670.66 333.994 1670.66 331.911 M1654.36 313.67 L1658.64 313.67 L1658.64 324.249 L1664.89 324.249 Q1669.85 324.249 1672.51 326.147 Q1675.19 328.022 1675.19 331.911 Q1675.19 335.799 1672.51 337.698 Q1669.85 339.596 1664.89 339.596 L1654.36 339.596 L1654.36 313.67 Z" fill="#000000" fill-rule="nonzero" fill-opacity="1" /><path clip-path="url(#clip070)" d="M1703.83 325.614 Q1706.7 326.17 1708.29 327.86 Q1709.89 329.549 1709.89 332.049 Q1709.89 336.054 1706.91 338.161 Q1703.92 340.267 1698.41 340.267 Q1696.56 340.267 1694.59 339.943 Q1692.65 339.619 1690.56 338.971 L1690.56 335.012 Q1692.21 335.869 1694.17 336.309 Q1696.14 336.725 1698.29 336.725 Q1701.79 336.725 1703.73 335.429 Q1705.7 334.133 1705.7 332.049 Q1705.7 330.012 1703.97 328.786 Q1702.23 327.536 1699.06 327.536 L1695.63 327.536 L1695.63 324.017 L1699.22 324.017 Q1701.91 324.017 1703.46 322.999 Q1705.03 321.957 1705.03 320.337 Q1705.03 318.855 1703.41 317.79 Q1701.81 316.725 1699.06 316.725 Q1697.41 316.725 1695.54 317.026 Q1693.69 317.327 1691.44 317.999 L1691.44 314.133 Q1693.71 313.577 1695.68 313.3 Q1697.65 313.022 1699.41 313.022 Q1703.94 313.022 1706.56 314.85 Q1709.2 316.656 1709.2 319.92 Q1709.2 322.073 1707.81 323.577 Q1706.42 325.059 1703.83 325.614 Z" fill="#000000" fill-rule="nonzero" fill-opacity="1" /><path clip-path="url(#clip070)" d="M1722.95 336.193 L1735.31 336.193 L1735.31 317.073 L1726.35 317.073 L1726.35 320.313 Q1726.35 329.85 1723.62 334.943 L1722.95 336.193 M1716.77 336.193 Q1718.87 335.267 1719.8 333.299 Q1722.07 328.415 1722.07 318.577 L1722.07 313.67 L1739.59 313.67 L1739.59 336.193 L1742.99 336.193 L1742.99 346.147 L1739.59 346.147 L1739.59 339.596 L1718.57 339.596 L1718.57 346.147 L1715.17 346.147 L1715.17 336.193 L1716.77 336.193 Z" fill="#000000" fill-rule="nonzero" fill-opacity="1" /><path clip-path="url(#clip070)" d="M1759.98 316.656 Q1756.56 316.656 1754.57 319.341 Q1752.58 322.003 1752.58 326.656 Q1752.58 331.309 1754.54 333.994 Q1756.53 336.656 1759.98 336.656 Q1763.39 336.656 1765.38 333.971 Q1767.37 331.286 1767.37 326.656 Q1767.37 322.05 1765.38 319.364 Q1763.39 316.656 1759.98 316.656 M1759.98 313.045 Q1765.54 313.045 1768.71 316.656 Q1771.88 320.267 1771.88 326.656 Q1771.88 333.022 1768.71 336.656 Q1765.54 340.267 1759.98 340.267 Q1754.41 340.267 1751.23 336.656 Q1748.09 333.022 1748.09 326.656 Q1748.09 320.267 1751.23 316.656 Q1754.41 313.045 1759.98 313.045 Z" fill="#000000" fill-rule="nonzero" fill-opacity="1" /><path clip-path="url(#clip070)" d="M1783.06 335.707 L1783.06 349.457 L1778.78 349.457 L1778.78 313.67 L1783.06 313.67 L1783.06 317.605 Q1784.41 315.29 1786.44 314.179 Q1788.5 313.045 1791.35 313.045 Q1796.07 313.045 1799.01 316.795 Q1801.97 320.545 1801.97 326.656 Q1801.97 332.767 1799.01 336.517 Q1796.07 340.267 1791.35 340.267 Q1788.5 340.267 1786.44 339.156 Q1784.41 338.022 1783.06 335.707 M1797.55 326.656 Q1797.55 321.957 1795.61 319.295 Q1793.69 316.61 1790.31 316.61 Q1786.93 316.61 1784.98 319.295 Q1783.06 321.957 1783.06 326.656 Q1783.06 331.355 1784.98 334.04 Q1786.93 336.702 1790.31 336.702 Q1793.69 336.702 1795.61 334.04 Q1797.55 331.355 1797.55 326.656 Z" fill="#000000" fill-rule="nonzero" fill-opacity="1" /><path clip-path="url(#clip070)" d="M1819.08 316.656 Q1815.66 316.656 1813.66 319.341 Q1811.67 322.003 1811.67 326.656 Q1811.67 331.309 1813.64 333.994 Q1815.63 336.656 1819.08 336.656 Q1822.48 336.656 1824.47 333.971 Q1826.47 331.286 1826.47 326.656 Q1826.47 322.05 1824.47 319.364 Q1822.48 316.656 1819.08 316.656 M1819.08 313.045 Q1824.64 313.045 1827.81 316.656 Q1830.98 320.267 1830.98 326.656 Q1830.98 333.022 1827.81 336.656 Q1824.64 340.267 1819.08 340.267 Q1813.5 340.267 1810.33 336.656 Q1807.18 333.022 1807.18 326.656 Q1807.18 320.267 1810.33 316.656 Q1813.5 313.045 1819.08 313.045 Z" fill="#000000" fill-rule="nonzero" fill-opacity="1" /><path clip-path="url(#clip070)" d="M1842.14 327.651 L1842.14 336.193 L1848.2 336.193 Q1851.12 336.193 1852.65 335.105 Q1854.17 333.994 1854.17 331.911 Q1854.17 329.827 1852.65 328.739 Q1851.12 327.651 1848.2 327.651 L1842.14 327.651 M1842.14 317.073 L1842.14 324.249 L1847.74 324.249 Q1850.15 324.249 1851.67 323.3 Q1853.2 322.327 1853.2 320.614 Q1853.2 318.901 1851.67 317.999 Q1850.15 317.073 1847.74 317.073 L1842.14 317.073 M1837.88 313.67 L1848.02 313.67 Q1852.58 313.67 1855.03 315.337 Q1857.48 317.003 1857.48 320.082 Q1857.48 322.466 1856.23 323.878 Q1854.98 325.267 1852.53 325.614 Q1855.47 326.17 1857.09 327.929 Q1858.71 329.688 1858.71 332.327 Q1858.71 335.799 1856.03 337.698 Q1853.36 339.596 1848.41 339.596 L1837.88 339.596 L1837.88 313.67 Z" fill="#000000" fill-rule="nonzero" fill-opacity="1" /><path clip-path="url(#clip070)" d="M1888.15 325.568 L1888.15 327.651 L1868.57 327.651 Q1868.85 332.049 1871.21 334.364 Q1873.59 336.656 1877.83 336.656 Q1880.28 336.656 1882.58 336.054 Q1884.89 335.452 1887.16 334.249 L1887.16 338.276 Q1884.87 339.248 1882.46 339.758 Q1880.05 340.267 1877.58 340.267 Q1871.37 340.267 1867.74 336.656 Q1864.13 333.045 1864.13 326.887 Q1864.13 320.522 1867.55 316.795 Q1871 313.045 1876.84 313.045 Q1882.07 313.045 1885.1 316.425 Q1888.15 319.781 1888.15 325.568 M1883.9 324.318 Q1883.85 320.823 1881.93 318.739 Q1880.03 316.656 1876.88 316.656 Q1873.32 316.656 1871.16 318.67 Q1869.03 320.684 1868.71 324.341 L1883.9 324.318 Z" fill="#000000" fill-rule="nonzero" fill-opacity="1" /><path clip-path="url(#clip070)" d="M1899.24 327.651 L1899.24 336.193 L1905.31 336.193 Q1908.22 336.193 1909.75 335.105 Q1911.28 333.994 1911.28 331.911 Q1911.28 329.827 1909.75 328.739 Q1908.22 327.651 1905.31 327.651 L1899.24 327.651 M1899.24 317.073 L1899.24 324.249 L1904.84 324.249 Q1907.25 324.249 1908.78 323.3 Q1910.31 322.327 1910.31 320.614 Q1910.31 318.901 1908.78 317.999 Q1907.25 317.073 1904.84 317.073 L1899.24 317.073 M1894.98 313.67 L1905.12 313.67 Q1909.68 313.67 1912.14 315.337 Q1914.59 317.003 1914.59 320.082 Q1914.59 322.466 1913.34 323.878 Q1912.09 325.267 1909.64 325.614 Q1912.58 326.17 1914.2 327.929 Q1915.82 329.688 1915.82 332.327 Q1915.82 335.799 1913.13 337.698 Q1910.47 339.596 1905.52 339.596 L1894.98 339.596 L1894.98 313.67 Z" fill="#000000" fill-rule="nonzero" fill-opacity="1" /><path clip-path="url(#clip070)" d="M1942.44 336.193 L1953.41 336.193 L1953.41 313.67 L1957.69 313.67 L1957.69 339.596 L1922.92 339.596 L1922.92 313.67 L1927.21 313.67 L1927.21 336.193 L1938.15 336.193 L1938.15 313.67 L1942.44 313.67 L1942.44 336.193 Z" fill="#000000" fill-rule="nonzero" fill-opacity="1" /><path clip-path="url(#clip070)" d="M1988.5 313.67 L1988.5 339.596 L1984.27 339.596 L1984.27 318.786 L1971.77 339.596 L1966.3 339.596 L1966.3 313.67 L1970.54 313.67 L1970.54 334.434 L1983.02 313.67 L1988.5 313.67 Z" fill="#000000" fill-rule="nonzero" fill-opacity="1" /><path clip-path="url(#clip070)" d="M2019.45 325.568 L2019.45 327.651 L1999.87 327.651 Q2000.14 332.049 2002.51 334.364 Q2004.89 336.656 2009.13 336.656 Q2011.58 336.656 2013.87 336.054 Q2016.19 335.452 2018.45 334.249 L2018.45 338.276 Q2016.16 339.248 2013.76 339.758 Q2011.35 340.267 2008.87 340.267 Q2002.67 340.267 1999.03 336.656 Q1995.42 333.045 1995.42 326.887 Q1995.42 320.522 1998.85 316.795 Q2002.3 313.045 2008.13 313.045 Q2013.36 313.045 2016.39 316.425 Q2019.45 319.781 2019.45 325.568 M2015.19 324.318 Q2015.14 320.823 2013.22 318.739 Q2011.33 316.656 2008.18 316.656 Q2004.61 316.656 2002.46 318.67 Q2000.33 320.684 2000.01 324.341 L2015.19 324.318 Z" fill="#000000" fill-rule="nonzero" fill-opacity="1" /><path clip-path="url(#clip070)" d="M2051.74 303.624 Q2048.64 308.948 2047.14 314.156 Q2045.63 319.364 2045.63 324.712 Q2045.63 330.059 2047.14 335.313 Q2048.66 340.545 2051.74 345.846 L2048.04 345.846 Q2044.57 340.406 2042.83 335.151 Q2041.12 329.897 2041.12 324.712 Q2041.12 319.55 2042.83 314.318 Q2044.54 309.087 2048.04 303.624 L2051.74 303.624 Z" fill="#000000" fill-rule="nonzero" fill-opacity="1" /><path clip-path="url(#clip070)" d="M2076.58 323.392 Q2078.08 323.901 2079.5 325.568 Q2080.93 327.235 2082.37 330.151 L2087.11 339.596 L2082.09 339.596 L2077.67 330.73 Q2075.95 327.258 2074.33 326.124 Q2072.74 324.989 2069.96 324.989 L2064.87 324.989 L2064.87 339.596 L2060.19 339.596 L2060.19 305.036 L2070.75 305.036 Q2076.67 305.036 2079.59 307.513 Q2082.51 309.989 2082.51 314.989 Q2082.51 318.253 2080.98 320.406 Q2079.47 322.559 2076.58 323.392 M2064.87 308.878 L2064.87 321.147 L2070.75 321.147 Q2074.13 321.147 2075.84 319.596 Q2077.57 318.022 2077.57 314.989 Q2077.57 311.957 2075.84 310.429 Q2074.13 308.878 2070.75 308.878 L2064.87 308.878 Z" fill="#000000" fill-rule="nonzero" fill-opacity="1" /><path clip-path="url(#clip070)" d="M2092.27 303.624 L2095.98 303.624 Q2099.45 309.087 2101.16 314.318 Q2102.9 319.55 2102.9 324.712 Q2102.9 329.897 2101.16 335.151 Q2099.45 340.406 2095.98 345.846 L2092.27 345.846 Q2095.35 340.545 2096.86 335.313 Q2098.39 330.059 2098.39 324.712 Q2098.39 319.364 2096.86 314.156 Q2095.35 308.948 2092.27 303.624 Z" fill="#000000" fill-rule="nonzero" fill-opacity="1" /><polyline clip-path="url(#clip070)" style="stroke:#000000; stroke-linecap:round; stroke-linejoin:round; stroke-width:6; stroke-opacity:1; fill:none" stroke-dasharray="24, 15" points="1459.75,374.156 1598.98,374.156 "/>
<path clip-path="url(#clip070)" d="M1626.86 374.931 L1626.86 387.593 L1634.36 387.593 Q1638.13 387.593 1639.94 386.042 Q1641.77 384.468 1641.77 381.251 Q1641.77 378.01 1639.94 376.482 Q1638.13 374.931 1634.36 374.931 L1626.86 374.931 M1626.86 360.718 L1626.86 371.135 L1633.78 371.135 Q1637.21 371.135 1638.87 369.862 Q1640.56 368.565 1640.56 365.927 Q1640.56 363.311 1638.87 362.015 Q1637.21 360.718 1633.78 360.718 L1626.86 360.718 M1622.18 356.876 L1634.13 356.876 Q1639.48 356.876 1642.37 359.098 Q1645.26 361.32 1645.26 365.417 Q1645.26 368.589 1643.78 370.464 Q1642.3 372.339 1639.43 372.802 Q1642.88 373.542 1644.78 375.903 Q1646.7 378.241 1646.7 381.76 Q1646.7 386.389 1643.55 388.913 Q1640.4 391.436 1634.59 391.436 L1622.18 391.436 L1622.18 356.876 Z" fill="#000000" fill-rule="nonzero" fill-opacity="1" /><path clip-path="url(#clip070)" d="M1673.18 366.505 L1673.18 370.487 Q1671.37 369.491 1669.54 369.005 Q1667.74 368.496 1665.89 368.496 Q1661.74 368.496 1659.45 371.135 Q1657.16 373.751 1657.16 378.496 Q1657.16 383.241 1659.45 385.88 Q1661.74 388.496 1665.89 388.496 Q1667.74 388.496 1669.54 388.01 Q1671.37 387.501 1673.18 386.505 L1673.18 390.44 Q1671.4 391.274 1669.48 391.69 Q1667.58 392.107 1665.42 392.107 Q1659.57 392.107 1656.12 388.426 Q1652.67 384.746 1652.67 378.496 Q1652.67 372.153 1656.14 368.519 Q1659.64 364.885 1665.7 364.885 Q1667.67 364.885 1669.54 365.302 Q1671.42 365.695 1673.18 366.505 Z" fill="#000000" fill-rule="nonzero" fill-opacity="1" /><path clip-path="url(#clip070)" d="M1702.76 377.408 L1702.76 379.491 L1683.18 379.491 Q1683.46 383.889 1685.82 386.204 Q1688.2 388.496 1692.44 388.496 Q1694.89 388.496 1697.18 387.894 Q1699.5 387.292 1701.77 386.089 L1701.77 390.116 Q1699.48 391.088 1697.07 391.598 Q1694.66 392.107 1692.18 392.107 Q1685.98 392.107 1682.35 388.496 Q1678.73 384.885 1678.73 378.727 Q1678.73 372.362 1682.16 368.635 Q1685.61 364.885 1691.44 364.885 Q1696.67 364.885 1699.71 368.265 Q1702.76 371.621 1702.76 377.408 M1698.5 376.158 Q1698.46 372.663 1696.54 370.579 Q1694.64 368.496 1691.49 368.496 Q1687.92 368.496 1685.77 370.51 Q1683.64 372.524 1683.32 376.181 L1698.5 376.158 Z" fill="#000000" fill-rule="nonzero" fill-opacity="1" /><path clip-path="url(#clip070)" d="M1709.59 391.436 L1709.59 365.51 L1727.88 365.51 L1727.88 368.913 L1713.87 368.913 L1713.87 391.436 L1709.59 391.436 Z" fill="#000000" fill-rule="nonzero" fill-opacity="1" /><path clip-path="url(#clip070)" d="M1744.71 368.496 Q1741.28 368.496 1739.29 371.181 Q1737.3 373.843 1737.3 378.496 Q1737.3 383.149 1739.27 385.834 Q1741.26 388.496 1744.71 388.496 Q1748.11 388.496 1750.1 385.811 Q1752.09 383.126 1752.09 378.496 Q1752.09 373.89 1750.1 371.204 Q1748.11 368.496 1744.71 368.496 M1744.71 364.885 Q1750.26 364.885 1753.43 368.496 Q1756.6 372.107 1756.6 378.496 Q1756.6 384.862 1753.43 388.496 Q1750.26 392.107 1744.71 392.107 Q1739.13 392.107 1735.96 388.496 Q1732.81 384.862 1732.81 378.496 Q1732.81 372.107 1735.96 368.496 Q1739.13 364.885 1744.71 364.885 Z" fill="#000000" fill-rule="nonzero" fill-opacity="1" /><path clip-path="url(#clip070)" d="M1788.97 355.464 Q1785.86 360.788 1784.36 365.996 Q1782.85 371.204 1782.85 376.552 Q1782.85 381.899 1784.36 387.153 Q1785.89 392.385 1788.97 397.686 L1785.26 397.686 Q1781.79 392.246 1780.05 386.991 Q1778.34 381.737 1778.34 376.552 Q1778.34 371.39 1780.05 366.158 Q1781.77 360.927 1785.26 355.464 L1788.97 355.464 Z" fill="#000000" fill-rule="nonzero" fill-opacity="1" /><path clip-path="url(#clip070)" d="M1801.33 379.491 L1801.33 388.033 L1807.39 388.033 Q1810.31 388.033 1811.84 386.945 Q1813.36 385.834 1813.36 383.751 Q1813.36 381.667 1811.84 380.579 Q1810.31 379.491 1807.39 379.491 L1801.33 379.491 M1801.33 368.913 L1801.33 376.089 L1806.93 376.089 Q1809.34 376.089 1810.86 375.14 Q1812.39 374.167 1812.39 372.454 Q1812.39 370.741 1810.86 369.839 Q1809.34 368.913 1806.93 368.913 L1801.33 368.913 M1797.07 365.51 L1807.21 365.51 Q1811.77 365.51 1814.22 367.177 Q1816.67 368.843 1816.67 371.922 Q1816.67 374.306 1815.42 375.718 Q1814.17 377.107 1811.72 377.454 Q1814.66 378.01 1816.28 379.769 Q1817.9 381.528 1817.9 384.167 Q1817.9 387.639 1815.22 389.538 Q1812.55 391.436 1807.6 391.436 L1797.07 391.436 L1797.07 365.51 Z" fill="#000000" fill-rule="nonzero" fill-opacity="1" /><path clip-path="url(#clip070)" d="M1825.01 365.51 L1829.24 365.51 L1829.24 377.686 L1841.26 365.51 L1846.49 365.51 L1836.58 375.533 L1847.76 391.436 L1842.99 391.436 L1833.8 378.357 L1829.24 382.987 L1829.24 391.436 L1825.01 391.436 L1825.01 365.51 Z" fill="#000000" fill-rule="nonzero" fill-opacity="1" /><path clip-path="url(#clip070)" d="M1851.09 391.436 L1851.09 387.894 Q1855.31 387.246 1856.6 384.329 Q1858.18 380.232 1858.18 369.746 L1858.18 365.51 L1875.7 365.51 L1875.7 391.436 L1871.44 391.436 L1871.44 368.913 L1862.44 368.913 L1862.44 371.482 Q1862.44 381.482 1860.4 385.973 Q1858.22 390.764 1851.09 391.436 Z" fill="#000000" fill-rule="nonzero" fill-opacity="1" /><path clip-path="url(#clip070)" d="M1905.05 368.496 Q1901.63 368.496 1899.64 371.181 Q1897.65 373.843 1897.65 378.496 Q1897.65 383.149 1899.61 385.834 Q1901.6 388.496 1905.05 388.496 Q1908.46 388.496 1910.45 385.811 Q1912.44 383.126 1912.44 378.496 Q1912.44 373.89 1910.45 371.204 Q1908.46 368.496 1905.05 368.496 M1893.29 375.857 Q1893.73 371.459 1896.6 368.172 Q1899.5 364.885 1905.05 364.885 Q1910.61 364.885 1913.78 368.496 Q1916.95 372.107 1916.95 378.496 Q1916.95 384.862 1913.78 388.496 Q1910.61 392.107 1905.05 392.107 Q1899.47 392.107 1896.42 388.612 Q1893.39 385.116 1893.18 379.376 L1888.36 379.376 L1888.36 391.436 L1884.1 391.436 L1884.1 365.51 L1888.36 365.51 L1888.36 375.857 L1893.29 375.857 Z" fill="#000000" fill-rule="nonzero" fill-opacity="1" /><path clip-path="url(#clip070)" d="M1938.99 391.436 L1938.99 380.533 L1931.05 380.533 Q1927.51 380.533 1925.15 378.334 Q1923.02 376.343 1923.02 372.084 L1923.02 365.51 L1927.27 365.51 L1927.27 371.69 Q1927.27 374.399 1928.48 375.765 Q1929.71 377.13 1932.11 377.13 L1938.99 377.13 L1938.99 365.51 L1943.25 365.51 L1943.25 391.436 L1938.99 391.436 Z" fill="#000000" fill-rule="nonzero" fill-opacity="1" /><path clip-path="url(#clip070)" d="M1963.8 378.403 Q1958.64 378.403 1956.65 379.584 Q1954.66 380.764 1954.66 383.612 Q1954.66 385.88 1956.14 387.223 Q1957.65 388.542 1960.21 388.542 Q1963.76 388.542 1965.89 386.042 Q1968.04 383.519 1968.04 379.352 L1968.04 378.403 L1963.8 378.403 M1972.3 376.644 L1972.3 391.436 L1968.04 391.436 L1968.04 387.501 Q1966.58 389.862 1964.4 390.996 Q1962.23 392.107 1959.08 392.107 Q1955.1 392.107 1952.74 389.885 Q1950.4 387.639 1950.4 383.889 Q1950.4 379.514 1953.32 377.292 Q1956.26 375.07 1962.07 375.07 L1968.04 375.07 L1968.04 374.653 Q1968.04 371.714 1966.09 370.116 Q1964.17 368.496 1960.68 368.496 Q1958.46 368.496 1956.35 369.028 Q1954.24 369.561 1952.3 370.626 L1952.3 366.69 Q1954.64 365.788 1956.83 365.348 Q1959.03 364.885 1961.12 364.885 Q1966.74 364.885 1969.52 367.802 Q1972.3 370.718 1972.3 376.644 Z" fill="#000000" fill-rule="nonzero" fill-opacity="1" /><path clip-path="url(#clip070)" d="M1985.35 372.987 Q1985.35 374.908 1986.83 375.996 Q1988.32 377.084 1991.07 377.084 L1996.81 377.084 L1996.81 368.913 L1991.07 368.913 Q1988.32 368.913 1986.83 369.977 Q1985.35 371.042 1985.35 372.987 M1979.29 391.436 L1987.21 380.07 Q1984.52 379.468 1982.74 377.894 Q1980.96 376.297 1980.96 372.987 Q1980.96 369.237 1983.43 367.385 Q1985.93 365.51 1990.96 365.51 L2001.09 365.51 L2001.09 391.436 L1996.81 391.436 L1996.81 380.487 L1991.51 380.487 L1983.87 391.436 L1979.29 391.436 Z" fill="#000000" fill-rule="nonzero" fill-opacity="1" /><path clip-path="url(#clip070)" d="M2035.45 393.843 Q2033.64 398.473 2031.93 399.885 Q2030.21 401.297 2027.34 401.297 L2023.94 401.297 L2023.94 397.732 L2026.44 397.732 Q2028.2 397.732 2029.17 396.899 Q2030.14 396.065 2031.33 392.963 L2032.09 391.019 L2021.6 365.51 L2026.12 365.51 L2034.22 385.788 L2042.32 365.51 L2046.83 365.51 L2035.45 393.843 Z" fill="#000000" fill-rule="nonzero" fill-opacity="1" /><path clip-path="url(#clip070)" d="M2052.55 365.51 L2058.78 365.51 L2066.14 382.871 L2073.52 365.51 L2079.7 365.51 L2079.7 391.436 L2075.42 391.436 L2075.42 369.584 L2068.27 386.459 L2064.01 386.459 L2056.83 369.584 L2056.83 391.436 L2052.55 391.436 L2052.55 365.51 Z" fill="#000000" fill-rule="nonzero" fill-opacity="1" /><path clip-path="url(#clip070)" d="M2110.65 377.408 L2110.65 379.491 L2091.07 379.491 Q2091.35 383.889 2093.71 386.204 Q2096.09 388.496 2100.33 388.496 Q2102.78 388.496 2105.07 387.894 Q2107.39 387.292 2109.66 386.089 L2109.66 390.116 Q2107.37 391.088 2104.96 391.598 Q2102.55 392.107 2100.07 392.107 Q2093.87 392.107 2090.24 388.496 Q2086.63 384.885 2086.63 378.727 Q2086.63 372.362 2090.05 368.635 Q2093.5 364.885 2099.33 364.885 Q2104.57 364.885 2107.6 368.265 Q2110.65 371.621 2110.65 377.408 M2106.39 376.158 Q2106.35 372.663 2104.43 370.579 Q2102.53 368.496 2099.38 368.496 Q2095.82 368.496 2093.66 370.51 Q2091.53 372.524 2091.21 376.181 L2106.39 376.158 Z" fill="#000000" fill-rule="nonzero" fill-opacity="1" /><path clip-path="url(#clip070)" d="M2121.76 387.547 L2121.76 401.297 L2117.48 401.297 L2117.48 365.51 L2121.76 365.51 L2121.76 369.445 Q2123.11 367.13 2125.14 366.019 Q2127.2 364.885 2130.05 364.885 Q2134.77 364.885 2137.71 368.635 Q2140.68 372.385 2140.68 378.496 Q2140.68 384.607 2137.71 388.357 Q2134.77 392.107 2130.05 392.107 Q2127.2 392.107 2125.14 390.996 Q2123.11 389.862 2121.76 387.547 M2136.26 378.496 Q2136.26 373.797 2134.31 371.135 Q2132.39 368.45 2129.01 368.45 Q2125.63 368.45 2123.69 371.135 Q2121.76 373.797 2121.76 378.496 Q2121.76 383.195 2123.69 385.88 Q2125.63 388.542 2129.01 388.542 Q2132.39 388.542 2134.31 385.88 Q2136.26 383.195 2136.26 378.496 Z" fill="#000000" fill-rule="nonzero" fill-opacity="1" /><path clip-path="url(#clip070)" d="M2167.09 388.033 L2178.06 388.033 L2178.06 365.51 L2182.34 365.51 L2182.34 391.436 L2147.57 391.436 L2147.57 365.51 L2151.86 365.51 L2151.86 388.033 L2162.81 388.033 L2162.81 365.51 L2167.09 365.51 L2167.09 388.033 Z" fill="#000000" fill-rule="nonzero" fill-opacity="1" /><path clip-path="url(#clip070)" d="M2213.15 365.51 L2213.15 391.436 L2208.92 391.436 L2208.92 370.626 L2196.42 391.436 L2190.95 391.436 L2190.95 365.51 L2195.19 365.51 L2195.19 386.274 L2207.67 365.51 L2213.15 365.51 Z" fill="#000000" fill-rule="nonzero" fill-opacity="1" /><path clip-path="url(#clip070)" d="M2243.48 365.51 L2234.1 378.126 L2243.96 391.436 L2238.94 391.436 L2231.39 381.251 L2223.85 391.436 L2218.82 391.436 L2228.89 377.871 L2219.68 365.51 L2224.7 365.51 L2231.58 374.746 L2238.45 365.51 L2243.48 365.51 Z" fill="#000000" fill-rule="nonzero" fill-opacity="1" /><path clip-path="url(#clip070)" d="M2249.31 355.464 L2253.01 355.464 Q2256.49 360.927 2258.2 366.158 Q2259.94 371.39 2259.94 376.552 Q2259.94 381.737 2258.2 386.991 Q2256.49 392.246 2253.01 397.686 L2249.31 397.686 Q2252.39 392.385 2253.89 387.153 Q2255.42 381.899 2255.42 376.552 Q2255.42 371.204 2253.89 365.996 Q2252.39 360.788 2249.31 355.464 Z" fill="#000000" fill-rule="nonzero" fill-opacity="1" /></svg>
