<?xml version="1.0" encoding="utf-8"?>
<svg xmlns="http://www.w3.org/2000/svg" xmlns:xlink="http://www.w3.org/1999/xlink" width="528" height="336" viewBox="0 0 2112 1344">
<defs>
  <clipPath id="clip010">
    <rect x="0" y="0" width="2112" height="1344"/>
  </clipPath>
</defs>
<path clip-path="url(#clip010)" d="M0 1344 L2112 1344 L2112 0 L0 0  Z" fill="#ffffff" fill-rule="evenodd" fill-opacity="1"/>
<defs>
  <clipPath id="clip011">
    <rect x="230" y="120" width="1836" height="1054"/>
  </clipPath>
</defs>
<path clip-path="url(#clip010)" d="M227.349 1173.47 L2064.76 1173.47 L2064.76 120.723 L227.349 120.723  Z" fill="#ffffff" fill-rule="evenodd" fill-opacity="1"/>
<defs>
  <clipPath id="clip012">
    <rect x="227" y="120" width="1838" height="1054"/>
  </clipPath>
</defs>
<polyline clip-path="url(#clip012)" style="stroke:#000000; stroke-linecap:round; stroke-linejoin:round; stroke-width:2; stroke-opacity:0.1; fill:none" points="583.144,1173.47 583.144,120.723 "/>
<polyline clip-path="url(#clip012)" style="stroke:#000000; stroke-linecap:round; stroke-linejoin:round; stroke-width:2; stroke-opacity:0.1; fill:none" points="940.546,1173.47 940.546,120.723 "/>
<polyline clip-path="url(#clip012)" style="stroke:#000000; stroke-linecap:round; stroke-linejoin:round; stroke-width:2; stroke-opacity:0.1; fill:none" points="1297.95,1173.47 1297.95,120.723 "/>
<polyline clip-path="url(#clip012)" style="stroke:#000000; stroke-linecap:round; stroke-linejoin:round; stroke-width:2; stroke-opacity:0.1; fill:none" points="1655.35,1173.47 1655.35,120.723 "/>
<polyline clip-path="url(#clip012)" style="stroke:#000000; stroke-linecap:round; stroke-linejoin:round; stroke-width:2; stroke-opacity:0.1; fill:none" points="2012.75,1173.47 2012.75,120.723 "/>
<polyline clip-path="url(#clip012)" style="stroke:#000000; stroke-linecap:round; stroke-linejoin:round; stroke-width:2; stroke-opacity:0.1; fill:none" points="227.349,1158 2064.76,1158 "/>
<polyline clip-path="url(#clip012)" style="stroke:#000000; stroke-linecap:round; stroke-linejoin:round; stroke-width:2; stroke-opacity:0.1; fill:none" points="227.349,906.022 2064.76,906.022 "/>
<polyline clip-path="url(#clip012)" style="stroke:#000000; stroke-linecap:round; stroke-linejoin:round; stroke-width:2; stroke-opacity:0.1; fill:none" points="227.349,654.044 2064.76,654.044 "/>
<polyline clip-path="url(#clip012)" style="stroke:#000000; stroke-linecap:round; stroke-linejoin:round; stroke-width:2; stroke-opacity:0.1; fill:none" points="227.349,402.065 2064.76,402.065 "/>
<polyline clip-path="url(#clip012)" style="stroke:#000000; stroke-linecap:round; stroke-linejoin:round; stroke-width:2; stroke-opacity:0.1; fill:none" points="227.349,150.087 2064.76,150.087 "/>
<polyline clip-path="url(#clip010)" style="stroke:#000000; stroke-linecap:round; stroke-linejoin:round; stroke-width:4; stroke-opacity:1; fill:none" points="227.349,1173.47 2064.76,1173.47 "/>
<polyline clip-path="url(#clip010)" style="stroke:#000000; stroke-linecap:round; stroke-linejoin:round; stroke-width:4; stroke-opacity:1; fill:none" points="583.144,1173.47 583.144,1154.57 "/>
<polyline clip-path="url(#clip010)" style="stroke:#000000; stroke-linecap:round; stroke-linejoin:round; stroke-width:4; stroke-opacity:1; fill:none" points="940.546,1173.47 940.546,1154.57 "/>
<polyline clip-path="url(#clip010)" style="stroke:#000000; stroke-linecap:round; stroke-linejoin:round; stroke-width:4; stroke-opacity:1; fill:none" points="1297.95,1173.47 1297.95,1154.57 "/>
<polyline clip-path="url(#clip010)" style="stroke:#000000; stroke-linecap:round; stroke-linejoin:round; stroke-width:4; stroke-opacity:1; fill:none" points="1655.35,1173.47 1655.35,1154.57 "/>
<polyline clip-path="url(#clip010)" style="stroke:#000000; stroke-linecap:round; stroke-linejoin:round; stroke-width:4; stroke-opacity:1; fill:none" points="2012.75,1173.47 2012.75,1154.57 "/>
<path clip-path="url(#clip010)" d="M577.796 1229.63 L594.116 1229.63 L594.116 1233.57 L572.171 1233.57 L572.171 1229.63 Q574.833 1226.88 579.417 1222.25 Q584.023 1217.59 585.204 1216.25 Q587.449 1213.73 588.329 1211.99 Q589.232 1210.23 589.232 1208.54 Q589.232 1205.79 587.287 1204.05 Q585.366 1202.32 582.264 1202.32 Q580.065 1202.32 577.611 1203.08 Q575.181 1203.84 572.403 1205.4 L572.403 1200.67 Q575.227 1199.54 577.681 1198.96 Q580.134 1198.38 582.171 1198.38 Q587.542 1198.38 590.736 1201.07 Q593.931 1203.75 593.931 1208.24 Q593.931 1210.37 593.12 1212.29 Q592.333 1214.19 590.227 1216.78 Q589.648 1217.46 586.546 1220.67 Q583.445 1223.87 577.796 1229.63 Z" fill="#000000" fill-rule="nonzero" fill-opacity="1" /><path clip-path="url(#clip010)" d="M943.555 1203.08 L931.75 1221.53 L943.555 1221.53 L943.555 1203.08 M942.329 1199.01 L948.208 1199.01 L948.208 1221.53 L953.139 1221.53 L953.139 1225.42 L948.208 1225.42 L948.208 1233.57 L943.555 1233.57 L943.555 1225.42 L927.954 1225.42 L927.954 1220.9 L942.329 1199.01 Z" fill="#000000" fill-rule="nonzero" fill-opacity="1" /><path clip-path="url(#clip010)" d="M1298.35 1214.42 Q1295.21 1214.42 1293.35 1216.58 Q1291.53 1218.73 1291.53 1222.48 Q1291.53 1226.21 1293.35 1228.38 Q1295.21 1230.53 1298.35 1230.53 Q1301.5 1230.53 1303.33 1228.38 Q1305.18 1226.21 1305.18 1222.48 Q1305.18 1218.73 1303.33 1216.58 Q1301.5 1214.42 1298.35 1214.42 M1307.64 1199.77 L1307.64 1204.03 Q1305.88 1203.2 1304.07 1202.76 Q1302.29 1202.32 1300.53 1202.32 Q1295.9 1202.32 1293.45 1205.44 Q1291.02 1208.57 1290.67 1214.89 Q1292.03 1212.87 1294.09 1211.81 Q1296.15 1210.72 1298.63 1210.72 Q1303.84 1210.72 1306.85 1213.89 Q1309.88 1217.04 1309.88 1222.48 Q1309.88 1227.8 1306.73 1231.02 Q1303.59 1234.24 1298.35 1234.24 Q1292.36 1234.24 1289.19 1229.65 Q1286.02 1225.05 1286.02 1216.32 Q1286.02 1208.13 1289.9 1203.27 Q1293.79 1198.38 1300.34 1198.38 Q1302.1 1198.38 1303.89 1198.73 Q1305.69 1199.08 1307.64 1199.77 Z" fill="#000000" fill-rule="nonzero" fill-opacity="1" /><path clip-path="url(#clip010)" d="M1655.35 1217.15 Q1652.02 1217.15 1650.1 1218.94 Q1648.2 1220.72 1648.2 1223.84 Q1648.2 1226.97 1650.1 1228.75 Q1652.02 1230.53 1655.35 1230.53 Q1658.68 1230.53 1660.61 1228.75 Q1662.53 1226.95 1662.53 1223.84 Q1662.53 1220.72 1660.61 1218.94 Q1658.71 1217.15 1655.35 1217.15 M1650.68 1215.16 Q1647.67 1214.42 1645.98 1212.36 Q1644.31 1210.3 1644.31 1207.34 Q1644.31 1203.2 1647.25 1200.79 Q1650.21 1198.38 1655.35 1198.38 Q1660.51 1198.38 1663.45 1200.79 Q1666.39 1203.2 1666.39 1207.34 Q1666.39 1210.3 1664.7 1212.36 Q1663.04 1214.42 1660.05 1215.16 Q1663.43 1215.95 1665.3 1218.24 Q1667.2 1220.53 1667.2 1223.84 Q1667.2 1228.87 1664.12 1231.55 Q1661.07 1234.24 1655.35 1234.24 Q1649.63 1234.24 1646.56 1231.55 Q1643.5 1228.87 1643.5 1223.84 Q1643.5 1220.53 1645.4 1218.24 Q1647.3 1215.95 1650.68 1215.16 M1648.96 1207.78 Q1648.96 1210.47 1650.63 1211.97 Q1652.32 1213.47 1655.35 1213.47 Q1658.36 1213.47 1660.05 1211.97 Q1661.76 1210.47 1661.76 1207.78 Q1661.76 1205.09 1660.05 1203.59 Q1658.36 1202.09 1655.35 1202.09 Q1652.32 1202.09 1650.63 1203.59 Q1648.96 1205.09 1648.96 1207.78 Z" fill="#000000" fill-rule="nonzero" fill-opacity="1" /><path clip-path="url(#clip010)" d="M1987.44 1229.63 L1995.08 1229.63 L1995.08 1203.27 L1986.77 1204.93 L1986.77 1200.67 L1995.03 1199.01 L1999.71 1199.01 L1999.71 1229.63 L2007.35 1229.63 L2007.35 1233.57 L1987.44 1233.57 L1987.44 1229.63 Z" fill="#000000" fill-rule="nonzero" fill-opacity="1" /><path clip-path="url(#clip010)" d="M2026.79 1202.09 Q2023.18 1202.09 2021.35 1205.65 Q2019.55 1209.19 2019.55 1216.32 Q2019.55 1223.43 2021.35 1226.99 Q2023.18 1230.53 2026.79 1230.53 Q2030.43 1230.53 2032.23 1226.99 Q2034.06 1223.43 2034.06 1216.32 Q2034.06 1209.19 2032.23 1205.65 Q2030.43 1202.09 2026.79 1202.09 M2026.79 1198.38 Q2032.6 1198.38 2035.66 1202.99 Q2038.74 1207.57 2038.74 1216.32 Q2038.74 1225.05 2035.66 1229.65 Q2032.6 1234.24 2026.79 1234.24 Q2020.98 1234.24 2017.9 1229.65 Q2014.85 1225.05 2014.85 1216.32 Q2014.85 1207.57 2017.9 1202.99 Q2020.98 1198.38 2026.79 1198.38 Z" fill="#000000" fill-rule="nonzero" fill-opacity="1" /><path clip-path="url(#clip010)" d="M1137.2 1291.73 Q1139.27 1292.44 1141.21 1294.73 Q1143.19 1297.02 1145.16 1301.03 L1151.69 1314.01 L1144.78 1314.01 L1138.7 1301.82 Q1136.34 1297.05 1134.12 1295.49 Q1131.92 1293.93 1128.1 1293.93 L1121.1 1293.93 L1121.1 1314.01 L1114.67 1314.01 L1114.67 1266.49 L1129.18 1266.49 Q1137.33 1266.49 1141.34 1269.9 Q1145.35 1273.31 1145.35 1280.18 Q1145.35 1284.67 1143.25 1287.63 Q1141.18 1290.59 1137.2 1291.73 M1121.1 1271.78 L1121.1 1288.65 L1129.18 1288.65 Q1133.83 1288.65 1136.19 1286.51 Q1138.57 1284.35 1138.57 1280.18 Q1138.57 1276.01 1136.19 1273.91 Q1133.83 1271.78 1129.18 1271.78 L1121.1 1271.78 Z" fill="#000000" fill-rule="nonzero" fill-opacity="1" /><path clip-path="url(#clip010)" d="M1171.71 1292.47 Q1170.11 1289.73 1166.9 1289.73 Q1163.69 1289.73 1162.09 1292.47 Q1160.47 1295.2 1160.47 1300.68 Q1160.47 1306.18 1162.09 1308.92 Q1163.69 1311.66 1166.9 1311.66 Q1170.11 1311.66 1171.71 1308.92 Q1173.33 1306.18 1173.33 1300.68 Q1173.33 1295.2 1171.71 1292.47 M1166.9 1286.9 Q1172.02 1286.9 1174.73 1290.43 Q1177.44 1293.96 1177.44 1300.68 Q1177.44 1307.43 1174.73 1310.96 Q1172.02 1314.49 1166.9 1314.49 Q1161.74 1314.49 1159.04 1310.96 Q1156.33 1307.43 1156.33 1300.68 Q1156.33 1293.96 1159.04 1290.43 Q1161.74 1286.9 1166.9 1286.9 Z" fill="#000000" fill-rule="nonzero" fill-opacity="1" /><polyline clip-path="url(#clip010)" style="stroke:#000000; stroke-linecap:round; stroke-linejoin:round; stroke-width:4; stroke-opacity:1; fill:none" points="227.349,1173.47 227.349,120.723 "/>
<polyline clip-path="url(#clip010)" style="stroke:#000000; stroke-linecap:round; stroke-linejoin:round; stroke-width:4; stroke-opacity:1; fill:none" points="227.349,1158 246.247,1158 "/>
<polyline clip-path="url(#clip010)" style="stroke:#000000; stroke-linecap:round; stroke-linejoin:round; stroke-width:4; stroke-opacity:1; fill:none" points="227.349,906.022 246.247,906.022 "/>
<polyline clip-path="url(#clip010)" style="stroke:#000000; stroke-linecap:round; stroke-linejoin:round; stroke-width:4; stroke-opacity:1; fill:none" points="227.349,654.044 246.247,654.044 "/>
<polyline clip-path="url(#clip010)" style="stroke:#000000; stroke-linecap:round; stroke-linejoin:round; stroke-width:4; stroke-opacity:1; fill:none" points="227.349,402.065 246.247,402.065 "/>
<polyline clip-path="url(#clip010)" style="stroke:#000000; stroke-linecap:round; stroke-linejoin:round; stroke-width:4; stroke-opacity:1; fill:none" points="227.349,150.087 246.247,150.087 "/>
<path clip-path="url(#clip010)" d="M183.725 1143.8 Q180.114 1143.8 178.285 1147.36 Q176.48 1150.91 176.48 1158.04 Q176.48 1165.14 178.285 1168.71 Q180.114 1172.25 183.725 1172.25 Q187.359 1172.25 189.165 1168.71 Q190.993 1165.14 190.993 1158.04 Q190.993 1150.91 189.165 1147.36 Q187.359 1143.8 183.725 1143.8 M183.725 1140.1 Q189.535 1140.1 192.591 1144.7 Q195.669 1149.29 195.669 1158.04 Q195.669 1166.76 192.591 1171.37 Q189.535 1175.95 183.725 1175.95 Q177.915 1175.95 174.836 1171.37 Q171.781 1166.76 171.781 1158.04 Q171.781 1149.29 174.836 1144.7 Q177.915 1140.1 183.725 1140.1 Z" fill="#000000" fill-rule="nonzero" fill-opacity="1" /><path clip-path="url(#clip010)" d="M148.586 919.367 L164.906 919.367 L164.906 923.302 L142.961 923.302 L142.961 919.367 Q145.623 916.612 150.207 911.983 Q154.813 907.33 155.994 905.987 Q158.239 903.464 159.119 901.728 Q160.021 899.969 160.021 898.279 Q160.021 895.524 158.077 893.788 Q156.156 892.052 153.054 892.052 Q150.855 892.052 148.401 892.816 Q145.971 893.58 143.193 895.131 L143.193 890.409 Q146.017 889.274 148.471 888.696 Q150.924 888.117 152.961 888.117 Q158.332 888.117 161.526 890.802 Q164.72 893.487 164.72 897.978 Q164.72 900.108 163.91 902.029 Q163.123 903.927 161.017 906.52 Q160.438 907.191 157.336 910.409 Q154.234 913.603 148.586 919.367 Z" fill="#000000" fill-rule="nonzero" fill-opacity="1" /><path clip-path="url(#clip010)" d="M174.767 888.742 L193.123 888.742 L193.123 892.677 L179.049 892.677 L179.049 901.149 Q180.068 900.802 181.086 900.64 Q182.105 900.455 183.123 900.455 Q188.91 900.455 192.29 903.626 Q195.669 906.798 195.669 912.214 Q195.669 917.793 192.197 920.895 Q188.725 923.973 182.406 923.973 Q180.23 923.973 177.961 923.603 Q175.716 923.233 173.308 922.492 L173.308 917.793 Q175.392 918.927 177.614 919.483 Q179.836 920.038 182.313 920.038 Q186.318 920.038 188.655 917.932 Q190.993 915.825 190.993 912.214 Q190.993 908.603 188.655 906.497 Q186.318 904.39 182.313 904.39 Q180.438 904.39 178.563 904.807 Q176.711 905.223 174.767 906.103 L174.767 888.742 Z" fill="#000000" fill-rule="nonzero" fill-opacity="1" /><path clip-path="url(#clip010)" d="M143.609 636.764 L161.966 636.764 L161.966 640.699 L147.892 640.699 L147.892 649.171 Q148.91 648.824 149.929 648.662 Q150.947 648.477 151.966 648.477 Q157.753 648.477 161.132 651.648 Q164.512 654.819 164.512 660.236 Q164.512 665.814 161.04 668.916 Q157.568 671.995 151.248 671.995 Q149.072 671.995 146.804 671.625 Q144.559 671.254 142.151 670.514 L142.151 665.814 Q144.234 666.949 146.457 667.504 Q148.679 668.06 151.156 668.06 Q155.16 668.06 157.498 665.953 Q159.836 663.847 159.836 660.236 Q159.836 656.625 157.498 654.518 Q155.16 652.412 151.156 652.412 Q149.281 652.412 147.406 652.828 Q145.554 653.245 143.609 654.125 L143.609 636.764 Z" fill="#000000" fill-rule="nonzero" fill-opacity="1" /><path clip-path="url(#clip010)" d="M183.725 639.842 Q180.114 639.842 178.285 643.407 Q176.48 646.949 176.48 654.078 Q176.48 661.185 178.285 664.75 Q180.114 668.291 183.725 668.291 Q187.359 668.291 189.165 664.75 Q190.993 661.185 190.993 654.078 Q190.993 646.949 189.165 643.407 Q187.359 639.842 183.725 639.842 M183.725 636.139 Q189.535 636.139 192.591 640.745 Q195.669 645.328 195.669 654.078 Q195.669 662.805 192.591 667.412 Q189.535 671.995 183.725 671.995 Q177.915 671.995 174.836 667.412 Q171.781 662.805 171.781 654.078 Q171.781 645.328 174.836 640.745 Q177.915 636.139 183.725 636.139 Z" fill="#000000" fill-rule="nonzero" fill-opacity="1" /><path clip-path="url(#clip010)" d="M143.378 384.785 L165.6 384.785 L165.6 386.776 L153.054 419.345 L148.17 419.345 L159.975 388.721 L143.378 388.721 L143.378 384.785 Z" fill="#000000" fill-rule="nonzero" fill-opacity="1" /><path clip-path="url(#clip010)" d="M174.767 384.785 L193.123 384.785 L193.123 388.721 L179.049 388.721 L179.049 397.193 Q180.068 396.845 181.086 396.683 Q182.105 396.498 183.123 396.498 Q188.91 396.498 192.29 399.67 Q195.669 402.841 195.669 408.257 Q195.669 413.836 192.197 416.938 Q188.725 420.017 182.406 420.017 Q180.23 420.017 177.961 419.646 Q175.716 419.276 173.308 418.535 L173.308 413.836 Q175.392 414.97 177.614 415.526 Q179.836 416.081 182.313 416.081 Q186.318 416.081 188.655 413.975 Q190.993 411.869 190.993 408.257 Q190.993 404.646 188.655 402.54 Q186.318 400.433 182.313 400.433 Q180.438 400.433 178.563 400.85 Q176.711 401.267 174.767 402.146 L174.767 384.785 Z" fill="#000000" fill-rule="nonzero" fill-opacity="1" /><path clip-path="url(#clip010)" d="M114.211 163.432 L121.85 163.432 L121.85 137.066 L113.54 138.733 L113.54 134.474 L121.804 132.807 L126.48 132.807 L126.48 163.432 L134.119 163.432 L134.119 167.367 L114.211 167.367 L114.211 163.432 Z" fill="#000000" fill-rule="nonzero" fill-opacity="1" /><path clip-path="url(#clip010)" d="M153.563 135.886 Q149.952 135.886 148.123 139.45 Q146.318 142.992 146.318 150.122 Q146.318 157.228 148.123 160.793 Q149.952 164.335 153.563 164.335 Q157.197 164.335 159.003 160.793 Q160.832 157.228 160.832 150.122 Q160.832 142.992 159.003 139.45 Q157.197 135.886 153.563 135.886 M153.563 132.182 Q159.373 132.182 162.429 136.788 Q165.507 141.372 165.507 150.122 Q165.507 158.849 162.429 163.455 Q159.373 168.038 153.563 168.038 Q147.753 168.038 144.674 163.455 Q141.619 158.849 141.619 150.122 Q141.619 141.372 144.674 136.788 Q147.753 132.182 153.563 132.182 Z" fill="#000000" fill-rule="nonzero" fill-opacity="1" /><path clip-path="url(#clip010)" d="M183.725 135.886 Q180.114 135.886 178.285 139.45 Q176.48 142.992 176.48 150.122 Q176.48 157.228 178.285 160.793 Q180.114 164.335 183.725 164.335 Q187.359 164.335 189.165 160.793 Q190.993 157.228 190.993 150.122 Q190.993 142.992 189.165 139.45 Q187.359 135.886 183.725 135.886 M183.725 132.182 Q189.535 132.182 192.591 136.788 Q195.669 141.372 195.669 150.122 Q195.669 158.849 192.591 163.455 Q189.535 168.038 183.725 168.038 Q177.915 168.038 174.836 163.455 Q171.781 158.849 171.781 150.122 Q171.781 141.372 174.836 136.788 Q177.915 132.182 183.725 132.182 Z" fill="#000000" fill-rule="nonzero" fill-opacity="1" /><path clip-path="url(#clip010)" d="M62.1933 1032.46 L62.1933 1011.45 L25.495 1011.45 L25.495 1026.89 L32.2427 1026.89 Q48.1251 1026.89 58.6603 1030.46 Q60.8247 1031.19 62.1933 1032.46 M62.1933 1041.85 Q60.1881 1037.59 56.3687 1036.38 Q46.5655 1033.29 29.0598 1033.29 L20.0842 1033.29 L20.0842 1005.02 L62.1933 1005.02 L62.1933 999.614 L77.8211 999.614 L77.8211 1005.02 L67.6042 1005.02 L67.6042 1038.7 L77.8211 1038.7 L77.8211 1044.11 L62.1933 1044.11 L62.1933 1041.85 Z" fill="#000000" fill-rule="nonzero" fill-opacity="1" /><path clip-path="url(#clip010)" d="M36.0621 976.443 Q36.0621 981.153 39.7542 983.891 Q43.4145 986.628 49.812 986.628 Q56.2095 986.628 59.9017 983.922 Q63.5619 981.185 63.5619 976.443 Q63.5619 971.764 59.8698 969.027 Q56.1777 966.289 49.812 966.289 Q43.4781 966.289 39.786 969.027 Q36.0621 971.764 36.0621 976.443 M31.0968 976.443 Q31.0968 968.804 36.0621 964.443 Q41.0273 960.083 49.812 960.083 Q58.5649 960.083 63.5619 964.443 Q68.5272 968.804 68.5272 976.443 Q68.5272 984.113 63.5619 988.474 Q58.5649 992.803 49.812 992.803 Q41.0273 992.803 36.0621 988.474 Q31.0968 984.113 31.0968 976.443 Z" fill="#000000" fill-rule="nonzero" fill-opacity="1" /><path clip-path="url(#clip010)" d="M67.6042 954.099 L62.7344 954.099 Q61.8432 948.306 57.8328 946.524 Q52.1991 944.359 37.7808 944.359 L31.9562 944.359 L31.9562 920.265 L67.6042 920.265 L67.6042 926.122 L36.635 926.122 L36.635 938.503 L40.168 938.503 Q53.9179 938.503 60.0926 941.304 Q66.6811 944.296 67.6042 954.099 Z" fill="#000000" fill-rule="nonzero" fill-opacity="1" /><path clip-path="url(#clip010)" d="M42.2368 902.823 Q44.8786 902.823 46.3745 900.786 Q47.8705 898.749 47.8705 894.962 L47.8705 887.068 L36.635 887.068 L36.635 894.962 Q36.635 898.749 38.0991 900.786 Q39.5632 902.823 42.2368 902.823 M67.6042 911.162 L51.9763 900.277 Q51.1488 903.969 48.9845 906.42 Q46.7883 908.871 42.2368 908.871 Q37.0806 908.871 34.5343 905.465 Q31.9562 902.028 31.9562 895.121 L31.9562 881.18 L67.6042 881.18 L67.6042 887.068 L52.5493 887.068 L52.5493 894.357 L67.6042 904.86 L67.6042 911.162 Z" fill="#000000" fill-rule="nonzero" fill-opacity="1" /><path clip-path="url(#clip010)" d="M31.9562 818.223 L67.6042 818.223 L67.6042 824.111 L36.635 824.111 L36.635 843.113 L67.6042 843.113 L67.6042 849.001 L31.9562 849.001 L31.9562 818.223 Z" fill="#000000" fill-rule="nonzero" fill-opacity="1" /><path clip-path="url(#clip010)" d="M48.3161 775.668 L51.1806 775.668 L51.1806 802.595 Q57.2281 802.213 60.4109 798.967 Q63.5619 795.688 63.5619 789.864 Q63.5619 786.49 62.7344 783.339 Q61.9069 780.156 60.2518 777.037 L65.7899 777.037 Q67.1267 780.188 67.827 783.498 Q68.5272 786.808 68.5272 790.214 Q68.5272 798.744 63.5619 803.741 Q58.5967 808.706 50.1303 808.706 Q41.3774 808.706 36.2531 803.996 Q31.0968 799.253 31.0968 791.232 Q31.0968 784.039 35.7438 779.87 Q40.3589 775.668 48.3161 775.668 M46.5973 781.525 Q41.7912 781.588 38.9266 784.23 Q36.0621 786.84 36.0621 791.169 Q36.0621 796.07 38.8312 799.03 Q41.6002 801.959 46.6292 802.404 L46.5973 781.525 Z" fill="#000000" fill-rule="nonzero" fill-opacity="1" /><path clip-path="url(#clip010)" d="M62.257 760.391 L81.1631 760.391 L81.1631 766.279 L31.9562 766.279 L31.9562 760.391 L37.3671 760.391 Q34.1842 758.545 32.6564 755.744 Q31.0968 752.911 31.0968 748.996 Q31.0968 742.503 36.2531 738.461 Q41.4093 734.387 49.812 734.387 Q58.2147 734.387 63.371 738.461 Q68.5272 742.503 68.5272 748.996 Q68.5272 752.911 66.9994 755.744 Q65.4398 758.545 62.257 760.391 M49.812 740.466 Q43.3508 740.466 39.6905 743.139 Q35.9984 745.781 35.9984 750.428 Q35.9984 755.075 39.6905 757.749 Q43.3508 760.391 49.812 760.391 Q56.2732 760.391 59.9653 757.749 Q63.6256 755.075 63.6256 750.428 Q63.6256 745.781 59.9653 743.139 Q56.2732 740.466 49.812 740.466 Z" fill="#000000" fill-rule="nonzero" fill-opacity="1" /><path clip-path="url(#clip010)" d="M48.3161 694.187 L51.1806 694.187 L51.1806 721.114 Q57.2281 720.732 60.4109 717.486 Q63.5619 714.207 63.5619 708.383 Q63.5619 705.009 62.7344 701.858 Q61.9069 698.675 60.2518 695.556 L65.7899 695.556 Q67.1267 698.707 67.827 702.017 Q68.5272 705.327 68.5272 708.733 Q68.5272 717.263 63.5619 722.26 Q58.5967 727.225 50.1303 727.225 Q41.3774 727.225 36.2531 722.515 Q31.0968 717.772 31.0968 709.751 Q31.0968 702.558 35.7438 698.389 Q40.3589 694.187 48.3161 694.187 M46.5973 700.044 Q41.7912 700.107 38.9266 702.749 Q36.0621 705.359 36.0621 709.688 Q36.0621 714.589 38.8312 717.549 Q41.6002 720.478 46.6292 720.923 L46.5973 700.044 Z" fill="#000000" fill-rule="nonzero" fill-opacity="1" /><path clip-path="url(#clip010)" d="M31.0968 670.443 Q31.0968 662.804 36.0621 658.444 Q41.0273 654.083 49.812 654.083 Q58.5649 654.083 63.5619 658.444 Q68.5272 662.804 68.5272 670.443 Q68.5272 678.114 63.6892 682.347 Q58.8513 686.58 49.812 686.803 L42.5233 686.994 Q38.7357 687.153 37.4307 687.153 Q32.3381 687.153 28.5824 685.307 Q22.6941 682.411 20.1478 677.414 Q17.6015 672.385 17.5379 663.982 Q17.506 660.099 16.965 658.38 L21.6119 656.757 Q22.2485 658.316 22.2803 659.749 L22.8214 667.706 Q23.1079 671.716 24.5083 674.135 Q28.2323 680.469 33.102 681.074 L34.8844 681.297 Q31.0968 677.159 31.0968 670.443 M36.0621 670.443 Q36.0621 675.154 39.7542 677.891 Q43.4145 680.628 49.812 680.628 Q56.2095 680.628 59.9017 677.923 Q63.5619 675.186 63.5619 670.443 Q63.5619 665.764 59.8698 663.027 Q56.1777 660.29 49.812 660.29 Q43.4781 660.29 39.786 663.027 Q36.0621 665.764 36.0621 670.443 Z" fill="#000000" fill-rule="nonzero" fill-opacity="1" /><path clip-path="url(#clip010)" d="M36.0621 630.562 Q36.0621 635.273 39.7542 638.01 Q43.4145 640.747 49.812 640.747 Q56.2095 640.747 59.9017 638.042 Q63.5619 635.304 63.5619 630.562 Q63.5619 625.883 59.8698 623.146 Q56.1777 620.409 49.812 620.409 Q43.4781 620.409 39.786 623.146 Q36.0621 625.883 36.0621 630.562 M31.0968 630.562 Q31.0968 622.923 36.0621 618.563 Q41.0273 614.202 49.812 614.202 Q58.5649 614.202 63.5619 618.563 Q68.5272 622.923 68.5272 630.562 Q68.5272 638.233 63.5619 642.593 Q58.5649 646.922 49.812 646.922 Q41.0273 646.922 36.0621 642.593 Q31.0968 638.233 31.0968 630.562 Z" fill="#000000" fill-rule="nonzero" fill-opacity="1" /><path clip-path="url(#clip010)" d="M67.6042 608.218 L62.7344 608.218 Q61.8432 602.426 57.8328 600.643 Q52.1991 598.479 37.7808 598.479 L31.9562 598.479 L31.9562 574.385 L67.6042 574.385 L67.6042 580.241 L36.635 580.241 L36.635 592.622 L40.168 592.622 Q53.9179 592.622 60.0926 595.423 Q66.6811 598.415 67.6042 608.218 Z" fill="#000000" fill-rule="nonzero" fill-opacity="1" /><path clip-path="url(#clip010)" d="M48.3161 532.339 L51.1806 532.339 L51.1806 559.266 Q57.2281 558.884 60.4109 555.638 Q63.5619 552.359 63.5619 546.535 Q63.5619 543.161 62.7344 540.01 Q61.9069 536.827 60.2518 533.708 L65.7899 533.708 Q67.1267 536.859 67.827 540.169 Q68.5272 543.479 68.5272 546.885 Q68.5272 555.415 63.5619 560.412 Q58.5967 565.377 50.1303 565.377 Q41.3774 565.377 36.2531 560.667 Q31.0968 555.924 31.0968 547.903 Q31.0968 540.71 35.7438 536.54 Q40.3589 532.339 48.3161 532.339 M46.5973 538.196 Q41.7912 538.259 38.9266 540.901 Q36.0621 543.511 36.0621 547.84 Q36.0621 552.741 38.8312 555.701 Q41.6002 558.629 46.6292 559.075 L46.5973 538.196 Z" fill="#000000" fill-rule="nonzero" fill-opacity="1" /><path clip-path="url(#clip010)" d="M51.1806 517.093 L62.9254 517.093 L62.9254 508.754 Q62.9254 504.744 61.4294 502.643 Q59.9017 500.542 57.0371 500.542 Q54.1725 500.542 52.6766 502.643 Q51.1806 504.744 51.1806 508.754 L51.1806 517.093 M36.635 517.093 L46.5018 517.093 L46.5018 509.391 Q46.5018 506.081 45.1969 503.98 Q43.8601 501.879 41.5048 501.879 Q39.1494 501.879 37.9081 503.98 Q36.635 506.081 36.635 509.391 L36.635 517.093 M31.9562 522.95 L31.9562 509.009 Q31.9562 502.739 34.2479 499.365 Q36.5395 495.991 40.7727 495.991 Q44.051 495.991 45.9926 497.71 Q47.9023 499.428 48.3797 502.802 Q49.1436 498.76 51.5626 496.532 Q53.9815 494.304 57.61 494.304 Q62.3843 494.304 64.9942 497.996 Q67.6042 501.656 67.6042 508.468 L67.6042 522.95 L31.9562 522.95 Z" fill="#000000" fill-rule="nonzero" fill-opacity="1" /><path clip-path="url(#clip010)" d="M62.9254 457.701 L62.9254 442.614 L31.9562 442.614 L31.9562 436.726 L67.6042 436.726 L67.6042 484.533 L31.9562 484.533 L31.9562 478.644 L62.9254 478.644 L62.9254 463.589 L31.9562 463.589 L31.9562 457.701 L62.9254 457.701 Z" fill="#000000" fill-rule="nonzero" fill-opacity="1" /><path clip-path="url(#clip010)" d="M31.9562 394.362 L67.6042 394.362 L67.6042 400.187 L38.9903 400.187 L67.6042 417.374 L67.6042 424.886 L31.9562 424.886 L31.9562 419.061 L60.5064 419.061 L31.9562 401.906 L31.9562 394.362 Z" fill="#000000" fill-rule="nonzero" fill-opacity="1" /><path clip-path="url(#clip010)" d="M31.9562 352.667 L49.3028 365.558 L67.6042 351.999 L67.6042 358.905 L53.5996 369.282 L67.6042 379.658 L67.6042 386.564 L48.9526 372.719 L31.9562 385.387 L31.9562 378.48 L44.6558 369.027 L31.9562 359.574 L31.9562 352.667 Z" fill="#000000" fill-rule="nonzero" fill-opacity="1" /><path clip-path="url(#clip010)" d="M59.5197 342.227 L59.5197 335.511 L64.9942 335.511 L75.1793 340.731 L75.1793 344.837 L64.9942 342.227 L59.5197 342.227 Z" fill="#000000" fill-rule="nonzero" fill-opacity="1" /><path clip-path="url(#clip010)" d="M46.6928 261.033 Q46.6928 263.802 49.0481 265.393 Q51.4034 266.953 55.6048 266.953 Q59.7425 266.953 62.1296 265.393 Q64.485 263.802 64.485 261.033 Q64.485 258.327 62.1296 256.768 Q59.7425 255.176 55.6048 255.176 Q51.4353 255.176 49.08 256.768 Q46.6928 258.327 46.6928 261.033 M42.6506 261.033 Q42.6506 256.004 46.1517 253.044 Q49.6529 250.084 55.6048 250.084 Q61.5567 250.084 65.0579 253.076 Q68.5272 256.036 68.5272 261.033 Q68.5272 266.125 65.0579 269.085 Q61.5567 272.045 55.6048 272.045 Q49.621 272.045 46.1517 269.085 Q42.6506 266.093 42.6506 261.033 M23.267 293.88 Q23.267 296.617 25.6542 298.208 Q28.0095 299.768 32.1472 299.768 Q36.3485 299.768 38.7038 298.208 Q41.0592 296.649 41.0592 293.88 Q41.0592 291.111 38.7038 289.551 Q36.3485 287.96 32.1472 287.96 Q28.0413 287.96 25.6542 289.551 Q23.267 291.142 23.267 293.88 M19.2248 265.139 L19.2248 260.046 L68.5272 289.774 L68.5272 294.866 L19.2248 265.139 M19.2248 293.88 Q19.2248 288.851 22.7259 285.859 Q26.1952 282.867 32.1472 282.867 Q38.1628 282.867 41.6321 285.859 Q45.1014 288.819 45.1014 293.88 Q45.1014 298.94 41.6321 301.901 Q38.1309 304.829 32.1472 304.829 Q26.2271 304.829 22.7259 301.869 Q19.2248 298.909 19.2248 293.88 Z" fill="#000000" fill-rule="nonzero" fill-opacity="1" /><path clip-path="url(#clip010)" d="M110.419 16.7545 L110.419 25.383 Q106.287 21.5346 101.588 19.6307 Q96.9292 17.7268 91.663 17.7268 Q81.2927 17.7268 75.7835 24.0867 Q70.2742 30.4061 70.2742 42.3968 Q70.2742 54.3469 75.7835 60.7069 Q81.2927 67.0263 91.663 67.0263 Q96.9292 67.0263 101.588 65.1223 Q106.287 63.2184 110.419 59.3701 L110.419 67.9175 Q106.125 70.8341 101.304 72.2924 Q96.5241 73.7508 91.1769 73.7508 Q77.4443 73.7508 69.5451 65.3654 Q61.6458 56.9395 61.6458 42.3968 Q61.6458 27.8135 69.5451 19.4281 Q77.4443 11.0023 91.1769 11.0023 Q96.6051 11.0023 101.385 12.4606 Q106.206 13.8784 110.419 16.7545 Z" fill="#000000" fill-rule="nonzero" fill-opacity="1" /><path clip-path="url(#clip010)" d="M129.944 65.7705 L129.944 89.8329 L122.45 89.8329 L122.45 27.2059 L129.944 27.2059 L129.944 34.0924 Q132.294 30.0415 135.858 28.0971 Q139.464 26.1121 144.446 26.1121 Q152.71 26.1121 157.855 32.6746 Q163.04 39.2371 163.04 49.9314 Q163.04 60.6258 157.855 67.1883 Q152.71 73.7508 144.446 73.7508 Q139.464 73.7508 135.858 71.8063 Q132.294 69.8214 129.944 65.7705 M155.303 49.9314 Q155.303 41.7081 151.9 37.0496 Q148.538 32.3505 142.623 32.3505 Q136.709 32.3505 133.306 37.0496 Q129.944 41.7081 129.944 49.9314 Q129.944 58.1548 133.306 62.8538 Q136.709 67.5124 142.623 67.5124 Q148.538 67.5124 151.9 62.8538 Q155.303 58.1548 155.303 49.9314 Z" fill="#000000" fill-rule="nonzero" fill-opacity="1" /><path clip-path="url(#clip010)" d="M196.014 49.7694 Q186.981 49.7694 183.497 51.8354 Q180.013 53.9013 180.013 58.8839 Q180.013 62.8538 182.606 65.2034 Q185.239 67.5124 189.735 67.5124 Q195.933 67.5124 199.66 63.1374 Q203.427 58.7219 203.427 51.4303 L203.427 49.7694 L196.014 49.7694 M210.881 46.6907 L210.881 72.576 L203.427 72.576 L203.427 65.6895 Q200.875 69.8214 197.068 71.8063 Q193.26 73.7508 187.75 73.7508 Q180.783 73.7508 176.651 69.8619 Q172.56 65.9325 172.56 59.3701 Q172.56 51.7138 177.664 47.825 Q182.808 43.9361 192.976 43.9361 L203.427 43.9361 L203.427 43.2069 Q203.427 38.0623 200.025 35.2672 Q196.662 32.4315 190.546 32.4315 Q186.657 32.4315 182.97 33.3632 Q179.284 34.295 175.881 36.1584 L175.881 29.2718 Q179.973 27.692 183.821 26.9223 Q187.669 26.1121 191.315 26.1121 Q201.159 26.1121 206.02 31.2163 Q210.881 36.3204 210.881 46.6907 Z" fill="#000000" fill-rule="nonzero" fill-opacity="1" /><path clip-path="url(#clip010)" d="M233.404 51.6733 L233.404 66.6212 L244.018 66.6212 Q249.122 66.6212 251.795 64.7172 Q254.469 62.7728 254.469 59.127 Q254.469 55.4812 251.795 53.5773 Q249.122 51.6733 244.018 51.6733 L233.404 51.6733 M233.404 33.1607 L233.404 45.7185 L243.207 45.7185 Q247.42 45.7185 250.094 44.0576 Q252.767 42.3563 252.767 39.3586 Q252.767 36.3609 250.094 34.7811 Q247.42 33.1607 243.207 33.1607 L233.404 33.1607 M225.95 27.2059 L243.693 27.2059 Q251.674 27.2059 255.968 30.1225 Q260.262 33.0392 260.262 38.4269 Q260.262 42.5993 258.074 45.0704 Q255.887 47.5009 251.593 48.1085 Q256.737 49.0808 259.573 52.1594 Q262.409 55.2381 262.409 59.8562 Q262.409 65.9325 257.71 69.2543 Q253.051 72.576 244.382 72.576 L225.95 72.576 L225.95 27.2059 Z" fill="#000000" fill-rule="nonzero" fill-opacity="1" /><path clip-path="url(#clip010)" d="M274.845 27.2059 L282.339 27.2059 L282.339 45.7185 L306.523 45.7185 L306.523 27.2059 L314.017 27.2059 L314.017 72.576 L306.523 72.576 L306.523 51.6733 L282.339 51.6733 L282.339 72.576 L274.845 72.576 L274.845 27.2059 Z" fill="#000000" fill-rule="nonzero" fill-opacity="1" /><path clip-path="url(#clip010)" d="M368.178 48.0275 L368.178 51.6733 L333.907 51.6733 Q334.393 59.3701 338.525 63.421 Q342.698 67.4314 350.111 67.4314 Q354.405 67.4314 358.415 66.3781 Q362.466 65.3249 366.436 63.2184 L366.436 70.267 Q362.425 71.9684 358.213 72.8596 Q354 73.7508 349.665 73.7508 Q338.809 73.7508 332.449 67.4314 Q326.129 61.1119 326.129 50.3365 Q326.129 39.1965 332.125 32.6746 Q338.161 26.1121 348.369 26.1121 Q357.524 26.1121 362.831 32.0264 Q368.178 37.9003 368.178 48.0275 M360.724 45.84 Q360.643 39.7232 357.281 36.0774 Q353.959 32.4315 348.45 32.4315 Q342.211 32.4315 338.444 35.9558 Q334.717 39.4801 334.15 45.8805 L360.724 45.84 Z" fill="#000000" fill-rule="nonzero" fill-opacity="1" /><path clip-path="url(#clip010)" d="M380.128 27.2059 L387.622 27.2059 L387.622 45.7185 L411.806 45.7185 L411.806 27.2059 L419.3 27.2059 L419.3 72.576 L411.806 72.576 L411.806 51.6733 L387.622 51.6733 L387.622 72.576 L380.128 72.576 L380.128 27.2059 Z" fill="#000000" fill-rule="nonzero" fill-opacity="1" /><path clip-path="url(#clip010)" d="M473.218 27.2059 L473.218 72.576 L465.805 72.576 L465.805 36.1584 L443.93 72.576 L434.37 72.576 L434.37 27.2059 L441.783 27.2059 L441.783 63.5425 L463.617 27.2059 L473.218 27.2059 Z" fill="#000000" fill-rule="nonzero" fill-opacity="1" /><path clip-path="url(#clip010)" d="M527.378 48.0275 L527.378 51.6733 L493.108 51.6733 Q493.594 59.3701 497.726 63.421 Q501.898 67.4314 509.311 67.4314 Q513.605 67.4314 517.616 66.3781 Q521.667 65.3249 525.636 63.2184 L525.636 70.267 Q521.626 71.9684 517.413 72.8596 Q513.2 73.7508 508.866 73.7508 Q498.009 73.7508 491.649 67.4314 Q485.33 61.1119 485.33 50.3365 Q485.33 39.1965 491.325 32.6746 Q497.361 26.1121 507.569 26.1121 Q516.724 26.1121 522.031 32.0264 Q527.378 37.9003 527.378 48.0275 M519.925 45.84 Q519.844 39.7232 516.481 36.0774 Q513.16 32.4315 507.65 32.4315 Q501.412 32.4315 497.645 35.9558 Q493.918 39.4801 493.351 45.8805 L519.925 45.84 Z" fill="#000000" fill-rule="nonzero" fill-opacity="1" /><path clip-path="url(#clip010)" d="M598.634 28.9478 L598.634 35.9153 Q595.474 34.1734 592.274 33.3227 Q589.114 32.4315 585.873 32.4315 Q578.622 32.4315 574.612 37.0496 Q570.601 41.6271 570.601 49.9314 Q570.601 58.2358 574.612 62.8538 Q578.622 67.4314 585.873 67.4314 Q589.114 67.4314 592.274 66.5807 Q595.474 65.6895 598.634 63.9476 L598.634 70.8341 Q595.514 72.2924 592.152 73.0216 Q588.83 73.7508 585.063 73.7508 Q574.814 73.7508 568.779 67.3098 Q562.743 60.8689 562.743 49.9314 Q562.743 38.832 568.819 32.472 Q574.936 26.1121 585.549 26.1121 Q588.993 26.1121 592.274 26.8413 Q595.555 27.5299 598.634 28.9478 Z" fill="#000000" fill-rule="nonzero" fill-opacity="1" /><path clip-path="url(#clip010)" d="M632.58 27.2059 L676.046 27.2059 L676.046 33.1607 L657.979 33.1607 L657.979 72.576 L650.647 72.576 L650.647 33.1607 L632.58 33.1607 L632.58 27.2059 Z" fill="#000000" fill-rule="nonzero" fill-opacity="1" /><path clip-path="url(#clip010)" d="M725.103 48.0275 L725.103 51.6733 L690.832 51.6733 Q691.318 59.3701 695.45 63.421 Q699.623 67.4314 707.036 67.4314 Q711.33 67.4314 715.34 66.3781 Q719.391 65.3249 723.361 63.2184 L723.361 70.267 Q719.351 71.9684 715.138 72.8596 Q710.925 73.7508 706.59 73.7508 Q695.734 73.7508 689.374 67.4314 Q683.055 61.1119 683.055 50.3365 Q683.055 39.1965 689.05 32.6746 Q695.086 26.1121 705.294 26.1121 Q714.449 26.1121 719.756 32.0264 Q725.103 37.9003 725.103 48.0275 M717.649 45.84 Q717.568 39.7232 714.206 36.0774 Q710.884 32.4315 705.375 32.4315 Q699.137 32.4315 695.369 35.9558 Q691.642 39.4801 691.075 45.8805 L717.649 45.84 Z" fill="#000000" fill-rule="nonzero" fill-opacity="1" /><path clip-path="url(#clip010)" d="M754.918 32.4315 Q748.922 32.4315 745.438 37.1306 Q741.955 41.7891 741.955 49.9314 Q741.955 58.0738 745.398 62.7728 Q748.882 67.4314 754.918 67.4314 Q760.872 67.4314 764.356 62.7323 Q767.84 58.0333 767.84 49.9314 Q767.84 41.8701 764.356 37.1711 Q760.872 32.4315 754.918 32.4315 M754.918 26.1121 Q764.64 26.1121 770.189 32.4315 Q775.739 38.7509 775.739 49.9314 Q775.739 61.0714 770.189 67.4314 Q764.64 73.7508 754.918 73.7508 Q745.155 73.7508 739.605 67.4314 Q734.096 61.0714 734.096 49.9314 Q734.096 38.7509 739.605 32.4315 Q745.155 26.1121 754.918 26.1121 Z" fill="#000000" fill-rule="nonzero" fill-opacity="1" /><path clip-path="url(#clip010)" d="M795.305 65.7705 L795.305 89.8329 L787.811 89.8329 L787.811 27.2059 L795.305 27.2059 L795.305 34.0924 Q797.655 30.0415 801.219 28.0971 Q804.825 26.1121 809.807 26.1121 Q818.071 26.1121 823.216 32.6746 Q828.401 39.2371 828.401 49.9314 Q828.401 60.6258 823.216 67.1883 Q818.071 73.7508 809.807 73.7508 Q804.825 73.7508 801.219 71.8063 Q797.655 69.8214 795.305 65.7705 M820.664 49.9314 Q820.664 41.7081 817.261 37.0496 Q813.899 32.3505 807.984 32.3505 Q802.07 32.3505 798.667 37.0496 Q795.305 41.7081 795.305 49.9314 Q795.305 58.1548 798.667 62.8538 Q802.07 67.5124 807.984 67.5124 Q813.899 67.5124 817.261 62.8538 Q820.664 58.1548 820.664 49.9314 Z" fill="#000000" fill-rule="nonzero" fill-opacity="1" /><path clip-path="url(#clip010)" d="M879.321 27.2059 L879.321 72.576 L871.908 72.576 L871.908 36.1584 L850.033 72.576 L840.473 72.576 L840.473 27.2059 L847.886 27.2059 L847.886 63.5425 L869.72 27.2059 L879.321 27.2059 Z" fill="#000000" fill-rule="nonzero" fill-opacity="1" /><path clip-path="url(#clip010)" d="M933.481 48.0275 L933.481 51.6733 L899.211 51.6733 Q899.697 59.3701 903.829 63.421 Q908.001 67.4314 915.414 67.4314 Q919.708 67.4314 923.719 66.3781 Q927.77 65.3249 931.74 63.2184 L931.74 70.267 Q927.729 71.9684 923.516 72.8596 Q919.303 73.7508 914.969 73.7508 Q904.112 73.7508 897.752 67.4314 Q891.433 61.1119 891.433 50.3365 Q891.433 39.1965 897.428 32.6746 Q903.464 26.1121 913.673 26.1121 Q922.828 26.1121 928.134 32.0264 Q933.481 37.9003 933.481 48.0275 M926.028 45.84 Q925.947 39.7232 922.584 36.0774 Q919.263 32.4315 913.754 32.4315 Q907.515 32.4315 903.748 35.9558 Q900.021 39.4801 899.454 45.8805 L926.028 45.84 Z" fill="#000000" fill-rule="nonzero" fill-opacity="1" /><path clip-path="url(#clip010)" d="M984.28 27.2059 L984.28 72.576 L976.867 72.576 L976.867 36.1584 L954.992 72.576 L945.432 72.576 L945.432 27.2059 L952.845 27.2059 L952.845 63.5425 L974.679 27.2059 L984.28 27.2059 M952.197 9.54393 L956.977 9.54393 Q957.422 12.5821 959.367 14.1215 Q961.352 15.6203 964.876 15.6203 Q968.36 15.6203 970.304 14.1215 Q972.249 12.6226 972.775 9.54393 L977.555 9.54393 Q977.15 15.3367 973.95 18.2534 Q970.75 21.17 964.876 21.17 Q959.002 21.17 955.802 18.2534 Q952.602 15.3367 952.197 9.54393 Z" fill="#000000" fill-rule="nonzero" fill-opacity="1" /><path clip-path="url(#clip010)" d="M1025.72 27.2059 L1033.13 27.2059 L1033.13 48.5136 L1054.16 27.2059 L1063.31 27.2059 L1045.98 44.7463 L1065.54 72.576 L1057.2 72.576 L1041.11 49.6884 L1033.13 57.7902 L1033.13 72.576 L1025.72 72.576 L1025.72 27.2059 Z" fill="#000000" fill-rule="nonzero" fill-opacity="1" /><path clip-path="url(#clip010)" d="M1093.69 32.4315 Q1087.7 32.4315 1084.22 37.1306 Q1080.73 41.7891 1080.73 49.9314 Q1080.73 58.0738 1084.18 62.7728 Q1087.66 67.4314 1093.69 67.4314 Q1099.65 67.4314 1103.13 62.7323 Q1106.62 58.0333 1106.62 49.9314 Q1106.62 41.8701 1103.13 37.1711 Q1099.65 32.4315 1093.69 32.4315 M1093.69 26.1121 Q1103.42 26.1121 1108.97 32.4315 Q1114.52 38.7509 1114.52 49.9314 Q1114.52 61.0714 1108.97 67.4314 Q1103.42 73.7508 1093.69 73.7508 Q1083.93 73.7508 1078.38 67.4314 Q1072.87 61.0714 1072.87 49.9314 Q1072.87 38.7509 1078.38 32.4315 Q1083.93 26.1121 1093.69 26.1121 Z" fill="#000000" fill-rule="nonzero" fill-opacity="1" /><path clip-path="url(#clip010)" d="M1122.13 72.576 L1122.13 66.3781 Q1129.5 65.2439 1131.77 60.1397 Q1134.53 52.9696 1134.53 34.619 L1134.53 27.2059 L1165.19 27.2059 L1165.19 72.576 L1157.74 72.576 L1157.74 33.1607 L1141.98 33.1607 L1141.98 37.6572 Q1141.98 55.1571 1138.42 63.0159 Q1134.61 71.4012 1122.13 72.576 Z" fill="#000000" fill-rule="nonzero" fill-opacity="1" /><path clip-path="url(#clip010)" d="M1175.16 72.576 L1175.16 66.3781 Q1182.53 65.2439 1184.8 60.1397 Q1187.55 52.9696 1187.55 34.619 L1187.55 27.2059 L1218.22 27.2059 L1218.22 72.576 L1210.77 72.576 L1210.77 33.1607 L1195.01 33.1607 L1195.01 37.6572 Q1195.01 55.1571 1191.44 63.0159 Q1187.64 71.4012 1175.16 72.576 Z" fill="#000000" fill-rule="nonzero" fill-opacity="1" /><path clip-path="url(#clip010)" d="M1271.73 48.0275 L1271.73 51.6733 L1237.46 51.6733 Q1237.95 59.3701 1242.08 63.421 Q1246.25 67.4314 1253.66 67.4314 Q1257.96 67.4314 1261.97 66.3781 Q1266.02 65.3249 1269.99 63.2184 L1269.99 70.267 Q1265.98 71.9684 1261.77 72.8596 Q1257.55 73.7508 1253.22 73.7508 Q1242.36 73.7508 1236 67.4314 Q1229.68 61.1119 1229.68 50.3365 Q1229.68 39.1965 1235.68 32.6746 Q1241.71 26.1121 1251.92 26.1121 Q1261.08 26.1121 1266.38 32.0264 Q1271.73 37.9003 1271.73 48.0275 M1264.28 45.84 Q1264.2 39.7232 1260.83 36.0774 Q1257.51 32.4315 1252 32.4315 Q1245.77 32.4315 1242 35.9558 Q1238.27 39.4801 1237.7 45.8805 L1264.28 45.84 Z" fill="#000000" fill-rule="nonzero" fill-opacity="1" /><path clip-path="url(#clip010)" d="M1283.68 27.2059 L1291.1 27.2059 L1291.1 48.5136 L1312.12 27.2059 L1321.27 27.2059 L1303.94 44.7463 L1323.5 72.576 L1315.16 72.576 L1299.08 49.6884 L1291.1 57.7902 L1291.1 72.576 L1283.68 72.576 L1283.68 27.2059 Z" fill="#000000" fill-rule="nonzero" fill-opacity="1" /><path clip-path="url(#clip010)" d="M1328.69 27.2059 L1372.15 27.2059 L1372.15 33.1607 L1354.09 33.1607 L1354.09 72.576 L1346.75 72.576 L1346.75 33.1607 L1328.69 33.1607 L1328.69 27.2059 Z" fill="#000000" fill-rule="nonzero" fill-opacity="1" /><path clip-path="url(#clip010)" d="M1420.97 27.2059 L1420.97 72.576 L1413.55 72.576 L1413.55 36.1584 L1391.68 72.576 L1382.12 72.576 L1382.12 27.2059 L1389.53 27.2059 L1389.53 63.5425 L1411.37 27.2059 L1420.97 27.2059 Z" fill="#000000" fill-rule="nonzero" fill-opacity="1" /><path clip-path="url(#clip010)" d="M1443.49 51.6733 L1443.49 66.6212 L1454.1 66.6212 Q1459.21 66.6212 1461.88 64.7172 Q1464.55 62.7728 1464.55 59.127 Q1464.55 55.4812 1461.88 53.5773 Q1459.21 51.6733 1454.1 51.6733 L1443.49 51.6733 M1443.49 33.1607 L1443.49 45.7185 L1453.29 45.7185 Q1457.51 45.7185 1460.18 44.0576 Q1462.85 42.3563 1462.85 39.3586 Q1462.85 36.3609 1460.18 34.7811 Q1457.51 33.1607 1453.29 33.1607 L1443.49 33.1607 M1436.04 27.2059 L1453.78 27.2059 Q1461.76 27.2059 1466.05 30.1225 Q1470.35 33.0392 1470.35 38.4269 Q1470.35 42.5993 1468.16 45.0704 Q1465.97 47.5009 1461.68 48.1085 Q1466.82 49.0808 1469.66 52.1594 Q1472.49 55.2381 1472.49 59.8562 Q1472.49 65.9325 1467.8 69.2543 Q1463.14 72.576 1454.47 72.576 L1436.04 72.576 L1436.04 27.2059 Z" fill="#000000" fill-rule="nonzero" fill-opacity="1" /><path clip-path="url(#clip010)" d="M1484.93 27.2059 L1492.43 27.2059 L1492.43 45.7185 L1516.61 45.7185 L1516.61 27.2059 L1524.1 27.2059 L1524.1 72.576 L1516.61 72.576 L1516.61 51.6733 L1492.43 51.6733 L1492.43 72.576 L1484.93 72.576 L1484.93 27.2059 Z" fill="#000000" fill-rule="nonzero" fill-opacity="1" /><path clip-path="url(#clip010)" d="M1557.04 32.4315 Q1551.04 32.4315 1547.56 37.1306 Q1544.07 41.7891 1544.07 49.9314 Q1544.07 58.0738 1547.52 62.7728 Q1551 67.4314 1557.04 67.4314 Q1562.99 67.4314 1566.48 62.7323 Q1569.96 58.0333 1569.96 49.9314 Q1569.96 41.8701 1566.48 37.1711 Q1562.99 32.4315 1557.04 32.4315 M1557.04 26.1121 Q1566.76 26.1121 1572.31 32.4315 Q1577.86 38.7509 1577.86 49.9314 Q1577.86 61.0714 1572.31 67.4314 Q1566.76 73.7508 1557.04 73.7508 Q1547.27 73.7508 1541.72 67.4314 Q1536.22 61.0714 1536.22 49.9314 Q1536.22 38.7509 1541.72 32.4315 Q1547.27 26.1121 1557.04 26.1121 Z" fill="#000000" fill-rule="nonzero" fill-opacity="1" /><path clip-path="url(#clip010)" d="M1589.93 72.576 L1589.93 27.2059 L1621.93 27.2059 L1621.93 33.1607 L1597.42 33.1607 L1597.42 72.576 L1589.93 72.576 Z" fill="#000000" fill-rule="nonzero" fill-opacity="1" /><path clip-path="url(#clip010)" d="M1651.38 32.4315 Q1645.39 32.4315 1641.9 37.1306 Q1638.42 41.7891 1638.42 49.9314 Q1638.42 58.0738 1641.86 62.7728 Q1645.35 67.4314 1651.38 67.4314 Q1657.34 67.4314 1660.82 62.7323 Q1664.31 58.0333 1664.31 49.9314 Q1664.31 41.8701 1660.82 37.1711 Q1657.34 32.4315 1651.38 32.4315 M1651.38 26.1121 Q1661.1 26.1121 1666.65 32.4315 Q1672.2 38.7509 1672.2 49.9314 Q1672.2 61.0714 1666.65 67.4314 Q1661.1 73.7508 1651.38 73.7508 Q1641.62 73.7508 1636.07 67.4314 Q1630.56 61.0714 1630.56 49.9314 Q1630.56 38.7509 1636.07 32.4315 Q1641.62 26.1121 1651.38 26.1121 Z" fill="#000000" fill-rule="nonzero" fill-opacity="1" /><path clip-path="url(#clip010)" d="M1749.5 27.2059 L1749.5 72.576 L1742.08 72.576 L1742.08 36.1584 L1720.21 72.576 L1710.65 72.576 L1710.65 27.2059 L1718.06 27.2059 L1718.06 63.5425 L1739.89 27.2059 L1749.5 27.2059 Z" fill="#000000" fill-rule="nonzero" fill-opacity="1" /><path clip-path="url(#clip010)" d="M1764.56 27.2059 L1775.46 27.2059 L1788.34 57.5877 L1801.27 27.2059 L1812.08 27.2059 L1812.08 72.576 L1804.59 72.576 L1804.59 34.3355 L1792.07 63.8666 L1784.62 63.8666 L1772.06 34.3355 L1772.06 72.576 L1764.56 72.576 L1764.56 27.2059 Z" fill="#000000" fill-rule="nonzero" fill-opacity="1" /><path clip-path="url(#clip010)" d="M1827.15 27.2059 L1838.05 27.2059 L1850.93 57.5877 L1863.85 27.2059 L1874.67 27.2059 L1874.67 72.576 L1867.17 72.576 L1867.17 34.3355 L1854.66 63.8666 L1847.2 63.8666 L1834.65 34.3355 L1834.65 72.576 L1827.15 72.576 L1827.15 27.2059 Z" fill="#000000" fill-rule="nonzero" fill-opacity="1" /><path clip-path="url(#clip010)" d="M1908.9 76.7889 Q1905.74 84.8907 1902.74 87.3618 Q1899.74 89.8329 1894.72 89.8329 L1888.77 89.8329 L1888.77 83.5945 L1893.14 83.5945 Q1896.22 83.5945 1897.92 82.1361 Q1899.62 80.6778 1901.69 75.2496 L1903.02 71.8468 L1884.67 27.2059 L1892.57 27.2059 L1906.75 62.6918 L1920.93 27.2059 L1928.83 27.2059 L1908.9 76.7889 Z" fill="#000000" fill-rule="nonzero" fill-opacity="1" /><path clip-path="url(#clip010)" d="M1938.83 27.2059 L1946.33 27.2059 L1946.33 45.7185 L1970.51 45.7185 L1970.51 27.2059 L1978.01 27.2059 L1978.01 72.576 L1970.51 72.576 L1970.51 51.6733 L1946.33 51.6733 L1946.33 72.576 L1938.83 72.576 L1938.83 27.2059 Z" fill="#000000" fill-rule="nonzero" fill-opacity="1" /><path clip-path="url(#clip010)" d="M2031.92 27.2059 L2031.92 72.576 L2024.51 72.576 L2024.51 36.1584 L2002.64 72.576 L1993.08 72.576 L1993.08 27.2059 L2000.49 27.2059 L2000.49 63.5425 L2022.32 27.2059 L2031.92 27.2059 Z" fill="#000000" fill-rule="nonzero" fill-opacity="1" /><path clip-path="url(#clip010)" d="M2041.89 27.2059 L2085.36 27.2059 L2085.36 33.1607 L2067.29 33.1607 L2067.29 72.576 L2059.96 72.576 L2059.96 33.1607 L2041.89 33.1607 L2041.89 27.2059 Z" fill="#000000" fill-rule="nonzero" fill-opacity="1" /><path clip-path="url(#clip010)" d="M2134.41 48.0275 L2134.41 51.6733 L2100.14 51.6733 Q2100.63 59.3701 2104.76 63.421 Q2108.93 67.4314 2116.35 67.4314 Q2120.64 67.4314 2124.65 66.3781 Q2128.7 65.3249 2132.67 63.2184 L2132.67 70.267 Q2128.66 71.9684 2124.45 72.8596 Q2120.23 73.7508 2115.9 73.7508 Q2105.04 73.7508 2098.68 67.4314 Q2092.36 61.1119 2092.36 50.3365 Q2092.36 39.1965 2098.36 32.6746 Q2104.4 26.1121 2114.6 26.1121 Q2123.76 26.1121 2129.07 32.0264 Q2134.41 37.9003 2134.41 48.0275 M2126.96 45.84 Q2126.88 39.7232 2123.52 36.0774 Q2120.19 32.4315 2114.68 32.4315 Q2108.45 32.4315 2104.68 35.9558 Q2100.95 39.4801 2100.38 45.8805 L2126.96 45.84 Z" fill="#000000" fill-rule="nonzero" fill-opacity="1" /><path clip-path="url(#clip010)" d="M2141.26 27.2059 L2184.72 27.2059 L2184.72 33.1607 L2166.66 33.1607 L2166.66 72.576 L2159.33 72.576 L2159.33 33.1607 L2141.26 33.1607 L2141.26 27.2059 Z" fill="#000000" fill-rule="nonzero" fill-opacity="1" /><path clip-path="url(#clip010)" d="M2215.59 49.7694 Q2206.56 49.7694 2203.08 51.8354 Q2199.59 53.9013 2199.59 58.8839 Q2199.59 62.8538 2202.18 65.2034 Q2204.82 67.5124 2209.31 67.5124 Q2215.51 67.5124 2219.24 63.1374 Q2223.01 58.7219 2223.01 51.4303 L2223.01 49.7694 L2215.59 49.7694 M2230.46 46.6907 L2230.46 72.576 L2223.01 72.576 L2223.01 65.6895 Q2220.45 69.8214 2216.65 71.8063 Q2212.84 73.7508 2207.33 73.7508 Q2200.36 73.7508 2196.23 69.8619 Q2192.14 65.9325 2192.14 59.3701 Q2192.14 51.7138 2197.24 47.825 Q2202.39 43.9361 2212.55 43.9361 L2223.01 43.9361 L2223.01 43.2069 Q2223.01 38.0623 2219.6 35.2672 Q2216.24 32.4315 2210.12 32.4315 Q2206.24 32.4315 2202.55 33.3632 Q2198.86 34.295 2195.46 36.1584 L2195.46 29.2718 Q2199.55 27.692 2203.4 26.9223 Q2207.25 26.1121 2210.89 26.1121 Q2220.74 26.1121 2225.6 31.2163 Q2230.46 36.3204 2230.46 46.6907 Z" fill="#000000" fill-rule="nonzero" fill-opacity="1" /><circle clip-path="url(#clip012)" cx="359.767" cy="1124.57" r="14.4" fill="#0000ff" fill-rule="evenodd" fill-opacity="1" stroke="#000000" stroke-opacity="1" stroke-width="2.688"/>
<circle clip-path="url(#clip012)" cx="332.962" cy="1133.83" r="14.4" fill="#0000ff" fill-rule="evenodd" fill-opacity="1" stroke="#000000" stroke-opacity="1" stroke-width="2.688"/>
<circle clip-path="url(#clip012)" cx="306.969" cy="1139.75" r="14.4" fill="#0000ff" fill-rule="evenodd" fill-opacity="1" stroke="#000000" stroke-opacity="1" stroke-width="2.688"/>
<circle clip-path="url(#clip012)" cx="279.351" cy="1143.68" r="14.4" fill="#0000ff" fill-rule="evenodd" fill-opacity="1" stroke="#000000" stroke-opacity="1" stroke-width="2.688"/>
<circle clip-path="url(#clip012)" cx="493.793" cy="791.582" r="14.4" fill="#0000ff" fill-rule="evenodd" fill-opacity="1" stroke="#000000" stroke-opacity="1" stroke-width="2.688"/>
<circle clip-path="url(#clip012)" cx="440.183" cy="968.751" r="14.4" fill="#0000ff" fill-rule="evenodd" fill-opacity="1" stroke="#000000" stroke-opacity="1" stroke-width="2.688"/>
<circle clip-path="url(#clip012)" cx="388.197" cy="1091.9" r="14.4" fill="#0000ff" fill-rule="evenodd" fill-opacity="1" stroke="#000000" stroke-opacity="1" stroke-width="2.688"/>
<circle clip-path="url(#clip012)" cx="332.962" cy="1133.44" r="14.4" fill="#0000ff" fill-rule="evenodd" fill-opacity="1" stroke="#000000" stroke-opacity="1" stroke-width="2.688"/>
<circle clip-path="url(#clip012)" cx="627.819" cy="338.467" r="14.4" fill="#0000ff" fill-rule="evenodd" fill-opacity="1" stroke="#000000" stroke-opacity="1" stroke-width="2.688"/>
<circle clip-path="url(#clip012)" cx="547.403" cy="463.314" r="14.4" fill="#0000ff" fill-rule="evenodd" fill-opacity="1" stroke="#000000" stroke-opacity="1" stroke-width="2.688"/>
<circle clip-path="url(#clip012)" cx="469.425" cy="728.185" r="14.4" fill="#0000ff" fill-rule="evenodd" fill-opacity="1" stroke="#000000" stroke-opacity="1" stroke-width="2.688"/>
<circle clip-path="url(#clip012)" cx="386.572" cy="1087.91" r="14.4" fill="#0000ff" fill-rule="evenodd" fill-opacity="1" stroke="#000000" stroke-opacity="1" stroke-width="2.688"/>
<circle clip-path="url(#clip012)" cx="761.845" cy="219.165" r="14.4" fill="#0000ff" fill-rule="evenodd" fill-opacity="1" stroke="#000000" stroke-opacity="1" stroke-width="2.688"/>
<circle clip-path="url(#clip012)" cx="654.624" cy="278.138" r="14.4" fill="#0000ff" fill-rule="evenodd" fill-opacity="1" stroke="#000000" stroke-opacity="1" stroke-width="2.688"/>
<circle clip-path="url(#clip012)" cx="550.652" cy="416.542" r="14.4" fill="#0000ff" fill-rule="evenodd" fill-opacity="1" stroke="#000000" stroke-opacity="1" stroke-width="2.688"/>
<circle clip-path="url(#clip012)" cx="440.183" cy="834.389" r="14.4" fill="#0000ff" fill-rule="evenodd" fill-opacity="1" stroke="#000000" stroke-opacity="1" stroke-width="2.688"/>
<circle clip-path="url(#clip012)" cx="449.118" cy="986.743" r="14.4" fill="#0000ff" fill-rule="evenodd" fill-opacity="1" stroke="#000000" stroke-opacity="1" stroke-width="2.688"/>
<circle clip-path="url(#clip012)" cx="404.442" cy="1074.51" r="14.4" fill="#0000ff" fill-rule="evenodd" fill-opacity="1" stroke="#000000" stroke-opacity="1" stroke-width="2.688"/>
<circle clip-path="url(#clip012)" cx="361.121" cy="1120.47" r="14.4" fill="#0000ff" fill-rule="evenodd" fill-opacity="1" stroke="#000000" stroke-opacity="1" stroke-width="2.688"/>
<circle clip-path="url(#clip012)" cx="315.092" cy="1138.14" r="14.4" fill="#0000ff" fill-rule="evenodd" fill-opacity="1" stroke="#000000" stroke-opacity="1" stroke-width="2.688"/>
<circle clip-path="url(#clip012)" cx="672.494" cy="281.374" r="14.4" fill="#0000ff" fill-rule="evenodd" fill-opacity="1" stroke="#000000" stroke-opacity="1" stroke-width="2.688"/>
<circle clip-path="url(#clip012)" cx="583.144" cy="376.168" r="14.4" fill="#0000ff" fill-rule="evenodd" fill-opacity="1" stroke="#000000" stroke-opacity="1" stroke-width="2.688"/>
<circle clip-path="url(#clip012)" cx="496.501" cy="588.265" r="14.4" fill="#0000ff" fill-rule="evenodd" fill-opacity="1" stroke="#000000" stroke-opacity="1" stroke-width="2.688"/>
<circle clip-path="url(#clip012)" cx="404.442" cy="1037.38" r="14.4" fill="#0000ff" fill-rule="evenodd" fill-opacity="1" stroke="#000000" stroke-opacity="1" stroke-width="2.688"/>
<circle clip-path="url(#clip012)" cx="895.871" cy="179.676" r="14.4" fill="#0000ff" fill-rule="evenodd" fill-opacity="1" stroke="#000000" stroke-opacity="1" stroke-width="2.688"/>
<circle clip-path="url(#clip012)" cx="761.845" cy="211.23" r="14.4" fill="#0000ff" fill-rule="evenodd" fill-opacity="1" stroke="#000000" stroke-opacity="1" stroke-width="2.688"/>
<circle clip-path="url(#clip012)" cx="631.88" cy="292.718" r="14.4" fill="#0000ff" fill-rule="evenodd" fill-opacity="1" stroke="#000000" stroke-opacity="1" stroke-width="2.688"/>
<circle clip-path="url(#clip012)" cx="493.793" cy="562.676" r="14.4" fill="#0000ff" fill-rule="evenodd" fill-opacity="1" stroke="#000000" stroke-opacity="1" stroke-width="2.688"/>
<circle clip-path="url(#clip012)" cx="1119.25" cy="158.567" r="14.4" fill="#0000ff" fill-rule="evenodd" fill-opacity="1" stroke="#000000" stroke-opacity="1" stroke-width="2.688"/>
<circle clip-path="url(#clip012)" cx="940.546" cy="170.31" r="14.4" fill="#0000ff" fill-rule="evenodd" fill-opacity="1" stroke="#000000" stroke-opacity="1" stroke-width="2.688"/>
<circle clip-path="url(#clip012)" cx="767.26" cy="207.442" r="14.4" fill="#0000ff" fill-rule="evenodd" fill-opacity="1" stroke="#000000" stroke-opacity="1" stroke-width="2.688"/>
<circle clip-path="url(#clip012)" cx="583.144" cy="351.528" r="14.4" fill="#0000ff" fill-rule="evenodd" fill-opacity="1" stroke="#000000" stroke-opacity="1" stroke-width="2.688"/>
<circle clip-path="url(#clip012)" cx="538.468" cy="579.986" r="14.4" fill="#0000ff" fill-rule="evenodd" fill-opacity="1" stroke="#000000" stroke-opacity="1" stroke-width="2.688"/>
<circle clip-path="url(#clip012)" cx="475.923" cy="785.007" r="14.4" fill="#0000ff" fill-rule="evenodd" fill-opacity="1" stroke="#000000" stroke-opacity="1" stroke-width="2.688"/>
<circle clip-path="url(#clip012)" cx="415.273" cy="1024.41" r="14.4" fill="#0000ff" fill-rule="evenodd" fill-opacity="1" stroke="#000000" stroke-opacity="1" stroke-width="2.688"/>
<circle clip-path="url(#clip012)" cx="350.832" cy="1126.02" r="14.4" fill="#0000ff" fill-rule="evenodd" fill-opacity="1" stroke="#000000" stroke-opacity="1" stroke-width="2.688"/>
<circle clip-path="url(#clip012)" cx="851.196" cy="188.921" r="14.4" fill="#0000ff" fill-rule="evenodd" fill-opacity="1" stroke="#000000" stroke-opacity="1" stroke-width="2.688"/>
<circle clip-path="url(#clip012)" cx="726.105" cy="227.572" r="14.4" fill="#0000ff" fill-rule="evenodd" fill-opacity="1" stroke="#000000" stroke-opacity="1" stroke-width="2.688"/>
<circle clip-path="url(#clip012)" cx="604.804" cy="323.969" r="14.4" fill="#0000ff" fill-rule="evenodd" fill-opacity="1" stroke="#000000" stroke-opacity="1" stroke-width="2.688"/>
<circle clip-path="url(#clip012)" cx="475.923" cy="634.935" r="14.4" fill="#0000ff" fill-rule="evenodd" fill-opacity="1" stroke="#000000" stroke-opacity="1" stroke-width="2.688"/>
<circle clip-path="url(#clip012)" cx="1163.92" cy="156.826" r="14.4" fill="#0000ff" fill-rule="evenodd" fill-opacity="1" stroke="#000000" stroke-opacity="1" stroke-width="2.688"/>
<circle clip-path="url(#clip012)" cx="976.286" cy="166.458" r="14.4" fill="#0000ff" fill-rule="evenodd" fill-opacity="1" stroke="#000000" stroke-opacity="1" stroke-width="2.688"/>
<circle clip-path="url(#clip012)" cx="794.336" cy="198.392" r="14.4" fill="#0000ff" fill-rule="evenodd" fill-opacity="1" stroke="#000000" stroke-opacity="1" stroke-width="2.688"/>
<circle clip-path="url(#clip012)" cx="601.014" cy="326.623" r="14.4" fill="#0000ff" fill-rule="evenodd" fill-opacity="1" stroke="#000000" stroke-opacity="1" stroke-width="2.688"/>
<circle clip-path="url(#clip012)" cx="1476.65" cy="151.819" r="14.4" fill="#0000ff" fill-rule="evenodd" fill-opacity="1" stroke="#000000" stroke-opacity="1" stroke-width="2.688"/>
<circle clip-path="url(#clip012)" cx="1226.47" cy="154.019" r="14.4" fill="#0000ff" fill-rule="evenodd" fill-opacity="1" stroke="#000000" stroke-opacity="1" stroke-width="2.688"/>
<circle clip-path="url(#clip012)" cx="983.868" cy="165.389" r="14.4" fill="#0000ff" fill-rule="evenodd" fill-opacity="1" stroke="#000000" stroke-opacity="1" stroke-width="2.688"/>
<circle clip-path="url(#clip012)" cx="726.105" cy="224.743" r="14.4" fill="#0000ff" fill-rule="evenodd" fill-opacity="1" stroke="#000000" stroke-opacity="1" stroke-width="2.688"/>
<circle clip-path="url(#clip012)" cx="672.494" cy="281.374" r="14.4" fill="#0000ff" fill-rule="evenodd" fill-opacity="1" stroke="#000000" stroke-opacity="1" stroke-width="2.688"/>
<circle clip-path="url(#clip012)" cx="583.144" cy="376.168" r="14.4" fill="#0000ff" fill-rule="evenodd" fill-opacity="1" stroke="#000000" stroke-opacity="1" stroke-width="2.688"/>
<circle clip-path="url(#clip012)" cx="496.501" cy="588.265" r="14.4" fill="#0000ff" fill-rule="evenodd" fill-opacity="1" stroke="#000000" stroke-opacity="1" stroke-width="2.688"/>
<circle clip-path="url(#clip012)" cx="404.442" cy="1037.38" r="14.4" fill="#0000ff" fill-rule="evenodd" fill-opacity="1" stroke="#000000" stroke-opacity="1" stroke-width="2.688"/>
<circle clip-path="url(#clip012)" cx="1119.25" cy="158.567" r="14.4" fill="#0000ff" fill-rule="evenodd" fill-opacity="1" stroke="#000000" stroke-opacity="1" stroke-width="2.688"/>
<circle clip-path="url(#clip012)" cx="940.546" cy="170.31" r="14.4" fill="#0000ff" fill-rule="evenodd" fill-opacity="1" stroke="#000000" stroke-opacity="1" stroke-width="2.688"/>
<circle clip-path="url(#clip012)" cx="767.26" cy="207.442" r="14.4" fill="#0000ff" fill-rule="evenodd" fill-opacity="1" stroke="#000000" stroke-opacity="1" stroke-width="2.688"/>
<circle clip-path="url(#clip012)" cx="583.144" cy="351.528" r="14.4" fill="#0000ff" fill-rule="evenodd" fill-opacity="1" stroke="#000000" stroke-opacity="1" stroke-width="2.688"/>
<circle clip-path="url(#clip012)" cx="1566" cy="151.391" r="14.4" fill="#0000ff" fill-rule="evenodd" fill-opacity="1" stroke="#000000" stroke-opacity="1" stroke-width="2.688"/>
<circle clip-path="url(#clip012)" cx="1297.95" cy="152.741" r="14.4" fill="#0000ff" fill-rule="evenodd" fill-opacity="1" stroke="#000000" stroke-opacity="1" stroke-width="2.688"/>
<circle clip-path="url(#clip012)" cx="1038.02" cy="161.225" r="14.4" fill="#0000ff" fill-rule="evenodd" fill-opacity="1" stroke="#000000" stroke-opacity="1" stroke-width="2.688"/>
<circle clip-path="url(#clip012)" cx="761.845" cy="209.331" r="14.4" fill="#0000ff" fill-rule="evenodd" fill-opacity="1" stroke="#000000" stroke-opacity="1" stroke-width="2.688"/>
<circle clip-path="url(#clip012)" cx="2012.75" cy="150.715" r="14.4" fill="#0000ff" fill-rule="evenodd" fill-opacity="1" stroke="#000000" stroke-opacity="1" stroke-width="2.688"/>
<circle clip-path="url(#clip012)" cx="1655.35" cy="150.518" r="14.4" fill="#0000ff" fill-rule="evenodd" fill-opacity="1" stroke="#000000" stroke-opacity="1" stroke-width="2.688"/>
<circle clip-path="url(#clip012)" cx="1308.78" cy="152.453" r="14.4" fill="#0000ff" fill-rule="evenodd" fill-opacity="1" stroke="#000000" stroke-opacity="1" stroke-width="2.688"/>
<circle clip-path="url(#clip012)" cx="940.546" cy="169.838" r="14.4" fill="#0000ff" fill-rule="evenodd" fill-opacity="1" stroke="#000000" stroke-opacity="1" stroke-width="2.688"/>
<path clip-path="url(#clip010)" d="M1426.92 1138.38 L2003.51 1138.38 L2003.51 1034.7 L1426.92 1034.7  Z" fill="#ffffff" fill-rule="evenodd" fill-opacity="1"/>
<polyline clip-path="url(#clip010)" style="stroke:#000000; stroke-linecap:round; stroke-linejoin:round; stroke-width:4; stroke-opacity:1; fill:none" points="1426.92,1138.38 2003.51,1138.38 2003.51,1034.7 1426.92,1034.7 1426.92,1138.38 "/>
<circle clip-path="url(#clip010)" cx="1508.59" cy="1086.54" r="20.48" fill="#0000ff" fill-rule="evenodd" fill-opacity="1" stroke="#000000" stroke-opacity="1" stroke-width="3.82293"/>
<path clip-path="url(#clip010)" d="M1590.25 1069.26 L1597.22 1069.26 L1606.04 1092.78 L1614.9 1069.26 L1621.87 1069.26 L1621.87 1103.82 L1617.31 1103.82 L1617.31 1073.47 L1608.4 1097.18 L1603.7 1097.18 L1594.79 1073.47 L1594.79 1103.82 L1590.25 1103.82 L1590.25 1069.26 Z" fill="#000000" fill-rule="nonzero" fill-opacity="1" /><path clip-path="url(#clip010)" d="M1641.01 1080.88 Q1637.59 1080.88 1635.6 1083.56 Q1633.6 1086.23 1633.6 1090.88 Q1633.6 1095.53 1635.57 1098.22 Q1637.56 1100.88 1641.01 1100.88 Q1644.41 1100.88 1646.41 1098.19 Q1648.4 1095.51 1648.4 1090.88 Q1648.4 1086.27 1646.41 1083.59 Q1644.41 1080.88 1641.01 1080.88 M1641.01 1077.27 Q1646.57 1077.27 1649.74 1080.88 Q1652.91 1084.49 1652.91 1090.88 Q1652.91 1097.25 1649.74 1100.88 Q1646.57 1104.49 1641.01 1104.49 Q1635.43 1104.49 1632.26 1100.88 Q1629.11 1097.25 1629.11 1090.88 Q1629.11 1084.49 1632.26 1080.88 Q1635.43 1077.27 1641.01 1077.27 Z" fill="#000000" fill-rule="nonzero" fill-opacity="1" /><path clip-path="url(#clip010)" d="M1665.76 1100.42 L1678.12 1100.42 L1678.12 1081.3 L1669.16 1081.3 L1669.16 1084.54 Q1669.16 1094.07 1666.43 1099.17 L1665.76 1100.42 M1659.58 1100.42 Q1661.68 1099.49 1662.61 1097.52 Q1664.88 1092.64 1664.88 1082.8 L1664.88 1077.89 L1682.4 1077.89 L1682.4 1100.42 L1685.8 1100.42 L1685.8 1110.37 L1682.4 1110.37 L1682.4 1103.82 L1661.38 1103.82 L1661.38 1110.37 L1657.98 1110.37 L1657.98 1100.42 L1659.58 1100.42 Z" fill="#000000" fill-rule="nonzero" fill-opacity="1" /><path clip-path="url(#clip010)" d="M1714.92 1089.79 L1714.92 1091.87 L1695.34 1091.87 Q1695.62 1096.27 1697.98 1098.59 Q1700.36 1100.88 1704.6 1100.88 Q1707.05 1100.88 1709.34 1100.28 Q1711.66 1099.68 1713.93 1098.47 L1713.93 1102.5 Q1711.64 1103.47 1709.23 1103.98 Q1706.82 1104.49 1704.34 1104.49 Q1698.14 1104.49 1694.51 1100.88 Q1690.9 1097.27 1690.9 1091.11 Q1690.9 1084.75 1694.32 1081.02 Q1697.77 1077.27 1703.6 1077.27 Q1708.84 1077.27 1711.87 1080.65 Q1714.92 1084 1714.92 1089.79 M1710.66 1088.54 Q1710.62 1085.05 1708.7 1082.96 Q1706.8 1080.88 1703.65 1080.88 Q1700.09 1080.88 1697.93 1082.89 Q1695.8 1084.91 1695.48 1088.56 L1710.66 1088.54 Z" fill="#000000" fill-rule="nonzero" fill-opacity="1" /><path clip-path="url(#clip010)" d="M1719.21 1103.82 L1719.21 1100.28 Q1723.42 1099.63 1724.72 1096.71 Q1726.29 1092.62 1726.29 1082.13 L1726.29 1077.89 L1743.81 1077.89 L1743.81 1103.82 L1739.55 1103.82 L1739.55 1081.3 L1730.55 1081.3 L1730.55 1083.87 Q1730.55 1093.87 1728.51 1098.36 Q1726.34 1103.15 1719.21 1103.82 Z" fill="#000000" fill-rule="nonzero" fill-opacity="1" /><path clip-path="url(#clip010)" d="M1774.25 1077.89 L1774.25 1103.82 L1770.02 1103.82 L1770.02 1083.01 L1757.52 1103.82 L1752.05 1103.82 L1752.05 1077.89 L1756.29 1077.89 L1756.29 1098.66 L1768.77 1077.89 L1774.25 1077.89 Z" fill="#000000" fill-rule="nonzero" fill-opacity="1" /><path clip-path="url(#clip010)" d="M1787.15 1099.93 L1787.15 1113.68 L1782.86 1113.68 L1782.86 1077.89 L1787.15 1077.89 L1787.15 1081.83 Q1788.49 1079.51 1790.52 1078.4 Q1792.59 1077.27 1795.43 1077.27 Q1800.15 1077.27 1803.09 1081.02 Q1806.06 1084.77 1806.06 1090.88 Q1806.06 1096.99 1803.09 1100.74 Q1800.15 1104.49 1795.43 1104.49 Q1792.59 1104.49 1790.52 1103.38 Q1788.49 1102.25 1787.15 1099.93 M1801.64 1090.88 Q1801.64 1086.18 1799.69 1083.52 Q1797.77 1080.83 1794.39 1080.83 Q1791.01 1080.83 1789.07 1083.52 Q1787.15 1086.18 1787.15 1090.88 Q1787.15 1095.58 1789.07 1098.26 Q1791.01 1100.93 1794.39 1100.93 Q1797.77 1100.93 1799.69 1098.26 Q1801.64 1095.58 1801.64 1090.88 Z" fill="#000000" fill-rule="nonzero" fill-opacity="1" /><path clip-path="url(#clip010)" d="M1823.16 1080.88 Q1819.74 1080.88 1817.75 1083.56 Q1815.76 1086.23 1815.76 1090.88 Q1815.76 1095.53 1817.72 1098.22 Q1819.71 1100.88 1823.16 1100.88 Q1826.57 1100.88 1828.56 1098.19 Q1830.55 1095.51 1830.55 1090.88 Q1830.55 1086.27 1828.56 1083.59 Q1826.57 1080.88 1823.16 1080.88 M1823.16 1077.27 Q1828.72 1077.27 1831.89 1080.88 Q1835.06 1084.49 1835.06 1090.88 Q1835.06 1097.25 1831.89 1100.88 Q1828.72 1104.49 1823.16 1104.49 Q1817.59 1104.49 1814.41 1100.88 Q1811.27 1097.25 1811.27 1090.88 Q1811.27 1084.49 1814.41 1080.88 Q1817.59 1077.27 1823.16 1077.27 Z" fill="#000000" fill-rule="nonzero" fill-opacity="1" /><path clip-path="url(#clip010)" d="M1846.22 1091.87 L1846.22 1100.42 L1852.28 1100.42 Q1855.2 1100.42 1856.73 1099.33 Q1858.26 1098.22 1858.26 1096.13 Q1858.26 1094.05 1856.73 1092.96 Q1855.2 1091.87 1852.28 1091.87 L1846.22 1091.87 M1846.22 1081.3 L1846.22 1088.47 L1851.82 1088.47 Q1854.23 1088.47 1855.76 1087.52 Q1857.28 1086.55 1857.28 1084.84 Q1857.28 1083.12 1855.76 1082.22 Q1854.23 1081.3 1851.82 1081.3 L1846.22 1081.3 M1841.96 1077.89 L1852.1 1077.89 Q1856.66 1077.89 1859.11 1079.56 Q1861.57 1081.23 1861.57 1084.31 Q1861.57 1086.69 1860.32 1088.1 Q1859.07 1089.49 1856.61 1089.84 Q1859.55 1090.39 1861.17 1092.15 Q1862.79 1093.91 1862.79 1096.55 Q1862.79 1100.02 1860.11 1101.92 Q1857.45 1103.82 1852.49 1103.82 L1841.96 1103.82 L1841.96 1077.89 Z" fill="#000000" fill-rule="nonzero" fill-opacity="1" /><path clip-path="url(#clip010)" d="M1881.84 1090.79 Q1876.68 1090.79 1874.69 1091.97 Q1872.7 1093.15 1872.7 1096 Q1872.7 1098.26 1874.18 1099.61 Q1875.69 1100.93 1878.26 1100.93 Q1881.8 1100.93 1883.93 1098.43 Q1886.08 1095.9 1886.08 1091.74 L1886.08 1090.79 L1881.84 1090.79 M1890.34 1089.03 L1890.34 1103.82 L1886.08 1103.82 L1886.08 1099.88 Q1884.62 1102.25 1882.45 1103.38 Q1880.27 1104.49 1877.12 1104.49 Q1873.14 1104.49 1870.78 1102.27 Q1868.44 1100.02 1868.44 1096.27 Q1868.44 1091.9 1871.36 1089.68 Q1874.3 1087.45 1880.11 1087.45 L1886.08 1087.45 L1886.08 1087.04 Q1886.08 1084.1 1884.14 1082.5 Q1882.21 1080.88 1878.72 1080.88 Q1876.5 1080.88 1874.39 1081.41 Q1872.28 1081.94 1870.34 1083.01 L1870.34 1079.07 Q1872.68 1078.17 1874.88 1077.73 Q1877.08 1077.27 1879.16 1077.27 Q1884.78 1077.27 1887.56 1080.19 Q1890.34 1083.1 1890.34 1089.03 Z" fill="#000000" fill-rule="nonzero" fill-opacity="1" /><path clip-path="url(#clip010)" d="M1898.95 1077.89 L1903.23 1077.89 L1903.23 1088.47 L1917.05 1088.47 L1917.05 1077.89 L1921.33 1077.89 L1921.33 1103.82 L1917.05 1103.82 L1917.05 1091.87 L1903.23 1091.87 L1903.23 1103.82 L1898.95 1103.82 L1898.95 1077.89 Z" fill="#000000" fill-rule="nonzero" fill-opacity="1" /><path clip-path="url(#clip010)" d="M1952.14 1077.89 L1952.14 1103.82 L1947.91 1103.82 L1947.91 1083.01 L1935.41 1103.82 L1929.95 1103.82 L1929.95 1077.89 L1934.18 1077.89 L1934.18 1098.66 L1946.66 1077.89 L1952.14 1077.89 Z" fill="#000000" fill-rule="nonzero" fill-opacity="1" /><path clip-path="url(#clip010)" d="M1983.09 1089.79 L1983.09 1091.87 L1963.51 1091.87 Q1963.79 1096.27 1966.15 1098.59 Q1968.53 1100.88 1972.77 1100.88 Q1975.22 1100.88 1977.51 1100.28 Q1979.83 1099.68 1982.1 1098.47 L1982.1 1102.5 Q1979.81 1103.47 1977.4 1103.98 Q1974.99 1104.49 1972.51 1104.49 Q1966.31 1104.49 1962.68 1100.88 Q1959.07 1097.27 1959.07 1091.11 Q1959.07 1084.75 1962.49 1081.02 Q1965.94 1077.27 1971.77 1077.27 Q1977.01 1077.27 1980.04 1080.65 Q1983.09 1084 1983.09 1089.79 M1978.83 1088.54 Q1978.79 1085.05 1976.87 1082.96 Q1974.97 1080.88 1971.82 1080.88 Q1968.26 1080.88 1966.1 1082.89 Q1963.97 1084.91 1963.65 1088.56 L1978.83 1088.54 Z" fill="#000000" fill-rule="nonzero" fill-opacity="1" /></svg>
