<?xml version="1.0" encoding="utf-8"?>
<svg xmlns="http://www.w3.org/2000/svg" xmlns:xlink="http://www.w3.org/1999/xlink" width="800" height="400" viewBox="0 0 3200 1600">
<defs>
  <clipPath id="clip540">
    <rect x="0" y="0" width="3200" height="1600"/>
  </clipPath>
</defs>
<path clip-path="url(#clip540)" d="M0 1600 L3200 1600 L3200 0 L0 0  Z" fill="#ffffff" fill-rule="evenodd" fill-opacity="1"/>
<defs>
  <clipPath id="clip541">
    <rect x="228" y="108" width="2925" height="1336"/>
  </clipPath>
</defs>
<path clip-path="url(#clip540)" d="M253.229 1443.7 L3152.76 1443.7 L3152.76 108.352 L253.229 108.352  Z" fill="#ffffff" fill-rule="evenodd" fill-opacity="1"/>
<defs>
  <clipPath id="clip542">
    <rect x="253" y="108" width="2901" height="1336"/>
  </clipPath>
</defs>
<polyline clip-path="url(#clip542)" style="stroke:#000000; stroke-linecap:round; stroke-linejoin:round; stroke-width:2; stroke-opacity:0.1; fill:none" points="335.291,1443.7 335.291,108.352 "/>
<polyline clip-path="url(#clip542)" style="stroke:#000000; stroke-linecap:round; stroke-linejoin:round; stroke-width:2; stroke-opacity:0.1; fill:none" points="1019.14,1443.7 1019.14,108.352 "/>
<polyline clip-path="url(#clip542)" style="stroke:#000000; stroke-linecap:round; stroke-linejoin:round; stroke-width:2; stroke-opacity:0.1; fill:none" points="1702.99,1443.7 1702.99,108.352 "/>
<polyline clip-path="url(#clip542)" style="stroke:#000000; stroke-linecap:round; stroke-linejoin:round; stroke-width:2; stroke-opacity:0.1; fill:none" points="2386.84,1443.7 2386.84,108.352 "/>
<polyline clip-path="url(#clip542)" style="stroke:#000000; stroke-linecap:round; stroke-linejoin:round; stroke-width:2; stroke-opacity:0.1; fill:none" points="3070.69,1443.7 3070.69,108.352 "/>
<polyline clip-path="url(#clip542)" style="stroke:#000000; stroke-linecap:round; stroke-linejoin:round; stroke-width:2; stroke-opacity:0.1; fill:none" points="253.229,1194.14 3152.76,1194.14 "/>
<polyline clip-path="url(#clip542)" style="stroke:#000000; stroke-linecap:round; stroke-linejoin:round; stroke-width:2; stroke-opacity:0.1; fill:none" points="253.229,876.502 3152.76,876.502 "/>
<polyline clip-path="url(#clip542)" style="stroke:#000000; stroke-linecap:round; stroke-linejoin:round; stroke-width:2; stroke-opacity:0.1; fill:none" points="253.229,558.859 3152.76,558.859 "/>
<polyline clip-path="url(#clip542)" style="stroke:#000000; stroke-linecap:round; stroke-linejoin:round; stroke-width:2; stroke-opacity:0.1; fill:none" points="253.229,241.216 3152.76,241.216 "/>
<polyline clip-path="url(#clip540)" style="stroke:#000000; stroke-linecap:round; stroke-linejoin:round; stroke-width:4; stroke-opacity:1; fill:none" points="253.229,1443.7 3152.76,1443.7 "/>
<polyline clip-path="url(#clip540)" style="stroke:#000000; stroke-linecap:round; stroke-linejoin:round; stroke-width:4; stroke-opacity:1; fill:none" points="335.291,1443.7 335.291,1424.8 "/>
<polyline clip-path="url(#clip540)" style="stroke:#000000; stroke-linecap:round; stroke-linejoin:round; stroke-width:4; stroke-opacity:1; fill:none" points="1019.14,1443.7 1019.14,1424.8 "/>
<polyline clip-path="url(#clip540)" style="stroke:#000000; stroke-linecap:round; stroke-linejoin:round; stroke-width:4; stroke-opacity:1; fill:none" points="1702.99,1443.7 1702.99,1424.8 "/>
<polyline clip-path="url(#clip540)" style="stroke:#000000; stroke-linecap:round; stroke-linejoin:round; stroke-width:4; stroke-opacity:1; fill:none" points="2386.84,1443.7 2386.84,1424.8 "/>
<polyline clip-path="url(#clip540)" style="stroke:#000000; stroke-linecap:round; stroke-linejoin:round; stroke-width:4; stroke-opacity:1; fill:none" points="3070.69,1443.7 3070.69,1424.8 "/>
<path clip-path="url(#clip540)" d="M335.291 1481.02 Q331.68 1481.02 329.851 1484.58 Q328.045 1488.12 328.045 1495.25 Q328.045 1502.36 329.851 1505.93 Q331.68 1509.47 335.291 1509.47 Q338.925 1509.47 340.73 1505.93 Q342.559 1502.36 342.559 1495.25 Q342.559 1488.12 340.73 1484.58 Q338.925 1481.02 335.291 1481.02 M335.291 1477.31 Q341.101 1477.31 344.156 1481.92 Q347.235 1486.5 347.235 1495.25 Q347.235 1503.98 344.156 1508.59 Q341.101 1513.17 335.291 1513.17 Q329.48 1513.17 326.402 1508.59 Q323.346 1503.98 323.346 1495.25 Q323.346 1486.5 326.402 1481.92 Q329.48 1477.31 335.291 1477.31 Z" fill="#000000" fill-rule="nonzero" fill-opacity="1" /><path clip-path="url(#clip540)" d="M993.829 1508.56 L1001.47 1508.56 L1001.47 1482.2 L993.158 1483.87 L993.158 1479.61 L1001.42 1477.94 L1006.1 1477.94 L1006.1 1508.56 L1013.74 1508.56 L1013.74 1512.5 L993.829 1512.5 L993.829 1508.56 Z" fill="#000000" fill-rule="nonzero" fill-opacity="1" /><path clip-path="url(#clip540)" d="M1033.18 1481.02 Q1029.57 1481.02 1027.74 1484.58 Q1025.94 1488.12 1025.94 1495.25 Q1025.94 1502.36 1027.74 1505.93 Q1029.57 1509.47 1033.18 1509.47 Q1036.81 1509.47 1038.62 1505.93 Q1040.45 1502.36 1040.45 1495.25 Q1040.45 1488.12 1038.62 1484.58 Q1036.81 1481.02 1033.18 1481.02 M1033.18 1477.31 Q1038.99 1477.31 1042.05 1481.92 Q1045.13 1486.5 1045.13 1495.25 Q1045.13 1503.98 1042.05 1508.59 Q1038.99 1513.17 1033.18 1513.17 Q1027.37 1513.17 1024.29 1508.59 Q1021.24 1503.98 1021.24 1495.25 Q1021.24 1486.5 1024.29 1481.92 Q1027.37 1477.31 1033.18 1477.31 Z" fill="#000000" fill-rule="nonzero" fill-opacity="1" /><path clip-path="url(#clip540)" d="M1681.77 1508.56 L1698.08 1508.56 L1698.08 1512.5 L1676.14 1512.5 L1676.14 1508.56 Q1678.8 1505.81 1683.39 1501.18 Q1687.99 1496.53 1689.17 1495.19 Q1691.42 1492.66 1692.3 1490.93 Q1693.2 1489.17 1693.2 1487.48 Q1693.2 1484.72 1691.26 1482.99 Q1689.33 1481.25 1686.23 1481.25 Q1684.03 1481.25 1681.58 1482.01 Q1679.15 1482.78 1676.37 1484.33 L1676.37 1479.61 Q1679.2 1478.47 1681.65 1477.89 Q1684.1 1477.31 1686.14 1477.31 Q1691.51 1477.31 1694.71 1480 Q1697.9 1482.69 1697.9 1487.18 Q1697.9 1489.31 1697.09 1491.23 Q1696.3 1493.12 1694.2 1495.72 Q1693.62 1496.39 1690.52 1499.61 Q1687.41 1502.8 1681.77 1508.56 Z" fill="#000000" fill-rule="nonzero" fill-opacity="1" /><path clip-path="url(#clip540)" d="M1717.9 1481.02 Q1714.29 1481.02 1712.46 1484.58 Q1710.65 1488.12 1710.65 1495.25 Q1710.65 1502.36 1712.46 1505.93 Q1714.29 1509.47 1717.9 1509.47 Q1721.53 1509.47 1723.34 1505.93 Q1725.17 1502.36 1725.17 1495.25 Q1725.17 1488.12 1723.34 1484.58 Q1721.53 1481.02 1717.9 1481.02 M1717.9 1477.31 Q1723.71 1477.31 1726.77 1481.92 Q1729.84 1486.5 1729.84 1495.25 Q1729.84 1503.98 1726.77 1508.59 Q1723.71 1513.17 1717.9 1513.17 Q1712.09 1513.17 1709.01 1508.59 Q1705.96 1503.98 1705.96 1495.25 Q1705.96 1486.5 1709.01 1481.92 Q1712.09 1477.31 1717.9 1477.31 Z" fill="#000000" fill-rule="nonzero" fill-opacity="1" /><path clip-path="url(#clip540)" d="M2375.69 1493.87 Q2379.04 1494.58 2380.92 1496.85 Q2382.82 1499.12 2382.82 1502.45 Q2382.82 1507.57 2379.3 1510.37 Q2375.78 1513.17 2369.3 1513.17 Q2367.12 1513.17 2364.81 1512.73 Q2362.51 1512.31 2360.06 1511.46 L2360.06 1506.94 Q2362.01 1508.08 2364.32 1508.66 Q2366.63 1509.24 2369.16 1509.24 Q2373.56 1509.24 2375.85 1507.5 Q2378.16 1505.76 2378.16 1502.45 Q2378.16 1499.4 2376.01 1497.69 Q2373.88 1495.95 2370.06 1495.95 L2366.03 1495.95 L2366.03 1492.11 L2370.25 1492.11 Q2373.69 1492.11 2375.52 1490.74 Q2377.35 1489.35 2377.35 1486.76 Q2377.35 1484.1 2375.45 1482.69 Q2373.58 1481.25 2370.06 1481.25 Q2368.14 1481.25 2365.94 1481.67 Q2363.74 1482.08 2361.1 1482.96 L2361.1 1478.8 Q2363.76 1478.06 2366.08 1477.69 Q2368.42 1477.31 2370.48 1477.31 Q2375.8 1477.31 2378.9 1479.75 Q2382.01 1482.15 2382.01 1486.27 Q2382.01 1489.14 2380.36 1491.13 Q2378.72 1493.1 2375.69 1493.87 Z" fill="#000000" fill-rule="nonzero" fill-opacity="1" /><path clip-path="url(#clip540)" d="M2401.68 1481.02 Q2398.07 1481.02 2396.24 1484.58 Q2394.44 1488.12 2394.44 1495.25 Q2394.44 1502.36 2396.24 1505.93 Q2398.07 1509.47 2401.68 1509.47 Q2405.32 1509.47 2407.12 1505.93 Q2408.95 1502.36 2408.95 1495.25 Q2408.95 1488.12 2407.12 1484.58 Q2405.32 1481.02 2401.68 1481.02 M2401.68 1477.31 Q2407.49 1477.31 2410.55 1481.92 Q2413.63 1486.5 2413.63 1495.25 Q2413.63 1503.98 2410.55 1508.59 Q2407.49 1513.17 2401.68 1513.17 Q2395.87 1513.17 2392.79 1508.59 Q2389.74 1503.98 2389.74 1495.25 Q2389.74 1486.5 2392.79 1481.92 Q2395.87 1477.31 2401.68 1477.31 Z" fill="#000000" fill-rule="nonzero" fill-opacity="1" /><path clip-path="url(#clip540)" d="M3058.87 1482.01 L3047.06 1500.46 L3058.87 1500.46 L3058.87 1482.01 M3057.64 1477.94 L3063.52 1477.94 L3063.52 1500.46 L3068.45 1500.46 L3068.45 1504.35 L3063.52 1504.35 L3063.52 1512.5 L3058.87 1512.5 L3058.87 1504.35 L3043.26 1504.35 L3043.26 1499.84 L3057.64 1477.94 Z" fill="#000000" fill-rule="nonzero" fill-opacity="1" /><path clip-path="url(#clip540)" d="M3086.18 1481.02 Q3082.57 1481.02 3080.74 1484.58 Q3078.93 1488.12 3078.93 1495.25 Q3078.93 1502.36 3080.74 1505.93 Q3082.57 1509.47 3086.18 1509.47 Q3089.81 1509.47 3091.62 1505.93 Q3093.45 1502.36 3093.45 1495.25 Q3093.45 1488.12 3091.62 1484.58 Q3089.81 1481.02 3086.18 1481.02 M3086.18 1477.31 Q3091.99 1477.31 3095.05 1481.92 Q3098.12 1486.5 3098.12 1495.25 Q3098.12 1503.98 3095.05 1508.59 Q3091.99 1513.17 3086.18 1513.17 Q3080.37 1513.17 3077.29 1508.59 Q3074.24 1503.98 3074.24 1495.25 Q3074.24 1486.5 3077.29 1481.92 Q3080.37 1477.31 3086.18 1477.31 Z" fill="#000000" fill-rule="nonzero" fill-opacity="1" /><path clip-path="url(#clip540)" d="M1522.54 1577.87 L1522.54 1595.28 L1532.85 1595.28 Q1538.04 1595.28 1540.52 1593.15 Q1543.04 1590.98 1543.04 1586.56 Q1543.04 1582.1 1540.52 1580 Q1538.04 1577.87 1532.85 1577.87 L1522.54 1577.87 M1522.54 1558.33 L1522.54 1572.65 L1532.06 1572.65 Q1536.77 1572.65 1539.06 1570.9 Q1541.38 1569.12 1541.38 1565.49 Q1541.38 1561.89 1539.06 1560.11 Q1536.77 1558.33 1532.06 1558.33 L1522.54 1558.33 M1516.11 1553.04 L1532.53 1553.04 Q1539.89 1553.04 1543.87 1556.1 Q1547.84 1559.15 1547.84 1564.79 Q1547.84 1569.15 1545.81 1571.73 Q1543.77 1574.31 1539.82 1574.94 Q1544.57 1575.96 1547.18 1579.21 Q1549.82 1582.42 1549.82 1587.26 Q1549.82 1593.63 1545.49 1597.09 Q1541.16 1600.56 1533.17 1600.56 L1516.11 1600.56 L1516.11 1553.04 Z" fill="#000000" fill-rule="nonzero" fill-opacity="1" /><path clip-path="url(#clip540)" d="M1566.24 1595.22 L1566.24 1614.12 L1560.35 1614.12 L1560.35 1564.92 L1566.24 1564.92 L1566.24 1570.33 Q1568.09 1567.14 1570.89 1565.62 Q1573.72 1564.06 1577.64 1564.06 Q1584.13 1564.06 1588.17 1569.21 Q1592.24 1574.37 1592.24 1582.77 Q1592.24 1591.17 1588.17 1596.33 Q1584.13 1601.49 1577.64 1601.49 Q1573.72 1601.49 1570.89 1599.96 Q1568.09 1598.4 1566.24 1595.22 M1586.17 1582.77 Q1586.17 1576.31 1583.49 1572.65 Q1580.85 1568.96 1576.2 1568.96 Q1571.56 1568.96 1568.88 1572.65 Q1566.24 1576.31 1566.24 1582.77 Q1566.24 1589.23 1568.88 1592.92 Q1571.56 1596.59 1576.2 1596.59 Q1580.85 1596.59 1583.49 1592.92 Q1586.17 1589.23 1586.17 1582.77 Z" fill="#000000" fill-rule="nonzero" fill-opacity="1" /><path clip-path="url(#clip540)" d="M1632.44 1581.28 L1632.44 1584.14 L1605.52 1584.14 Q1605.9 1590.19 1609.15 1593.37 Q1612.42 1596.52 1618.25 1596.52 Q1621.62 1596.52 1624.77 1595.69 Q1627.96 1594.87 1631.08 1593.21 L1631.08 1598.75 Q1627.92 1600.09 1624.61 1600.79 Q1621.3 1601.49 1617.9 1601.49 Q1609.37 1601.49 1604.37 1596.52 Q1599.41 1591.56 1599.41 1583.09 Q1599.41 1574.34 1604.12 1569.21 Q1608.86 1564.06 1616.88 1564.06 Q1624.07 1564.06 1628.24 1568.7 Q1632.44 1573.32 1632.44 1581.28 M1626.59 1579.56 Q1626.52 1574.75 1623.88 1571.89 Q1621.27 1569.02 1616.94 1569.02 Q1612.04 1569.02 1609.08 1571.79 Q1606.15 1574.56 1605.71 1579.59 L1626.59 1579.56 Z" fill="#000000" fill-rule="nonzero" fill-opacity="1" /><path clip-path="url(#clip540)" d="M1641.83 1564.92 L1650.4 1564.92 L1660.52 1588.79 L1670.67 1564.92 L1679.17 1564.92 L1679.17 1600.56 L1673.28 1600.56 L1673.28 1570.52 L1663.45 1593.72 L1657.59 1593.72 L1647.72 1570.52 L1647.72 1600.56 L1641.83 1600.56 L1641.83 1564.92 Z" fill="#000000" fill-rule="nonzero" fill-opacity="1" /><path clip-path="url(#clip540)" d="M1697.12 1575.2 Q1697.12 1577.84 1699.16 1579.33 Q1701.19 1580.83 1704.98 1580.83 L1712.87 1580.83 L1712.87 1569.59 L1704.98 1569.59 Q1701.19 1569.59 1699.16 1571.06 Q1697.12 1572.52 1697.12 1575.2 M1688.78 1600.56 L1699.67 1584.94 Q1695.97 1584.11 1693.52 1581.94 Q1691.07 1579.75 1691.07 1575.2 Q1691.07 1570.04 1694.48 1567.49 Q1697.92 1564.92 1704.82 1564.92 L1718.76 1564.92 L1718.76 1600.56 L1712.87 1600.56 L1712.87 1585.51 L1705.59 1585.51 L1695.08 1600.56 L1688.78 1600.56 Z" fill="#000000" fill-rule="nonzero" fill-opacity="1" /><path clip-path="url(#clip540)" d="M1731.94 1592.48 L1738.66 1592.48 L1738.66 1597.95 L1733.44 1608.14 L1729.33 1608.14 L1731.94 1597.95 L1731.94 1592.48 Z" fill="#000000" fill-rule="nonzero" fill-opacity="1" /><path clip-path="url(#clip540)" d="M1779.84 1595.89 L1796.84 1595.89 L1796.84 1569.59 L1784.52 1569.59 L1784.52 1574.05 Q1784.52 1587.16 1780.77 1594.17 L1779.84 1595.89 M1771.34 1595.89 Q1774.24 1594.61 1775.51 1591.91 Q1778.63 1585.19 1778.63 1571.66 L1778.63 1564.92 L1802.73 1564.92 L1802.73 1595.89 L1807.41 1595.89 L1807.41 1609.57 L1802.73 1609.57 L1802.73 1600.56 L1773.83 1600.56 L1773.83 1609.57 L1769.15 1609.57 L1769.15 1595.89 L1771.34 1595.89 Z" fill="#000000" fill-rule="nonzero" fill-opacity="1" /><path clip-path="url(#clip540)" d="M1816.73 1564.92 L1822.62 1564.92 L1822.62 1579.46 L1841.62 1579.46 L1841.62 1564.92 L1847.51 1564.92 L1847.51 1600.56 L1841.62 1600.56 L1841.62 1584.14 L1822.62 1584.14 L1822.62 1600.56 L1816.73 1600.56 L1816.73 1564.92 Z" fill="#000000" fill-rule="nonzero" fill-opacity="1" /><path clip-path="url(#clip540)" d="M1889.87 1564.92 L1889.87 1600.56 L1884.05 1600.56 L1884.05 1571.95 L1866.86 1600.56 L1859.35 1600.56 L1859.35 1564.92 L1865.17 1564.92 L1865.17 1593.47 L1882.33 1564.92 L1889.87 1564.92 Z" fill="#000000" fill-rule="nonzero" fill-opacity="1" /><polyline clip-path="url(#clip540)" style="stroke:#000000; stroke-linecap:round; stroke-linejoin:round; stroke-width:4; stroke-opacity:1; fill:none" points="253.229,1443.7 253.229,108.352 "/>
<polyline clip-path="url(#clip540)" style="stroke:#000000; stroke-linecap:round; stroke-linejoin:round; stroke-width:4; stroke-opacity:1; fill:none" points="253.229,1194.14 272.126,1194.14 "/>
<polyline clip-path="url(#clip540)" style="stroke:#000000; stroke-linecap:round; stroke-linejoin:round; stroke-width:4; stroke-opacity:1; fill:none" points="253.229,876.502 272.126,876.502 "/>
<polyline clip-path="url(#clip540)" style="stroke:#000000; stroke-linecap:round; stroke-linejoin:round; stroke-width:4; stroke-opacity:1; fill:none" points="253.229,558.859 272.126,558.859 "/>
<polyline clip-path="url(#clip540)" style="stroke:#000000; stroke-linecap:round; stroke-linejoin:round; stroke-width:4; stroke-opacity:1; fill:none" points="253.229,241.216 272.126,241.216 "/>
<path clip-path="url(#clip540)" d="M100.763 1213.94 L108.402 1213.94 L108.402 1187.57 L100.092 1189.24 L100.092 1184.98 L108.356 1183.31 L113.031 1183.31 L113.031 1213.94 L120.67 1213.94 L120.67 1217.87 L100.763 1217.87 L100.763 1213.94 Z" fill="#000000" fill-rule="nonzero" fill-opacity="1" /><path clip-path="url(#clip540)" d="M140.115 1186.39 Q136.504 1186.39 134.675 1189.96 Q132.869 1193.5 132.869 1200.63 Q132.869 1207.73 134.675 1211.3 Q136.504 1214.84 140.115 1214.84 Q143.749 1214.84 145.554 1211.3 Q147.383 1207.73 147.383 1200.63 Q147.383 1193.5 145.554 1189.96 Q143.749 1186.39 140.115 1186.39 M140.115 1182.69 Q145.925 1182.69 148.98 1187.29 Q152.059 1191.88 152.059 1200.63 Q152.059 1209.35 148.98 1213.96 Q145.925 1218.54 140.115 1218.54 Q134.304 1218.54 131.226 1213.96 Q128.17 1209.35 128.17 1200.63 Q128.17 1191.88 131.226 1187.29 Q134.304 1182.69 140.115 1182.69 Z" fill="#000000" fill-rule="nonzero" fill-opacity="1" /><path clip-path="url(#clip540)" d="M152.604 1187.26 L158.811 1187.26 L158.811 1165.84 L152.059 1167.2 L152.059 1163.74 L158.773 1162.38 L162.573 1162.38 L162.573 1187.26 L168.779 1187.26 L168.779 1190.46 L152.604 1190.46 L152.604 1187.26 Z" fill="#000000" fill-rule="nonzero" fill-opacity="1" /><path clip-path="url(#clip540)" d="M176.453 1185.69 L180.421 1185.69 L180.421 1190.46 L176.453 1190.46 L176.453 1185.69 Z" fill="#000000" fill-rule="nonzero" fill-opacity="1" /><path clip-path="url(#clip540)" d="M191.969 1187.26 L205.229 1187.26 L205.229 1190.46 L187.399 1190.46 L187.399 1187.26 Q189.562 1185.03 193.286 1181.27 Q197.028 1177.48 197.988 1176.39 Q199.812 1174.34 200.527 1172.93 Q201.26 1171.5 201.26 1170.13 Q201.26 1167.89 199.68 1166.48 Q198.119 1165.07 195.599 1165.07 Q193.812 1165.07 191.819 1165.69 Q189.844 1166.31 187.587 1167.57 L187.587 1163.74 Q189.881 1162.81 191.875 1162.34 Q193.869 1161.87 195.524 1161.87 Q199.887 1161.87 202.483 1164.06 Q205.078 1166.24 205.078 1169.89 Q205.078 1171.62 204.42 1173.18 Q203.78 1174.72 202.069 1176.83 Q201.599 1177.37 199.078 1179.99 Q196.558 1182.58 191.969 1187.26 Z" fill="#000000" fill-rule="nonzero" fill-opacity="1" /><path clip-path="url(#clip540)" d="M100.274 896.294 L107.913 896.294 L107.913 869.929 L99.6027 871.595 L99.6027 867.336 L107.867 865.67 L112.542 865.67 L112.542 896.294 L120.181 896.294 L120.181 900.23 L100.274 900.23 L100.274 896.294 Z" fill="#000000" fill-rule="nonzero" fill-opacity="1" /><path clip-path="url(#clip540)" d="M139.626 868.748 Q136.015 868.748 134.186 872.313 Q132.38 875.855 132.38 882.984 Q132.38 890.091 134.186 893.656 Q136.015 897.197 139.626 897.197 Q143.26 897.197 145.065 893.656 Q146.894 890.091 146.894 882.984 Q146.894 875.855 145.065 872.313 Q143.26 868.748 139.626 868.748 M139.626 865.045 Q145.436 865.045 148.491 869.651 Q151.57 874.234 151.57 882.984 Q151.57 891.711 148.491 896.318 Q145.436 900.901 139.626 900.901 Q133.815 900.901 130.737 896.318 Q127.681 891.711 127.681 882.984 Q127.681 874.234 130.737 869.651 Q133.815 865.045 139.626 865.045 Z" fill="#000000" fill-rule="nonzero" fill-opacity="1" /><path clip-path="url(#clip540)" d="M152.115 869.622 L158.322 869.622 L158.322 848.2 L151.57 849.554 L151.57 846.093 L158.284 844.739 L162.084 844.739 L162.084 869.622 L168.29 869.622 L168.29 872.819 L152.115 872.819 L152.115 869.622 Z" fill="#000000" fill-rule="nonzero" fill-opacity="1" /><path clip-path="url(#clip540)" d="M175.964 868.042 L179.932 868.042 L179.932 872.819 L175.964 872.819 L175.964 868.042 Z" fill="#000000" fill-rule="nonzero" fill-opacity="1" /><path clip-path="url(#clip540)" d="M188.245 844.739 L203.16 844.739 L203.16 847.937 L191.725 847.937 L191.725 854.82 Q192.552 854.538 193.38 854.406 Q194.207 854.256 195.035 854.256 Q199.737 854.256 202.483 856.833 Q205.229 859.409 205.229 863.81 Q205.229 868.343 202.407 870.863 Q199.586 873.365 194.452 873.365 Q192.684 873.365 190.841 873.064 Q189.016 872.763 187.06 872.161 L187.06 868.343 Q188.753 869.265 190.558 869.716 Q192.364 870.167 194.376 870.167 Q197.63 870.167 199.53 868.456 Q201.429 866.744 201.429 863.81 Q201.429 860.876 199.53 859.165 Q197.63 857.453 194.376 857.453 Q192.853 857.453 191.33 857.792 Q189.825 858.13 188.245 858.845 L188.245 844.739 Z" fill="#000000" fill-rule="nonzero" fill-opacity="1" /><path clip-path="url(#clip540)" d="M99.5405 578.651 L107.179 578.651 L107.179 552.286 L98.8692 553.952 L98.8692 549.693 L107.133 548.027 L111.809 548.027 L111.809 578.651 L119.448 578.651 L119.448 582.587 L99.5405 582.587 L99.5405 578.651 Z" fill="#000000" fill-rule="nonzero" fill-opacity="1" /><path clip-path="url(#clip540)" d="M138.892 551.105 Q135.281 551.105 133.452 554.67 Q131.647 558.212 131.647 565.341 Q131.647 572.448 133.452 576.013 Q135.281 579.554 138.892 579.554 Q142.526 579.554 144.332 576.013 Q146.161 572.448 146.161 565.341 Q146.161 558.212 144.332 554.67 Q142.526 551.105 138.892 551.105 M138.892 547.402 Q144.702 547.402 147.758 552.008 Q150.836 556.591 150.836 565.341 Q150.836 574.068 147.758 578.675 Q144.702 583.258 138.892 583.258 Q133.082 583.258 130.003 578.675 Q126.948 574.068 126.948 565.341 Q126.948 556.591 130.003 552.008 Q133.082 547.402 138.892 547.402 Z" fill="#000000" fill-rule="nonzero" fill-opacity="1" /><path clip-path="url(#clip540)" d="M151.382 551.979 L157.588 551.979 L157.588 530.557 L150.836 531.911 L150.836 528.45 L157.551 527.096 L161.35 527.096 L161.35 551.979 L167.557 551.979 L167.557 555.176 L151.382 555.176 L151.382 551.979 Z" fill="#000000" fill-rule="nonzero" fill-opacity="1" /><path clip-path="url(#clip540)" d="M175.23 550.399 L179.199 550.399 L179.199 555.176 L175.23 555.176 L175.23 550.399 Z" fill="#000000" fill-rule="nonzero" fill-opacity="1" /><path clip-path="url(#clip540)" d="M195.599 541.841 Q192.891 541.841 191.33 543.29 Q189.787 544.738 189.787 547.277 Q189.787 549.816 191.33 551.264 Q192.891 552.712 195.599 552.712 Q198.307 552.712 199.868 551.264 Q201.429 549.797 201.429 547.277 Q201.429 544.738 199.868 543.29 Q198.326 541.841 195.599 541.841 M191.8 540.224 Q189.355 539.622 187.982 537.948 Q186.628 536.274 186.628 533.867 Q186.628 530.5 189.016 528.544 Q191.424 526.588 195.599 526.588 Q199.793 526.588 202.182 528.544 Q204.57 530.5 204.57 533.867 Q204.57 536.274 203.197 537.948 Q201.843 539.622 199.417 540.224 Q202.163 540.863 203.686 542.725 Q205.229 544.587 205.229 547.277 Q205.229 551.358 202.727 553.54 Q200.244 555.722 195.599 555.722 Q190.953 555.722 188.452 553.54 Q185.969 551.358 185.969 547.277 Q185.969 544.587 187.512 542.725 Q189.054 540.863 191.8 540.224 M190.408 534.224 Q190.408 536.406 191.762 537.629 Q193.135 538.851 195.599 538.851 Q198.044 538.851 199.417 537.629 Q200.809 536.406 200.809 534.224 Q200.809 532.043 199.417 530.82 Q198.044 529.598 195.599 529.598 Q193.135 529.598 191.762 530.82 Q190.408 532.043 190.408 534.224 Z" fill="#000000" fill-rule="nonzero" fill-opacity="1" /><path clip-path="url(#clip540)" d="M99.0515 261.008 L106.69 261.008 L106.69 234.643 L98.3802 236.31 L98.3802 232.05 L106.644 230.384 L111.32 230.384 L111.32 261.008 L118.959 261.008 L118.959 264.944 L99.0515 264.944 L99.0515 261.008 Z" fill="#000000" fill-rule="nonzero" fill-opacity="1" /><path clip-path="url(#clip540)" d="M138.403 233.462 Q134.792 233.462 132.963 237.027 Q131.158 240.569 131.158 247.698 Q131.158 254.805 132.963 258.37 Q134.792 261.911 138.403 261.911 Q142.037 261.911 143.843 258.37 Q145.672 254.805 145.672 247.698 Q145.672 240.569 143.843 237.027 Q142.037 233.462 138.403 233.462 M138.403 229.759 Q144.213 229.759 147.269 234.365 Q150.347 238.948 150.347 247.698 Q150.347 256.425 147.269 261.032 Q144.213 265.615 138.403 265.615 Q132.593 265.615 129.514 261.032 Q126.459 256.425 126.459 247.698 Q126.459 238.948 129.514 234.365 Q132.593 229.759 138.403 229.759 Z" fill="#000000" fill-rule="nonzero" fill-opacity="1" /><path clip-path="url(#clip540)" d="M154.918 234.336 L168.177 234.336 L168.177 237.533 L150.347 237.533 L150.347 234.336 Q152.51 232.098 156.234 228.336 Q159.977 224.556 160.936 223.465 Q162.761 221.415 163.475 220.004 Q164.209 218.575 164.209 217.202 Q164.209 214.964 162.629 213.553 Q161.068 212.143 158.548 212.143 Q156.761 212.143 154.767 212.763 Q152.792 213.384 150.536 214.644 L150.536 210.807 Q152.83 209.886 154.824 209.416 Q156.817 208.945 158.472 208.945 Q162.836 208.945 165.431 211.127 Q168.027 213.309 168.027 216.958 Q168.027 218.688 167.369 220.249 Q166.729 221.791 165.018 223.898 Q164.547 224.443 162.027 227.057 Q159.507 229.653 154.918 234.336 Z" fill="#000000" fill-rule="nonzero" fill-opacity="1" /><path clip-path="url(#clip540)" d="M176.152 232.756 L180.12 232.756 L180.12 237.533 L176.152 237.533 L176.152 232.756 Z" fill="#000000" fill-rule="nonzero" fill-opacity="1" /><path clip-path="url(#clip540)" d="M189.054 234.336 L195.26 234.336 L195.26 212.914 L188.508 214.268 L188.508 210.807 L195.223 209.453 L199.022 209.453 L199.022 234.336 L205.229 234.336 L205.229 237.533 L189.054 237.533 L189.054 234.336 Z" fill="#000000" fill-rule="nonzero" fill-opacity="1" /><path clip-path="url(#clip540)" d="M-13.401 1151.59 L-13.401 1145.73 L36.1242 1145.73 L36.1242 1151.59 L-13.401 1151.59 Z" fill="#000000" fill-rule="nonzero" fill-opacity="1" /><path clip-path="url(#clip540)" d="M4.58208 1119.66 Q4.58208 1124.37 8.27419 1127.11 Q11.9345 1129.85 18.332 1129.85 Q24.7295 1129.85 28.4217 1127.14 Q32.0819 1124.41 32.0819 1119.66 Q32.0819 1114.98 28.3898 1112.25 Q24.6977 1109.51 18.332 1109.51 Q11.9981 1109.51 8.30602 1112.25 Q4.58208 1114.98 4.58208 1119.66 M-0.38317 1119.66 Q-0.38317 1112.02 4.58208 1107.66 Q9.54733 1103.3 18.332 1103.3 Q27.0849 1103.3 32.0819 1107.66 Q37.0472 1112.02 37.0472 1119.66 Q37.0472 1127.33 32.0819 1131.69 Q27.0849 1136.02 18.332 1136.02 Q9.54733 1136.02 4.58208 1131.69 Q-0.38317 1127.33 -0.38317 1119.66 Z" fill="#000000" fill-rule="nonzero" fill-opacity="1" /><path clip-path="url(#clip540)" d="M17.8864 1070.14 Q11.5207 1070.14 8.01956 1072.78 Q4.51842 1075.39 4.51842 1080.13 Q4.51842 1084.84 8.01956 1087.48 Q11.5207 1090.09 17.8864 1090.09 Q24.2203 1090.09 27.7214 1087.48 Q31.2226 1084.84 31.2226 1080.13 Q31.2226 1075.39 27.7214 1072.78 Q24.2203 1070.14 17.8864 1070.14 M31.7 1064.28 Q40.803 1064.28 45.2271 1068.32 Q49.6831 1072.37 49.6831 1080.7 Q49.6831 1083.79 49.2057 1086.53 Q48.7601 1089.27 47.8052 1091.84 L42.1079 1091.84 Q43.5084 1089.27 44.1768 1086.75 Q44.8452 1084.24 44.8452 1081.63 Q44.8452 1075.87 41.8215 1073 Q38.8296 1070.14 32.7503 1070.14 L29.8539 1070.14 Q33.005 1071.95 34.5646 1074.78 Q36.1242 1077.62 36.1242 1081.56 Q36.1242 1088.12 31.1271 1092.13 Q26.13 1096.14 17.8864 1096.14 Q9.61099 1096.14 4.61391 1092.13 Q-0.38317 1088.12 -0.38317 1081.56 Q-0.38317 1077.62 1.17643 1074.78 Q2.73603 1071.95 5.88705 1070.14 L0.4762 1070.14 L0.4762 1064.28 L31.7 1064.28 Z" fill="#000000" fill-rule="nonzero" fill-opacity="1" /><path clip-path="url(#clip540)" d="M-13.3374 1038.15 Q-6.01682 1042.41 1.1446 1044.48 Q8.30602 1046.55 15.6584 1046.55 Q23.0108 1046.55 30.2359 1044.48 Q37.4291 1042.38 44.7179 1038.15 L44.7179 1043.24 Q37.2382 1048.02 30.0131 1050.4 Q22.788 1052.76 15.6584 1052.76 Q8.56065 1052.76 1.3674 1050.4 Q-5.82585 1048.05 -13.3374 1043.24 L-13.3374 1038.15 Z" fill="#000000" fill-rule="nonzero" fill-opacity="1" /><path clip-path="url(#clip540)" d="M-11.3958 990.566 L36.1242 990.566 L36.1242 996.805 L-3.62968 996.805 L36.1242 1017.88 L36.1242 1026.53 L-11.3958 1026.53 L-11.3958 1020.29 L28.358 1020.29 L-11.3958 999.224 L-11.3958 990.566 Z" fill="#000000" fill-rule="nonzero" fill-opacity="1" /><path clip-path="url(#clip540)" d="M0.4762 978.249 L0.4762 972.36 L15.0218 972.36 L15.0218 953.359 L0.4762 953.359 L0.4762 947.47 L36.1242 947.47 L36.1242 953.359 L19.7006 953.359 L19.7006 972.36 L36.1242 972.36 L36.1242 978.249 L0.4762 978.249 Z" fill="#000000" fill-rule="nonzero" fill-opacity="1" /><path clip-path="url(#clip540)" d="M18.332 931.906 Q25.8117 931.906 28.9946 929.615 Q32.1456 927.291 32.1456 923.376 Q32.1456 920.257 26.7984 916.629 L9.86562 916.629 Q4.51842 920.257 4.51842 923.376 Q4.51842 927.291 7.70128 929.615 Q10.8523 931.906 18.332 931.906 M49.6831 916.629 L31.5727 916.629 Q34.5646 918.443 35.8059 920.543 Q37.0472 922.612 37.0472 925.254 Q37.0472 930.569 32.1456 934.293 Q27.2122 937.985 18.4593 937.985 Q9.70647 937.985 4.67757 934.293 Q-0.38317 930.569 -0.38317 925.254 Q-0.38317 922.612 0.826314 920.543 Q2.0358 918.443 5.02768 916.629 L-11.3958 916.629 L-11.3958 910.74 L5.02768 910.74 Q2.0358 908.926 0.826314 906.857 Q-0.38317 904.756 -0.38317 902.115 Q-0.38317 896.799 4.67757 893.107 Q9.70647 889.383 18.4593 889.383 Q27.2122 889.383 32.1456 893.107 Q37.0472 896.799 37.0472 902.115 Q37.0472 904.756 35.8059 906.857 Q34.5646 908.926 31.5727 910.74 L49.6831 910.74 L49.6831 916.629 M18.332 895.463 Q10.8523 895.463 7.70128 897.786 Q4.51842 900.078 4.51842 903.993 Q4.51842 907.112 9.86562 910.74 L26.7984 910.74 Q32.1456 907.112 32.1456 903.993 Q32.1456 900.078 28.9946 897.786 Q25.8117 895.463 18.332 895.463 Z" fill="#000000" fill-rule="nonzero" fill-opacity="1" /><path clip-path="url(#clip540)" d="M0.4762 849.375 L36.1242 849.375 L36.1242 855.199 L7.51031 855.199 L36.1242 872.387 L36.1242 879.898 L0.4762 879.898 L0.4762 874.074 L29.0264 874.074 L0.4762 856.918 L0.4762 849.375 Z" fill="#000000" fill-rule="nonzero" fill-opacity="1" /><path clip-path="url(#clip540)" d="M36.1242 806.756 L36.1242 837.535 L0.4762 837.535 L0.4762 831.646 L31.4454 831.646 L31.4454 812.645 L0.4762 812.645 L0.4762 806.756 L31.4454 806.756 L31.4454 802.078 L45.1316 802.078 L45.1316 806.756 L36.1242 806.756 Z" fill="#000000" fill-rule="nonzero" fill-opacity="1" /><path clip-path="url(#clip540)" d="M0.4762 762.642 L36.1242 762.642 L36.1242 768.467 L7.51031 768.467 L36.1242 785.654 L36.1242 793.166 L0.4762 793.166 L0.4762 787.341 L29.0264 787.341 L0.4762 770.185 L0.4762 762.642 Z" fill="#000000" fill-rule="nonzero" fill-opacity="1" /><path clip-path="url(#clip540)" d="M30.777 744.914 L49.6831 744.914 L49.6831 750.802 L0.4762 750.802 L0.4762 744.914 L5.88705 744.914 Q2.7042 743.068 1.17643 740.267 Q-0.38317 737.434 -0.38317 733.519 Q-0.38317 727.026 4.77305 722.984 Q9.92927 718.91 18.332 718.91 Q26.7347 718.91 31.891 722.984 Q37.0472 727.026 37.0472 733.519 Q37.0472 737.434 35.5194 740.267 Q33.9598 743.068 30.777 744.914 M18.332 724.989 Q11.8708 724.989 8.21053 727.663 Q4.51842 730.304 4.51842 734.951 Q4.51842 739.598 8.21053 742.272 Q11.8708 744.914 18.332 744.914 Q24.7932 744.914 28.4853 742.272 Q32.1456 739.598 32.1456 734.951 Q32.1456 730.304 28.4853 727.663 Q24.7932 724.989 18.332 724.989 Z" fill="#000000" fill-rule="nonzero" fill-opacity="1" /><path clip-path="url(#clip540)" d="M4.58208 695.388 Q4.58208 700.099 8.27419 702.836 Q11.9345 705.574 18.332 705.574 Q24.7295 705.574 28.4217 702.868 Q32.0819 700.131 32.0819 695.388 Q32.0819 690.71 28.3898 687.972 Q24.6977 685.235 18.332 685.235 Q11.9981 685.235 8.30602 687.972 Q4.58208 690.71 4.58208 695.388 M-0.38317 695.388 Q-0.38317 687.75 4.58208 683.389 Q9.54733 679.029 18.332 679.029 Q27.0849 679.029 32.0819 683.389 Q37.0472 687.75 37.0472 695.388 Q37.0472 703.059 32.0819 707.42 Q27.0849 711.748 18.332 711.748 Q9.54733 711.748 4.58208 707.42 Q-0.38317 703.059 -0.38317 695.388 Z" fill="#000000" fill-rule="nonzero" fill-opacity="1" /><path clip-path="url(#clip540)" d="M19.7006 663.687 L31.4454 663.687 L31.4454 655.348 Q31.4454 651.338 29.9494 649.237 Q28.4217 647.136 25.5571 647.136 Q22.6925 647.136 21.1966 649.237 Q19.7006 651.338 19.7006 655.348 L19.7006 663.687 M5.15499 663.687 L15.0218 663.687 L15.0218 655.985 Q15.0218 652.675 13.7169 650.574 Q12.3801 648.473 10.0248 648.473 Q7.66945 648.473 6.42814 650.574 Q5.15499 652.675 5.15499 655.985 L5.15499 663.687 M0.4762 669.544 L0.4762 655.603 Q0.4762 649.333 2.76785 645.959 Q5.05951 642.585 9.2927 642.585 Q12.571 642.585 14.5126 644.304 Q16.4223 646.022 16.8997 649.396 Q17.6636 645.354 20.0826 643.126 Q22.5015 640.898 26.13 640.898 Q30.9043 640.898 33.5142 644.59 Q36.1242 648.25 36.1242 655.062 L36.1242 669.544 L0.4762 669.544 Z" fill="#000000" fill-rule="nonzero" fill-opacity="1" /><path clip-path="url(#clip540)" d="M18.2047 614.703 Q18.2047 621.801 19.8279 624.538 Q21.4512 627.275 25.3661 627.275 Q28.4853 627.275 30.3314 625.238 Q32.1456 623.169 32.1456 619.636 Q32.1456 614.767 28.7081 611.838 Q25.2388 608.878 19.5097 608.878 L18.2047 608.878 L18.2047 614.703 M15.7857 603.022 L36.1242 603.022 L36.1242 608.878 L30.7133 608.878 Q33.9598 610.884 35.5194 613.876 Q37.0472 616.867 37.0472 621.196 Q37.0472 626.671 33.9916 629.917 Q30.9043 633.132 25.7481 633.132 Q19.7325 633.132 16.6769 629.121 Q13.6214 625.079 13.6214 617.09 L13.6214 608.878 L13.0485 608.878 Q9.00625 608.878 6.81008 611.552 Q4.58208 614.194 4.58208 619 Q4.58208 622.055 5.31414 624.952 Q6.04619 627.848 7.51031 630.522 L2.09946 630.522 Q0.858143 627.307 0.253401 624.283 Q-0.38317 621.26 -0.38317 618.395 Q-0.38317 610.661 3.62723 606.841 Q7.63762 603.022 15.7857 603.022 Z" fill="#000000" fill-rule="nonzero" fill-opacity="1" /><path clip-path="url(#clip540)" d="M0.4762 591.182 L0.4762 585.293 L15.0218 585.293 L15.0218 566.292 L0.4762 566.292 L0.4762 560.404 L36.1242 560.404 L36.1242 566.292 L19.7006 566.292 L19.7006 585.293 L36.1242 585.293 L36.1242 591.182 L0.4762 591.182 Z" fill="#000000" fill-rule="nonzero" fill-opacity="1" /><path clip-path="url(#clip540)" d="M0.4762 548.563 L0.4762 542.675 L15.0218 542.675 L15.0218 523.673 L0.4762 523.673 L0.4762 517.785 L36.1242 517.785 L36.1242 523.673 L19.7006 523.673 L19.7006 542.675 L36.1242 542.675 L36.1242 548.563 L0.4762 548.563 Z" fill="#000000" fill-rule="nonzero" fill-opacity="1" /><path clip-path="url(#clip540)" d="M0.4762 472.048 L0.4762 466.191 L36.1242 466.191 L36.1242 472.048 L0.4762 472.048 M-0.38317 469.119 L-0.38317 469.119 M25.5571 483.538 Q22.6925 483.538 21.1966 485.638 Q19.7006 487.707 19.7006 491.718 L19.7006 500.057 L31.4454 500.057 L31.4454 491.718 Q31.4454 487.707 29.9494 485.638 Q28.4217 483.538 25.5571 483.538 M0.4762 505.945 L0.4762 500.057 L15.0218 500.057 L15.0218 491.463 Q15.0218 484.652 17.6318 480.991 Q20.2099 477.299 25.5571 477.299 Q30.9043 477.299 33.5142 480.991 Q36.1242 484.652 36.1242 491.463 L36.1242 505.945 L0.4762 505.945 Z" fill="#000000" fill-rule="nonzero" fill-opacity="1" /><path clip-path="url(#clip540)" d="M16.8361 423.764 L19.7006 423.764 L19.7006 450.691 Q25.7481 450.309 28.9309 447.062 Q32.0819 443.784 32.0819 437.959 Q32.0819 434.585 31.2544 431.434 Q30.4269 428.252 28.7718 425.132 L34.3099 425.132 Q35.6467 428.283 36.347 431.594 Q37.0472 434.904 37.0472 438.309 Q37.0472 446.839 32.0819 451.836 Q27.1167 456.802 18.6503 456.802 Q9.89745 456.802 4.77305 452.091 Q-0.38317 447.349 -0.38317 439.328 Q-0.38317 432.135 4.2638 427.965 Q8.87893 423.764 16.8361 423.764 M15.1173 429.62 Q10.3112 429.684 7.44665 432.326 Q4.58208 434.936 4.58208 439.264 Q4.58208 444.166 7.35116 447.126 Q10.1202 450.054 15.1492 450.5 L15.1173 429.62 Z" fill="#000000" fill-rule="nonzero" fill-opacity="1" /><path clip-path="url(#clip540)" d="M-13.3374 415.075 L-13.3374 409.982 Q-5.82585 405.208 1.3674 402.852 Q8.56065 400.465 15.6584 400.465 Q22.788 400.465 30.0131 402.852 Q37.2382 405.208 44.7179 409.982 L44.7179 415.075 Q37.4291 410.841 30.2359 408.772 Q23.0108 406.672 15.6584 406.672 Q8.30602 406.672 1.1446 408.772 Q-6.01682 410.841 -13.3374 415.075 Z" fill="#000000" fill-rule="nonzero" fill-opacity="1" /><path clip-path="url(#clip540)" d="M883.474 59.3701 Q892.021 67.0263 902.392 67.0263 Q913.086 67.0263 917.907 61.274 Q922.727 55.5217 923.619 45.84 L891.292 45.84 L891.292 38.9535 L923.619 38.9535 Q922.727 29.2718 917.907 23.5195 Q913.086 17.7268 902.392 17.7268 Q892.021 17.7268 883.474 25.383 L883.474 16.7545 Q891.9 11.0023 902.878 11.0023 Q916.448 11.0023 924.348 19.4281 Q932.247 27.8135 932.247 42.3563 Q932.247 56.9395 924.348 65.3654 Q916.448 73.7508 902.878 73.7508 Q892.062 73.7508 883.474 67.9175 L883.474 59.3701 Z" fill="#000000" fill-rule="nonzero" fill-opacity="1" /><path clip-path="url(#clip540)" d="M944.44 27.2059 L951.853 27.2059 L951.853 48.5136 L972.878 27.2059 L982.033 27.2059 L964.695 44.7463 L984.261 72.576 L975.916 72.576 L959.834 49.6884 L951.853 57.7902 L951.853 72.576 L944.44 72.576 L944.44 27.2059 Z" fill="#000000" fill-rule="nonzero" fill-opacity="1" /><path clip-path="url(#clip540)" d="M1027.48 28.9478 L1027.48 35.9153 Q1024.32 34.1734 1021.12 33.3227 Q1017.96 32.4315 1014.72 32.4315 Q1007.47 32.4315 1003.46 37.0496 Q999.451 41.6271 999.451 49.9314 Q999.451 58.2358 1003.46 62.8538 Q1007.47 67.4314 1014.72 67.4314 Q1017.96 67.4314 1021.12 66.5807 Q1024.32 65.6895 1027.48 63.9476 L1027.48 70.8341 Q1024.36 72.2924 1021 73.0216 Q1017.68 73.7508 1013.91 73.7508 Q1003.66 73.7508 997.629 67.3098 Q991.593 60.8689 991.593 49.9314 Q991.593 38.832 997.669 32.472 Q1003.79 26.1121 1014.4 26.1121 Q1017.84 26.1121 1021.12 26.8413 Q1024.41 27.5299 1027.48 28.9478 Z" fill="#000000" fill-rule="nonzero" fill-opacity="1" /><path clip-path="url(#clip540)" d="M1079.34 27.2059 L1079.34 72.576 L1071.84 72.576 L1071.84 33.1607 L1047.66 33.1607 L1047.66 72.576 L1040.16 72.576 L1040.16 27.2059 L1079.34 27.2059 Z" fill="#000000" fill-rule="nonzero" fill-opacity="1" /><path clip-path="url(#clip540)" d="M1112.27 32.4315 Q1106.27 32.4315 1102.79 37.1306 Q1099.31 41.7891 1099.31 49.9314 Q1099.31 58.0738 1102.75 62.7728 Q1106.23 67.4314 1112.27 67.4314 Q1118.22 67.4314 1121.71 62.7323 Q1125.19 58.0333 1125.19 49.9314 Q1125.19 41.8701 1121.71 37.1711 Q1118.22 32.4315 1112.27 32.4315 M1112.27 26.1121 Q1121.99 26.1121 1127.54 32.4315 Q1133.09 38.7509 1133.09 49.9314 Q1133.09 61.0714 1127.54 67.4314 Q1121.99 73.7508 1112.27 73.7508 Q1102.51 73.7508 1096.96 67.4314 Q1091.45 61.0714 1091.45 49.9314 Q1091.45 38.7509 1096.96 32.4315 Q1102.51 26.1121 1112.27 26.1121 Z" fill="#000000" fill-rule="nonzero" fill-opacity="1" /><path clip-path="url(#clip540)" d="M1145.16 27.2059 L1152.66 27.2059 L1152.66 45.7185 L1176.84 45.7185 L1176.84 27.2059 L1184.33 27.2059 L1184.33 72.576 L1176.84 72.576 L1176.84 51.6733 L1152.66 51.6733 L1152.66 72.576 L1145.16 72.576 L1145.16 27.2059 Z" fill="#000000" fill-rule="nonzero" fill-opacity="1" /><path clip-path="url(#clip540)" d="M1238.5 48.0275 L1238.5 51.6733 L1204.22 51.6733 Q1204.71 59.3701 1208.84 63.421 Q1213.02 67.4314 1220.43 67.4314 Q1224.72 67.4314 1228.73 66.3781 Q1232.78 65.3249 1236.75 63.2184 L1236.75 70.267 Q1232.74 71.9684 1228.53 72.8596 Q1224.32 73.7508 1219.98 73.7508 Q1209.13 73.7508 1202.77 67.4314 Q1196.45 61.1119 1196.45 50.3365 Q1196.45 39.1965 1202.44 32.6746 Q1208.48 26.1121 1218.69 26.1121 Q1227.84 26.1121 1233.15 32.0264 Q1238.5 37.9003 1238.5 48.0275 M1231.04 45.84 Q1230.96 39.7232 1227.6 36.0774 Q1224.28 32.4315 1218.77 32.4315 Q1212.53 32.4315 1208.76 35.9558 Q1205.03 39.4801 1204.47 45.8805 L1231.04 45.84 Z" fill="#000000" fill-rule="nonzero" fill-opacity="1" /><path clip-path="url(#clip540)" d="M1250.45 27.2059 L1257.94 27.2059 L1257.94 45.7185 L1282.12 45.7185 L1282.12 27.2059 L1289.62 27.2059 L1289.62 72.576 L1282.12 72.576 L1282.12 51.6733 L1257.94 51.6733 L1257.94 72.576 L1250.45 72.576 L1250.45 27.2059 Z" fill="#000000" fill-rule="nonzero" fill-opacity="1" /><path clip-path="url(#clip540)" d="M1343.86 72.576 L1304.69 72.576 L1304.69 27.2059 L1312.18 27.2059 L1312.18 66.6212 L1336.37 66.6212 L1336.37 27.2059 L1343.86 27.2059 L1343.86 66.6212 L1349.81 66.6212 L1349.81 84.0401 L1343.86 84.0401 L1343.86 72.576 Z" fill="#000000" fill-rule="nonzero" fill-opacity="1" /><path clip-path="url(#clip540)" d="M1400 27.2059 L1400 72.576 L1392.59 72.576 L1392.59 36.1584 L1370.72 72.576 L1361.16 72.576 L1361.16 27.2059 L1368.57 27.2059 L1368.57 63.5425 L1390.4 27.2059 L1400 27.2059 Z" fill="#000000" fill-rule="nonzero" fill-opacity="1" /><path clip-path="url(#clip540)" d="M1435.98 49.7694 Q1426.94 49.7694 1423.46 51.8354 Q1419.98 53.9013 1419.98 58.8839 Q1419.98 62.8538 1422.57 65.2034 Q1425.2 67.5124 1429.7 67.5124 Q1435.9 67.5124 1439.62 63.1374 Q1443.39 58.7219 1443.39 51.4303 L1443.39 49.7694 L1435.98 49.7694 M1450.84 46.6907 L1450.84 72.576 L1443.39 72.576 L1443.39 65.6895 Q1440.84 69.8214 1437.03 71.8063 Q1433.22 73.7508 1427.71 73.7508 Q1420.75 73.7508 1416.61 69.8619 Q1412.52 65.9325 1412.52 59.3701 Q1412.52 51.7138 1417.63 47.825 Q1422.77 43.9361 1432.94 43.9361 L1443.39 43.9361 L1443.39 43.2069 Q1443.39 38.0623 1439.99 35.2672 Q1436.63 32.4315 1430.51 32.4315 Q1426.62 32.4315 1422.93 33.3632 Q1419.25 34.295 1415.84 36.1584 L1415.84 29.2718 Q1419.94 27.692 1423.78 26.9223 Q1427.63 26.1121 1431.28 26.1121 Q1441.12 26.1121 1445.98 31.2163 Q1450.84 36.3204 1450.84 46.6907 Z" fill="#000000" fill-rule="nonzero" fill-opacity="1" /><path clip-path="url(#clip540)" d="M1461.46 72.576 L1461.46 66.3781 Q1468.83 65.2439 1471.1 60.1397 Q1473.85 52.9696 1473.85 34.619 L1473.85 27.2059 L1504.52 27.2059 L1504.52 72.576 L1497.06 72.576 L1497.06 33.1607 L1481.31 33.1607 L1481.31 37.6572 Q1481.31 55.1571 1477.74 63.0159 Q1473.93 71.4012 1461.46 72.576 Z" fill="#000000" fill-rule="nonzero" fill-opacity="1" /><path clip-path="url(#clip540)" d="M1547.46 59.127 Q1547.46 55.4812 1544.78 53.5773 Q1542.15 51.6733 1537.05 51.6733 L1526.43 51.6733 L1526.43 66.6212 L1537.05 66.6212 Q1542.15 66.6212 1544.78 64.7172 Q1547.46 62.7728 1547.46 59.127 M1518.94 27.2059 L1526.43 27.2059 L1526.43 45.7185 L1537.37 45.7185 Q1546.04 45.7185 1550.7 49.0402 Q1555.4 52.3215 1555.4 59.127 Q1555.4 65.9325 1550.7 69.2543 Q1546.04 72.576 1537.37 72.576 L1518.94 72.576 L1518.94 27.2059 Z" fill="#000000" fill-rule="nonzero" fill-opacity="1" /><path clip-path="url(#clip540)" d="M1567.83 27.2059 L1575.33 27.2059 L1575.33 45.7185 L1599.51 45.7185 L1599.51 27.2059 L1607.01 27.2059 L1607.01 72.576 L1599.51 72.576 L1599.51 51.6733 L1575.33 51.6733 L1575.33 72.576 L1567.83 72.576 L1567.83 27.2059 Z" fill="#000000" fill-rule="nonzero" fill-opacity="1" /><path clip-path="url(#clip540)" d="M1665.22 27.2059 L1672.67 27.2059 L1672.67 72.576 L1665.22 72.576 L1665.22 27.2059 M1668.94 26.1121 L1668.94 26.1121 M1650.59 59.127 Q1650.59 55.4812 1647.92 53.5773 Q1645.29 51.6733 1640.18 51.6733 L1629.57 51.6733 L1629.57 66.6212 L1640.18 66.6212 Q1645.29 66.6212 1647.92 64.7172 Q1650.59 62.7728 1650.59 59.127 M1622.08 27.2059 L1629.57 27.2059 L1629.57 45.7185 L1640.51 45.7185 Q1649.18 45.7185 1653.83 49.0402 Q1658.53 52.3215 1658.53 59.127 Q1658.53 65.9325 1653.83 69.2543 Q1649.18 72.576 1640.51 72.576 L1622.08 72.576 L1622.08 27.2059 Z" fill="#000000" fill-rule="nonzero" fill-opacity="1" /><path clip-path="url(#clip540)" d="M1726.43 27.2059 L1726.43 72.576 L1719.01 72.576 L1719.01 36.1584 L1697.14 72.576 L1687.58 72.576 L1687.58 27.2059 L1694.99 27.2059 L1694.99 63.5425 L1716.83 27.2059 L1726.43 27.2059 M1694.34 9.54393 L1699.12 9.54393 Q1699.57 12.5821 1701.51 14.1215 Q1703.5 15.6203 1707.02 15.6203 Q1710.51 15.6203 1712.45 14.1215 Q1714.4 12.6226 1714.92 9.54393 L1719.7 9.54393 Q1719.3 15.3367 1716.1 18.2534 Q1712.9 21.17 1707.02 21.17 Q1701.15 21.17 1697.95 18.2534 Q1694.75 15.3367 1694.34 9.54393 Z" fill="#000000" fill-rule="nonzero" fill-opacity="1" /><path clip-path="url(#clip540)" d="M1775.36 65.7705 L1775.36 89.8329 L1767.87 89.8329 L1767.87 27.2059 L1775.36 27.2059 L1775.36 34.0924 Q1777.71 30.0415 1781.28 28.0971 Q1784.88 26.1121 1789.86 26.1121 Q1798.13 26.1121 1803.27 32.6746 Q1808.46 39.2371 1808.46 49.9314 Q1808.46 60.6258 1803.27 67.1883 Q1798.13 73.7508 1789.86 73.7508 Q1784.88 73.7508 1781.28 71.8063 Q1777.71 69.8214 1775.36 65.7705 M1800.72 49.9314 Q1800.72 41.7081 1797.32 37.0496 Q1793.96 32.3505 1788.04 32.3505 Q1782.13 32.3505 1778.72 37.0496 Q1775.36 41.7081 1775.36 49.9314 Q1775.36 58.1548 1778.72 62.8538 Q1782.13 67.5124 1788.04 67.5124 Q1793.96 67.5124 1797.32 62.8538 Q1800.72 58.1548 1800.72 49.9314 Z" fill="#000000" fill-rule="nonzero" fill-opacity="1" /><path clip-path="url(#clip540)" d="M1838.39 32.4315 Q1832.4 32.4315 1828.91 37.1306 Q1825.43 41.7891 1825.43 49.9314 Q1825.43 58.0738 1828.87 62.7728 Q1832.36 67.4314 1838.39 67.4314 Q1844.35 67.4314 1847.83 62.7323 Q1851.32 58.0333 1851.32 49.9314 Q1851.32 41.8701 1847.83 37.1711 Q1844.35 32.4315 1838.39 32.4315 M1838.39 26.1121 Q1848.12 26.1121 1853.67 32.4315 Q1859.22 38.7509 1859.22 49.9314 Q1859.22 61.0714 1853.67 67.4314 Q1848.12 73.7508 1838.39 73.7508 Q1828.63 73.7508 1823.08 67.4314 Q1817.57 61.0714 1817.57 49.9314 Q1817.57 38.7509 1823.08 32.4315 Q1828.63 26.1121 1838.39 26.1121 Z" fill="#000000" fill-rule="nonzero" fill-opacity="1" /><path clip-path="url(#clip540)" d="M1904.22 28.9478 L1904.22 35.9153 Q1901.06 34.1734 1897.86 33.3227 Q1894.7 32.4315 1891.46 32.4315 Q1884.21 32.4315 1880.2 37.0496 Q1876.19 41.6271 1876.19 49.9314 Q1876.19 58.2358 1880.2 62.8538 Q1884.21 67.4314 1891.46 67.4314 Q1894.7 67.4314 1897.86 66.5807 Q1901.06 65.6895 1904.22 63.9476 L1904.22 70.8341 Q1901.1 72.2924 1897.74 73.0216 Q1894.42 73.7508 1890.65 73.7508 Q1880.4 73.7508 1874.37 67.3098 Q1868.33 60.8689 1868.33 49.9314 Q1868.33 38.832 1874.41 32.472 Q1880.52 26.1121 1891.14 26.1121 Q1894.58 26.1121 1897.86 26.8413 Q1901.14 27.5299 1904.22 28.9478 Z" fill="#000000" fill-rule="nonzero" fill-opacity="1" /><path clip-path="url(#clip540)" d="M1911.8 27.2059 L1955.26 27.2059 L1955.26 33.1607 L1937.2 33.1607 L1937.2 72.576 L1929.86 72.576 L1929.86 33.1607 L1911.8 33.1607 L1911.8 27.2059 Z" fill="#000000" fill-rule="nonzero" fill-opacity="1" /><path clip-path="url(#clip540)" d="M2009.79 9.62495 Q2004.36 18.942 2001.73 28.0566 Q1999.09 37.1711 1999.09 46.5287 Q1999.09 55.8863 2001.73 65.0818 Q2004.4 74.2369 2009.79 83.5134 L2003.31 83.5134 Q1997.23 73.9938 1994.19 64.7983 Q1991.19 55.6027 1991.19 46.5287 Q1991.19 37.4952 1994.19 28.3401 Q1997.19 19.1851 2003.31 9.62495 L2009.79 9.62495 Z" fill="#000000" fill-rule="nonzero" fill-opacity="1" /><path clip-path="url(#clip540)" d="M2019.51 72.576 L2019.51 66.3781 Q2026.88 65.2439 2029.15 60.1397 Q2031.91 52.9696 2031.91 34.619 L2031.91 27.2059 L2062.57 27.2059 L2062.57 72.576 L2055.12 72.576 L2055.12 33.1607 L2039.36 33.1607 L2039.36 37.6572 Q2039.36 55.1571 2035.79 63.0159 Q2031.99 71.4012 2019.51 72.576 Z" fill="#000000" fill-rule="nonzero" fill-opacity="1" /><path clip-path="url(#clip540)" d="M2094.86 32.4315 Q2088.86 32.4315 2085.38 37.1306 Q2081.89 41.7891 2081.89 49.9314 Q2081.89 58.0738 2085.34 62.7728 Q2088.82 67.4314 2094.86 67.4314 Q2100.81 67.4314 2104.3 62.7323 Q2107.78 58.0333 2107.78 49.9314 Q2107.78 41.8701 2104.3 37.1711 Q2100.81 32.4315 2094.86 32.4315 M2094.86 26.1121 Q2104.58 26.1121 2110.13 32.4315 Q2115.68 38.7509 2115.68 49.9314 Q2115.68 61.0714 2110.13 67.4314 Q2104.58 73.7508 2094.86 73.7508 Q2085.09 73.7508 2079.54 67.4314 Q2074.03 61.0714 2074.03 49.9314 Q2074.03 38.7509 2079.54 32.4315 Q2085.09 26.1121 2094.86 26.1121 Z" fill="#000000" fill-rule="nonzero" fill-opacity="1" /><path clip-path="url(#clip540)" d="M2127.75 72.576 L2127.75 27.2059 L2159.75 27.2059 L2159.75 33.1607 L2135.24 33.1607 L2135.24 72.576 L2127.75 72.576 Z" fill="#000000" fill-rule="nonzero" fill-opacity="1" /><path clip-path="url(#clip540)" d="M2172.67 62.2867 L2181.22 62.2867 L2181.22 72.576 L2172.67 72.576 L2172.67 62.2867 Z" fill="#000000" fill-rule="nonzero" fill-opacity="1" /><path clip-path="url(#clip540)" d="M2258.23 66.6212 L2277.43 66.6212 L2277.43 27.2059 L2284.92 27.2059 L2284.92 72.576 L2224.08 72.576 L2224.08 27.2059 L2231.57 27.2059 L2231.57 66.6212 L2250.74 66.6212 L2250.74 27.2059 L2258.23 27.2059 L2258.23 66.6212 Z" fill="#000000" fill-rule="nonzero" fill-opacity="1" /><path clip-path="url(#clip540)" d="M2299.99 27.2059 L2307.41 27.2059 L2307.41 48.5136 L2328.43 27.2059 L2337.59 27.2059 L2320.25 44.7463 L2339.81 72.576 L2331.47 72.576 L2315.39 49.6884 L2307.41 57.7902 L2307.41 72.576 L2299.99 72.576 L2299.99 27.2059 Z" fill="#000000" fill-rule="nonzero" fill-opacity="1" /><path clip-path="url(#clip540)" d="M2371.01 49.7694 Q2361.97 49.7694 2358.49 51.8354 Q2355.01 53.9013 2355.01 58.8839 Q2355.01 62.8538 2357.6 65.2034 Q2360.23 67.5124 2364.73 67.5124 Q2370.93 67.5124 2374.65 63.1374 Q2378.42 58.7219 2378.42 51.4303 L2378.42 49.7694 L2371.01 49.7694 M2385.87 46.6907 L2385.87 72.576 L2378.42 72.576 L2378.42 65.6895 Q2375.87 69.8214 2372.06 71.8063 Q2368.25 73.7508 2362.74 73.7508 Q2355.78 73.7508 2351.64 69.8619 Q2347.55 65.9325 2347.55 59.3701 Q2347.55 51.7138 2352.66 47.825 Q2357.8 43.9361 2367.97 43.9361 L2378.42 43.9361 L2378.42 43.2069 Q2378.42 38.0623 2375.02 35.2672 Q2371.65 32.4315 2365.54 32.4315 Q2361.65 32.4315 2357.96 33.3632 Q2354.28 34.295 2350.87 36.1584 L2350.87 29.2718 Q2354.97 27.692 2358.81 26.9223 Q2362.66 26.1121 2366.31 26.1121 Q2376.15 26.1121 2381.01 31.2163 Q2385.87 36.3204 2385.87 46.6907 Z" fill="#000000" fill-rule="nonzero" fill-opacity="1" /><path clip-path="url(#clip540)" d="M2396.49 72.576 L2396.49 66.3781 Q2403.86 65.2439 2406.13 60.1397 Q2408.88 52.9696 2408.88 34.619 L2408.88 27.2059 L2439.55 27.2059 L2439.55 72.576 L2432.09 72.576 L2432.09 33.1607 L2416.34 33.1607 L2416.34 37.6572 Q2416.34 55.1571 2412.77 63.0159 Q2408.96 71.4012 2396.49 72.576 Z" fill="#000000" fill-rule="nonzero" fill-opacity="1" /><path clip-path="url(#clip540)" d="M2474.87 49.7694 Q2465.84 49.7694 2462.35 51.8354 Q2458.87 53.9013 2458.87 58.8839 Q2458.87 62.8538 2461.46 65.2034 Q2464.1 67.5124 2468.59 67.5124 Q2474.79 67.5124 2478.52 63.1374 Q2482.28 58.7219 2482.28 51.4303 L2482.28 49.7694 L2474.87 49.7694 M2489.74 46.6907 L2489.74 72.576 L2482.28 72.576 L2482.28 65.6895 Q2479.73 69.8214 2475.93 71.8063 Q2472.12 73.7508 2466.61 73.7508 Q2459.64 73.7508 2455.51 69.8619 Q2451.42 65.9325 2451.42 59.3701 Q2451.42 51.7138 2456.52 47.825 Q2461.67 43.9361 2471.83 43.9361 L2482.28 43.9361 L2482.28 43.2069 Q2482.28 38.0623 2478.88 35.2672 Q2475.52 32.4315 2469.4 32.4315 Q2465.51 32.4315 2461.83 33.3632 Q2458.14 34.295 2454.74 36.1584 L2454.74 29.2718 Q2458.83 27.692 2462.68 26.9223 Q2466.53 26.1121 2470.17 26.1121 Q2480.02 26.1121 2484.88 31.2163 Q2489.74 36.3204 2489.74 46.6907 Z" fill="#000000" fill-rule="nonzero" fill-opacity="1" /><path clip-path="url(#clip540)" d="M2503.92 9.62495 L2510.4 9.62495 Q2516.47 19.1851 2519.47 28.3401 Q2522.51 37.4952 2522.51 46.5287 Q2522.51 55.6027 2519.47 64.7983 Q2516.47 73.9938 2510.4 83.5134 L2503.92 83.5134 Q2509.3 74.2369 2511.94 65.0818 Q2514.61 55.8863 2514.61 46.5287 Q2514.61 37.1711 2511.94 28.0566 Q2509.3 18.942 2503.92 9.62495 Z" fill="#000000" fill-rule="nonzero" fill-opacity="1" /><polyline clip-path="url(#clip542)" style="stroke:#ff0000; stroke-linecap:round; stroke-linejoin:round; stroke-width:8; stroke-opacity:1; fill:none" points="335.291,1405.91 342.129,1394.65 371.748,1346.01 430.476,1250.33 513.79,1116.66 621.221,949.044 757.919,746.774 927.844,521.113 1134.81,304.35 1380.17,159.384 1640.28,146.145 1937.1,266.842 2279.44,510.383 2612.43,800.224 3070.69,1235.89 "/>
<path clip-path="url(#clip540)" d="M2686.87 256.544 L3056.1 256.544 L3056.1 152.864 L2686.87 152.864  Z" fill="#ffffff" fill-rule="evenodd" fill-opacity="1"/>
<polyline clip-path="url(#clip540)" style="stroke:#000000; stroke-linecap:round; stroke-linejoin:round; stroke-width:4; stroke-opacity:1; fill:none" points="2686.87,256.544 3056.1,256.544 3056.1,152.864 2686.87,152.864 2686.87,256.544 "/>
<polyline clip-path="url(#clip540)" style="stroke:#ff0000; stroke-linecap:round; stroke-linejoin:round; stroke-width:8; stroke-opacity:1; fill:none" points="2719.09,204.704 2912.39,204.704 "/>
<path clip-path="url(#clip540)" d="M2966.81 184.396 Q2966.81 184.841 2966.62 185.052 Q2966.46 185.239 2966.2 185.286 Q2965.94 185.31 2965.26 185.31 Q2964.11 185.31 2963.39 185.403 Q2962.66 185.474 2962.22 185.591 Q2961.77 185.685 2961.51 186.012 Q2961.28 186.317 2961.16 186.598 Q2961.07 186.879 2960.91 187.511 L2954.49 213.065 Q2954.28 213.815 2954.28 214.19 Q2954.28 214.588 2954.51 214.752 Q2954.75 214.916 2955.5 214.986 Q2956.69 215.103 2957.56 215.103 Q2958.7 215.103 2958.87 215.267 Q2958.99 215.431 2958.99 215.665 Q2958.99 216.087 2958.8 216.321 Q2958.61 216.532 2958.45 216.555 Q2958.31 216.579 2958.02 216.579 L2951.61 216.438 L2945.31 216.579 Q2944.6 216.579 2944.6 216.04 Q2944.6 215.689 2944.65 215.501 Q2944.72 215.29 2944.96 215.22 Q2945.21 215.127 2945.4 215.127 Q2945.59 215.103 2946.13 215.103 Q2947.09 215.103 2947.72 215.08 Q2948.37 215.033 2948.84 214.916 Q2949.34 214.775 2949.57 214.658 Q2949.83 214.518 2950.01 214.213 Q2950.23 213.885 2950.3 213.627 Q2950.39 213.37 2950.51 212.831 L2956.97 186.973 Q2957.06 186.551 2957.06 186.223 Q2957.06 185.591 2956.32 185.45 Q2955.59 185.31 2953.76 185.31 Q2953.2 185.31 2952.97 185.286 Q2952.75 185.263 2952.57 185.146 Q2952.4 185.029 2952.4 184.771 Q2952.4 184.443 2952.5 184.232 Q2952.59 183.998 2952.75 183.928 Q2952.94 183.858 2953.06 183.834 Q2953.18 183.811 2953.36 183.811 L2959.76 183.951 L2966.08 183.811 Q2966.81 183.811 2966.81 184.396 Z" fill="#000000" fill-rule="nonzero" fill-opacity="1" /><path clip-path="url(#clip540)" d="M2972.22 204.586 Q2972.22 196.482 2975.24 189.947 Q2976.53 187.207 2978.33 184.912 Q2980.14 182.616 2981.33 181.609 Q2982.53 180.602 2982.85 180.602 Q2983.32 180.602 2983.35 181.07 Q2983.35 181.305 2982.71 181.89 Q2974.98 189.76 2975.01 204.586 Q2975.01 219.46 2982.53 227.025 Q2983.35 227.845 2983.35 228.103 Q2983.35 228.571 2982.85 228.571 Q2982.53 228.571 2981.38 227.611 Q2980.23 226.65 2978.45 224.449 Q2976.67 222.247 2975.38 219.553 Q2972.22 213.019 2972.22 204.586 Z" fill="#000000" fill-rule="nonzero" fill-opacity="1" /><path clip-path="url(#clip540)" d="M3001.72 196.435 Q3001.72 197.091 3001.42 197.255 Q3001.11 197.396 3000.27 197.396 L2995.77 197.396 L2992.21 211.543 Q2991.93 212.784 2991.93 213.838 Q2991.93 215.009 2992.28 215.525 Q2992.66 216.04 2993.43 216.04 Q2994.95 216.04 2996.59 214.658 Q2998.25 213.276 2999.66 209.903 Q2999.85 209.458 2999.94 209.365 Q3000.06 209.247 3000.36 209.247 Q3000.95 209.247 3000.95 209.716 Q3000.95 209.88 3000.62 210.629 Q3000.32 211.379 2999.64 212.48 Q2998.98 213.581 2998.11 214.611 Q2997.27 215.642 2995.98 216.391 Q2994.69 217.117 2993.31 217.117 Q2991.37 217.117 2990.13 215.876 Q2988.91 214.635 2988.91 212.691 Q2988.91 212.058 2989.4 210.044 Q2989.89 208.006 2992.56 197.396 L2988.32 197.396 Q2987.74 197.396 2987.5 197.372 Q2987.29 197.349 2987.13 197.232 Q2986.99 197.091 2986.99 196.81 Q2986.99 196.365 2987.18 196.178 Q2987.36 195.967 2987.6 195.944 Q2987.86 195.897 2988.44 195.897 L2992.94 195.897 L2994.81 188.284 Q2995 187.535 2995.47 187.113 Q2995.96 186.668 2996.24 186.621 Q2996.52 186.551 2996.73 186.551 Q2997.36 186.551 2997.74 186.902 Q2998.11 187.23 2998.11 187.839 Q2998.11 188.167 2996.15 195.897 L3000.36 195.897 Q3000.9 195.897 3001.11 195.92 Q3001.35 195.944 3001.53 196.061 Q3001.72 196.178 3001.72 196.435 Z" fill="#000000" fill-rule="nonzero" fill-opacity="1" /><path clip-path="url(#clip540)" d="M3005.47 228.103 Q3005.47 227.868 3006.08 227.283 Q3013.81 219.413 3013.81 204.586 Q3013.81 189.713 3006.39 182.195 Q3005.47 181.328 3005.47 181.07 Q3005.47 180.602 3005.94 180.602 Q3006.27 180.602 3007.42 181.562 Q3008.59 182.522 3010.34 184.724 Q3012.12 186.926 3013.44 189.619 Q3016.6 196.154 3016.6 204.586 Q3016.6 212.691 3013.58 219.225 Q3012.29 221.966 3010.48 224.261 Q3008.68 226.557 3007.49 227.564 Q3006.29 228.571 3005.94 228.571 Q3005.47 228.571 3005.47 228.103 Z" fill="#000000" fill-rule="nonzero" fill-opacity="1" /></svg>
