<?xml version="1.0" encoding="utf-8"?>
<svg xmlns="http://www.w3.org/2000/svg" xmlns:xlink="http://www.w3.org/1999/xlink" width="800" height="600" viewBox="0 0 3200 2400">
<defs>
  <clipPath id="clip730">
    <rect x="0" y="0" width="3200" height="2400"/>
  </clipPath>
</defs>
<path clip-path="url(#clip730)" d="M0 2400 L3200 2400 L3200 0 L0 0  Z" fill="#ffffff" fill-rule="evenodd" fill-opacity="1"/>
<defs>
  <clipPath id="clip731">
    <rect x="472" y="131" width="2681" height="2075"/>
  </clipPath>
</defs>
<path clip-path="url(#clip730)" d="M217.904 2204.92 L3152.76 2204.92 L3152.76 131.032 L217.904 131.032  Z" fill="#ffffff" fill-rule="evenodd" fill-opacity="1"/>
<defs>
  <clipPath id="clip732">
    <rect x="217" y="131" width="2936" height="2075"/>
  </clipPath>
</defs>
<polyline clip-path="url(#clip732)" style="stroke:#000000; stroke-linecap:round; stroke-linejoin:round; stroke-width:2; stroke-opacity:0.1; fill:none" points="217.904,2204.92 217.904,131.032 "/>
<polyline clip-path="url(#clip732)" style="stroke:#000000; stroke-linecap:round; stroke-linejoin:round; stroke-width:2; stroke-opacity:0.1; fill:none" points="804.874,2204.92 804.874,131.032 "/>
<polyline clip-path="url(#clip732)" style="stroke:#000000; stroke-linecap:round; stroke-linejoin:round; stroke-width:2; stroke-opacity:0.1; fill:none" points="1391.84,2204.92 1391.84,131.032 "/>
<polyline clip-path="url(#clip732)" style="stroke:#000000; stroke-linecap:round; stroke-linejoin:round; stroke-width:2; stroke-opacity:0.1; fill:none" points="1978.81,2204.92 1978.81,131.032 "/>
<polyline clip-path="url(#clip732)" style="stroke:#000000; stroke-linecap:round; stroke-linejoin:round; stroke-width:2; stroke-opacity:0.1; fill:none" points="2565.79,2204.92 2565.79,131.032 "/>
<polyline clip-path="url(#clip732)" style="stroke:#000000; stroke-linecap:round; stroke-linejoin:round; stroke-width:2; stroke-opacity:0.1; fill:none" points="3152.76,2204.92 3152.76,131.032 "/>
<polyline clip-path="url(#clip732)" style="stroke:#000000; stroke-linecap:round; stroke-linejoin:round; stroke-width:2; stroke-opacity:0.1; fill:none" points="217.904,1736.17 3152.76,1736.17 "/>
<polyline clip-path="url(#clip732)" style="stroke:#000000; stroke-linecap:round; stroke-linejoin:round; stroke-width:2; stroke-opacity:0.1; fill:none" points="217.904,1223.61 3152.76,1223.61 "/>
<polyline clip-path="url(#clip732)" style="stroke:#000000; stroke-linecap:round; stroke-linejoin:round; stroke-width:2; stroke-opacity:0.1; fill:none" points="217.904,711.049 3152.76,711.049 "/>
<polyline clip-path="url(#clip732)" style="stroke:#000000; stroke-linecap:round; stroke-linejoin:round; stroke-width:2; stroke-opacity:0.1; fill:none" points="217.904,198.487 3152.76,198.487 "/>
<polyline clip-path="url(#clip730)" style="stroke:#000000; stroke-linecap:round; stroke-linejoin:round; stroke-width:4; stroke-opacity:1; fill:none" points="217.904,2204.92 3152.76,2204.92 "/>
<polyline clip-path="url(#clip730)" style="stroke:#000000; stroke-linecap:round; stroke-linejoin:round; stroke-width:4; stroke-opacity:1; fill:none" points="217.904,2204.92 217.904,2186.02 "/>
<polyline clip-path="url(#clip730)" style="stroke:#000000; stroke-linecap:round; stroke-linejoin:round; stroke-width:4; stroke-opacity:1; fill:none" points="804.874,2204.92 804.874,2186.02 "/>
<polyline clip-path="url(#clip730)" style="stroke:#000000; stroke-linecap:round; stroke-linejoin:round; stroke-width:4; stroke-opacity:1; fill:none" points="1391.84,2204.92 1391.84,2186.02 "/>
<polyline clip-path="url(#clip730)" style="stroke:#000000; stroke-linecap:round; stroke-linejoin:round; stroke-width:4; stroke-opacity:1; fill:none" points="1978.81,2204.92 1978.81,2186.02 "/>
<polyline clip-path="url(#clip730)" style="stroke:#000000; stroke-linecap:round; stroke-linejoin:round; stroke-width:4; stroke-opacity:1; fill:none" points="2565.79,2204.92 2565.79,2186.02 "/>
<polyline clip-path="url(#clip730)" style="stroke:#000000; stroke-linecap:round; stroke-linejoin:round; stroke-width:4; stroke-opacity:1; fill:none" points="3152.76,2204.92 3152.76,2186.02 "/>
<path clip-path="url(#clip730)" d="M217.904 2242.24 Q214.292 2242.24 212.464 2245.8 Q210.658 2249.34 210.658 2256.47 Q210.658 2263.58 212.464 2267.15 Q214.292 2270.69 217.904 2270.69 Q221.538 2270.69 223.343 2267.15 Q225.172 2263.58 225.172 2256.47 Q225.172 2249.34 223.343 2245.8 Q221.538 2242.24 217.904 2242.24 M217.904 2238.53 Q223.714 2238.53 226.769 2243.14 Q229.848 2247.72 229.848 2256.47 Q229.848 2265.2 226.769 2269.81 Q223.714 2274.39 217.904 2274.39 Q212.093 2274.39 209.015 2269.81 Q205.959 2265.2 205.959 2256.47 Q205.959 2247.72 209.015 2243.14 Q212.093 2238.53 217.904 2238.53 Z" fill="#000000" fill-rule="nonzero" fill-opacity="1" /><path clip-path="url(#clip730)" d="M799.527 2269.78 L815.846 2269.78 L815.846 2273.72 L793.902 2273.72 L793.902 2269.78 Q796.564 2267.03 801.147 2262.4 Q805.754 2257.75 806.934 2256.41 Q809.18 2253.88 810.059 2252.15 Q810.962 2250.39 810.962 2248.7 Q810.962 2245.94 809.018 2244.21 Q807.096 2242.47 803.994 2242.47 Q801.795 2242.47 799.342 2243.23 Q796.911 2244 794.133 2245.55 L794.133 2240.83 Q796.957 2239.69 799.411 2239.11 Q801.865 2238.53 803.902 2238.53 Q809.272 2238.53 812.467 2241.22 Q815.661 2243.91 815.661 2248.4 Q815.661 2250.53 814.851 2252.45 Q814.064 2254.34 811.957 2256.94 Q811.379 2257.61 808.277 2260.83 Q805.175 2264.02 799.527 2269.78 Z" fill="#000000" fill-rule="nonzero" fill-opacity="1" /><path clip-path="url(#clip730)" d="M1394.85 2243.23 L1383.05 2261.68 L1394.85 2261.68 L1394.85 2243.23 M1393.63 2239.16 L1399.51 2239.16 L1399.51 2261.68 L1404.44 2261.68 L1404.44 2265.57 L1399.51 2265.57 L1399.51 2273.72 L1394.85 2273.72 L1394.85 2265.57 L1379.25 2265.57 L1379.25 2261.06 L1393.63 2239.16 Z" fill="#000000" fill-rule="nonzero" fill-opacity="1" /><path clip-path="url(#clip730)" d="M1979.22 2254.58 Q1976.07 2254.58 1974.22 2256.73 Q1972.39 2258.88 1972.39 2262.63 Q1972.39 2266.36 1974.22 2268.53 Q1976.07 2270.69 1979.22 2270.69 Q1982.37 2270.69 1984.2 2268.53 Q1986.05 2266.36 1986.05 2262.63 Q1986.05 2258.88 1984.2 2256.73 Q1982.37 2254.58 1979.22 2254.58 M1988.5 2239.92 L1988.5 2244.18 Q1986.74 2243.35 1984.94 2242.91 Q1983.16 2242.47 1981.4 2242.47 Q1976.77 2242.47 1974.31 2245.59 Q1971.88 2248.72 1971.53 2255.04 Q1972.9 2253.03 1974.96 2251.96 Q1977.02 2250.87 1979.5 2250.87 Q1984.71 2250.87 1987.72 2254.04 Q1990.75 2257.19 1990.75 2262.63 Q1990.75 2267.96 1987.6 2271.17 Q1984.45 2274.39 1979.22 2274.39 Q1973.22 2274.39 1970.05 2269.81 Q1966.88 2265.2 1966.88 2256.47 Q1966.88 2248.28 1970.77 2243.42 Q1974.66 2238.53 1981.21 2238.53 Q1982.97 2238.53 1984.75 2238.88 Q1986.56 2239.23 1988.5 2239.92 Z" fill="#000000" fill-rule="nonzero" fill-opacity="1" /><path clip-path="url(#clip730)" d="M2565.79 2257.31 Q2562.45 2257.31 2560.53 2259.09 Q2558.63 2260.87 2558.63 2264 Q2558.63 2267.12 2560.53 2268.91 Q2562.45 2270.69 2565.79 2270.69 Q2569.12 2270.69 2571.04 2268.91 Q2572.96 2267.1 2572.96 2264 Q2572.96 2260.87 2571.04 2259.09 Q2569.14 2257.31 2565.79 2257.31 M2561.11 2255.32 Q2558.1 2254.58 2556.41 2252.52 Q2554.74 2250.46 2554.74 2247.49 Q2554.74 2243.35 2557.68 2240.94 Q2560.65 2238.53 2565.79 2238.53 Q2570.95 2238.53 2573.89 2240.94 Q2576.83 2243.35 2576.83 2247.49 Q2576.83 2250.46 2575.14 2252.52 Q2573.47 2254.58 2570.48 2255.32 Q2573.86 2256.1 2575.74 2258.4 Q2577.64 2260.69 2577.64 2264 Q2577.64 2269.02 2574.56 2271.71 Q2571.5 2274.39 2565.79 2274.39 Q2560.07 2274.39 2556.99 2271.71 Q2553.93 2269.02 2553.93 2264 Q2553.93 2260.69 2555.83 2258.4 Q2557.73 2256.1 2561.11 2255.32 M2559.4 2247.93 Q2559.4 2250.62 2561.06 2252.12 Q2562.75 2253.63 2565.79 2253.63 Q2568.79 2253.63 2570.48 2252.12 Q2572.2 2250.62 2572.2 2247.93 Q2572.2 2245.25 2570.48 2243.74 Q2568.79 2242.24 2565.79 2242.24 Q2562.75 2242.24 2561.06 2243.74 Q2559.4 2245.25 2559.4 2247.93 Z" fill="#000000" fill-rule="nonzero" fill-opacity="1" /><path clip-path="url(#clip730)" d="M3127.44 2269.78 L3135.08 2269.78 L3135.08 2243.42 L3126.77 2245.09 L3126.77 2240.83 L3135.04 2239.16 L3139.71 2239.16 L3139.71 2269.78 L3147.35 2269.78 L3147.35 2273.72 L3127.44 2273.72 L3127.44 2269.78 Z" fill="#000000" fill-rule="nonzero" fill-opacity="1" /><path clip-path="url(#clip730)" d="M3166.8 2242.24 Q3163.18 2242.24 3161.36 2245.8 Q3159.55 2249.34 3159.55 2256.47 Q3159.55 2263.58 3161.36 2267.15 Q3163.18 2270.69 3166.8 2270.69 Q3170.43 2270.69 3172.23 2267.15 Q3174.06 2263.58 3174.06 2256.47 Q3174.06 2249.34 3172.23 2245.8 Q3170.43 2242.24 3166.8 2242.24 M3166.8 2238.53 Q3172.61 2238.53 3175.66 2243.14 Q3178.74 2247.72 3178.74 2256.47 Q3178.74 2265.2 3175.66 2269.81 Q3172.61 2274.39 3166.8 2274.39 Q3160.99 2274.39 3157.91 2269.81 Q3154.85 2265.2 3154.85 2256.47 Q3154.85 2247.72 3157.91 2243.14 Q3160.99 2238.53 3166.8 2238.53 Z" fill="#000000" fill-rule="nonzero" fill-opacity="1" /><path clip-path="url(#clip730)" d="M1565.3 2339.09 L1565.3 2356.5 L1575.62 2356.5 Q1580.8 2356.5 1583.29 2354.37 Q1585.8 2352.2 1585.8 2347.78 Q1585.8 2343.32 1583.29 2341.22 Q1580.8 2339.09 1575.62 2339.09 L1565.3 2339.09 M1565.3 2319.55 L1565.3 2333.87 L1574.82 2333.87 Q1579.53 2333.87 1581.82 2332.12 Q1584.15 2330.34 1584.15 2326.71 Q1584.15 2323.11 1581.82 2321.33 Q1579.53 2319.55 1574.82 2319.55 L1565.3 2319.55 M1558.87 2314.26 L1575.3 2314.26 Q1582.65 2314.26 1586.63 2317.32 Q1590.61 2320.37 1590.61 2326.01 Q1590.61 2330.37 1588.57 2332.95 Q1586.53 2335.53 1582.59 2336.16 Q1587.33 2337.18 1589.94 2340.43 Q1592.58 2343.64 1592.58 2348.48 Q1592.58 2354.85 1588.25 2358.31 Q1583.92 2361.78 1575.94 2361.78 L1558.87 2361.78 L1558.87 2314.26 Z" fill="#000000" fill-rule="nonzero" fill-opacity="1" /><path clip-path="url(#clip730)" d="M1609 2356.44 L1609 2375.34 L1603.12 2375.34 L1603.12 2326.14 L1609 2326.14 L1609 2331.55 Q1610.85 2328.36 1613.65 2326.84 Q1616.48 2325.28 1620.4 2325.28 Q1626.89 2325.28 1630.93 2330.43 Q1635.01 2335.59 1635.01 2343.99 Q1635.01 2352.39 1630.93 2357.55 Q1626.89 2362.71 1620.4 2362.71 Q1616.48 2362.71 1613.65 2361.18 Q1610.85 2359.62 1609 2356.44 M1628.93 2343.99 Q1628.93 2337.53 1626.26 2333.87 Q1623.61 2330.18 1618.97 2330.18 Q1614.32 2330.18 1611.65 2333.87 Q1609 2337.53 1609 2343.99 Q1609 2350.45 1611.65 2354.14 Q1614.32 2357.81 1618.97 2357.81 Q1623.61 2357.81 1626.26 2354.14 Q1628.93 2350.45 1628.93 2343.99 Z" fill="#000000" fill-rule="nonzero" fill-opacity="1" /><path clip-path="url(#clip730)" d="M1675.21 2342.5 L1675.21 2345.36 L1648.28 2345.36 Q1648.66 2351.41 1651.91 2354.59 Q1655.19 2357.74 1661.01 2357.74 Q1664.39 2357.74 1667.54 2356.91 Q1670.72 2356.09 1673.84 2354.43 L1673.84 2359.97 Q1670.69 2361.31 1667.38 2362.01 Q1664.07 2362.71 1660.66 2362.71 Q1652.13 2362.71 1647.14 2357.74 Q1642.17 2352.78 1642.17 2344.31 Q1642.17 2335.56 1646.88 2330.43 Q1651.62 2325.28 1659.64 2325.28 Q1666.84 2325.28 1671.01 2329.92 Q1675.21 2334.54 1675.21 2342.5 M1669.35 2340.78 Q1669.29 2335.97 1666.65 2333.11 Q1664.04 2330.24 1659.71 2330.24 Q1654.81 2330.24 1651.85 2333.01 Q1648.92 2335.78 1648.47 2340.81 L1669.35 2340.78 Z" fill="#000000" fill-rule="nonzero" fill-opacity="1" /><path clip-path="url(#clip730)" d="M1684.6 2326.14 L1693.16 2326.14 L1703.28 2350.01 L1713.43 2326.14 L1721.93 2326.14 L1721.93 2361.78 L1716.04 2361.78 L1716.04 2331.74 L1706.21 2354.94 L1700.35 2354.94 L1690.49 2331.74 L1690.49 2361.78 L1684.6 2361.78 L1684.6 2326.14 Z" fill="#000000" fill-rule="nonzero" fill-opacity="1" /><path clip-path="url(#clip730)" d="M1739.88 2336.42 Q1739.88 2339.06 1741.92 2340.55 Q1743.96 2342.05 1747.75 2342.05 L1755.64 2342.05 L1755.64 2330.81 L1747.75 2330.81 Q1743.96 2330.81 1741.92 2332.28 Q1739.88 2333.74 1739.88 2336.42 M1731.54 2361.78 L1742.43 2346.16 Q1738.74 2345.33 1736.29 2343.16 Q1733.84 2340.97 1733.84 2336.42 Q1733.84 2331.26 1737.24 2328.71 Q1740.68 2326.14 1747.59 2326.14 L1761.53 2326.14 L1761.53 2361.78 L1755.64 2361.78 L1755.64 2346.73 L1748.35 2346.73 L1737.85 2361.78 L1731.54 2361.78 Z" fill="#000000" fill-rule="nonzero" fill-opacity="1" /><path clip-path="url(#clip730)" d="M1799.72 2316.01 L1799.72 2326.14 L1811.78 2326.14 L1811.78 2330.69 L1799.72 2330.69 L1799.72 2350.04 Q1799.72 2354.4 1800.9 2355.64 Q1802.11 2356.88 1805.77 2356.88 L1811.78 2356.88 L1811.78 2361.78 L1805.77 2361.78 Q1798.99 2361.78 1796.41 2359.27 Q1793.83 2356.72 1793.83 2350.04 L1793.83 2330.69 L1789.54 2330.69 L1789.54 2326.14 L1793.83 2326.14 L1793.83 2316.01 L1799.72 2316.01 Z" fill="#000000" fill-rule="nonzero" fill-opacity="1" /><polyline clip-path="url(#clip730)" style="stroke:#000000; stroke-linecap:round; stroke-linejoin:round; stroke-width:4; stroke-opacity:1; fill:none" points="217.904,2204.92 217.904,131.032 "/>
<polyline clip-path="url(#clip730)" style="stroke:#000000; stroke-linecap:round; stroke-linejoin:round; stroke-width:4; stroke-opacity:1; fill:none" points="217.904,1736.17 236.801,1736.17 "/>
<polyline clip-path="url(#clip730)" style="stroke:#000000; stroke-linecap:round; stroke-linejoin:round; stroke-width:4; stroke-opacity:1; fill:none" points="217.904,1223.61 236.801,1223.61 "/>
<polyline clip-path="url(#clip730)" style="stroke:#000000; stroke-linecap:round; stroke-linejoin:round; stroke-width:4; stroke-opacity:1; fill:none" points="217.904,711.049 236.801,711.049 "/>
<polyline clip-path="url(#clip730)" style="stroke:#000000; stroke-linecap:round; stroke-linejoin:round; stroke-width:4; stroke-opacity:1; fill:none" points="217.904,198.487 236.801,198.487 "/>
<path clip-path="url(#clip730)" d="M149.001 1718.89 L167.357 1718.89 L167.357 1722.83 L153.283 1722.83 L153.283 1731.3 Q154.302 1730.95 155.32 1730.79 Q156.339 1730.61 157.357 1730.61 Q163.144 1730.61 166.524 1733.78 Q169.904 1736.95 169.904 1742.37 Q169.904 1747.95 166.431 1751.05 Q162.959 1754.13 156.64 1754.13 Q154.464 1754.13 152.195 1753.76 Q149.95 1753.39 147.543 1752.64 L147.543 1747.95 Q149.626 1749.08 151.848 1749.64 Q154.07 1750.19 156.547 1750.19 Q160.552 1750.19 162.89 1748.08 Q165.228 1745.98 165.228 1742.37 Q165.228 1738.76 162.89 1736.65 Q160.552 1734.54 156.547 1734.54 Q154.672 1734.54 152.797 1734.96 Q150.945 1735.38 149.001 1736.26 L149.001 1718.89 Z" fill="#000000" fill-rule="nonzero" fill-opacity="1" /><path clip-path="url(#clip730)" d="M118.608 1236.96 L126.246 1236.96 L126.246 1210.59 L117.936 1212.26 L117.936 1208 L126.2 1206.33 L130.876 1206.33 L130.876 1236.96 L138.515 1236.96 L138.515 1240.89 L118.608 1240.89 L118.608 1236.96 Z" fill="#000000" fill-rule="nonzero" fill-opacity="1" /><path clip-path="url(#clip730)" d="M157.959 1209.41 Q154.348 1209.41 152.519 1212.98 Q150.714 1216.52 150.714 1223.65 Q150.714 1230.75 152.519 1234.32 Q154.348 1237.86 157.959 1237.86 Q161.593 1237.86 163.399 1234.32 Q165.228 1230.75 165.228 1223.65 Q165.228 1216.52 163.399 1212.98 Q161.593 1209.41 157.959 1209.41 M157.959 1205.71 Q163.769 1205.71 166.825 1210.31 Q169.904 1214.9 169.904 1223.65 Q169.904 1232.37 166.825 1236.98 Q163.769 1241.56 157.959 1241.56 Q152.149 1241.56 149.07 1236.98 Q146.015 1232.37 146.015 1223.65 Q146.015 1214.9 149.07 1210.31 Q152.149 1205.71 157.959 1205.71 Z" fill="#000000" fill-rule="nonzero" fill-opacity="1" /><path clip-path="url(#clip730)" d="M119.603 724.394 L127.242 724.394 L127.242 698.029 L118.932 699.695 L118.932 695.436 L127.195 693.769 L131.871 693.769 L131.871 724.394 L139.51 724.394 L139.51 728.329 L119.603 728.329 L119.603 724.394 Z" fill="#000000" fill-rule="nonzero" fill-opacity="1" /><path clip-path="url(#clip730)" d="M149.001 693.769 L167.357 693.769 L167.357 697.704 L153.283 697.704 L153.283 706.177 Q154.302 705.829 155.32 705.667 Q156.339 705.482 157.357 705.482 Q163.144 705.482 166.524 708.653 Q169.904 711.825 169.904 717.241 Q169.904 722.82 166.431 725.922 Q162.959 729.001 156.64 729.001 Q154.464 729.001 152.195 728.63 Q149.95 728.26 147.543 727.519 L147.543 722.82 Q149.626 723.954 151.848 724.51 Q154.07 725.065 156.547 725.065 Q160.552 725.065 162.89 722.959 Q165.228 720.853 165.228 717.241 Q165.228 713.63 162.89 711.524 Q160.552 709.417 156.547 709.417 Q154.672 709.417 152.797 709.834 Q150.945 710.251 149.001 711.13 L149.001 693.769 Z" fill="#000000" fill-rule="nonzero" fill-opacity="1" /><path clip-path="url(#clip730)" d="M121.825 211.831 L138.144 211.831 L138.144 215.767 L116.2 215.767 L116.2 211.831 Q118.862 209.077 123.445 204.447 Q128.052 199.794 129.232 198.452 Q131.478 195.929 132.357 194.193 Q133.26 192.433 133.26 190.744 Q133.26 187.989 131.316 186.253 Q129.395 184.517 126.293 184.517 Q124.094 184.517 121.64 185.281 Q119.209 186.045 116.432 187.595 L116.432 182.873 Q119.256 181.739 121.709 181.16 Q124.163 180.582 126.2 180.582 Q131.57 180.582 134.765 183.267 Q137.959 185.952 137.959 190.443 Q137.959 192.572 137.149 194.494 Q136.362 196.392 134.256 198.984 Q133.677 199.656 130.575 202.873 Q127.473 206.068 121.825 211.831 Z" fill="#000000" fill-rule="nonzero" fill-opacity="1" /><path clip-path="url(#clip730)" d="M157.959 184.285 Q154.348 184.285 152.519 187.85 Q150.714 191.392 150.714 198.521 Q150.714 205.628 152.519 209.193 Q154.348 212.734 157.959 212.734 Q161.593 212.734 163.399 209.193 Q165.228 205.628 165.228 198.521 Q165.228 191.392 163.399 187.85 Q161.593 184.285 157.959 184.285 M157.959 180.582 Q163.769 180.582 166.825 185.188 Q169.904 189.771 169.904 198.521 Q169.904 207.248 166.825 211.855 Q163.769 216.438 157.959 216.438 Q152.149 216.438 149.07 211.855 Q146.015 207.248 146.015 198.521 Q146.015 189.771 149.07 185.188 Q152.149 180.582 157.959 180.582 Z" fill="#000000" fill-rule="nonzero" fill-opacity="1" /><path clip-path="url(#clip730)" d="M6.42416 1345.07 L53.9442 1345.07 L53.9442 1351.5 L11.835 1351.5 L11.835 1374.86 L53.9442 1374.86 L53.9442 1381.29 L6.42416 1381.29 L6.42416 1345.07 Z" fill="#000000" fill-rule="nonzero" fill-opacity="1" /><path clip-path="url(#clip730)" d="M22.4021 1318.72 Q22.4021 1323.43 26.0942 1326.16 Q29.7545 1328.9 36.152 1328.9 Q42.5495 1328.9 46.2417 1326.2 Q49.9019 1323.46 49.9019 1318.72 Q49.9019 1314.04 46.2098 1311.3 Q42.5177 1308.56 36.152 1308.56 Q29.8181 1308.56 26.126 1311.3 Q22.4021 1314.04 22.4021 1318.72 M17.4368 1318.72 Q17.4368 1311.08 22.4021 1306.72 Q27.3673 1302.36 36.152 1302.36 Q44.9049 1302.36 49.9019 1306.72 Q54.8672 1311.08 54.8672 1318.72 Q54.8672 1326.39 49.9019 1330.75 Q44.9049 1335.08 36.152 1335.08 Q27.3673 1335.08 22.4021 1330.75 Q17.4368 1326.39 17.4368 1318.72 Z" fill="#000000" fill-rule="nonzero" fill-opacity="1" /><path clip-path="url(#clip730)" d="M18.2962 1262.09 L53.9442 1262.09 L53.9442 1267.98 L22.975 1267.98 L22.975 1286.98 L53.9442 1286.98 L53.9442 1292.87 L18.2962 1292.87 L18.2962 1262.09 Z" fill="#000000" fill-rule="nonzero" fill-opacity="1" /><path clip-path="url(#clip730)" d="M57.2543 1235.2 Q63.62 1237.68 65.5616 1240.04 Q67.5031 1242.39 67.5031 1246.34 L67.5031 1251.02 L62.6015 1251.02 L62.6015 1247.58 Q62.6015 1245.16 61.4557 1243.82 Q60.3099 1242.49 56.0448 1240.86 L53.3712 1239.81 L18.2962 1254.23 L18.2962 1248.02 L46.178 1236.88 L18.2962 1225.74 L18.2962 1219.54 L57.2543 1235.2 Z" fill="#000000" fill-rule="nonzero" fill-opacity="1" /><path clip-path="url(#clip730)" d="M53.9442 1215.18 L49.0744 1215.18 Q48.1832 1209.38 44.1728 1207.6 Q38.5391 1205.44 24.1208 1205.44 L18.2962 1205.44 L18.2962 1181.34 L53.9442 1181.34 L53.9442 1187.2 L22.975 1187.2 L22.975 1199.58 L26.508 1199.58 Q40.2579 1199.58 46.4326 1202.38 Q53.0211 1205.37 53.9442 1215.18 Z" fill="#000000" fill-rule="nonzero" fill-opacity="1" /><path clip-path="url(#clip730)" d="M28.5768 1163.9 Q31.2186 1163.9 32.7145 1161.86 Q34.2105 1159.83 34.2105 1156.04 L34.2105 1148.15 L22.975 1148.15 L22.975 1156.04 Q22.975 1159.83 24.4391 1161.86 Q25.9032 1163.9 28.5768 1163.9 M53.9442 1172.24 L38.3163 1161.36 Q37.4888 1165.05 35.3245 1167.5 Q33.1283 1169.95 28.5768 1169.95 Q23.4206 1169.95 20.8743 1166.54 Q18.2962 1163.11 18.2962 1156.2 L18.2962 1142.26 L53.9442 1142.26 L53.9442 1148.15 L38.8893 1148.15 L38.8893 1155.44 L53.9442 1165.94 L53.9442 1172.24 Z" fill="#000000" fill-rule="nonzero" fill-opacity="1" /><path clip-path="url(#clip730)" d="M53.9442 1100.02 L53.9442 1130.8 L18.2962 1130.8 L18.2962 1124.91 L49.2654 1124.91 L49.2654 1105.91 L18.2962 1105.91 L18.2962 1100.02 L49.2654 1100.02 L49.2654 1095.34 L62.9516 1095.34 L62.9516 1100.02 L53.9442 1100.02 Z" fill="#000000" fill-rule="nonzero" fill-opacity="1" /><path clip-path="url(#clip730)" d="M18.2962 1055.91 L53.9442 1055.91 L53.9442 1061.73 L25.3303 1061.73 L53.9442 1078.92 L53.9442 1086.43 L18.2962 1086.43 L18.2962 1080.61 L46.8464 1080.61 L18.2962 1063.45 L18.2962 1055.91 Z" fill="#000000" fill-rule="nonzero" fill-opacity="1" /><path clip-path="url(#clip730)" d="M28.5768 1037.96 Q31.2186 1037.96 32.7145 1035.92 Q34.2105 1033.88 34.2105 1030.09 L34.2105 1022.2 L22.975 1022.2 L22.975 1030.09 Q22.975 1033.88 24.4391 1035.92 Q25.9032 1037.96 28.5768 1037.96 M53.9442 1046.3 L38.3163 1035.41 Q37.4888 1039.1 35.3245 1041.55 Q33.1283 1044 28.5768 1044 Q23.4206 1044 20.8743 1040.6 Q18.2962 1037.16 18.2962 1030.25 L18.2962 1016.31 L53.9442 1016.31 L53.9442 1022.2 L38.8893 1022.2 L38.8893 1029.49 L53.9442 1039.99 L53.9442 1046.3 Z" fill="#000000" fill-rule="nonzero" fill-opacity="1" /><path clip-path="url(#clip730)" d="M39.8759 984.516 L18.2962 984.516 L18.2962 978.66 L39.6531 978.66 Q44.7139 978.66 47.2602 976.686 Q49.7746 974.713 49.7746 970.766 Q49.7746 966.024 46.7509 963.287 Q43.7272 960.518 38.5073 960.518 L18.2962 960.518 L18.2962 954.661 L53.9442 954.661 L53.9442 960.518 L48.4696 960.518 Q51.7162 962.65 53.3076 965.483 Q54.8672 968.284 54.8672 972.008 Q54.8672 978.151 51.0478 981.333 Q47.2283 984.516 39.8759 984.516 M17.4368 969.78 L17.4368 969.78 Z" fill="#000000" fill-rule="nonzero" fill-opacity="1" /><path clip-path="url(#clip730)" d="M951.792 59.3701 Q960.339 67.0263 970.71 67.0263 Q981.404 67.0263 986.225 61.274 Q991.045 55.5217 991.936 45.84 L959.61 45.84 L959.61 38.9535 L991.936 38.9535 Q991.045 29.2718 986.225 23.5195 Q981.404 17.7268 970.71 17.7268 Q960.339 17.7268 951.792 25.383 L951.792 16.7545 Q960.218 11.0023 971.196 11.0023 Q984.766 11.0023 992.666 19.4281 Q1000.56 27.8135 1000.56 42.3563 Q1000.56 56.9395 992.666 65.3654 Q984.766 73.7508 971.196 73.7508 Q960.38 73.7508 951.792 67.9175 L951.792 59.3701 Z" fill="#000000" fill-rule="nonzero" fill-opacity="1" /><path clip-path="url(#clip730)" d="M1012.76 27.2059 L1020.17 27.2059 L1020.17 48.5136 L1041.2 27.2059 L1050.35 27.2059 L1033.01 44.7463 L1052.58 72.576 L1044.23 72.576 L1028.15 49.6884 L1020.17 57.7902 L1020.17 72.576 L1012.76 72.576 L1012.76 27.2059 Z" fill="#000000" fill-rule="nonzero" fill-opacity="1" /><path clip-path="url(#clip730)" d="M1095.8 28.9478 L1095.8 35.9153 Q1092.64 34.1734 1089.44 33.3227 Q1086.28 32.4315 1083.04 32.4315 Q1075.79 32.4315 1071.78 37.0496 Q1067.77 41.6271 1067.77 49.9314 Q1067.77 58.2358 1071.78 62.8538 Q1075.79 67.4314 1083.04 67.4314 Q1086.28 67.4314 1089.44 66.5807 Q1092.64 65.6895 1095.8 63.9476 L1095.8 70.8341 Q1092.68 72.2924 1089.32 73.0216 Q1086 73.7508 1082.23 73.7508 Q1071.98 73.7508 1065.95 67.3098 Q1059.91 60.8689 1059.91 49.9314 Q1059.91 38.832 1065.99 32.472 Q1072.1 26.1121 1082.72 26.1121 Q1086.16 26.1121 1089.44 26.8413 Q1092.72 27.5299 1095.8 28.9478 Z" fill="#000000" fill-rule="nonzero" fill-opacity="1" /><path clip-path="url(#clip730)" d="M1147.65 27.2059 L1147.65 72.576 L1140.16 72.576 L1140.16 33.1607 L1115.98 33.1607 L1115.98 72.576 L1108.48 72.576 L1108.48 27.2059 L1147.65 27.2059 Z" fill="#000000" fill-rule="nonzero" fill-opacity="1" /><path clip-path="url(#clip730)" d="M1180.59 32.4315 Q1174.59 32.4315 1171.11 37.1306 Q1167.62 41.7891 1167.62 49.9314 Q1167.62 58.0738 1171.07 62.7728 Q1174.55 67.4314 1180.59 67.4314 Q1186.54 67.4314 1190.03 62.7323 Q1193.51 58.0333 1193.51 49.9314 Q1193.51 41.8701 1190.03 37.1711 Q1186.54 32.4315 1180.59 32.4315 M1180.59 26.1121 Q1190.31 26.1121 1195.86 32.4315 Q1201.41 38.7509 1201.41 49.9314 Q1201.41 61.0714 1195.86 67.4314 Q1190.31 73.7508 1180.59 73.7508 Q1170.82 73.7508 1165.27 67.4314 Q1159.77 61.0714 1159.77 49.9314 Q1159.77 38.7509 1165.27 32.4315 Q1170.82 26.1121 1180.59 26.1121 Z" fill="#000000" fill-rule="nonzero" fill-opacity="1" /><path clip-path="url(#clip730)" d="M1213.48 27.2059 L1220.97 27.2059 L1220.97 45.7185 L1245.16 45.7185 L1245.16 27.2059 L1252.65 27.2059 L1252.65 72.576 L1245.16 72.576 L1245.16 51.6733 L1220.97 51.6733 L1220.97 72.576 L1213.48 72.576 L1213.48 27.2059 Z" fill="#000000" fill-rule="nonzero" fill-opacity="1" /><path clip-path="url(#clip730)" d="M1306.81 48.0275 L1306.81 51.6733 L1272.54 51.6733 Q1273.03 59.3701 1277.16 63.421 Q1281.33 67.4314 1288.75 67.4314 Q1293.04 67.4314 1297.05 66.3781 Q1301.1 65.3249 1305.07 63.2184 L1305.07 70.267 Q1301.06 71.9684 1296.85 72.8596 Q1292.64 73.7508 1288.3 73.7508 Q1277.44 73.7508 1271.08 67.4314 Q1264.76 61.1119 1264.76 50.3365 Q1264.76 39.1965 1270.76 32.6746 Q1276.8 26.1121 1287 26.1121 Q1296.16 26.1121 1301.47 32.0264 Q1306.81 37.9003 1306.81 48.0275 M1299.36 45.84 Q1299.28 39.7232 1295.92 36.0774 Q1292.59 32.4315 1287.09 32.4315 Q1280.85 32.4315 1277.08 35.9558 Q1273.35 39.4801 1272.79 45.8805 L1299.36 45.84 Z" fill="#000000" fill-rule="nonzero" fill-opacity="1" /><path clip-path="url(#clip730)" d="M1318.76 27.2059 L1326.26 27.2059 L1326.26 45.7185 L1350.44 45.7185 L1350.44 27.2059 L1357.94 27.2059 L1357.94 72.576 L1350.44 72.576 L1350.44 51.6733 L1326.26 51.6733 L1326.26 72.576 L1318.76 72.576 L1318.76 27.2059 Z" fill="#000000" fill-rule="nonzero" fill-opacity="1" /><path clip-path="url(#clip730)" d="M1412.18 72.576 L1373.01 72.576 L1373.01 27.2059 L1380.5 27.2059 L1380.5 66.6212 L1404.68 66.6212 L1404.68 27.2059 L1412.18 27.2059 L1412.18 66.6212 L1418.13 66.6212 L1418.13 84.0401 L1412.18 84.0401 L1412.18 72.576 Z" fill="#000000" fill-rule="nonzero" fill-opacity="1" /><path clip-path="url(#clip730)" d="M1468.32 27.2059 L1468.32 72.576 L1460.91 72.576 L1460.91 36.1584 L1439.03 72.576 L1429.47 72.576 L1429.47 27.2059 L1436.89 27.2059 L1436.89 63.5425 L1458.72 27.2059 L1468.32 27.2059 Z" fill="#000000" fill-rule="nonzero" fill-opacity="1" /><path clip-path="url(#clip730)" d="M1504.29 49.7694 Q1495.26 49.7694 1491.78 51.8354 Q1488.29 53.9013 1488.29 58.8839 Q1488.29 62.8538 1490.89 65.2034 Q1493.52 67.5124 1498.02 67.5124 Q1504.21 67.5124 1507.94 63.1374 Q1511.71 58.7219 1511.71 51.4303 L1511.71 49.7694 L1504.29 49.7694 M1519.16 46.6907 L1519.16 72.576 L1511.71 72.576 L1511.71 65.6895 Q1509.16 69.8214 1505.35 71.8063 Q1501.54 73.7508 1496.03 73.7508 Q1489.06 73.7508 1484.93 69.8619 Q1480.84 65.9325 1480.84 59.3701 Q1480.84 51.7138 1485.94 47.825 Q1491.09 43.9361 1501.26 43.9361 L1511.71 43.9361 L1511.71 43.2069 Q1511.71 38.0623 1508.31 35.2672 Q1504.94 32.4315 1498.83 32.4315 Q1494.94 32.4315 1491.25 33.3632 Q1487.56 34.295 1484.16 36.1584 L1484.16 29.2718 Q1488.25 27.692 1492.1 26.9223 Q1495.95 26.1121 1499.6 26.1121 Q1509.44 26.1121 1514.3 31.2163 Q1519.16 36.3204 1519.16 46.6907 Z" fill="#000000" fill-rule="nonzero" fill-opacity="1" /><path clip-path="url(#clip730)" d="M1529.78 72.576 L1529.78 66.3781 Q1537.15 65.2439 1539.42 60.1397 Q1542.17 52.9696 1542.17 34.619 L1542.17 27.2059 L1572.84 27.2059 L1572.84 72.576 L1565.38 72.576 L1565.38 33.1607 L1549.62 33.1607 L1549.62 37.6572 Q1549.62 55.1571 1546.06 63.0159 Q1542.25 71.4012 1529.78 72.576 Z" fill="#000000" fill-rule="nonzero" fill-opacity="1" /><path clip-path="url(#clip730)" d="M1615.78 59.127 Q1615.78 55.4812 1613.1 53.5773 Q1610.47 51.6733 1605.36 51.6733 L1594.75 51.6733 L1594.75 66.6212 L1605.36 66.6212 Q1610.47 66.6212 1613.1 64.7172 Q1615.78 62.7728 1615.78 59.127 M1587.26 27.2059 L1594.75 27.2059 L1594.75 45.7185 L1605.69 45.7185 Q1614.36 45.7185 1619.02 49.0402 Q1623.72 52.3215 1623.72 59.127 Q1623.72 65.9325 1619.02 69.2543 Q1614.36 72.576 1605.69 72.576 L1587.26 72.576 L1587.26 27.2059 Z" fill="#000000" fill-rule="nonzero" fill-opacity="1" /><path clip-path="url(#clip730)" d="M1636.15 27.2059 L1643.65 27.2059 L1643.65 45.7185 L1667.83 45.7185 L1667.83 27.2059 L1675.32 27.2059 L1675.32 72.576 L1667.83 72.576 L1667.83 51.6733 L1643.65 51.6733 L1643.65 72.576 L1636.15 72.576 L1636.15 27.2059 Z" fill="#000000" fill-rule="nonzero" fill-opacity="1" /><path clip-path="url(#clip730)" d="M1733.54 27.2059 L1740.99 27.2059 L1740.99 72.576 L1733.54 72.576 L1733.54 27.2059 M1737.26 26.1121 L1737.26 26.1121 M1718.91 59.127 Q1718.91 55.4812 1716.24 53.5773 Q1713.61 51.6733 1708.5 51.6733 L1697.89 51.6733 L1697.89 66.6212 L1708.5 66.6212 Q1713.61 66.6212 1716.24 64.7172 Q1718.91 62.7728 1718.91 59.127 M1690.39 27.2059 L1697.89 27.2059 L1697.89 45.7185 L1708.82 45.7185 Q1717.49 45.7185 1722.15 49.0402 Q1726.85 52.3215 1726.85 59.127 Q1726.85 65.9325 1722.15 69.2543 Q1717.49 72.576 1708.82 72.576 L1690.39 72.576 L1690.39 27.2059 Z" fill="#000000" fill-rule="nonzero" fill-opacity="1" /><path clip-path="url(#clip730)" d="M1794.74 27.2059 L1794.74 72.576 L1787.33 72.576 L1787.33 36.1584 L1765.46 72.576 L1755.9 72.576 L1755.9 27.2059 L1763.31 27.2059 L1763.31 63.5425 L1785.14 27.2059 L1794.74 27.2059 M1762.66 9.54393 L1767.44 9.54393 Q1767.89 12.5821 1769.83 14.1215 Q1771.82 15.6203 1775.34 15.6203 Q1778.82 15.6203 1780.77 14.1215 Q1782.71 12.6226 1783.24 9.54393 L1788.02 9.54393 Q1787.62 15.3367 1784.41 18.2534 Q1781.21 21.17 1775.34 21.17 Q1769.47 21.17 1766.27 18.2534 Q1763.07 15.3367 1762.66 9.54393 Z" fill="#000000" fill-rule="nonzero" fill-opacity="1" /><path clip-path="url(#clip730)" d="M1843.68 65.7705 L1843.68 89.8329 L1836.19 89.8329 L1836.19 27.2059 L1843.68 27.2059 L1843.68 34.0924 Q1846.03 30.0415 1849.59 28.0971 Q1853.2 26.1121 1858.18 26.1121 Q1866.45 26.1121 1871.59 32.6746 Q1876.78 39.2371 1876.78 49.9314 Q1876.78 60.6258 1871.59 67.1883 Q1866.45 73.7508 1858.18 73.7508 Q1853.2 73.7508 1849.59 71.8063 Q1846.03 69.8214 1843.68 65.7705 M1869.04 49.9314 Q1869.04 41.7081 1865.64 37.0496 Q1862.27 32.3505 1856.36 32.3505 Q1850.44 32.3505 1847.04 37.0496 Q1843.68 41.7081 1843.68 49.9314 Q1843.68 58.1548 1847.04 62.8538 Q1850.44 67.5124 1856.36 67.5124 Q1862.27 67.5124 1865.64 62.8538 Q1869.04 58.1548 1869.04 49.9314 Z" fill="#000000" fill-rule="nonzero" fill-opacity="1" /><path clip-path="url(#clip730)" d="M1906.71 32.4315 Q1900.72 32.4315 1897.23 37.1306 Q1893.75 41.7891 1893.75 49.9314 Q1893.75 58.0738 1897.19 62.7728 Q1900.68 67.4314 1906.71 67.4314 Q1912.67 67.4314 1916.15 62.7323 Q1919.63 58.0333 1919.63 49.9314 Q1919.63 41.8701 1916.15 37.1711 Q1912.67 32.4315 1906.71 32.4315 M1906.71 26.1121 Q1916.43 26.1121 1921.98 32.4315 Q1927.53 38.7509 1927.53 49.9314 Q1927.53 61.0714 1921.98 67.4314 Q1916.43 73.7508 1906.71 73.7508 Q1896.95 73.7508 1891.4 67.4314 Q1885.89 61.0714 1885.89 49.9314 Q1885.89 38.7509 1891.4 32.4315 Q1896.95 26.1121 1906.71 26.1121 Z" fill="#000000" fill-rule="nonzero" fill-opacity="1" /><path clip-path="url(#clip730)" d="M1972.54 28.9478 L1972.54 35.9153 Q1969.38 34.1734 1966.18 33.3227 Q1963.02 32.4315 1959.78 32.4315 Q1952.53 32.4315 1948.52 37.0496 Q1944.51 41.6271 1944.51 49.9314 Q1944.51 58.2358 1948.52 62.8538 Q1952.53 67.4314 1959.78 67.4314 Q1963.02 67.4314 1966.18 66.5807 Q1969.38 65.6895 1972.54 63.9476 L1972.54 70.8341 Q1969.42 72.2924 1966.06 73.0216 Q1962.74 73.7508 1958.97 73.7508 Q1948.72 73.7508 1942.68 67.3098 Q1936.65 60.8689 1936.65 49.9314 Q1936.65 38.832 1942.72 32.472 Q1948.84 26.1121 1959.45 26.1121 Q1962.9 26.1121 1966.18 26.8413 Q1969.46 27.5299 1972.54 28.9478 Z" fill="#000000" fill-rule="nonzero" fill-opacity="1" /><path clip-path="url(#clip730)" d="M1980.11 27.2059 L2023.58 27.2059 L2023.58 33.1607 L2005.51 33.1607 L2005.51 72.576 L1998.18 72.576 L1998.18 33.1607 L1980.11 33.1607 L1980.11 27.2059 Z" fill="#000000" fill-rule="nonzero" fill-opacity="1" /><path clip-path="url(#clip730)" d="M2078.11 9.62495 Q2072.68 18.942 2070.04 28.0566 Q2067.41 37.1711 2067.41 46.5287 Q2067.41 55.8863 2070.04 65.0818 Q2072.72 74.2369 2078.11 83.5134 L2071.62 83.5134 Q2065.55 73.9938 2062.51 64.7983 Q2059.51 55.6027 2059.51 46.5287 Q2059.51 37.4952 2062.51 28.3401 Q2065.51 19.1851 2071.62 9.62495 L2078.11 9.62495 Z" fill="#000000" fill-rule="nonzero" fill-opacity="1" /><path clip-path="url(#clip730)" d="M2119.02 51.4708 L2117.24 42.1132 Q2115.41 32.5126 2108.2 32.5126 Q2102.78 32.5126 2100.3 36.9686 Q2097.19 42.5588 2097.19 49.9314 Q2097.19 58.8434 2100.22 63.0969 Q2103.3 67.4314 2108.2 67.4314 Q2113.63 67.4314 2116.55 58.8029 L2119.02 51.4708 M2123.19 39.075 L2127.2 27.2059 L2133.85 27.2059 L2125.54 51.7949 L2127.16 60.6663 Q2127.53 62.6513 2128.94 64.3122 Q2130.61 66.2566 2131.9 66.2566 L2135.47 66.2566 L2135.47 72.576 L2131.01 72.576 Q2127.2 72.576 2123.8 69.1732 Q2122.14 67.4719 2121.45 63.9071 Q2119.59 68.4036 2115.78 71.9279 Q2114 73.5887 2108.2 73.5887 Q2098.68 73.5887 2094.07 67.4314 Q2089.33 61.0714 2089.33 49.9314 Q2089.33 38.0218 2094.47 32.4315 Q2100.18 26.1931 2108.2 26.1931 Q2120.8 26.1931 2123.19 39.075 Z" fill="#000000" fill-rule="nonzero" fill-opacity="1" /><path clip-path="url(#clip730)" d="M2174.6 34.9026 L2226.53 34.9026 L2226.53 41.7081 L2174.6 41.7081 L2174.6 34.9026 M2174.6 51.4303 L2226.53 51.4303 L2226.53 58.3168 L2174.6 58.3168 L2174.6 51.4303 Z" fill="#000000" fill-rule="nonzero" fill-opacity="1" /><path clip-path="url(#clip730)" d="M2288.06 17.4837 Q2281.74 17.4837 2278.54 23.7221 Q2275.38 29.92 2275.38 42.3968 Q2275.38 54.833 2278.54 61.0714 Q2281.74 67.2693 2288.06 67.2693 Q2294.42 67.2693 2297.58 61.0714 Q2300.78 54.833 2300.78 42.3968 Q2300.78 29.92 2297.58 23.7221 Q2294.42 17.4837 2288.06 17.4837 M2288.06 11.0023 Q2298.23 11.0023 2303.58 19.0636 Q2308.97 27.0843 2308.97 42.3968 Q2308.97 57.6687 2303.58 65.73 Q2298.23 73.7508 2288.06 73.7508 Q2277.9 73.7508 2272.51 65.73 Q2267.16 57.6687 2267.16 42.3968 Q2267.16 27.0843 2272.51 19.0636 Q2277.9 11.0023 2288.06 11.0023 Z" fill="#000000" fill-rule="nonzero" fill-opacity="1" /><path clip-path="url(#clip730)" d="M2323.35 62.2867 L2331.89 62.2867 L2331.89 72.576 L2323.35 72.576 L2323.35 62.2867 Z" fill="#000000" fill-rule="nonzero" fill-opacity="1" /><path clip-path="url(#clip730)" d="M2374.51 39.9662 Q2380.38 41.222 2383.67 45.1919 Q2386.99 49.1618 2386.99 54.9951 Q2386.99 63.9476 2380.83 68.8492 Q2374.67 73.7508 2363.33 73.7508 Q2359.52 73.7508 2355.47 72.9811 Q2351.46 72.2519 2347.17 70.7531 L2347.17 62.8538 Q2350.57 64.8388 2354.62 65.8515 Q2358.67 66.8642 2363.09 66.8642 Q2370.78 66.8642 2374.79 63.826 Q2378.84 60.7879 2378.84 54.9951 Q2378.84 49.6479 2375.08 46.6502 Q2371.35 43.612 2364.67 43.612 L2357.62 43.612 L2357.62 36.8875 L2364.99 36.8875 Q2371.03 36.8875 2374.23 34.4975 Q2377.43 32.067 2377.43 27.5299 Q2377.43 22.8714 2374.1 20.4004 Q2370.82 17.8888 2364.67 17.8888 Q2361.3 17.8888 2357.46 18.618 Q2353.61 19.3471 2348.99 20.8865 L2348.99 13.5948 Q2353.65 12.2985 2357.7 11.6504 Q2361.79 11.0023 2365.4 11.0023 Q2374.71 11.0023 2380.14 15.2557 Q2385.57 19.4686 2385.57 26.6793 Q2385.57 31.7024 2382.69 35.1862 Q2379.82 38.6294 2374.51 39.9662 Z" fill="#000000" fill-rule="nonzero" fill-opacity="1" /><path clip-path="url(#clip730)" d="M2400.27 9.62495 L2406.76 9.62495 Q2412.83 19.1851 2415.83 28.3401 Q2418.87 37.4952 2418.87 46.5287 Q2418.87 55.6027 2415.83 64.7983 Q2412.83 73.9938 2406.76 83.5134 L2400.27 83.5134 Q2405.66 74.2369 2408.29 65.0818 Q2410.97 55.8863 2410.97 46.5287 Q2410.97 37.1711 2408.29 28.0566 Q2405.66 18.942 2400.27 9.62495 Z" fill="#000000" fill-rule="nonzero" fill-opacity="1" /><polyline clip-path="url(#clip732)" style="stroke:#009af9; stroke-linecap:round; stroke-linejoin:round; stroke-width:8; stroke-opacity:1; fill:none" points="217.904,2146.22 247.252,2143.1 276.601,2139.89 305.949,2136.57 335.298,2133.15 364.646,2129.63 393.995,2126.01 423.343,2122.27 452.692,2118.42 482.04,2114.45 511.389,2110.36 540.737,2106.15 570.086,2101.8 599.434,2097.33 628.783,2092.72 658.131,2087.97 687.48,2083.07 716.828,2078.02 746.177,2072.83 775.526,2067.47 804.874,2061.95 834.223,2056.26 863.571,2050.4 892.92,2044.36 922.268,2038.13 951.617,2031.72 980.965,2025.11 1010.31,2018.3 1039.66,2011.28 1069.01,2004.05 1098.36,1996.6 1127.71,1988.92 1157.06,1981.01 1186.4,1972.85 1215.75,1964.45 1245.1,1955.79 1274.45,1946.87 1303.8,1937.68 1333.15,1928.21 1362.5,1918.44 1391.84,1908.38 1421.19,1898.02 1450.54,1887.34 1479.89,1876.33 1509.24,1864.99 1538.59,1853.3 1567.94,1841.26 1597.28,1828.85 1626.63,1816.06 1655.98,1802.89 1685.33,1789.31 1714.68,1775.32 1744.03,1760.9 1773.38,1746.04 1802.72,1730.73 1832.07,1714.96 1861.42,1698.7 1890.77,1681.95 1920.12,1664.69 1949.47,1646.9 1978.81,1628.57 2008.16,1609.69 2037.51,1590.22 2066.86,1570.17 2096.21,1549.5 2125.56,1528.21 2154.91,1506.26 2184.25,1483.65 2213.6,1460.35 2242.95,1436.35 2272.3,1411.61 2301.65,1386.11 2331,1359.85 2360.35,1332.78 2389.69,1304.88 2419.04,1276.14 2448.39,1246.52 2477.74,1215.99 2507.09,1184.54 2536.44,1152.13 2565.79,1118.73 2595.13,1084.31 2624.48,1048.85 2653.83,1012.31 2683.18,974.652 2712.53,935.85 2741.88,895.867 2771.23,854.668 2800.57,812.214 2829.92,768.467 2859.27,723.389 2888.62,676.938 2917.97,629.071 2947.32,579.746 2976.66,528.918 3006.01,476.541 3035.36,422.568 3064.71,366.95 3094.06,309.638 3123.41,250.581 3152.76,189.727 "/>
<path clip-path="url(#clip730)" d="M315.732 303.842 L686.74 303.842 L686.74 200.162 L315.732 200.162  Z" fill="#ffffff" fill-rule="evenodd" fill-opacity="1"/>
<polyline clip-path="url(#clip730)" style="stroke:#000000; stroke-linecap:round; stroke-linejoin:round; stroke-width:4; stroke-opacity:1; fill:none" points="315.732,303.842 686.74,303.842 686.74,200.162 315.732,200.162 315.732,303.842 "/>
<polyline clip-path="url(#clip730)" style="stroke:#009af9; stroke-linecap:round; stroke-linejoin:round; stroke-width:8; stroke-opacity:1; fill:none" points="348.341,252.002 543.998,252.002 "/>
<path clip-path="url(#clip730)" d="M576.608 259.05 L576.608 243.356 L580.867 243.356 L580.867 258.888 Q580.867 262.569 582.302 264.421 Q583.737 266.249 586.608 266.249 Q590.057 266.249 592.047 264.05 Q594.061 261.851 594.061 258.055 L594.061 243.356 L598.321 243.356 L598.321 269.282 L594.061 269.282 L594.061 265.3 Q592.51 267.661 590.45 268.819 Q588.413 269.953 585.705 269.953 Q581.237 269.953 578.923 267.175 Q576.608 264.397 576.608 259.05 M587.325 242.731 L587.325 242.731 Z" fill="#000000" fill-rule="nonzero" fill-opacity="1" /><path clip-path="url(#clip730)" d="M617.325 233.31 Q614.223 238.634 612.719 243.842 Q611.214 249.05 611.214 254.398 Q611.214 259.745 612.719 264.999 Q614.246 270.231 617.325 275.532 L613.621 275.532 Q610.149 270.092 608.413 264.837 Q606.7 259.583 606.7 254.398 Q606.7 249.236 608.413 244.004 Q610.126 238.773 613.621 233.31 L617.325 233.31 Z" fill="#000000" fill-rule="nonzero" fill-opacity="1" /><path clip-path="url(#clip730)" d="M629.802 235.995 L629.802 243.356 L638.575 243.356 L638.575 246.666 L629.802 246.666 L629.802 260.74 Q629.802 263.911 630.658 264.814 Q631.538 265.717 634.2 265.717 L638.575 265.717 L638.575 269.282 L634.2 269.282 Q629.27 269.282 627.395 267.453 Q625.52 265.601 625.52 260.74 L625.52 246.666 L622.395 246.666 L622.395 243.356 L625.52 243.356 L625.52 235.995 L629.802 235.995 Z" fill="#000000" fill-rule="nonzero" fill-opacity="1" /><path clip-path="url(#clip730)" d="M643.506 233.31 L647.209 233.31 Q650.681 238.773 652.394 244.004 Q654.13 249.236 654.13 254.398 Q654.13 259.583 652.394 264.837 Q650.681 270.092 647.209 275.532 L643.506 275.532 Q646.584 270.231 648.089 264.999 Q649.617 259.745 649.617 254.398 Q649.617 249.05 648.089 243.842 Q646.584 238.634 643.506 233.31 Z" fill="#000000" fill-rule="nonzero" fill-opacity="1" /></svg>
