<?xml version="1.0" encoding="utf-8"?>
<svg xmlns="http://www.w3.org/2000/svg" xmlns:xlink="http://www.w3.org/1999/xlink" width="800" height="600" viewBox="0 0 3200 2400">
<defs>
  <clipPath id="clip860">
    <rect x="0" y="0" width="3200" height="2400"/>
  </clipPath>
</defs>
<path clip-path="url(#clip860)" d="M0 2400 L3200 2400 L3200 0 L0 0  Z" fill="#ffffff" fill-rule="evenodd" fill-opacity="1"/>
<defs>
  <clipPath id="clip861">
    <rect x="217" y="131" width="2936" height="2075"/>
  </clipPath>
</defs>
<path clip-path="url(#clip860)" d="M217.904 2204.92 L3152.76 2204.92 L3152.76 131.032 L217.904 131.032  Z" fill="#ffffff" fill-rule="evenodd" fill-opacity="1"/>
<polyline clip-path="url(#clip861)" style="stroke:#000000; stroke-linecap:round; stroke-linejoin:round; stroke-width:2; stroke-opacity:0.1; fill:none" points="300.965,2204.92 300.965,131.032 "/>
<polyline clip-path="url(#clip861)" style="stroke:#000000; stroke-linecap:round; stroke-linejoin:round; stroke-width:2; stroke-opacity:0.1; fill:none" points="993.148,2204.92 993.148,131.032 "/>
<polyline clip-path="url(#clip861)" style="stroke:#000000; stroke-linecap:round; stroke-linejoin:round; stroke-width:2; stroke-opacity:0.1; fill:none" points="1685.33,2204.92 1685.33,131.032 "/>
<polyline clip-path="url(#clip861)" style="stroke:#000000; stroke-linecap:round; stroke-linejoin:round; stroke-width:2; stroke-opacity:0.1; fill:none" points="2377.51,2204.92 2377.51,131.032 "/>
<polyline clip-path="url(#clip861)" style="stroke:#000000; stroke-linecap:round; stroke-linejoin:round; stroke-width:2; stroke-opacity:0.1; fill:none" points="3069.69,2204.92 3069.69,131.032 "/>
<polyline clip-path="url(#clip861)" style="stroke:#000000; stroke-linecap:round; stroke-linejoin:round; stroke-width:2; stroke-opacity:0.1; fill:none" points="217.904,1736.17 3152.76,1736.17 "/>
<polyline clip-path="url(#clip861)" style="stroke:#000000; stroke-linecap:round; stroke-linejoin:round; stroke-width:2; stroke-opacity:0.1; fill:none" points="217.904,1223.61 3152.76,1223.61 "/>
<polyline clip-path="url(#clip861)" style="stroke:#000000; stroke-linecap:round; stroke-linejoin:round; stroke-width:2; stroke-opacity:0.1; fill:none" points="217.904,711.049 3152.76,711.049 "/>
<polyline clip-path="url(#clip861)" style="stroke:#000000; stroke-linecap:round; stroke-linejoin:round; stroke-width:2; stroke-opacity:0.1; fill:none" points="217.904,198.487 3152.76,198.487 "/>
<polyline clip-path="url(#clip860)" style="stroke:#000000; stroke-linecap:round; stroke-linejoin:round; stroke-width:4; stroke-opacity:1; fill:none" points="217.904,2204.92 3152.76,2204.92 "/>
<polyline clip-path="url(#clip860)" style="stroke:#000000; stroke-linecap:round; stroke-linejoin:round; stroke-width:4; stroke-opacity:1; fill:none" points="300.965,2204.92 300.965,2186.02 "/>
<polyline clip-path="url(#clip860)" style="stroke:#000000; stroke-linecap:round; stroke-linejoin:round; stroke-width:4; stroke-opacity:1; fill:none" points="993.148,2204.92 993.148,2186.02 "/>
<polyline clip-path="url(#clip860)" style="stroke:#000000; stroke-linecap:round; stroke-linejoin:round; stroke-width:4; stroke-opacity:1; fill:none" points="1685.33,2204.92 1685.33,2186.02 "/>
<polyline clip-path="url(#clip860)" style="stroke:#000000; stroke-linecap:round; stroke-linejoin:round; stroke-width:4; stroke-opacity:1; fill:none" points="2377.51,2204.92 2377.51,2186.02 "/>
<polyline clip-path="url(#clip860)" style="stroke:#000000; stroke-linecap:round; stroke-linejoin:round; stroke-width:4; stroke-opacity:1; fill:none" points="3069.69,2204.92 3069.69,2186.02 "/>
<path clip-path="url(#clip860)" d="M278.35 2242.24 Q274.739 2242.24 272.91 2245.8 Q271.104 2249.34 271.104 2256.47 Q271.104 2263.58 272.91 2267.15 Q274.739 2270.69 278.35 2270.69 Q281.984 2270.69 283.79 2267.15 Q285.618 2263.58 285.618 2256.47 Q285.618 2249.34 283.79 2245.8 Q281.984 2242.24 278.35 2242.24 M278.35 2238.53 Q284.16 2238.53 287.216 2243.14 Q290.294 2247.72 290.294 2256.47 Q290.294 2265.2 287.216 2269.81 Q284.16 2274.39 278.35 2274.39 Q272.54 2274.39 269.461 2269.81 Q266.405 2265.2 266.405 2256.47 Q266.405 2247.72 269.461 2243.14 Q272.54 2238.53 278.35 2238.53 Z" fill="#000000" fill-rule="nonzero" fill-opacity="1" /><path clip-path="url(#clip860)" d="M298.512 2267.84 L303.396 2267.84 L303.396 2273.72 L298.512 2273.72 L298.512 2267.84 Z" fill="#000000" fill-rule="nonzero" fill-opacity="1" /><path clip-path="url(#clip860)" d="M323.581 2242.24 Q319.97 2242.24 318.141 2245.8 Q316.336 2249.34 316.336 2256.47 Q316.336 2263.58 318.141 2267.15 Q319.97 2270.69 323.581 2270.69 Q327.215 2270.69 329.021 2267.15 Q330.85 2263.58 330.85 2256.47 Q330.85 2249.34 329.021 2245.8 Q327.215 2242.24 323.581 2242.24 M323.581 2238.53 Q329.391 2238.53 332.447 2243.14 Q335.525 2247.72 335.525 2256.47 Q335.525 2265.2 332.447 2269.81 Q329.391 2274.39 323.581 2274.39 Q317.771 2274.39 314.692 2269.81 Q311.637 2265.2 311.637 2256.47 Q311.637 2247.72 314.692 2243.14 Q317.771 2238.53 323.581 2238.53 Z" fill="#000000" fill-rule="nonzero" fill-opacity="1" /><path clip-path="url(#clip860)" d="M964.884 2269.78 L981.203 2269.78 L981.203 2273.72 L959.259 2273.72 L959.259 2269.78 Q961.921 2267.03 966.504 2262.4 Q971.111 2257.75 972.291 2256.41 Q974.537 2253.88 975.416 2252.15 Q976.319 2250.39 976.319 2248.7 Q976.319 2245.94 974.375 2244.21 Q972.453 2242.47 969.351 2242.47 Q967.152 2242.47 964.699 2243.23 Q962.268 2244 959.49 2245.55 L959.49 2240.83 Q962.314 2239.69 964.768 2239.11 Q967.222 2238.53 969.259 2238.53 Q974.629 2238.53 977.824 2241.22 Q981.018 2243.91 981.018 2248.4 Q981.018 2250.53 980.208 2252.45 Q979.421 2254.34 977.314 2256.94 Q976.736 2257.61 973.634 2260.83 Q970.532 2264.02 964.884 2269.78 Z" fill="#000000" fill-rule="nonzero" fill-opacity="1" /><path clip-path="url(#clip860)" d="M991.018 2267.84 L995.902 2267.84 L995.902 2273.72 L991.018 2273.72 L991.018 2267.84 Z" fill="#000000" fill-rule="nonzero" fill-opacity="1" /><path clip-path="url(#clip860)" d="M1006.13 2239.16 L1024.49 2239.16 L1024.49 2243.1 L1010.42 2243.1 L1010.42 2251.57 Q1011.43 2251.22 1012.45 2251.06 Q1013.47 2250.87 1014.49 2250.87 Q1020.28 2250.87 1023.66 2254.04 Q1027.04 2257.22 1027.04 2262.63 Q1027.04 2268.21 1023.56 2271.31 Q1020.09 2274.39 1013.77 2274.39 Q1011.6 2274.39 1009.33 2274.02 Q1007.08 2273.65 1004.68 2272.91 L1004.68 2268.21 Q1006.76 2269.34 1008.98 2269.9 Q1011.2 2270.46 1013.68 2270.46 Q1017.68 2270.46 1020.02 2268.35 Q1022.36 2266.24 1022.36 2262.63 Q1022.36 2259.02 1020.02 2256.91 Q1017.68 2254.81 1013.68 2254.81 Q1011.8 2254.81 1009.93 2255.22 Q1008.08 2255.64 1006.13 2256.52 L1006.13 2239.16 Z" fill="#000000" fill-rule="nonzero" fill-opacity="1" /><path clip-path="url(#clip860)" d="M1652.49 2239.16 L1670.85 2239.16 L1670.85 2243.1 L1656.78 2243.1 L1656.78 2251.57 Q1657.8 2251.22 1658.81 2251.06 Q1659.83 2250.87 1660.85 2250.87 Q1666.64 2250.87 1670.02 2254.04 Q1673.4 2257.22 1673.4 2262.63 Q1673.4 2268.21 1669.92 2271.31 Q1666.45 2274.39 1660.13 2274.39 Q1657.96 2274.39 1655.69 2274.02 Q1653.44 2273.65 1651.04 2272.91 L1651.04 2268.21 Q1653.12 2269.34 1655.34 2269.9 Q1657.56 2270.46 1660.04 2270.46 Q1664.05 2270.46 1666.38 2268.35 Q1668.72 2266.24 1668.72 2262.63 Q1668.72 2259.02 1666.38 2256.91 Q1664.05 2254.81 1660.04 2254.81 Q1658.17 2254.81 1656.29 2255.22 Q1654.44 2255.64 1652.49 2256.52 L1652.49 2239.16 Z" fill="#000000" fill-rule="nonzero" fill-opacity="1" /><path clip-path="url(#clip860)" d="M1682.61 2267.84 L1687.49 2267.84 L1687.49 2273.72 L1682.61 2273.72 L1682.61 2267.84 Z" fill="#000000" fill-rule="nonzero" fill-opacity="1" /><path clip-path="url(#clip860)" d="M1707.68 2242.24 Q1704.07 2242.24 1702.24 2245.8 Q1700.43 2249.34 1700.43 2256.47 Q1700.43 2263.58 1702.24 2267.15 Q1704.07 2270.69 1707.68 2270.69 Q1711.31 2270.69 1713.12 2267.15 Q1714.95 2263.58 1714.95 2256.47 Q1714.95 2249.34 1713.12 2245.8 Q1711.31 2242.24 1707.68 2242.24 M1707.68 2238.53 Q1713.49 2238.53 1716.54 2243.14 Q1719.62 2247.72 1719.62 2256.47 Q1719.62 2265.2 1716.54 2269.81 Q1713.49 2274.39 1707.68 2274.39 Q1701.87 2274.39 1698.79 2269.81 Q1695.73 2265.2 1695.73 2256.47 Q1695.73 2247.72 1698.79 2243.14 Q1701.87 2238.53 1707.68 2238.53 Z" fill="#000000" fill-rule="nonzero" fill-opacity="1" /><path clip-path="url(#clip860)" d="M2343.83 2239.16 L2366.05 2239.16 L2366.05 2241.15 L2353.51 2273.72 L2348.62 2273.72 L2360.43 2243.1 L2343.83 2243.1 L2343.83 2239.16 Z" fill="#000000" fill-rule="nonzero" fill-opacity="1" /><path clip-path="url(#clip860)" d="M2375.17 2267.84 L2380.06 2267.84 L2380.06 2273.72 L2375.17 2273.72 L2375.17 2267.84 Z" fill="#000000" fill-rule="nonzero" fill-opacity="1" /><path clip-path="url(#clip860)" d="M2390.29 2239.16 L2408.65 2239.16 L2408.65 2243.1 L2394.57 2243.1 L2394.57 2251.57 Q2395.59 2251.22 2396.61 2251.06 Q2397.63 2250.87 2398.65 2250.87 Q2404.43 2250.87 2407.81 2254.04 Q2411.19 2257.22 2411.19 2262.63 Q2411.19 2268.21 2407.72 2271.31 Q2404.25 2274.39 2397.93 2274.39 Q2395.75 2274.39 2393.48 2274.02 Q2391.24 2273.65 2388.83 2272.91 L2388.83 2268.21 Q2390.91 2269.34 2393.14 2269.9 Q2395.36 2270.46 2397.84 2270.46 Q2401.84 2270.46 2404.18 2268.35 Q2406.52 2266.24 2406.52 2262.63 Q2406.52 2259.02 2404.18 2256.91 Q2401.84 2254.81 2397.84 2254.81 Q2395.96 2254.81 2394.09 2255.22 Q2392.23 2255.64 2390.29 2256.52 L2390.29 2239.16 Z" fill="#000000" fill-rule="nonzero" fill-opacity="1" /><path clip-path="url(#clip860)" d="M3021.77 2269.78 L3029.4 2269.78 L3029.4 2243.42 L3021.09 2245.09 L3021.09 2240.83 L3029.36 2239.16 L3034.03 2239.16 L3034.03 2269.78 L3041.67 2269.78 L3041.67 2273.72 L3021.77 2273.72 L3021.77 2269.78 Z" fill="#000000" fill-rule="nonzero" fill-opacity="1" /><path clip-path="url(#clip860)" d="M3061.12 2242.24 Q3057.51 2242.24 3055.68 2245.8 Q3053.87 2249.34 3053.87 2256.47 Q3053.87 2263.58 3055.68 2267.15 Q3057.51 2270.69 3061.12 2270.69 Q3064.75 2270.69 3066.56 2267.15 Q3068.39 2263.58 3068.39 2256.47 Q3068.39 2249.34 3066.56 2245.8 Q3064.75 2242.24 3061.12 2242.24 M3061.12 2238.53 Q3066.93 2238.53 3069.98 2243.14 Q3073.06 2247.72 3073.06 2256.47 Q3073.06 2265.2 3069.98 2269.81 Q3066.93 2274.39 3061.12 2274.39 Q3055.31 2274.39 3052.23 2269.81 Q3049.17 2265.2 3049.17 2256.47 Q3049.17 2247.72 3052.23 2243.14 Q3055.31 2238.53 3061.12 2238.53 Z" fill="#000000" fill-rule="nonzero" fill-opacity="1" /><path clip-path="url(#clip860)" d="M3081.28 2267.84 L3086.16 2267.84 L3086.16 2273.72 L3081.28 2273.72 L3081.28 2267.84 Z" fill="#000000" fill-rule="nonzero" fill-opacity="1" /><path clip-path="url(#clip860)" d="M3106.35 2242.24 Q3102.74 2242.24 3100.91 2245.8 Q3099.1 2249.34 3099.1 2256.47 Q3099.1 2263.58 3100.91 2267.15 Q3102.74 2270.69 3106.35 2270.69 Q3109.98 2270.69 3111.79 2267.15 Q3113.62 2263.58 3113.62 2256.47 Q3113.62 2249.34 3111.79 2245.8 Q3109.98 2242.24 3106.35 2242.24 M3106.35 2238.53 Q3112.16 2238.53 3115.21 2243.14 Q3118.29 2247.72 3118.29 2256.47 Q3118.29 2265.2 3115.21 2269.81 Q3112.16 2274.39 3106.35 2274.39 Q3100.54 2274.39 3097.46 2269.81 Q3094.4 2265.2 3094.4 2256.47 Q3094.4 2247.72 3097.46 2243.14 Q3100.54 2238.53 3106.35 2238.53 Z" fill="#000000" fill-rule="nonzero" fill-opacity="1" /><path clip-path="url(#clip860)" d="M1554.94 2339.09 L1554.94 2356.5 L1565.26 2356.5 Q1570.44 2356.5 1572.93 2354.37 Q1575.44 2352.2 1575.44 2347.78 Q1575.44 2343.32 1572.93 2341.22 Q1570.44 2339.09 1565.26 2339.09 L1554.94 2339.09 M1554.94 2319.55 L1554.94 2333.87 L1564.46 2333.87 Q1569.17 2333.87 1571.46 2332.12 Q1573.79 2330.34 1573.79 2326.71 Q1573.79 2323.11 1571.46 2321.33 Q1569.17 2319.55 1564.46 2319.55 L1554.94 2319.55 M1548.51 2314.26 L1564.94 2314.26 Q1572.29 2314.26 1576.27 2317.32 Q1580.25 2320.37 1580.25 2326.01 Q1580.25 2330.37 1578.21 2332.95 Q1576.17 2335.53 1572.23 2336.16 Q1576.97 2337.18 1579.58 2340.43 Q1582.22 2343.64 1582.22 2348.48 Q1582.22 2354.85 1577.89 2358.31 Q1573.56 2361.78 1565.57 2361.78 L1548.51 2361.78 L1548.51 2314.26 Z" fill="#000000" fill-rule="nonzero" fill-opacity="1" /><path clip-path="url(#clip860)" d="M1598.64 2356.44 L1598.64 2375.34 L1592.76 2375.34 L1592.76 2326.14 L1598.64 2326.14 L1598.64 2331.55 Q1600.49 2328.36 1603.29 2326.84 Q1606.12 2325.28 1610.04 2325.28 Q1616.53 2325.28 1620.57 2330.43 Q1624.65 2335.59 1624.65 2343.99 Q1624.65 2352.39 1620.57 2357.55 Q1616.53 2362.71 1610.04 2362.71 Q1606.12 2362.71 1603.29 2361.18 Q1600.49 2359.62 1598.64 2356.44 M1618.57 2343.99 Q1618.57 2337.53 1615.9 2333.87 Q1613.25 2330.18 1608.61 2330.18 Q1603.96 2330.18 1601.29 2333.87 Q1598.64 2337.53 1598.64 2343.99 Q1598.64 2350.45 1601.29 2354.14 Q1603.96 2357.81 1608.61 2357.81 Q1613.25 2357.81 1615.9 2354.14 Q1618.57 2350.45 1618.57 2343.99 Z" fill="#000000" fill-rule="nonzero" fill-opacity="1" /><path clip-path="url(#clip860)" d="M1664.85 2342.5 L1664.85 2345.36 L1637.92 2345.36 Q1638.3 2351.41 1641.55 2354.59 Q1644.83 2357.74 1650.65 2357.74 Q1654.03 2357.74 1657.18 2356.91 Q1660.36 2356.09 1663.48 2354.43 L1663.48 2359.97 Q1660.33 2361.31 1657.02 2362.01 Q1653.71 2362.71 1650.3 2362.71 Q1641.77 2362.71 1636.78 2357.74 Q1631.81 2352.78 1631.81 2344.31 Q1631.81 2335.56 1636.52 2330.43 Q1641.26 2325.28 1649.28 2325.28 Q1656.48 2325.28 1660.65 2329.92 Q1664.85 2334.54 1664.85 2342.5 M1658.99 2340.78 Q1658.93 2335.97 1656.29 2333.11 Q1653.68 2330.24 1649.35 2330.24 Q1644.45 2330.24 1641.49 2333.01 Q1638.56 2335.78 1638.11 2340.81 L1658.99 2340.78 Z" fill="#000000" fill-rule="nonzero" fill-opacity="1" /><path clip-path="url(#clip860)" d="M1674.24 2326.14 L1682.8 2326.14 L1692.92 2350.01 L1703.07 2326.14 L1711.57 2326.14 L1711.57 2361.78 L1705.68 2361.78 L1705.68 2331.74 L1695.85 2354.94 L1689.99 2354.94 L1680.13 2331.74 L1680.13 2361.78 L1674.24 2361.78 L1674.24 2326.14 Z" fill="#000000" fill-rule="nonzero" fill-opacity="1" /><path clip-path="url(#clip860)" d="M1729.52 2336.42 Q1729.52 2339.06 1731.56 2340.55 Q1733.6 2342.05 1737.39 2342.05 L1745.28 2342.05 L1745.28 2330.81 L1737.39 2330.81 Q1733.6 2330.81 1731.56 2332.28 Q1729.52 2333.74 1729.52 2336.42 M1721.18 2361.78 L1732.07 2346.16 Q1728.38 2345.33 1725.93 2343.16 Q1723.48 2340.97 1723.48 2336.42 Q1723.48 2331.26 1726.88 2328.71 Q1730.32 2326.14 1737.23 2326.14 L1751.17 2326.14 L1751.17 2361.78 L1745.28 2361.78 L1745.28 2346.73 L1737.99 2346.73 L1727.49 2361.78 L1721.18 2361.78 Z" fill="#000000" fill-rule="nonzero" fill-opacity="1" /><path clip-path="url(#clip860)" d="M1764.34 2353.7 L1771.06 2353.7 L1771.06 2359.17 L1765.84 2369.36 L1761.73 2369.36 L1764.34 2359.17 L1764.34 2353.7 Z" fill="#000000" fill-rule="nonzero" fill-opacity="1" /><path clip-path="url(#clip860)" d="M1810.08 2316.01 L1810.08 2326.14 L1822.14 2326.14 L1822.14 2330.69 L1810.08 2330.69 L1810.08 2350.04 Q1810.08 2354.4 1811.26 2355.64 Q1812.47 2356.88 1816.13 2356.88 L1822.14 2356.88 L1822.14 2361.78 L1816.13 2361.78 Q1809.35 2361.78 1806.77 2359.27 Q1804.19 2356.72 1804.19 2350.04 L1804.19 2330.69 L1799.9 2330.69 L1799.9 2326.14 L1804.19 2326.14 L1804.19 2316.01 L1810.08 2316.01 Z" fill="#000000" fill-rule="nonzero" fill-opacity="1" /><polyline clip-path="url(#clip860)" style="stroke:#000000; stroke-linecap:round; stroke-linejoin:round; stroke-width:4; stroke-opacity:1; fill:none" points="217.904,2204.92 217.904,131.032 "/>
<polyline clip-path="url(#clip860)" style="stroke:#000000; stroke-linecap:round; stroke-linejoin:round; stroke-width:4; stroke-opacity:1; fill:none" points="217.904,1736.17 236.801,1736.17 "/>
<polyline clip-path="url(#clip860)" style="stroke:#000000; stroke-linecap:round; stroke-linejoin:round; stroke-width:4; stroke-opacity:1; fill:none" points="217.904,1223.61 236.801,1223.61 "/>
<polyline clip-path="url(#clip860)" style="stroke:#000000; stroke-linecap:round; stroke-linejoin:round; stroke-width:4; stroke-opacity:1; fill:none" points="217.904,711.049 236.801,711.049 "/>
<polyline clip-path="url(#clip860)" style="stroke:#000000; stroke-linecap:round; stroke-linejoin:round; stroke-width:4; stroke-opacity:1; fill:none" points="217.904,198.487 236.801,198.487 "/>
<path clip-path="url(#clip860)" d="M149.001 1718.89 L167.357 1718.89 L167.357 1722.83 L153.283 1722.83 L153.283 1731.3 Q154.302 1730.95 155.32 1730.79 Q156.339 1730.61 157.357 1730.61 Q163.144 1730.61 166.524 1733.78 Q169.904 1736.95 169.904 1742.37 Q169.904 1747.95 166.431 1751.05 Q162.959 1754.13 156.64 1754.13 Q154.464 1754.13 152.195 1753.76 Q149.95 1753.39 147.543 1752.64 L147.543 1747.95 Q149.626 1749.08 151.848 1749.64 Q154.07 1750.19 156.547 1750.19 Q160.552 1750.19 162.89 1748.08 Q165.228 1745.98 165.228 1742.37 Q165.228 1738.76 162.89 1736.65 Q160.552 1734.54 156.547 1734.54 Q154.672 1734.54 152.797 1734.96 Q150.945 1735.38 149.001 1736.26 L149.001 1718.89 Z" fill="#000000" fill-rule="nonzero" fill-opacity="1" /><path clip-path="url(#clip860)" d="M118.608 1236.96 L126.246 1236.96 L126.246 1210.59 L117.936 1212.26 L117.936 1208 L126.2 1206.33 L130.876 1206.33 L130.876 1236.96 L138.515 1236.96 L138.515 1240.89 L118.608 1240.89 L118.608 1236.96 Z" fill="#000000" fill-rule="nonzero" fill-opacity="1" /><path clip-path="url(#clip860)" d="M157.959 1209.41 Q154.348 1209.41 152.519 1212.98 Q150.714 1216.52 150.714 1223.65 Q150.714 1230.75 152.519 1234.32 Q154.348 1237.86 157.959 1237.86 Q161.593 1237.86 163.399 1234.32 Q165.228 1230.75 165.228 1223.65 Q165.228 1216.52 163.399 1212.98 Q161.593 1209.41 157.959 1209.41 M157.959 1205.71 Q163.769 1205.71 166.825 1210.31 Q169.904 1214.9 169.904 1223.65 Q169.904 1232.37 166.825 1236.98 Q163.769 1241.56 157.959 1241.56 Q152.149 1241.56 149.07 1236.98 Q146.015 1232.37 146.015 1223.65 Q146.015 1214.9 149.07 1210.31 Q152.149 1205.71 157.959 1205.71 Z" fill="#000000" fill-rule="nonzero" fill-opacity="1" /><path clip-path="url(#clip860)" d="M119.603 724.394 L127.242 724.394 L127.242 698.029 L118.932 699.695 L118.932 695.436 L127.195 693.769 L131.871 693.769 L131.871 724.394 L139.51 724.394 L139.51 728.329 L119.603 728.329 L119.603 724.394 Z" fill="#000000" fill-rule="nonzero" fill-opacity="1" /><path clip-path="url(#clip860)" d="M149.001 693.769 L167.357 693.769 L167.357 697.704 L153.283 697.704 L153.283 706.177 Q154.302 705.829 155.32 705.667 Q156.339 705.482 157.357 705.482 Q163.144 705.482 166.524 708.653 Q169.904 711.825 169.904 717.241 Q169.904 722.82 166.431 725.922 Q162.959 729.001 156.64 729.001 Q154.464 729.001 152.195 728.63 Q149.95 728.26 147.543 727.519 L147.543 722.82 Q149.626 723.954 151.848 724.51 Q154.07 725.065 156.547 725.065 Q160.552 725.065 162.89 722.959 Q165.228 720.853 165.228 717.241 Q165.228 713.63 162.89 711.524 Q160.552 709.417 156.547 709.417 Q154.672 709.417 152.797 709.834 Q150.945 710.251 149.001 711.13 L149.001 693.769 Z" fill="#000000" fill-rule="nonzero" fill-opacity="1" /><path clip-path="url(#clip860)" d="M121.825 211.831 L138.144 211.831 L138.144 215.767 L116.2 215.767 L116.2 211.831 Q118.862 209.077 123.445 204.447 Q128.052 199.794 129.232 198.452 Q131.478 195.929 132.357 194.193 Q133.26 192.433 133.26 190.744 Q133.26 187.989 131.316 186.253 Q129.395 184.517 126.293 184.517 Q124.094 184.517 121.64 185.281 Q119.209 186.045 116.432 187.595 L116.432 182.873 Q119.256 181.739 121.709 181.16 Q124.163 180.582 126.2 180.582 Q131.57 180.582 134.765 183.267 Q137.959 185.952 137.959 190.443 Q137.959 192.572 137.149 194.494 Q136.362 196.392 134.256 198.984 Q133.677 199.656 130.575 202.873 Q127.473 206.068 121.825 211.831 Z" fill="#000000" fill-rule="nonzero" fill-opacity="1" /><path clip-path="url(#clip860)" d="M157.959 184.285 Q154.348 184.285 152.519 187.85 Q150.714 191.392 150.714 198.521 Q150.714 205.628 152.519 209.193 Q154.348 212.734 157.959 212.734 Q161.593 212.734 163.399 209.193 Q165.228 205.628 165.228 198.521 Q165.228 191.392 163.399 187.85 Q161.593 184.285 157.959 184.285 M157.959 180.582 Q163.769 180.582 166.825 185.188 Q169.904 189.771 169.904 198.521 Q169.904 207.248 166.825 211.855 Q163.769 216.438 157.959 216.438 Q152.149 216.438 149.07 211.855 Q146.015 207.248 146.015 198.521 Q146.015 189.771 149.07 185.188 Q152.149 180.582 157.959 180.582 Z" fill="#000000" fill-rule="nonzero" fill-opacity="1" /><path clip-path="url(#clip860)" d="M6.42416 1393.8 L53.9442 1393.8 L53.9442 1400.23 L11.835 1400.23 L11.835 1423.59 L53.9442 1423.59 L53.9442 1430.02 L6.42416 1430.02 L6.42416 1393.8 Z" fill="#000000" fill-rule="nonzero" fill-opacity="1" /><path clip-path="url(#clip860)" d="M22.4021 1367.45 Q22.4021 1372.16 26.0942 1374.89 Q29.7545 1377.63 36.152 1377.63 Q42.5495 1377.63 46.2417 1374.93 Q49.9019 1372.19 49.9019 1367.45 Q49.9019 1362.77 46.2098 1360.03 Q42.5177 1357.29 36.152 1357.29 Q29.8181 1357.29 26.126 1360.03 Q22.4021 1362.77 22.4021 1367.45 M17.4368 1367.45 Q17.4368 1359.81 22.4021 1355.45 Q27.3673 1351.09 36.152 1351.09 Q44.9049 1351.09 49.9019 1355.45 Q54.8672 1359.81 54.8672 1367.45 Q54.8672 1375.12 49.9019 1379.48 Q44.9049 1383.81 36.152 1383.81 Q27.3673 1383.81 22.4021 1379.48 Q17.4368 1375.12 17.4368 1367.45 Z" fill="#000000" fill-rule="nonzero" fill-opacity="1" /><path clip-path="url(#clip860)" d="M18.2962 1310.82 L53.9442 1310.82 L53.9442 1316.71 L22.975 1316.71 L22.975 1335.71 L53.9442 1335.71 L53.9442 1341.6 L18.2962 1341.6 L18.2962 1310.82 Z" fill="#000000" fill-rule="nonzero" fill-opacity="1" /><path clip-path="url(#clip860)" d="M57.2543 1283.93 Q63.62 1286.41 65.5616 1288.77 Q67.5031 1291.12 67.5031 1295.07 L67.5031 1299.75 L62.6015 1299.75 L62.6015 1296.31 Q62.6015 1293.89 61.4557 1292.55 Q60.3099 1291.22 56.0448 1289.59 L53.3712 1288.54 L18.2962 1302.96 L18.2962 1296.75 L46.178 1285.61 L18.2962 1274.47 L18.2962 1268.27 L57.2543 1283.93 Z" fill="#000000" fill-rule="nonzero" fill-opacity="1" /><path clip-path="url(#clip860)" d="M53.9442 1263.91 L49.0744 1263.91 Q48.1832 1258.11 44.1728 1256.33 Q38.5391 1254.17 24.1208 1254.17 L18.2962 1254.17 L18.2962 1230.07 L53.9442 1230.07 L53.9442 1235.93 L22.975 1235.93 L22.975 1248.31 L26.508 1248.31 Q40.2579 1248.31 46.4326 1251.11 Q53.0211 1254.1 53.9442 1263.91 Z" fill="#000000" fill-rule="nonzero" fill-opacity="1" /><path clip-path="url(#clip860)" d="M28.5768 1212.63 Q31.2186 1212.63 32.7145 1210.59 Q34.2105 1208.56 34.2105 1204.77 L34.2105 1196.88 L22.975 1196.88 L22.975 1204.77 Q22.975 1208.56 24.4391 1210.59 Q25.9032 1212.63 28.5768 1212.63 M53.9442 1220.97 L38.3163 1210.09 Q37.4888 1213.78 35.3245 1216.23 Q33.1283 1218.68 28.5768 1218.68 Q23.4206 1218.68 20.8743 1215.27 Q18.2962 1211.84 18.2962 1204.93 L18.2962 1190.99 L53.9442 1190.99 L53.9442 1196.88 L38.8893 1196.88 L38.8893 1204.17 L53.9442 1214.67 L53.9442 1220.97 Z" fill="#000000" fill-rule="nonzero" fill-opacity="1" /><path clip-path="url(#clip860)" d="M53.9442 1148.75 L53.9442 1179.53 L18.2962 1179.53 L18.2962 1173.64 L49.2654 1173.64 L49.2654 1154.64 L18.2962 1154.64 L18.2962 1148.75 L49.2654 1148.75 L49.2654 1144.07 L62.9516 1144.07 L62.9516 1148.75 L53.9442 1148.75 Z" fill="#000000" fill-rule="nonzero" fill-opacity="1" /><path clip-path="url(#clip860)" d="M18.2962 1104.64 L53.9442 1104.64 L53.9442 1110.46 L25.3303 1110.46 L53.9442 1127.65 L53.9442 1135.16 L18.2962 1135.16 L18.2962 1129.34 L46.8464 1129.34 L18.2962 1112.18 L18.2962 1104.64 Z" fill="#000000" fill-rule="nonzero" fill-opacity="1" /><path clip-path="url(#clip860)" d="M28.5768 1086.69 Q31.2186 1086.69 32.7145 1084.65 Q34.2105 1082.61 34.2105 1078.82 L34.2105 1070.93 L22.975 1070.93 L22.975 1078.82 Q22.975 1082.61 24.4391 1084.65 Q25.9032 1086.69 28.5768 1086.69 M53.9442 1095.02 L38.3163 1084.14 Q37.4888 1087.83 35.3245 1090.28 Q33.1283 1092.73 28.5768 1092.73 Q23.4206 1092.73 20.8743 1089.33 Q18.2962 1085.89 18.2962 1078.98 L18.2962 1065.04 L53.9442 1065.04 L53.9442 1070.93 L38.8893 1070.93 L38.8893 1078.22 L53.9442 1088.72 L53.9442 1095.02 Z" fill="#000000" fill-rule="nonzero" fill-opacity="1" /><path clip-path="url(#clip860)" d="M45.8597 1051.87 L45.8597 1045.15 L51.3342 1045.15 L61.5193 1050.37 L61.5193 1054.48 L51.3342 1051.87 L45.8597 1051.87 Z" fill="#000000" fill-rule="nonzero" fill-opacity="1" /><path clip-path="url(#clip860)" d="M39.8759 1012.53 L18.2962 1012.53 L18.2962 1006.67 L39.6531 1006.67 Q44.7139 1006.67 47.2602 1004.7 Q49.7746 1002.72 49.7746 998.776 Q49.7746 994.033 46.7509 991.296 Q43.7272 988.527 38.5073 988.527 L18.2962 988.527 L18.2962 982.67 L53.9442 982.67 L53.9442 988.527 L48.4696 988.527 Q51.7162 990.659 53.3076 993.492 Q54.8672 996.293 54.8672 1000.02 Q54.8672 1006.16 51.0478 1009.34 Q47.2283 1012.53 39.8759 1012.53 M17.4368 997.789 L17.4368 997.789 Z" fill="#000000" fill-rule="nonzero" fill-opacity="1" /><path clip-path="url(#clip860)" d="M4.48262 956.539 Q11.8032 960.804 18.9646 962.873 Q26.126 964.942 33.4784 964.942 Q40.8308 964.942 48.0559 962.873 Q55.2491 960.772 62.5379 956.539 L62.5379 961.632 Q55.0582 966.406 47.8331 968.793 Q40.608 971.148 33.4784 971.148 Q26.3806 971.148 19.1874 968.793 Q11.9942 966.438 4.48262 961.632 L4.48262 956.539 Z" fill="#000000" fill-rule="nonzero" fill-opacity="1" /><path clip-path="url(#clip860)" d="M8.17473 939.383 L18.2962 939.383 L18.2962 927.32 L22.8477 927.32 L22.8477 939.383 L42.1994 939.383 Q46.5599 939.383 47.8013 938.206 Q49.0426 936.996 49.0426 933.336 L49.0426 927.32 L53.9442 927.32 L53.9442 933.336 Q53.9442 940.116 51.4297 942.694 Q48.8834 945.272 42.1994 945.272 L22.8477 945.272 L22.8477 949.569 L18.2962 949.569 L18.2962 945.272 L8.17473 945.272 L8.17473 939.383 Z" fill="#000000" fill-rule="nonzero" fill-opacity="1" /><path clip-path="url(#clip860)" d="M4.48262 920.541 L4.48262 915.448 Q11.9942 910.674 19.1874 908.319 Q26.3806 905.932 33.4784 905.932 Q40.608 905.932 47.8331 908.319 Q55.0582 910.674 62.5379 915.448 L62.5379 920.541 Q55.2491 916.308 48.0559 914.239 Q40.8308 912.138 33.4784 912.138 Q26.126 912.138 18.9646 914.239 Q11.8032 916.308 4.48262 920.541 Z" fill="#000000" fill-rule="nonzero" fill-opacity="1" /><path clip-path="url(#clip860)" d="M625.795 59.3701 Q634.343 67.0263 644.713 67.0263 Q655.408 67.0263 660.228 61.274 Q665.049 55.5217 665.94 45.84 L633.614 45.84 L633.614 38.9535 L665.94 38.9535 Q665.049 29.2718 660.228 23.5195 Q655.408 17.7268 644.713 17.7268 Q634.343 17.7268 625.795 25.383 L625.795 16.7545 Q634.221 11.0023 645.199 11.0023 Q658.77 11.0023 666.669 19.4281 Q674.568 27.8135 674.568 42.3563 Q674.568 56.9395 666.669 65.3654 Q658.77 73.7508 645.199 73.7508 Q634.383 73.7508 625.795 67.9175 L625.795 59.3701 Z" fill="#000000" fill-rule="nonzero" fill-opacity="1" /><path clip-path="url(#clip860)" d="M686.762 27.2059 L694.175 27.2059 L694.175 48.5136 L715.199 27.2059 L724.354 27.2059 L707.016 44.7463 L726.582 72.576 L718.237 72.576 L702.155 49.6884 L694.175 57.7902 L694.175 72.576 L686.762 72.576 L686.762 27.2059 Z" fill="#000000" fill-rule="nonzero" fill-opacity="1" /><path clip-path="url(#clip860)" d="M769.805 28.9478 L769.805 35.9153 Q766.645 34.1734 763.445 33.3227 Q760.286 32.4315 757.045 32.4315 Q749.794 32.4315 745.783 37.0496 Q741.773 41.6271 741.773 49.9314 Q741.773 58.2358 745.783 62.8538 Q749.794 67.4314 757.045 67.4314 Q760.286 67.4314 763.445 66.5807 Q766.645 65.6895 769.805 63.9476 L769.805 70.8341 Q766.686 72.2924 763.324 73.0216 Q760.002 73.7508 756.235 73.7508 Q745.986 73.7508 739.95 67.3098 Q733.914 60.8689 733.914 49.9314 Q733.914 38.832 739.99 32.472 Q746.107 26.1121 756.721 26.1121 Q760.164 26.1121 763.445 26.8413 Q766.726 27.5299 769.805 28.9478 Z" fill="#000000" fill-rule="nonzero" fill-opacity="1" /><path clip-path="url(#clip860)" d="M821.657 27.2059 L821.657 72.576 L814.163 72.576 L814.163 33.1607 L789.979 33.1607 L789.979 72.576 L782.484 72.576 L782.484 27.2059 L821.657 27.2059 Z" fill="#000000" fill-rule="nonzero" fill-opacity="1" /><path clip-path="url(#clip860)" d="M854.591 32.4315 Q848.595 32.4315 845.111 37.1306 Q841.628 41.7891 841.628 49.9314 Q841.628 58.0738 845.071 62.7728 Q848.555 67.4314 854.591 67.4314 Q860.545 67.4314 864.029 62.7323 Q867.513 58.0333 867.513 49.9314 Q867.513 41.8701 864.029 37.1711 Q860.545 32.4315 854.591 32.4315 M854.591 26.1121 Q864.313 26.1121 869.862 32.4315 Q875.412 38.7509 875.412 49.9314 Q875.412 61.0714 869.862 67.4314 Q864.313 73.7508 854.591 73.7508 Q844.828 73.7508 839.278 67.4314 Q833.769 61.0714 833.769 49.9314 Q833.769 38.7509 839.278 32.4315 Q844.828 26.1121 854.591 26.1121 Z" fill="#000000" fill-rule="nonzero" fill-opacity="1" /><path clip-path="url(#clip860)" d="M887.484 27.2059 L894.978 27.2059 L894.978 45.7185 L919.162 45.7185 L919.162 27.2059 L926.656 27.2059 L926.656 72.576 L919.162 72.576 L919.162 51.6733 L894.978 51.6733 L894.978 72.576 L887.484 72.576 L887.484 27.2059 Z" fill="#000000" fill-rule="nonzero" fill-opacity="1" /><path clip-path="url(#clip860)" d="M980.817 48.0275 L980.817 51.6733 L946.546 51.6733 Q947.032 59.3701 951.164 63.421 Q955.337 67.4314 962.75 67.4314 Q967.044 67.4314 971.054 66.3781 Q975.105 65.3249 979.075 63.2184 L979.075 70.267 Q975.064 71.9684 970.852 72.8596 Q966.639 73.7508 962.304 73.7508 Q951.448 73.7508 945.088 67.4314 Q938.768 61.1119 938.768 50.3365 Q938.768 39.1965 944.764 32.6746 Q950.8 26.1121 961.008 26.1121 Q970.163 26.1121 975.47 32.0264 Q980.817 37.9003 980.817 48.0275 M973.363 45.84 Q973.282 39.7232 969.92 36.0774 Q966.598 32.4315 961.089 32.4315 Q954.85 32.4315 951.083 35.9558 Q947.356 39.4801 946.789 45.8805 L973.363 45.84 Z" fill="#000000" fill-rule="nonzero" fill-opacity="1" /><path clip-path="url(#clip860)" d="M992.767 27.2059 L1000.26 27.2059 L1000.26 45.7185 L1024.44 45.7185 L1024.44 27.2059 L1031.94 27.2059 L1031.94 72.576 L1024.44 72.576 L1024.44 51.6733 L1000.26 51.6733 L1000.26 72.576 L992.767 72.576 L992.767 27.2059 Z" fill="#000000" fill-rule="nonzero" fill-opacity="1" /><path clip-path="url(#clip860)" d="M1086.18 72.576 L1047.01 72.576 L1047.01 27.2059 L1054.5 27.2059 L1054.5 66.6212 L1078.69 66.6212 L1078.69 27.2059 L1086.18 27.2059 L1086.18 66.6212 L1092.14 66.6212 L1092.14 84.0401 L1086.18 84.0401 L1086.18 72.576 Z" fill="#000000" fill-rule="nonzero" fill-opacity="1" /><path clip-path="url(#clip860)" d="M1142.33 27.2059 L1142.33 72.576 L1134.91 72.576 L1134.91 36.1584 L1113.04 72.576 L1103.48 72.576 L1103.48 27.2059 L1110.89 27.2059 L1110.89 63.5425 L1132.73 27.2059 L1142.33 27.2059 Z" fill="#000000" fill-rule="nonzero" fill-opacity="1" /><path clip-path="url(#clip860)" d="M1178.3 49.7694 Q1169.26 49.7694 1165.78 51.8354 Q1162.3 53.9013 1162.3 58.8839 Q1162.3 62.8538 1164.89 65.2034 Q1167.52 67.5124 1172.02 67.5124 Q1178.22 67.5124 1181.94 63.1374 Q1185.71 58.7219 1185.71 51.4303 L1185.71 49.7694 L1178.3 49.7694 M1193.17 46.6907 L1193.17 72.576 L1185.71 72.576 L1185.71 65.6895 Q1183.16 69.8214 1179.35 71.8063 Q1175.54 73.7508 1170.03 73.7508 Q1163.07 73.7508 1158.93 69.8619 Q1154.84 65.9325 1154.84 59.3701 Q1154.84 51.7138 1159.95 47.825 Q1165.09 43.9361 1175.26 43.9361 L1185.71 43.9361 L1185.71 43.2069 Q1185.71 38.0623 1182.31 35.2672 Q1178.95 32.4315 1172.83 32.4315 Q1168.94 32.4315 1165.25 33.3632 Q1161.57 34.295 1158.17 36.1584 L1158.17 29.2718 Q1162.26 27.692 1166.11 26.9223 Q1169.95 26.1121 1173.6 26.1121 Q1183.44 26.1121 1188.3 31.2163 Q1193.17 36.3204 1193.17 46.6907 Z" fill="#000000" fill-rule="nonzero" fill-opacity="1" /><path clip-path="url(#clip860)" d="M1203.78 72.576 L1203.78 66.3781 Q1211.15 65.2439 1213.42 60.1397 Q1216.17 52.9696 1216.17 34.619 L1216.17 27.2059 L1246.84 27.2059 L1246.84 72.576 L1239.39 72.576 L1239.39 33.1607 L1223.63 33.1607 L1223.63 37.6572 Q1223.63 55.1571 1220.06 63.0159 Q1216.26 71.4012 1203.78 72.576 Z" fill="#000000" fill-rule="nonzero" fill-opacity="1" /><path clip-path="url(#clip860)" d="M1289.78 59.127 Q1289.78 55.4812 1287.11 53.5773 Q1284.47 51.6733 1279.37 51.6733 L1268.76 51.6733 L1268.76 66.6212 L1279.37 66.6212 Q1284.47 66.6212 1287.11 64.7172 Q1289.78 62.7728 1289.78 59.127 M1261.26 27.2059 L1268.76 27.2059 L1268.76 45.7185 L1279.69 45.7185 Q1288.36 45.7185 1293.02 49.0402 Q1297.72 52.3215 1297.72 59.127 Q1297.72 65.9325 1293.02 69.2543 Q1288.36 72.576 1279.69 72.576 L1261.26 72.576 L1261.26 27.2059 Z" fill="#000000" fill-rule="nonzero" fill-opacity="1" /><path clip-path="url(#clip860)" d="M1310.16 27.2059 L1317.65 27.2059 L1317.65 45.7185 L1341.83 45.7185 L1341.83 27.2059 L1349.33 27.2059 L1349.33 72.576 L1341.83 72.576 L1341.83 51.6733 L1317.65 51.6733 L1317.65 72.576 L1310.16 72.576 L1310.16 27.2059 Z" fill="#000000" fill-rule="nonzero" fill-opacity="1" /><path clip-path="url(#clip860)" d="M1407.54 27.2059 L1414.99 27.2059 L1414.99 72.576 L1407.54 72.576 L1407.54 27.2059 M1411.27 26.1121 L1411.27 26.1121 M1392.92 59.127 Q1392.92 55.4812 1390.24 53.5773 Q1387.61 51.6733 1382.5 51.6733 L1371.89 51.6733 L1371.89 66.6212 L1382.5 66.6212 Q1387.61 66.6212 1390.24 64.7172 Q1392.92 62.7728 1392.92 59.127 M1364.4 27.2059 L1371.89 27.2059 L1371.89 45.7185 L1382.83 45.7185 Q1391.5 45.7185 1396.16 49.0402 Q1400.85 52.3215 1400.85 59.127 Q1400.85 65.9325 1396.16 69.2543 Q1391.5 72.576 1382.83 72.576 L1364.4 72.576 L1364.4 27.2059 Z" fill="#000000" fill-rule="nonzero" fill-opacity="1" /><path clip-path="url(#clip860)" d="M1468.75 27.2059 L1468.75 72.576 L1461.33 72.576 L1461.33 36.1584 L1439.46 72.576 L1429.9 72.576 L1429.9 27.2059 L1437.31 27.2059 L1437.31 63.5425 L1459.15 27.2059 L1468.75 27.2059 M1436.66 9.54393 L1441.45 9.54393 Q1441.89 12.5821 1443.84 14.1215 Q1445.82 15.6203 1449.34 15.6203 Q1452.83 15.6203 1454.77 14.1215 Q1456.72 12.6226 1457.24 9.54393 L1462.02 9.54393 Q1461.62 15.3367 1458.42 18.2534 Q1455.22 21.17 1449.34 21.17 Q1443.47 21.17 1440.27 18.2534 Q1437.07 15.3367 1436.66 9.54393 Z" fill="#000000" fill-rule="nonzero" fill-opacity="1" /><path clip-path="url(#clip860)" d="M1517.68 65.7705 L1517.68 89.8329 L1510.19 89.8329 L1510.19 27.2059 L1517.68 27.2059 L1517.68 34.0924 Q1520.03 30.0415 1523.6 28.0971 Q1527.2 26.1121 1532.19 26.1121 Q1540.45 26.1121 1545.59 32.6746 Q1550.78 39.2371 1550.78 49.9314 Q1550.78 60.6258 1545.59 67.1883 Q1540.45 73.7508 1532.19 73.7508 Q1527.2 73.7508 1523.6 71.8063 Q1520.03 69.8214 1517.68 65.7705 M1543.04 49.9314 Q1543.04 41.7081 1539.64 37.0496 Q1536.28 32.3505 1530.36 32.3505 Q1524.45 32.3505 1521.05 37.0496 Q1517.68 41.7081 1517.68 49.9314 Q1517.68 58.1548 1521.05 62.8538 Q1524.45 67.5124 1530.36 67.5124 Q1536.28 67.5124 1539.64 62.8538 Q1543.04 58.1548 1543.04 49.9314 Z" fill="#000000" fill-rule="nonzero" fill-opacity="1" /><path clip-path="url(#clip860)" d="M1580.72 32.4315 Q1574.72 32.4315 1571.24 37.1306 Q1567.75 41.7891 1567.75 49.9314 Q1567.75 58.0738 1571.2 62.7728 Q1574.68 67.4314 1580.72 67.4314 Q1586.67 67.4314 1590.15 62.7323 Q1593.64 58.0333 1593.64 49.9314 Q1593.64 41.8701 1590.15 37.1711 Q1586.67 32.4315 1580.72 32.4315 M1580.72 26.1121 Q1590.44 26.1121 1595.99 32.4315 Q1601.54 38.7509 1601.54 49.9314 Q1601.54 61.0714 1595.99 67.4314 Q1590.44 73.7508 1580.72 73.7508 Q1570.95 73.7508 1565.4 67.4314 Q1559.89 61.0714 1559.89 49.9314 Q1559.89 38.7509 1565.4 32.4315 Q1570.95 26.1121 1580.72 26.1121 Z" fill="#000000" fill-rule="nonzero" fill-opacity="1" /><path clip-path="url(#clip860)" d="M1646.54 28.9478 L1646.54 35.9153 Q1643.38 34.1734 1640.18 33.3227 Q1637.02 32.4315 1633.78 32.4315 Q1626.53 32.4315 1622.52 37.0496 Q1618.51 41.6271 1618.51 49.9314 Q1618.51 58.2358 1622.52 62.8538 Q1626.53 67.4314 1633.78 67.4314 Q1637.02 67.4314 1640.18 66.5807 Q1643.38 65.6895 1646.54 63.9476 L1646.54 70.8341 Q1643.42 72.2924 1640.06 73.0216 Q1636.74 73.7508 1632.97 73.7508 Q1622.72 73.7508 1616.69 67.3098 Q1610.65 60.8689 1610.65 49.9314 Q1610.65 38.832 1616.73 32.472 Q1622.84 26.1121 1633.46 26.1121 Q1636.9 26.1121 1640.18 26.8413 Q1643.46 27.5299 1646.54 28.9478 Z" fill="#000000" fill-rule="nonzero" fill-opacity="1" /><path clip-path="url(#clip860)" d="M1654.12 27.2059 L1697.58 27.2059 L1697.58 33.1607 L1679.52 33.1607 L1679.52 72.576 L1672.18 72.576 L1672.18 33.1607 L1654.12 33.1607 L1654.12 27.2059 Z" fill="#000000" fill-rule="nonzero" fill-opacity="1" /><path clip-path="url(#clip860)" d="M1752.11 9.62495 Q1746.68 18.942 1744.05 28.0566 Q1741.41 37.1711 1741.41 46.5287 Q1741.41 55.8863 1744.05 65.0818 Q1746.72 74.2369 1752.11 83.5134 L1745.63 83.5134 Q1739.55 73.9938 1736.51 64.7983 Q1733.52 55.6027 1733.52 46.5287 Q1733.52 37.4952 1736.51 28.3401 Q1739.51 19.1851 1745.63 9.62495 L1752.11 9.62495 Z" fill="#000000" fill-rule="nonzero" fill-opacity="1" /><path clip-path="url(#clip860)" d="M1784.56 26.1121 Q1794.28 26.1121 1799.83 32.4315 Q1805.38 38.7509 1805.38 49.9314 Q1805.38 61.0714 1799.83 67.4314 Q1794.28 73.7508 1784.56 73.7508 Q1774.79 73.7508 1769.41 67.5934 Q1764.02 61.436 1763.73 49.9314 L1763.49 40.6549 Q1763.29 35.8343 1763.29 34.1734 Q1763.29 27.692 1765.64 22.9119 Q1769.33 15.4177 1775.69 12.177 Q1782.09 8.93629 1792.78 8.85528 Q1797.72 8.81477 1799.91 8.12611 L1801.98 14.0404 Q1799.99 14.8506 1798.17 14.8911 L1788.04 15.5798 Q1782.94 15.9444 1779.86 17.7268 Q1771.8 22.4663 1771.03 28.6642 L1770.74 30.9327 Q1776.01 26.1121 1784.56 26.1121 M1784.56 32.4315 Q1778.56 32.4315 1775.08 37.1306 Q1771.59 41.7891 1771.59 49.9314 Q1771.59 58.0738 1775.04 62.7728 Q1778.52 67.4314 1784.56 67.4314 Q1790.51 67.4314 1794 62.7323 Q1797.48 58.0333 1797.48 49.9314 Q1797.48 41.8701 1794 37.1711 Q1790.51 32.4315 1784.56 32.4315 Z" fill="#000000" fill-rule="nonzero" fill-opacity="1" /><path clip-path="url(#clip860)" d="M1838.35 49.7694 Q1829.32 49.7694 1825.84 51.8354 Q1822.35 53.9013 1822.35 58.8839 Q1822.35 62.8538 1824.94 65.2034 Q1827.58 67.5124 1832.07 67.5124 Q1838.27 67.5124 1842 63.1374 Q1845.77 58.7219 1845.77 51.4303 L1845.77 49.7694 L1838.35 49.7694 M1853.22 46.6907 L1853.22 72.576 L1845.77 72.576 L1845.77 65.6895 Q1843.21 69.8214 1839.41 71.8063 Q1835.6 73.7508 1830.09 73.7508 Q1823.12 73.7508 1818.99 69.8619 Q1814.9 65.9325 1814.9 59.3701 Q1814.9 51.7138 1820 47.825 Q1825.15 43.9361 1835.31 43.9361 L1845.77 43.9361 L1845.77 43.2069 Q1845.77 38.0623 1842.36 35.2672 Q1839 32.4315 1832.88 32.4315 Q1829 32.4315 1825.31 33.3632 Q1821.62 34.295 1818.22 36.1584 L1818.22 29.2718 Q1822.31 27.692 1826.16 26.9223 Q1830.01 26.1121 1833.65 26.1121 Q1843.5 26.1121 1848.36 31.2163 Q1853.22 36.3204 1853.22 46.6907 Z" fill="#000000" fill-rule="nonzero" fill-opacity="1" /><path clip-path="url(#clip860)" d="M1889.35 48.1085 Q1894.38 49.0808 1897.17 52.0379 Q1899.97 54.9951 1899.97 59.3701 Q1899.97 66.3781 1894.74 70.0644 Q1889.52 73.7508 1879.87 73.7508 Q1876.63 73.7508 1873.19 73.1836 Q1869.79 72.6165 1866.14 71.4823 L1866.14 64.5552 Q1869.02 66.054 1872.46 66.8237 Q1875.9 67.5529 1879.67 67.5529 Q1885.79 67.5529 1889.19 65.2844 Q1892.63 63.0159 1892.63 59.3701 Q1892.63 55.8053 1889.6 53.6583 Q1886.56 51.4708 1881.01 51.4708 L1875.01 51.4708 L1875.01 45.3134 L1881.29 45.3134 Q1885.99 45.3134 1888.71 43.531 Q1891.46 41.7081 1891.46 38.8725 Q1891.46 36.2799 1888.62 34.4165 Q1885.83 32.5531 1881.01 32.5531 Q1878.13 32.5531 1874.85 33.0797 Q1871.61 33.6063 1867.68 34.7811 L1867.68 28.0161 Q1871.65 27.0438 1875.09 26.5577 Q1878.54 26.0716 1881.62 26.0716 Q1889.56 26.0716 1894.13 29.2718 Q1898.75 32.4315 1898.75 38.1433 Q1898.75 41.9107 1896.32 44.5437 Q1893.89 47.1363 1889.35 48.1085 Z" fill="#000000" fill-rule="nonzero" fill-opacity="1" /><path clip-path="url(#clip860)" d="M1930.27 32.4315 Q1924.27 32.4315 1920.79 37.1306 Q1917.3 41.7891 1917.3 49.9314 Q1917.3 58.0738 1920.75 62.7728 Q1924.23 67.4314 1930.27 67.4314 Q1936.22 67.4314 1939.71 62.7323 Q1943.19 58.0333 1943.19 49.9314 Q1943.19 41.8701 1939.71 37.1711 Q1936.22 32.4315 1930.27 32.4315 M1930.27 26.1121 Q1939.99 26.1121 1945.54 32.4315 Q1951.09 38.7509 1951.09 49.9314 Q1951.09 61.0714 1945.54 67.4314 Q1939.99 73.7508 1930.27 73.7508 Q1920.5 73.7508 1914.96 67.4314 Q1909.45 61.0714 1909.45 49.9314 Q1909.45 38.7509 1914.96 32.4315 Q1920.5 26.1121 1930.27 26.1121 Z" fill="#000000" fill-rule="nonzero" fill-opacity="1" /><path clip-path="url(#clip860)" d="M1970.61 51.6733 L1970.61 66.6212 L1981.23 66.6212 Q1986.33 66.6212 1989.01 64.7172 Q1991.68 62.7728 1991.68 59.127 Q1991.68 55.4812 1989.01 53.5773 Q1986.33 51.6733 1981.23 51.6733 L1970.61 51.6733 M1970.61 33.1607 L1970.61 45.7185 L1980.42 45.7185 Q1984.63 45.7185 1987.3 44.0576 Q1989.98 42.3563 1989.98 39.3586 Q1989.98 36.3609 1987.3 34.7811 Q1984.63 33.1607 1980.42 33.1607 L1970.61 33.1607 M1963.16 27.2059 L1980.9 27.2059 Q1988.88 27.2059 1993.18 30.1225 Q1997.47 33.0392 1997.47 38.4269 Q1997.47 42.5993 1995.28 45.0704 Q1993.1 47.5009 1988.8 48.1085 Q1993.95 49.0808 1996.78 52.1594 Q1999.62 55.2381 1999.62 59.8562 Q1999.62 65.9325 1994.92 69.2543 Q1990.26 72.576 1981.59 72.576 L1963.16 72.576 L1963.16 27.2059 Z" fill="#000000" fill-rule="nonzero" fill-opacity="1" /><path clip-path="url(#clip860)" d="M2055.2 27.2059 L2062.65 27.2059 L2062.65 72.576 L2055.2 72.576 L2055.2 27.2059 M2058.92 26.1121 L2058.92 26.1121 M2040.57 59.127 Q2040.57 55.4812 2037.9 53.5773 Q2035.27 51.6733 2030.16 51.6733 L2019.55 51.6733 L2019.55 66.6212 L2030.16 66.6212 Q2035.27 66.6212 2037.9 64.7172 Q2040.57 62.7728 2040.57 59.127 M2012.06 27.2059 L2019.55 27.2059 L2019.55 45.7185 L2030.49 45.7185 Q2039.16 45.7185 2043.81 49.0402 Q2048.51 52.3215 2048.51 59.127 Q2048.51 65.9325 2043.81 69.2543 Q2039.16 72.576 2030.49 72.576 L2012.06 72.576 L2012.06 27.2059 Z" fill="#000000" fill-rule="nonzero" fill-opacity="1" /><path clip-path="url(#clip860)" d="M2116.41 27.2059 L2116.41 72.576 L2108.99 72.576 L2108.99 36.1584 L2087.12 72.576 L2077.56 72.576 L2077.56 27.2059 L2084.97 27.2059 L2084.97 63.5425 L2106.81 27.2059 L2116.41 27.2059 M2084.32 9.54393 L2089.1 9.54393 Q2089.55 12.5821 2091.49 14.1215 Q2093.48 15.6203 2097 15.6203 Q2100.49 15.6203 2102.43 14.1215 Q2104.38 12.6226 2104.9 9.54393 L2109.68 9.54393 Q2109.28 15.3367 2106.08 18.2534 Q2102.88 21.17 2097 21.17 Q2091.13 21.17 2087.93 18.2534 Q2084.73 15.3367 2084.32 9.54393 Z" fill="#000000" fill-rule="nonzero" fill-opacity="1" /><path clip-path="url(#clip860)" d="M2154.89 63.9476 Q2161.29 67.4314 2167.65 67.4314 Q2173.61 67.4314 2177.86 63.9881 Q2182.11 60.5043 2182.88 51.6733 L2159.87 51.6733 L2159.87 45.7185 L2182.64 45.7185 Q2182.15 41.4651 2178.91 36.9686 Q2175.71 32.4315 2167.65 32.4315 Q2161.41 32.4315 2154.89 35.9153 L2154.89 28.9478 Q2161.25 26.1121 2167.97 26.1121 Q2178.59 26.1121 2184.66 32.5531 Q2190.78 38.9535 2190.78 49.9314 Q2190.78 60.8689 2184.83 67.3098 Q2178.91 73.7508 2168.5 73.7508 Q2160.85 73.7508 2154.89 70.8341 L2154.89 63.9476 Z" fill="#000000" fill-rule="nonzero" fill-opacity="1" /><path clip-path="url(#clip860)" d="M2203.38 27.2059 L2210.79 27.2059 L2210.79 48.5136 L2231.82 27.2059 L2240.97 27.2059 L2223.63 44.7463 L2243.2 72.576 L2234.86 72.576 L2218.77 49.6884 L2210.79 57.7902 L2210.79 72.576 L2203.38 72.576 L2203.38 27.2059 Z" fill="#000000" fill-rule="nonzero" fill-opacity="1" /><path clip-path="url(#clip860)" d="M2286.42 28.9478 L2286.42 35.9153 Q2283.26 34.1734 2280.06 33.3227 Q2276.9 32.4315 2273.66 32.4315 Q2266.41 32.4315 2262.4 37.0496 Q2258.39 41.6271 2258.39 49.9314 Q2258.39 58.2358 2262.4 62.8538 Q2266.41 67.4314 2273.66 67.4314 Q2276.9 67.4314 2280.06 66.5807 Q2283.26 65.6895 2286.42 63.9476 L2286.42 70.8341 Q2283.3 72.2924 2279.94 73.0216 Q2276.62 73.7508 2272.85 73.7508 Q2262.6 73.7508 2256.57 67.3098 Q2250.53 60.8689 2250.53 49.9314 Q2250.53 38.832 2256.61 32.472 Q2262.73 26.1121 2273.34 26.1121 Q2276.78 26.1121 2280.06 26.8413 Q2283.34 27.5299 2286.42 28.9478 Z" fill="#000000" fill-rule="nonzero" fill-opacity="1" /><path clip-path="url(#clip860)" d="M2338.27 27.2059 L2338.27 72.576 L2330.78 72.576 L2330.78 33.1607 L2306.6 33.1607 L2306.6 72.576 L2299.1 72.576 L2299.1 27.2059 L2338.27 27.2059 Z" fill="#000000" fill-rule="nonzero" fill-opacity="1" /><path clip-path="url(#clip860)" d="M2392.44 48.0275 L2392.44 51.6733 L2358.16 51.6733 Q2358.65 59.3701 2362.78 63.421 Q2366.96 67.4314 2374.37 67.4314 Q2378.66 67.4314 2382.67 66.3781 Q2386.72 65.3249 2390.69 63.2184 L2390.69 70.267 Q2386.68 71.9684 2382.47 72.8596 Q2378.26 73.7508 2373.92 73.7508 Q2363.07 73.7508 2356.71 67.4314 Q2350.39 61.1119 2350.39 50.3365 Q2350.39 39.1965 2356.38 32.6746 Q2362.42 26.1121 2372.63 26.1121 Q2381.78 26.1121 2387.09 32.0264 Q2392.44 37.9003 2392.44 48.0275 M2384.98 45.84 Q2384.9 39.7232 2381.54 36.0774 Q2378.22 32.4315 2372.71 32.4315 Q2366.47 32.4315 2362.7 35.9558 Q2358.97 39.4801 2358.41 45.8805 L2384.98 45.84 Z" fill="#000000" fill-rule="nonzero" fill-opacity="1" /><path clip-path="url(#clip860)" d="M2411.88 65.7705 L2411.88 89.8329 L2404.39 89.8329 L2404.39 27.2059 L2411.88 27.2059 L2411.88 34.0924 Q2414.23 30.0415 2417.79 28.0971 Q2421.4 26.1121 2426.38 26.1121 Q2434.65 26.1121 2439.79 32.6746 Q2444.98 39.2371 2444.98 49.9314 Q2444.98 60.6258 2439.79 67.1883 Q2434.65 73.7508 2426.38 73.7508 Q2421.4 73.7508 2417.79 71.8063 Q2414.23 69.8214 2411.88 65.7705 M2437.24 49.9314 Q2437.24 41.7081 2433.84 37.0496 Q2430.47 32.3505 2424.56 32.3505 Q2418.64 32.3505 2415.24 37.0496 Q2411.88 41.7081 2411.88 49.9314 Q2411.88 58.1548 2415.24 62.8538 Q2418.64 67.5124 2424.56 67.5124 Q2430.47 67.5124 2433.84 62.8538 Q2437.24 58.1548 2437.24 49.9314 Z" fill="#000000" fill-rule="nonzero" fill-opacity="1" /><path clip-path="url(#clip860)" d="M2495.9 27.2059 L2495.9 72.576 L2488.48 72.576 L2488.48 36.1584 L2466.61 72.576 L2457.05 72.576 L2457.05 27.2059 L2464.46 27.2059 L2464.46 63.5425 L2486.29 27.2059 L2495.9 27.2059 Z" fill="#000000" fill-rule="nonzero" fill-opacity="1" /><path clip-path="url(#clip860)" d="M2510.96 27.2059 L2521.86 27.2059 L2534.74 57.5877 L2547.67 27.2059 L2558.48 27.2059 L2558.48 72.576 L2550.99 72.576 L2550.99 34.3355 L2538.47 63.8666 L2531.02 63.8666 L2518.46 34.3355 L2518.46 72.576 L2510.96 72.576 L2510.96 27.2059 Z" fill="#000000" fill-rule="nonzero" fill-opacity="1" /><path clip-path="url(#clip860)" d="M2612.64 48.0275 L2612.64 51.6733 L2578.37 51.6733 Q2578.86 59.3701 2582.99 63.421 Q2587.16 67.4314 2594.58 67.4314 Q2598.87 67.4314 2602.88 66.3781 Q2606.93 65.3249 2610.9 63.2184 L2610.9 70.267 Q2606.89 71.9684 2602.68 72.8596 Q2598.46 73.7508 2594.13 73.7508 Q2583.27 73.7508 2576.91 67.4314 Q2570.59 61.1119 2570.59 50.3365 Q2570.59 39.1965 2576.59 32.6746 Q2582.63 26.1121 2592.83 26.1121 Q2601.99 26.1121 2607.3 32.0264 Q2612.64 37.9003 2612.64 48.0275 M2605.19 45.84 Q2605.11 39.7232 2601.75 36.0774 Q2598.42 32.4315 2592.91 32.4315 Q2586.68 32.4315 2582.91 35.9558 Q2579.18 39.4801 2578.61 45.8805 L2605.19 45.84 Z" fill="#000000" fill-rule="nonzero" fill-opacity="1" /><path clip-path="url(#clip860)" d="M2624.59 27.2059 L2632.09 27.2059 L2632.09 45.7185 L2656.27 45.7185 L2656.27 27.2059 L2663.76 27.2059 L2663.76 72.576 L2656.27 72.576 L2656.27 51.6733 L2632.09 51.6733 L2632.09 72.576 L2624.59 72.576 L2624.59 27.2059 Z" fill="#000000" fill-rule="nonzero" fill-opacity="1" /><path clip-path="url(#clip860)" d="M2673.73 27.2059 L2717.2 27.2059 L2717.2 33.1607 L2699.13 33.1607 L2699.13 72.576 L2691.8 72.576 L2691.8 33.1607 L2673.73 33.1607 L2673.73 27.2059 Z" fill="#000000" fill-rule="nonzero" fill-opacity="1" /><path clip-path="url(#clip860)" d="M2726.27 9.62495 L2732.75 9.62495 Q2738.83 19.1851 2741.83 28.3401 Q2744.86 37.4952 2744.86 46.5287 Q2744.86 55.6027 2741.83 64.7983 Q2738.83 73.9938 2732.75 83.5134 L2726.27 83.5134 Q2731.66 74.2369 2734.29 65.0818 Q2736.96 55.8863 2736.96 46.5287 Q2736.96 37.1711 2734.29 28.0566 Q2731.66 18.942 2726.27 9.62495 Z" fill="#000000" fill-rule="nonzero" fill-opacity="1" /><polyline clip-path="url(#clip861)" style="stroke:#009af9; stroke-linecap:round; stroke-linejoin:round; stroke-width:8; stroke-opacity:1; fill:none" points="300.965,2146.22 328.653,2143.1 356.34,2139.89 384.027,2136.57 411.715,2133.15 439.402,2129.63 467.089,2126.01 494.776,2122.27 522.464,2118.42 550.151,2114.45 577.838,2110.36 605.526,2106.15 633.213,2101.8 660.9,2097.33 688.587,2092.72 716.275,2087.97 743.962,2083.07 771.649,2078.02 799.337,2072.83 827.024,2067.47 854.711,2061.95 882.398,2056.26 910.086,2050.4 937.773,2044.36 965.46,2038.13 993.148,2031.72 1020.83,2025.11 1048.52,2018.3 1076.21,2011.28 1103.9,2004.05 1131.58,1996.6 1159.27,1988.92 1186.96,1981.01 1214.65,1972.85 1242.33,1964.45 1270.02,1955.79 1297.71,1946.87 1325.4,1937.68 1353.08,1928.21 1380.77,1918.44 1408.46,1908.38 1436.14,1898.02 1463.83,1887.34 1491.52,1876.33 1519.21,1864.99 1546.89,1853.3 1574.58,1841.26 1602.27,1828.85 1629.96,1816.06 1657.64,1802.89 1685.33,1789.31 1713.02,1775.32 1740.7,1760.9 1768.39,1746.04 1796.08,1730.73 1823.77,1714.96 1851.45,1698.7 1879.14,1681.95 1906.83,1664.69 1934.52,1646.9 1962.2,1628.57 1989.89,1609.69 2017.58,1590.22 2045.26,1570.17 2072.95,1549.5 2100.64,1528.21 2128.33,1506.26 2156.01,1483.65 2183.7,1460.35 2211.39,1436.35 2239.08,1411.61 2266.76,1386.11 2294.45,1359.85 2322.14,1332.78 2349.82,1304.88 2377.51,1276.14 2405.2,1246.52 2432.89,1215.99 2460.57,1184.54 2488.26,1152.13 2515.95,1118.73 2543.64,1084.31 2571.32,1048.85 2599.01,1012.31 2626.7,974.652 2654.38,935.85 2682.07,895.867 2709.76,854.668 2737.45,812.214 2765.13,768.467 2792.82,723.389 2820.51,676.938 2848.2,629.071 2875.88,579.746 2903.57,528.918 2931.26,476.541 2958.94,422.568 2986.63,366.95 3014.32,309.638 3042.01,250.581 3069.69,189.727 "/>
<path clip-path="url(#clip860)" d="M315.732 303.842 L779.309 303.842 L779.309 200.162 L315.732 200.162  Z" fill="#ffffff" fill-rule="evenodd" fill-opacity="1"/>
<polyline clip-path="url(#clip860)" style="stroke:#000000; stroke-linecap:round; stroke-linejoin:round; stroke-width:4; stroke-opacity:1; fill:none" points="315.732,303.842 779.309,303.842 779.309,200.162 315.732,200.162 315.732,303.842 "/>
<polyline clip-path="url(#clip860)" style="stroke:#009af9; stroke-linecap:round; stroke-linejoin:round; stroke-width:8; stroke-opacity:1; fill:none" points="348.341,252.002 543.998,252.002 "/>
<path clip-path="url(#clip860)" d="M593.575 257.222 L592.557 251.874 Q591.515 246.388 587.395 246.388 Q584.293 246.388 582.881 248.935 Q581.098 252.129 581.098 256.342 Q581.098 261.435 582.835 263.865 Q584.594 266.342 587.395 266.342 Q590.497 266.342 592.163 261.411 L593.575 257.222 M595.959 250.138 L598.251 243.356 L602.047 243.356 L597.302 257.407 L598.228 262.476 Q598.436 263.61 599.247 264.56 Q600.196 265.671 600.936 265.671 L602.973 265.671 L602.973 269.282 L600.427 269.282 Q598.251 269.282 596.307 267.337 Q595.358 266.365 594.964 264.328 Q593.899 266.897 591.723 268.911 Q590.705 269.86 587.395 269.86 Q581.955 269.86 579.316 266.342 Q576.608 262.708 576.608 256.342 Q576.608 249.536 579.548 246.342 Q582.811 242.777 587.395 242.777 Q594.594 242.777 595.959 250.138 Z" fill="#000000" fill-rule="nonzero" fill-opacity="1" /><path clip-path="url(#clip860)" d="M625.334 247.754 L655.01 247.754 L655.01 251.643 L625.334 251.643 L625.334 247.754 M625.334 257.198 L655.01 257.198 L655.01 261.134 L625.334 261.134 L625.334 257.198 Z" fill="#000000" fill-rule="nonzero" fill-opacity="1" /><path clip-path="url(#clip860)" d="M690.172 237.8 Q686.561 237.8 684.732 241.365 Q682.927 244.907 682.927 252.036 Q682.927 259.143 684.732 262.708 Q686.561 266.249 690.172 266.249 Q693.806 266.249 695.612 262.708 Q697.44 259.143 697.44 252.036 Q697.44 244.907 695.612 241.365 Q693.806 237.8 690.172 237.8 M690.172 234.097 Q695.982 234.097 699.038 238.703 Q702.116 243.286 702.116 252.036 Q702.116 260.763 699.038 265.37 Q695.982 269.953 690.172 269.953 Q684.362 269.953 681.283 265.37 Q678.228 260.763 678.228 252.036 Q678.228 243.286 681.283 238.703 Q684.362 234.097 690.172 234.097 Z" fill="#000000" fill-rule="nonzero" fill-opacity="1" /><path clip-path="url(#clip860)" d="M710.334 263.402 L715.218 263.402 L715.218 269.282 L710.334 269.282 L710.334 263.402 Z" fill="#000000" fill-rule="nonzero" fill-opacity="1" /><path clip-path="url(#clip860)" d="M739.57 250.648 Q742.926 251.365 744.801 253.634 Q746.699 255.902 746.699 259.235 Q746.699 264.351 743.181 267.152 Q739.662 269.953 733.181 269.953 Q731.005 269.953 728.69 269.513 Q726.399 269.097 723.945 268.24 L723.945 263.726 Q725.889 264.86 728.204 265.439 Q730.519 266.018 733.042 266.018 Q737.44 266.018 739.732 264.282 Q742.047 262.546 742.047 259.235 Q742.047 256.18 739.894 254.467 Q737.764 252.731 733.945 252.731 L729.917 252.731 L729.917 248.888 L734.13 248.888 Q737.579 248.888 739.408 247.523 Q741.236 246.134 741.236 243.541 Q741.236 240.879 739.338 239.467 Q737.463 238.032 733.945 238.032 Q732.024 238.032 729.825 238.449 Q727.625 238.865 724.987 239.745 L724.987 235.578 Q727.649 234.837 729.963 234.467 Q732.301 234.097 734.362 234.097 Q739.686 234.097 742.787 236.527 Q745.889 238.935 745.889 243.055 Q745.889 245.925 744.246 247.916 Q742.602 249.884 739.57 250.648 Z" fill="#000000" fill-rule="nonzero" fill-opacity="1" /></svg>
