<?xml version="1.0" encoding="utf-8"?>
<svg xmlns="http://www.w3.org/2000/svg" xmlns:xlink="http://www.w3.org/1999/xlink" width="800" height="600" viewBox="0 0 3200 2400">
<defs>
  <clipPath id="clip360">
    <rect x="0" y="0" width="3200" height="2400"/>
  </clipPath>
</defs>
<path clip-path="url(#clip360)" d="M0 2400 L3200 2400 L3200 0 L0 0  Z" fill="#ffffff" fill-rule="evenodd" fill-opacity="1"/>
<defs>
  <clipPath id="clip361">
    <rect x="189" y="131" width="2964" height="2075"/>
  </clipPath>
</defs>
<path clip-path="url(#clip360)" d="M442.143 2204.92 L3152.76 2204.92 L3152.76 131.032 L442.143 131.032  Z" fill="#ffffff" fill-rule="evenodd" fill-opacity="1"/>
<defs>
  <clipPath id="clip362">
    <rect x="442" y="131" width="2712" height="2075"/>
  </clipPath>
</defs>
<polyline clip-path="url(#clip362)" style="stroke:#000000; stroke-linecap:round; stroke-linejoin:round; stroke-width:2; stroke-opacity:0.1; fill:none" points="802.99,2204.92 802.99,131.032 "/>
<polyline clip-path="url(#clip362)" style="stroke:#000000; stroke-linecap:round; stroke-linejoin:round; stroke-width:2; stroke-opacity:0.1; fill:none" points="1371.25,2204.92 1371.25,131.032 "/>
<polyline clip-path="url(#clip362)" style="stroke:#000000; stroke-linecap:round; stroke-linejoin:round; stroke-width:2; stroke-opacity:0.1; fill:none" points="1939.52,2204.92 1939.52,131.032 "/>
<polyline clip-path="url(#clip362)" style="stroke:#000000; stroke-linecap:round; stroke-linejoin:round; stroke-width:2; stroke-opacity:0.1; fill:none" points="2507.78,2204.92 2507.78,131.032 "/>
<polyline clip-path="url(#clip362)" style="stroke:#000000; stroke-linecap:round; stroke-linejoin:round; stroke-width:2; stroke-opacity:0.1; fill:none" points="3076.04,2204.92 3076.04,131.032 "/>
<polyline clip-path="url(#clip362)" style="stroke:#000000; stroke-linecap:round; stroke-linejoin:round; stroke-width:2; stroke-opacity:0.1; fill:none" points="442.143,1955.78 3152.76,1955.78 "/>
<polyline clip-path="url(#clip362)" style="stroke:#000000; stroke-linecap:round; stroke-linejoin:round; stroke-width:2; stroke-opacity:0.1; fill:none" points="442.143,1389.83 3152.76,1389.83 "/>
<polyline clip-path="url(#clip362)" style="stroke:#000000; stroke-linecap:round; stroke-linejoin:round; stroke-width:2; stroke-opacity:0.1; fill:none" points="442.143,823.877 3152.76,823.877 "/>
<polyline clip-path="url(#clip362)" style="stroke:#000000; stroke-linecap:round; stroke-linejoin:round; stroke-width:2; stroke-opacity:0.1; fill:none" points="442.143,257.924 3152.76,257.924 "/>
<polyline clip-path="url(#clip360)" style="stroke:#000000; stroke-linecap:round; stroke-linejoin:round; stroke-width:4; stroke-opacity:1; fill:none" points="442.143,2204.92 3152.76,2204.92 "/>
<polyline clip-path="url(#clip360)" style="stroke:#000000; stroke-linecap:round; stroke-linejoin:round; stroke-width:4; stroke-opacity:1; fill:none" points="802.99,2204.92 802.99,2186.02 "/>
<polyline clip-path="url(#clip360)" style="stroke:#000000; stroke-linecap:round; stroke-linejoin:round; stroke-width:4; stroke-opacity:1; fill:none" points="1371.25,2204.92 1371.25,2186.02 "/>
<polyline clip-path="url(#clip360)" style="stroke:#000000; stroke-linecap:round; stroke-linejoin:round; stroke-width:4; stroke-opacity:1; fill:none" points="1939.52,2204.92 1939.52,2186.02 "/>
<polyline clip-path="url(#clip360)" style="stroke:#000000; stroke-linecap:round; stroke-linejoin:round; stroke-width:4; stroke-opacity:1; fill:none" points="2507.78,2204.92 2507.78,2186.02 "/>
<polyline clip-path="url(#clip360)" style="stroke:#000000; stroke-linecap:round; stroke-linejoin:round; stroke-width:4; stroke-opacity:1; fill:none" points="3076.04,2204.92 3076.04,2186.02 "/>
<path clip-path="url(#clip360)" d="M781.173 2242.24 Q777.562 2242.24 775.733 2245.8 Q773.927 2249.34 773.927 2256.47 Q773.927 2263.58 775.733 2267.15 Q777.562 2270.69 781.173 2270.69 Q784.807 2270.69 786.612 2267.15 Q788.441 2263.58 788.441 2256.47 Q788.441 2249.34 786.612 2245.8 Q784.807 2242.24 781.173 2242.24 M781.173 2238.53 Q786.983 2238.53 790.038 2243.14 Q793.117 2247.72 793.117 2256.47 Q793.117 2265.2 790.038 2269.81 Q786.983 2274.39 781.173 2274.39 Q775.362 2274.39 772.284 2269.81 Q769.228 2265.2 769.228 2256.47 Q769.228 2247.72 772.284 2243.14 Q775.362 2238.53 781.173 2238.53 Z" fill="#000000" fill-rule="nonzero" fill-opacity="1" /><path clip-path="url(#clip360)" d="M801.335 2267.84 L806.219 2267.84 L806.219 2273.72 L801.335 2273.72 L801.335 2267.84 Z" fill="#000000" fill-rule="nonzero" fill-opacity="1" /><path clip-path="url(#clip360)" d="M820.432 2269.78 L836.751 2269.78 L836.751 2273.72 L814.807 2273.72 L814.807 2269.78 Q817.469 2267.03 822.052 2262.4 Q826.658 2257.75 827.839 2256.41 Q830.084 2253.88 830.964 2252.15 Q831.867 2250.39 831.867 2248.7 Q831.867 2245.94 829.922 2244.21 Q828.001 2242.47 824.899 2242.47 Q822.7 2242.47 820.246 2243.23 Q817.816 2244 815.038 2245.55 L815.038 2240.83 Q817.862 2239.69 820.316 2239.11 Q822.77 2238.53 824.807 2238.53 Q830.177 2238.53 833.371 2241.22 Q836.566 2243.91 836.566 2248.4 Q836.566 2250.53 835.756 2252.45 Q834.969 2254.34 832.862 2256.94 Q832.283 2257.61 829.182 2260.83 Q826.08 2264.02 820.432 2269.78 Z" fill="#000000" fill-rule="nonzero" fill-opacity="1" /><path clip-path="url(#clip360)" d="M1348.39 2242.24 Q1344.78 2242.24 1342.95 2245.8 Q1341.15 2249.34 1341.15 2256.47 Q1341.15 2263.58 1342.95 2267.15 Q1344.78 2270.69 1348.39 2270.69 Q1352.03 2270.69 1353.83 2267.15 Q1355.66 2263.58 1355.66 2256.47 Q1355.66 2249.34 1353.83 2245.8 Q1352.03 2242.24 1348.39 2242.24 M1348.39 2238.53 Q1354.2 2238.53 1357.26 2243.14 Q1360.34 2247.72 1360.34 2256.47 Q1360.34 2265.2 1357.26 2269.81 Q1354.2 2274.39 1348.39 2274.39 Q1342.58 2274.39 1339.5 2269.81 Q1336.45 2265.2 1336.45 2256.47 Q1336.45 2247.72 1339.5 2243.14 Q1342.58 2238.53 1348.39 2238.53 Z" fill="#000000" fill-rule="nonzero" fill-opacity="1" /><path clip-path="url(#clip360)" d="M1368.56 2267.84 L1373.44 2267.84 L1373.44 2273.72 L1368.56 2273.72 L1368.56 2267.84 Z" fill="#000000" fill-rule="nonzero" fill-opacity="1" /><path clip-path="url(#clip360)" d="M1396.47 2243.23 L1384.67 2261.68 L1396.47 2261.68 L1396.47 2243.23 M1395.25 2239.16 L1401.12 2239.16 L1401.12 2261.68 L1406.06 2261.68 L1406.06 2265.57 L1401.12 2265.57 L1401.12 2273.72 L1396.47 2273.72 L1396.47 2265.57 L1380.87 2265.57 L1380.87 2261.06 L1395.25 2239.16 Z" fill="#000000" fill-rule="nonzero" fill-opacity="1" /><path clip-path="url(#clip360)" d="M1916.82 2242.24 Q1913.21 2242.24 1911.38 2245.8 Q1909.57 2249.34 1909.57 2256.47 Q1909.57 2263.58 1911.38 2267.15 Q1913.21 2270.69 1916.82 2270.69 Q1920.45 2270.69 1922.26 2267.15 Q1924.09 2263.58 1924.09 2256.47 Q1924.09 2249.34 1922.26 2245.8 Q1920.45 2242.24 1916.82 2242.24 M1916.82 2238.53 Q1922.63 2238.53 1925.68 2243.14 Q1928.76 2247.72 1928.76 2256.47 Q1928.76 2265.2 1925.68 2269.81 Q1922.63 2274.39 1916.82 2274.39 Q1911.01 2274.39 1907.93 2269.81 Q1904.87 2265.2 1904.87 2256.47 Q1904.87 2247.72 1907.93 2243.14 Q1911.01 2238.53 1916.82 2238.53 Z" fill="#000000" fill-rule="nonzero" fill-opacity="1" /><path clip-path="url(#clip360)" d="M1936.98 2267.84 L1941.86 2267.84 L1941.86 2273.72 L1936.98 2273.72 L1936.98 2267.84 Z" fill="#000000" fill-rule="nonzero" fill-opacity="1" /><path clip-path="url(#clip360)" d="M1962.63 2254.58 Q1959.48 2254.58 1957.63 2256.73 Q1955.8 2258.88 1955.8 2262.63 Q1955.8 2266.36 1957.63 2268.53 Q1959.48 2270.69 1962.63 2270.69 Q1965.78 2270.69 1967.61 2268.53 Q1969.46 2266.36 1969.46 2262.63 Q1969.46 2258.88 1967.61 2256.73 Q1965.78 2254.58 1962.63 2254.58 M1971.91 2239.92 L1971.91 2244.18 Q1970.15 2243.35 1968.35 2242.91 Q1966.56 2242.47 1964.8 2242.47 Q1960.17 2242.47 1957.72 2245.59 Q1955.29 2248.72 1954.94 2255.04 Q1956.31 2253.03 1958.37 2251.96 Q1960.43 2250.87 1962.91 2250.87 Q1968.11 2250.87 1971.12 2254.04 Q1974.16 2257.19 1974.16 2262.63 Q1974.16 2267.96 1971.01 2271.17 Q1967.86 2274.39 1962.63 2274.39 Q1956.63 2274.39 1953.46 2269.81 Q1950.29 2265.2 1950.29 2256.47 Q1950.29 2248.28 1954.18 2243.42 Q1958.07 2238.53 1964.62 2238.53 Q1966.38 2238.53 1968.16 2238.88 Q1969.97 2239.23 1971.91 2239.92 Z" fill="#000000" fill-rule="nonzero" fill-opacity="1" /><path clip-path="url(#clip360)" d="M2485.21 2242.24 Q2481.6 2242.24 2479.77 2245.8 Q2477.96 2249.34 2477.96 2256.47 Q2477.96 2263.58 2479.77 2267.15 Q2481.6 2270.69 2485.21 2270.69 Q2488.84 2270.69 2490.65 2267.15 Q2492.48 2263.58 2492.48 2256.47 Q2492.48 2249.34 2490.65 2245.8 Q2488.84 2242.24 2485.21 2242.24 M2485.21 2238.53 Q2491.02 2238.53 2494.07 2243.14 Q2497.15 2247.72 2497.15 2256.47 Q2497.15 2265.2 2494.07 2269.81 Q2491.02 2274.39 2485.21 2274.39 Q2479.4 2274.39 2476.32 2269.81 Q2473.26 2265.2 2473.26 2256.47 Q2473.26 2247.72 2476.32 2243.14 Q2479.4 2238.53 2485.21 2238.53 Z" fill="#000000" fill-rule="nonzero" fill-opacity="1" /><path clip-path="url(#clip360)" d="M2505.37 2267.84 L2510.25 2267.84 L2510.25 2273.72 L2505.37 2273.72 L2505.37 2267.84 Z" fill="#000000" fill-rule="nonzero" fill-opacity="1" /><path clip-path="url(#clip360)" d="M2530.44 2257.31 Q2527.11 2257.31 2525.19 2259.09 Q2523.29 2260.87 2523.29 2264 Q2523.29 2267.12 2525.19 2268.91 Q2527.11 2270.69 2530.44 2270.69 Q2533.77 2270.69 2535.69 2268.91 Q2537.62 2267.1 2537.62 2264 Q2537.62 2260.87 2535.69 2259.09 Q2533.8 2257.31 2530.44 2257.31 M2525.76 2255.32 Q2522.75 2254.58 2521.06 2252.52 Q2519.4 2250.46 2519.4 2247.49 Q2519.4 2243.35 2522.34 2240.94 Q2525.3 2238.53 2530.44 2238.53 Q2535.6 2238.53 2538.54 2240.94 Q2541.48 2243.35 2541.48 2247.49 Q2541.48 2250.46 2539.79 2252.52 Q2538.12 2254.58 2535.14 2255.32 Q2538.52 2256.1 2540.39 2258.4 Q2542.29 2260.69 2542.29 2264 Q2542.29 2269.02 2539.21 2271.71 Q2536.16 2274.39 2530.44 2274.39 Q2524.72 2274.39 2521.64 2271.71 Q2518.59 2269.02 2518.59 2264 Q2518.59 2260.69 2520.49 2258.4 Q2522.38 2256.1 2525.76 2255.32 M2524.05 2247.93 Q2524.05 2250.62 2525.72 2252.12 Q2527.41 2253.63 2530.44 2253.63 Q2533.45 2253.63 2535.14 2252.12 Q2536.85 2250.62 2536.85 2247.93 Q2536.85 2245.25 2535.14 2243.74 Q2533.45 2242.24 2530.44 2242.24 Q2527.41 2242.24 2525.72 2243.74 Q2524.05 2245.25 2524.05 2247.93 Z" fill="#000000" fill-rule="nonzero" fill-opacity="1" /><path clip-path="url(#clip360)" d="M3043.19 2269.78 L3050.83 2269.78 L3050.83 2243.42 L3042.52 2245.09 L3042.52 2240.83 L3050.79 2239.16 L3055.46 2239.16 L3055.46 2269.78 L3063.1 2269.78 L3063.1 2273.72 L3043.19 2273.72 L3043.19 2269.78 Z" fill="#000000" fill-rule="nonzero" fill-opacity="1" /><path clip-path="url(#clip360)" d="M3072.55 2267.84 L3077.43 2267.84 L3077.43 2273.72 L3072.55 2273.72 L3072.55 2267.84 Z" fill="#000000" fill-rule="nonzero" fill-opacity="1" /><path clip-path="url(#clip360)" d="M3097.61 2242.24 Q3094 2242.24 3092.17 2245.8 Q3090.37 2249.34 3090.37 2256.47 Q3090.37 2263.58 3092.17 2267.15 Q3094 2270.69 3097.61 2270.69 Q3101.25 2270.69 3103.05 2267.15 Q3104.88 2263.58 3104.88 2256.47 Q3104.88 2249.34 3103.05 2245.8 Q3101.25 2242.24 3097.61 2242.24 M3097.61 2238.53 Q3103.42 2238.53 3106.48 2243.14 Q3109.56 2247.72 3109.56 2256.47 Q3109.56 2265.2 3106.48 2269.81 Q3103.42 2274.39 3097.61 2274.39 Q3091.8 2274.39 3088.73 2269.81 Q3085.67 2265.2 3085.67 2256.47 Q3085.67 2247.72 3088.73 2243.14 Q3091.8 2238.53 3097.61 2238.53 Z" fill="#000000" fill-rule="nonzero" fill-opacity="1" /><path clip-path="url(#clip360)" d="M1529.96 2317.92 L1529.96 2324.7 Q1526.72 2321.68 1523.02 2320.18 Q1519.36 2318.69 1515.23 2318.69 Q1507.08 2318.69 1502.75 2323.69 Q1498.42 2328.65 1498.42 2338.07 Q1498.42 2347.46 1502.75 2352.46 Q1507.08 2357.42 1515.23 2357.42 Q1519.36 2357.42 1523.02 2355.93 Q1526.72 2354.43 1529.96 2351.41 L1529.96 2358.12 Q1526.59 2360.42 1522.8 2361.56 Q1519.05 2362.71 1514.84 2362.71 Q1504.05 2362.71 1497.85 2356.12 Q1491.64 2349.5 1491.64 2338.07 Q1491.64 2326.61 1497.85 2320.02 Q1504.05 2313.4 1514.84 2313.4 Q1519.11 2313.4 1522.86 2314.55 Q1526.65 2315.66 1529.96 2317.92 Z" fill="#000000" fill-rule="nonzero" fill-opacity="1" /><path clip-path="url(#clip360)" d="M1539.42 2326.14 L1545.24 2326.14 L1545.24 2342.88 L1561.76 2326.14 L1568.95 2326.14 L1555.33 2339.92 L1570.7 2361.78 L1564.15 2361.78 L1551.51 2343.8 L1545.24 2350.17 L1545.24 2361.78 L1539.42 2361.78 L1539.42 2326.14 Z" fill="#000000" fill-rule="nonzero" fill-opacity="1" /><path clip-path="url(#clip360)" d="M1592.82 2330.24 Q1588.11 2330.24 1585.38 2333.93 Q1582.64 2337.59 1582.64 2343.99 Q1582.64 2350.39 1585.34 2354.08 Q1588.08 2357.74 1592.82 2357.74 Q1597.5 2357.74 1600.24 2354.05 Q1602.98 2350.36 1602.98 2343.99 Q1602.98 2337.66 1600.24 2333.97 Q1597.5 2330.24 1592.82 2330.24 M1592.82 2325.28 Q1600.46 2325.28 1604.82 2330.24 Q1609.18 2335.21 1609.18 2343.99 Q1609.18 2352.74 1604.82 2357.74 Q1600.46 2362.71 1592.82 2362.71 Q1585.15 2362.71 1580.79 2357.74 Q1576.46 2352.74 1576.46 2343.99 Q1576.46 2335.21 1580.79 2330.24 Q1585.15 2325.28 1592.82 2325.28 Z" fill="#000000" fill-rule="nonzero" fill-opacity="1" /><path clip-path="url(#clip360)" d="M1624.56 2356.44 L1624.56 2375.34 L1618.67 2375.34 L1618.67 2326.14 L1624.56 2326.14 L1624.56 2331.55 Q1626.4 2328.36 1629.2 2326.84 Q1632.04 2325.28 1635.95 2325.28 Q1642.44 2325.28 1646.49 2330.43 Q1650.56 2335.59 1650.56 2343.99 Q1650.56 2352.39 1646.49 2357.55 Q1642.44 2362.71 1635.95 2362.71 Q1632.04 2362.71 1629.2 2361.18 Q1626.4 2359.62 1624.56 2356.44 M1644.48 2343.99 Q1644.48 2337.53 1641.81 2333.87 Q1639.17 2330.18 1634.52 2330.18 Q1629.87 2330.18 1627.2 2333.87 Q1624.56 2337.53 1624.56 2343.99 Q1624.56 2350.45 1627.2 2354.14 Q1629.87 2357.81 1634.52 2357.81 Q1639.17 2357.81 1641.81 2354.14 Q1644.48 2350.45 1644.48 2343.99 Z" fill="#000000" fill-rule="nonzero" fill-opacity="1" /><path clip-path="url(#clip360)" d="M1674.08 2330.24 Q1669.37 2330.24 1666.63 2333.93 Q1663.9 2337.59 1663.9 2343.99 Q1663.9 2350.39 1666.6 2354.08 Q1669.34 2357.74 1674.08 2357.74 Q1678.76 2357.74 1681.5 2354.05 Q1684.24 2350.36 1684.24 2343.99 Q1684.24 2337.66 1681.5 2333.97 Q1678.76 2330.24 1674.08 2330.24 M1674.08 2325.28 Q1681.72 2325.28 1686.08 2330.24 Q1690.44 2335.21 1690.44 2343.99 Q1690.44 2352.74 1686.08 2357.74 Q1681.72 2362.71 1674.08 2362.71 Q1666.41 2362.71 1662.05 2357.74 Q1657.72 2352.74 1657.72 2343.99 Q1657.72 2335.21 1662.05 2330.24 Q1666.41 2325.28 1674.08 2325.28 Z" fill="#000000" fill-rule="nonzero" fill-opacity="1" /><path clip-path="url(#clip360)" d="M1725.8 2327.5 L1725.8 2332.98 Q1723.32 2331.61 1720.81 2330.94 Q1718.32 2330.24 1715.78 2330.24 Q1710.08 2330.24 1706.93 2333.87 Q1703.78 2337.47 1703.78 2343.99 Q1703.78 2350.52 1706.93 2354.14 Q1710.08 2357.74 1715.78 2357.74 Q1718.32 2357.74 1720.81 2357.07 Q1723.32 2356.37 1725.8 2355 L1725.8 2360.42 Q1723.35 2361.56 1720.71 2362.13 Q1718.1 2362.71 1715.14 2362.71 Q1707.09 2362.71 1702.35 2357.65 Q1697.6 2352.59 1697.6 2343.99 Q1697.6 2335.27 1702.38 2330.27 Q1707.18 2325.28 1715.52 2325.28 Q1718.23 2325.28 1720.81 2325.85 Q1723.38 2326.39 1725.8 2327.5 Z" fill="#000000" fill-rule="nonzero" fill-opacity="1" /><path clip-path="url(#clip360)" d="M1731.76 2326.14 L1765.91 2326.14 L1765.91 2330.81 L1751.71 2330.81 L1751.71 2361.78 L1745.95 2361.78 L1745.95 2330.81 L1731.76 2330.81 L1731.76 2326.14 Z" fill="#000000" fill-rule="nonzero" fill-opacity="1" /><path clip-path="url(#clip360)" d="M1796.14 2351.22 Q1796.14 2348.35 1794.04 2346.86 Q1791.97 2345.36 1787.96 2345.36 L1779.63 2345.36 L1779.63 2357.11 L1787.96 2357.11 Q1791.97 2357.11 1794.04 2355.61 Q1796.14 2354.08 1796.14 2351.22 M1773.74 2326.14 L1779.63 2326.14 L1779.63 2340.68 L1788.22 2340.68 Q1795.03 2340.68 1798.69 2343.29 Q1802.38 2345.87 1802.38 2351.22 Q1802.38 2356.56 1798.69 2359.17 Q1795.03 2361.78 1788.22 2361.78 L1773.74 2361.78 L1773.74 2326.14 Z" fill="#000000" fill-rule="nonzero" fill-opacity="1" /><path clip-path="url(#clip360)" d="M1838.76 2356.44 L1838.76 2375.34 L1832.87 2375.34 L1832.87 2326.14 L1838.76 2326.14 L1838.76 2331.55 Q1840.61 2328.36 1843.41 2326.84 Q1846.24 2325.28 1850.16 2325.28 Q1856.65 2325.28 1860.69 2330.43 Q1864.77 2335.59 1864.77 2343.99 Q1864.77 2352.39 1860.69 2357.55 Q1856.65 2362.71 1850.16 2362.71 Q1846.24 2362.71 1843.41 2361.18 Q1840.61 2359.62 1838.76 2356.44 M1858.69 2343.99 Q1858.69 2337.53 1856.01 2333.87 Q1853.37 2330.18 1848.73 2330.18 Q1844.08 2330.18 1841.4 2333.87 Q1838.76 2337.53 1838.76 2343.99 Q1838.76 2350.45 1841.4 2354.14 Q1844.08 2357.81 1848.73 2357.81 Q1853.37 2357.81 1856.01 2354.14 Q1858.69 2350.45 1858.69 2343.99 Z" fill="#000000" fill-rule="nonzero" fill-opacity="1" /><path clip-path="url(#clip360)" d="M1888.29 2330.24 Q1883.58 2330.24 1880.84 2333.93 Q1878.1 2337.59 1878.1 2343.99 Q1878.1 2350.39 1880.81 2354.08 Q1883.55 2357.74 1888.29 2357.74 Q1892.97 2357.74 1895.7 2354.05 Q1898.44 2350.36 1898.44 2343.99 Q1898.44 2337.66 1895.7 2333.97 Q1892.97 2330.24 1888.29 2330.24 M1888.29 2325.28 Q1895.93 2325.28 1900.29 2330.24 Q1904.65 2335.21 1904.65 2343.99 Q1904.65 2352.74 1900.29 2357.74 Q1895.93 2362.71 1888.29 2362.71 Q1880.62 2362.71 1876.26 2357.74 Q1871.93 2352.74 1871.93 2343.99 Q1871.93 2335.21 1876.26 2330.24 Q1880.62 2325.28 1888.29 2325.28 Z" fill="#000000" fill-rule="nonzero" fill-opacity="1" /><path clip-path="url(#clip360)" d="M1940.01 2327.5 L1940.01 2332.98 Q1937.53 2331.61 1935.01 2330.94 Q1932.53 2330.24 1929.98 2330.24 Q1924.29 2330.24 1921.14 2333.87 Q1917.98 2337.47 1917.98 2343.99 Q1917.98 2350.52 1921.14 2354.14 Q1924.29 2357.74 1929.98 2357.74 Q1932.53 2357.74 1935.01 2357.07 Q1937.53 2356.37 1940.01 2355 L1940.01 2360.42 Q1937.56 2361.56 1934.92 2362.13 Q1932.31 2362.71 1929.35 2362.71 Q1921.29 2362.71 1916.55 2357.65 Q1911.81 2352.59 1911.81 2343.99 Q1911.81 2335.27 1916.58 2330.27 Q1921.39 2325.28 1929.73 2325.28 Q1932.43 2325.28 1935.01 2325.85 Q1937.59 2326.39 1940.01 2327.5 Z" fill="#000000" fill-rule="nonzero" fill-opacity="1" /><path clip-path="url(#clip360)" d="M1945.96 2326.14 L1980.11 2326.14 L1980.11 2330.81 L1965.92 2330.81 L1965.92 2361.78 L1960.16 2361.78 L1960.16 2330.81 L1945.96 2330.81 L1945.96 2326.14 Z" fill="#000000" fill-rule="nonzero" fill-opacity="1" /><path clip-path="url(#clip360)" d="M2004.37 2343.86 Q1997.27 2343.86 1994.53 2345.49 Q1991.79 2347.11 1991.79 2351.03 Q1991.79 2354.14 1993.83 2355.99 Q1995.9 2357.81 1999.43 2357.81 Q2004.3 2357.81 2007.23 2354.37 Q2010.19 2350.9 2010.19 2345.17 L2010.19 2343.86 L2004.37 2343.86 M2016.05 2341.45 L2016.05 2361.78 L2010.19 2361.78 L2010.19 2356.37 Q2008.19 2359.62 2005.19 2361.18 Q2002.2 2362.71 1997.87 2362.71 Q1992.4 2362.71 1989.15 2359.65 Q1985.94 2356.56 1985.94 2351.41 Q1985.94 2345.39 1989.95 2342.34 Q1993.99 2339.28 2001.98 2339.28 L2010.19 2339.28 L2010.19 2338.71 Q2010.19 2334.67 2007.52 2332.47 Q2004.88 2330.24 2000.07 2330.24 Q1997.01 2330.24 1994.12 2330.97 Q1991.22 2331.71 1988.55 2333.17 L1988.55 2327.76 Q1991.76 2326.52 1994.79 2325.91 Q1997.81 2325.28 2000.67 2325.28 Q2008.41 2325.28 2012.23 2329.29 Q2016.05 2333.3 2016.05 2341.45 Z" fill="#000000" fill-rule="nonzero" fill-opacity="1" /><path clip-path="url(#clip360)" d="M2029.61 2353.7 L2036.32 2353.7 L2036.32 2359.17 L2031.1 2369.36 L2027 2369.36 L2029.61 2359.17 L2029.61 2353.7 Z" fill="#000000" fill-rule="nonzero" fill-opacity="1" /><path clip-path="url(#clip360)" d="M2090.34 2345.2 L2088.94 2337.85 Q2087.5 2330.31 2081.84 2330.31 Q2077.57 2330.31 2075.63 2333.81 Q2073.18 2338.2 2073.18 2343.99 Q2073.18 2350.99 2075.57 2354.34 Q2077.99 2357.74 2081.84 2357.74 Q2086.1 2357.74 2088.39 2350.96 L2090.34 2345.2 M2093.61 2335.46 L2096.76 2326.14 L2101.98 2326.14 L2095.46 2345.46 L2096.73 2352.43 Q2097.02 2353.99 2098.13 2355.29 Q2099.44 2356.82 2100.46 2356.82 L2103.26 2356.82 L2103.26 2361.78 L2099.76 2361.78 Q2096.76 2361.78 2094.09 2359.11 Q2092.79 2357.77 2092.25 2354.97 Q2090.78 2358.51 2087.79 2361.27 Q2086.39 2362.58 2081.84 2362.58 Q2074.36 2362.58 2070.73 2357.74 Q2067.01 2352.74 2067.01 2343.99 Q2067.01 2334.63 2071.05 2330.24 Q2075.54 2325.34 2081.84 2325.34 Q2091.74 2325.34 2093.61 2335.46 Z" fill="#000000" fill-rule="nonzero" fill-opacity="1" /><polyline clip-path="url(#clip360)" style="stroke:#000000; stroke-linecap:round; stroke-linejoin:round; stroke-width:4; stroke-opacity:1; fill:none" points="442.143,2204.92 442.143,131.032 "/>
<polyline clip-path="url(#clip360)" style="stroke:#000000; stroke-linecap:round; stroke-linejoin:round; stroke-width:4; stroke-opacity:1; fill:none" points="442.143,1955.78 461.04,1955.78 "/>
<polyline clip-path="url(#clip360)" style="stroke:#000000; stroke-linecap:round; stroke-linejoin:round; stroke-width:4; stroke-opacity:1; fill:none" points="442.143,1389.83 461.04,1389.83 "/>
<polyline clip-path="url(#clip360)" style="stroke:#000000; stroke-linecap:round; stroke-linejoin:round; stroke-width:4; stroke-opacity:1; fill:none" points="442.143,823.877 461.04,823.877 "/>
<polyline clip-path="url(#clip360)" style="stroke:#000000; stroke-linecap:round; stroke-linejoin:round; stroke-width:4; stroke-opacity:1; fill:none" points="442.143,257.924 461.04,257.924 "/>
<path clip-path="url(#clip360)" d="M116.871 1975.57 L124.51 1975.57 L124.51 1949.21 L116.2 1950.88 L116.2 1946.62 L124.464 1944.95 L129.14 1944.95 L129.14 1975.57 L136.779 1975.57 L136.779 1979.51 L116.871 1979.51 L116.871 1975.57 Z" fill="#000000" fill-rule="nonzero" fill-opacity="1" /><path clip-path="url(#clip360)" d="M146.223 1973.63 L151.107 1973.63 L151.107 1979.51 L146.223 1979.51 L146.223 1973.63 Z" fill="#000000" fill-rule="nonzero" fill-opacity="1" /><path clip-path="url(#clip360)" d="M171.292 1948.03 Q167.681 1948.03 165.853 1951.59 Q164.047 1955.13 164.047 1962.26 Q164.047 1969.37 165.853 1972.94 Q167.681 1976.48 171.292 1976.48 Q174.927 1976.48 176.732 1972.94 Q178.561 1969.37 178.561 1962.26 Q178.561 1955.13 176.732 1951.59 Q174.927 1948.03 171.292 1948.03 M171.292 1944.32 Q177.103 1944.32 180.158 1948.93 Q183.237 1953.51 183.237 1962.26 Q183.237 1970.99 180.158 1975.6 Q177.103 1980.18 171.292 1980.18 Q165.482 1980.18 162.404 1975.6 Q159.348 1970.99 159.348 1962.26 Q159.348 1953.51 162.404 1948.93 Q165.482 1944.32 171.292 1944.32 Z" fill="#000000" fill-rule="nonzero" fill-opacity="1" /><path clip-path="url(#clip360)" d="M191.593 1978.79 L191.593 1974.53 Q193.353 1975.37 195.158 1975.81 Q196.964 1976.25 198.7 1976.25 Q203.329 1976.25 205.76 1973.14 Q208.214 1970.02 208.561 1963.68 Q207.218 1965.67 205.158 1966.73 Q203.098 1967.8 200.598 1967.8 Q195.413 1967.8 192.38 1964.67 Q189.371 1961.52 189.371 1956.08 Q189.371 1950.76 192.519 1947.54 Q195.667 1944.32 200.899 1944.32 Q206.894 1944.32 210.042 1948.93 Q213.214 1953.51 213.214 1962.26 Q213.214 1970.44 209.325 1975.32 Q205.459 1980.18 198.908 1980.18 Q197.149 1980.18 195.343 1979.83 Q193.538 1979.49 191.593 1978.79 M200.899 1964.14 Q204.047 1964.14 205.876 1961.99 Q207.727 1959.83 207.727 1956.08 Q207.727 1952.36 205.876 1950.2 Q204.047 1948.03 200.899 1948.03 Q197.751 1948.03 195.899 1950.2 Q194.07 1952.36 194.07 1956.08 Q194.07 1959.83 195.899 1961.99 Q197.751 1964.14 200.899 1964.14 Z" fill="#000000" fill-rule="nonzero" fill-opacity="1" /><path clip-path="url(#clip360)" d="M231.616 1948.03 Q228.005 1948.03 226.176 1951.59 Q224.371 1955.13 224.371 1962.26 Q224.371 1969.37 226.176 1972.94 Q228.005 1976.48 231.616 1976.48 Q235.25 1976.48 237.056 1972.94 Q238.885 1969.37 238.885 1962.26 Q238.885 1955.13 237.056 1951.59 Q235.25 1948.03 231.616 1948.03 M231.616 1944.32 Q237.426 1944.32 240.482 1948.93 Q243.561 1953.51 243.561 1962.26 Q243.561 1970.99 240.482 1975.6 Q237.426 1980.18 231.616 1980.18 Q225.806 1980.18 222.727 1975.6 Q219.672 1970.99 219.672 1962.26 Q219.672 1953.51 222.727 1948.93 Q225.806 1944.32 231.616 1944.32 Z" fill="#000000" fill-rule="nonzero" fill-opacity="1" /><path clip-path="url(#clip360)" d="M279.949 1954.05 L269.371 1964.67 L279.949 1975.25 L277.195 1978.05 L266.57 1967.43 L255.945 1978.05 L253.213 1975.25 L263.769 1964.67 L253.213 1954.05 L255.945 1951.25 L266.57 1961.87 L277.195 1951.25 L279.949 1954.05 Z" fill="#000000" fill-rule="nonzero" fill-opacity="1" /><path clip-path="url(#clip360)" d="M292.31 1975.57 L299.949 1975.57 L299.949 1949.21 L291.639 1950.88 L291.639 1946.62 L299.903 1944.95 L304.579 1944.95 L304.579 1975.57 L312.218 1975.57 L312.218 1979.51 L292.31 1979.51 L292.31 1975.57 Z" fill="#000000" fill-rule="nonzero" fill-opacity="1" /><path clip-path="url(#clip360)" d="M331.662 1948.03 Q328.051 1948.03 326.222 1951.59 Q324.417 1955.13 324.417 1962.26 Q324.417 1969.37 326.222 1972.94 Q328.051 1976.48 331.662 1976.48 Q335.296 1976.48 337.102 1972.94 Q338.93 1969.37 338.93 1962.26 Q338.93 1955.13 337.102 1951.59 Q335.296 1948.03 331.662 1948.03 M331.662 1944.32 Q337.472 1944.32 340.528 1948.93 Q343.606 1953.51 343.606 1962.26 Q343.606 1970.99 340.528 1975.6 Q337.472 1980.18 331.662 1980.18 Q325.852 1980.18 322.773 1975.6 Q319.718 1970.99 319.718 1962.26 Q319.718 1953.51 322.773 1948.93 Q325.852 1944.32 331.662 1944.32 Z" fill="#000000" fill-rule="nonzero" fill-opacity="1" /><path clip-path="url(#clip360)" d="M343.606 1938.43 L367.718 1938.43 L367.718 1941.62 L343.606 1941.62 L343.606 1938.43 Z" fill="#000000" fill-rule="nonzero" fill-opacity="1" /><path clip-path="url(#clip360)" d="M386.356 1927.33 L376.764 1942.32 L386.356 1942.32 L386.356 1927.33 M385.36 1924.02 L390.137 1924.02 L390.137 1942.32 L394.143 1942.32 L394.143 1945.48 L390.137 1945.48 L390.137 1952.1 L386.356 1952.1 L386.356 1945.48 L373.68 1945.48 L373.68 1941.81 L385.36 1924.02 Z" fill="#000000" fill-rule="nonzero" fill-opacity="1" /><path clip-path="url(#clip360)" d="M116.871 1409.62 L124.51 1409.62 L124.51 1383.26 L116.2 1384.92 L116.2 1380.66 L124.464 1379 L129.14 1379 L129.14 1409.62 L136.779 1409.62 L136.779 1413.56 L116.871 1413.56 L116.871 1409.62 Z" fill="#000000" fill-rule="nonzero" fill-opacity="1" /><path clip-path="url(#clip360)" d="M146.223 1407.68 L151.107 1407.68 L151.107 1413.56 L146.223 1413.56 L146.223 1407.68 Z" fill="#000000" fill-rule="nonzero" fill-opacity="1" /><path clip-path="url(#clip360)" d="M162.103 1409.62 L169.742 1409.62 L169.742 1383.26 L161.431 1384.92 L161.431 1380.66 L169.695 1379 L174.371 1379 L174.371 1409.62 L182.01 1409.62 L182.01 1413.56 L162.103 1413.56 L162.103 1409.62 Z" fill="#000000" fill-rule="nonzero" fill-opacity="1" /><path clip-path="url(#clip360)" d="M201.454 1382.08 Q197.843 1382.08 196.015 1385.64 Q194.209 1389.18 194.209 1396.31 Q194.209 1403.42 196.015 1406.98 Q197.843 1410.52 201.454 1410.52 Q205.089 1410.52 206.894 1406.98 Q208.723 1403.42 208.723 1396.31 Q208.723 1389.18 206.894 1385.64 Q205.089 1382.08 201.454 1382.08 M201.454 1378.37 Q207.264 1378.37 210.32 1382.98 Q213.399 1387.56 213.399 1396.31 Q213.399 1405.04 210.32 1409.64 Q207.264 1414.23 201.454 1414.23 Q195.644 1414.23 192.565 1409.64 Q189.51 1405.04 189.51 1396.31 Q189.51 1387.56 192.565 1382.98 Q195.644 1378.37 201.454 1378.37 Z" fill="#000000" fill-rule="nonzero" fill-opacity="1" /><path clip-path="url(#clip360)" d="M231.616 1382.08 Q228.005 1382.08 226.176 1385.64 Q224.371 1389.18 224.371 1396.31 Q224.371 1403.42 226.176 1406.98 Q228.005 1410.52 231.616 1410.52 Q235.25 1410.52 237.056 1406.98 Q238.885 1403.42 238.885 1396.31 Q238.885 1389.18 237.056 1385.64 Q235.25 1382.08 231.616 1382.08 M231.616 1378.37 Q237.426 1378.37 240.482 1382.98 Q243.561 1387.56 243.561 1396.31 Q243.561 1405.04 240.482 1409.64 Q237.426 1414.23 231.616 1414.23 Q225.806 1414.23 222.727 1409.64 Q219.672 1405.04 219.672 1396.31 Q219.672 1387.56 222.727 1382.98 Q225.806 1378.37 231.616 1378.37 Z" fill="#000000" fill-rule="nonzero" fill-opacity="1" /><path clip-path="url(#clip360)" d="M279.949 1388.09 L269.371 1398.72 L279.949 1409.3 L277.195 1412.1 L266.57 1401.47 L255.945 1412.1 L253.213 1409.3 L263.769 1398.72 L253.213 1388.09 L255.945 1385.29 L266.57 1395.92 L277.195 1385.29 L279.949 1388.09 Z" fill="#000000" fill-rule="nonzero" fill-opacity="1" /><path clip-path="url(#clip360)" d="M292.31 1409.62 L299.949 1409.62 L299.949 1383.26 L291.639 1384.92 L291.639 1380.66 L299.903 1379 L304.579 1379 L304.579 1409.62 L312.218 1409.62 L312.218 1413.56 L292.31 1413.56 L292.31 1409.62 Z" fill="#000000" fill-rule="nonzero" fill-opacity="1" /><path clip-path="url(#clip360)" d="M331.662 1382.08 Q328.051 1382.08 326.222 1385.64 Q324.417 1389.18 324.417 1396.31 Q324.417 1403.42 326.222 1406.98 Q328.051 1410.52 331.662 1410.52 Q335.296 1410.52 337.102 1406.98 Q338.93 1403.42 338.93 1396.31 Q338.93 1389.18 337.102 1385.64 Q335.296 1382.08 331.662 1382.08 M331.662 1378.37 Q337.472 1378.37 340.528 1382.98 Q343.606 1387.56 343.606 1396.31 Q343.606 1405.04 340.528 1409.64 Q337.472 1414.23 331.662 1414.23 Q325.852 1414.23 322.773 1409.64 Q319.718 1405.04 319.718 1396.31 Q319.718 1387.56 322.773 1382.98 Q325.852 1378.37 331.662 1378.37 Z" fill="#000000" fill-rule="nonzero" fill-opacity="1" /><path clip-path="url(#clip360)" d="M343.606 1372.47 L367.718 1372.47 L367.718 1375.67 L343.606 1375.67 L343.606 1372.47 Z" fill="#000000" fill-rule="nonzero" fill-opacity="1" /><path clip-path="url(#clip360)" d="M386.356 1361.38 L376.764 1376.37 L386.356 1376.37 L386.356 1361.38 M385.36 1358.07 L390.137 1358.07 L390.137 1376.37 L394.143 1376.37 L394.143 1379.53 L390.137 1379.53 L390.137 1386.15 L386.356 1386.15 L386.356 1379.53 L373.68 1379.53 L373.68 1375.86 L385.36 1358.07 Z" fill="#000000" fill-rule="nonzero" fill-opacity="1" /><path clip-path="url(#clip360)" d="M116.871 843.669 L124.51 843.669 L124.51 817.304 L116.2 818.97 L116.2 814.711 L124.464 813.044 L129.14 813.044 L129.14 843.669 L136.779 843.669 L136.779 847.604 L116.871 847.604 L116.871 843.669 Z" fill="#000000" fill-rule="nonzero" fill-opacity="1" /><path clip-path="url(#clip360)" d="M146.223 841.725 L151.107 841.725 L151.107 847.604 L146.223 847.604 L146.223 841.725 Z" fill="#000000" fill-rule="nonzero" fill-opacity="1" /><path clip-path="url(#clip360)" d="M162.103 843.669 L169.742 843.669 L169.742 817.304 L161.431 818.97 L161.431 814.711 L169.695 813.044 L174.371 813.044 L174.371 843.669 L182.01 843.669 L182.01 847.604 L162.103 847.604 L162.103 843.669 Z" fill="#000000" fill-rule="nonzero" fill-opacity="1" /><path clip-path="url(#clip360)" d="M192.265 843.669 L199.903 843.669 L199.903 817.304 L191.593 818.97 L191.593 814.711 L199.857 813.044 L204.533 813.044 L204.533 843.669 L212.172 843.669 L212.172 847.604 L192.265 847.604 L192.265 843.669 Z" fill="#000000" fill-rule="nonzero" fill-opacity="1" /><path clip-path="url(#clip360)" d="M231.616 816.123 Q228.005 816.123 226.176 819.688 Q224.371 823.23 224.371 830.359 Q224.371 837.466 226.176 841.03 Q228.005 844.572 231.616 844.572 Q235.25 844.572 237.056 841.03 Q238.885 837.466 238.885 830.359 Q238.885 823.23 237.056 819.688 Q235.25 816.123 231.616 816.123 M231.616 812.419 Q237.426 812.419 240.482 817.026 Q243.561 821.609 243.561 830.359 Q243.561 839.086 240.482 843.692 Q237.426 848.276 231.616 848.276 Q225.806 848.276 222.727 843.692 Q219.672 839.086 219.672 830.359 Q219.672 821.609 222.727 817.026 Q225.806 812.419 231.616 812.419 Z" fill="#000000" fill-rule="nonzero" fill-opacity="1" /><path clip-path="url(#clip360)" d="M279.949 822.142 L269.371 832.767 L279.949 843.345 L277.195 846.146 L266.57 835.521 L255.945 846.146 L253.213 843.345 L263.769 832.767 L253.213 822.142 L255.945 819.341 L266.57 829.966 L277.195 819.341 L279.949 822.142 Z" fill="#000000" fill-rule="nonzero" fill-opacity="1" /><path clip-path="url(#clip360)" d="M292.31 843.669 L299.949 843.669 L299.949 817.304 L291.639 818.97 L291.639 814.711 L299.903 813.044 L304.579 813.044 L304.579 843.669 L312.218 843.669 L312.218 847.604 L292.31 847.604 L292.31 843.669 Z" fill="#000000" fill-rule="nonzero" fill-opacity="1" /><path clip-path="url(#clip360)" d="M331.662 816.123 Q328.051 816.123 326.222 819.688 Q324.417 823.23 324.417 830.359 Q324.417 837.466 326.222 841.03 Q328.051 844.572 331.662 844.572 Q335.296 844.572 337.102 841.03 Q338.93 837.466 338.93 830.359 Q338.93 823.23 337.102 819.688 Q335.296 816.123 331.662 816.123 M331.662 812.419 Q337.472 812.419 340.528 817.026 Q343.606 821.609 343.606 830.359 Q343.606 839.086 340.528 843.692 Q337.472 848.276 331.662 848.276 Q325.852 848.276 322.773 843.692 Q319.718 839.086 319.718 830.359 Q319.718 821.609 322.773 817.026 Q325.852 812.419 331.662 812.419 Z" fill="#000000" fill-rule="nonzero" fill-opacity="1" /><path clip-path="url(#clip360)" d="M343.606 806.521 L367.718 806.521 L367.718 809.718 L343.606 809.718 L343.606 806.521 Z" fill="#000000" fill-rule="nonzero" fill-opacity="1" /><path clip-path="url(#clip360)" d="M386.356 795.424 L376.764 810.414 L386.356 810.414 L386.356 795.424 M385.36 792.114 L390.137 792.114 L390.137 810.414 L394.143 810.414 L394.143 813.574 L390.137 813.574 L390.137 820.194 L386.356 820.194 L386.356 813.574 L373.68 813.574 L373.68 809.906 L385.36 792.114 Z" fill="#000000" fill-rule="nonzero" fill-opacity="1" /><path clip-path="url(#clip360)" d="M116.871 277.717 L124.51 277.717 L124.51 251.351 L116.2 253.018 L116.2 248.759 L124.464 247.092 L129.14 247.092 L129.14 277.717 L136.779 277.717 L136.779 281.652 L116.871 281.652 L116.871 277.717 Z" fill="#000000" fill-rule="nonzero" fill-opacity="1" /><path clip-path="url(#clip360)" d="M146.223 275.772 L151.107 275.772 L151.107 281.652 L146.223 281.652 L146.223 275.772 Z" fill="#000000" fill-rule="nonzero" fill-opacity="1" /><path clip-path="url(#clip360)" d="M162.103 277.717 L169.742 277.717 L169.742 251.351 L161.431 253.018 L161.431 248.759 L169.695 247.092 L174.371 247.092 L174.371 277.717 L182.01 277.717 L182.01 281.652 L162.103 281.652 L162.103 277.717 Z" fill="#000000" fill-rule="nonzero" fill-opacity="1" /><path clip-path="url(#clip360)" d="M195.482 277.717 L211.801 277.717 L211.801 281.652 L189.857 281.652 L189.857 277.717 Q192.519 274.962 197.103 270.333 Q201.709 265.68 202.89 264.337 Q205.135 261.814 206.014 260.078 Q206.917 258.319 206.917 256.629 Q206.917 253.874 204.973 252.138 Q203.052 250.402 199.95 250.402 Q197.751 250.402 195.297 251.166 Q192.866 251.93 190.089 253.481 L190.089 248.759 Q192.913 247.624 195.366 247.046 Q197.82 246.467 199.857 246.467 Q205.227 246.467 208.422 249.152 Q211.616 251.837 211.616 256.328 Q211.616 258.458 210.806 260.379 Q210.019 262.277 207.913 264.87 Q207.334 265.541 204.232 268.758 Q201.13 271.953 195.482 277.717 Z" fill="#000000" fill-rule="nonzero" fill-opacity="1" /><path clip-path="url(#clip360)" d="M231.616 250.171 Q228.005 250.171 226.176 253.735 Q224.371 257.277 224.371 264.407 Q224.371 271.513 226.176 275.078 Q228.005 278.62 231.616 278.62 Q235.25 278.62 237.056 275.078 Q238.885 271.513 238.885 264.407 Q238.885 257.277 237.056 253.735 Q235.25 250.171 231.616 250.171 M231.616 246.467 Q237.426 246.467 240.482 251.073 Q243.561 255.657 243.561 264.407 Q243.561 273.133 240.482 277.74 Q237.426 282.323 231.616 282.323 Q225.806 282.323 222.727 277.74 Q219.672 273.133 219.672 264.407 Q219.672 255.657 222.727 251.073 Q225.806 246.467 231.616 246.467 Z" fill="#000000" fill-rule="nonzero" fill-opacity="1" /><path clip-path="url(#clip360)" d="M279.949 256.189 L269.371 266.814 L279.949 277.393 L277.195 280.194 L266.57 269.569 L255.945 280.194 L253.213 277.393 L263.769 266.814 L253.213 256.189 L255.945 253.388 L266.57 264.013 L277.195 253.388 L279.949 256.189 Z" fill="#000000" fill-rule="nonzero" fill-opacity="1" /><path clip-path="url(#clip360)" d="M292.31 277.717 L299.949 277.717 L299.949 251.351 L291.639 253.018 L291.639 248.759 L299.903 247.092 L304.579 247.092 L304.579 277.717 L312.218 277.717 L312.218 281.652 L292.31 281.652 L292.31 277.717 Z" fill="#000000" fill-rule="nonzero" fill-opacity="1" /><path clip-path="url(#clip360)" d="M331.662 250.171 Q328.051 250.171 326.222 253.735 Q324.417 257.277 324.417 264.407 Q324.417 271.513 326.222 275.078 Q328.051 278.62 331.662 278.62 Q335.296 278.62 337.102 275.078 Q338.93 271.513 338.93 264.407 Q338.93 257.277 337.102 253.735 Q335.296 250.171 331.662 250.171 M331.662 246.467 Q337.472 246.467 340.528 251.073 Q343.606 255.657 343.606 264.407 Q343.606 273.133 340.528 277.74 Q337.472 282.323 331.662 282.323 Q325.852 282.323 322.773 277.74 Q319.718 273.133 319.718 264.407 Q319.718 255.657 322.773 251.073 Q325.852 246.467 331.662 246.467 Z" fill="#000000" fill-rule="nonzero" fill-opacity="1" /><path clip-path="url(#clip360)" d="M343.606 240.568 L367.718 240.568 L367.718 243.766 L343.606 243.766 L343.606 240.568 Z" fill="#000000" fill-rule="nonzero" fill-opacity="1" /><path clip-path="url(#clip360)" d="M386.356 229.472 L376.764 244.461 L386.356 244.461 L386.356 229.472 M385.36 226.162 L390.137 226.162 L390.137 244.461 L394.143 244.461 L394.143 247.621 L390.137 247.621 L390.137 254.242 L386.356 254.242 L386.356 247.621 L373.68 247.621 L373.68 243.954 L385.36 226.162 Z" fill="#000000" fill-rule="nonzero" fill-opacity="1" /><path clip-path="url(#clip360)" d="M31.2504 1559.58 L48.6606 1559.58 L48.6606 1549.27 Q48.6606 1544.08 46.5281 1541.6 Q44.3638 1539.08 39.9396 1539.08 Q35.4836 1539.08 33.3829 1541.6 Q31.2504 1544.08 31.2504 1549.27 L31.2504 1559.58 M11.7077 1559.58 L26.0305 1559.58 L26.0305 1550.06 Q26.0305 1545.35 24.28 1543.06 Q22.4976 1540.74 18.8691 1540.74 Q15.2725 1540.74 13.4901 1543.06 Q11.7077 1545.35 11.7077 1550.06 L11.7077 1559.58 M6.42416 1566.01 L6.42416 1549.58 Q6.42416 1542.23 9.4797 1538.25 Q12.5352 1534.27 18.1689 1534.27 Q22.5294 1534.27 25.1075 1536.31 Q27.6856 1538.35 28.3222 1542.3 Q29.3407 1537.55 32.5872 1534.94 Q35.8019 1532.3 40.6398 1532.3 Q47.0055 1532.3 50.4748 1536.63 Q53.9442 1540.96 53.9442 1548.95 L53.9442 1566.01 L6.42416 1566.01 Z" fill="#000000" fill-rule="nonzero" fill-opacity="1" /><path clip-path="url(#clip360)" d="M48.597 1515.88 L67.5031 1515.88 L67.5031 1521.77 L18.2962 1521.77 L18.2962 1515.88 L23.7071 1515.88 Q20.5242 1514.03 18.9964 1511.23 Q17.4368 1508.4 17.4368 1504.48 Q17.4368 1497.99 22.5931 1493.95 Q27.7493 1489.87 36.152 1489.87 Q44.5547 1489.87 49.711 1493.95 Q54.8672 1497.99 54.8672 1504.48 Q54.8672 1508.4 53.3394 1511.23 Q51.7798 1514.03 48.597 1515.88 M36.152 1495.95 Q29.6908 1495.95 26.0305 1498.63 Q22.3384 1501.27 22.3384 1505.92 Q22.3384 1510.56 26.0305 1513.24 Q29.6908 1515.88 36.152 1515.88 Q42.6132 1515.88 46.3053 1513.24 Q49.9656 1510.56 49.9656 1505.92 Q49.9656 1501.27 46.3053 1498.63 Q42.6132 1495.95 36.152 1495.95 Z" fill="#000000" fill-rule="nonzero" fill-opacity="1" /><path clip-path="url(#clip360)" d="M34.6561 1449.67 L37.5206 1449.67 L37.5206 1476.6 Q43.5681 1476.22 46.7509 1472.97 Q49.9019 1469.69 49.9019 1463.87 Q49.9019 1460.5 49.0744 1457.35 Q48.2469 1454.16 46.5918 1451.04 L52.1299 1451.04 Q53.4667 1454.19 54.167 1457.5 Q54.8672 1460.81 54.8672 1464.22 Q54.8672 1472.75 49.9019 1477.75 Q44.9367 1482.71 36.4703 1482.71 Q27.7174 1482.71 22.5931 1478 Q17.4368 1473.26 17.4368 1465.24 Q17.4368 1458.05 22.0838 1453.88 Q26.6989 1449.67 34.6561 1449.67 M32.9373 1455.53 Q28.1312 1455.59 25.2666 1458.24 Q22.4021 1460.85 22.4021 1465.17 Q22.4021 1470.08 25.1712 1473.04 Q27.9402 1475.96 32.9692 1476.41 L32.9373 1455.53 Z" fill="#000000" fill-rule="nonzero" fill-opacity="1" /><path clip-path="url(#clip360)" d="M18.2962 1440.28 L18.2962 1431.72 L42.1676 1421.6 L18.2962 1411.45 L18.2962 1402.95 L53.9442 1402.95 L53.9442 1408.84 L23.898 1408.84 L47.101 1418.67 L47.101 1424.53 L23.898 1434.4 L53.9442 1434.4 L53.9442 1440.28 L18.2962 1440.28 Z" fill="#000000" fill-rule="nonzero" fill-opacity="1" /><path clip-path="url(#clip360)" d="M28.5768 1385 Q31.2186 1385 32.7145 1382.96 Q34.2105 1380.92 34.2105 1377.14 L34.2105 1369.24 L22.975 1369.24 L22.975 1377.14 Q22.975 1380.92 24.4391 1382.96 Q25.9032 1385 28.5768 1385 M53.9442 1393.34 L38.3163 1382.45 Q37.4888 1386.14 35.3245 1388.6 Q33.1283 1391.05 28.5768 1391.05 Q23.4206 1391.05 20.8743 1387.64 Q18.2962 1384.2 18.2962 1377.3 L18.2962 1363.36 L53.9442 1363.36 L53.9442 1369.24 L38.8893 1369.24 L38.8893 1376.53 L53.9442 1387.04 L53.9442 1393.34 Z" fill="#000000" fill-rule="nonzero" fill-opacity="1" /><path clip-path="url(#clip360)" d="M37.5206 1325.32 L49.2654 1325.32 L49.2654 1316.98 Q49.2654 1312.97 47.7694 1310.87 Q46.2417 1308.77 43.3771 1308.77 Q40.5125 1308.77 39.0166 1310.87 Q37.5206 1312.97 37.5206 1316.98 L37.5206 1325.32 M22.975 1325.32 L32.8418 1325.32 L32.8418 1317.62 Q32.8418 1314.31 31.5369 1312.21 Q30.2001 1310.11 27.8448 1310.11 Q25.4894 1310.11 24.2481 1312.21 Q22.975 1314.31 22.975 1317.62 L22.975 1325.32 M18.2962 1331.18 L18.2962 1317.24 Q18.2962 1310.97 20.5879 1307.59 Q22.8795 1304.22 27.1127 1304.22 Q30.391 1304.22 32.3326 1305.94 Q34.2423 1307.66 34.7197 1311.03 Q35.4836 1306.99 37.9026 1304.76 Q40.3215 1302.53 43.95 1302.53 Q48.7243 1302.53 51.3342 1306.22 Q53.9442 1309.88 53.9442 1316.69 L53.9442 1331.18 L18.2962 1331.18 Z" fill="#000000" fill-rule="nonzero" fill-opacity="1" /><path clip-path="url(#clip360)" d="M18.2962 1258.86 L18.2962 1253.01 L53.9442 1253.01 L53.9442 1258.86 L18.2962 1258.86 M17.4368 1255.93 L17.4368 1255.93 M43.3771 1270.35 Q40.5125 1270.35 39.0166 1272.45 Q37.5206 1274.52 37.5206 1278.53 L37.5206 1286.87 L49.2654 1286.87 L49.2654 1278.53 Q49.2654 1274.52 47.7694 1272.45 Q46.2417 1270.35 43.3771 1270.35 M18.2962 1292.76 L18.2962 1286.87 L32.8418 1286.87 L32.8418 1278.28 Q32.8418 1271.47 35.4518 1267.81 Q38.0299 1264.11 43.3771 1264.11 Q48.7243 1264.11 51.3342 1267.81 Q53.9442 1271.47 53.9442 1278.28 L53.9442 1292.76 L18.2962 1292.76 Z" fill="#000000" fill-rule="nonzero" fill-opacity="1" /><path clip-path="url(#clip360)" d="M53.9442 1220.48 L38.9529 1220.48 L38.9529 1231.39 Q38.9529 1236.26 35.9292 1239.51 Q33.192 1242.44 27.3355 1242.44 L18.2962 1242.44 L18.2962 1236.58 L26.7944 1236.58 Q30.5184 1236.58 32.3962 1234.93 Q34.2741 1233.24 34.2741 1229.93 L34.2741 1220.48 L18.2962 1220.48 L18.2962 1214.62 L53.9442 1214.62 L53.9442 1220.48 Z" fill="#000000" fill-rule="nonzero" fill-opacity="1" /><path clip-path="url(#clip360)" d="M18.2962 1172.26 L53.9442 1172.26 L53.9442 1178.08 L25.3303 1178.08 L53.9442 1195.27 L53.9442 1202.78 L18.2962 1202.78 L18.2962 1196.96 L46.8464 1196.96 L18.2962 1179.8 L18.2962 1172.26 Z" fill="#000000" fill-rule="nonzero" fill-opacity="1" /><path clip-path="url(#clip360)" d="M19.6648 1134.54 L25.1393 1134.54 Q23.7707 1137.02 23.1023 1139.54 Q22.4021 1142.02 22.4021 1144.57 Q22.4021 1150.26 26.0305 1153.41 Q29.6272 1156.57 36.152 1156.57 Q42.6769 1156.57 46.3053 1153.41 Q49.9019 1150.26 49.9019 1144.57 Q49.9019 1142.02 49.2335 1139.54 Q48.5333 1137.02 47.1647 1134.54 L52.5755 1134.54 Q53.7214 1136.99 54.2943 1139.63 Q54.8672 1142.24 54.8672 1145.2 Q54.8672 1153.26 49.8064 1158 Q44.7457 1162.74 36.152 1162.74 Q27.431 1162.74 22.4339 1157.97 Q17.4368 1153.16 17.4368 1144.82 Q17.4368 1142.12 18.0097 1139.54 Q18.5508 1136.96 19.6648 1134.54 Z" fill="#000000" fill-rule="nonzero" fill-opacity="1" /><path clip-path="url(#clip360)" d="M53.9442 1128.08 L49.0744 1128.08 Q48.1832 1122.29 44.1728 1120.5 Q38.5391 1118.34 24.1208 1118.34 L18.2962 1118.34 L18.2962 1094.25 L53.9442 1094.25 L53.9442 1100.1 L22.975 1100.1 L22.975 1112.48 L26.508 1112.48 Q40.2579 1112.48 46.4326 1115.28 Q53.0211 1118.28 53.9442 1128.08 Z" fill="#000000" fill-rule="nonzero" fill-opacity="1" /><path clip-path="url(#clip360)" d="M34.6561 1052.2 L37.5206 1052.2 L37.5206 1079.13 Q43.5681 1078.74 46.7509 1075.5 Q49.9019 1072.22 49.9019 1066.4 Q49.9019 1063.02 49.0744 1059.87 Q48.2469 1056.69 46.5918 1053.57 L52.1299 1053.57 Q53.4667 1056.72 54.167 1060.03 Q54.8672 1063.34 54.8672 1066.75 Q54.8672 1075.28 49.9019 1080.27 Q44.9367 1085.24 36.4703 1085.24 Q27.7174 1085.24 22.5931 1080.53 Q17.4368 1075.78 17.4368 1067.76 Q17.4368 1060.57 22.0838 1056.4 Q26.6989 1052.2 34.6561 1052.2 M32.9373 1058.06 Q28.1312 1058.12 25.2666 1060.76 Q22.4021 1063.37 22.4021 1067.7 Q22.4021 1072.6 25.1712 1075.56 Q27.9402 1078.49 32.9692 1078.94 L32.9373 1058.06 Z" fill="#000000" fill-rule="nonzero" fill-opacity="1" /><path clip-path="url(#clip360)" d="M18.2962 1042.81 L18.2962 1036.92 L32.8418 1036.92 L32.8418 1017.92 L18.2962 1017.92 L18.2962 1012.03 L53.9442 1012.03 L53.9442 1017.92 L37.5206 1017.92 L37.5206 1036.92 L53.9442 1036.92 L53.9442 1042.81 L18.2962 1042.81 Z" fill="#000000" fill-rule="nonzero" fill-opacity="1" /><path clip-path="url(#clip360)" d="M18.2962 969.668 L53.9442 969.668 L53.9442 975.493 L25.3303 975.493 L53.9442 992.68 L53.9442 1000.19 L18.2962 1000.19 L18.2962 994.367 L46.8464 994.367 L18.2962 977.212 L18.2962 969.668 Z" fill="#000000" fill-rule="nonzero" fill-opacity="1" /><path clip-path="url(#clip360)" d="M28.5768 951.717 Q31.2186 951.717 32.7145 949.68 Q34.2105 947.643 34.2105 943.855 L34.2105 935.962 L22.975 935.962 L22.975 943.855 Q22.975 947.643 24.4391 949.68 Q25.9032 951.717 28.5768 951.717 M53.9442 960.056 L38.3163 949.171 Q37.4888 952.863 35.3245 955.314 Q33.1283 957.764 28.5768 957.764 Q23.4206 957.764 20.8743 954.359 Q18.2962 950.921 18.2962 944.015 L18.2962 930.074 L53.9442 930.074 L53.9442 935.962 L38.8893 935.962 L38.8893 943.251 L53.9442 953.754 L53.9442 960.056 Z" fill="#000000" fill-rule="nonzero" fill-opacity="1" /><path clip-path="url(#clip360)" d="M45.8597 916.897 L45.8597 910.181 L51.3342 910.181 L61.5193 915.401 L61.5193 919.507 L51.3342 916.897 L45.8597 916.897 Z" fill="#000000" fill-rule="nonzero" fill-opacity="1" /><path clip-path="url(#clip360)" d="M19.6648 851.298 L25.1393 851.298 Q23.7707 853.781 23.1023 856.295 Q22.4021 858.778 22.4021 861.324 Q22.4021 867.021 26.0305 870.172 Q29.6272 873.323 36.152 873.323 Q42.6769 873.323 46.3053 870.172 Q49.9019 867.021 49.9019 861.324 Q49.9019 858.778 49.2335 856.295 Q48.5333 853.781 47.1647 851.298 L52.5755 851.298 Q53.7214 853.749 54.2943 856.391 Q54.8672 859 54.8672 861.961 Q54.8672 870.013 49.8064 874.756 Q44.7457 879.498 36.152 879.498 Q27.431 879.498 22.4339 874.724 Q17.4368 869.918 17.4368 861.579 Q17.4368 858.873 18.0097 856.295 Q18.5508 853.717 19.6648 851.298 Z" fill="#000000" fill-rule="nonzero" fill-opacity="1" /><path clip-path="url(#clip360)" d="M34.6561 810.621 L37.5206 810.621 L37.5206 837.548 Q43.5681 837.166 46.7509 833.92 Q49.9019 830.641 49.9019 824.817 Q49.9019 821.443 49.0744 818.292 Q48.2469 815.109 46.5918 811.99 L52.1299 811.99 Q53.4667 815.141 54.167 818.451 Q54.8672 821.761 54.8672 825.167 Q54.8672 833.697 49.9019 838.694 Q44.9367 843.659 36.4703 843.659 Q27.7174 843.659 22.5931 838.949 Q17.4368 834.206 17.4368 826.185 Q17.4368 818.992 22.0838 814.822 Q26.6989 810.621 34.6561 810.621 M32.9373 816.478 Q28.1312 816.541 25.2666 819.183 Q22.4021 821.793 22.4021 826.122 Q22.4021 831.023 25.1712 833.983 Q27.9402 836.911 32.9692 837.357 L32.9373 816.478 Z" fill="#000000" fill-rule="nonzero" fill-opacity="1" /><path clip-path="url(#clip360)" d="M18.2962 801.232 L18.2962 795.407 L35.038 795.407 L18.2962 778.888 L18.2962 771.695 L32.078 785.317 L53.9442 769.944 L53.9442 776.501 L35.961 789.137 L42.3267 795.407 L53.9442 795.407 L53.9442 801.232 L18.2962 801.232 Z" fill="#000000" fill-rule="nonzero" fill-opacity="1" /><path clip-path="url(#clip360)" d="M959.763 11.0023 Q969.728 11.0023 976.048 15.2557 Q982.367 19.4686 982.367 26.6793 Q982.367 31.7024 979.491 35.1862 Q976.615 38.6294 971.308 39.9662 Q977.182 41.222 980.463 45.1919 Q983.785 49.1618 983.785 54.9951 Q983.785 64.3122 976.574 69.0517 Q969.404 73.7508 959.763 73.7508 Q954.821 73.7508 949.068 72.414 Q943.316 71.0772 941.534 69.9429 L941.534 61.517 Q947.732 65.1223 951.134 66.0135 Q954.578 66.8642 959.601 66.8642 Q967.217 66.8642 971.429 63.9476 Q975.642 61.0309 975.642 54.9951 Q975.642 49.6479 971.875 46.6502 Q968.148 43.612 960.249 43.612 L951.985 43.612 L951.985 36.8875 L960.573 36.8875 Q967.824 36.8875 971.024 34.4975 Q974.225 32.067 974.225 27.5299 Q974.225 22.8714 970.903 20.4004 Q967.622 17.8888 959.601 17.8888 Q954.173 17.8888 952.309 18.3749 Q950.446 18.861 942.141 21.9802 L942.141 13.9999 Q946.719 12.3796 951.499 11.6909 Q956.279 11.0023 959.763 11.0023 Z" fill="#000000" fill-rule="nonzero" fill-opacity="1" /><path clip-path="url(#clip360)" d="M1017.69 49.7694 Q1008.66 49.7694 1005.17 51.8354 Q1001.69 53.9013 1001.69 58.8839 Q1001.69 62.8538 1004.28 65.2034 Q1006.92 67.5124 1011.41 67.5124 Q1017.61 67.5124 1021.34 63.1374 Q1025.1 58.7219 1025.1 51.4303 L1025.1 49.7694 L1017.69 49.7694 M1032.56 46.6907 L1032.56 72.576 L1025.1 72.576 L1025.1 65.6895 Q1022.55 69.8214 1018.74 71.8063 Q1014.94 73.7508 1009.43 73.7508 Q1002.46 73.7508 998.327 69.8619 Q994.236 65.9325 994.236 59.3701 Q994.236 51.7138 999.34 47.825 Q1004.48 43.9361 1014.65 43.9361 L1025.1 43.9361 L1025.1 43.2069 Q1025.1 38.0623 1021.7 35.2672 Q1018.34 32.4315 1012.22 32.4315 Q1008.33 32.4315 1004.65 33.3632 Q1000.96 34.295 997.558 36.1584 L997.558 29.2718 Q1001.65 27.692 1005.5 26.9223 Q1009.35 26.1121 1012.99 26.1121 Q1022.84 26.1121 1027.7 31.2163 Q1032.56 36.3204 1032.56 46.6907 Z" fill="#000000" fill-rule="nonzero" fill-opacity="1" /><path clip-path="url(#clip360)" d="M1055.08 51.6733 L1055.08 66.6212 L1065.69 66.6212 Q1070.8 66.6212 1073.47 64.7172 Q1076.15 62.7728 1076.15 59.127 Q1076.15 55.4812 1073.47 53.5773 Q1070.8 51.6733 1065.69 51.6733 L1055.08 51.6733 M1055.08 33.1607 L1055.08 45.7185 L1064.88 45.7185 Q1069.1 45.7185 1071.77 44.0576 Q1074.44 42.3563 1074.44 39.3586 Q1074.44 36.3609 1071.77 34.7811 Q1069.1 33.1607 1064.88 33.1607 L1055.08 33.1607 M1047.63 27.2059 L1065.37 27.2059 Q1073.35 27.2059 1077.64 30.1225 Q1081.94 33.0392 1081.94 38.4269 Q1081.94 42.5993 1079.75 45.0704 Q1077.56 47.5009 1073.27 48.1085 Q1078.41 49.0808 1081.25 52.1594 Q1084.09 55.2381 1084.09 59.8562 Q1084.09 65.9325 1079.39 69.2543 Q1074.73 72.576 1066.06 72.576 L1047.63 72.576 L1047.63 27.2059 Z" fill="#000000" fill-rule="nonzero" fill-opacity="1" /><path clip-path="url(#clip360)" d="M1135.37 27.2059 L1135.37 72.576 L1127.96 72.576 L1127.96 36.1584 L1106.08 72.576 L1096.52 72.576 L1096.52 27.2059 L1103.93 27.2059 L1103.93 63.5425 L1125.77 27.2059 L1135.37 27.2059 Z" fill="#000000" fill-rule="nonzero" fill-opacity="1" /><path clip-path="url(#clip360)" d="M1183.37 28.9478 L1183.37 35.9153 Q1180.21 34.1734 1177.01 33.3227 Q1173.85 32.4315 1170.61 32.4315 Q1163.36 32.4315 1159.35 37.0496 Q1155.34 41.6271 1155.34 49.9314 Q1155.34 58.2358 1159.35 62.8538 Q1163.36 67.4314 1170.61 67.4314 Q1173.85 67.4314 1177.01 66.5807 Q1180.21 65.6895 1183.37 63.9476 L1183.37 70.8341 Q1180.25 72.2924 1176.89 73.0216 Q1173.57 73.7508 1169.8 73.7508 Q1159.55 73.7508 1153.52 67.3098 Q1147.48 60.8689 1147.48 49.9314 Q1147.48 38.832 1153.56 32.472 Q1159.68 26.1121 1170.29 26.1121 Q1173.73 26.1121 1177.01 26.8413 Q1180.29 27.5299 1183.37 28.9478 Z" fill="#000000" fill-rule="nonzero" fill-opacity="1" /><path clip-path="url(#clip360)" d="M1234.9 27.2059 L1234.9 72.576 L1227.49 72.576 L1227.49 36.1584 L1205.61 72.576 L1196.05 72.576 L1196.05 27.2059 L1203.47 27.2059 L1203.47 63.5425 L1225.3 27.2059 L1234.9 27.2059 Z" fill="#000000" fill-rule="nonzero" fill-opacity="1" /><path clip-path="url(#clip360)" d="M1249.97 27.2059 L1260.87 27.2059 L1273.75 57.5877 L1286.67 27.2059 L1297.49 27.2059 L1297.49 72.576 L1289.99 72.576 L1289.99 34.3355 L1277.48 63.8666 L1270.02 63.8666 L1257.46 34.3355 L1257.46 72.576 L1249.97 72.576 L1249.97 27.2059 Z" fill="#000000" fill-rule="nonzero" fill-opacity="1" /><path clip-path="url(#clip360)" d="M1330.42 32.4315 Q1324.43 32.4315 1320.94 37.1306 Q1317.46 41.7891 1317.46 49.9314 Q1317.46 58.0738 1320.9 62.7728 Q1324.38 67.4314 1330.42 67.4314 Q1336.38 67.4314 1339.86 62.7323 Q1343.34 58.0333 1343.34 49.9314 Q1343.34 41.8701 1339.86 37.1711 Q1336.38 32.4315 1330.42 32.4315 M1330.42 26.1121 Q1340.14 26.1121 1345.69 32.4315 Q1351.24 38.7509 1351.24 49.9314 Q1351.24 61.0714 1345.69 67.4314 Q1340.14 73.7508 1330.42 73.7508 Q1320.66 73.7508 1315.11 67.4314 Q1309.6 61.0714 1309.6 49.9314 Q1309.6 38.7509 1315.11 32.4315 Q1320.66 26.1121 1330.42 26.1121 Z" fill="#000000" fill-rule="nonzero" fill-opacity="1" /><path clip-path="url(#clip360)" d="M1396.25 28.9478 L1396.25 35.9153 Q1393.09 34.1734 1389.89 33.3227 Q1386.73 32.4315 1383.49 32.4315 Q1376.24 32.4315 1372.23 37.0496 Q1368.22 41.6271 1368.22 49.9314 Q1368.22 58.2358 1372.23 62.8538 Q1376.24 67.4314 1383.49 67.4314 Q1386.73 67.4314 1389.89 66.5807 Q1393.09 65.6895 1396.25 63.9476 L1396.25 70.8341 Q1393.13 72.2924 1389.77 73.0216 Q1386.44 73.7508 1382.68 73.7508 Q1372.43 73.7508 1366.39 67.3098 Q1360.36 60.8689 1360.36 49.9314 Q1360.36 38.832 1366.43 32.472 Q1372.55 26.1121 1383.16 26.1121 Q1386.61 26.1121 1389.89 26.8413 Q1393.17 27.5299 1396.25 28.9478 Z" fill="#000000" fill-rule="nonzero" fill-opacity="1" /><path clip-path="url(#clip360)" d="M1403.82 27.2059 L1447.29 27.2059 L1447.29 33.1607 L1429.22 33.1607 L1429.22 72.576 L1421.89 72.576 L1421.89 33.1607 L1403.82 33.1607 L1403.82 27.2059 Z" fill="#000000" fill-rule="nonzero" fill-opacity="1" /><path clip-path="url(#clip360)" d="M1485.77 59.127 Q1485.77 55.4812 1483.1 53.5773 Q1480.47 51.6733 1475.36 51.6733 L1464.75 51.6733 L1464.75 66.6212 L1475.36 66.6212 Q1480.47 66.6212 1483.1 64.7172 Q1485.77 62.7728 1485.77 59.127 M1457.25 27.2059 L1464.75 27.2059 L1464.75 45.7185 L1475.69 45.7185 Q1484.35 45.7185 1489.01 49.0402 Q1493.71 52.3215 1493.71 59.127 Q1493.71 65.9325 1489.01 69.2543 Q1484.35 72.576 1475.69 72.576 L1457.25 72.576 L1457.25 27.2059 Z" fill="#000000" fill-rule="nonzero" fill-opacity="1" /><path clip-path="url(#clip360)" d="M1539.97 51.6733 L1539.97 66.6212 L1550.59 66.6212 Q1555.69 66.6212 1558.36 64.7172 Q1561.04 62.7728 1561.04 59.127 Q1561.04 55.4812 1558.36 53.5773 Q1555.69 51.6733 1550.59 51.6733 L1539.97 51.6733 M1539.97 33.1607 L1539.97 45.7185 L1549.78 45.7185 Q1553.99 45.7185 1556.66 44.0576 Q1559.34 42.3563 1559.34 39.3586 Q1559.34 36.3609 1556.66 34.7811 Q1553.99 33.1607 1549.78 33.1607 L1539.97 33.1607 M1532.52 27.2059 L1550.26 27.2059 Q1558.24 27.2059 1562.54 30.1225 Q1566.83 33.0392 1566.83 38.4269 Q1566.83 42.5993 1564.64 45.0704 Q1562.46 47.5009 1558.16 48.1085 Q1563.31 49.0808 1566.14 52.1594 Q1568.98 55.2381 1568.98 59.8562 Q1568.98 65.9325 1564.28 69.2543 Q1559.62 72.576 1550.95 72.576 L1532.52 72.576 L1532.52 27.2059 Z" fill="#000000" fill-rule="nonzero" fill-opacity="1" /><path clip-path="url(#clip360)" d="M1588.91 65.7705 L1588.91 89.8329 L1581.41 89.8329 L1581.41 27.2059 L1588.91 27.2059 L1588.91 34.0924 Q1591.26 30.0415 1594.82 28.0971 Q1598.43 26.1121 1603.41 26.1121 Q1611.67 26.1121 1616.82 32.6746 Q1622 39.2371 1622 49.9314 Q1622 60.6258 1616.82 67.1883 Q1611.67 73.7508 1603.41 73.7508 Q1598.43 73.7508 1594.82 71.8063 Q1591.26 69.8214 1588.91 65.7705 M1614.27 49.9314 Q1614.27 41.7081 1610.86 37.0496 Q1607.5 32.3505 1601.59 32.3505 Q1595.67 32.3505 1592.27 37.0496 Q1588.91 41.7081 1588.91 49.9314 Q1588.91 58.1548 1592.27 62.8538 Q1595.67 67.5124 1601.59 67.5124 Q1607.5 67.5124 1610.86 62.8538 Q1614.27 58.1548 1614.27 49.9314 Z" fill="#000000" fill-rule="nonzero" fill-opacity="1" /><path clip-path="url(#clip360)" d="M1673.17 48.0275 L1673.17 51.6733 L1638.9 51.6733 Q1639.38 59.3701 1643.52 63.421 Q1647.69 67.4314 1655.1 67.4314 Q1659.39 67.4314 1663.4 66.3781 Q1667.46 65.3249 1671.43 63.2184 L1671.43 70.267 Q1667.42 71.9684 1663.2 72.8596 Q1658.99 73.7508 1654.65 73.7508 Q1643.8 73.7508 1637.44 67.4314 Q1631.12 61.1119 1631.12 50.3365 Q1631.12 39.1965 1637.11 32.6746 Q1643.15 26.1121 1653.36 26.1121 Q1662.51 26.1121 1667.82 32.0264 Q1673.17 37.9003 1673.17 48.0275 M1665.71 45.84 Q1665.63 39.7232 1662.27 36.0774 Q1658.95 32.4315 1653.44 32.4315 Q1647.2 32.4315 1643.43 35.9558 Q1639.71 39.4801 1639.14 45.8805 L1665.71 45.84 Z" fill="#000000" fill-rule="nonzero" fill-opacity="1" /><path clip-path="url(#clip360)" d="M1685.12 27.2059 L1696.01 27.2059 L1708.9 57.5877 L1721.82 27.2059 L1732.63 27.2059 L1732.63 72.576 L1725.14 72.576 L1725.14 34.3355 L1712.62 63.8666 L1705.17 63.8666 L1692.61 34.3355 L1692.61 72.576 L1685.12 72.576 L1685.12 27.2059 Z" fill="#000000" fill-rule="nonzero" fill-opacity="1" /><path clip-path="url(#clip360)" d="M1786.8 48.0275 L1786.8 51.6733 L1752.52 51.6733 Q1753.01 59.3701 1757.14 63.421 Q1761.32 67.4314 1768.73 67.4314 Q1773.02 67.4314 1777.03 66.3781 Q1781.08 65.3249 1785.05 63.2184 L1785.05 70.267 Q1781.04 71.9684 1776.83 72.8596 Q1772.62 73.7508 1768.28 73.7508 Q1757.43 73.7508 1751.07 67.4314 Q1744.75 61.1119 1744.75 50.3365 Q1744.75 39.1965 1750.74 32.6746 Q1756.78 26.1121 1766.99 26.1121 Q1776.14 26.1121 1781.45 32.0264 Q1786.8 37.9003 1786.8 48.0275 M1779.34 45.84 Q1779.26 39.7232 1775.9 36.0774 Q1772.58 32.4315 1767.07 32.4315 Q1760.83 32.4315 1757.06 35.9558 Q1753.34 39.4801 1752.77 45.8805 L1779.34 45.84 Z" fill="#000000" fill-rule="nonzero" fill-opacity="1" /><path clip-path="url(#clip360)" d="M1798.75 27.2059 L1806.24 27.2059 L1806.24 45.7185 L1830.42 45.7185 L1830.42 27.2059 L1837.92 27.2059 L1837.92 72.576 L1830.42 72.576 L1830.42 51.6733 L1806.24 51.6733 L1806.24 72.576 L1798.75 72.576 L1798.75 27.2059 Z" fill="#000000" fill-rule="nonzero" fill-opacity="1" /><path clip-path="url(#clip360)" d="M1891.84 27.2059 L1891.84 72.576 L1884.42 72.576 L1884.42 36.1584 L1862.55 72.576 L1852.99 72.576 L1852.99 27.2059 L1860.4 27.2059 L1860.4 63.5425 L1882.23 27.2059 L1891.84 27.2059 Z" fill="#000000" fill-rule="nonzero" fill-opacity="1" /><path clip-path="url(#clip360)" d="M1940.73 51.6733 L1940.73 66.6212 L1951.34 66.6212 Q1956.45 66.6212 1959.12 64.7172 Q1961.79 62.7728 1961.79 59.127 Q1961.79 55.4812 1959.12 53.5773 Q1956.45 51.6733 1951.34 51.6733 L1940.73 51.6733 M1940.73 33.1607 L1940.73 45.7185 L1950.53 45.7185 Q1954.75 45.7185 1957.42 44.0576 Q1960.09 42.3563 1960.09 39.3586 Q1960.09 36.3609 1957.42 34.7811 Q1954.75 33.1607 1950.53 33.1607 L1940.73 33.1607 M1933.28 27.2059 L1951.02 27.2059 Q1959 27.2059 1963.29 30.1225 Q1967.59 33.0392 1967.59 38.4269 Q1967.59 42.5993 1965.4 45.0704 Q1963.21 47.5009 1958.92 48.1085 Q1964.06 49.0808 1966.9 52.1594 Q1969.73 55.2381 1969.73 59.8562 Q1969.73 65.9325 1965.04 69.2543 Q1960.38 72.576 1951.71 72.576 L1933.28 72.576 L1933.28 27.2059 Z" fill="#000000" fill-rule="nonzero" fill-opacity="1" /><path clip-path="url(#clip360)" d="M2025.31 27.2059 L2032.77 27.2059 L2032.77 72.576 L2025.31 72.576 L2025.31 27.2059 M2029.04 26.1121 L2029.04 26.1121 M2010.69 59.127 Q2010.69 55.4812 2008.02 53.5773 Q2005.38 51.6733 2000.28 51.6733 L1989.66 51.6733 L1989.66 66.6212 L2000.28 66.6212 Q2005.38 66.6212 2008.02 64.7172 Q2010.69 62.7728 2010.69 59.127 M1982.17 27.2059 L1989.66 27.2059 L1989.66 45.7185 L2000.6 45.7185 Q2009.27 45.7185 2013.93 49.0402 Q2018.63 52.3215 2018.63 59.127 Q2018.63 65.9325 2013.93 69.2543 Q2009.27 72.576 2000.6 72.576 L1982.17 72.576 L1982.17 27.2059 Z" fill="#000000" fill-rule="nonzero" fill-opacity="1" /><path clip-path="url(#clip360)" d="M2074.17 72.576 L2074.17 53.4962 L2060.27 53.4962 Q2054.07 53.4962 2049.94 49.6479 Q2046.22 46.1641 2046.22 38.7104 L2046.22 27.2059 L2053.67 27.2059 L2053.67 38.0218 Q2053.67 42.7613 2055.78 45.1514 Q2057.92 47.5414 2062.14 47.5414 L2074.17 47.5414 L2074.17 27.2059 L2081.62 27.2059 L2081.62 72.576 L2074.17 72.576 Z" fill="#000000" fill-rule="nonzero" fill-opacity="1" /><path clip-path="url(#clip360)" d="M2135.54 27.2059 L2135.54 72.576 L2128.12 72.576 L2128.12 36.1584 L2106.25 72.576 L2096.69 72.576 L2096.69 27.2059 L2104.1 27.2059 L2104.1 63.5425 L2125.94 27.2059 L2135.54 27.2059 Z" fill="#000000" fill-rule="nonzero" fill-opacity="1" /><path clip-path="url(#clip360)" d="M2183.54 28.9478 L2183.54 35.9153 Q2180.38 34.1734 2177.18 33.3227 Q2174.02 32.4315 2170.78 32.4315 Q2163.53 32.4315 2159.52 37.0496 Q2155.51 41.6271 2155.51 49.9314 Q2155.51 58.2358 2159.52 62.8538 Q2163.53 67.4314 2170.78 67.4314 Q2174.02 67.4314 2177.18 66.5807 Q2180.38 65.6895 2183.54 63.9476 L2183.54 70.8341 Q2180.42 72.2924 2177.06 73.0216 Q2173.74 73.7508 2169.97 73.7508 Q2159.72 73.7508 2153.69 67.3098 Q2147.65 60.8689 2147.65 49.9314 Q2147.65 38.832 2153.73 32.472 Q2159.84 26.1121 2170.46 26.1121 Q2173.9 26.1121 2177.18 26.8413 Q2180.46 27.5299 2183.54 28.9478 Z" fill="#000000" fill-rule="nonzero" fill-opacity="1" /><path clip-path="url(#clip360)" d="M2191.76 72.576 L2191.76 66.3781 Q2199.14 65.2439 2201.41 60.1397 Q2204.16 52.9696 2204.16 34.619 L2204.16 27.2059 L2234.83 27.2059 L2234.83 72.576 L2227.37 72.576 L2227.37 33.1607 L2211.61 33.1607 L2211.61 37.6572 Q2211.61 55.1571 2208.05 63.0159 Q2204.24 71.4012 2191.76 72.576 Z" fill="#000000" fill-rule="nonzero" fill-opacity="1" /><path clip-path="url(#clip360)" d="M2288.34 48.0275 L2288.34 51.6733 L2254.07 51.6733 Q2254.55 59.3701 2258.69 63.421 Q2262.86 67.4314 2270.27 67.4314 Q2274.56 67.4314 2278.58 66.3781 Q2282.63 65.3249 2286.6 63.2184 L2286.6 70.267 Q2282.59 71.9684 2278.37 72.8596 Q2274.16 73.7508 2269.83 73.7508 Q2258.97 73.7508 2252.61 67.4314 Q2246.29 61.1119 2246.29 50.3365 Q2246.29 39.1965 2252.28 32.6746 Q2258.32 26.1121 2268.53 26.1121 Q2277.68 26.1121 2282.99 32.0264 Q2288.34 37.9003 2288.34 48.0275 M2280.88 45.84 Q2280.8 39.7232 2277.44 36.0774 Q2274.12 32.4315 2268.61 32.4315 Q2262.37 32.4315 2258.6 35.9558 Q2254.88 39.4801 2254.31 45.8805 L2280.88 45.84 Z" fill="#000000" fill-rule="nonzero" fill-opacity="1" /><path clip-path="url(#clip360)" d="M2300.29 27.2059 L2307.78 27.2059 L2307.78 45.7185 L2331.97 45.7185 L2331.97 27.2059 L2339.46 27.2059 L2339.46 72.576 L2331.97 72.576 L2331.97 51.6733 L2307.78 51.6733 L2307.78 72.576 L2300.29 72.576 L2300.29 27.2059 Z" fill="#000000" fill-rule="nonzero" fill-opacity="1" /><path clip-path="url(#clip360)" d="M2393.38 27.2059 L2393.38 72.576 L2385.96 72.576 L2385.96 36.1584 L2364.09 72.576 L2354.53 72.576 L2354.53 27.2059 L2361.94 27.2059 L2361.94 63.5425 L2383.78 27.2059 L2393.38 27.2059 Z" fill="#000000" fill-rule="nonzero" fill-opacity="1" /><path clip-path="url(#clip360)" d="M2416.22 40.2903 Q2416.22 43.6525 2418.82 45.5565 Q2421.41 47.4604 2426.23 47.4604 L2436.28 47.4604 L2436.28 33.1607 L2426.23 33.1607 Q2421.41 33.1607 2418.82 35.0241 Q2416.22 36.8875 2416.22 40.2903 M2405.61 72.576 L2419.47 52.6861 Q2414.77 51.6328 2411.65 48.8782 Q2408.53 46.0831 2408.53 40.2903 Q2408.53 33.7278 2412.86 30.4871 Q2417.24 27.2059 2426.03 27.2059 L2443.77 27.2059 L2443.77 72.576 L2436.28 72.576 L2436.28 53.4152 L2427 53.4152 L2413.63 72.576 L2405.61 72.576 Z" fill="#000000" fill-rule="nonzero" fill-opacity="1" /><path clip-path="url(#clip360)" d="M2502.59 32.4315 Q2496.59 32.4315 2493.11 37.1306 Q2489.63 41.7891 2489.63 49.9314 Q2489.63 58.0738 2493.07 62.7728 Q2496.55 67.4314 2502.59 67.4314 Q2508.55 67.4314 2512.03 62.7323 Q2515.51 58.0333 2515.51 49.9314 Q2515.51 41.8701 2512.03 37.1711 Q2508.55 32.4315 2502.59 32.4315 M2502.59 26.1121 Q2512.31 26.1121 2517.86 32.4315 Q2523.41 38.7509 2523.41 49.9314 Q2523.41 61.0714 2517.86 67.4314 Q2512.31 73.7508 2502.59 73.7508 Q2492.83 73.7508 2487.28 67.4314 Q2481.77 61.0714 2481.77 49.9314 Q2481.77 38.7509 2487.28 32.4315 Q2492.83 26.1121 2502.59 26.1121 Z" fill="#000000" fill-rule="nonzero" fill-opacity="1" /><path clip-path="url(#clip360)" d="M2530.38 27.2059 L2573.85 27.2059 L2573.85 33.1607 L2555.78 33.1607 L2555.78 72.576 L2548.45 72.576 L2548.45 33.1607 L2530.38 33.1607 L2530.38 27.2059 Z" fill="#000000" fill-rule="nonzero" fill-opacity="1" /><path clip-path="url(#clip360)" d="M2636.92 51.4708 L2635.14 42.1132 Q2633.31 32.5126 2626.1 32.5126 Q2620.67 32.5126 2618.2 36.9686 Q2615.08 42.5588 2615.08 49.9314 Q2615.08 58.8434 2618.12 63.0969 Q2621.2 67.4314 2626.1 67.4314 Q2631.53 67.4314 2634.45 58.8029 L2636.92 51.4708 M2641.09 39.075 L2645.1 27.2059 L2651.74 27.2059 L2643.44 51.7949 L2645.06 60.6663 Q2645.43 62.6513 2646.84 64.3122 Q2648.5 66.2566 2649.8 66.2566 L2653.36 66.2566 L2653.36 72.576 L2648.91 72.576 Q2645.1 72.576 2641.7 69.1732 Q2640.04 67.4719 2639.35 63.9071 Q2637.49 68.4036 2633.68 71.9279 Q2631.9 73.5887 2626.1 73.5887 Q2616.58 73.5887 2611.96 67.4314 Q2607.23 61.0714 2607.23 49.9314 Q2607.23 38.0218 2612.37 32.4315 Q2618.08 26.1931 2626.1 26.1931 Q2638.7 26.1931 2641.09 39.075 Z" fill="#000000" fill-rule="nonzero" fill-opacity="1" /><circle clip-path="url(#clip362)" cx="518.858" cy="2047.75" r="28.8" fill="#008000" fill-rule="evenodd" fill-opacity="1" stroke="#000000" stroke-opacity="1" stroke-width="4.8"/>
<circle clip-path="url(#clip362)" cx="1087.12" cy="2146.22" r="28.8" fill="#008000" fill-rule="evenodd" fill-opacity="1" stroke="#000000" stroke-opacity="1" stroke-width="4.8"/>
<circle clip-path="url(#clip362)" cx="1655.38" cy="1613.1" r="28.8" fill="#008000" fill-rule="evenodd" fill-opacity="1" stroke="#000000" stroke-opacity="1" stroke-width="4.8"/>
<circle clip-path="url(#clip362)" cx="2507.78" cy="1100.34" r="28.8" fill="#008000" fill-rule="evenodd" fill-opacity="1" stroke="#000000" stroke-opacity="1" stroke-width="4.8"/>
<circle clip-path="url(#clip362)" cx="3076.04" cy="189.727" r="28.8" fill="#008000" fill-rule="evenodd" fill-opacity="1" stroke="#000000" stroke-opacity="1" stroke-width="4.8"/>
<path clip-path="url(#clip360)" d="M532.497 303.842 L1266.06 303.842 L1266.06 200.162 L532.497 200.162  Z" fill="#ffffff" fill-rule="evenodd" fill-opacity="1"/>
<polyline clip-path="url(#clip360)" style="stroke:#000000; stroke-linecap:round; stroke-linejoin:round; stroke-width:4; stroke-opacity:1; fill:none" points="532.497,303.842 1266.06,303.842 1266.06,200.162 532.497,200.162 532.497,303.842 "/>
<circle clip-path="url(#clip360)" cx="652.968" cy="252.002" r="21.6847" fill="#008000" fill-rule="evenodd" fill-opacity="1" stroke="#000000" stroke-opacity="1" stroke-width="3.61412"/>
<path clip-path="url(#clip360)" d="M778.116 252.777 L778.116 265.439 L785.616 265.439 Q789.389 265.439 791.195 263.888 Q793.023 262.314 793.023 259.097 Q793.023 255.856 791.195 254.328 Q789.389 252.777 785.616 252.777 L778.116 252.777 M778.116 238.564 L778.116 248.981 L785.037 248.981 Q788.463 248.981 790.13 247.708 Q791.82 246.411 791.82 243.773 Q791.82 241.157 790.13 239.861 Q788.463 238.564 785.037 238.564 L778.116 238.564 M773.44 234.722 L785.384 234.722 Q790.732 234.722 793.625 236.944 Q796.519 239.166 796.519 243.263 Q796.519 246.435 795.037 248.31 Q793.556 250.185 790.685 250.648 Q794.134 251.388 796.032 253.749 Q797.954 256.087 797.954 259.606 Q797.954 264.235 794.806 266.759 Q791.657 269.282 785.847 269.282 L773.44 269.282 L773.44 234.722 Z" fill="#000000" fill-rule="nonzero" fill-opacity="1" /><path clip-path="url(#clip360)" d="M809.898 265.393 L809.898 279.143 L805.616 279.143 L805.616 243.356 L809.898 243.356 L809.898 247.291 Q811.241 244.976 813.278 243.865 Q815.338 242.731 818.185 242.731 Q822.907 242.731 825.847 246.481 Q828.81 250.231 828.81 256.342 Q828.81 262.453 825.847 266.203 Q822.907 269.953 818.185 269.953 Q815.338 269.953 813.278 268.842 Q811.241 267.708 809.898 265.393 M824.389 256.342 Q824.389 251.643 822.444 248.981 Q820.523 246.296 817.143 246.296 Q813.764 246.296 811.819 248.981 Q809.898 251.643 809.898 256.342 Q809.898 261.041 811.819 263.726 Q813.764 266.388 817.143 266.388 Q820.523 266.388 822.444 263.726 Q824.389 261.041 824.389 256.342 Z" fill="#000000" fill-rule="nonzero" fill-opacity="1" /><path clip-path="url(#clip360)" d="M858.046 255.254 L858.046 257.337 L838.463 257.337 Q838.741 261.735 841.102 264.05 Q843.486 266.342 847.722 266.342 Q850.176 266.342 852.467 265.74 Q854.782 265.138 857.051 263.935 L857.051 267.962 Q854.759 268.934 852.352 269.444 Q849.944 269.953 847.467 269.953 Q841.264 269.953 837.629 266.342 Q834.018 262.731 834.018 256.573 Q834.018 250.208 837.444 246.481 Q840.893 242.731 846.727 242.731 Q851.958 242.731 854.99 246.111 Q858.046 249.467 858.046 255.254 M853.787 254.004 Q853.74 250.509 851.819 248.425 Q849.921 246.342 846.773 246.342 Q843.208 246.342 841.055 248.356 Q838.926 250.37 838.602 254.027 L853.787 254.004 Z" fill="#000000" fill-rule="nonzero" fill-opacity="1" /><path clip-path="url(#clip360)" d="M864.875 243.356 L871.101 243.356 L878.463 260.717 L885.847 243.356 L892.027 243.356 L892.027 269.282 L887.745 269.282 L887.745 247.43 L880.592 264.305 L876.333 264.305 L869.157 247.43 L869.157 269.282 L864.875 269.282 L864.875 243.356 Z" fill="#000000" fill-rule="nonzero" fill-opacity="1" /><path clip-path="url(#clip360)" d="M905.083 250.833 Q905.083 252.754 906.564 253.842 Q908.046 254.93 910.8 254.93 L916.541 254.93 L916.541 246.759 L910.8 246.759 Q908.046 246.759 906.564 247.823 Q905.083 248.888 905.083 250.833 M899.018 269.282 L906.935 257.916 Q904.249 257.314 902.467 255.74 Q900.685 254.143 900.685 250.833 Q900.685 247.083 903.162 245.231 Q905.661 243.356 910.685 243.356 L920.823 243.356 L920.823 269.282 L916.541 269.282 L916.541 258.333 L911.24 258.333 L903.601 269.282 L899.018 269.282 Z" fill="#000000" fill-rule="nonzero" fill-opacity="1" /><path clip-path="url(#clip360)" d="M948.485 257.337 L948.485 265.879 L954.55 265.879 Q957.467 265.879 958.995 264.791 Q960.522 263.68 960.522 261.597 Q960.522 259.513 958.995 258.425 Q957.467 257.337 954.55 257.337 L948.485 257.337 M948.485 246.759 L948.485 253.935 L954.087 253.935 Q956.495 253.935 958.022 252.986 Q959.55 252.013 959.55 250.3 Q959.55 248.587 958.022 247.685 Q956.495 246.759 954.087 246.759 L948.485 246.759 M944.226 243.356 L954.365 243.356 Q958.925 243.356 961.379 245.023 Q963.832 246.689 963.832 249.768 Q963.832 252.152 962.582 253.564 Q961.332 254.953 958.879 255.3 Q961.819 255.856 963.439 257.615 Q965.059 259.374 965.059 262.013 Q965.059 265.485 962.374 267.384 Q959.712 269.282 954.758 269.282 L944.226 269.282 L944.226 243.356 Z" fill="#000000" fill-rule="nonzero" fill-opacity="1" /><path clip-path="url(#clip360)" d="M996.818 243.356 L1001.08 243.356 L1001.08 269.282 L996.818 269.282 L996.818 243.356 M998.948 242.731 L998.948 242.731 M988.462 261.597 Q988.462 259.513 986.934 258.425 Q985.43 257.337 982.513 257.337 L976.448 257.337 L976.448 265.879 L982.513 265.879 Q985.43 265.879 986.934 264.791 Q988.462 263.68 988.462 261.597 M972.166 243.356 L976.448 243.356 L976.448 253.935 L982.698 253.935 Q987.652 253.935 990.314 255.833 Q992.999 257.708 992.999 261.597 Q992.999 265.485 990.314 267.384 Q987.652 269.282 982.698 269.282 L972.166 269.282 L972.166 243.356 Z" fill="#000000" fill-rule="nonzero" fill-opacity="1" /><path clip-path="url(#clip360)" d="M1024.73 269.282 L1024.73 258.379 L1016.8 258.379 Q1013.25 258.379 1010.89 256.18 Q1008.76 254.189 1008.76 249.93 L1008.76 243.356 L1013.02 243.356 L1013.02 249.536 Q1013.02 252.245 1014.23 253.611 Q1015.45 254.976 1017.86 254.976 L1024.73 254.976 L1024.73 243.356 L1028.99 243.356 L1028.99 269.282 L1024.73 269.282 Z" fill="#000000" fill-rule="nonzero" fill-opacity="1" /><path clip-path="url(#clip360)" d="M1059.8 243.356 L1059.8 269.282 L1055.57 269.282 L1055.57 248.472 L1043.07 269.282 L1037.61 269.282 L1037.61 243.356 L1041.84 243.356 L1041.84 264.12 L1054.32 243.356 L1059.8 243.356 Z" fill="#000000" fill-rule="nonzero" fill-opacity="1" /><path clip-path="url(#clip360)" d="M1087.23 244.351 L1087.23 248.333 Q1085.43 247.337 1083.6 246.851 Q1081.79 246.342 1079.94 246.342 Q1075.8 246.342 1073.51 248.981 Q1071.22 251.597 1071.22 256.342 Q1071.22 261.087 1073.51 263.726 Q1075.8 266.342 1079.94 266.342 Q1081.79 266.342 1083.6 265.856 Q1085.43 265.347 1087.23 264.351 L1087.23 268.286 Q1085.45 269.12 1083.53 269.536 Q1081.63 269.953 1079.48 269.953 Q1073.62 269.953 1070.17 266.272 Q1066.73 262.592 1066.73 256.342 Q1066.73 249.999 1070.2 246.365 Q1073.69 242.731 1079.76 242.731 Q1081.73 242.731 1083.6 243.148 Q1085.48 243.541 1087.23 244.351 Z" fill="#000000" fill-rule="nonzero" fill-opacity="1" /><path clip-path="url(#clip360)" d="M1091.93 269.282 L1091.93 265.74 Q1096.15 265.092 1097.44 262.175 Q1099.02 258.078 1099.02 247.592 L1099.02 243.356 L1116.54 243.356 L1116.54 269.282 L1112.28 269.282 L1112.28 246.759 L1103.28 246.759 L1103.28 249.328 Q1103.28 259.328 1101.24 263.819 Q1099.06 268.61 1091.93 269.282 Z" fill="#000000" fill-rule="nonzero" fill-opacity="1" /><path clip-path="url(#clip360)" d="M1147.12 255.254 L1147.12 257.337 L1127.54 257.337 Q1127.81 261.735 1130.17 264.05 Q1132.56 266.342 1136.79 266.342 Q1139.25 266.342 1141.54 265.74 Q1143.85 265.138 1146.12 263.935 L1146.12 267.962 Q1143.83 268.934 1141.42 269.444 Q1139.02 269.953 1136.54 269.953 Q1130.34 269.953 1126.7 266.342 Q1123.09 262.731 1123.09 256.573 Q1123.09 250.208 1126.52 246.481 Q1129.97 242.731 1135.8 242.731 Q1141.03 242.731 1144.06 246.111 Q1147.12 249.467 1147.12 255.254 M1142.86 254.004 Q1142.81 250.509 1140.89 248.425 Q1138.99 246.342 1135.85 246.342 Q1132.28 246.342 1130.13 248.356 Q1128 250.37 1127.67 254.027 L1142.86 254.004 Z" fill="#000000" fill-rule="nonzero" fill-opacity="1" /><path clip-path="url(#clip360)" d="M1153.95 243.356 L1158.23 243.356 L1158.23 253.935 L1172.05 253.935 L1172.05 243.356 L1176.33 243.356 L1176.33 269.282 L1172.05 269.282 L1172.05 257.337 L1158.23 257.337 L1158.23 269.282 L1153.95 269.282 L1153.95 243.356 Z" fill="#000000" fill-rule="nonzero" fill-opacity="1" /><path clip-path="url(#clip360)" d="M1207.14 243.356 L1207.14 269.282 L1202.91 269.282 L1202.91 248.472 L1190.41 269.282 L1184.94 269.282 L1184.94 243.356 L1189.18 243.356 L1189.18 264.12 L1201.66 243.356 L1207.14 243.356 Z" fill="#000000" fill-rule="nonzero" fill-opacity="1" /><path clip-path="url(#clip360)" d="M1220.2 250.833 Q1220.2 252.754 1221.68 253.842 Q1223.16 254.93 1225.91 254.93 L1231.66 254.93 L1231.66 246.759 L1225.91 246.759 Q1223.16 246.759 1221.68 247.823 Q1220.2 248.888 1220.2 250.833 M1214.13 269.282 L1222.05 257.916 Q1219.36 257.314 1217.58 255.74 Q1215.8 254.143 1215.8 250.833 Q1215.8 247.083 1218.28 245.231 Q1220.78 243.356 1225.8 243.356 L1235.94 243.356 L1235.94 269.282 L1231.66 269.282 L1231.66 258.333 L1226.35 258.333 L1218.72 269.282 L1214.13 269.282 Z" fill="#000000" fill-rule="nonzero" fill-opacity="1" /></svg>
