<?xml version="1.0" encoding="utf-8"?>
<svg xmlns="http://www.w3.org/2000/svg" xmlns:xlink="http://www.w3.org/1999/xlink" width="800" height="600" viewBox="0 0 3200 2400">
<defs>
  <clipPath id="clip120">
    <rect x="0" y="0" width="3200" height="2400"/>
  </clipPath>
</defs>
<path clip-path="url(#clip120)" d="M0 2400 L3200 2400 L3200 0 L0 0  Z" fill="#ffffff" fill-rule="evenodd" fill-opacity="1"/>
<defs>
  <clipPath id="clip121">
    <rect x="374" y="519" width="2779" height="1706"/>
  </clipPath>
</defs>
<path clip-path="url(#clip120)" d="M189.385 2204.92 L3152.76 2204.92 L3152.76 131.032 L189.385 131.032  Z" fill="#ffffff" fill-rule="evenodd" fill-opacity="1"/>
<defs>
  <clipPath id="clip122">
    <rect x="189" y="131" width="2964" height="2075"/>
  </clipPath>
</defs>
<polyline clip-path="url(#clip122)" style="stroke:#000000; stroke-linecap:round; stroke-linejoin:round; stroke-width:2; stroke-opacity:0.1; fill:none" points="583.88,2204.92 583.88,131.032 "/>
<polyline clip-path="url(#clip122)" style="stroke:#000000; stroke-linecap:round; stroke-linejoin:round; stroke-width:2; stroke-opacity:0.1; fill:none" points="1205.13,2204.92 1205.13,131.032 "/>
<polyline clip-path="url(#clip122)" style="stroke:#000000; stroke-linecap:round; stroke-linejoin:round; stroke-width:2; stroke-opacity:0.1; fill:none" points="1826.38,2204.92 1826.38,131.032 "/>
<polyline clip-path="url(#clip122)" style="stroke:#000000; stroke-linecap:round; stroke-linejoin:round; stroke-width:2; stroke-opacity:0.1; fill:none" points="2447.64,2204.92 2447.64,131.032 "/>
<polyline clip-path="url(#clip122)" style="stroke:#000000; stroke-linecap:round; stroke-linejoin:round; stroke-width:2; stroke-opacity:0.1; fill:none" points="3068.89,2204.92 3068.89,131.032 "/>
<polyline clip-path="url(#clip122)" style="stroke:#000000; stroke-linecap:round; stroke-linejoin:round; stroke-width:2; stroke-opacity:0.1; fill:none" points="189.385,2049.99 3152.76,2049.99 "/>
<polyline clip-path="url(#clip122)" style="stroke:#000000; stroke-linecap:round; stroke-linejoin:round; stroke-width:2; stroke-opacity:0.1; fill:none" points="189.385,1736.36 3152.76,1736.36 "/>
<polyline clip-path="url(#clip122)" style="stroke:#000000; stroke-linecap:round; stroke-linejoin:round; stroke-width:2; stroke-opacity:0.1; fill:none" points="189.385,1422.74 3152.76,1422.74 "/>
<polyline clip-path="url(#clip122)" style="stroke:#000000; stroke-linecap:round; stroke-linejoin:round; stroke-width:2; stroke-opacity:0.1; fill:none" points="189.385,1109.11 3152.76,1109.11 "/>
<polyline clip-path="url(#clip122)" style="stroke:#000000; stroke-linecap:round; stroke-linejoin:round; stroke-width:2; stroke-opacity:0.1; fill:none" points="189.385,795.486 3152.76,795.486 "/>
<polyline clip-path="url(#clip122)" style="stroke:#000000; stroke-linecap:round; stroke-linejoin:round; stroke-width:2; stroke-opacity:0.1; fill:none" points="189.385,481.86 3152.76,481.86 "/>
<polyline clip-path="url(#clip122)" style="stroke:#000000; stroke-linecap:round; stroke-linejoin:round; stroke-width:2; stroke-opacity:0.1; fill:none" points="189.385,168.235 3152.76,168.235 "/>
<polyline clip-path="url(#clip120)" style="stroke:#000000; stroke-linecap:round; stroke-linejoin:round; stroke-width:4; stroke-opacity:1; fill:none" points="189.385,2204.92 3152.76,2204.92 "/>
<polyline clip-path="url(#clip120)" style="stroke:#000000; stroke-linecap:round; stroke-linejoin:round; stroke-width:4; stroke-opacity:1; fill:none" points="583.88,2204.92 583.88,2186.02 "/>
<polyline clip-path="url(#clip120)" style="stroke:#000000; stroke-linecap:round; stroke-linejoin:round; stroke-width:4; stroke-opacity:1; fill:none" points="1205.13,2204.92 1205.13,2186.02 "/>
<polyline clip-path="url(#clip120)" style="stroke:#000000; stroke-linecap:round; stroke-linejoin:round; stroke-width:4; stroke-opacity:1; fill:none" points="1826.38,2204.92 1826.38,2186.02 "/>
<polyline clip-path="url(#clip120)" style="stroke:#000000; stroke-linecap:round; stroke-linejoin:round; stroke-width:4; stroke-opacity:1; fill:none" points="2447.64,2204.92 2447.64,2186.02 "/>
<polyline clip-path="url(#clip120)" style="stroke:#000000; stroke-linecap:round; stroke-linejoin:round; stroke-width:4; stroke-opacity:1; fill:none" points="3068.89,2204.92 3068.89,2186.02 "/>
<path clip-path="url(#clip120)" d="M562.063 2242.24 Q558.452 2242.24 556.623 2245.8 Q554.818 2249.34 554.818 2256.47 Q554.818 2263.58 556.623 2267.15 Q558.452 2270.69 562.063 2270.69 Q565.697 2270.69 567.503 2267.15 Q569.332 2263.58 569.332 2256.47 Q569.332 2249.34 567.503 2245.8 Q565.697 2242.24 562.063 2242.24 M562.063 2238.53 Q567.873 2238.53 570.929 2243.14 Q574.007 2247.72 574.007 2256.47 Q574.007 2265.2 570.929 2269.81 Q567.873 2274.39 562.063 2274.39 Q556.253 2274.39 553.174 2269.81 Q550.119 2265.2 550.119 2256.47 Q550.119 2247.72 553.174 2243.14 Q556.253 2238.53 562.063 2238.53 Z" fill="#000000" fill-rule="nonzero" fill-opacity="1" /><path clip-path="url(#clip120)" d="M582.225 2267.84 L587.109 2267.84 L587.109 2273.72 L582.225 2273.72 L582.225 2267.84 Z" fill="#000000" fill-rule="nonzero" fill-opacity="1" /><path clip-path="url(#clip120)" d="M601.322 2269.78 L617.641 2269.78 L617.641 2273.72 L595.697 2273.72 L595.697 2269.78 Q598.359 2267.03 602.942 2262.4 Q607.549 2257.75 608.729 2256.41 Q610.975 2253.88 611.854 2252.15 Q612.757 2250.39 612.757 2248.7 Q612.757 2245.94 610.813 2244.21 Q608.891 2242.47 605.79 2242.47 Q603.591 2242.47 601.137 2243.23 Q598.706 2244 595.929 2245.55 L595.929 2240.83 Q598.753 2239.69 601.206 2239.11 Q603.66 2238.53 605.697 2238.53 Q611.067 2238.53 614.262 2241.22 Q617.456 2243.91 617.456 2248.4 Q617.456 2250.53 616.646 2252.45 Q615.859 2254.34 613.753 2256.94 Q613.174 2257.61 610.072 2260.83 Q606.97 2264.02 601.322 2269.78 Z" fill="#000000" fill-rule="nonzero" fill-opacity="1" /><path clip-path="url(#clip120)" d="M1182.27 2242.24 Q1178.66 2242.24 1176.83 2245.8 Q1175.03 2249.34 1175.03 2256.47 Q1175.03 2263.58 1176.83 2267.15 Q1178.66 2270.69 1182.27 2270.69 Q1185.91 2270.69 1187.71 2267.15 Q1189.54 2263.58 1189.54 2256.47 Q1189.54 2249.34 1187.71 2245.8 Q1185.91 2242.24 1182.27 2242.24 M1182.27 2238.53 Q1188.08 2238.53 1191.14 2243.14 Q1194.22 2247.72 1194.22 2256.47 Q1194.22 2265.2 1191.14 2269.81 Q1188.08 2274.39 1182.27 2274.39 Q1176.46 2274.39 1173.38 2269.81 Q1170.33 2265.2 1170.33 2256.47 Q1170.33 2247.72 1173.38 2243.14 Q1176.46 2238.53 1182.27 2238.53 Z" fill="#000000" fill-rule="nonzero" fill-opacity="1" /><path clip-path="url(#clip120)" d="M1202.44 2267.84 L1207.32 2267.84 L1207.32 2273.72 L1202.44 2273.72 L1202.44 2267.84 Z" fill="#000000" fill-rule="nonzero" fill-opacity="1" /><path clip-path="url(#clip120)" d="M1230.35 2243.23 L1218.55 2261.68 L1230.35 2261.68 L1230.35 2243.23 M1229.12 2239.16 L1235 2239.16 L1235 2261.68 L1239.93 2261.68 L1239.93 2265.57 L1235 2265.57 L1235 2273.72 L1230.35 2273.72 L1230.35 2265.57 L1214.75 2265.57 L1214.75 2261.06 L1229.12 2239.16 Z" fill="#000000" fill-rule="nonzero" fill-opacity="1" /><path clip-path="url(#clip120)" d="M1803.69 2242.24 Q1800.08 2242.24 1798.25 2245.8 Q1796.44 2249.34 1796.44 2256.47 Q1796.44 2263.58 1798.25 2267.15 Q1800.08 2270.69 1803.69 2270.69 Q1807.32 2270.69 1809.13 2267.15 Q1810.96 2263.58 1810.96 2256.47 Q1810.96 2249.34 1809.13 2245.8 Q1807.32 2242.24 1803.69 2242.24 M1803.69 2238.53 Q1809.5 2238.53 1812.55 2243.14 Q1815.63 2247.72 1815.63 2256.47 Q1815.63 2265.2 1812.55 2269.81 Q1809.5 2274.39 1803.69 2274.39 Q1797.88 2274.39 1794.8 2269.81 Q1791.74 2265.2 1791.74 2256.47 Q1791.74 2247.72 1794.8 2243.14 Q1797.88 2238.53 1803.69 2238.53 Z" fill="#000000" fill-rule="nonzero" fill-opacity="1" /><path clip-path="url(#clip120)" d="M1823.85 2267.84 L1828.73 2267.84 L1828.73 2273.72 L1823.85 2273.72 L1823.85 2267.84 Z" fill="#000000" fill-rule="nonzero" fill-opacity="1" /><path clip-path="url(#clip120)" d="M1849.5 2254.58 Q1846.35 2254.58 1844.5 2256.73 Q1842.67 2258.88 1842.67 2262.63 Q1842.67 2266.36 1844.5 2268.53 Q1846.35 2270.69 1849.5 2270.69 Q1852.64 2270.69 1854.47 2268.53 Q1856.33 2266.36 1856.33 2262.63 Q1856.33 2258.88 1854.47 2256.73 Q1852.64 2254.58 1849.5 2254.58 M1858.78 2239.92 L1858.78 2244.18 Q1857.02 2243.35 1855.21 2242.91 Q1853.43 2242.47 1851.67 2242.47 Q1847.04 2242.47 1844.59 2245.59 Q1842.16 2248.72 1841.81 2255.04 Q1843.18 2253.03 1845.24 2251.96 Q1847.3 2250.87 1849.77 2250.87 Q1854.98 2250.87 1857.99 2254.04 Q1861.02 2257.19 1861.02 2262.63 Q1861.02 2267.96 1857.88 2271.17 Q1854.73 2274.39 1849.5 2274.39 Q1843.5 2274.39 1840.33 2269.81 Q1837.16 2265.2 1837.16 2256.47 Q1837.16 2248.28 1841.05 2243.42 Q1844.94 2238.53 1851.49 2238.53 Q1853.25 2238.53 1855.03 2238.88 Q1856.83 2239.23 1858.78 2239.92 Z" fill="#000000" fill-rule="nonzero" fill-opacity="1" /><path clip-path="url(#clip120)" d="M2425.07 2242.24 Q2421.45 2242.24 2419.63 2245.8 Q2417.82 2249.34 2417.82 2256.47 Q2417.82 2263.58 2419.63 2267.15 Q2421.45 2270.69 2425.07 2270.69 Q2428.7 2270.69 2430.51 2267.15 Q2432.33 2263.58 2432.33 2256.47 Q2432.33 2249.34 2430.51 2245.8 Q2428.7 2242.24 2425.07 2242.24 M2425.07 2238.53 Q2430.88 2238.53 2433.93 2243.14 Q2437.01 2247.72 2437.01 2256.47 Q2437.01 2265.2 2433.93 2269.81 Q2430.88 2274.39 2425.07 2274.39 Q2419.26 2274.39 2416.18 2269.81 Q2413.12 2265.2 2413.12 2256.47 Q2413.12 2247.72 2416.18 2243.14 Q2419.26 2238.53 2425.07 2238.53 Z" fill="#000000" fill-rule="nonzero" fill-opacity="1" /><path clip-path="url(#clip120)" d="M2445.23 2267.84 L2450.11 2267.84 L2450.11 2273.72 L2445.23 2273.72 L2445.23 2267.84 Z" fill="#000000" fill-rule="nonzero" fill-opacity="1" /><path clip-path="url(#clip120)" d="M2470.3 2257.31 Q2466.96 2257.31 2465.04 2259.09 Q2463.14 2260.87 2463.14 2264 Q2463.14 2267.12 2465.04 2268.91 Q2466.96 2270.69 2470.3 2270.69 Q2473.63 2270.69 2475.55 2268.91 Q2477.47 2267.1 2477.47 2264 Q2477.47 2260.87 2475.55 2259.09 Q2473.65 2257.31 2470.3 2257.31 M2465.62 2255.32 Q2462.61 2254.58 2460.92 2252.52 Q2459.26 2250.46 2459.26 2247.49 Q2459.26 2243.35 2462.2 2240.94 Q2465.16 2238.53 2470.3 2238.53 Q2475.46 2238.53 2478.4 2240.94 Q2481.34 2243.35 2481.34 2247.49 Q2481.34 2250.46 2479.65 2252.52 Q2477.98 2254.58 2475 2255.32 Q2478.38 2256.1 2480.25 2258.4 Q2482.15 2260.69 2482.15 2264 Q2482.15 2269.02 2479.07 2271.71 Q2476.01 2274.39 2470.3 2274.39 Q2464.58 2274.39 2461.5 2271.71 Q2458.45 2269.02 2458.45 2264 Q2458.45 2260.69 2460.34 2258.4 Q2462.24 2256.1 2465.62 2255.32 M2463.91 2247.93 Q2463.91 2250.62 2465.57 2252.12 Q2467.26 2253.63 2470.3 2253.63 Q2473.31 2253.63 2475 2252.12 Q2476.71 2250.62 2476.71 2247.93 Q2476.71 2245.25 2475 2243.74 Q2473.31 2242.24 2470.3 2242.24 Q2467.26 2242.24 2465.57 2243.74 Q2463.91 2245.25 2463.91 2247.93 Z" fill="#000000" fill-rule="nonzero" fill-opacity="1" /><path clip-path="url(#clip120)" d="M3036.04 2269.78 L3043.68 2269.78 L3043.68 2243.42 L3035.37 2245.09 L3035.37 2240.83 L3043.63 2239.16 L3048.31 2239.16 L3048.31 2269.78 L3055.95 2269.78 L3055.95 2273.72 L3036.04 2273.72 L3036.04 2269.78 Z" fill="#000000" fill-rule="nonzero" fill-opacity="1" /><path clip-path="url(#clip120)" d="M3065.39 2267.84 L3070.28 2267.84 L3070.28 2273.72 L3065.39 2273.72 L3065.39 2267.84 Z" fill="#000000" fill-rule="nonzero" fill-opacity="1" /><path clip-path="url(#clip120)" d="M3090.46 2242.24 Q3086.85 2242.24 3085.02 2245.8 Q3083.22 2249.34 3083.22 2256.47 Q3083.22 2263.58 3085.02 2267.15 Q3086.85 2270.69 3090.46 2270.69 Q3094.1 2270.69 3095.9 2267.15 Q3097.73 2263.58 3097.73 2256.47 Q3097.73 2249.34 3095.9 2245.8 Q3094.1 2242.24 3090.46 2242.24 M3090.46 2238.53 Q3096.27 2238.53 3099.33 2243.14 Q3102.41 2247.72 3102.41 2256.47 Q3102.41 2265.2 3099.33 2269.81 Q3096.27 2274.39 3090.46 2274.39 Q3084.65 2274.39 3081.57 2269.81 Q3078.52 2265.2 3078.52 2256.47 Q3078.52 2247.72 3081.57 2243.14 Q3084.65 2238.53 3090.46 2238.53 Z" fill="#000000" fill-rule="nonzero" fill-opacity="1" /><path clip-path="url(#clip120)" d="M1403.58 2317.92 L1403.58 2324.7 Q1400.34 2321.68 1396.64 2320.18 Q1392.98 2318.69 1388.85 2318.69 Q1380.7 2318.69 1376.37 2323.69 Q1372.04 2328.65 1372.04 2338.07 Q1372.04 2347.46 1376.37 2352.46 Q1380.7 2357.42 1388.85 2357.42 Q1392.98 2357.42 1396.64 2355.93 Q1400.34 2354.43 1403.58 2351.41 L1403.58 2358.12 Q1400.21 2360.42 1396.42 2361.56 Q1392.67 2362.71 1388.47 2362.71 Q1377.68 2362.71 1371.47 2356.12 Q1365.26 2349.5 1365.26 2338.07 Q1365.26 2326.61 1371.47 2320.02 Q1377.68 2313.4 1388.47 2313.4 Q1392.73 2313.4 1396.49 2314.55 Q1400.27 2315.66 1403.58 2317.92 Z" fill="#000000" fill-rule="nonzero" fill-opacity="1" /><path clip-path="url(#clip120)" d="M1413.04 2326.14 L1418.86 2326.14 L1418.86 2342.88 L1435.38 2326.14 L1442.57 2326.14 L1428.95 2339.92 L1444.32 2361.78 L1437.77 2361.78 L1425.13 2343.8 L1418.86 2350.17 L1418.86 2361.78 L1413.04 2361.78 L1413.04 2326.14 Z" fill="#000000" fill-rule="nonzero" fill-opacity="1" /><path clip-path="url(#clip120)" d="M1466.44 2330.24 Q1461.73 2330.24 1459 2333.93 Q1456.26 2337.59 1456.26 2343.99 Q1456.26 2350.39 1458.97 2354.08 Q1461.7 2357.74 1466.44 2357.74 Q1471.12 2357.74 1473.86 2354.05 Q1476.6 2350.36 1476.6 2343.99 Q1476.6 2337.66 1473.86 2333.97 Q1471.12 2330.24 1466.44 2330.24 M1466.44 2325.28 Q1474.08 2325.28 1478.44 2330.24 Q1482.8 2335.21 1482.8 2343.99 Q1482.8 2352.74 1478.44 2357.74 Q1474.08 2362.71 1466.44 2362.71 Q1458.77 2362.71 1454.41 2357.74 Q1450.09 2352.74 1450.09 2343.99 Q1450.09 2335.21 1454.41 2330.24 Q1458.77 2325.28 1466.44 2325.28 Z" fill="#000000" fill-rule="nonzero" fill-opacity="1" /><path clip-path="url(#clip120)" d="M1498.18 2356.44 L1498.18 2375.34 L1492.29 2375.34 L1492.29 2326.14 L1498.18 2326.14 L1498.18 2331.55 Q1500.02 2328.36 1502.82 2326.84 Q1505.66 2325.28 1509.57 2325.28 Q1516.07 2325.28 1520.11 2330.43 Q1524.18 2335.59 1524.18 2343.99 Q1524.18 2352.39 1520.11 2357.55 Q1516.07 2362.71 1509.57 2362.71 Q1505.66 2362.71 1502.82 2361.18 Q1500.02 2359.62 1498.18 2356.44 M1518.1 2343.99 Q1518.1 2337.53 1515.43 2333.87 Q1512.79 2330.18 1508.14 2330.18 Q1503.49 2330.18 1500.82 2333.87 Q1498.18 2337.53 1498.18 2343.99 Q1498.18 2350.45 1500.82 2354.14 Q1503.49 2357.81 1508.14 2357.81 Q1512.79 2357.81 1515.43 2354.14 Q1518.1 2350.45 1518.1 2343.99 Z" fill="#000000" fill-rule="nonzero" fill-opacity="1" /><path clip-path="url(#clip120)" d="M1547.7 2330.24 Q1542.99 2330.24 1540.26 2333.93 Q1537.52 2337.59 1537.52 2343.99 Q1537.52 2350.39 1540.22 2354.08 Q1542.96 2357.74 1547.7 2357.74 Q1552.38 2357.74 1555.12 2354.05 Q1557.86 2350.36 1557.86 2343.99 Q1557.86 2337.66 1555.12 2333.97 Q1552.38 2330.24 1547.7 2330.24 M1547.7 2325.28 Q1555.34 2325.28 1559.7 2330.24 Q1564.06 2335.21 1564.06 2343.99 Q1564.06 2352.74 1559.7 2357.74 Q1555.34 2362.71 1547.7 2362.71 Q1540.03 2362.71 1535.67 2357.74 Q1531.34 2352.74 1531.34 2343.99 Q1531.34 2335.21 1535.67 2330.24 Q1540.03 2325.28 1547.7 2325.28 Z" fill="#000000" fill-rule="nonzero" fill-opacity="1" /><path clip-path="url(#clip120)" d="M1599.42 2327.5 L1599.42 2332.98 Q1596.94 2331.61 1594.43 2330.94 Q1591.94 2330.24 1589.4 2330.24 Q1583.7 2330.24 1580.55 2333.87 Q1577.4 2337.47 1577.4 2343.99 Q1577.4 2350.52 1580.55 2354.14 Q1583.7 2357.74 1589.4 2357.74 Q1591.94 2357.74 1594.43 2357.07 Q1596.94 2356.37 1599.42 2355 L1599.42 2360.42 Q1596.97 2361.56 1594.33 2362.13 Q1591.72 2362.71 1588.76 2362.71 Q1580.71 2362.71 1575.97 2357.65 Q1571.22 2352.59 1571.22 2343.99 Q1571.22 2335.27 1576 2330.27 Q1580.8 2325.28 1589.14 2325.28 Q1591.85 2325.28 1594.43 2325.85 Q1597.01 2326.39 1599.42 2327.5 Z" fill="#000000" fill-rule="nonzero" fill-opacity="1" /><path clip-path="url(#clip120)" d="M1605.38 2326.14 L1639.53 2326.14 L1639.53 2330.81 L1625.33 2330.81 L1625.33 2361.78 L1619.57 2361.78 L1619.57 2330.81 L1605.38 2330.81 L1605.38 2326.14 Z" fill="#000000" fill-rule="nonzero" fill-opacity="1" /><path clip-path="url(#clip120)" d="M1669.77 2351.22 Q1669.77 2348.35 1667.66 2346.86 Q1665.6 2345.36 1661.59 2345.36 L1653.25 2345.36 L1653.25 2357.11 L1661.59 2357.11 Q1665.6 2357.11 1667.66 2355.61 Q1669.77 2354.08 1669.77 2351.22 M1647.36 2326.14 L1653.25 2326.14 L1653.25 2340.68 L1661.84 2340.68 Q1668.65 2340.68 1672.31 2343.29 Q1676 2345.87 1676 2351.22 Q1676 2356.56 1672.31 2359.17 Q1668.65 2361.78 1661.84 2361.78 L1647.36 2361.78 L1647.36 2326.14 Z" fill="#000000" fill-rule="nonzero" fill-opacity="1" /><path clip-path="url(#clip120)" d="M1712.38 2356.44 L1712.38 2375.34 L1706.5 2375.34 L1706.5 2326.14 L1712.38 2326.14 L1712.38 2331.55 Q1714.23 2328.36 1717.03 2326.84 Q1719.86 2325.28 1723.78 2325.28 Q1730.27 2325.28 1734.31 2330.43 Q1738.39 2335.59 1738.39 2343.99 Q1738.39 2352.39 1734.31 2357.55 Q1730.27 2362.71 1723.78 2362.71 Q1719.86 2362.71 1717.03 2361.18 Q1714.23 2359.62 1712.38 2356.44 M1732.31 2343.99 Q1732.31 2337.53 1729.64 2333.87 Q1726.99 2330.18 1722.35 2330.18 Q1717.7 2330.18 1715.03 2333.87 Q1712.38 2337.53 1712.38 2343.99 Q1712.38 2350.45 1715.03 2354.14 Q1717.7 2357.81 1722.35 2357.81 Q1726.99 2357.81 1729.64 2354.14 Q1732.31 2350.45 1732.31 2343.99 Z" fill="#000000" fill-rule="nonzero" fill-opacity="1" /><path clip-path="url(#clip120)" d="M1761.91 2330.24 Q1757.2 2330.24 1754.46 2333.93 Q1751.72 2337.59 1751.72 2343.99 Q1751.72 2350.39 1754.43 2354.08 Q1757.17 2357.74 1761.91 2357.74 Q1766.59 2357.74 1769.33 2354.05 Q1772.06 2350.36 1772.06 2343.99 Q1772.06 2337.66 1769.33 2333.97 Q1766.59 2330.24 1761.91 2330.24 M1761.91 2325.28 Q1769.55 2325.28 1773.91 2330.24 Q1778.27 2335.21 1778.27 2343.99 Q1778.27 2352.74 1773.91 2357.74 Q1769.55 2362.71 1761.91 2362.71 Q1754.24 2362.71 1749.88 2357.74 Q1745.55 2352.74 1745.55 2343.99 Q1745.55 2335.21 1749.88 2330.24 Q1754.24 2325.28 1761.91 2325.28 Z" fill="#000000" fill-rule="nonzero" fill-opacity="1" /><path clip-path="url(#clip120)" d="M1813.63 2327.5 L1813.63 2332.98 Q1811.15 2331.61 1808.63 2330.94 Q1806.15 2330.24 1803.6 2330.24 Q1797.91 2330.24 1794.76 2333.87 Q1791.61 2337.47 1791.61 2343.99 Q1791.61 2350.52 1794.76 2354.14 Q1797.91 2357.74 1803.6 2357.74 Q1806.15 2357.74 1808.63 2357.07 Q1811.15 2356.37 1813.63 2355 L1813.63 2360.42 Q1811.18 2361.56 1808.54 2362.13 Q1805.93 2362.71 1802.97 2362.71 Q1794.92 2362.71 1790.17 2357.65 Q1785.43 2352.59 1785.43 2343.99 Q1785.43 2335.27 1790.2 2330.27 Q1795.01 2325.28 1803.35 2325.28 Q1806.06 2325.28 1808.63 2325.85 Q1811.21 2326.39 1813.63 2327.5 Z" fill="#000000" fill-rule="nonzero" fill-opacity="1" /><path clip-path="url(#clip120)" d="M1819.58 2326.14 L1853.73 2326.14 L1853.73 2330.81 L1839.54 2330.81 L1839.54 2361.78 L1833.78 2361.78 L1833.78 2330.81 L1819.58 2330.81 L1819.58 2326.14 Z" fill="#000000" fill-rule="nonzero" fill-opacity="1" /><path clip-path="url(#clip120)" d="M1877.99 2343.86 Q1870.89 2343.86 1868.15 2345.49 Q1865.42 2347.11 1865.42 2351.03 Q1865.42 2354.14 1867.45 2355.99 Q1869.52 2357.81 1873.05 2357.81 Q1877.92 2357.81 1880.85 2354.37 Q1883.81 2350.9 1883.81 2345.17 L1883.81 2343.86 L1877.99 2343.86 M1889.67 2341.45 L1889.67 2361.78 L1883.81 2361.78 L1883.81 2356.37 Q1881.81 2359.62 1878.82 2361.18 Q1875.82 2362.71 1871.49 2362.71 Q1866.02 2362.71 1862.77 2359.65 Q1859.56 2356.56 1859.56 2351.41 Q1859.56 2345.39 1863.57 2342.34 Q1867.61 2339.28 1875.6 2339.28 L1883.81 2339.28 L1883.81 2338.71 Q1883.81 2334.67 1881.14 2332.47 Q1878.5 2330.24 1873.69 2330.24 Q1870.64 2330.24 1867.74 2330.97 Q1864.84 2331.71 1862.17 2333.17 L1862.17 2327.76 Q1865.38 2326.52 1868.41 2325.91 Q1871.43 2325.28 1874.3 2325.28 Q1882.03 2325.28 1885.85 2329.29 Q1889.67 2333.3 1889.67 2341.45 Z" fill="#000000" fill-rule="nonzero" fill-opacity="1" /><path clip-path="url(#clip120)" d="M1903.23 2353.7 L1909.94 2353.7 L1909.94 2359.17 L1904.72 2369.36 L1900.62 2369.36 L1903.23 2359.17 L1903.23 2353.7 Z" fill="#000000" fill-rule="nonzero" fill-opacity="1" /><path clip-path="url(#clip120)" d="M1963.96 2345.2 L1962.56 2337.85 Q1961.12 2330.31 1955.46 2330.31 Q1951.19 2330.31 1949.25 2333.81 Q1946.8 2338.2 1946.8 2343.99 Q1946.8 2350.99 1949.19 2354.34 Q1951.61 2357.74 1955.46 2357.74 Q1959.72 2357.74 1962.02 2350.96 L1963.96 2345.2 M1967.24 2335.46 L1970.39 2326.14 L1975.61 2326.14 L1969.08 2345.46 L1970.35 2352.43 Q1970.64 2353.99 1971.75 2355.29 Q1973.06 2356.82 1974.08 2356.82 L1976.88 2356.82 L1976.88 2361.78 L1973.38 2361.78 Q1970.39 2361.78 1967.71 2359.11 Q1966.41 2357.77 1965.87 2354.97 Q1964.4 2358.51 1961.41 2361.27 Q1960.01 2362.58 1955.46 2362.58 Q1947.98 2362.58 1944.35 2357.74 Q1940.63 2352.74 1940.63 2343.99 Q1940.63 2334.63 1944.67 2330.24 Q1949.16 2325.34 1955.46 2325.34 Q1965.36 2325.34 1967.24 2335.46 Z" fill="#000000" fill-rule="nonzero" fill-opacity="1" /><polyline clip-path="url(#clip120)" style="stroke:#000000; stroke-linecap:round; stroke-linejoin:round; stroke-width:4; stroke-opacity:1; fill:none" points="189.385,2204.92 189.385,131.032 "/>
<polyline clip-path="url(#clip120)" style="stroke:#000000; stroke-linecap:round; stroke-linejoin:round; stroke-width:4; stroke-opacity:1; fill:none" points="189.385,2049.99 208.283,2049.99 "/>
<polyline clip-path="url(#clip120)" style="stroke:#000000; stroke-linecap:round; stroke-linejoin:round; stroke-width:4; stroke-opacity:1; fill:none" points="189.385,1736.36 208.283,1736.36 "/>
<polyline clip-path="url(#clip120)" style="stroke:#000000; stroke-linecap:round; stroke-linejoin:round; stroke-width:4; stroke-opacity:1; fill:none" points="189.385,1422.74 208.283,1422.74 "/>
<polyline clip-path="url(#clip120)" style="stroke:#000000; stroke-linecap:round; stroke-linejoin:round; stroke-width:4; stroke-opacity:1; fill:none" points="189.385,1109.11 208.283,1109.11 "/>
<polyline clip-path="url(#clip120)" style="stroke:#000000; stroke-linecap:round; stroke-linejoin:round; stroke-width:4; stroke-opacity:1; fill:none" points="189.385,795.486 208.283,795.486 "/>
<polyline clip-path="url(#clip120)" style="stroke:#000000; stroke-linecap:round; stroke-linejoin:round; stroke-width:4; stroke-opacity:1; fill:none" points="189.385,481.86 208.283,481.86 "/>
<polyline clip-path="url(#clip120)" style="stroke:#000000; stroke-linecap:round; stroke-linejoin:round; stroke-width:4; stroke-opacity:1; fill:none" points="189.385,168.235 208.283,168.235 "/>
<path clip-path="url(#clip120)" d="M121.478 2063.33 L129.117 2063.33 L129.117 2036.97 L120.807 2038.63 L120.807 2034.37 L129.07 2032.71 L133.746 2032.71 L133.746 2063.33 L141.385 2063.33 L141.385 2067.27 L121.478 2067.27 L121.478 2063.33 Z" fill="#000000" fill-rule="nonzero" fill-opacity="1" /><path clip-path="url(#clip120)" d="M125.066 1749.71 L141.385 1749.71 L141.385 1753.64 L119.441 1753.64 L119.441 1749.71 Q122.103 1746.95 126.686 1742.32 Q131.293 1737.67 132.473 1736.33 Q134.719 1733.8 135.598 1732.07 Q136.501 1730.31 136.501 1728.62 Q136.501 1725.86 134.557 1724.13 Q132.635 1722.39 129.533 1722.39 Q127.334 1722.39 124.881 1723.16 Q122.45 1723.92 119.672 1725.47 L119.672 1720.75 Q122.496 1719.61 124.95 1719.04 Q127.404 1718.46 129.441 1718.46 Q134.811 1718.46 138.006 1721.14 Q141.2 1723.83 141.2 1728.32 Q141.2 1730.45 140.39 1732.37 Q139.603 1734.27 137.496 1736.86 Q136.918 1737.53 133.816 1740.75 Q130.714 1743.94 125.066 1749.71 Z" fill="#000000" fill-rule="nonzero" fill-opacity="1" /><path clip-path="url(#clip120)" d="M134.256 1421.38 Q137.612 1422.1 139.487 1424.37 Q141.385 1426.64 141.385 1429.97 Q141.385 1435.09 137.867 1437.89 Q134.348 1440.69 127.867 1440.69 Q125.691 1440.69 123.376 1440.25 Q121.084 1439.83 118.631 1438.98 L118.631 1434.46 Q120.575 1435.6 122.89 1436.17 Q125.205 1436.75 127.728 1436.75 Q132.126 1436.75 134.418 1435.02 Q136.732 1433.28 136.732 1429.97 Q136.732 1426.92 134.58 1425.2 Q132.45 1423.47 128.631 1423.47 L124.603 1423.47 L124.603 1419.62 L128.816 1419.62 Q132.265 1419.62 134.094 1418.26 Q135.922 1416.87 135.922 1414.28 Q135.922 1411.61 134.024 1410.2 Q132.149 1408.77 128.631 1408.77 Q126.709 1408.77 124.51 1409.18 Q122.311 1409.6 119.672 1410.48 L119.672 1406.31 Q122.334 1405.57 124.649 1405.2 Q126.987 1404.83 129.047 1404.83 Q134.371 1404.83 137.473 1407.26 Q140.575 1409.67 140.575 1413.79 Q140.575 1416.66 138.932 1418.65 Q137.288 1420.62 134.256 1421.38 Z" fill="#000000" fill-rule="nonzero" fill-opacity="1" /><path clip-path="url(#clip120)" d="M131.802 1095.91 L119.996 1114.35 L131.802 1114.35 L131.802 1095.91 M130.575 1091.83 L136.455 1091.83 L136.455 1114.35 L141.385 1114.35 L141.385 1118.24 L136.455 1118.24 L136.455 1126.39 L131.802 1126.39 L131.802 1118.24 L116.2 1118.24 L116.2 1113.73 L130.575 1091.83 Z" fill="#000000" fill-rule="nonzero" fill-opacity="1" /><path clip-path="url(#clip120)" d="M120.483 778.206 L138.839 778.206 L138.839 782.141 L124.765 782.141 L124.765 790.613 Q125.783 790.266 126.802 790.104 Q127.82 789.919 128.839 789.919 Q134.626 789.919 138.006 793.09 Q141.385 796.261 141.385 801.678 Q141.385 807.257 137.913 810.359 Q134.441 813.437 128.121 813.437 Q125.945 813.437 123.677 813.067 Q121.432 812.696 119.024 811.956 L119.024 807.257 Q121.108 808.391 123.33 808.946 Q125.552 809.502 128.029 809.502 Q132.033 809.502 134.371 807.396 Q136.709 805.289 136.709 801.678 Q136.709 798.067 134.371 795.96 Q132.033 793.854 128.029 793.854 Q126.154 793.854 124.279 794.271 Q122.427 794.687 120.483 795.567 L120.483 778.206 Z" fill="#000000" fill-rule="nonzero" fill-opacity="1" /><path clip-path="url(#clip120)" d="M129.857 479.997 Q126.709 479.997 124.858 482.15 Q123.029 484.303 123.029 488.052 Q123.029 491.779 124.858 493.955 Q126.709 496.108 129.857 496.108 Q133.006 496.108 134.834 493.955 Q136.686 491.779 136.686 488.052 Q136.686 484.303 134.834 482.15 Q133.006 479.997 129.857 479.997 M139.14 465.344 L139.14 469.604 Q137.381 468.77 135.575 468.33 Q133.793 467.891 132.033 467.891 Q127.404 467.891 124.95 471.016 Q122.52 474.141 122.172 480.46 Q123.538 478.446 125.598 477.381 Q127.658 476.293 130.135 476.293 Q135.344 476.293 138.353 479.465 Q141.385 482.613 141.385 488.052 Q141.385 493.377 138.237 496.594 Q135.089 499.812 129.857 499.812 Q123.862 499.812 120.691 495.228 Q117.52 490.622 117.52 481.895 Q117.52 473.701 121.408 468.84 Q125.297 463.955 131.848 463.955 Q133.607 463.955 135.39 464.303 Q137.195 464.65 139.14 465.344 Z" fill="#000000" fill-rule="nonzero" fill-opacity="1" /><path clip-path="url(#clip120)" d="M119.163 150.955 L141.385 150.955 L141.385 152.946 L128.839 185.515 L123.955 185.515 L135.76 154.89 L119.163 154.89 L119.163 150.955 Z" fill="#000000" fill-rule="nonzero" fill-opacity="1" /><path clip-path="url(#clip120)" d="M31.2504 1483.64 L48.6606 1483.64 L48.6606 1473.32 Q48.6606 1468.13 46.5281 1465.65 Q44.3638 1463.14 39.9396 1463.14 Q35.4836 1463.14 33.3829 1465.65 Q31.2504 1468.13 31.2504 1473.32 L31.2504 1483.64 M11.7077 1483.64 L26.0305 1483.64 L26.0305 1474.12 Q26.0305 1469.41 24.28 1467.12 Q22.4976 1464.79 18.8691 1464.79 Q15.2725 1464.79 13.4901 1467.12 Q11.7077 1469.41 11.7077 1474.12 L11.7077 1483.64 M6.42416 1490.06 L6.42416 1473.64 Q6.42416 1466.29 9.4797 1462.31 Q12.5352 1458.33 18.1689 1458.33 Q22.5294 1458.33 25.1075 1460.37 Q27.6856 1462.41 28.3222 1466.35 Q29.3407 1461.61 32.5872 1459 Q35.8019 1456.36 40.6398 1456.36 Q47.0055 1456.36 50.4748 1460.69 Q53.9442 1465.02 53.9442 1473 L53.9442 1490.06 L6.42416 1490.06 Z" fill="#000000" fill-rule="nonzero" fill-opacity="1" /><path clip-path="url(#clip120)" d="M48.597 1439.93 L67.5031 1439.93 L67.5031 1445.82 L18.2962 1445.82 L18.2962 1439.93 L23.7071 1439.93 Q20.5242 1438.09 18.9964 1435.29 Q17.4368 1432.46 17.4368 1428.54 Q17.4368 1422.05 22.5931 1418.01 Q27.7493 1413.93 36.152 1413.93 Q44.5547 1413.93 49.711 1418.01 Q54.8672 1422.05 54.8672 1428.54 Q54.8672 1432.46 53.3394 1435.29 Q51.7798 1438.09 48.597 1439.93 M36.152 1420.01 Q29.6908 1420.01 26.0305 1422.68 Q22.3384 1425.33 22.3384 1429.97 Q22.3384 1434.62 26.0305 1437.29 Q29.6908 1439.93 36.152 1439.93 Q42.6132 1439.93 46.3053 1437.29 Q49.9656 1434.62 49.9656 1429.97 Q49.9656 1425.33 46.3053 1422.68 Q42.6132 1420.01 36.152 1420.01 Z" fill="#000000" fill-rule="nonzero" fill-opacity="1" /><path clip-path="url(#clip120)" d="M34.6561 1373.73 L37.5206 1373.73 L37.5206 1400.66 Q43.5681 1400.28 46.7509 1397.03 Q49.9019 1393.75 49.9019 1387.93 Q49.9019 1384.55 49.0744 1381.4 Q48.2469 1378.22 46.5918 1375.1 L52.1299 1375.1 Q53.4667 1378.25 54.167 1381.56 Q54.8672 1384.87 54.8672 1388.28 Q54.8672 1396.81 49.9019 1401.8 Q44.9367 1406.77 36.4703 1406.77 Q27.7174 1406.77 22.5931 1402.06 Q17.4368 1397.32 17.4368 1389.3 Q17.4368 1382.1 22.0838 1377.93 Q26.6989 1373.73 34.6561 1373.73 M32.9373 1379.59 Q28.1312 1379.65 25.2666 1382.29 Q22.4021 1384.9 22.4021 1389.23 Q22.4021 1394.13 25.1712 1397.09 Q27.9402 1400.02 32.9692 1400.47 L32.9373 1379.59 Z" fill="#000000" fill-rule="nonzero" fill-opacity="1" /><path clip-path="url(#clip120)" d="M18.2962 1364.34 L18.2962 1355.78 L42.1676 1345.66 L18.2962 1335.51 L18.2962 1327.01 L53.9442 1327.01 L53.9442 1332.9 L23.898 1332.9 L47.101 1342.73 L47.101 1348.59 L23.898 1358.45 L53.9442 1358.45 L53.9442 1364.34 L18.2962 1364.34 Z" fill="#000000" fill-rule="nonzero" fill-opacity="1" /><path clip-path="url(#clip120)" d="M28.5768 1309.06 Q31.2186 1309.06 32.7145 1307.02 Q34.2105 1304.98 34.2105 1301.19 L34.2105 1293.3 L22.975 1293.3 L22.975 1301.19 Q22.975 1304.98 24.4391 1307.02 Q25.9032 1309.06 28.5768 1309.06 M53.9442 1317.4 L38.3163 1306.51 Q37.4888 1310.2 35.3245 1312.65 Q33.1283 1315.1 28.5768 1315.1 Q23.4206 1315.1 20.8743 1311.7 Q18.2962 1308.26 18.2962 1301.35 L18.2962 1287.41 L53.9442 1287.41 L53.9442 1293.3 L38.8893 1293.3 L38.8893 1300.59 L53.9442 1311.09 L53.9442 1317.4 Z" fill="#000000" fill-rule="nonzero" fill-opacity="1" /><path clip-path="url(#clip120)" d="M57.2543 1240.18 Q63.62 1242.66 65.5616 1245.02 Q67.5031 1247.37 67.5031 1251.32 L67.5031 1256 L62.6015 1256 L62.6015 1252.56 Q62.6015 1250.14 61.4557 1248.8 Q60.3099 1247.47 56.0448 1245.84 L53.3712 1244.79 L18.2962 1259.21 L18.2962 1253.01 L46.178 1241.87 L18.2962 1230.73 L18.2962 1224.52 L57.2543 1240.18 Z" fill="#000000" fill-rule="nonzero" fill-opacity="1" /><path clip-path="url(#clip120)" d="M49.2654 1208.48 L49.2654 1191.48 L22.975 1191.48 L22.975 1203.8 L27.431 1203.8 Q40.5443 1203.8 47.5466 1207.55 L49.2654 1208.48 M49.2654 1216.98 Q47.9922 1214.08 45.2868 1212.81 Q38.571 1209.69 25.0438 1209.69 L18.2962 1209.69 L18.2962 1185.59 L49.2654 1185.59 L49.2654 1180.91 L62.9516 1180.91 L62.9516 1185.59 L53.9442 1185.59 L53.9442 1214.49 L62.9516 1214.49 L62.9516 1219.17 L49.2654 1219.17 L49.2654 1216.98 Z" fill="#000000" fill-rule="nonzero" fill-opacity="1" /><path clip-path="url(#clip120)" d="M37.5206 1165.73 L49.2654 1165.73 L49.2654 1157.39 Q49.2654 1153.38 47.7694 1151.28 Q46.2417 1149.18 43.3771 1149.18 Q40.5125 1149.18 39.0166 1151.28 Q37.5206 1153.38 37.5206 1157.39 L37.5206 1165.73 M22.975 1165.73 L32.8418 1165.73 L32.8418 1158.03 Q32.8418 1154.72 31.5369 1152.62 Q30.2001 1150.52 27.8448 1150.52 Q25.4894 1150.52 24.2481 1152.62 Q22.975 1154.72 22.975 1158.03 L22.975 1165.73 M18.2962 1171.59 L18.2962 1157.65 Q18.2962 1151.38 20.5879 1148 Q22.8795 1144.63 27.1127 1144.63 Q30.391 1144.63 32.3326 1146.35 Q34.2423 1148.07 34.7197 1151.44 Q35.4836 1147.4 37.9026 1145.17 Q40.3215 1142.94 43.95 1142.94 Q48.7243 1142.94 51.3342 1146.63 Q53.9442 1150.3 53.9442 1157.11 L53.9442 1171.59 L18.2962 1171.59 Z" fill="#000000" fill-rule="nonzero" fill-opacity="1" /><path clip-path="url(#clip120)" d="M22.4021 1119.14 Q22.4021 1123.85 26.0942 1126.58 Q29.7545 1129.32 36.152 1129.32 Q42.5495 1129.32 46.2417 1126.61 Q49.9019 1123.88 49.9019 1119.14 Q49.9019 1114.46 46.2098 1111.72 Q42.5177 1108.98 36.152 1108.98 Q29.8181 1108.98 26.126 1111.72 Q22.4021 1114.46 22.4021 1119.14 M17.4368 1119.14 Q17.4368 1111.5 22.4021 1107.14 Q27.3673 1102.78 36.152 1102.78 Q44.9049 1102.78 49.9019 1107.14 Q54.8672 1111.5 54.8672 1119.14 Q54.8672 1126.81 49.9019 1131.17 Q44.9049 1135.49 36.152 1135.49 Q27.3673 1135.49 22.4021 1131.17 Q17.4368 1126.81 17.4368 1119.14 Z" fill="#000000" fill-rule="nonzero" fill-opacity="1" /><path clip-path="url(#clip120)" d="M34.6561 1062.58 L37.5206 1062.58 L37.5206 1089.5 Q43.5681 1089.12 46.7509 1085.87 Q49.9019 1082.6 49.9019 1076.77 Q49.9019 1073.4 49.0744 1070.25 Q48.2469 1067.06 46.5918 1063.94 L52.1299 1063.94 Q53.4667 1067.1 54.167 1070.41 Q54.8672 1073.72 54.8672 1077.12 Q54.8672 1085.65 49.9019 1090.65 Q44.9367 1095.61 36.4703 1095.61 Q27.7174 1095.61 22.5931 1090.9 Q17.4368 1086.16 17.4368 1078.14 Q17.4368 1070.95 22.0838 1066.78 Q26.6989 1062.58 34.6561 1062.58 M32.9373 1068.43 Q28.1312 1068.5 25.2666 1071.14 Q22.4021 1073.75 22.4021 1078.08 Q22.4021 1082.98 25.1712 1085.94 Q27.9402 1088.87 32.9692 1089.31 L32.9373 1068.43 Z" fill="#000000" fill-rule="nonzero" fill-opacity="1" /><path clip-path="url(#clip120)" d="M18.2962 1053.19 L18.2962 1047.3 L32.8418 1047.3 L32.8418 1028.3 L18.2962 1028.3 L18.2962 1022.41 L53.9442 1022.41 L53.9442 1028.3 L37.5206 1028.3 L37.5206 1047.3 L53.9442 1047.3 L53.9442 1053.19 L18.2962 1053.19 Z" fill="#000000" fill-rule="nonzero" fill-opacity="1" /><path clip-path="url(#clip120)" d="M18.2962 980.044 L53.9442 980.044 L53.9442 985.869 L25.3303 985.869 L53.9442 1003.06 L53.9442 1010.57 L18.2962 1010.57 L18.2962 1004.74 L46.8464 1004.74 L18.2962 987.588 L18.2962 980.044 Z" fill="#000000" fill-rule="nonzero" fill-opacity="1" /><path clip-path="url(#clip120)" d="M28.5768 962.093 Q31.2186 962.093 32.7145 960.056 Q34.2105 958.019 34.2105 954.231 L34.2105 946.338 L22.975 946.338 L22.975 954.231 Q22.975 958.019 24.4391 960.056 Q25.9032 962.093 28.5768 962.093 M53.9442 970.432 L38.3163 959.547 Q37.4888 963.239 35.3245 965.69 Q33.1283 968.141 28.5768 968.141 Q23.4206 968.141 20.8743 964.735 Q18.2962 961.297 18.2962 954.391 L18.2962 940.45 L53.9442 940.45 L53.9442 946.338 L38.8893 946.338 L38.8893 953.627 L53.9442 964.13 L53.9442 970.432 Z" fill="#000000" fill-rule="nonzero" fill-opacity="1" /><path clip-path="url(#clip120)" d="M45.8597 927.273 L45.8597 920.557 L51.3342 920.557 L61.5193 925.777 L61.5193 929.883 L51.3342 927.273 L45.8597 927.273 Z" fill="#000000" fill-rule="nonzero" fill-opacity="1" /><path clip-path="url(#clip120)" d="M8.17473 881.535 L18.2962 881.535 L18.2962 869.472 L22.8477 869.472 L22.8477 881.535 L42.1994 881.535 Q46.5599 881.535 47.8013 880.357 Q49.0426 879.148 49.0426 875.488 L49.0426 869.472 L53.9442 869.472 L53.9442 875.488 Q53.9442 882.267 51.4297 884.845 Q48.8834 887.423 42.1994 887.423 L22.8477 887.423 L22.8477 891.72 L18.2962 891.72 L18.2962 887.423 L8.17473 887.423 L8.17473 881.535 Z" fill="#000000" fill-rule="nonzero" fill-opacity="1" /><path clip-path="url(#clip120)" d="M50.3157 859.382 L50.3157 845.887 L53.9442 845.887 L53.9442 864.921 L50.443 864.921 Q49.4563 863.838 47.6739 861.833 Q37.9662 850.884 34.9744 850.884 Q32.8737 850.884 31.6005 852.539 Q30.2956 854.194 30.2956 856.9 Q30.2956 858.555 30.8685 860.496 Q31.4096 862.438 32.5236 864.73 L28.6086 864.73 Q27.7174 862.279 27.2718 860.178 Q26.8262 858.046 26.8262 856.231 Q26.8262 851.616 28.9269 848.847 Q31.0276 846.078 34.4651 846.078 Q38.8893 846.078 47.9286 856.613 Q49.4563 858.396 50.3157 859.382 Z" fill="#000000" fill-rule="nonzero" fill-opacity="1" /><path clip-path="url(#clip120)" d="M888.314 11.0023 Q898.28 11.0023 904.599 15.2557 Q910.918 19.4686 910.918 26.6793 Q910.918 31.7024 908.042 35.1862 Q905.166 38.6294 899.859 39.9662 Q905.733 41.222 909.014 45.1919 Q912.336 49.1618 912.336 54.9951 Q912.336 64.3122 905.126 69.0517 Q897.955 73.7508 888.314 73.7508 Q883.372 73.7508 877.62 72.414 Q871.868 71.0772 870.085 69.9429 L870.085 61.517 Q876.283 65.1223 879.686 66.0135 Q883.129 66.8642 888.152 66.8642 Q895.768 66.8642 899.981 63.9476 Q904.194 61.0309 904.194 54.9951 Q904.194 49.6479 900.427 46.6502 Q896.7 43.612 888.8 43.612 L880.537 43.612 L880.537 36.8875 L889.125 36.8875 Q896.376 36.8875 899.576 34.4975 Q902.776 32.067 902.776 27.5299 Q902.776 22.8714 899.454 20.4004 Q896.173 17.8888 888.152 17.8888 Q882.724 17.8888 880.861 18.3749 Q878.997 18.861 870.693 21.9802 L870.693 13.9999 Q875.27 12.3796 880.05 11.6909 Q884.831 11.0023 888.314 11.0023 Z" fill="#000000" fill-rule="nonzero" fill-opacity="1" /><path clip-path="url(#clip120)" d="M946.242 49.7694 Q937.209 49.7694 933.725 51.8354 Q930.241 53.9013 930.241 58.8839 Q930.241 62.8538 932.834 65.2034 Q935.467 67.5124 939.963 67.5124 Q946.161 67.5124 949.888 63.1374 Q953.655 58.7219 953.655 51.4303 L953.655 49.7694 L946.242 49.7694 M961.109 46.6907 L961.109 72.576 L953.655 72.576 L953.655 65.6895 Q951.103 69.8214 947.295 71.8063 Q943.488 73.7508 937.978 73.7508 Q931.011 73.7508 926.879 69.8619 Q922.788 65.9325 922.788 59.3701 Q922.788 51.7138 927.892 47.825 Q933.036 43.9361 943.204 43.9361 L953.655 43.9361 L953.655 43.2069 Q953.655 38.0623 950.253 35.2672 Q946.89 32.4315 940.774 32.4315 Q936.885 32.4315 933.198 33.3632 Q929.512 34.295 926.109 36.1584 L926.109 29.2718 Q930.201 27.692 934.049 26.9223 Q937.897 26.1121 941.543 26.1121 Q951.387 26.1121 956.248 31.2163 Q961.109 36.3204 961.109 46.6907 Z" fill="#000000" fill-rule="nonzero" fill-opacity="1" /><path clip-path="url(#clip120)" d="M983.632 51.6733 L983.632 66.6212 L994.245 66.6212 Q999.35 66.6212 1002.02 64.7172 Q1004.7 62.7728 1004.7 59.127 Q1004.7 55.4812 1002.02 53.5773 Q999.35 51.6733 994.245 51.6733 L983.632 51.6733 M983.632 33.1607 L983.632 45.7185 L993.435 45.7185 Q997.648 45.7185 1000.32 44.0576 Q1003 42.3563 1003 39.3586 Q1003 36.3609 1000.32 34.7811 Q997.648 33.1607 993.435 33.1607 L983.632 33.1607 M976.178 27.2059 L993.921 27.2059 Q1001.9 27.2059 1006.2 30.1225 Q1010.49 33.0392 1010.49 38.4269 Q1010.49 42.5993 1008.3 45.0704 Q1006.11 47.5009 1001.82 48.1085 Q1006.97 49.0808 1009.8 52.1594 Q1012.64 55.2381 1012.64 59.8562 Q1012.64 65.9325 1007.94 69.2543 Q1003.28 72.576 994.61 72.576 L976.178 72.576 L976.178 27.2059 Z" fill="#000000" fill-rule="nonzero" fill-opacity="1" /><path clip-path="url(#clip120)" d="M1063.92 27.2059 L1063.92 72.576 L1056.51 72.576 L1056.51 36.1584 L1034.63 72.576 L1025.07 72.576 L1025.07 27.2059 L1032.49 27.2059 L1032.49 63.5425 L1054.32 27.2059 L1063.92 27.2059 Z" fill="#000000" fill-rule="nonzero" fill-opacity="1" /><path clip-path="url(#clip120)" d="M1111.92 28.9478 L1111.92 35.9153 Q1108.76 34.1734 1105.56 33.3227 Q1102.4 32.4315 1099.16 32.4315 Q1091.91 32.4315 1087.9 37.0496 Q1083.89 41.6271 1083.89 49.9314 Q1083.89 58.2358 1087.9 62.8538 Q1091.91 67.4314 1099.16 67.4314 Q1102.4 67.4314 1105.56 66.5807 Q1108.76 65.6895 1111.92 63.9476 L1111.92 70.8341 Q1108.81 72.2924 1105.44 73.0216 Q1102.12 73.7508 1098.35 73.7508 Q1088.1 73.7508 1082.07 67.3098 Q1076.03 60.8689 1076.03 49.9314 Q1076.03 38.832 1082.11 32.472 Q1088.23 26.1121 1098.84 26.1121 Q1102.28 26.1121 1105.56 26.8413 Q1108.85 27.5299 1111.92 28.9478 Z" fill="#000000" fill-rule="nonzero" fill-opacity="1" /><path clip-path="url(#clip120)" d="M1163.45 27.2059 L1163.45 72.576 L1156.04 72.576 L1156.04 36.1584 L1134.16 72.576 L1124.6 72.576 L1124.6 27.2059 L1132.02 27.2059 L1132.02 63.5425 L1153.85 27.2059 L1163.45 27.2059 Z" fill="#000000" fill-rule="nonzero" fill-opacity="1" /><path clip-path="url(#clip120)" d="M1178.52 27.2059 L1189.42 27.2059 L1202.3 57.5877 L1215.22 27.2059 L1226.04 27.2059 L1226.04 72.576 L1218.54 72.576 L1218.54 34.3355 L1206.03 63.8666 L1198.57 63.8666 L1186.02 34.3355 L1186.02 72.576 L1178.52 72.576 L1178.52 27.2059 Z" fill="#000000" fill-rule="nonzero" fill-opacity="1" /><path clip-path="url(#clip120)" d="M1258.97 32.4315 Q1252.98 32.4315 1249.49 37.1306 Q1246.01 41.7891 1246.01 49.9314 Q1246.01 58.0738 1249.45 62.7728 Q1252.94 67.4314 1258.97 67.4314 Q1264.93 67.4314 1268.41 62.7323 Q1271.89 58.0333 1271.89 49.9314 Q1271.89 41.8701 1268.41 37.1711 Q1264.93 32.4315 1258.97 32.4315 M1258.97 26.1121 Q1268.69 26.1121 1274.24 32.4315 Q1279.79 38.7509 1279.79 49.9314 Q1279.79 61.0714 1274.24 67.4314 Q1268.69 73.7508 1258.97 73.7508 Q1249.21 73.7508 1243.66 67.4314 Q1238.15 61.0714 1238.15 49.9314 Q1238.15 38.7509 1243.66 32.4315 Q1249.21 26.1121 1258.97 26.1121 Z" fill="#000000" fill-rule="nonzero" fill-opacity="1" /><path clip-path="url(#clip120)" d="M1324.8 28.9478 L1324.8 35.9153 Q1321.64 34.1734 1318.44 33.3227 Q1315.28 32.4315 1312.04 32.4315 Q1304.79 32.4315 1300.78 37.0496 Q1296.77 41.6271 1296.77 49.9314 Q1296.77 58.2358 1300.78 62.8538 Q1304.79 67.4314 1312.04 67.4314 Q1315.28 67.4314 1318.44 66.5807 Q1321.64 65.6895 1324.8 63.9476 L1324.8 70.8341 Q1321.68 72.2924 1318.32 73.0216 Q1315 73.7508 1311.23 73.7508 Q1300.98 73.7508 1294.94 67.3098 Q1288.91 60.8689 1288.91 49.9314 Q1288.91 38.832 1294.98 32.472 Q1301.1 26.1121 1311.71 26.1121 Q1315.16 26.1121 1318.44 26.8413 Q1321.72 27.5299 1324.8 28.9478 Z" fill="#000000" fill-rule="nonzero" fill-opacity="1" /><path clip-path="url(#clip120)" d="M1332.37 27.2059 L1375.84 27.2059 L1375.84 33.1607 L1357.77 33.1607 L1357.77 72.576 L1350.44 72.576 L1350.44 33.1607 L1332.37 33.1607 L1332.37 27.2059 Z" fill="#000000" fill-rule="nonzero" fill-opacity="1" /><path clip-path="url(#clip120)" d="M1414.32 59.127 Q1414.32 55.4812 1411.65 53.5773 Q1409.02 51.6733 1403.91 51.6733 L1393.3 51.6733 L1393.3 66.6212 L1403.91 66.6212 Q1409.02 66.6212 1411.65 64.7172 Q1414.32 62.7728 1414.32 59.127 M1385.81 27.2059 L1393.3 27.2059 L1393.3 45.7185 L1404.24 45.7185 Q1412.91 45.7185 1417.56 49.0402 Q1422.26 52.3215 1422.26 59.127 Q1422.26 65.9325 1417.56 69.2543 Q1412.91 72.576 1404.24 72.576 L1385.81 72.576 L1385.81 27.2059 Z" fill="#000000" fill-rule="nonzero" fill-opacity="1" /><path clip-path="url(#clip120)" d="M1468.53 51.6733 L1468.53 66.6212 L1479.14 66.6212 Q1484.24 66.6212 1486.92 64.7172 Q1489.59 62.7728 1489.59 59.127 Q1489.59 55.4812 1486.92 53.5773 Q1484.24 51.6733 1479.14 51.6733 L1468.53 51.6733 M1468.53 33.1607 L1468.53 45.7185 L1478.33 45.7185 Q1482.54 45.7185 1485.22 44.0576 Q1487.89 42.3563 1487.89 39.3586 Q1487.89 36.3609 1485.22 34.7811 Q1482.54 33.1607 1478.33 33.1607 L1468.53 33.1607 M1461.07 27.2059 L1478.81 27.2059 Q1486.79 27.2059 1491.09 30.1225 Q1495.38 33.0392 1495.38 38.4269 Q1495.38 42.5993 1493.2 45.0704 Q1491.01 47.5009 1486.71 48.1085 Q1491.86 49.0808 1494.69 52.1594 Q1497.53 55.2381 1497.53 59.8562 Q1497.53 65.9325 1492.83 69.2543 Q1488.17 72.576 1479.5 72.576 L1461.07 72.576 L1461.07 27.2059 Z" fill="#000000" fill-rule="nonzero" fill-opacity="1" /><path clip-path="url(#clip120)" d="M1517.46 65.7705 L1517.46 89.8329 L1509.97 89.8329 L1509.97 27.2059 L1517.46 27.2059 L1517.46 34.0924 Q1519.81 30.0415 1523.37 28.0971 Q1526.98 26.1121 1531.96 26.1121 Q1540.23 26.1121 1545.37 32.6746 Q1550.56 39.2371 1550.56 49.9314 Q1550.56 60.6258 1545.37 67.1883 Q1540.23 73.7508 1531.96 73.7508 Q1526.98 73.7508 1523.37 71.8063 Q1519.81 69.8214 1517.46 65.7705 M1542.82 49.9314 Q1542.82 41.7081 1539.42 37.0496 Q1536.05 32.3505 1530.14 32.3505 Q1524.23 32.3505 1520.82 37.0496 Q1517.46 41.7081 1517.46 49.9314 Q1517.46 58.1548 1520.82 62.8538 Q1524.23 67.5124 1530.14 67.5124 Q1536.05 67.5124 1539.42 62.8538 Q1542.82 58.1548 1542.82 49.9314 Z" fill="#000000" fill-rule="nonzero" fill-opacity="1" /><path clip-path="url(#clip120)" d="M1601.72 48.0275 L1601.72 51.6733 L1567.45 51.6733 Q1567.93 59.3701 1572.07 63.421 Q1576.24 67.4314 1583.65 67.4314 Q1587.95 67.4314 1591.96 66.3781 Q1596.01 65.3249 1599.98 63.2184 L1599.98 70.267 Q1595.97 71.9684 1591.75 72.8596 Q1587.54 73.7508 1583.21 73.7508 Q1572.35 73.7508 1565.99 67.4314 Q1559.67 61.1119 1559.67 50.3365 Q1559.67 39.1965 1565.67 32.6746 Q1571.7 26.1121 1581.91 26.1121 Q1591.07 26.1121 1596.37 32.0264 Q1601.72 37.9003 1601.72 48.0275 M1594.27 45.84 Q1594.18 39.7232 1590.82 36.0774 Q1587.5 32.4315 1581.99 32.4315 Q1575.75 32.4315 1571.99 35.9558 Q1568.26 39.4801 1567.69 45.8805 L1594.27 45.84 Z" fill="#000000" fill-rule="nonzero" fill-opacity="1" /><path clip-path="url(#clip120)" d="M1613.67 27.2059 L1624.57 27.2059 L1637.45 57.5877 L1650.37 27.2059 L1661.19 27.2059 L1661.19 72.576 L1653.69 72.576 L1653.69 34.3355 L1641.17 63.8666 L1633.72 63.8666 L1621.16 34.3355 L1621.16 72.576 L1613.67 72.576 L1613.67 27.2059 Z" fill="#000000" fill-rule="nonzero" fill-opacity="1" /><path clip-path="url(#clip120)" d="M1715.35 48.0275 L1715.35 51.6733 L1681.08 51.6733 Q1681.56 59.3701 1685.69 63.421 Q1689.87 67.4314 1697.28 67.4314 Q1701.57 67.4314 1705.58 66.3781 Q1709.64 65.3249 1713.61 63.2184 L1713.61 70.267 Q1709.59 71.9684 1705.38 72.8596 Q1701.17 73.7508 1696.83 73.7508 Q1685.98 73.7508 1679.62 67.4314 Q1673.3 61.1119 1673.3 50.3365 Q1673.3 39.1965 1679.29 32.6746 Q1685.33 26.1121 1695.54 26.1121 Q1704.69 26.1121 1710 32.0264 Q1715.35 37.9003 1715.35 48.0275 M1707.89 45.84 Q1707.81 39.7232 1704.45 36.0774 Q1701.13 32.4315 1695.62 32.4315 Q1689.38 32.4315 1685.61 35.9558 Q1681.89 39.4801 1681.32 45.8805 L1707.89 45.84 Z" fill="#000000" fill-rule="nonzero" fill-opacity="1" /><path clip-path="url(#clip120)" d="M1727.3 27.2059 L1734.79 27.2059 L1734.79 45.7185 L1758.98 45.7185 L1758.98 27.2059 L1766.47 27.2059 L1766.47 72.576 L1758.98 72.576 L1758.98 51.6733 L1734.79 51.6733 L1734.79 72.576 L1727.3 72.576 L1727.3 27.2059 Z" fill="#000000" fill-rule="nonzero" fill-opacity="1" /><path clip-path="url(#clip120)" d="M1820.39 27.2059 L1820.39 72.576 L1812.97 72.576 L1812.97 36.1584 L1791.1 72.576 L1781.54 72.576 L1781.54 27.2059 L1788.95 27.2059 L1788.95 63.5425 L1810.79 27.2059 L1820.39 27.2059 Z" fill="#000000" fill-rule="nonzero" fill-opacity="1" /><path clip-path="url(#clip120)" d="M1880.99 76.7889 Q1877.83 84.8907 1874.83 87.3618 Q1871.83 89.8329 1866.81 89.8329 L1860.86 89.8329 L1860.86 83.5945 L1865.23 83.5945 Q1868.31 83.5945 1870.01 82.1361 Q1871.71 80.6778 1873.78 75.2496 L1875.11 71.8468 L1856.76 27.2059 L1864.66 27.2059 L1878.84 62.6918 L1893.02 27.2059 L1900.92 27.2059 L1880.99 76.7889 Z" fill="#000000" fill-rule="nonzero" fill-opacity="1" /><path clip-path="url(#clip120)" d="M1921.34 66.6212 L1942.97 66.6212 L1942.97 33.1607 L1927.29 33.1607 L1927.29 38.832 Q1927.29 55.5217 1922.51 64.4337 L1921.34 66.6212 M1910.52 66.6212 Q1914.21 65.0008 1915.83 61.5575 Q1919.8 53.0101 1919.8 35.7938 L1919.8 27.2059 L1950.46 27.2059 L1950.46 66.6212 L1956.42 66.6212 L1956.42 84.0401 L1950.46 84.0401 L1950.46 72.576 L1913.68 72.576 L1913.68 84.0401 L1907.72 84.0401 L1907.72 66.6212 L1910.52 66.6212 Z" fill="#000000" fill-rule="nonzero" fill-opacity="1" /><path clip-path="url(#clip120)" d="M1975.74 51.6733 L1975.74 66.6212 L1986.35 66.6212 Q1991.46 66.6212 1994.13 64.7172 Q1996.8 62.7728 1996.8 59.127 Q1996.8 55.4812 1994.13 53.5773 Q1991.46 51.6733 1986.35 51.6733 L1975.74 51.6733 M1975.74 33.1607 L1975.74 45.7185 L1985.54 45.7185 Q1989.76 45.7185 1992.43 44.0576 Q1995.1 42.3563 1995.1 39.3586 Q1995.1 36.3609 1992.43 34.7811 Q1989.76 33.1607 1985.54 33.1607 L1975.74 33.1607 M1968.29 27.2059 L1986.03 27.2059 Q1994.01 27.2059 1998.3 30.1225 Q2002.6 33.0392 2002.6 38.4269 Q2002.6 42.5993 2000.41 45.0704 Q1998.22 47.5009 1993.93 48.1085 Q1999.07 49.0808 2001.91 52.1594 Q2004.74 55.2381 2004.74 59.8562 Q2004.74 65.9325 2000.04 69.2543 Q1995.39 72.576 1986.72 72.576 L1968.29 72.576 L1968.29 27.2059 Z" fill="#000000" fill-rule="nonzero" fill-opacity="1" /><path clip-path="url(#clip120)" d="M2035.04 32.4315 Q2029.05 32.4315 2025.57 37.1306 Q2022.08 41.7891 2022.08 49.9314 Q2022.08 58.0738 2025.52 62.7728 Q2029.01 67.4314 2035.04 67.4314 Q2041 67.4314 2044.48 62.7323 Q2047.97 58.0333 2047.97 49.9314 Q2047.97 41.8701 2044.48 37.1711 Q2041 32.4315 2035.04 32.4315 M2035.04 26.1121 Q2044.77 26.1121 2050.32 32.4315 Q2055.87 38.7509 2055.87 49.9314 Q2055.87 61.0714 2050.32 67.4314 Q2044.77 73.7508 2035.04 73.7508 Q2025.28 73.7508 2019.73 67.4314 Q2014.22 61.0714 2014.22 49.9314 Q2014.22 38.7509 2019.73 32.4315 Q2025.28 26.1121 2035.04 26.1121 Z" fill="#000000" fill-rule="nonzero" fill-opacity="1" /><path clip-path="url(#clip120)" d="M2107.03 48.0275 L2107.03 51.6733 L2072.76 51.6733 Q2073.24 59.3701 2077.38 63.421 Q2081.55 67.4314 2088.96 67.4314 Q2093.26 67.4314 2097.27 66.3781 Q2101.32 65.3249 2105.29 63.2184 L2105.29 70.267 Q2101.28 71.9684 2097.06 72.8596 Q2092.85 73.7508 2088.52 73.7508 Q2077.66 73.7508 2071.3 67.4314 Q2064.98 61.1119 2064.98 50.3365 Q2064.98 39.1965 2070.98 32.6746 Q2077.01 26.1121 2087.22 26.1121 Q2096.37 26.1121 2101.68 32.0264 Q2107.03 37.9003 2107.03 48.0275 M2099.58 45.84 Q2099.49 39.7232 2096.13 36.0774 Q2092.81 32.4315 2087.3 32.4315 Q2081.06 32.4315 2077.3 35.9558 Q2073.57 39.4801 2073 45.8805 L2099.58 45.84 Z" fill="#000000" fill-rule="nonzero" fill-opacity="1" /><path clip-path="url(#clip120)" d="M2118.98 27.2059 L2126.47 27.2059 L2126.47 45.7185 L2150.66 45.7185 L2150.66 27.2059 L2158.15 27.2059 L2158.15 72.576 L2150.66 72.576 L2150.66 51.6733 L2126.47 51.6733 L2126.47 72.576 L2118.98 72.576 L2118.98 27.2059 Z" fill="#000000" fill-rule="nonzero" fill-opacity="1" /><path clip-path="url(#clip120)" d="M2212.07 27.2059 L2212.07 72.576 L2204.66 72.576 L2204.66 36.1584 L2182.78 72.576 L2173.22 72.576 L2173.22 27.2059 L2180.63 27.2059 L2180.63 63.5425 L2202.47 27.2059 L2212.07 27.2059 Z" fill="#000000" fill-rule="nonzero" fill-opacity="1" /><path clip-path="url(#clip120)" d="M2234.92 40.2903 Q2234.92 43.6525 2237.51 45.5565 Q2240.1 47.4604 2244.92 47.4604 L2254.97 47.4604 L2254.97 33.1607 L2244.92 33.1607 Q2240.1 33.1607 2237.51 35.0241 Q2234.92 36.8875 2234.92 40.2903 M2224.3 72.576 L2238.16 52.6861 Q2233.46 51.6328 2230.34 48.8782 Q2227.22 46.0831 2227.22 40.2903 Q2227.22 33.7278 2231.55 30.4871 Q2235.93 27.2059 2244.72 27.2059 L2262.46 27.2059 L2262.46 72.576 L2254.97 72.576 L2254.97 53.4152 L2245.69 53.4152 L2232.32 72.576 L2224.3 72.576 Z" fill="#000000" fill-rule="nonzero" fill-opacity="1" /><path clip-path="url(#clip120)" d="M2321.28 32.4315 Q2315.29 32.4315 2311.8 37.1306 Q2308.32 41.7891 2308.32 49.9314 Q2308.32 58.0738 2311.76 62.7728 Q2315.25 67.4314 2321.28 67.4314 Q2327.24 67.4314 2330.72 62.7323 Q2334.2 58.0333 2334.2 49.9314 Q2334.2 41.8701 2330.72 37.1711 Q2327.24 32.4315 2321.28 32.4315 M2321.28 26.1121 Q2331 26.1121 2336.55 32.4315 Q2342.1 38.7509 2342.1 49.9314 Q2342.1 61.0714 2336.55 67.4314 Q2331 73.7508 2321.28 73.7508 Q2311.52 73.7508 2305.97 67.4314 Q2300.46 61.0714 2300.46 49.9314 Q2300.46 38.7509 2305.97 32.4315 Q2311.52 26.1121 2321.28 26.1121 Z" fill="#000000" fill-rule="nonzero" fill-opacity="1" /><path clip-path="url(#clip120)" d="M2349.07 27.2059 L2392.54 27.2059 L2392.54 33.1607 L2374.47 33.1607 L2374.47 72.576 L2367.14 72.576 L2367.14 33.1607 L2349.07 33.1607 L2349.07 27.2059 Z" fill="#000000" fill-rule="nonzero" fill-opacity="1" /><path clip-path="url(#clip120)" d="M2455.61 51.4708 L2453.83 42.1132 Q2452 32.5126 2444.79 32.5126 Q2439.37 32.5126 2436.89 36.9686 Q2433.77 42.5588 2433.77 49.9314 Q2433.77 58.8434 2436.81 63.0969 Q2439.89 67.4314 2444.79 67.4314 Q2450.22 67.4314 2453.14 58.8029 L2455.61 51.4708 M2459.78 39.075 L2463.79 27.2059 L2470.44 27.2059 L2462.13 51.7949 L2463.75 60.6663 Q2464.12 62.6513 2465.53 64.3122 Q2467.19 66.2566 2468.49 66.2566 L2472.06 66.2566 L2472.06 72.576 L2467.6 72.576 Q2463.79 72.576 2460.39 69.1732 Q2458.73 67.4719 2458.04 63.9071 Q2456.18 68.4036 2452.37 71.9279 Q2450.59 73.5887 2444.79 73.5887 Q2435.27 73.5887 2430.66 67.4314 Q2425.92 61.0714 2425.92 49.9314 Q2425.92 38.0218 2431.06 32.4315 Q2436.77 26.1931 2444.79 26.1931 Q2457.39 26.1931 2459.78 39.075 Z" fill="#000000" fill-rule="nonzero" fill-opacity="1" /><circle clip-path="url(#clip122)" cx="273.254" cy="189.727" r="28.8" fill="#ff0000" fill-rule="evenodd" fill-opacity="1" stroke="#000000" stroke-opacity="1" stroke-width="4.8"/>
<circle clip-path="url(#clip122)" cx="894.506" cy="1638.98" r="28.8" fill="#ff0000" fill-rule="evenodd" fill-opacity="1" stroke="#000000" stroke-opacity="1" stroke-width="4.8"/>
<circle clip-path="url(#clip122)" cx="1515.76" cy="1928.84" r="28.8" fill="#ff0000" fill-rule="evenodd" fill-opacity="1" stroke="#000000" stroke-opacity="1" stroke-width="4.8"/>
<circle clip-path="url(#clip122)" cx="2447.64" cy="2091.88" r="28.8" fill="#ff0000" fill-rule="evenodd" fill-opacity="1" stroke="#000000" stroke-opacity="1" stroke-width="4.8"/>
<circle clip-path="url(#clip122)" cx="3068.89" cy="2146.22" r="28.8" fill="#ff0000" fill-rule="evenodd" fill-opacity="1" stroke="#000000" stroke-opacity="1" stroke-width="4.8"/>
<path clip-path="url(#clip120)" d="M2257.36 303.842 L3053.98 303.842 L3053.98 200.162 L2257.36 200.162  Z" fill="#ffffff" fill-rule="evenodd" fill-opacity="1"/>
<polyline clip-path="url(#clip120)" style="stroke:#000000; stroke-linecap:round; stroke-linejoin:round; stroke-width:4; stroke-opacity:1; fill:none" points="2257.36,303.842 3053.98,303.842 3053.98,200.162 2257.36,200.162 2257.36,303.842 "/>
<circle clip-path="url(#clip120)" cx="2389.07" cy="252.002" r="21.6847" fill="#ff0000" fill-rule="evenodd" fill-opacity="1" stroke="#000000" stroke-opacity="1" stroke-width="3.61412"/>
<path clip-path="url(#clip120)" d="M2539.87 269.282 L2539.87 255.115 L2530.22 255.115 Q2525.91 255.115 2523.34 252.43 Q2520.78 249.722 2520.78 244.212 L2520.78 234.722 L2525.43 234.722 L2525.43 243.842 Q2525.43 247.523 2526.86 249.351 Q2528.3 251.18 2531.17 251.18 L2539.87 251.18 L2539.87 234.722 L2544.57 234.722 L2544.57 269.282 L2539.87 269.282 Z" fill="#000000" fill-rule="nonzero" fill-opacity="1" /><path clip-path="url(#clip120)" d="M2575.73 243.356 L2575.73 269.282 L2571.49 269.282 L2571.49 248.472 L2558.99 269.282 L2553.53 269.282 L2553.53 243.356 L2557.77 243.356 L2557.77 264.12 L2570.24 243.356 L2575.73 243.356 Z" fill="#000000" fill-rule="nonzero" fill-opacity="1" /><path clip-path="url(#clip120)" d="M2603.16 244.351 L2603.16 248.333 Q2601.35 247.337 2599.53 246.851 Q2597.72 246.342 2595.87 246.342 Q2591.72 246.342 2589.43 248.981 Q2587.14 251.597 2587.14 256.342 Q2587.14 261.087 2589.43 263.726 Q2591.72 266.342 2595.87 266.342 Q2597.72 266.342 2599.53 265.856 Q2601.35 265.347 2603.16 264.351 L2603.16 268.286 Q2601.38 269.12 2599.46 269.536 Q2597.56 269.953 2595.4 269.953 Q2589.55 269.953 2586.1 266.272 Q2582.65 262.592 2582.65 256.342 Q2582.65 249.999 2586.12 246.365 Q2589.62 242.731 2595.68 242.731 Q2597.65 242.731 2599.53 243.148 Q2601.4 243.541 2603.16 244.351 Z" fill="#000000" fill-rule="nonzero" fill-opacity="1" /><path clip-path="url(#clip120)" d="M2607.86 269.282 L2607.86 265.74 Q2612.07 265.092 2613.37 262.175 Q2614.94 258.078 2614.94 247.592 L2614.94 243.356 L2632.46 243.356 L2632.46 269.282 L2628.21 269.282 L2628.21 246.759 L2619.2 246.759 L2619.2 249.328 Q2619.2 259.328 2617.16 263.819 Q2614.99 268.61 2607.86 269.282 Z" fill="#000000" fill-rule="nonzero" fill-opacity="1" /><path clip-path="url(#clip120)" d="M2663.04 255.254 L2663.04 257.337 L2643.46 257.337 Q2643.74 261.735 2646.1 264.05 Q2648.48 266.342 2652.72 266.342 Q2655.17 266.342 2657.46 265.74 Q2659.78 265.138 2662.05 263.935 L2662.05 267.962 Q2659.76 268.934 2657.35 269.444 Q2654.94 269.953 2652.46 269.953 Q2646.26 269.953 2642.63 266.342 Q2639.02 262.731 2639.02 256.573 Q2639.02 250.208 2642.44 246.481 Q2645.89 242.731 2651.72 242.731 Q2656.96 242.731 2659.99 246.111 Q2663.04 249.467 2663.04 255.254 M2658.78 254.004 Q2658.74 250.509 2656.82 248.425 Q2654.92 246.342 2651.77 246.342 Q2648.21 246.342 2646.05 248.356 Q2643.92 250.37 2643.6 254.027 L2658.78 254.004 Z" fill="#000000" fill-rule="nonzero" fill-opacity="1" /><path clip-path="url(#clip120)" d="M2669.87 243.356 L2674.15 243.356 L2674.15 253.935 L2687.97 253.935 L2687.97 243.356 L2692.26 243.356 L2692.26 269.282 L2687.97 269.282 L2687.97 257.337 L2674.15 257.337 L2674.15 269.282 L2669.87 269.282 L2669.87 243.356 Z" fill="#000000" fill-rule="nonzero" fill-opacity="1" /><path clip-path="url(#clip120)" d="M2700.87 243.356 L2705.15 243.356 L2705.15 253.935 L2718.97 253.935 L2718.97 243.356 L2723.25 243.356 L2723.25 269.282 L2718.97 269.282 L2718.97 257.337 L2705.15 257.337 L2705.15 269.282 L2700.87 269.282 L2700.87 243.356 Z" fill="#000000" fill-rule="nonzero" fill-opacity="1" /><path clip-path="url(#clip120)" d="M2742.07 246.342 Q2738.64 246.342 2736.65 249.027 Q2734.66 251.689 2734.66 256.342 Q2734.66 260.995 2736.63 263.68 Q2738.62 266.342 2742.07 266.342 Q2745.47 266.342 2747.46 263.657 Q2749.45 260.972 2749.45 256.342 Q2749.45 251.736 2747.46 249.05 Q2745.47 246.342 2742.07 246.342 M2742.07 242.731 Q2747.63 242.731 2750.8 246.342 Q2753.97 249.953 2753.97 256.342 Q2753.97 262.708 2750.8 266.342 Q2747.63 269.953 2742.07 269.953 Q2736.49 269.953 2733.32 266.342 Q2730.17 262.708 2730.17 256.342 Q2730.17 249.953 2733.32 246.342 Q2736.49 242.731 2742.07 242.731 Z" fill="#000000" fill-rule="nonzero" fill-opacity="1" /><path clip-path="url(#clip120)" d="M2783.2 255.254 L2783.2 257.337 L2763.62 257.337 Q2763.9 261.735 2766.26 264.05 Q2768.64 266.342 2772.88 266.342 Q2775.33 266.342 2777.63 265.74 Q2779.94 265.138 2782.21 263.935 L2782.21 267.962 Q2779.92 268.934 2777.51 269.444 Q2775.1 269.953 2772.63 269.953 Q2766.42 269.953 2762.79 266.342 Q2759.18 262.731 2759.18 256.573 Q2759.18 250.208 2762.6 246.481 Q2766.05 242.731 2771.89 242.731 Q2777.12 242.731 2780.15 246.111 Q2783.2 249.467 2783.2 255.254 M2778.95 254.004 Q2778.9 250.509 2776.98 248.425 Q2775.08 246.342 2771.93 246.342 Q2768.37 246.342 2766.21 248.356 Q2764.08 250.37 2763.76 254.027 L2778.95 254.004 Z" fill="#000000" fill-rule="nonzero" fill-opacity="1" /><path clip-path="url(#clip120)" d="M2809.39 265.393 L2809.39 279.143 L2805.1 279.143 L2805.1 243.356 L2809.39 243.356 L2809.39 247.291 Q2810.73 244.976 2812.76 243.865 Q2814.82 242.731 2817.67 242.731 Q2822.39 242.731 2825.33 246.481 Q2828.3 250.231 2828.3 256.342 Q2828.3 262.453 2825.33 266.203 Q2822.39 269.953 2817.67 269.953 Q2814.82 269.953 2812.76 268.842 Q2810.73 267.708 2809.39 265.393 M2823.88 256.342 Q2823.88 251.643 2821.93 248.981 Q2820.01 246.296 2816.63 246.296 Q2813.25 246.296 2811.31 248.981 Q2809.39 251.643 2809.39 256.342 Q2809.39 261.041 2811.31 263.726 Q2813.25 266.388 2816.63 266.388 Q2820.01 266.388 2821.93 263.726 Q2823.88 261.041 2823.88 256.342 Z" fill="#000000" fill-rule="nonzero" fill-opacity="1" /><path clip-path="url(#clip120)" d="M2857.53 255.254 L2857.53 257.337 L2837.95 257.337 Q2838.23 261.735 2840.59 264.05 Q2842.97 266.342 2847.21 266.342 Q2849.66 266.342 2851.95 265.74 Q2854.27 265.138 2856.54 263.935 L2856.54 267.962 Q2854.25 268.934 2851.84 269.444 Q2849.43 269.953 2846.95 269.953 Q2840.75 269.953 2837.12 266.342 Q2833.51 262.731 2833.51 256.573 Q2833.51 250.208 2836.93 246.481 Q2840.38 242.731 2846.21 242.731 Q2851.44 242.731 2854.48 246.111 Q2857.53 249.467 2857.53 255.254 M2853.27 254.004 Q2853.23 250.509 2851.31 248.425 Q2849.41 246.342 2846.26 246.342 Q2842.7 246.342 2840.54 248.356 Q2838.41 250.37 2838.09 254.027 L2853.27 254.004 Z" fill="#000000" fill-rule="nonzero" fill-opacity="1" /><path clip-path="url(#clip120)" d="M2883.88 265.879 L2894.85 265.879 L2894.85 243.356 L2899.13 243.356 L2899.13 269.282 L2864.36 269.282 L2864.36 243.356 L2868.64 243.356 L2868.64 265.879 L2879.59 265.879 L2879.59 243.356 L2883.88 243.356 L2883.88 265.879 Z" fill="#000000" fill-rule="nonzero" fill-opacity="1" /><path clip-path="url(#clip120)" d="M2930.08 255.254 L2930.08 257.337 L2910.5 257.337 Q2910.77 261.735 2913.13 264.05 Q2915.52 266.342 2919.75 266.342 Q2922.21 266.342 2924.5 265.74 Q2926.81 265.138 2929.08 263.935 L2929.08 267.962 Q2926.79 268.934 2924.38 269.444 Q2921.98 269.953 2919.5 269.953 Q2913.3 269.953 2909.66 266.342 Q2906.05 262.731 2906.05 256.573 Q2906.05 250.208 2909.48 246.481 Q2912.93 242.731 2918.76 242.731 Q2923.99 242.731 2927.02 246.111 Q2930.08 249.467 2930.08 255.254 M2925.82 254.004 Q2925.77 250.509 2923.85 248.425 Q2921.95 246.342 2918.81 246.342 Q2915.24 246.342 2913.09 248.356 Q2910.96 250.37 2910.63 254.027 L2925.82 254.004 Z" fill="#000000" fill-rule="nonzero" fill-opacity="1" /><path clip-path="url(#clip120)" d="M2936.91 243.356 L2941.19 243.356 L2941.19 253.935 L2955.01 253.935 L2955.01 243.356 L2959.29 243.356 L2959.29 269.282 L2955.01 269.282 L2955.01 257.337 L2941.19 257.337 L2941.19 269.282 L2936.91 269.282 L2936.91 243.356 Z" fill="#000000" fill-rule="nonzero" fill-opacity="1" /><path clip-path="url(#clip120)" d="M2990.1 243.356 L2990.1 269.282 L2985.87 269.282 L2985.87 248.472 L2973.37 269.282 L2967.9 269.282 L2967.9 243.356 L2972.14 243.356 L2972.14 264.12 L2984.62 243.356 L2990.1 243.356 Z" fill="#000000" fill-rule="nonzero" fill-opacity="1" /><path clip-path="url(#clip120)" d="M3021.05 255.254 L3021.05 257.337 L3001.47 257.337 Q3001.75 261.735 3004.11 264.05 Q3006.49 266.342 3010.73 266.342 Q3013.18 266.342 3015.47 265.74 Q3017.79 265.138 3020.06 263.935 L3020.06 267.962 Q3017.76 268.934 3015.36 269.444 Q3012.95 269.953 3010.47 269.953 Q3004.27 269.953 3000.63 266.342 Q2997.02 262.731 2997.02 256.573 Q2997.02 250.208 3000.45 246.481 Q3003.9 242.731 3009.73 242.731 Q3014.96 242.731 3018 246.111 Q3021.05 249.467 3021.05 255.254 M3016.79 254.004 Q3016.75 250.509 3014.82 248.425 Q3012.93 246.342 3009.78 246.342 Q3006.21 246.342 3004.06 248.356 Q3001.93 250.37 3001.61 254.027 L3016.79 254.004 Z" fill="#000000" fill-rule="nonzero" fill-opacity="1" /></svg>
